<?xml version="1.0" encoding="UTF-8" standalone="no"?>
<svg
   height="48"
   width="48"
   version="1.1"
   id="svg12"
   sodipodi:docname="distributor-logo-archcraft.svg"
   inkscape:version="1.1 (c4e8f9ed74, 2021-05-24)"
   xmlns:inkscape="http://www.inkscape.org/namespaces/inkscape"
   xmlns:sodipodi="http://sodipodi.sourceforge.net/DTD/sodipodi-0.dtd"
   xmlns:xlink="http://www.w3.org/1999/xlink"
   xmlns="http://www.w3.org/2000/svg"
   xmlns:svg="http://www.w3.org/2000/svg">
  <defs
     id="defs16">
    <linearGradient
       inkscape:collect="always"
       xlink:href="#linearGradient1303-6"
       id="linearGradient1305-3"
       x1="-15.25123"
       y1="194.95467"
       x2="139.77541"
       y2="42.713833"
       gradientUnits="userSpaceOnUse"
       gradientTransform="matrix(0.23906345,0,0,0.23901319,2.48676,2.34838)" />
    <linearGradient
       inkscape:collect="always"
       id="linearGradient1303-6">
      <stop
         style="stop-color:#98c379;stop-opacity:1"
         offset="0"
         id="stop1299-7" />
      <stop
         style="stop-color:#e5c07a;stop-opacity:1"
         offset="1"
         id="stop1301-5" />
    </linearGradient>
  </defs>
  <sodipodi:namedview
     id="namedview14"
     pagecolor="#ffffff"
     bordercolor="#666666"
     borderopacity="1.0"
     inkscape:pageshadow="2"
     inkscape:pageopacity="0.0"
     inkscape:pagecheckerboard="0"
     showgrid="false"
     inkscape:zoom="9.862427"
     inkscape:cx="24.588268"
     inkscape:cy="24.385478"
     inkscape:window-width="1900"
     inkscape:window-height="986"
     inkscape:window-x="10"
     inkscape:window-y="48"
     inkscape:window-maximized="1"
     inkscape:current-layer="svg12" />
  <path
     id="path1122"
     style="fill:#1a1a1a;fill-opacity:1;stroke-width:0.23903;opacity:0.1"
     d="m 24.856554,5 v 8.953e-4 c -1.76827,4.3343497 -2.834309,7.1698767 -4.803173,11.3754187 1.712602,0.865354 3.211473,2.242835 5.094528,4.451577 C 23.006668,19.134367 21.337426,18.1117 19.477674,17.586316 16.958031,22.842756 13.010508,30.330335 5,44.720615 7.3747049,43.32787 20.800226,39.822094 19.580863,36.647435 19.251888,35.854818 18.590021,35.74949 17.571254,35.387498 V 33.37038 c 1.020637,-0.363233 1.680634,-0.46716 2.009609,-1.260413 0.329603,-0.794495 -0.06396,-1.335417 -0.529017,-2.314012 l 1.42643,-1.425669 c 0.983179,0.467463 1.520622,0.857974 2.314037,0.528445 h 4.91e-4 c 0.792792,-0.328908 0.897368,-0.988761 1.26067,-2.00919 h 2.017547 c 0.36456,1.025425 0.468043,1.680903 1.260211,2.00919 h 4.91e-4 c 0.795287,0.329529 1.340066,-0.06542 2.314505,-0.528445 l 1.425964,1.425669 c -0.466316,0.981729 -0.85753,1.520773 -0.528551,2.314012 v 4.91e-4 c 0.327731,0.790755 0.978982,0.893599 2.009613,1.259951 v 2.017118 c -6.669247,3.726266 8.916372,8.046942 12.167386,9.333117 -1.224688,-2.254258 -2.318012,-4.286538 -3.361807,-6.221765 -1.644312,-1.27419 -3.359486,-2.932306 -6.858065,-4.727475 2.404664,0.624719 4.126475,1.345482 5.468525,2.151096 C 29.35565,16.16586 28.496169,13.5406 24.856554,5 Z m 0.205437,26.882661 c -1.378953,0 -2.496603,1.117873 -2.496603,2.496538 0,1.378666 1.11765,2.496077 2.496603,2.496077 1.378953,0 2.497073,-1.117411 2.497073,-2.496077 0,-1.378665 -1.11812,-2.496538 -2.497073,-2.496538 z"
     sodipodi:nodetypes="cccccccccccccccccccccccccccccsssss" />
  <path
     id="path53-3"
     style="fill:url(#linearGradient1305-3);fill-opacity:1;stroke-width:0.239033"
     d="m 23.998741,4 v 9e-4 c -1.768286,4.3344 -2.834335,7.16996 -4.803214,11.37553 1.712617,0.86536 3.211505,2.24287 5.094573,4.45162 C 22.148837,18.1345 20.479582,17.11182 18.619814,16.58644 16.100146,21.84293 12.15258,29.33057 4.142,43.72097 6.51673,42.32823 19.942377,38.82241 18.723003,35.64774 18.394027,34.85511 17.732151,34.74977 16.713376,34.38778 v -2.01714 c 1.020646,-0.36323 1.680651,-0.46716 2.009627,-1.26042 0.329606,-0.7945 -0.06395,-1.33542 -0.529021,-2.31404 l 1.426443,-1.42568 c 0.983191,0.46748 1.520638,0.85798 2.314059,0.52845 h 4.91e-4 c 0.792796,-0.32891 0.897376,-0.98877 1.260683,-2.0092 h 2.017566 c 0.364558,1.02543 0.468043,1.68091 1.260219,2.0092 h 4.92e-4 c 0.795295,0.32954 1.340076,-0.0653 2.314526,-0.52844 l 1.425977,1.42568 c -0.466316,0.98173 -0.857534,1.52078 -0.528555,2.31404 v 4.9e-4 c 0.327733,0.79076 0.978995,0.8936 2.009628,1.25995 v 2.01714 c -6.669325,3.7263 8.916445,8.04701 12.167489,9.33319 -1.224694,-2.25427 -2.31803,-4.28657 -3.361831,-6.22181 -1.644331,-1.2742 -3.359522,-2.93233 -6.858132,-4.72752 2.404683,0.62472 4.126507,1.3455 5.468577,2.15112 C 28.497883,15.16597 27.638395,12.54069 23.998741,4 Z m 0.205445,26.88292 c -1.378965,0 -2.496625,1.11789 -2.496625,2.49656 0,1.37868 1.11766,2.4961 2.496625,2.4961 1.378968,0 2.497092,-1.11742 2.497092,-2.4961 0,-1.37867 -1.118124,-2.49656 -2.497092,-2.49656 z"
     sodipodi:nodetypes="cccccccccccccccccccccccccccccsssss"
     inkscape:export-filename="/home/adi1090x/0_Archcraft_Reborn/artworks/plymouth/5.png"
     inkscape:export-xdpi="86.649094"
     inkscape:export-ydpi="86.649094" />
</svg>
