<?xml version="1.0" encoding="UTF-8" standalone="no"?>
<svg
   height="48"
   width="48"
   version="1.1"
   id="svg12"
   sodipodi:docname="distributor-logo-archcraft.svg"
   inkscape:version="1.1 (c4e8f9ed74, 2021-05-24)"
   xmlns:inkscape="http://www.inkscape.org/namespaces/inkscape"
   xmlns:sodipodi="http://sodipodi.sourceforge.net/DTD/sodipodi-0.dtd"
   xmlns:xlink="http://www.w3.org/1999/xlink"
   xmlns="http://www.w3.org/2000/svg"
   xmlns:svg="http://www.w3.org/2000/svg">
  <defs
     id="defs16">
    <linearGradient
       inkscape:collect="always"
       xlink:href="#linearGradient1303-6"
       id="linearGradient1305-5"
       x1="-15.25123"
       y1="194.95467"
       x2="139.77541"
       y2="42.713833"
       gradientUnits="userSpaceOnUse"
       gradientTransform="matrix(0.23906366,0,0,0.23901335,2.486765,2.3483809)" />
    <linearGradient
       inkscape:collect="always"
       id="linearGradient1303-6">
      <stop
         style="stop-color:#e06b74;stop-opacity:1"
         offset="0"
         id="stop1299-2" />
      <stop
         style="stop-color:#c778dd;stop-opacity:1"
         offset="1"
         id="stop1301-9" />
    </linearGradient>
  </defs>
  <sodipodi:namedview
     id="namedview14"
     pagecolor="#ffffff"
     bordercolor="#666666"
     borderopacity="1.0"
     inkscape:pageshadow="2"
     inkscape:pageopacity="0.0"
     inkscape:pagecheckerboard="0"
     showgrid="false"
     inkscape:zoom="7.9261589"
     inkscape:cx="22.646531"
     inkscape:cy="26.936124"
     inkscape:window-width="1900"
     inkscape:window-height="986"
     inkscape:window-x="10"
     inkscape:window-y="48"
     inkscape:window-maximized="1"
     inkscape:current-layer="svg12" />
  <path
     id="path1122"
     style="fill:#1a1a1a;fill-opacity:1;stroke-width:0.23903;opacity:0.1"
     d="m 24.856554,5 v 8.953e-4 c -1.76827,4.3343497 -2.834309,7.1698767 -4.803173,11.3754187 1.712602,0.865354 3.211473,2.242835 5.094528,4.451577 C 23.006668,19.134367 21.337426,18.1117 19.477674,17.586316 16.958031,22.842756 13.010508,30.330335 5,44.720615 7.3747049,43.32787 20.800226,39.822094 19.580863,36.647435 19.251888,35.854818 18.590021,35.74949 17.571254,35.387498 V 33.37038 c 1.020637,-0.363233 1.680634,-0.46716 2.009609,-1.260413 0.329603,-0.794495 -0.06396,-1.335417 -0.529017,-2.314012 l 1.42643,-1.425669 c 0.983179,0.467463 1.520622,0.857974 2.314037,0.528445 h 4.91e-4 c 0.792792,-0.328908 0.897368,-0.988761 1.26067,-2.00919 h 2.017547 c 0.36456,1.025425 0.468043,1.680903 1.260211,2.00919 h 4.91e-4 c 0.795287,0.329529 1.340066,-0.06542 2.314505,-0.528445 l 1.425964,1.425669 c -0.466316,0.981729 -0.85753,1.520773 -0.528551,2.314012 v 4.91e-4 c 0.327731,0.790755 0.978982,0.893599 2.009613,1.259951 v 2.017118 c -6.669247,3.726266 8.916372,8.046942 12.167386,9.333117 -1.224688,-2.254258 -2.318012,-4.286538 -3.361807,-6.221765 -1.644312,-1.27419 -3.359486,-2.932306 -6.858065,-4.727475 2.404664,0.624719 4.126475,1.345482 5.468525,2.151096 C 29.35565,16.16586 28.496169,13.5406 24.856554,5 Z m 0.205437,26.882661 c -1.378953,0 -2.496603,1.117873 -2.496603,2.496538 0,1.378666 1.11765,2.496077 2.496603,2.496077 1.378953,0 2.497073,-1.117411 2.497073,-2.496077 0,-1.378665 -1.11812,-2.496538 -2.497073,-2.496538 z"
     sodipodi:nodetypes="cccccccccccccccccccccccccccccsssss" />
  <path
     id="path53-1"
     style="fill:url(#linearGradient1305-5);fill-opacity:1;stroke-width:0.239033"
     d="m 23.99876,4 v 9.037e-4 c -1.768289,4.3344015 -2.834339,7.1699623 -4.803215,11.3755393 1.712611,0.865364 3.211507,2.242868 5.094573,4.451624 C 22.148854,18.13451 20.479595,17.111836 18.619832,16.586449 16.100153,21.842943 12.152589,29.330593 4.142,43.721001 6.516731,42.328256 19.94239,38.822434 18.723017,35.647764 18.394044,34.855129 17.732168,34.749797 16.713391,34.387809 v -2.017141 c 1.020647,-0.363251 1.680653,-0.467169 2.009626,-1.260424 0.329605,-0.794498 -0.06397,-1.335428 -0.529018,-2.314042 l 1.426439,-1.425679 c 0.983196,0.467475 1.520644,0.857983 2.314068,0.528446 h 4.64e-4 c 0.792799,-0.328895 0.897385,-0.98877 1.260693,-2.009205 h 2.017568 c 0.364554,1.025428 0.468038,1.680919 1.260223,2.009205 h 4.64e-4 c 0.795302,0.329537 1.340079,-0.06535 2.314536,-0.528446 l 1.42597,1.425679 c -0.46631,0.981736 -0.857529,1.520788 -0.528548,2.314042 v 4.65e-4 c 0.327723,0.790761 0.978996,0.893602 2.009628,1.259959 v 2.017141 c -6.669331,3.726297 8.916449,8.047015 12.167497,9.333192 -1.224695,-2.254273 -2.318033,-4.286574 -3.361833,-6.221817 -1.644336,-1.2742 -3.359524,-2.932331 -6.858142,-4.727516 2.404683,0.624718 4.126515,1.345497 5.468587,2.151122 C 28.497903,15.165974 27.638423,12.540697 23.99876,4 Z m 0.205447,26.882936 c -1.378967,0 -2.496628,1.11789 -2.496628,2.496567 0,1.378681 1.117661,2.496102 2.496628,2.496102 1.378968,0 2.49709,-1.117421 2.49709,-2.496102 0,-1.378677 -1.118122,-2.496567 -2.49709,-2.496567 z"
     sodipodi:nodetypes="cccccccccccccccccccccccccccccsssss"
     inkscape:export-filename="/home/adi1090x/0_Archcraft_Reborn/artworks/plymouth/5.png"
     inkscape:export-xdpi="86.649094"
     inkscape:export-ydpi="86.649094" />
</svg>
