<?xml version="1.0" encoding="UTF-8" standalone="no"?>
<svg
   height="48"
   width="48"
   version="1.1"
   id="svg12"
   sodipodi:docname="distributor-logo-archcraft.svg"
   inkscape:version="1.1 (c4e8f9ed74, 2021-05-24)"
   xmlns:inkscape="http://www.inkscape.org/namespaces/inkscape"
   xmlns:sodipodi="http://sodipodi.sourceforge.net/DTD/sodipodi-0.dtd"
   xmlns:xlink="http://www.w3.org/1999/xlink"
   xmlns="http://www.w3.org/2000/svg"
   xmlns:svg="http://www.w3.org/2000/svg">
  <defs
     id="defs16">
    <linearGradient
       inkscape:collect="always"
       xlink:href="#linearGradient1303"
       id="linearGradient1305"
       x1="-15.25123"
       y1="194.95467"
       x2="139.77541"
       y2="42.713833"
       gradientUnits="userSpaceOnUse"
       gradientTransform="matrix(0.23906381,0,0,0.23901316,2.4867639,2.3483821)" />
    <linearGradient
       inkscape:collect="always"
       id="linearGradient1303">
      <stop
         style="stop-color:#c778dd;stop-opacity:1"
         offset="0"
         id="stop1299" />
      <stop
         style="stop-color:#55b6c2;stop-opacity:1"
         offset="1"
         id="stop1301" />
    </linearGradient>
  </defs>
  <sodipodi:namedview
     id="namedview14"
     pagecolor="#ffffff"
     bordercolor="#666666"
     borderopacity="1.0"
     inkscape:pageshadow="2"
     inkscape:pageopacity="0.0"
     inkscape:pagecheckerboard="0"
     showgrid="false"
     inkscape:zoom="7.9261589"
     inkscape:cx="22.646531"
     inkscape:cy="26.936124"
     inkscape:window-width="1900"
     inkscape:window-height="986"
     inkscape:window-x="10"
     inkscape:window-y="48"
     inkscape:window-maximized="1"
     inkscape:current-layer="svg12" />
  <path
     id="path1122"
     style="fill:#1a1a1a;fill-opacity:1;stroke-width:0.23903;opacity:0.1"
     d="m 24.856554,5 v 8.953e-4 c -1.76827,4.3343497 -2.834309,7.1698767 -4.803173,11.3754187 1.712602,0.865354 3.211473,2.242835 5.094528,4.451577 C 23.006668,19.134367 21.337426,18.1117 19.477674,17.586316 16.958031,22.842756 13.010508,30.330335 5,44.720615 7.3747049,43.32787 20.800226,39.822094 19.580863,36.647435 19.251888,35.854818 18.590021,35.74949 17.571254,35.387498 V 33.37038 c 1.020637,-0.363233 1.680634,-0.46716 2.009609,-1.260413 0.329603,-0.794495 -0.06396,-1.335417 -0.529017,-2.314012 l 1.42643,-1.425669 c 0.983179,0.467463 1.520622,0.857974 2.314037,0.528445 h 4.91e-4 c 0.792792,-0.328908 0.897368,-0.988761 1.26067,-2.00919 h 2.017547 c 0.36456,1.025425 0.468043,1.680903 1.260211,2.00919 h 4.91e-4 c 0.795287,0.329529 1.340066,-0.06542 2.314505,-0.528445 l 1.425964,1.425669 c -0.466316,0.981729 -0.85753,1.520773 -0.528551,2.314012 v 4.91e-4 c 0.327731,0.790755 0.978982,0.893599 2.009613,1.259951 v 2.017118 c -6.669247,3.726266 8.916372,8.046942 12.167386,9.333117 -1.224688,-2.254258 -2.318012,-4.286538 -3.361807,-6.221765 -1.644312,-1.27419 -3.359486,-2.932306 -6.858065,-4.727475 2.404664,0.624719 4.126475,1.345482 5.468525,2.151096 C 29.35565,16.16586 28.496169,13.5406 24.856554,5 Z m 0.205437,26.882661 c -1.378953,0 -2.496603,1.117873 -2.496603,2.496538 0,1.378666 1.11765,2.496077 2.496603,2.496077 1.378953,0 2.497073,-1.117411 2.497073,-2.496077 0,-1.378665 -1.11812,-2.496538 -2.497073,-2.496538 z"
     sodipodi:nodetypes="cccccccccccccccccccccccccccccsssss" />
  <path
     id="path53"
     style="fill:url(#linearGradient1305);fill-opacity:1;stroke-width:0.239033"
     d="m 23.998769,4 v 9.037e-4 C 22.23048,8.3353018 21.16443,11.17086 19.195548,15.376434 c 1.71262,0.865363 3.21151,2.242866 5.094581,4.451621 C 22.148862,18.13453 20.479605,17.111857 18.619834,16.586471 16.100163,21.84296 12.152596,29.330605 4.142,43.721001 6.5167316,42.328256 19.9424,38.822438 18.723024,35.647771 18.394047,34.855136 17.73217,34.749805 16.713394,34.387817 v -2.017142 c 1.020648,-0.363212 1.680653,-0.467168 2.00963,-1.260419 0.329605,-0.794499 -0.06395,-1.335428 -0.529022,-2.314039 l 1.426445,-1.425679 c 0.983192,0.467471 1.52064,0.857979 2.314062,0.528442 h 4.64e-4 c 0.7928,-0.328906 0.89738,-0.98877 1.260688,-2.009202 h 2.017567 c 0.364559,1.025429 0.468045,1.680916 1.260223,2.009202 h 4.64e-4 c 0.795297,0.329537 1.340082,-0.06535 2.314531,-0.528442 l 1.425978,1.425679 c -0.466318,0.981733 -0.857537,1.520784 -0.528556,2.314039 v 4.65e-4 c 0.327723,0.79076 0.978992,0.893597 2.009628,1.259954 v 2.017142 c -6.669332,3.726289 8.916457,8.047007 12.167505,9.333184 -1.224688,-2.254273 -2.318034,-4.28657 -3.361833,-6.221813 -1.644329,-1.274196 -3.359528,-2.932328 -6.858138,-4.727512 2.404686,0.624718 4.126514,1.345496 5.468579,2.151118 C 28.497921,15.165965 27.63843,12.540691 23.998769,4 Z m 0.205444,26.882913 c -1.378967,0 -2.496629,1.11789 -2.496629,2.496567 0,1.378677 1.117662,2.496098 2.496629,2.496098 1.378969,0 2.497091,-1.117421 2.497091,-2.496098 0,-1.378677 -1.118122,-2.496567 -2.497091,-2.496567 z"
     sodipodi:nodetypes="cccccccccccccccccccccccccccccsssss"
     inkscape:export-filename="/home/adi1090x/0_Archcraft_Reborn/artworks/plymouth/5.png"
     inkscape:export-xdpi="86.649094"
     inkscape:export-ydpi="86.649094" />
</svg>
