<?xml version="1.0" encoding="UTF-8" standalone="no"?>
<svg
   height="48"
   width="48"
   version="1.1"
   id="svg12"
   sodipodi:docname="distributor-logo-archlabs.svg"
   inkscape:version="1.1 (c4e8f9ed74, 2021-05-24)"
   xmlns:inkscape="http://www.inkscape.org/namespaces/inkscape"
   xmlns:sodipodi="http://sodipodi.sourceforge.net/DTD/sodipodi-0.dtd"
   xmlns:xlink="http://www.w3.org/1999/xlink"
   xmlns="http://www.w3.org/2000/svg"
   xmlns:svg="http://www.w3.org/2000/svg">
  <defs
     id="defs16">
    <linearGradient
       inkscape:collect="always"
       xlink:href="#linearGradient1303"
       id="linearGradient1305"
       x1="-15.25123"
       y1="194.95467"
       x2="139.77541"
       y2="42.713833"
       gradientUnits="userSpaceOnUse"
       gradientTransform="matrix(0.23906114,0,0,0.23901095,2.4870681,2.3483822)" />
    <linearGradient
       inkscape:collect="always"
       id="linearGradient1303">
      <stop
         style="stop-color:#62aeef;stop-opacity:1;"
         offset="0"
         id="stop1299" />
      <stop
         style="stop-color:#98c379;stop-opacity:1"
         offset="1"
         id="stop1301" />
    </linearGradient>
  </defs>
  <sodipodi:namedview
     id="namedview14"
     pagecolor="#ffffff"
     bordercolor="#666666"
     borderopacity="1.0"
     inkscape:pageshadow="2"
     inkscape:pageopacity="0.0"
     inkscape:pagecheckerboard="0"
     showgrid="false"
     inkscape:zoom="12.169832"
     inkscape:cx="33.237927"
     inkscape:cy="31.594519"
     inkscape:window-width="1900"
     inkscape:window-height="986"
     inkscape:window-x="10"
     inkscape:window-y="48"
     inkscape:window-maximized="1"
     inkscape:current-layer="svg12" />
  <path
     id="path1122"
     style="fill:#1a1a1a;fill-opacity:1;stroke-width:0.23903;opacity:0.1"
     d="m 24.856554,5 v 8.953e-4 c -1.76827,4.3343497 -2.834309,7.1698767 -4.803173,11.3754187 1.712602,0.865354 3.211473,2.242835 5.094528,4.451577 C 23.006668,19.134367 21.337426,18.1117 19.477674,17.586316 16.958031,22.842756 13.010508,30.330335 5,44.720615 7.3747049,43.32787 20.800226,39.822094 19.580863,36.647435 19.251888,35.854818 18.590021,35.74949 17.571254,35.387498 V 33.37038 c 1.020637,-0.363233 1.680634,-0.46716 2.009609,-1.260413 0.329603,-0.794495 -0.06396,-1.335417 -0.529017,-2.314012 l 1.42643,-1.425669 c 0.983179,0.467463 1.520622,0.857974 2.314037,0.528445 h 4.91e-4 c 0.792792,-0.328908 0.897368,-0.988761 1.26067,-2.00919 h 2.017547 c 0.36456,1.025425 0.468043,1.680903 1.260211,2.00919 h 4.91e-4 c 0.795287,0.329529 1.340066,-0.06542 2.314505,-0.528445 l 1.425964,1.425669 c -0.466316,0.981729 -0.85753,1.520773 -0.528551,2.314012 v 4.91e-4 c 0.327731,0.790755 0.978982,0.893599 2.009613,1.259951 v 2.017118 c -6.669247,3.726266 8.916372,8.046942 12.167386,9.333117 -1.224688,-2.254258 -2.318012,-4.286538 -3.361807,-6.221765 -1.644312,-1.27419 -3.359486,-2.932306 -6.858065,-4.727475 2.404664,0.624719 4.126475,1.345482 5.468525,2.151096 C 29.35565,16.16586 28.496169,13.5406 24.856554,5 Z m 0.205437,26.882661 c -1.378953,0 -2.496603,1.117873 -2.496603,2.496538 0,1.378666 1.11765,2.496077 2.496603,2.496077 1.378953,0 2.497073,-1.117411 2.497073,-2.496077 0,-1.378665 -1.11812,-2.496538 -2.497073,-2.496538 z"
     sodipodi:nodetypes="cccccccccccccccccccccccccccccsssss" />
  <path
     id="path53"
     style="fill:url(#linearGradient1305);fill-opacity:1;stroke-width:0.23903"
     d="m 23.998842,4 v 8.953e-4 c -1.76827,4.3343502 -2.834309,7.1698767 -4.803173,11.3754187 1.712602,0.865354 3.211473,2.242835 5.094528,4.451577 C 22.148956,18.134367 20.479714,17.1117 18.619962,16.586316 16.100319,21.842756 12.152796,29.330335 4.1422876,43.720615 6.5169925,42.32787 19.942514,38.822094 18.723151,35.647435 18.394176,34.854818 17.732309,34.74949 16.713542,34.387498 V 32.37038 c 1.020637,-0.363233 1.680634,-0.46716 2.009609,-1.260413 0.329603,-0.794495 -0.06396,-1.335417 -0.529017,-2.314012 l 1.42643,-1.425669 c 0.983179,0.467463 1.520622,0.857974 2.314037,0.528445 h 4.91e-4 c 0.792792,-0.328908 0.897368,-0.988761 1.26067,-2.00919 h 2.017547 c 0.36456,1.025425 0.468043,1.680903 1.260211,2.00919 h 4.91e-4 c 0.795287,0.329529 1.340066,-0.06542 2.314505,-0.528445 l 1.425964,1.425669 c -0.466316,0.981729 -0.85753,1.520773 -0.528551,2.314012 v 4.91e-4 c 0.327731,0.790755 0.978982,0.893599 2.009613,1.259951 v 2.017118 c -6.669247,3.726266 8.916372,8.046942 12.167386,9.333117 -1.224688,-2.254258 -2.318012,-4.286538 -3.361807,-6.221765 -1.644312,-1.27419 -3.359486,-2.932306 -6.858065,-4.727475 2.404664,0.624719 4.126475,1.345482 5.468525,2.151096 C 28.497938,15.16586 27.638457,12.5406 23.998842,4 Z m 0.205437,26.882661 c -1.378953,0 -2.496603,1.117873 -2.496603,2.496538 0,1.378666 1.11765,2.496077 2.496603,2.496077 1.378953,0 2.497073,-1.117411 2.497073,-2.496077 0,-1.378665 -1.11812,-2.496538 -2.497073,-2.496538 z"
     sodipodi:nodetypes="cccccccccccccccccccccccccccccsssss" />
</svg>
