<?xml version="1.0" encoding="UTF-8" standalone="no"?>
<svg
   xmlns:dc="http://purl.org/dc/elements/1.1/"
   xmlns:cc="http://creativecommons.org/ns#"
   xmlns:rdf="http://www.w3.org/1999/02/22-rdf-syntax-ns#"
   xmlns:svg="http://www.w3.org/2000/svg"
   xmlns="http://www.w3.org/2000/svg"
   xmlns:sodipodi="http://sodipodi.sourceforge.net/DTD/sodipodi-0.dtd"
   xmlns:inkscape="http://www.inkscape.org/namespaces/inkscape"
   sodipodi:docname="folder-blue-github.svg"
   inkscape:version="1.0.2 (e86c870879, 2021-01-15)"
   id="svg8"
   version="1.1"
   viewBox="0 0 8.4666665 8.4666669"
   height="32"
   width="32">
  <defs
     id="defs2">
    <filter
       inkscape:collect="always"
       style="color-interpolation-filters:sRGB"
       id="filter835"
       x="-0.069642857"
       width="1.1392857"
       y="-0.08125"
       height="1.1625">
      <feGaussianBlur
         inkscape:collect="always"
         stdDeviation="0.8125"
         id="feGaussianBlur837" />
    </filter>
  </defs>
  <sodipodi:namedview
     inkscape:window-maximized="1"
     inkscape:window-y="0"
     inkscape:window-x="0"
     inkscape:window-height="999"
     inkscape:window-width="1920"
     units="px"
     showgrid="false"
     inkscape:document-rotation="0"
     inkscape:current-layer="layer1"
     inkscape:document-units="px"
     inkscape:cy="19.530317"
     inkscape:cx="-6.6300959"
     inkscape:zoom="14.459008"
     inkscape:pageshadow="2"
     inkscape:pageopacity="0.0"
     borderopacity="1.0"
     bordercolor="#666666"
     pagecolor="#ffffff"
     id="base" />
  <metadata
     id="metadata5">
    <rdf:RDF>
      <cc:Work
         rdf:about="">
        <dc:format>image/svg+xml</dc:format>
        <dc:type
           rdf:resource="http://purl.org/dc/dcmitype/StillImage" />
        <dc:title></dc:title>
      </cc:Work>
    </rdf:RDF>
  </metadata>
  <g
     id="layer1"
     inkscape:groupmode="layer"
     inkscape:label="Capa 1">
    <path
       id="rect840-0"
       style="opacity:0.5;fill:#000000;fill-opacity:1;stroke-width:3.48758;filter:url(#filter835)"
       d="m 1.0429688,-8.75 v 2 2 20 H 29.042969 v -20 -2 H 9.0429688 v -2 z"
       transform="matrix(0.26458333,0,0,0.26458333,0.25321455,3.9047208)" />
    <path
       d="m 0.52916668,1.5896163 v 0.529167 0.529166 5.291667 H 7.9375 V 2.6479493 2.1187833 H 2.6458333 v -0.529167 z"
       style="opacity:1;fill:#0096ff;fill-opacity:1;stroke-width:0.922756"
       id="rect840-7" />
    <path
       transform="scale(0.26458333)"
       d="M 2 6 L 2 8 L 2 10 L 30 10 L 30 8 L 10 8 L 10 6 L 2 6 z "
       style="opacity:0.15;fill:#000000;fill-opacity:1;stroke-width:0.932096"
       id="path859" />
    <path
       style="fill:#000000;stroke-width:0.30868;opacity:0"
       d="m 3.0733871,3.7042009 c -0.02829,0 -0.056614,0.01615 -0.067179,0.048516 L 2.5953871,5.2475701 H 3.5513873 L 3.1405655,3.7527172 C 3.1299963,3.7203514 3.101677,3.7042009 3.0733871,3.7042009 Z M 3.5513873,5.2475701 4.2333342,7.0996537 4.9152813,5.2475701 Z m 1.363894,0 H 5.8712818 L 5.46046,3.7527172 c -0.021126,-0.064734 -0.113218,-0.064734 -0.1343569,0 z m 0.9560005,0 -1.6379476,1.8520836 1.7938359,-1.2970298 c 0.049497,-0.035775 0.070233,-0.099169 0.051331,-0.1570672 z M 4.2333342,7.0996537 2.5953871,5.2475701 2.3881671,5.6455567 c -0.018901,0.057898 0.00182,0.1212926 0.051331,0.1570672 z"
       id="path80" />
    <path
       style="fill:#000000;stroke-width:0.370416;opacity:0.3"
       d="m 4.2333333,3.7041667 c -1.0228774,0 -1.8520833,0.8292059 -1.8520833,1.8520834 2.933e-4,0.8175407 0.5365849,1.5381823 1.3196094,1.7732249 V 7.0314056 C 3.2320393,7.134863 3.096762,6.8252164 3.096762,6.8252164 3.0200884,6.6273628 2.9093831,6.6480995 2.9093831,6.6480995 2.7563475,6.5419193 2.9209611,6.5439199 2.9209611,6.5439199 c 0.128758,0.023191 0.2440686,0.1452921 0.3317788,0.2345216 0.060908,0.061963 0.068482,0.1000706 0.224351,0.111468 0.095781,0.013594 0.1837378,-0.00608 0.2295587,-0.026989 0.00643,-0.046451 0.00718,-0.2137438 0.010122,-0.3017699 C 3.3511997,6.4012064 3.1221807,6.0855392 3.1220833,5.7414585 3.1226018,5.4784604 3.2572666,5.2280468 3.4925,5.0527149 V 4.4450001 c 0.120862,0 0.2661088,0.2139775 0.3841624,0.4203363 0.114821,-0.032759 0.2353072,-0.049622 0.3566709,-0.04992 0.1213632,2.975e-4 0.2418496,0.017161 0.3566708,0.04992 C 4.7080579,4.6589776 4.8533052,4.4450001 4.9741667,4.4450001 v 0.6069914 c 0.2354583,0.1755001 0.3701558,0.4262166 0.3704166,0.689467 -5.186e-4,0.3901857 -0.2944701,0.7382403 -0.7350455,0.8703342 0.00575,0.1230992 0.013748,0.2648203 0.013748,0.3754812 0,0.1928759 -0.00104,0.133035 -0.00144,0.2127001 V 7.3649251 C 5.4747633,7.181937 6.0843791,6.4285824 6.0854167,5.5562501 c 0,-1.0228775 -0.8292059,-1.8520834 -1.8520834,-1.8520834 z"
       id="path58" />
  </g>
</svg>
