<?xml version="1.0" encoding="UTF-8" standalone="no"?>
<svg
   xmlns:dc="http://purl.org/dc/elements/1.1/"
   xmlns:cc="http://creativecommons.org/ns#"
   xmlns:rdf="http://www.w3.org/1999/02/22-rdf-syntax-ns#"
   xmlns:svg="http://www.w3.org/2000/svg"
   xmlns="http://www.w3.org/2000/svg"
   xmlns:sodipodi="http://sodipodi.sourceforge.net/DTD/sodipodi-0.dtd"
   xmlns:inkscape="http://www.inkscape.org/namespaces/inkscape"
   width="32"
   height="32"
   viewBox="0 0 8.4666665 8.4666669"
   version="1.1"
   id="svg8"
   inkscape:version="1.0.2 (e86c870879, 2021-01-15)"
   sodipodi:docname="folder-black-download.svg">
  <defs
     id="defs2">
    <filter
       inkscape:collect="always"
       style="color-interpolation-filters:sRGB"
       id="filter12940"
       x="-0.069642857"
       width="1.1392857"
       y="-0.08125"
       height="1.1625">
      <feGaussianBlur
         inkscape:collect="always"
         stdDeviation="0.8125"
         id="feGaussianBlur12942" />
    </filter>
  </defs>
  <sodipodi:namedview
     id="base"
     pagecolor="#ffffff"
     bordercolor="#666666"
     borderopacity="1.0"
     inkscape:pageopacity="0.0"
     inkscape:pageshadow="2"
     inkscape:zoom="14.459008"
     inkscape:cx="2.0814115"
     inkscape:cy="26.331525"
     inkscape:document-units="px"
     inkscape:current-layer="layer1"
     inkscape:document-rotation="0"
     showgrid="false"
     units="px"
     inkscape:window-width="1920"
     inkscape:window-height="999"
     inkscape:window-x="0"
     inkscape:window-y="0"
     inkscape:window-maximized="1" />
  <metadata
     id="metadata5">
    <rdf:RDF>
      <cc:Work
         rdf:about="">
        <dc:format>image/svg+xml</dc:format>
        <dc:type
           rdf:resource="http://purl.org/dc/dcmitype/StillImage" />
        <dc:title />
      </cc:Work>
    </rdf:RDF>
  </metadata>
  <g
     inkscape:label="Capa 1"
     inkscape:groupmode="layer"
     id="layer1">
    <path
       transform="matrix(0.26458333,0,0,0.26458333,0.25321455,3.9047208)"
       d="m 1.0429688,-8.75 v 2 2 20 H 29.042969 v -20 -2 H 9.0429688 v -2 z"
       style="opacity:0.5;fill:#000000;fill-opacity:1;stroke-width:3.48758;filter:url(#filter12940)"
       id="rect840-0" />
    <path
       id="rect840-7"
       style="opacity:1;fill:#5e5e5e;fill-opacity:1;stroke-width:0.922756"
       d="m 0.52916668,1.5896163 v 0.529167 0.529166 5.291667 H 7.9375 V 2.6479493 2.1187833 H 2.6458333 v -0.529167 z" />
    <path
       id="path859"
       style="opacity:0.15;fill:#000000;fill-opacity:1;stroke-width:0.932096"
       d="M 2 6 L 2 8 L 2 10 L 30 10 L 30 8 L 10 8 L 10 6 L 2 6 z "
       transform="scale(0.26458333)" />
    <path
       id="path4"
       class="ColorScheme-Text"
       style="color:#122036;opacity:0.3;fill:#ffffff;fill-opacity:1;stroke:none;stroke-width:0.264583"
       fill="currentColor"
       d="m 4.2333333,3.4395833 c -1.0260541,0 -1.8520833,0.8260317 -1.8520833,1.8520807 0,1.0260595 0.8260292,1.8520913 1.8520833,1.8520913 1.0260542,0 1.8520834,-0.8260318 1.8520834,-1.8520913 0,-1.026049 -0.8260292,-1.8520807 -1.8520834,-1.8520807 z m 0,0.79375 c 0.1465789,0 0.2645833,0.118012 0.2645833,0.2645807 v 0.79375 H 4.7625 A 0.26460979,0.26460979 0 0 1 4.9495686,5.7433236 L 4.420402,6.272485 a 0.26460979,0.26460979 0 0 1 -0.3741373,0 L 3.517098,5.7433236 A 0.26460979,0.26460979 0 0 1 3.7041667,5.2916613 H 3.96875 v -0.79375 c 0,-0.1465686 0.1180044,-0.2645807 0.2645833,-0.264578 z" />
  </g>
</svg>
