<?xml version="1.0" encoding="UTF-8" standalone="no"?>
<svg
   xmlns:dc="http://purl.org/dc/elements/1.1/"
   xmlns:cc="http://creativecommons.org/ns#"
   xmlns:rdf="http://www.w3.org/1999/02/22-rdf-syntax-ns#"
   xmlns:svg="http://www.w3.org/2000/svg"
   xmlns="http://www.w3.org/2000/svg"
   xmlns:sodipodi="http://sodipodi.sourceforge.net/DTD/sodipodi-0.dtd"
   xmlns:inkscape="http://www.inkscape.org/namespaces/inkscape"
   sodipodi:docname="folder-purple-meocloud.svg"
   inkscape:version="1.0.2 (e86c870879, 2021-01-15)"
   id="svg8"
   version="1.1"
   viewBox="0 0 8.4666665 8.4666669"
   height="32"
   width="32">
  <defs
     id="defs2">
    <filter
       inkscape:collect="always"
       style="color-interpolation-filters:sRGB"
       id="filter835"
       x="-0.069642857"
       width="1.1392857"
       y="-0.08125"
       height="1.1625">
      <feGaussianBlur
         inkscape:collect="always"
         stdDeviation="0.8125"
         id="feGaussianBlur837" />
    </filter>
  </defs>
  <sodipodi:namedview
     inkscape:window-maximized="1"
     inkscape:window-y="0"
     inkscape:window-x="0"
     inkscape:window-height="999"
     inkscape:window-width="1920"
     units="px"
     showgrid="false"
     inkscape:document-rotation="0"
     inkscape:current-layer="layer1"
     inkscape:document-units="px"
     inkscape:cy="19.530317"
     inkscape:cx="-6.6300959"
     inkscape:zoom="14.459008"
     inkscape:pageshadow="2"
     inkscape:pageopacity="0.0"
     borderopacity="1.0"
     bordercolor="#666666"
     pagecolor="#ffffff"
     id="base" />
  <metadata
     id="metadata5">
    <rdf:RDF>
      <cc:Work
         rdf:about="">
        <dc:format>image/svg+xml</dc:format>
        <dc:type
           rdf:resource="http://purl.org/dc/dcmitype/StillImage" />
        <dc:title></dc:title>
      </cc:Work>
    </rdf:RDF>
  </metadata>
  <g
     id="layer1"
     inkscape:groupmode="layer"
     inkscape:label="Capa 1">
    <path
       id="rect840-0"
       style="opacity:0.5;fill:#000000;fill-opacity:1;stroke-width:3.48758;filter:url(#filter835)"
       d="m 1.0429688,-8.75 v 2 2 20 H 29.042969 v -20 -2 H 9.0429688 v -2 z"
       transform="matrix(0.26458333,0,0,0.26458333,0.25321455,3.9047208)" />
    <path
       d="m 0.52916668,1.5896163 v 0.529167 0.529166 5.291667 H 7.9375 V 2.6479493 2.1187833 H 2.6458333 v -0.529167 z"
       style="opacity:1;fill:#a659ff;fill-opacity:1;stroke-width:0.922756"
       id="rect840-7" />
    <path
       transform="scale(0.26458333)"
       d="M 2 6 L 2 8 L 2 10 L 30 10 L 30 8 L 10 8 L 10 6 L 2 6 z "
       style="opacity:0.15;fill:#000000;fill-opacity:1;stroke-width:0.932096"
       id="path859" />
    <path
       style="opacity:0.3;fill:#000000;stroke-width:0.30868"
       d="m 4.60375,3.96875 c -0.3710341,0 -0.7108913,0.208668 -0.8791222,0.5395735 C 3.6508538,4.4783815 3.5718309,4.4626395 3.4925,4.4626395 c -0.3089892,0 -0.5695156,0.2287322 -0.6108788,0.5346347 C 2.5828184,5.1000645 2.3815587,5.3812728 2.38125,5.6973617 c 0,0.4090017 0.3318316,0.7408333 0.7408333,0.7408333 h 2.2225 c 0.4090018,0 0.7408334,-0.3318316 0.7408334,-0.7408333 C 6.085108,5.3828156 5.8866264,5.103151 5.5899843,4.9991256 c 9.261e-4,-0.0142 0.00124,-0.028707 0.00154,-0.042906 0,-0.5454385 -0.4423393,-0.987469 -0.9877778,-0.987469 z m -3.087e-4,0.617361 c 0.2114462,0 0.3694907,0.1577358 0.370108,0.3688733 v 0.00185 c -0.01883,0.2771951 0.14971,0.5327826 0.4117799,0.6247694 0.051549,0.017904 0.082418,0.061427 0.082726,0.1157555 0,0.075318 -0.048154,0.1234722 -0.1234722,0.1234722 h -2.2225 c -0.075318,0 -0.1231635,-0.047845 -0.1234722,-0.1228548 v -6.124e-4 c 3.087e-4,-0.054945 0.031486,-0.09816 0.083344,-0.1157555 C 3.3026615,5.5056705 3.461632,5.311819 3.4931174,5.0806173 3.790068,5.2010027 4.1296167,5.0741351 4.2750052,4.7886055 4.3385934,4.6632811 4.4639177,4.586111 4.6034413,4.586111 Z"
       id="path146" />
  </g>
</svg>
