<?xml version="1.0" encoding="UTF-8" standalone="no"?>
<svg
   xmlns:dc="http://purl.org/dc/elements/1.1/"
   xmlns:cc="http://creativecommons.org/ns#"
   xmlns:rdf="http://www.w3.org/1999/02/22-rdf-syntax-ns#"
   xmlns:svg="http://www.w3.org/2000/svg"
   xmlns="http://www.w3.org/2000/svg"
   xmlns:sodipodi="http://sodipodi.sourceforge.net/DTD/sodipodi-0.dtd"
   xmlns:inkscape="http://www.inkscape.org/namespaces/inkscape"
   width="32"
   height="32"
   viewBox="0 0 8.4666665 8.4666669"
   version="1.1"
   id="svg8"
   inkscape:version="1.0.2 (e86c870879, 2021-01-15)"
   sodipodi:docname="folder-brown-templates.svg">
  <defs
     id="defs2">
    <filter
       inkscape:collect="always"
       style="color-interpolation-filters:sRGB"
       id="filter12900"
       x="-0.069642857"
       width="1.1392857"
       y="-0.08125"
       height="1.1625">
      <feGaussianBlur
         inkscape:collect="always"
         stdDeviation="0.8125"
         id="feGaussianBlur12902" />
    </filter>
  </defs>
  <sodipodi:namedview
     id="base"
     pagecolor="#ffffff"
     bordercolor="#666666"
     borderopacity="1.0"
     inkscape:pageopacity="0.0"
     inkscape:pageshadow="2"
     inkscape:zoom="14.459008"
     inkscape:cx="10.726541"
     inkscape:cy="26.331525"
     inkscape:document-units="px"
     inkscape:current-layer="layer1"
     inkscape:document-rotation="0"
     showgrid="false"
     units="px"
     inkscape:window-width="1920"
     inkscape:window-height="999"
     inkscape:window-x="0"
     inkscape:window-y="0"
     inkscape:window-maximized="1" />
  <metadata
     id="metadata5">
    <rdf:RDF>
      <cc:Work
         rdf:about="">
        <dc:format>image/svg+xml</dc:format>
        <dc:type
           rdf:resource="http://purl.org/dc/dcmitype/StillImage" />
        <dc:title></dc:title>
      </cc:Work>
    </rdf:RDF>
  </metadata>
  <g
     inkscape:label="Capa 1"
     inkscape:groupmode="layer"
     id="layer1">
    <path
       transform="matrix(0.26458333,0,0,0.26458333,0.25321455,3.9047208)"
       d="m 1.0429688,-8.75 v 2 2 20 H 29.042969 v -20 -2 H 9.0429688 v -2 z"
       style="opacity:0.5;fill:#000000;fill-opacity:1;stroke-width:3.48758;filter:url(#filter12900)"
       id="rect840-0" />
    <path
       id="rect840-7"
       style="opacity:1;fill:#9b6141;fill-opacity:1;stroke-width:0.922756"
       d="m 0.52916668,1.5896163 v 0.529167 0.529166 5.291667 H 7.9375 V 2.6479493 2.1187833 H 2.6458333 v -0.529167 z" />
    <path
       id="path859"
       style="opacity:0.15;fill:#000000;fill-opacity:1;stroke-width:0.932096"
       d="M 2 6 L 2 8 L 2 10 L 30 10 L 30 8 L 10 8 L 10 6 L 2 6 z "
       transform="scale(0.26458333)" />
    <path
       id="path2552"
       d="M 3.7041668,3.175 V 3.7041668 H 3.4395834 c -0.1455208,0 -0.2645833,0.1190625 -0.2645833,0.2645832 v 1.0583333 l 0.142875,0.142875 -0.9022292,1.5769167 -0.034396,0.6614583 0.4947708,-0.396875 0.1905,-0.3360208 c 0.2831042,0.1322917 0.5900209,0.2037292 0.9022292,0.2037292 0.3122083,0 0.619125,-0.071438 0.9022292,-0.2037292 l 0.1905,0.3360208 0.4947708,0.396875 L 5.5218543,6.746875 5.3181252,6.3923333 C 5.8049582,5.9901667 6.0854168,5.3922083 6.0854168,4.7625 H 5.5562502 c 0,0.4392083 -0.1825625,0.8598958 -0.5053545,1.158875 L 4.6196251,5.1699583 4.7625001,5.0270833 V 3.96875 c 0,-0.1455207 -0.1190625,-0.2645832 -0.2645833,-0.2645832 H 4.2333334 V 3.175 Z m 0.2645833,1.0583333 c 0.1455208,0 0.2645833,0.1190625 0.2645833,0.2645834 0,0.1455208 -0.1190625,0.2645833 -0.2645833,0.2645833 -0.1455208,0 -0.2645833,-0.1190625 -0.2645833,-0.2645833 0,-0.1455209 0.1190625,-0.2645834 0.2645833,-0.2645834 z M 3.7068126,5.55625 c 0.1666875,0.082021 0.333375,0.142875 0.523875,0 L 4.6063959,6.2150625 C 4.4053126,6.3023745 4.1883543,6.35 3.9687501,6.35 3.7491459,6.35 3.5321876,6.302375 3.3311042,6.2150625 Z"
       style="opacity:0.3;fill:#ffffff;fill-opacity:1;stroke-width:0.264583" />
  </g>
</svg>
