<?xml version="1.0" encoding="UTF-8" standalone="no"?>
<svg
   xmlns:dc="http://purl.org/dc/elements/1.1/"
   xmlns:cc="http://creativecommons.org/ns#"
   xmlns:rdf="http://www.w3.org/1999/02/22-rdf-syntax-ns#"
   xmlns:svg="http://www.w3.org/2000/svg"
   xmlns="http://www.w3.org/2000/svg"
   xmlns:sodipodi="http://sodipodi.sourceforge.net/DTD/sodipodi-0.dtd"
   xmlns:inkscape="http://www.inkscape.org/namespaces/inkscape"
   sodipodi:docname="folder-green-onedrive.svg"
   inkscape:version="1.0.2 (e86c870879, 2021-01-15)"
   id="svg8"
   version="1.1"
   viewBox="0 0 8.4666665 8.4666669"
   height="32"
   width="32">
  <defs
     id="defs2">
    <filter
       inkscape:collect="always"
       style="color-interpolation-filters:sRGB"
       id="filter835"
       x="-0.069642857"
       width="1.1392857"
       y="-0.08125"
       height="1.1625">
      <feGaussianBlur
         inkscape:collect="always"
         stdDeviation="0.8125"
         id="feGaussianBlur837" />
    </filter>
  </defs>
  <sodipodi:namedview
     inkscape:window-maximized="1"
     inkscape:window-y="0"
     inkscape:window-x="0"
     inkscape:window-height="999"
     inkscape:window-width="1920"
     units="px"
     showgrid="false"
     inkscape:document-rotation="0"
     inkscape:current-layer="layer1"
     inkscape:document-units="px"
     inkscape:cy="11.460847"
     inkscape:cx="12.167525"
     inkscape:zoom="20.448125"
     inkscape:pageshadow="2"
     inkscape:pageopacity="0.0"
     borderopacity="1.0"
     bordercolor="#666666"
     pagecolor="#ffffff"
     id="base" />
  <metadata
     id="metadata5">
    <rdf:RDF>
      <cc:Work
         rdf:about="">
        <dc:format>image/svg+xml</dc:format>
        <dc:type
           rdf:resource="http://purl.org/dc/dcmitype/StillImage" />
        <dc:title></dc:title>
      </cc:Work>
    </rdf:RDF>
  </metadata>
  <g
     id="layer1"
     inkscape:groupmode="layer"
     inkscape:label="Capa 1">
    <path
       id="rect840-0"
       style="opacity:0.5;fill:#000000;fill-opacity:1;stroke-width:3.48758;filter:url(#filter835)"
       d="m 1.0429688,-8.75 v 2 2 20 H 29.042969 v -20 -2 H 9.0429688 v -2 z"
       transform="matrix(0.26458333,0,0,0.26458333,0.25321455,3.9047208)" />
    <path
       d="m 0.52916668,1.5896163 v 0.529167 0.529166 5.291667 H 7.9375 V 2.6479493 2.1187833 H 2.6458333 v -0.529167 z"
       style="opacity:1;fill:#00d96e;fill-opacity:1;stroke-width:0.922756"
       id="rect840-7" />
    <path
       transform="scale(0.26458333)"
       d="M 2 6 L 2 8 L 2 10 L 30 10 L 30 8 L 10 8 L 10 6 L 2 6 z "
       style="opacity:0.15;fill:#000000;fill-opacity:1;stroke-width:0.932096"
       id="path859" />
    <path
       id="circle4"
       style="opacity:0.15;fill:#000000;stroke-width:0.141111"
       d="M 4.2187603,3.96875 A 1.3405555,1.3405555 0 0 0 3.1283878,4.5340902 1.0583333,1.0583333 0 0 0 2.2338687,5.0870278 l -0.00155,5.17e-4 c -0.081264,0.1498182 -0.1276408,0.3214269 -0.1276408,0.503845 1.1e-4,0.2318239 0.078363,0.4448405 0.206189,0.6201172 l -0.0031,0.00155 c 0.011533,0.015843 0.02586,0.029276 0.038241,0.044442 0.018065,0.02213 0.035511,0.044513 0.055294,0.065112 0.012269,0.012779 0.025346,0.024532 0.038241,0.03669 0.01401,0.01324 0.028685,0.025253 0.043408,0.037724 0.017565,0.014848 0.03366,0.031256 0.052193,0.044958 0.00158,0.00117 0.00306,0.00246 0.00465,0.00362 0.00214,0.00157 0.00456,0.0031 0.00672,0.00465 0.026236,0.018914 0.053654,0.036726 0.081649,0.053227 0.00156,9.176e-4 0.00307,0.00171 0.00465,0.00258 0.00174,0.00101 0.00342,0.0021 0.00517,0.0031 0.00297,0.0016 0.00583,0.003 0.00879,0.00465 0.00656,0.00369 0.013509,0.00676 0.020154,0.010335 0.013176,0.00702 0.026282,0.013683 0.039791,0.020154 0.00438,0.00212 0.0085,0.00467 0.012919,0.00672 0.0094,0.00434 0.018873,0.00884 0.028422,0.012919 0.024078,0.010307 0.048386,0.019367 0.07338,0.027905 0.00379,0.00129 0.00759,0.00283 0.011369,0.00413 0.00385,0.00127 0.0075,0.00291 0.011369,0.00413 0.0017,5.53e-4 0.00345,0.00102 0.00517,0.00155 0.00371,0.00115 0.00763,0.00201 0.011369,0.0031 0.00865,0.00257 0.017608,0.00436 0.026355,0.00672 0.014392,0.00372 0.028833,0.00757 0.043408,0.010852 0.00904,0.00203 0.017746,0.0044 0.026872,0.0062 0.035922,0.00711 0.072329,0.013138 0.1095541,0.016536 v 0.00465 h 1.1544515 1.2510865 0.01912 c 0.013644,0 0.026305,-0.0035 0.039791,-0.00413 0.00175,-8.3e-5 0.00342,-4.233e-4 0.00517,-5.17e-4 0.023356,-0.00177 0.046829,-0.0031 0.069763,-0.00672 0.4127654,-0.056505 0.7317383,-0.4068077 0.7317383,-0.8350912 0,-0.4594489 -0.3663595,-0.8314936 -0.8226888,-0.8443928 a 1.3405555,1.3405555 0 0 0 -1.2939922,-0.99011 1.3405555,1.3405555 0 0 0 -0.00258,0 z" />
    <path
       id="path8-6"
       d="M 5.5153221,4.9588705 C 5.3955265,4.9648005 5.291558,4.9870195 5.193688,5.0228115 l -2.823e-4,2.822e-4 C 4.879803,5.1538717 4.5540325,5.2899214 4.2709471,5.4081176 L 2.3317784,6.2153657 c 0.1737784,0.2387265 0.4447939,0.4031921 0.7590234,0.4318772 v 0.00496 h 2.4052277 0.019293 c 0.4676016,0 0.8466666,-0.3790656 0.8466666,-0.8466667 0,-0.4676011 -0.379065,-0.8466666 -0.846667,-0.8466657 z"
       style="opacity:0.15;fill:#000000;stroke-width:0.141111" />
    <path
       id="path10-7"
       d="M 3.1647969,4.5326791 A 1.0583333,1.0583333 0 0 0 2.2357487,5.0864624 l -0.00188,5.654e-4 C 2.1526047,5.2368462 2.1064626,5.4085943 2.1064626,5.5910124 2.1067222,6.1380406 2.5238206,6.5947302 3.0685836,6.64446 v 0.00489 h 0.096212 2.3090907 C 5.7939481,6.6491199 6.0877801,6.4723529 6.2379471,6.1897073 L 4.7530483,5.3046311 3.6864469,4.6689169 l -0.00338,9.455e-4 a 1.0583333,1.0583333 0 0 0 -0.51827,-0.1371833 z"
       style="opacity:0.15;fill:#000000;stroke-width:0.141111" />
  </g>
</svg>
