<?xml version="1.0" encoding="UTF-8" standalone="no"?>
<svg
   xmlns:dc="http://purl.org/dc/elements/1.1/"
   xmlns:cc="http://creativecommons.org/ns#"
   xmlns:rdf="http://www.w3.org/1999/02/22-rdf-syntax-ns#"
   xmlns:svg="http://www.w3.org/2000/svg"
   xmlns="http://www.w3.org/2000/svg"
   xmlns:sodipodi="http://sodipodi.sourceforge.net/DTD/sodipodi-0.dtd"
   xmlns:inkscape="http://www.inkscape.org/namespaces/inkscape"
   sodipodi:docname="folder-google-drive.svg"
   inkscape:version="1.0.2 (e86c870879, 2021-01-15)"
   id="svg8"
   version="1.1"
   viewBox="0 0 8.4666665 8.4666669"
   height="32"
   width="32">
  <defs
     id="defs2">
    <filter
       inkscape:collect="always"
       style="color-interpolation-filters:sRGB"
       id="filter835"
       x="-0.069642857"
       width="1.1392857"
       y="-0.08125"
       height="1.1625">
      <feGaussianBlur
         inkscape:collect="always"
         stdDeviation="0.8125"
         id="feGaussianBlur837" />
    </filter>
  </defs>
  <sodipodi:namedview
     inkscape:window-maximized="1"
     inkscape:window-y="0"
     inkscape:window-x="0"
     inkscape:window-height="999"
     inkscape:window-width="1920"
     units="px"
     showgrid="false"
     inkscape:document-rotation="0"
     inkscape:current-layer="layer1"
     inkscape:document-units="px"
     inkscape:cy="19.530317"
     inkscape:cx="-6.6300959"
     inkscape:zoom="14.459008"
     inkscape:pageshadow="2"
     inkscape:pageopacity="0.0"
     borderopacity="1.0"
     bordercolor="#666666"
     pagecolor="#ffffff"
     id="base" />
  <metadata
     id="metadata5">
    <rdf:RDF>
      <cc:Work
         rdf:about="">
        <dc:format>image/svg+xml</dc:format>
        <dc:type
           rdf:resource="http://purl.org/dc/dcmitype/StillImage" />
        <dc:title />
      </cc:Work>
    </rdf:RDF>
  </metadata>
  <g
     id="layer1"
     inkscape:groupmode="layer"
     inkscape:label="Capa 1">
    <path
       id="rect840-0"
       style="opacity:0.5;fill:#000000;fill-opacity:1;stroke-width:3.48758;filter:url(#filter835)"
       d="m 1.0429688,-8.75 v 2 2 20 H 29.042969 v -20 -2 H 9.0429688 v -2 z"
       transform="matrix(0.26458333,0,0,0.26458333,0.25321455,3.9047208)" />
    <path
       d="m 0.52916668,1.5896163 v 0.529167 0.529166 5.291667 H 7.9375 V 2.6479493 2.1187833 H 2.6458333 v -0.529167 z"
       style="opacity:1;fill:#ffc86a;fill-opacity:1;stroke-width:0.922756"
       id="rect840-7" />
    <path
       transform="scale(0.26458333)"
       d="M 2 6 L 2 8 L 2 10 L 30 10 L 30 8 L 10 8 L 10 6 L 2 6 z "
       style="opacity:0.15;fill:#000000;fill-opacity:1;stroke-width:0.932096"
       id="path859" />
    <path
       d="M 2.6612916,6.5406336 2.8246483,6.822795 c 0.033945,0.059402 0.082739,0.1060757 0.1400203,0.14002 L 3.5480846,5.9529739 H 2.3812518 c 0,0.065767 0.016973,0.131534 0.050918,0.1909364 z"
       fill="#0066da"
       id="path2"
       style="opacity:0.3;fill:#000000;stroke-width:0.0424302" />
    <path
       d="M 4.2333338,4.7649252 3.6499178,3.7550845 C 3.5926363,3.7890296 3.5438419,3.8357015 3.5098982,3.895104 L 2.432168,5.7620376 A 0.3844185,0.3844185 0 0 0 2.38125,5.9529739 h 1.1668328 z"
       fill="#00ac47"
       id="path4"
       style="opacity:0.15;fill:#000000;stroke-width:0.0424302" />
    <path
       d="M 5.5019998,6.962815 C 5.5592818,6.928871 5.6080758,6.882197 5.6420201,6.822795 L 5.7099089,6.7061117 6.0345007,6.1439103 c 0.033944,-0.059403 0.050916,-0.1251694 0.050916,-0.1909364 H 4.9184986 L 5.166801,6.4409223 Z"
       fill="#ea4335"
       id="path6"
       style="opacity:0.3;fill:#000000;stroke-width:0.0424302" />
    <path
       d="M 4.2333338,4.7649252 4.8167506,3.7550845 C 4.7594691,3.7211393 4.6937029,3.7041667 4.6258149,3.7041667 H 3.8408543 c -0.06789,0 -0.1336558,0.019091 -0.1909365,0.050918 z"
       fill="#00832d"
       id="path8"
       style="opacity:0.3;fill:#000000;stroke-width:0.0424302" />
    <path
       d="M 4.9185838,5.9529739 H 3.5480846 L 2.9646686,6.962815 c 0.057282,0.033944 0.1230477,0.050916 0.1909357,0.050916 h 2.1554598 c 0.06789,0 0.133655,-0.019094 0.1909357,-0.050916 C 5.2495866,6.603631 5.0550827,6.2670048 4.9185838,5.9529739 Z"
       fill="#2684fc"
       id="path10"
       style="opacity:0.15;fill:#000000;stroke-width:0.0424302"
       sodipodi:nodetypes="cccsscc" />
    <path
       d="M 5.4956353,4.8285712 4.9567709,3.895104 C 4.9228258,3.8357039 4.8740321,3.7890288 4.8167506,3.7550845 l -0.5834168,1.0098407 0.68525,1.1880487 h 1.1647115 c 0,-0.065767 -0.016972,-0.1315338 -0.050916,-0.1909363 z"
       fill="#ffba00"
       id="path12"
       style="opacity:0.15;fill:#000000;stroke-width:0.0424302" />
  </g>
</svg>
