<?xml version="1.0" encoding="UTF-8" standalone="no"?>
<svg
   xmlns:dc="http://purl.org/dc/elements/1.1/"
   xmlns:cc="http://creativecommons.org/ns#"
   xmlns:rdf="http://www.w3.org/1999/02/22-rdf-syntax-ns#"
   xmlns:svg="http://www.w3.org/2000/svg"
   xmlns="http://www.w3.org/2000/svg"
   xmlns:sodipodi="http://sodipodi.sourceforge.net/DTD/sodipodi-0.dtd"
   xmlns:inkscape="http://www.inkscape.org/namespaces/inkscape"
   sodipodi:docname="folder-blue-publicshare.svg"
   inkscape:version="1.0.2 (e86c870879, 2021-01-15)"
   id="svg8"
   version="1.1"
   viewBox="0 0 8.4666665 8.4666669"
   height="32"
   width="32">
  <defs
     id="defs2">
    <filter
       inkscape:collect="always"
       style="color-interpolation-filters:sRGB"
       id="filter12916"
       x="-0.069642857"
       width="1.1392857"
       y="-0.08125"
       height="1.1625">
      <feGaussianBlur
         inkscape:collect="always"
         stdDeviation="0.8125"
         id="feGaussianBlur12918" />
    </filter>
  </defs>
  <sodipodi:namedview
     inkscape:window-maximized="1"
     inkscape:window-y="0"
     inkscape:window-x="0"
     inkscape:window-height="999"
     inkscape:window-width="1920"
     units="px"
     showgrid="false"
     inkscape:document-rotation="0"
     inkscape:current-layer="layer1"
     inkscape:document-units="px"
     inkscape:cy="26.331525"
     inkscape:cx="8.9975151"
     inkscape:zoom="14.459008"
     inkscape:pageshadow="2"
     inkscape:pageopacity="0.0"
     borderopacity="1.0"
     bordercolor="#666666"
     pagecolor="#ffffff"
     id="base" />
  <metadata
     id="metadata5">
    <rdf:RDF>
      <cc:Work
         rdf:about="">
        <dc:format>image/svg+xml</dc:format>
        <dc:type
           rdf:resource="http://purl.org/dc/dcmitype/StillImage" />
        <dc:title></dc:title>
      </cc:Work>
    </rdf:RDF>
  </metadata>
  <g
     id="layer1"
     inkscape:groupmode="layer"
     inkscape:label="Capa 1">
    <path
       id="rect840-0"
       style="opacity:0.5;fill:#000000;fill-opacity:1;stroke-width:3.48758;filter:url(#filter12916)"
       d="m 1.0429688,-8.75 v 2 2 20 H 29.042969 v -20 -2 H 9.0429688 v -2 z"
       transform="matrix(0.26458333,0,0,0.26458333,0.25321455,3.9047208)" />
    <path
       d="m 0.52916668,1.5896163 v 0.529167 0.529166 5.291667 H 7.9375 V 2.6479493 2.1187833 H 2.6458333 v -0.529167 z"
       style="opacity:1;fill:#0096ff;fill-opacity:1;stroke-width:0.922756"
       id="rect840-7" />
    <path
       transform="scale(0.26458333)"
       d="M 2 6 L 2 8 L 2 10 L 30 10 L 30 8 L 10 8 L 10 6 L 2 6 z "
       style="opacity:0.15;fill:#000000;fill-opacity:1;stroke-width:0.932096"
       id="path859" />
    <g
       transform="matrix(0.26458333,0,0,0.26458333,-308.41923,89.709889)"
       id="g4"
       style="opacity:0.3;fill:#000000;fill-opacity:1">
      <path
         color="#000000"
         d="m 1185.68,-326.06 a 2.5,2.5 0 0 0 -2.5,2.5 2.5,2.5 0 0 0 0.05,0.482 l -4.846,2.693 a 2.5,2.5 0 0 0 -1.705,-0.676 2.5,2.5 0 0 0 -2.5,2.5 2.5,2.5 0 0 0 2.5,2.5 2.5,2.5 0 0 0 1.717,-0.683 l 4.834,2.687 a 2.5,2.5 0 0 0 -0.05,0.496 2.5,2.5 0 0 0 2.5,2.5 2.5,2.5 0 0 0 2.5,-2.5 2.5,2.5 0 0 0 -2.5,-2.5 2.5,2.5 0 0 0 -1.722,0.688 l -4.832,-2.688 a 2.5,2.5 0 0 0 0.053,-0.5 2.5,2.5 0 0 0 -0.057,-0.513 l 4.828,-2.684 a 2.5,2.5 0 0 0 1.73,0.697 2.5,2.5 0 0 0 2.5,-2.5 2.5,2.5 0 0 0 -2.5,-2.5 z"
         fill="#666"
         fill-rule="evenodd"
         overflow="visible"
         style="isolation:auto;mix-blend-mode:normal;fill:#000000;fill-opacity:1"
         id="path2" />
    </g>
  </g>
</svg>
