<?xml version="1.0" encoding="UTF-8" standalone="no"?>
<svg
   xmlns:dc="http://purl.org/dc/elements/1.1/"
   xmlns:cc="http://creativecommons.org/ns#"
   xmlns:rdf="http://www.w3.org/1999/02/22-rdf-syntax-ns#"
   xmlns:svg="http://www.w3.org/2000/svg"
   xmlns="http://www.w3.org/2000/svg"
   xmlns:xlink="http://www.w3.org/1999/xlink"
   xmlns:sodipodi="http://sodipodi.sourceforge.net/DTD/sodipodi-0.dtd"
   xmlns:inkscape="http://www.inkscape.org/namespaces/inkscape"
   inkscape:version="1.0.1 (3bc2e813f5, 2020-09-07)"
   sodipodi:docname="user-trash-full.svg"
   id="svg24"
   version="1"
   height="32"
   width="32">
  <metadata
     id="metadata30">
    <rdf:RDF>
      <cc:Work
         rdf:about="">
        <dc:format>image/svg+xml</dc:format>
        <dc:type
           rdf:resource="http://purl.org/dc/dcmitype/StillImage" />
        <dc:title />
      </cc:Work>
    </rdf:RDF>
  </metadata>
  <defs
     id="defs28">
    <linearGradient
       inkscape:collect="always"
       id="linearGradient1138">
      <stop
         style="stop-color:#ffffff;stop-opacity:1"
         offset="0"
         id="stop1134" />
      <stop
         style="stop-color:#e5e5e5;stop-opacity:1"
         offset="1"
         id="stop1136" />
    </linearGradient>
    <linearGradient
       inkscape:collect="always"
       xlink:href="#linearGradient1138"
       id="linearGradient1140"
       x1="2.0876074"
       y1="1.7596991"
       x2="30.141649"
       y2="30.036497"
       gradientUnits="userSpaceOnUse"
       gradientTransform="translate(-5.9004428e-7)" />
    <filter
       inkscape:collect="always"
       style="color-interpolation-filters:sRGB"
       id="filter12872"
       x="-0.07500026"
       width="1.1500005"
       y="-0.07499974"
       height="1.1499995">
      <feGaussianBlur
         inkscape:collect="always"
         stdDeviation="0.87500314"
         id="feGaussianBlur12874" />
    </filter>
  </defs>
  <sodipodi:namedview
     inkscape:document-rotation="0"
     inkscape:current-layer="svg24"
     inkscape:window-maximized="1"
     inkscape:window-y="0"
     inkscape:window-x="0"
     inkscape:cy="19.232683"
     inkscape:cx="25.797904"
     inkscape:zoom="11.313709"
     showgrid="false"
     id="namedview26"
     inkscape:window-height="1000"
     inkscape:window-width="1920"
     inkscape:pageshadow="2"
     inkscape:pageopacity="0"
     guidetolerance="10"
     gridtolerance="10"
     objecttolerance="10"
     borderopacity="1"
     bordercolor="#666666"
     pagecolor="#ffffff" />
  <path
     d="m 15.601566,2.0001064 a 14,2 0 0 0 -13.6015601,2 14,2 0 0 0 0,0.0039 14,2 0 0 0 0.01367,0.08008 l 3.986328,23.9160126 a 10,2 0 0 0 9.9999981,2 10,2 0 0 0 10,-2 l 3.98633,-23.9160156 a 14,2 0 0 0 0.01367,-0.08398 14,2 0 0 0 -14,-2 14,2 0 0 0 -0.398438,0 z"
     style="opacity:0.5;fill:#000000;fill-opacity:1;stroke:none;stroke-width:1px;stroke-linecap:butt;stroke-linejoin:miter;stroke-opacity:1;filter:url(#filter12872)"
     id="path1094-6" />
  <path
     id="path1094"
     style="opacity:0.85;fill:url(#linearGradient1140);fill-opacity:1;stroke:none;stroke-width:1px;stroke-linecap:butt;stroke-linejoin:miter;stroke-opacity:1"
     d="m 15.601564,2.0001068 a 14,2 0 0 0 -13.6015616,2 14,2 0 0 0 0,0.0039 14,2 0 0 0 0.01367,0.08008 l 3.986328,23.9160122 a 10,2 0 0 0 9.9999996,2 10,2 0 0 0 10,-2 L 29.986328,4.0840838 a 14,2 0 0 0 0.01367,-0.08398 14,2 0 0 0 -14,-2 14,2 0 0 0 -0.398438,0 z" />
  <ellipse
     ry="2"
     rx="14"
     cy="4.0000057"
     cx="15.999999"
     id="path969-3"
     style="opacity:0.3;fill:#000000;fill-opacity:1;stroke:none;stroke-width:0.278388" />
  <path
     id="path1094-61-2"
     style="opacity:0.5;fill:#ffffff;fill-opacity:1;stroke:none;stroke-width:0.908134px;stroke-linecap:butt;stroke-linejoin:miter;stroke-opacity:1"
     d="M 22.949352,5.4410081 21.209765,4.3905473 18.698403,4.1207865 17.31836,7.3542268 16.382138,3.7363592 14.71875,7.6195125 12.364946,2.2 7.2335643,5.4133409 10.744141,10.741556 8.244141,8.4679897 5.310547,12.013174 7.427735,26.275033 C 7.4261594,27.338138 11.2647,28.200112 16,28.2 c 4.7353,1.12e-4 8.573842,-0.861862 8.572266,-1.924967 l 2.117187,-14.261859 0.152796,-5.2220107 -2.034781,1.4266279 z"
     sodipodi:nodetypes="cccccccccccccccccc" />
  <g
     transform="matrix(0.12959418,0,0,0.14582989,9.0019155,11.054307)"
     id="Group"
     style="fill:none;fill-rule:evenodd;stroke:none;stroke-width:0.0924382" />
  <path
     inkscape:connector-curvature="0"
     style="fill:#007dcb;fill-opacity:1;fill-rule:evenodd;stroke:none;stroke-width:0.0131985"
     id="path18"
     d="M 16.006578,12.9951 C 14.45613,9.6798008 12.825189,12.349454 12.825189,12.349454 l -1.236625,2.271862 2.545577,1.541541 z m 5.505306,-1.015624 -1.371952,0.805242 -0.502814,-0.920103 c 0,0 -0.388489,-0.957599 -2.305255,-0.857237 0,0 -2.375252,0.06892 -2.622573,0.02223 0,0 0.673142,0.137833 1.007963,0.678276 l 1.516613,2.780884 -1.108296,0.648066 3.719206,0.08349 z m -9.116014,8.01857 c -1.923763,3.094049 1.125793,3.153283 1.125793,3.153283 l 2.511746,-0.08571 -0.05018,-3.055341 z m -3.6958706,-4.345422 1.3766176,0.795584 -0.4993136,0.922548 c 0,0 -0.585647,0.843924 0.4934816,2.48585 0,0 1.29379,2.069929 1.38012,2.312966 0,0 -0.23684,-0.667433 0.035,-1.245347 l 1.504944,-2.788121 1.111795,0.642014 -1.865434,-3.33464 z m 11.6044286,3.882345 c 3.545375,0.232194 2.106923,-2.553557 2.106923,-2.553557 l -1.298452,-2.233155 -2.547912,1.537934 z m -3.760038,2.366197 1.9016,-3.314088 v 1.321525 h 3.08106 c 0.619478,-0.03631 1.066295,-0.576754 1.066295,-0.576754 -0.162172,0.195883 -1.275121,2.377041 -1.275121,2.377041 -0.856304,1.77734 -1.852604,1.658872 -1.852604,1.658872 h -1.01963 v 1.632244 z" />
  <path
     style="fill:#ffffff;fill-opacity:1;stroke:none;stroke-width:1px;stroke-linecap:butt;stroke-linejoin:miter;stroke-opacity:1"
     d="M 7.5211578,5.5938632 7.2335643,5.1694483 12.364946,1.9775981 14.114265,5.9782226 C 11.890736,5.9488462 9.6779524,5.8783869 7.5211578,5.5938632 Z"
     id="path1432"
     sodipodi:nodetypes="ccccc" />
  <path
     style="fill:#ffffff;fill-opacity:1;stroke:none;stroke-width:1px;stroke-linecap:butt;stroke-linejoin:miter;stroke-opacity:1"
     d="m 15.300676,5.9949803 1.081462,-2.4912981 0.651864,2.4939229 c -0.572687,0.018364 -1.152611,0.00936 -1.733326,-0.00262 z"
     id="path1434"
     sodipodi:nodetypes="cccc" />
  <path
     style="fill:#ffffff;fill-opacity:1;stroke:none;stroke-width:1px;stroke-linecap:butt;stroke-linejoin:miter;stroke-opacity:1"
     d="m 17.803823,5.9792044 0.89458,-2.093666 2.511362,0.2679567 1.739587,1.0434354 0.350865,0.512704 c -1.784775,0.1260854 -3.57164,0.2505722 -5.496394,0.2695699 z"
     id="path1436"
     sodipodi:nodetypes="cccccc" />
</svg>
