<?xml version="1.0" encoding="UTF-8" standalone="no"?>
<svg
   xmlns:dc="http://purl.org/dc/elements/1.1/"
   xmlns:cc="http://creativecommons.org/ns#"
   xmlns:rdf="http://www.w3.org/1999/02/22-rdf-syntax-ns#"
   xmlns:svg="http://www.w3.org/2000/svg"
   xmlns="http://www.w3.org/2000/svg"
   xmlns:xlink="http://www.w3.org/1999/xlink"
   xmlns:sodipodi="http://sodipodi.sourceforge.net/DTD/sodipodi-0.dtd"
   xmlns:inkscape="http://www.inkscape.org/namespaces/inkscape"
   width="32"
   height="32"
   version="1"
   id="svg24"
   sodipodi:docname="user-trash.svg"
   inkscape:version="1.0.1 (3bc2e813f5, 2020-09-07)">
  <metadata
     id="metadata30">
    <rdf:RDF>
      <cc:Work
         rdf:about="">
        <dc:format>image/svg+xml</dc:format>
        <dc:type
           rdf:resource="http://purl.org/dc/dcmitype/StillImage" />
        <dc:title />
      </cc:Work>
    </rdf:RDF>
  </metadata>
  <defs
     id="defs28">
    <linearGradient
       id="linearGradient1138"
       inkscape:collect="always">
      <stop
         id="stop1134"
         offset="0"
         style="stop-color:#ffffff;stop-opacity:1" />
      <stop
         id="stop1136"
         offset="1"
         style="stop-color:#e5e5e5;stop-opacity:1" />
    </linearGradient>
    <linearGradient
       gradientUnits="userSpaceOnUse"
       y2="30.036497"
       x2="30.141649"
       y1="1.7596991"
       x1="2.0876074"
       id="linearGradient1140"
       xlink:href="#linearGradient1138"
       inkscape:collect="always" />
    <filter
       inkscape:collect="always"
       style="color-interpolation-filters:sRGB"
       id="filter12876"
       x="-0.075000265"
       width="1.1500005"
       y="-0.074999735"
       height="1.1499995">
      <feGaussianBlur
         inkscape:collect="always"
         stdDeviation="0.87500322"
         id="feGaussianBlur12878" />
    </filter>
  </defs>
  <sodipodi:namedview
     pagecolor="#ffffff"
     bordercolor="#666666"
     borderopacity="1"
     objecttolerance="10"
     gridtolerance="10"
     guidetolerance="10"
     inkscape:pageopacity="0"
     inkscape:pageshadow="2"
     inkscape:window-width="1920"
     inkscape:window-height="1000"
     id="namedview26"
     showgrid="false"
     inkscape:zoom="16"
     inkscape:cx="10.647525"
     inkscape:cy="20.576698"
     inkscape:window-x="0"
     inkscape:window-y="0"
     inkscape:window-maximized="1"
     inkscape:current-layer="svg24"
     inkscape:document-rotation="0" />
  <path
     id="path1094-6"
     style="fill:#000000;fill-opacity:1;stroke:none;stroke-width:1px;stroke-linecap:butt;stroke-linejoin:miter;stroke-opacity:1;opacity:0.5;filter:url(#filter12876)"
     d="m 15.601566,2.0001011 a 14,2 0 0 0 -13.6015612,2 14,2 0 0 0 0,0.00391 14,2 0 0 0 0.01367,0.080078 l 3.986328,23.9160119 a 10,2 0 0 0 9.9999992,2 10,2 0 0 0 10,-2 l 3.98633,-23.9160155 a 14,2 0 0 0 0.01367,-0.083984 14,2 0 0 0 -14,-2 14,2 0 0 0 -0.398438,0 z" />
  <path
     d="m 15.601565,2.0001013 a 14,2 0 0 0 -13.6015617,2 14,2 0 0 0 0,0.00391 14,2 0 0 0 0.013672,0.080078 l 3.986328,23.9160117 a 10,2 0 0 0 9.9999997,2 10,2 0 0 0 10,-2 L 29.986331,4.0840857 a 14,2 0 0 0 0.01367,-0.083984 14,2 0 0 0 -14,-2 14,2 0 0 0 -0.398438,0 z"
     style="fill:url(#linearGradient1140);fill-opacity:1;stroke:none;stroke-width:1px;stroke-linecap:butt;stroke-linejoin:miter;stroke-opacity:1;opacity:0.85"
     id="path1094" />
  <path
     d="M 16.006579,12.995094 C 14.456131,9.6797947 12.82519,12.349448 12.82519,12.349448 l -1.236625,2.271862 2.545577,1.541541 z m 5.505306,-1.015624 -1.371952,0.805242 -0.502814,-0.920103 c 0,0 -0.388489,-0.957599 -2.305255,-0.857237 0,0 -2.375252,0.06892 -2.622573,0.02223 0,0 0.673142,0.137833 1.007963,0.678276 l 1.516613,2.780884 -1.108296,0.648066 3.719206,0.08349 z m -9.116014,8.01857 c -1.923763,3.094049 1.125793,3.153283 1.125793,3.153283 l 2.511746,-0.08571 -0.05018,-3.055341 z M 8.7,15.652618 10.076618,16.448202 9.577304,17.37075 c 0,0 -0.585647,0.843924 0.493482,2.48585 0,0 1.29379,2.069929 1.38012,2.312966 0,0 -0.23684,-0.667433 0.035,-1.245347 l 1.504944,-2.788121 1.111795,0.642014 -1.865434,-3.33464 z m 11.604429,3.882345 c 3.545375,0.232194 2.106923,-2.553557 2.106923,-2.553557 L 21.1129,14.748251 18.564988,16.286185 Z m -3.760038,2.366197 1.9016,-3.314088 v 1.321525 h 3.08106 c 0.619478,-0.03631 1.066295,-0.576754 1.066295,-0.576754 -0.162172,0.195883 -1.275121,2.377041 -1.275121,2.377041 -0.856304,1.77734 -1.852604,1.658872 -1.852604,1.658872 h -1.01963 V 25 Z"
     id="path18"
     style="fill:#007dcb;fill-opacity:1;fill-rule:evenodd;stroke:none;stroke-width:0.0131985"
     inkscape:connector-curvature="0" />
  <g
     style="fill:none;fill-rule:evenodd;stroke:none;stroke-width:0.0924382"
     id="Group"
     transform="matrix(0.12959418,0,0,0.14582989,9.0019155,11.054307)" />
  <ellipse
     style="opacity:0.3;fill:#000000;fill-opacity:1;stroke:none;stroke-width:0.278388"
     id="path969-3"
     cx="16"
     cy="4"
     rx="14"
     ry="2" />
</svg>
