<?xml version="1.0" encoding="UTF-8" standalone="no"?>
<svg
   xmlns:dc="http://purl.org/dc/elements/1.1/"
   xmlns:cc="http://creativecommons.org/ns#"
   xmlns:rdf="http://www.w3.org/1999/02/22-rdf-syntax-ns#"
   xmlns:svg="http://www.w3.org/2000/svg"
   xmlns="http://www.w3.org/2000/svg"
   xmlns:sodipodi="http://sodipodi.sourceforge.net/DTD/sodipodi-0.dtd"
   xmlns:inkscape="http://www.inkscape.org/namespaces/inkscape"
   inkscape:version="1.0 (4035a4fb49, 2020-05-01)"
   sodipodi:docname="document-save-all.svg"
   id="svg7"
   version="1.1"
   viewBox="0 0 16 16"
   height="16"
   width="16">
  <metadata
     id="metadata11">
    <rdf:RDF>
      <cc:Work
         rdf:about="">
        <dc:format>image/svg+xml</dc:format>
        <dc:type
           rdf:resource="http://purl.org/dc/dcmitype/StillImage" />
        <dc:title></dc:title>
      </cc:Work>
    </rdf:RDF>
  </metadata>
  <sodipodi:namedview
     inkscape:document-rotation="0"
     inkscape:guide-bbox="true"
     showguides="true"
     inkscape:current-layer="svg7"
     inkscape:window-maximized="1"
     inkscape:window-y="0"
     inkscape:window-x="0"
     inkscape:cy="12.732835"
     inkscape:cx="-1.229301"
     inkscape:zoom="27.812867"
     showgrid="false"
     id="namedview9"
     inkscape:window-height="1003"
     inkscape:window-width="1920"
     inkscape:pageshadow="2"
     inkscape:pageopacity="0"
     guidetolerance="10"
     gridtolerance="10"
     objecttolerance="10"
     borderopacity="1"
     bordercolor="#666666"
     pagecolor="#ffffff" />
  <defs
     id="defs3">
    <style
       type="text/css"
       id="current-color-scheme">
   .ColorScheme-Text { color:#5c616c; } .ColorScheme-Highlight { color:#5294e2; }
  </style>
  </defs>
  <g
     style="fill:#dfdfdf;fill-opacity:1"
     transform="translate(-9.1864409,-6.3389831)"
     id="g825">
    <path
       sodipodi:nodetypes="ssccccccccccccccccccsss"
       inkscape:connector-curvature="0"
       id="path2"
       d="m 10.175423,7.3389831 c -0.5500003,0 -1.0000003,0.45 -1.0000003,1 V 19.338983 l 2.0000003,2 h 4.964269 l 0.03573,-2 v 0 0 0 -4 0 c -1.648189,-0.120559 -1.648189,-0.120559 0,0 l 0.135593,-1.067797 -4.135593,0.0678 v 5 h -1 V 9.3389831 h 10 l -0.01701,4.0494619 h 1.988104 l 0.02891,-5.0494619 c 0.0031,-0.5499912 -0.45,-1 -1,-1 z"
       style="fill:#dfdfdf;fill-opacity:1" />
    <path
       style="color:#444444;fill:#dfdfdf;fill-opacity:1"
       class="ColorScheme-Text"
       d="m 18.072459,14.369044 c -0.4924,0 -0.875,0.35565 -0.875,0.84375 v 5.21875 c 0,0.488 0.3826,0.84375 0.875,0.84375 h 6.25 c 0.492,0 0.875,-0.35575 0.875,-0.84375 v -5.21875 c 0,-0.4881 -0.383,-0.84375 -0.875,-0.84375 z m 1.126953,0.949219 h 4 v 5 h -1 v -2 h -2 v 2 h -1 z m 1,1 v 1 h 2 v -1 z"
       id="path5"
       inkscape:connector-curvature="0"
       sodipodi:nodetypes="ssssssssscccccccccccccc" />
  </g>
</svg>
