<?xml version="1.0" encoding="UTF-8" standalone="no"?>
<svg
   xmlns:dc="http://purl.org/dc/elements/1.1/"
   xmlns:cc="http://creativecommons.org/ns#"
   xmlns:rdf="http://www.w3.org/1999/02/22-rdf-syntax-ns#"
   xmlns:svg="http://www.w3.org/2000/svg"
   xmlns="http://www.w3.org/2000/svg"
   xmlns:sodipodi="http://sodipodi.sourceforge.net/DTD/sodipodi-0.dtd"
   xmlns:inkscape="http://www.inkscape.org/namespaces/inkscape"
   width="16"
   height="16"
   viewBox="0 0 16 16"
   version="1.1"
   id="svg38"
   sodipodi:docname="user-trash-full-symbolic.svg"
   inkscape:version="1.0 (4035a4fb49, 2020-05-01)">
  <metadata
     id="metadata42">
    <rdf:RDF>
      <cc:Work
         rdf:about="">
        <dc:format>image/svg+xml</dc:format>
        <dc:type
           rdf:resource="http://purl.org/dc/dcmitype/StillImage" />
        <dc:title>user-trash</dc:title>
      </cc:Work>
    </rdf:RDF>
  </metadata>
  <sodipodi:namedview
     pagecolor="#ffffff"
     bordercolor="#666666"
     borderopacity="1"
     objecttolerance="10"
     gridtolerance="10"
     guidetolerance="10"
     inkscape:pageopacity="0"
     inkscape:pageshadow="2"
     inkscape:window-width="1920"
     inkscape:window-height="1002"
     id="namedview40"
     showgrid="false"
     inkscape:zoom="11.718454"
     inkscape:cx="-3.2945235"
     inkscape:cy="0.34069511"
     inkscape:window-x="0"
     inkscape:window-y="0"
     inkscape:window-maximized="1"
     inkscape:current-layer="g1192"
     inkscape:document-rotation="0" />
  <!-- Generator: Sketch 39.1 (31720) - http://www.bohemiancoding.com/sketch -->
  <title
     id="title2">user-trash</title>
  <desc
     id="desc4">Created with Sketch.</desc>
  <defs
     id="defs11">
    <linearGradient
       x1="123.16806"
       y1="37.412296"
       x2="123.16806"
       y2="245.25839"
       id="linearGradient-1"
       gradientTransform="matrix(1.0392305,0,0,0.96225045,6.0101417,-45.234224)"
       gradientUnits="userSpaceOnUse">
      <stop
         stop-color="#FFFFFF"
         offset="0%"
         id="stop6" />
      <stop
         stop-color="#D3D3D3"
         offset="100%"
         id="stop8" />
    </linearGradient>
  </defs>
  <g
     id="g1192"
     transform="matrix(0.03445239,0,0,0.03445239,5.5803496,-1.7158347)">
    <g
       style="fill:none;fill-rule:evenodd;stroke:none;stroke-width:1"
       transform="matrix(1.9736842,0,0,1.9736842,-84.292759,30.061943)"
       id="Group" />
    <path
       d="m 64.449377,78.831607 a 203.17747,29.025352 0 0 0 -197.395067,29.025353 203.17747,29.025352 0 0 0 0,0.0567 203.17747,29.025352 0 0 0 0.19842,1.16215 l 57.852287,347.08535 a 145.12676,29.025352 0 0 0 145.12676,29.02535 145.12676,29.025352 0 0 0 145.126773,-29.02535 l 57.85228,-347.08541 a 203.17747,29.025352 0 0 0 0.19839,-1.21883 203.17747,29.025352 0 0 0 -203.177473,-29.025353 203.17747,29.025352 0 0 0 -5.7824,0 z m -46.96778,2.8912 34.15582,78.657563 24.14999,-56.35 13.57729,52.49507 20.039973,-46.91109 36.42341,3.91162 25.25547,15.24965 26.95616,40.30669 29.53556,-20.72025 -2.21091,75.79473 -30.72605,206.97571 c 0.006,3.85713 -3.45758,7.51378 -9.75071,10.85617 -6.29315,3.34235 -15.4156,6.37247 -26.67271,8.90035 -22.51426,5.05573 -53.62217,8.16419 -87.983113,8.16338 -34.36093,0.001 -65.4688396,-3.10765 -87.9831,-8.16338 -11.25713,-2.52788 -20.37957,-5.558 -26.67271,-8.90035 -6.29314,-3.34239 -9.75642,-6.99904 -9.75071,-10.85617 l -30.72605,-206.97571 42.57429,-51.44631 36.2817004,32.99367 -50.9361004,-77.32536 z m 72.08152,127.836263 c 0,0 -34.47814,0.98947 -38.06743,0.31187 0,0 9.76691,1.99246 14.62606,9.83574 l 22.02412,40.36338 -16.1,9.41057 53.997363,1.21878 24.17835,-47.05282 -19.89825,11.70651 -7.31302,-13.35053 c 0,0 -5.62979,-13.9 -33.447193,-12.44349 z m -43.73645,4.73362 c -12.42781,-0.39576 -21.68397,14.73944 -21.68397,14.73944 l -17.9424296,32.96533 36.9619796,22.36425 27.15456,-45.97569 c -8.43793,-18.04272 -17.03344,-23.85583 -24.49014,-24.09333 z m 98.612513,49.5472 -36.99032,22.33591 25.25547,47.13785 c 51.45286,3.36976 30.58431,-37.07534 30.58431,-37.07534 z m -128.828353,10.09084 -51.33293,3.03293 19.98328,11.53644 -7.22799,13.40722 c 0,0 -8.51809,12.25453 7.14295,36.08328 0,0 18.7870904,30.03344 20.0399704,33.56056 0,0 -3.43490997,-9.69708 0.51027,-18.08416 l 21.8256996,-40.44841 16.1567,9.29718 z m 90.108983,45.63557 -27.579753,48.07324 27.579753,44.98363 v -23.69648 h 14.79613 c 0,0 14.4722,1.72899 26.89946,-24.06497 0,0 16.15579,-31.65317 18.50935,-34.49595 0,0 -6.48613,7.83484 -15.47641,8.3618 h -44.72853 z m -87.784693,20.46514 c -27.9189496,44.90293 16.32676,45.74895 16.32676,45.74895 l 36.45177,-1.21878 -0.73696,-44.36002 z"
       style="opacity:1;fill:#444444;fill-opacity:1;stroke:none;stroke-width:14.5127px;stroke-linecap:butt;stroke-linejoin:miter;stroke-opacity:1"
       id="path900" />
  </g>
</svg>
