<?xml version="1.0" encoding="UTF-8" standalone="no"?>
<svg
   xmlns:dc="http://purl.org/dc/elements/1.1/"
   xmlns:cc="http://creativecommons.org/ns#"
   xmlns:rdf="http://www.w3.org/1999/02/22-rdf-syntax-ns#"
   xmlns:svg="http://www.w3.org/2000/svg"
   xmlns="http://www.w3.org/2000/svg"
   xmlns:sodipodi="http://sodipodi.sourceforge.net/DTD/sodipodi-0.dtd"
   xmlns:inkscape="http://www.inkscape.org/namespaces/inkscape"
   width="32"
   height="32"
   version="1"
   id="svg96"
   sodipodi:docname="emblem-favorite.svg"
   inkscape:version="1.0.1 (3bc2e813f5, 2020-09-07)">
  <metadata
     id="metadata102">
    <rdf:RDF>
      <cc:Work
         rdf:about="">
        <dc:format>image/svg+xml</dc:format>
        <dc:type
           rdf:resource="http://purl.org/dc/dcmitype/StillImage" />
      </cc:Work>
    </rdf:RDF>
  </metadata>
  <defs
     id="defs100" />
  <sodipodi:namedview
     pagecolor="#ffffff"
     bordercolor="#666666"
     borderopacity="1"
     objecttolerance="10"
     gridtolerance="10"
     guidetolerance="10"
     inkscape:pageopacity="0"
     inkscape:pageshadow="2"
     inkscape:window-width="1920"
     inkscape:window-height="963"
     id="namedview98"
     showgrid="false"
     inkscape:zoom="23.8125"
     inkscape:cx="16"
     inkscape:cy="16"
     inkscape:window-x="0"
     inkscape:window-y="25"
     inkscape:window-maximized="1"
     inkscape:current-layer="svg96" />
  <circle
     style="fill:#000000;fill-opacity:1;opacity:0.5"
     cx="16"
     cy="16"
     r="14"
     id="circle92" />
  <circle
     style="fill:#ffffff;fill-opacity:1;stroke-width:0.928571"
     cx="16"
     cy="16"
     r="13"
     id="circle332-3" />
  <path
     style="fill:#0066cc"
     d="m 19.384284,8 c -1.336957,0 -2.54094,0.966312 -3.383958,2 -0.843234,-1.033688 -2.047181,-2 -3.384175,-2 -2.549352,0 -4.6160377,2.351799 -4.6160377,5.252976 0,0.779493 0.1210113,1.529625 0.332944,2.245944 0,0 0.1921747,0.646326 0.3624167,1.002121 C 10.641185,21.050152 16.000001,24 16.000001,24 c 0,0 5.358851,-2.949927 7.304526,-7.498959 0,0 0.251048,-0.606129 0.362417,-1.002121 0.202362,-0.71963 0.332943,-1.466451 0.332943,-2.245944 C 23.999887,10.351799 21.933202,8 19.383849,8 Z"
     id="path94" />
</svg>
