<?xml version="1.0" encoding="UTF-8" standalone="no"?>
<svg
   xmlns:dc="http://purl.org/dc/elements/1.1/"
   xmlns:cc="http://creativecommons.org/ns#"
   xmlns:rdf="http://www.w3.org/1999/02/22-rdf-syntax-ns#"
   xmlns:svg="http://www.w3.org/2000/svg"
   xmlns="http://www.w3.org/2000/svg"
   xmlns:sodipodi="http://sodipodi.sourceforge.net/DTD/sodipodi-0.dtd"
   xmlns:inkscape="http://www.inkscape.org/namespaces/inkscape"
   width="32"
   height="32"
   version="1.1"
   id="svg66"
   sodipodi:docname="emblem-encrypted-locked.svg"
   inkscape:version="1.0.1 (3bc2e813f5, 2020-09-07)">
  <metadata
     id="metadata72">
    <rdf:RDF>
      <cc:Work
         rdf:about="">
        <dc:format>image/svg+xml</dc:format>
        <dc:type
           rdf:resource="http://purl.org/dc/dcmitype/StillImage" />
      </cc:Work>
    </rdf:RDF>
  </metadata>
  <defs
     id="defs70" />
  <sodipodi:namedview
     pagecolor="#ffffff"
     bordercolor="#666666"
     borderopacity="1"
     objecttolerance="10"
     gridtolerance="10"
     guidetolerance="10"
     inkscape:pageopacity="0"
     inkscape:pageshadow="2"
     inkscape:window-width="1920"
     inkscape:window-height="963"
     id="namedview68"
     showgrid="false"
     inkscape:zoom="23.8125"
     inkscape:cx="16"
     inkscape:cy="16"
     inkscape:window-x="0"
     inkscape:window-y="25"
     inkscape:window-maximized="1"
     inkscape:current-layer="g64" />
  <g
     id="g64">
    <circle
       style="fill:#000000;fill-opacity:1;opacity:0.5"
       cx="16"
       cy="16"
       r="14"
       id="circle56" />
    <circle
       style="fill:#ffffff;fill-opacity:1;stroke-width:0.928571"
       cx="16"
       cy="16"
       r="13"
       id="circle332-3" />
    <path
       style="fill:#0066cc"
       d="M 12 11 A 5 5 0 0 0 7 16 A 5 5 0 0 0 12 21 A 5 5 0 0 0 17 16 A 5 5 0 0 0 12 11 z M 12 14 A 2 2 0 0 1 14 16 A 2 2 0 0 1 12 18 A 2 2 0 0 1 10 16 A 2 2 0 0 1 12 14 z"
       id="path58" />
    <rect
       style="fill:#0066cc"
       width="10"
       height="2"
       x="16"
       y="15"
       id="rect60" />
    <rect
       style="fill:#0066cc"
       width="2"
       height="2"
       x="22"
       y="17"
       id="rect62" />
  </g>
</svg>
