<?xml version="1.0" encoding="UTF-8" standalone="no"?>
<svg
   xmlns:dc="http://purl.org/dc/elements/1.1/"
   xmlns:cc="http://creativecommons.org/ns#"
   xmlns:rdf="http://www.w3.org/1999/02/22-rdf-syntax-ns#"
   xmlns:svg="http://www.w3.org/2000/svg"
   xmlns="http://www.w3.org/2000/svg"
   xmlns:sodipodi="http://sodipodi.sourceforge.net/DTD/sodipodi-0.dtd"
   xmlns:inkscape="http://www.inkscape.org/namespaces/inkscape"
   width="32"
   height="32"
   version="1.1"
   id="svg234"
   sodipodi:docname="emblem-readonly.svg"
   inkscape:version="1.0.1 (3bc2e813f5, 2020-09-07)">
  <metadata
     id="metadata240">
    <rdf:RDF>
      <cc:Work
         rdf:about="">
        <dc:format>image/svg+xml</dc:format>
        <dc:type
           rdf:resource="http://purl.org/dc/dcmitype/StillImage" />
      </cc:Work>
    </rdf:RDF>
  </metadata>
  <defs
     id="defs238" />
  <sodipodi:namedview
     pagecolor="#ffffff"
     bordercolor="#666666"
     borderopacity="1"
     objecttolerance="10"
     gridtolerance="10"
     guidetolerance="10"
     inkscape:pageopacity="0"
     inkscape:pageshadow="2"
     inkscape:window-width="1920"
     inkscape:window-height="963"
     id="namedview236"
     showgrid="false"
     inkscape:zoom="23.8125"
     inkscape:cx="16"
     inkscape:cy="16"
     inkscape:window-x="0"
     inkscape:window-y="25"
     inkscape:window-maximized="1"
     inkscape:current-layer="svg234" />
  <circle
     style="fill:#000000;fill-opacity:1;opacity:0.5"
     cx="16"
     cy="16"
     r="14"
     id="circle230" />
  <circle
     style="fill:#ffffff;fill-opacity:1;stroke-width:0.928571"
     cx="16"
     cy="16"
     r="13"
     id="circle332-3" />
  <path
     style="fill:#0066cc"
     d="m 15.999999,8.000005 c -2.800001,0 -5.142726,1.3363885 -4.999996,4.666663 l 0,2.333337 -0.833338,0 c -0.6463334,0 -1.1666667,0.466857 -1.1666667,1.1 l 0,6.757142 c 0,0.633143 0.5203333,1.142857 1.1666667,1.142857 l 11.666667,0 c 0.646333,0 1.166667,-0.509714 1.166667,-1.142857 l 0,-6.757142 c 0,-0.633143 -0.511059,-1.1 -1.166667,-1.1 l -0.833338,0 0,-2.333337 c 0,-3.3333259 -2.199995,-4.666663 -4.999995,-4.666663 z m 0,2 c 1.4,0 3.000001,0.480743 3.000001,2.666663 l 0,2.333337 -6.000003,0 0,-2.333337 c 0,-2.164286 1.600001,-2.666663 3.000002,-2.666663 z"
     id="path232" />
</svg>
