<?xml version="1.0" encoding="UTF-8" standalone="no"?>
<svg
   xmlns:dc="http://purl.org/dc/elements/1.1/"
   xmlns:cc="http://creativecommons.org/ns#"
   xmlns:rdf="http://www.w3.org/1999/02/22-rdf-syntax-ns#"
   xmlns:svg="http://www.w3.org/2000/svg"
   xmlns="http://www.w3.org/2000/svg"
   xmlns:sodipodi="http://sodipodi.sourceforge.net/DTD/sodipodi-0.dtd"
   xmlns:inkscape="http://www.inkscape.org/namespaces/inkscape"
   width="32"
   height="32"
   version="1.1"
   id="svg210"
   sodipodi:docname="emblem-photos.svg"
   inkscape:version="1.0.1 (3bc2e813f5, 2020-09-07)">
  <metadata
     id="metadata216">
    <rdf:RDF>
      <cc:Work
         rdf:about="">
        <dc:format>image/svg+xml</dc:format>
        <dc:type
           rdf:resource="http://purl.org/dc/dcmitype/StillImage" />
      </cc:Work>
    </rdf:RDF>
  </metadata>
  <defs
     id="defs214" />
  <sodipodi:namedview
     pagecolor="#ffffff"
     bordercolor="#666666"
     borderopacity="1"
     objecttolerance="10"
     gridtolerance="10"
     guidetolerance="10"
     inkscape:pageopacity="0"
     inkscape:pageshadow="2"
     inkscape:window-width="1920"
     inkscape:window-height="963"
     id="namedview212"
     showgrid="false"
     inkscape:zoom="23.8125"
     inkscape:cx="16"
     inkscape:cy="16"
     inkscape:window-x="0"
     inkscape:window-y="25"
     inkscape:window-maximized="1"
     inkscape:current-layer="svg210" />
  <circle
     style="fill:#000000;fill-opacity:1;opacity:0.5"
     cx="16"
     cy="16"
     r="14"
     id="circle206" />
  <circle
     style="fill:#ffffff;fill-opacity:1;stroke-width:0.928571"
     cx="16"
     cy="16"
     r="13"
     id="circle332-3" />
  <path
     style="fill:#0066cc"
     d="m 12,9 -1,2 -1,0 C 8.372112,10.98164 8,11.700781 8,12.4 l 0,9.199609 C 8,22.999609 8.7258503,23 10.285156,23 l 11.429688,0 C 23.505007,23.0041 24,22.999609 24,21.599609 L 24,12.4 C 24,11.599219 23.516812,11 22,11 l -1,0 -1,-2 z m 4,3 c 2.209067,0 4,1.790934 4,4 0,2.209067 -1.790933,4 -4,4 -2.209068,0 -4,-1.790933 -4,-4 0,-2.209066 1.790932,-4 4,-4 z"
     id="path208" />
</svg>
