<?xml version="1.0" encoding="UTF-8" standalone="no"?>
<svg
   xmlns:dc="http://purl.org/dc/elements/1.1/"
   xmlns:cc="http://creativecommons.org/ns#"
   xmlns:rdf="http://www.w3.org/1999/02/22-rdf-syntax-ns#"
   xmlns:svg="http://www.w3.org/2000/svg"
   xmlns="http://www.w3.org/2000/svg"
   xmlns:sodipodi="http://sodipodi.sourceforge.net/DTD/sodipodi-0.dtd"
   xmlns:inkscape="http://www.inkscape.org/namespaces/inkscape"
   width="32"
   height="32"
   version="1.1"
   id="svg154"
   sodipodi:docname="emblem-mail.svg"
   inkscape:version="1.0.1 (3bc2e813f5, 2020-09-07)">
  <metadata
     id="metadata160">
    <rdf:RDF>
      <cc:Work
         rdf:about="">
        <dc:format>image/svg+xml</dc:format>
        <dc:type
           rdf:resource="http://purl.org/dc/dcmitype/StillImage" />
      </cc:Work>
    </rdf:RDF>
  </metadata>
  <defs
     id="defs158" />
  <sodipodi:namedview
     pagecolor="#ffffff"
     bordercolor="#666666"
     borderopacity="1"
     objecttolerance="10"
     gridtolerance="10"
     guidetolerance="10"
     inkscape:pageopacity="0"
     inkscape:pageshadow="2"
     inkscape:window-width="1920"
     inkscape:window-height="963"
     id="namedview156"
     showgrid="false"
     inkscape:zoom="23.8125"
     inkscape:cx="16"
     inkscape:cy="16"
     inkscape:window-x="0"
     inkscape:window-y="25"
     inkscape:window-maximized="1"
     inkscape:current-layer="svg154" />
  <circle
     style="fill:#000000;fill-opacity:1;opacity:0.5"
     cx="16"
     cy="16"
     r="14"
     id="circle150" />
  <circle
     style="fill:#ffffff;fill-opacity:1;stroke-width:0.928571"
     cx="16"
     cy="16"
     r="13"
     id="circle332-3" />
  <path
     style="fill:#0066cc"
     d="m 15.99995,8.0002 c -4.4183,0 -8,3.5817 -8,8 0,4.4183 3.5817,8 8,8 l 5,0 c 0,0 0.9375,0 1,-1 0,-1 -1,-1 -1,-1 l -5,0 c -3.3137,0 -6,-2.6863 -6,-6 0,-3.3137 2.6863,-6 6,-6 3.3137,0 6,2.6863 6,6 l 0,1 c 0,0.55228 -0.44772,1 -1,1 -0.55228,0 -1,-0.44772 -1,-1 l 0,-1 c 0,-2.2091 -1.7909,-4 -4,-4 -2.2091,0 -4,1.7909 -4,4 0,2.2091 1.7909,4 4,4 1.0462,0 1.9903,-0.4109 2.7031,-1.0684 0.57,0.677 1.411,1.068 2.297,1.068 1.6568,0 3,-1.3432 3,-3 l 0,-1 c 0,-4.418 -3.582,-8 -8,-8 z m 0,6 c 1.1046,0 2,0.89543 2,2 0,1.10457 -0.89543,2 -2,2 -1.10457,0 -2,-0.89543 -2,-2 0,-1.10457 0.89543,-2 2,-2 z"
     id="path152" />
</svg>
