<?xml version="1.0" encoding="UTF-8" standalone="no"?>
<svg
   xmlns:dc="http://purl.org/dc/elements/1.1/"
   xmlns:cc="http://creativecommons.org/ns#"
   xmlns:rdf="http://www.w3.org/1999/02/22-rdf-syntax-ns#"
   xmlns:svg="http://www.w3.org/2000/svg"
   xmlns="http://www.w3.org/2000/svg"
   xmlns:sodipodi="http://sodipodi.sourceforge.net/DTD/sodipodi-0.dtd"
   xmlns:inkscape="http://www.inkscape.org/namespaces/inkscape"
   width="32"
   height="32"
   version="1.1"
   id="svg296"
   sodipodi:docname="emblem-unlocked.svg"
   inkscape:version="1.0.1 (3bc2e813f5, 2020-09-07)">
  <metadata
     id="metadata302">
    <rdf:RDF>
      <cc:Work
         rdf:about="">
        <dc:format>image/svg+xml</dc:format>
        <dc:type
           rdf:resource="http://purl.org/dc/dcmitype/StillImage" />
      </cc:Work>
    </rdf:RDF>
  </metadata>
  <defs
     id="defs300" />
  <sodipodi:namedview
     pagecolor="#ffffff"
     bordercolor="#666666"
     borderopacity="1"
     objecttolerance="10"
     gridtolerance="10"
     guidetolerance="10"
     inkscape:pageopacity="0"
     inkscape:pageshadow="2"
     inkscape:window-width="1920"
     inkscape:window-height="963"
     id="namedview298"
     showgrid="false"
     inkscape:zoom="23.8125"
     inkscape:cx="16"
     inkscape:cy="16"
     inkscape:window-x="0"
     inkscape:window-y="25"
     inkscape:window-maximized="1"
     inkscape:current-layer="svg296" />
  <circle
     style="fill:#000000;fill-opacity:1;opacity:0.5"
     cx="16"
     cy="16"
     r="14"
     id="circle292" />
  <circle
     style="fill:#ffffff;fill-opacity:1;stroke-width:0.928571"
     cx="16"
     cy="16"
     r="13"
     id="circle332-3" />
  <path
     style="fill:#0066cc"
     d="M 16 8 C 13.395848 8 11.189213 9.1590918 11.007812 12 L 13.066406 12 C 13.367568 10.402006 14.758729 10 16 10 C 17.4 10 19 10.480096 19 12.666016 L 19 15 L 16 15 L 13 15 L 11 15 L 10.166016 15 C 9.5196822 15 9 15.466466 9 16.099609 L 9 22.857422 C 9 23.490565 9.5196822 24 10.166016 24 L 21.833984 24 C 22.480317 24 23 23.490565 23 22.857422 L 23 16.099609 C 23 15.466466 22.489592 15 21.833984 15 L 21 15 L 21 12.666016 C 21 9.3326897 18.8 8 16 8 z"
     id="path294" />
</svg>
