#define image_width  14
#define image_height 14
static unsigned char image_bits[] = {
 0x00,0xc0,0x00,0xc0,0x04,0xc8,0x08,0xc4,0x10,0xc2,0x20,0xc1,
 0xc0,0xc0,0xc0,0xc0,0x20,0xc1,0x10,0xc2,0x08,0xc4,0x04,0xc8,
 0x00,0xc0,0x00,0xc0};
