#define image_width  14
#define image_height 14
static unsigned char image_bits[] = {
 0x00,0xc0,0x00,0xc0,0x00,0xc0,0x00,0xc0,0xf8,0xc7,0x08,0xc4,
 0x08,0xc4,0x08,0xc4,0x08,0xc4,0xf8,0xc7,0x00,0xc0,0x00,0xc0,
 0x00,0xc0,0x00,0xc0};
