#define image_width  14
#define image_height 14
static unsigned char image_bits[] = {
 0x00,0xc0,0x00,0xc0,0x00,0xc0,0x00,0xc0,0x00,0xc0,0x00,0xc0,
 0xfc,0xcf,0x00,0xc0,0x00,0xc0,0x00,0xc0,0x00,0xc0,0x00,0xc0,
 0x00,0xc0,0x00,0xc0};
