#define image_width  14
#define image_height 14
static unsigned char image_bits[] = {
 0x00,0xc0,0x00,0xc0,0xfe,0xcf,0x02,0xc8,0x02,0xc8,0x02,0xc8,
 0x02,0xc8,0x02,0xc8,0x02,0xc8,0x02,0xc8,0x02,0xc8,0xfe,0xcf,
 0x00,0xc0,0x00,0xc0};
