#define image_width  14
#define image_height 14
static unsigned char image_bits[] = {
 0xfc,0xff,0x04,0xe0,0xfe,0xef,0x02,0xe8,0x02,0xe8,0x02,0xe8,
 0x02,0xe8,0x02,0xe8,0x02,0xe8,0x02,0xe8,0x02,0xf8,0xfe,0xcf,
 0x00,0xc0,0x00,0xc0};
