<?xml version="1.0" encoding="UTF-8" standalone="no"?>
<svg
   xmlns:dc="http://purl.org/dc/elements/1.1/"
   xmlns:cc="http://creativecommons.org/ns#"
   xmlns:rdf="http://www.w3.org/1999/02/22-rdf-syntax-ns#"
   xmlns:svg="http://www.w3.org/2000/svg"
   xmlns="http://www.w3.org/2000/svg"
   xmlns:sodipodi="http://sodipodi.sourceforge.net/DTD/sodipodi-0.dtd"
   xmlns:inkscape="http://www.inkscape.org/namespaces/inkscape"
   inkscape:version="1.0.1 (3bc2e813f5, 2020-09-07)"
   sodipodi:docname="battery.svg"
   id="svg16"
   version="1"
   height="32"
   width="32">
  <metadata
     id="metadata22">
    <rdf:RDF>
      <cc:Work
         rdf:about="">
        <dc:format>image/svg+xml</dc:format>
        <dc:type
           rdf:resource="http://purl.org/dc/dcmitype/StillImage" />
      </cc:Work>
    </rdf:RDF>
  </metadata>
  <defs
     id="defs20">
    <filter
       inkscape:collect="always"
       style="color-interpolation-filters:sRGB"
       id="filter16679"
       x="-0.088125"
       width="1.17625"
       y="-0.065277778"
       height="1.1305556">
      <feGaussianBlur
         inkscape:collect="always"
         stdDeviation="0.734375"
         id="feGaussianBlur16681" />
    </filter>
  </defs>
  <sodipodi:namedview
     inkscape:current-layer="svg16"
     inkscape:window-maximized="1"
     inkscape:window-y="0"
     inkscape:window-x="0"
     inkscape:cy="18.044324"
     inkscape:cx="14.057286"
     inkscape:zoom="24.375"
     showgrid="false"
     id="namedview18"
     inkscape:window-height="1000"
     inkscape:window-width="1920"
     inkscape:pageshadow="2"
     inkscape:pageopacity="0"
     guidetolerance="10"
     gridtolerance="10"
     objecttolerance="10"
     borderopacity="1"
     bordercolor="#666666"
     pagecolor="#ffffff"
     inkscape:document-rotation="0" />
  <path
     d="M 9,3 V 6 H 7.25 C 6.5575,6 6,6.536372 6,7.201172 v 21.59961 C 6,29.465582 6.5575,30 7.25,30 h 17.5 C 25.4425,30 26,29.465582 26,28.800782 V 7.201172 C 26,6.536372 25.4425,6 24.75,6 H 23 V 3 Z"
     style="opacity:0.5;mix-blend-mode:normal;fill:#000000;fill-opacity:1;stroke-width:0.934199;filter:url(#filter16679)"
     id="path4-4" />
  <path
     id="path4"
     d="m 7.25,6 h 17.5 C 25.4425,6 26,6.5352 26,7.2 V 28.8 C 26,29.4648 25.4425,30 24.75,30 H 7.25 C 6.5575,30 6,29.4648 6,28.8 V 7.2 C 6,6.5352 6.5575,6 7.25,6 Z"
     style="fill:#4f4f4f;stroke-width:0.934199" />
  <rect
     id="rect6"
     y="3"
     x="9"
     height="3"
     width="14"
     style="fill:#8e8e8e" />
  <rect
     ry="0"
     rx="0"
     y="8"
     x="8"
     height="20"
     width="16"
     id="rect847"
     style="opacity:1;fill:#c0f957;fill-opacity:1;stroke:none;stroke-width:4.075" />
</svg>
