<?xml version="1.0" encoding="UTF-8" standalone="no"?>
<svg
   xmlns:dc="http://purl.org/dc/elements/1.1/"
   xmlns:cc="http://creativecommons.org/ns#"
   xmlns:rdf="http://www.w3.org/1999/02/22-rdf-syntax-ns#"
   xmlns:svg="http://www.w3.org/2000/svg"
   xmlns="http://www.w3.org/2000/svg"
   xmlns:xlink="http://www.w3.org/1999/xlink"
   xmlns:sodipodi="http://sodipodi.sourceforge.net/DTD/sodipodi-0.dtd"
   xmlns:inkscape="http://www.inkscape.org/namespaces/inkscape"
   inkscape:version="1.0.1 (3bc2e813f5, 2020-09-07)"
   sodipodi:docname="drive-optical.svg"
   id="svg10"
   version="1"
   height="32"
   width="32">
  <metadata
     id="metadata16">
    <rdf:RDF>
      <cc:Work
         rdf:about="">
        <dc:format>image/svg+xml</dc:format>
        <dc:type
           rdf:resource="http://purl.org/dc/dcmitype/StillImage" />
        <dc:title />
      </cc:Work>
    </rdf:RDF>
  </metadata>
  <defs
     id="defs14">
    <linearGradient
       id="linearGradient842"
       inkscape:collect="always">
      <stop
         id="stop838"
         offset="0"
         style="stop-color:#d9d9d9;stop-opacity:1" />
      <stop
         id="stop840"
         offset="1"
         style="stop-color:#e5e5e5;stop-opacity:1" />
    </linearGradient>
    <linearGradient
       gradientTransform="matrix(0.5,0,0,0.5,-6e-7,0.0677965)"
       gradientUnits="userSpaceOnUse"
       y2="-32"
       x2="-4"
       y1="-32"
       x1="-60"
       id="linearGradient844"
       xlink:href="#linearGradient842"
       inkscape:collect="always" />
    <filter
       inkscape:collect="always"
       style="color-interpolation-filters:sRGB"
       id="filter16381"
       x="-0.075"
       width="1.15"
       y="-0.075"
       height="1.15">
      <feGaussianBlur
         inkscape:collect="always"
         stdDeviation="0.875"
         id="feGaussianBlur16383" />
    </filter>
  </defs>
  <sodipodi:namedview
     inkscape:document-rotation="0"
     inkscape:current-layer="svg10"
     inkscape:window-maximized="1"
     inkscape:window-y="0"
     inkscape:window-x="0"
     inkscape:cy="22.829624"
     inkscape:cx="12.442195"
     inkscape:zoom="10.429825"
     showgrid="false"
     id="namedview12"
     inkscape:window-height="1000"
     inkscape:window-width="1920"
     inkscape:pageshadow="2"
     inkscape:pageopacity="0"
     guidetolerance="10"
     gridtolerance="10"
     objecttolerance="10"
     borderopacity="1"
     bordercolor="#666666"
     pagecolor="#ffffff" />
  <rect
     style="fill:#000000;fill-opacity:1;stroke-width:0.5;opacity:0.5;filter:url(#filter16381)"
     width="28"
     height="28"
     x="-30"
     y="-30"
     rx="1.25"
     ry="1.25"
     transform="matrix(0,-1,-1,0,0,0)"
     id="rect4-0" />
  <rect
     id="rect4"
     transform="matrix(0,-1,-1,0,0,0)"
     ry="1.25"
     rx="1.25"
     y="-29.932203"
     x="-30"
     height="28"
     width="28"
     style="fill:url(#linearGradient844);fill-opacity:1;stroke-width:0.5" />
  <path
     inkscape:connector-curvature="0"
     id="path6"
     d="M 15.932204,6 A 9.9999998,9.9999998 0 0 0 5.9322035,16 9.9999998,9.9999998 0 0 0 15.932204,26 9.9999998,9.9999998 0 0 0 25.932203,16 9.9999998,9.9999998 0 0 0 15.932204,6 Z m 0,6 a 4,4 0 0 1 3.999999,4 4,4 0 0 1 -3.999999,4 4,4 0 0 1 -4,-4 4,4 0 0 1 4,-4 z"
     style="opacity:0.5;stroke-width:0.5" />
</svg>
