<?xml version="1.0" encoding="UTF-8" standalone="no"?>
<svg
   xmlns:dc="http://purl.org/dc/elements/1.1/"
   xmlns:cc="http://creativecommons.org/ns#"
   xmlns:rdf="http://www.w3.org/1999/02/22-rdf-syntax-ns#"
   xmlns:svg="http://www.w3.org/2000/svg"
   xmlns="http://www.w3.org/2000/svg"
   xmlns:xlink="http://www.w3.org/1999/xlink"
   xmlns:sodipodi="http://sodipodi.sourceforge.net/DTD/sodipodi-0.dtd"
   xmlns:inkscape="http://www.inkscape.org/namespaces/inkscape"
   inkscape:version="1.0.1 (3bc2e813f5, 2020-09-07)"
   sodipodi:docname="input-gaming.svg"
   id="svg78"
   version="1.1"
   viewBox="0 0 64 64">
  <metadata
     id="metadata84">
    <rdf:RDF>
      <cc:Work
         rdf:about="">
        <dc:format>image/svg+xml</dc:format>
        <dc:type
           rdf:resource="http://purl.org/dc/dcmitype/StillImage" />
      </cc:Work>
    </rdf:RDF>
  </metadata>
  <defs
     id="defs82">
    <filter
       inkscape:collect="always"
       style="color-interpolation-filters:sRGB"
       id="filter16373"
       x="-0.064182692"
       width="1.1283654"
       y="-0.090202703"
       height="1.1804054">
      <feGaussianBlur
         inkscape:collect="always"
         stdDeviation="1.390625"
         id="feGaussianBlur16375" />
    </filter>
  </defs>
  <sodipodi:namedview
     inkscape:current-layer="g76"
     inkscape:window-maximized="1"
     inkscape:window-y="0"
     inkscape:window-x="0"
     inkscape:cy="17.464078"
     inkscape:cx="4.0728369"
     inkscape:zoom="8.4189901"
     showgrid="false"
     id="namedview80"
     inkscape:window-height="1000"
     inkscape:window-width="1920"
     inkscape:pageshadow="2"
     inkscape:pageopacity="0"
     guidetolerance="10"
     gridtolerance="10"
     objecttolerance="10"
     borderopacity="1"
     bordercolor="#666666"
     pagecolor="#ffffff"
     inkscape:document-rotation="0" />
  <linearGradient
     y2="21"
     y1="25"
     x2="47"
     x1="47"
     gradientUnits="userSpaceOnUse"
     id="k">
    <stop
       id="stop2"
       stop-color="#fdae23"
       offset="0" />
    <stop
       id="stop4"
       stop-color="#fdca73"
       offset="1" />
  </linearGradient>
  <linearGradient
     y2="25"
     y1="29"
     x2="51"
     x1="51"
     gradientUnits="userSpaceOnUse"
     id="l">
    <stop
       id="stop7"
       stop-color="#da4453"
       offset="0" />
    <stop
       id="stop9"
       stop-color="#e47681"
       offset="1" />
  </linearGradient>
  <linearGradient
     y2="25"
     y1="29"
     x2="43"
     x1="43"
     gradientUnits="userSpaceOnUse"
     id="n">
    <stop
       id="stop12"
       stop-color="#0c85dc"
       offset="0" />
    <stop
       id="stop14"
       stop-color="#43aaf5"
       offset="1" />
  </linearGradient>
  <linearGradient
     y2="29"
     y1="33"
     x2="47"
     x1="47"
     gradientUnits="userSpaceOnUse"
     id="m">
    <stop
       id="stop17"
       stop-color="#27ab5f"
       offset="0" />
    <stop
       id="stop19"
       stop-color="#4bd786"
       offset="1" />
  </linearGradient>
  <linearGradient
     id="a">
    <stop
       id="stop22"
       stop-color="#0f1419"
       offset="0" />
    <stop
       id="stop24"
       stop-color="#22282e"
       offset="1" />
  </linearGradient>
  <linearGradient
     id="c">
    <stop
       id="stop27"
       stop-color="#171e25"
       offset="0" />
    <stop
       id="stop29"
       stop-color="#333c45"
       offset="1" />
  </linearGradient>
  <linearGradient
     id="b">
    <stop
       id="stop32"
       stop-color="#6f7881"
       offset="0" />
    <stop
       id="stop34"
       stop-color="#b0b4b8"
       offset="1" />
  </linearGradient>
  <linearGradient
     y2="16"
     y1="53"
     x2="32"
     x1="32"
     gradientUnits="userSpaceOnUse"
     id="d">
    <stop
       id="stop37"
       stop-color="#535a61"
       offset="0" />
    <stop
       id="stop39"
       stop-color="#6f7881"
       offset=".27" />
    <stop
       id="stop41"
       stop-color="#adb6bb"
       offset="1" />
  </linearGradient>
  <radialGradient
     xlink:href="#a"
     r="1"
     gradientUnits="userSpaceOnUse"
     gradientTransform="matrix(4 .00042 -.00224 21 -1543.06 -11237)"
     cy="537.57"
     cx="387.57"
     id="i" />
  <linearGradient
     y2="22"
     y1="32"
     xlink:href="#b"
     x2="22"
     x1="22"
     gradientUnits="userSpaceOnUse"
     id="e" />
  <linearGradient
     y2="22"
     y1="32"
     xlink:href="#c"
     x2="12"
     x1="12"
     gradientUnits="userSpaceOnUse"
     id="f" />
  <linearGradient
     y2="34"
     y1="45"
     xlink:href="#b"
     x2="32"
     x1="32"
     gradientUnits="userSpaceOnUse"
     id="g" />
  <linearGradient
     y2="36"
     y1="43"
     xlink:href="#c"
     x2="32"
     x1="32"
     gradientUnits="userSpaceOnUse"
     id="h" />
  <radialGradient
     xlink:href="#a"
     r="1"
     gradientUnits="userSpaceOnUse"
     gradientTransform="matrix(-4 .00002 .00014 21 1608.26 -11236.8)"
     cy="537.57"
     cx="387.57"
     id="j" />
  <g
     id="g76"
     fill-rule="evenodd">
    <path
       d="M 15,16 A 9,14 0 0 0 6,30 v 18.5 a 4.5,4.5 0 0 0 4.5,4.5 4.5,4.5 0 0 0 3.18,-1.32 L 22.36,43 h 19.28 l 8.68,8.68 A 4.5,4.5 0 0 0 53.5,53 4.5,4.5 0 0 0 58,48.5 V 30 A 9,14 0 0 0 49,16 Z"
       fill="url(#d)"
       id="path50-0"
       style="fill:#010101;fill-opacity:1;opacity:0.5;filter:url(#filter16373)" />
    <path
       style="fill:#e4e5e7;fill-opacity:1"
       id="path50"
       fill="url(#d)"
       d="M15.002 15.996a9 14 0 0 0-9 14v18.5a4.5 4.5 0 0 0 4.5 4.5 4.5 4.5 0 0 0 3.18-1.32l8.68-8.68h19.28l8.68 8.68a4.5 4.5 0 0 0 3.18 1.32 4.5 4.5 0 0 0 4.5-4.5v-18.5a9 14 0 0 0-9-14z" />
    <path
       style="fill:#999999;fill-opacity:1"
       id="path54"
       fill="#6f7881"
       d="M54.002 26.996a7 7 0 0 1-7 7 7 7 0 0 1-7-7 7 7 0 0 1 7-7 7 7 0 0 1 7 7zm-30 0a7 7 0 0 1-7 7 7 7 0 0 1-7-7 7 7 0 0 1 7-7 7 7 0 0 1 7 7z" />
    <circle
       style="fill:#787878;fill-opacity:1"
       id="circle56"
       r="5"
       fill="url(#e)"
       cy="27"
       cx="17" />
    <path
       style="fill:#000000;fill-opacity:1"
       id="path58"
       fill="url(#f)"
       d="M17.002 21.996a5 5 0 0 0-2 .424v2.576h-2.58a5 5 0 0 0-.42 2 5 5 0 0 0 .424 2h2.576v2.58a5 5 0 0 0 2 .42 5 5 0 0 0 2-.424v-2.576h2.58a5 5 0 0 0 .42-2 5 5 0 0 0-.422-2h-2.578v-2.58a5 5 0 0 0-2-.42z" />
    <path
       style="fill:#999999;fill-opacity:1"
       id="path60"
       fill="url(#g)"
       d="M45.002 39.496a5.5 5.5 0 0 1-5.5 5.5 5.5 5.5 0 0 1-5.5-5.5 5.5 5.5 0 0 1 5.5-5.5 5.5 5.5 0 0 1 5.5 5.5zm-15 0a5.5 5.5 0 0 1-5.5 5.5 5.5 5.5 0 0 1-5.5-5.5 5.5 5.5 0 0 1 5.5-5.5 5.5 5.5 0 0 1 5.5 5.5z" />
    <path
       style="fill:#000000;fill-opacity:1"
       id="path62"
       fill="url(#h)"
       d="M43.002 39.496a3.5 3.5 0 0 1-3.5 3.5 3.5 3.5 0 0 1-3.5-3.5 3.5 3.5 0 0 1 3.5-3.5 3.5 3.5 0 0 1 3.5 3.5zm-15 0a3.5 3.5 0 0 1-3.5 3.5 3.5 3.5 0 0 1-3.5-3.5 3.5 3.5 0 0 1 3.5-3.5 3.5 3.5 0 0 1 3.5 3.5z" />
    <path
       style="fill:#000000;fill-opacity:1"
       id="path64"
       fill="url(#i)"
       d="M6.002 30.996v17.5a4.5 4.5 0 0 0 1.896 3.662 4 7 0 0 0 2.104-6.162v-8a4 7 0 0 0-4-7z" />
    <path
       style="fill:#000000;fill-opacity:1"
       id="path66"
       fill="url(#j)"
       d="M58.002 30.996v17.5a4.5 4.5 0 0 1-1.894 3.662 4 7 0 0 1-2.106-6.162v-8a4 7 0 0 1 4-7z" />
    <circle
       style="fill:#fdae23;fill-opacity:1"
       id="circle68"
       r="2"
       fill="url(#k)"
       cy="23"
       cx="47" />
    <circle
       style="fill:#da4453;fill-opacity:1"
       id="circle70"
       r="2"
       fill="url(#l)"
       cy="27"
       cx="51" />
    <circle
       style="fill:#27ab5f;fill-opacity:1"
       id="circle72"
       r="2"
       fill="url(#m)"
       cy="31"
       cx="47" />
    <circle
       style="fill:#0c85dc;fill-opacity:1"
       id="circle74"
       r="2"
       fill="url(#n)"
       cy="27"
       cx="43" />
  </g>
</svg>
