<?xml version="1.0" encoding="UTF-8" standalone="no"?>
<svg
   xmlns:dc="http://purl.org/dc/elements/1.1/"
   xmlns:cc="http://creativecommons.org/ns#"
   xmlns:rdf="http://www.w3.org/1999/02/22-rdf-syntax-ns#"
   xmlns:svg="http://www.w3.org/2000/svg"
   xmlns="http://www.w3.org/2000/svg"
   xmlns:xlink="http://www.w3.org/1999/xlink"
   xmlns:sodipodi="http://sodipodi.sourceforge.net/DTD/sodipodi-0.dtd"
   xmlns:inkscape="http://www.inkscape.org/namespaces/inkscape"
   inkscape:version="1.0.1 (3bc2e813f5, 2020-09-07)"
   sodipodi:docname="media-flash-memory-stick.svg"
   id="svg28"
   version="1"
   height="32"
   width="32">
  <metadata
     id="metadata34">
    <rdf:RDF>
      <cc:Work
         rdf:about="">
        <dc:format>image/svg+xml</dc:format>
        <dc:type
           rdf:resource="http://purl.org/dc/dcmitype/StillImage" />
        <dc:title />
      </cc:Work>
    </rdf:RDF>
  </metadata>
  <defs
     id="defs32">
    <linearGradient
       id="linearGradient822"
       inkscape:collect="always">
      <stop
         id="stop818"
         offset="0"
         style="stop-color:#4f4f4f;stop-opacity:1;" />
      <stop
         id="stop820"
         offset="1"
         style="stop-color:#636363;stop-opacity:1" />
    </linearGradient>
    <linearGradient
       gradientUnits="userSpaceOnUse"
       y2="4.0508475"
       x2="15.864407"
       y1="25.915255"
       x1="16.40678"
       id="linearGradient824"
       xlink:href="#linearGradient822"
       inkscape:collect="always" />
    <filter
       inkscape:collect="always"
       style="color-interpolation-filters:sRGB"
       id="filter16289"
       x="-0.10078125"
       width="1.2015625"
       y="-0.059722222"
       height="1.1194444">
      <feGaussianBlur
         inkscape:collect="always"
         stdDeviation="0.671875"
         id="feGaussianBlur16291" />
    </filter>
  </defs>
  <sodipodi:namedview
     inkscape:document-rotation="0"
     inkscape:current-layer="svg28"
     inkscape:window-maximized="1"
     inkscape:window-y="0"
     inkscape:window-x="0"
     inkscape:cy="16.983738"
     inkscape:cx="-17.712322"
     inkscape:zoom="7.375"
     showgrid="false"
     id="namedview30"
     inkscape:window-height="1000"
     inkscape:window-width="1920"
     inkscape:pageshadow="2"
     inkscape:pageopacity="0"
     guidetolerance="10"
     gridtolerance="10"
     objecttolerance="10"
     borderopacity="1"
     bordercolor="#666666"
     pagecolor="#ffffff" />
  <path
     d="M 9.478516,4 C 8.659065,4 8,4.659064 8,5.478515 V 24.521484 C 8,25.340935 8.659065,26 9.478516,26 H 11 v 4 1 h 10 v -1 -4 h 1.519532 C 23.338983,26 24,25.340935 24,24.521484 V 5.478515 C 24,4.659064 23.338983,4 22.519532,4 Z"
     style="opacity:0.5;fill:#000000;fill-opacity:1;stroke-width:0.5;filter:url(#filter16289)"
     id="path2-1-1" />
  <path
     style="opacity:1;fill:#5b5b5b;fill-opacity:1;stroke-width:0.5"
     inkscape:connector-curvature="0"
     id="path2-1"
     d="M 11,31 H 21 V 26 H 11 Z" />
  <path
     style="fill:#b7b7b7;stroke-width:0.5"
     inkscape:connector-curvature="0"
     id="path2"
     d="M 11,30 H 21 V 25 H 11 Z" />
  <rect
     transform="scale(1,-1)"
     id="rect24"
     y="-29"
     x="12.000001"
     height="1.5"
     width="2.5"
     style="opacity:0.5;stroke-width:0.5" />
  <rect
     transform="scale(1,-1)"
     id="rect26"
     y="-29"
     x="17.5"
     height="1.5"
     width="2.5"
     style="opacity:0.5;stroke-width:0.5" />
  <rect
     style="fill:url(#linearGradient824);fill-opacity:1;stroke-width:0.859939"
     id="rect4"
     ry="1.479153"
     rx="1.479153"
     y="4"
     x="8"
     height="22"
     width="16" />
  <path
     id="path5"
     d="m 15.995849,8.2955036 -2.141376,3.4261234 h 1.284826 v 4.282655 h -2.56965 v -1.089065 c 0.5291,-0.305465 0.855471,-0.869564 0.85655,-1.480528 0,-0.946124 -0.76698,-1.713062 -1.7131,-1.713062 -0.946118,0 -1.713099,0.766964 -1.713099,1.713062 4.8e-4,0.611538 0.326937,1.176419 0.85655,1.482201 v 1.087392 c 0,1.713063 1.713099,1.713063 1.713099,1.713063 h 2.56965 v 1.089065 c -0.5291,0.305465 -0.855471,0.869564 -0.85655,1.480528 0,0.946124 0.76698,1.713062 1.7131,1.713062 0.946118,0 1.713099,-0.766964 1.713099,-1.713062 -4.8e-4,-0.611538 -0.326937,-1.176419 -0.85655,-1.482201 v -1.087392 h 2.569649 c 0,0 1.713099,0 1.713099,-1.713063 v -0.856531 c 0,0 0.963618,-0.160599 0.856549,-0.856531 v -1.713062 c 0.107069,-0.963597 -0.856549,-0.856531 -0.856549,-0.856531 h -1.713099 c -0.910084,0 -0.85655,0.856531 -0.85655,0.856531 v 1.713062 c 0,0.856531 0.85655,0.856531 0.85655,0.856531 v 0.856531 h -2.569649 v -4.282655 h 1.284825 z"
     class="ColorScheme-Text"
     style="fill:currentColor;stroke-width:0.85654038;opacity:0.4"
     inkscape:connector-curvature="0" />
</svg>
