<?xml version="1.0" encoding="UTF-8" standalone="no"?>
<svg
   xmlns:dc="http://purl.org/dc/elements/1.1/"
   xmlns:cc="http://creativecommons.org/ns#"
   xmlns:rdf="http://www.w3.org/1999/02/22-rdf-syntax-ns#"
   xmlns:svg="http://www.w3.org/2000/svg"
   xmlns="http://www.w3.org/2000/svg"
   xmlns:xlink="http://www.w3.org/1999/xlink"
   xmlns:sodipodi="http://sodipodi.sourceforge.net/DTD/sodipodi-0.dtd"
   xmlns:inkscape="http://www.inkscape.org/namespaces/inkscape"
   inkscape:version="1.0.1 (3bc2e813f5, 2020-09-07)"
   sodipodi:docname="media-flash.svg"
   id="svg30"
   version="1"
   height="32"
   width="32">
  <metadata
     id="metadata36">
    <rdf:RDF>
      <cc:Work
         rdf:about="">
        <dc:format>image/svg+xml</dc:format>
        <dc:type
           rdf:resource="http://purl.org/dc/dcmitype/StillImage" />
      </cc:Work>
    </rdf:RDF>
  </metadata>
  <defs
     id="defs34">
    <linearGradient
       id="linearGradient847"
       inkscape:collect="always">
      <stop
         id="stop843"
         offset="0"
         style="stop-color:#4f4f4f;stop-opacity:1;" />
      <stop
         id="stop845"
         offset="1"
         style="stop-color:#636363;stop-opacity:1" />
    </linearGradient>
    <linearGradient
       gradientUnits="userSpaceOnUse"
       y2="2.4406779"
       x2="17.372881"
       y1="29.288136"
       x1="16.79661"
       id="linearGradient849"
       xlink:href="#linearGradient847"
       inkscape:collect="always" />
    <filter
       inkscape:collect="always"
       style="color-interpolation-filters:sRGB"
       id="filter16293"
       x="-0.085227273"
       width="1.1704545"
       y="-0.066964286"
       height="1.1339286">
      <feGaussianBlur
         inkscape:collect="always"
         stdDeviation="0.78125"
         id="feGaussianBlur16295" />
    </filter>
  </defs>
  <sodipodi:namedview
     inkscape:document-rotation="0"
     inkscape:current-layer="svg30"
     inkscape:window-maximized="1"
     inkscape:window-y="0"
     inkscape:window-x="0"
     inkscape:cy="14.711864"
     inkscape:cx="-4"
     inkscape:zoom="7.375"
     showgrid="false"
     id="namedview32"
     inkscape:window-height="1000"
     inkscape:window-width="1920"
     inkscape:pageshadow="2"
     inkscape:pageopacity="0"
     guidetolerance="10"
     gridtolerance="10"
     objecttolerance="10"
     borderopacity="1"
     bordercolor="#666666"
     pagecolor="#ffffff" />
  <path
     id="path2"
     d="M 10,2 5,7 V 28.75 C 5,29.443 5.557,30 6.25,30 h 19.5 C 26.442,30 27,29.443 27,28.75 V 3.25 C 27,2.5575 26.442,2 25.75,2 Z"
     style="opacity:0.5;fill:#000000;fill-opacity:1;filter:url(#filter16293)" />
  <path
     id="path4"
     d="M 10,2 5,7 V 28.75 C 5,29.443 5.557,30 6.25,30 H 25.75 C 26.442,30 27,29.443 27,28.75 V 3.25 C 27,2.5575 26.442,2 25.75,2 Z"
     style="fill:url(#linearGradient849);fill-opacity:1" />
  <rect
     id="rect6"
     transform="scale(1,-1)"
     ry="1.25"
     rx="1.25"
     y="-26"
     x="8"
     height="10"
     width="16"
     style="opacity:0.4" />
  <g
     id="g26"
     style="fill:#f8c44e">
    <rect
       id="rect8"
       y="5"
       x="24"
       height="4"
       width="1" />
    <rect
       id="rect10"
       y="5"
       x="22"
       height="4"
       width="1" />
    <rect
       id="rect12"
       y="5"
       x="20"
       height="4"
       width="1" />
    <rect
       id="rect14"
       y="5"
       x="18"
       height="4"
       width="1" />
    <rect
       id="rect16"
       y="5"
       x="16"
       height="4"
       width="1" />
    <rect
       id="rect18"
       y="5"
       x="14"
       height="4"
       width="1" />
    <rect
       id="rect20"
       y="5"
       x="12"
       height="4"
       width="1" />
    <rect
       id="rect22"
       y="5"
       x="10"
       height="4"
       width="1" />
    <rect
       id="rect24"
       y="7"
       x="8"
       height="2"
       width="1" />
  </g>
</svg>
