<?xml version="1.0" encoding="UTF-8" standalone="no"?>
<svg
   xmlns:dc="http://purl.org/dc/elements/1.1/"
   xmlns:cc="http://creativecommons.org/ns#"
   xmlns:rdf="http://www.w3.org/1999/02/22-rdf-syntax-ns#"
   xmlns:svg="http://www.w3.org/2000/svg"
   xmlns="http://www.w3.org/2000/svg"
   xmlns:sodipodi="http://sodipodi.sourceforge.net/DTD/sodipodi-0.dtd"
   xmlns:inkscape="http://www.inkscape.org/namespaces/inkscape"
   sodipodi:docname="scanner.svg"
   inkscape:version="1.0.1 (3bc2e813f5, 2020-09-07)"
   id="svg8"
   version="1.1"
   viewBox="0 0 8.4666665 8.4666669"
   height="32"
   width="32">
  <defs
     id="defs2">
    <filter
       height="7.2999995"
       y="-3.1499997"
       width="1.315"
       x="-0.1575"
       id="filter902"
       style="color-interpolation-filters:sRGB"
       inkscape:collect="always">
      <feGaussianBlur
         id="feGaussianBlur904"
         stdDeviation="0.34726562"
         inkscape:collect="always" />
    </filter>
    <filter
       inkscape:collect="always"
       style="color-interpolation-filters:sRGB"
       id="filter15178"
       x="-0.081249997"
       width="1.1625"
       y="-0.069642857"
       height="1.1392857">
      <feGaussianBlur
         inkscape:collect="always"
         stdDeviation="0.21497396"
         id="feGaussianBlur15180" />
    </filter>
  </defs>
  <sodipodi:namedview
     inkscape:window-maximized="1"
     inkscape:window-y="0"
     inkscape:window-x="0"
     inkscape:window-height="1000"
     inkscape:window-width="1920"
     units="px"
     showgrid="false"
     inkscape:document-rotation="0"
     inkscape:current-layer="layer1"
     inkscape:document-units="px"
     inkscape:cy="17.406801"
     inkscape:cx="11.360374"
     inkscape:zoom="18.009126"
     inkscape:pageshadow="2"
     inkscape:pageopacity="0.0"
     borderopacity="1.0"
     bordercolor="#666666"
     pagecolor="#ffffff"
     id="base" />
  <metadata
     id="metadata5">
    <rdf:RDF>
      <cc:Work
         rdf:about="">
        <dc:format>image/svg+xml</dc:format>
        <dc:type
           rdf:resource="http://purl.org/dc/dcmitype/StillImage" />
        <dc:title />
      </cc:Work>
    </rdf:RDF>
  </metadata>
  <g
     id="layer1"
     inkscape:groupmode="layer"
     inkscape:label="Capa 1">
    <rect
       ry="0.52213645"
       rx="0.52213645"
       style="opacity:0.5;fill:#000000;fill-opacity:1;stroke:none;stroke-width:2.29353;filter:url(#filter15178)"
       id="rect833-3"
       width="6.3499999"
       height="7.4083333"
       x="1.0583334"
       y="0.5291667" />
    <rect
       ry="0.61993253"
       rx="0.61993253"
       y="0.5291667"
       x="1.0583334"
       height="7.4083333"
       width="6.3499999"
       id="rect833"
       style="opacity:1;fill:#e5e5e5;fill-opacity:1;stroke:none;stroke-width:2.29353" />
    <rect
       style="opacity:1;fill:#000000;fill-opacity:1;stroke:none;stroke-width:1.93838"
       id="rect833-8"
       width="5.2916665"
       height="6.3499999"
       x="1.5875001"
       y="1.0583334"
       rx="0.5166105"
       ry="0.53137076" />
    <rect
       style="opacity:1;fill:#ffffff;fill-opacity:1;stroke:none;stroke-width:1.58269"
       id="rect833-7"
       width="4.2333336"
       height="5.2916665"
       x="2.1166666"
       y="1.5875001"
       rx="0"
       ry="0" />
    <path
       inkscape:connector-curvature="0"
       style="opacity:0.4;fill:none;stroke:#000000;stroke-width:0.08466px;stroke-linecap:butt;stroke-linejoin:miter;stroke-opacity:1"
       id="path3475"
       d="m 2.9104167,2.4235802 h 0.2492936 z m 0.2858565,0 h 0.2326737 z m 0.2692369,0 h 0.2060823 z m 0.2393216,0 h 0.089746 z m 0.1263087,0 h 0.1994345 z m 0.2393214,0 h 0.5251781 z m 0.558417,0 h 0.4021934 z m 0.4354326,0 h 0.122985 z M 2.9104167,2.6950431 h 0.3888976 z m 0.4321087,0 h 0.1861388 z m 0.2193782,0 h 0.09307 z m 0.1296326,0 h 0.1695194 z m 0.2060821,0 h 0.1728435 z m 0.2060828,0 h 0.2758846 z m 0.3124473,0 h 0.3589827 z m 0.3922217,0 h 0.2393217 z m 0.2725608,0 h 0.059831 z M 2.9104167,2.9646103 h 0.3290674 z m 0.3623064,0 h 0.5384737 z m 0.5717128,0 h 0.262589 z m 0.2958282,0 h 0.2459693 z m 0.2792086,0 h 0.2094061 z m 0.2426451,0 0.3290676,0.00379 z m 0.3589825,0.00379 H 5.55625 Z M 2.9104167,3.2379705 h 0.4553762 z m 0.4919394,0 h 0.4919386 z m 0.5251777,0 h 0.1961108 z m 0.2293498,0 h 0.4620236 z m 0.4919387,0 h 0.3157718 z m 0.3523348,0 h 0.1263083 z m 0.1595474,0 h 0.069802 z m 0.106365,0 h 0.1961112 z m -2.3566528,0.271462 h 0.1695195 z m 0.2227021,0 H 3.7613382 Z M 2.9104167,3.9618709 h 0.2492936 z m 0.2858565,0 h 0.22935 z m 0.2692369,0 h 0.2060823 z m 0.2393216,0 h 0.089746 z m 0.1263087,0 h 0.1994345 z m 0.2393214,0 h 0.521854 z m 0.558417,0 h 0.3988695 z m 0.4321085,0 h 0.1263089 z m 0.1595479,0 h 0.299152 z M 2.9104167,4.2333337 h 0.4188131 z m 0.4520522,0 h 0.4487279 z m 0.481967,0 h 0.1728435 z m 0.2060827,0 h 0.4221367 z m 0.4553756,0 h 0.531826 z m 0.5683887,0 H 5.2703937 Z M 2.9104167,4.5047964 h 0.4553762 z m 0.4919394,0 h 0.4919386 z m 0.5251777,0 h 0.1961108 z m 0.2293498,0 h 0.4620236 z m 0.4919387,0 h 0.3157718 z m 0.3523348,0 h 0.1263083 z m 0.1595474,0 h 0.069802 z m 0.106365,0 H 5.4631807 Z M 2.9104167,4.7762595 h 0.3888976 z m 0.4321087,0 h 0.1861388 z m 0.2193782,0 h 0.09307 z m 0.1296326,0 h 0.1695194 z m 0.2060821,0 h 0.1728435 z m 0.2060828,0 h 0.2758846 z m 0.3124473,0 h 0.3589827 z m 0.3922217,0 h 0.2393217 z m 0.2725608,0 h 0.059831 z M 2.9104167,5.2268023 h 0.3290674 z m 0.3623064,0 h 0.5384737 z m 0.5717128,0 h 0.262589 z m 0.2958282,0 h 0.2459693 z m 0.2792086,0 h 0.2094061 z m 0.2426451,0 0.3290676,0.00379 z m 0.3589825,0.00379 H 5.55625 Z M 2.9104167,5.5001604 h 0.3888976 z m 0.4321087,0 h 0.1861388 z m 0.2193782,0 h 0.09307 z m 0.1296326,0 h 0.1695194 z m 0.2060821,0 h 0.1728435 z m 0.2060828,0 h 0.2758846 z m 0.3124473,0 h 0.3589827 z m 0.3922217,0 h 0.2393217 z m 0.2725608,0 h 0.059831 z m -2.1705142,0.271463 h 0.4121652 z m 0.4487282,0 h 0.1296327 z m 0.1628715,0 h 0.2958282 z m 0.3290673,0 h 0.4354325 z m 0.4719952,0 h 0.2958283 z m 0.3257434,0 h 0.063155 z m 0.096394,0 H 5.120818 Z m 0.4154887,0 H 5.3568154 Z M 2.9104167,6.0430865 h 0.4121652 z m 0.4487282,0 h 0.186139 z m 0.2193782,0 h 0.2925041 z m 0.3257433,0 h 0.3157715 z m 0.3523344,0 h 0.1263086 z m 0.1595476,0 h 0.069803 z m 0.106365,0 h 0.1961112 z" />
    <rect
       y="4.1010418"
       x="1.5875001"
       height="0.26458335"
       width="5.2916665"
       id="rect877"
       style="opacity:1;fill:#fe0000;fill-opacity:1;stroke-width:0.185944" />
    <rect
       style="opacity:1;fill:#fe0000;fill-opacity:1;stroke-width:0.185944;filter:url(#filter902)"
       id="rect877-6"
       width="5.2916665"
       height="0.26458335"
       x="1.5875001"
       y="4.1010418" />
  </g>
</svg>
