<?xml version="1.0" encoding="UTF-8" standalone="no"?>
<svg
   xmlns:dc="http://purl.org/dc/elements/1.1/"
   xmlns:cc="http://creativecommons.org/ns#"
   xmlns:rdf="http://www.w3.org/1999/02/22-rdf-syntax-ns#"
   xmlns:svg="http://www.w3.org/2000/svg"
   xmlns="http://www.w3.org/2000/svg"
   xmlns:xlink="http://www.w3.org/1999/xlink"
   xmlns:sodipodi="http://sodipodi.sourceforge.net/DTD/sodipodi-0.dtd"
   xmlns:inkscape="http://www.inkscape.org/namespaces/inkscape"
   viewBox="0 0 48 48"
   id="svg2"
   version="1.1"
   inkscape:version="0.92.2 5c3e80d, 2017-08-06"
   sodipodi:docname="analytics.svg">
  <metadata
     id="metadata51">
    <rdf:RDF>
      <cc:Work
         rdf:about="">
        <dc:format>image/svg+xml</dc:format>
        <dc:type
           rdf:resource="http://purl.org/dc/dcmitype/StillImage" />
        <dc:title></dc:title>
      </cc:Work>
    </rdf:RDF>
  </metadata>
  <sodipodi:namedview
     pagecolor="#ffffff"
     bordercolor="#666666"
     borderopacity="1"
     objecttolerance="10"
     gridtolerance="10"
     guidetolerance="10"
     inkscape:pageopacity="0"
     inkscape:pageshadow="2"
     inkscape:window-width="1920"
     inkscape:window-height="993"
     id="namedview49"
     showgrid="false"
     inkscape:zoom="6.9532167"
     inkscape:cx="51.019166"
     inkscape:cy="38.179963"
     inkscape:window-x="0"
     inkscape:window-y="0"
     inkscape:window-maximized="1"
     inkscape:current-layer="g4795" />
  <defs
     id="defs4">
    <linearGradient
       id="linearGradient3764"
       x1="1"
       x2="47"
       gradientUnits="userSpaceOnUse"
       gradientTransform="matrix(0,-1,1,0,-1.5e-6,47.999998)">
      <stop
         style="stop-color:#b5945b;stop-opacity:1"
         id="stop7" />
      <stop
         offset="1"
         style="stop-color:#bb9e69;stop-opacity:1"
         id="stop9" />
    </linearGradient>
    <path
       d="M139.8 0h-27.5c-6.7 0-12.2 5.5-12.2 12.2V48h-40c-6.6 0-12 5.4-12 12v40H12c-6.6 0-12 5.4-12 12v28c0 6.6 5.4 12 12 12h127.8c6.7 0 12.2-5.5 12.2-12.2V12.2C152 5.5 146.5 0 139.8 0z"
       id="SVGID_3_" />
    <path
       d="M139.8 0h-27.5c-6.7 0-12.2 5.5-12.2 12.2V48h-40c-6.6 0-12 5.4-12 12v40H12c-6.6 0-12 5.4-12 12v28c0 6.6 5.4 12 12 12h127.8c6.7 0 12.2-5.5 12.2-12.2V12.2C152 5.5 146.5 0 139.8 0z"
       id="SVGID_5_" />
    <path
       d="M139.8 0h-27.5c-6.7 0-12.2 5.5-12.2 12.2V48h-40c-6.6 0-12 5.4-12 12v40H12c-6.6 0-12 5.4-12 12v28c0 6.6 5.4 12 12 12h127.8c6.7 0 12.2-5.5 12.2-12.2V12.2C152 5.5 146.5 0 139.8 0z"
       id="SVGID_8_" />
    <path
       d="M139.8 0h-27.5c-6.7 0-12.2 5.5-12.2 12.2V48h-40c-6.6 0-12 5.4-12 12v40H12c-6.6 0-12 5.4-12 12v28c0 6.6 5.4 12 12 12h127.8c6.7 0 12.2-5.5 12.2-12.2V12.2C152 5.5 146.5 0 139.8 0z"
       id="SVGID_10_" />
    <path
       d="M139.8 0h-27.5c-6.7 0-12.2 5.5-12.2 12.2V48h-40c-6.6 0-12 5.4-12 12v40H12c-6.6 0-12 5.4-12 12v28c0 6.6 5.4 12 12 12h127.8c6.7 0 12.2-5.5 12.2-12.2V12.2C152 5.5 146.5 0 139.8 0z"
       id="SVGID_12_" />
    <path
       d="M139.8 0h-27.5c-6.7 0-12.2 5.5-12.2 12.2V48h-40c-6.6 0-12 5.4-12 12v40H12c-6.6 0-12 5.4-12 12v28c0 6.6 5.4 12 12 12h127.8c6.7 0 12.2-5.5 12.2-12.2V12.2C152 5.5 146.5 0 139.8 0z"
       id="SVGID_14_" />
  </defs>
  <g
     id="g11">
    <path
       d="m 36.31 5 c 5.859 4.062 9.688 10.831 9.688 18.5 c 0 12.426 -10.07 22.5 -22.5 22.5 c -7.669 0 -14.438 -3.828 -18.5 -9.688 c 1.037 1.822 2.306 3.499 3.781 4.969 c 4.085 3.712 9.514 5.969 15.469 5.969 c 12.703 0 23 -10.298 23 -23 c 0 -5.954 -2.256 -11.384 -5.969 -15.469 c -1.469 -1.475 -3.147 -2.744 -4.969 -3.781 z m 4.969 3.781 c 3.854 4.113 6.219 9.637 6.219 15.719 c 0 12.703 -10.297 23 -23 23 c -6.081 0 -11.606 -2.364 -15.719 -6.219 c 4.16 4.144 9.883 6.719 16.219 6.719 c 12.703 0 23 -10.298 23 -23 c 0 -6.335 -2.575 -12.06 -6.719 -16.219 z"
       style="opacity:0.05"
       id="path13" />
    <path
       d="m 41.28 8.781 c 3.712 4.085 5.969 9.514 5.969 15.469 c 0 12.703 -10.297 23 -23 23 c -5.954 0 -11.384 -2.256 -15.469 -5.969 c 4.113 3.854 9.637 6.219 15.719 6.219 c 12.703 0 23 -10.298 23 -23 c 0 -6.081 -2.364 -11.606 -6.219 -15.719 z"
       style="opacity:0.1"
       id="path15" />
    <path
       d="m 31.25 2.375 c 8.615 3.154 14.75 11.417 14.75 21.13 c 0 12.426 -10.07 22.5 -22.5 22.5 c -9.708 0 -17.971 -6.135 -21.12 -14.75 a 23 23 0 0 0 44.875 -7 a 23 23 0 0 0 -16 -21.875 z"
       style="opacity:0.2"
       id="path17" />
  </g>
  <g
     id="g19">
    <path
       d="m 24 1 c 12.703 0 23 10.297 23 23 c 0 12.703 -10.297 23 -23 23 -12.703 0 -23 -10.297 -23 -23 0 -12.703 10.297 -23 23 -23 z"
       style="fill:#e6e6e6;fill-opacity:1"
       id="path21" />
  </g>
  <g
     id="g45">
    <path
       d="m 40.03 7.531 c 3.712 4.084 5.969 9.514 5.969 15.469 0 12.703 -10.297 23 -23 23 c -5.954 0 -11.384 -2.256 -15.469 -5.969 4.178 4.291 10.01 6.969 16.469 6.969 c 12.703 0 23 -10.298 23 -23 0 -6.462 -2.677 -12.291 -6.969 -16.469 z"
       style="opacity:0.1"
       id="path47" />
  </g>
  <g
     id="g4582"
     style="fill:none;fill-rule:evenodd"
     transform="matrix(-0.06109972,6.2595041e-4,6.0235035e-4,0.05235001,38.463139,10.352314)">
    <g
       id="g4905"
       transform="matrix(-3.5300801,0.04220926,0.03018479,3.0618097,515.69525,-24.723911)">
      <path
         id="path4774"
         d="m 127.7939,16.148812 h -23.20747 c -5.613356,0 -10.221336,4.915668 -10.221336,10.903846 V 59.049187 H 60.768729 c -5.445795,0 -9.886213,4.736917 -9.886213,10.635718 V 105.52459 H 20.63741 c -5.529576,0 -9.969994,4.73692 -9.969994,10.63572 v 25.02522 c 0,5.8988 4.440418,10.63572 9.969994,10.81447 h 107.24027 c 5.61336,0 10.22134,-4.91567 10.22134,-10.90385 V 27.052658 C 138.01522,21.06448 133.40726,16.148812 127.7939,16.148812 Z"
         class="st0"
         inkscape:connector-curvature="0"
         style="fill:url(#SVGID_1_);stroke-width:0.86533421" />
      <path
         id="path4781"
         d="m 127.7939,16.148812 h -23.20747 c -5.613356,0 -10.221336,4.915668 -10.221336,10.903846 V 59.049187 H 60.768729 c -5.445795,0 -9.886213,4.736917 -9.886213,10.635718 V 105.52459 H 20.63741 c -5.529576,0 -9.969994,4.73692 -9.969994,10.63572 v 25.02522 c 0,5.8988 4.440418,10.63572 9.969994,10.81447 h 107.24027 c 5.61336,0 10.22134,-4.91567 10.22134,-10.90385 V 27.052658 C 138.01522,21.06448 133.40726,16.148812 127.7939,16.148812 Z"
         class="st1"
         inkscape:connector-curvature="0"
         style="fill:url(#SVGID_2_);stroke-width:0.86533421" />
      <g
         id="g4795"
         clip-path="url(#SVGID_4_)"
         class="st2">
        <path
           id="path4789"
           d="M 127.7939,16.148812 H 104.754 c -5.613363,0 -10.221343,4.915668 -10.221343,10.903846 V 152 H 127.7939 c 5.61336,0 10.22134,-4.91567 10.22134,-10.90385 V 27.052658 c 0,-5.988178 -4.60798,-10.903846 -10.22134,-10.903846 z"
           class="st3"
           inkscape:connector-curvature="0"
           style="fill:#f57c00;stroke-width:0.86533421" />
        <path
           id="path4793"
           d="M 50.882516,69.774281 V 105.52459 H 20.721191 c -5.529576,0 -10.053775,4.8263 -10.053775,10.7251 v 25.02522 c 0,5.8988 4.524199,10.72509 10.053775,10.72509 H 94.448875 V 59.049187 H 60.936292 c -5.529577,0 -10.053776,4.826293 -10.053776,10.725094 z"
           class="st4"
           inkscape:connector-curvature="0"
           style="fill:#ffc107;stroke-width:0.86533421" />
      </g>
      <path
         id="path4808"
         clip-path="url(#SVGID_6_)"
         d="M 94.448875,59.049187 V 152 h 33.261245 c 5.61336,0 10.22134,-4.91567 10.22134,-10.90385 v -35.57156 z"
         class="st5"
         inkscape:connector-curvature="0"
         style="fill:url(#SVGID_7_);stroke-width:0.86533421" />
      <g
         id="g4818"
         transform="matrix(0.83781459,0,0,0.89375781,10.667416,16.148812)">
        <defs
           id="defs4811">
          <path
             d="m 139.8,0 h -27.5 c -6.7,0 -12.2,5.5 -12.2,12.2 V 48 h -40 c -6.6,0 -12,5.4 -12,12 v 40 H 12 c -6.6,0 -12,5.4 -12,12 v 28 c 0,6.6 5.4,12 12,12 h 127.8 c 6.7,0 12.2,-5.5 12.2,-12.2 V 12.2 C 152,5.5 146.5,0 139.8,0 Z"
             id="path4876"
             inkscape:connector-curvature="0" />
        </defs>
        <clipPath
           id="SVGID_9_">
          <use
             id="use4813"
             overflow="visible"
             xlink:href="#SVGID_8_"
             style="overflow:visible"
             x="0"
             y="0"
             width="100%"
             height="100%" />
        </clipPath>
        <path
           id="path4816"
           clip-path="url(#SVGID_9_)"
           d="m 60,49 h 40 V 48 H 60 c -6.6,0 -12,5.4 -12,12 v 1 c 0,-6.6 5.4,-12 12,-12 z"
           class="st6"
           inkscape:connector-curvature="0"
           style="opacity:0.2;fill:#ffffff;enable-background:new" />
      </g>
      <g
         id="g4828"
         transform="matrix(0.83781459,0,0,0.89375781,10.667416,16.148812)">
        <defs
           id="defs4821">
          <path
             d="m 139.8,0 h -27.5 c -6.7,0 -12.2,5.5 -12.2,12.2 V 48 h -40 c -6.6,0 -12,5.4 -12,12 v 40 H 12 c -6.6,0 -12,5.4 -12,12 v 28 c 0,6.6 5.4,12 12,12 h 127.8 c 6.7,0 12.2,-5.5 12.2,-12.2 V 12.2 C 152,5.5 146.5,0 139.8,0 Z"
             id="path4883"
             inkscape:connector-curvature="0" />
        </defs>
        <clipPath
           id="SVGID_11_">
          <use
             id="use4823"
             overflow="visible"
             xlink:href="#SVGID_10_"
             style="overflow:visible"
             x="0"
             y="0"
             width="100%"
             height="100%" />
        </clipPath>
        <path
           id="path4826"
           clip-path="url(#SVGID_11_)"
           d="m 12,101 h 36 v -1 H 12 c -6.6,0 -12,5.4 -12,12 v 1 c 0,-6.6 5.4,-12 12,-12 z"
           class="st7"
           inkscape:connector-curvature="0"
           style="opacity:0.2;fill:#ffffff;enable-background:new" />
      </g>
      <g
         id="g4838"
         transform="matrix(0.83781459,0,0,0.89375781,10.667416,16.148812)">
        <defs
           id="defs4831">
          <path
             d="m 139.8,0 h -27.5 c -6.7,0 -12.2,5.5 -12.2,12.2 V 48 h -40 c -6.6,0 -12,5.4 -12,12 v 40 H 12 c -6.6,0 -12,5.4 -12,12 v 28 c 0,6.6 5.4,12 12,12 h 127.8 c 6.7,0 12.2,-5.5 12.2,-12.2 V 12.2 C 152,5.5 146.5,0 139.8,0 Z"
             id="path4890"
             inkscape:connector-curvature="0" />
        </defs>
        <clipPath
           id="SVGID_13_">
          <use
             id="use4833"
             overflow="visible"
             xlink:href="#SVGID_12_"
             style="overflow:visible"
             x="0"
             y="0"
             width="100%"
             height="100%" />
        </clipPath>
        <path
           id="path4836"
           clip-path="url(#SVGID_13_)"
           d="m 139.8,0 h -27.5 c -6.7,0 -12.2,5.5 -12.2,12.2 v 1 C 100.1,6.5 105.6,1 112.3,1 h 27.5 c 6.7,0 12.2,5.5 12.2,12.2 v -1 C 152,5.5 146.5,0 139.8,0 Z"
           class="st8"
           inkscape:connector-curvature="0"
           style="opacity:0.2;fill:#ffffff;enable-background:new" />
      </g>
      <g
         id="g4848"
         transform="matrix(0.83781459,0,0,0.89375781,10.667416,16.148812)">
        <defs
           id="defs4841">
          <path
             d="m 139.8,0 h -27.5 c -6.7,0 -12.2,5.5 -12.2,12.2 V 48 h -40 c -6.6,0 -12,5.4 -12,12 v 40 H 12 c -6.6,0 -12,5.4 -12,12 v 28 c 0,6.6 5.4,12 12,12 h 127.8 c 6.7,0 12.2,-5.5 12.2,-12.2 V 12.2 C 152,5.5 146.5,0 139.8,0 Z"
             id="path4897"
             inkscape:connector-curvature="0" />
        </defs>
        <clipPath
           id="SVGID_15_">
          <use
             id="use4843"
             overflow="visible"
             xlink:href="#SVGID_14_"
             style="overflow:visible"
             x="0"
             y="0"
             width="100%"
             height="100%" />
        </clipPath>
        <path
           id="path4846"
           clip-path="url(#SVGID_15_)"
           d="M 139.8,151 H 12 C 5.4,151 0,145.6 0,139 v 1 c 0,6.6 5.4,12 12,12 h 127.7 c 6.7,0 12.2,-5.5 12.2,-12.2 v -1 c 0.1,6.7 -5.4,12.2 -12.1,12.2 z"
           class="st9"
           inkscape:connector-curvature="0"
           style="opacity:0.2;fill:#bf360c;enable-background:new" />
      </g>
      <path
         id="path4855"
         d="M 127.7939,16.148812 H 104.754 c -5.613363,0 -10.221343,4.915668 -10.221343,10.903846 V 59.049187 H 61.020073 c -5.529576,0 -10.053775,4.826293 -10.053775,10.725094 V 105.52459 H 20.721191 c -5.529576,0 -10.053775,4.8263 -10.053775,10.7251 v 25.02522 c 0,5.8988 4.524199,10.72509 10.053775,10.72509 H 127.7939 c 5.61336,0 10.22134,-4.91567 10.22134,-10.90385 V 27.052658 c 0,-5.988178 -4.60798,-10.903846 -10.22134,-10.903846 z"
         class="st10"
         inkscape:connector-curvature="0"
         style="fill:url(#SVGID_16_);stroke-width:0.86533421" />
    </g>
  </g>
  <style
     id="style4767">.st0{fill:url(#SVGID_1_)}.st1{fill:url(#SVGID_2_)}.st2{clip-path:url(#SVGID_4_)}.st3{fill:#f57c00}.st4{fill:#ffc107}.st5{clip-path:url(#SVGID_6_);fill:url(#SVGID_7_)}.st6,.st7,.st8,.st9{opacity:.2;clip-path:url(#SVGID_9_);fill:#fff;enable-background:new}.st7,.st8,.st9{clip-path:url(#SVGID_11_)}.st8,.st9{clip-path:url(#SVGID_13_)}.st9{clip-path:url(#SVGID_15_);fill:#bf360c}.st10{fill:url(#SVGID_16_)}</style>
</svg>
