<?xml version="1.0" encoding="UTF-8" standalone="no"?>
<svg
   xmlns:osb="http://www.openswatchbook.org/uri/2009/osb"
   xmlns:dc="http://purl.org/dc/elements/1.1/"
   xmlns:cc="http://creativecommons.org/ns#"
   xmlns:rdf="http://www.w3.org/1999/02/22-rdf-syntax-ns#"
   xmlns:svg="http://www.w3.org/2000/svg"
   xmlns="http://www.w3.org/2000/svg"
   xmlns:sodipodi="http://sodipodi.sourceforge.net/DTD/sodipodi-0.dtd"
   xmlns:inkscape="http://www.inkscape.org/namespaces/inkscape"
   viewBox="0 0 48 48"
   id="svg2"
   version="1.1"
   inkscape:version="0.92.2 5c3e80d, 2017-08-06"
   sodipodi:docname="application-bookmarks.svg">
  <metadata
     id="metadata57">
    <rdf:RDF>
      <cc:Work
         rdf:about="">
        <dc:format>image/svg+xml</dc:format>
        <dc:type
           rdf:resource="http://purl.org/dc/dcmitype/StillImage" />
      </cc:Work>
    </rdf:RDF>
  </metadata>
  <sodipodi:namedview
     pagecolor="#ffffff"
     bordercolor="#666666"
     borderopacity="1"
     objecttolerance="10"
     gridtolerance="10"
     guidetolerance="10"
     inkscape:pageopacity="0"
     inkscape:pageshadow="2"
     inkscape:window-width="1920"
     inkscape:window-height="1037"
     id="namedview55"
     showgrid="false"
     inkscape:zoom="6.9532167"
     inkscape:cx="18.101417"
     inkscape:cy="47.743394"
     inkscape:window-x="0"
     inkscape:window-y="43"
     inkscape:window-maximized="0"
     inkscape:current-layer="svg2" />
  <defs
     id="defs4">
    <linearGradient
       id="linearGradient860"
       osb:paint="solid">
      <stop
         style="stop-color:#000000;stop-opacity:1;"
         offset="0"
         id="stop858" />
    </linearGradient>
    <linearGradient
       id="linearGradient3764"
       x1="1"
       x2="47"
       gradientUnits="userSpaceOnUse"
       gradientTransform="matrix(0,-1,1,0,-1.5e-6,47.999998)">
      <stop
         style="stop-color:#333;stop-opacity:1"
         id="stop7" />
      <stop
         offset="1"
         style="stop-color:#3d3d3d;stop-opacity:1"
         id="stop9" />
    </linearGradient>
  </defs>
  <g
     id="g11">
    <path
       d="m 36.31 5 c 5.859 4.062 9.688 10.831 9.688 18.5 c 0 12.426 -10.07 22.5 -22.5 22.5 c -7.669 0 -14.438 -3.828 -18.5 -9.688 c 1.037 1.822 2.306 3.499 3.781 4.969 c 4.085 3.712 9.514 5.969 15.469 5.969 c 12.703 0 23 -10.298 23 -23 c 0 -5.954 -2.256 -11.384 -5.969 -15.469 c -1.469 -1.475 -3.147 -2.744 -4.969 -3.781 z m 4.969 3.781 c 3.854 4.113 6.219 9.637 6.219 15.719 c 0 12.703 -10.297 23 -23 23 c -6.081 0 -11.606 -2.364 -15.719 -6.219 c 4.16 4.144 9.883 6.719 16.219 6.719 c 12.703 0 23 -10.298 23 -23 c 0 -6.335 -2.575 -12.06 -6.719 -16.219 z"
       style="opacity:0.05"
       id="path13" />
    <path
       d="m 41.28 8.781 c 3.712 4.085 5.969 9.514 5.969 15.469 c 0 12.703 -10.297 23 -23 23 c -5.954 0 -11.384 -2.256 -15.469 -5.969 c 4.113 3.854 9.637 6.219 15.719 6.219 c 12.703 0 23 -10.298 23 -23 c 0 -6.081 -2.364 -11.606 -6.219 -15.719 z"
       style="opacity:0.1"
       id="path15" />
    <path
       d="m 31.25 2.375 c 8.615 3.154 14.75 11.417 14.75 21.13 c 0 12.426 -10.07 22.5 -22.5 22.5 c -9.708 0 -17.971 -6.135 -21.12 -14.75 a 23 23 0 0 0 44.875 -7 a 23 23 0 0 0 -16 -21.875 z"
       style="opacity:0.2"
       id="path17" />
  </g>
  <g
     id="g19"
     style="fill:#e6e6e6;fill-opacity:1;stroke:#818181;stroke-opacity:1;stroke-width:0.2;stroke-miterlimit:4;stroke-dasharray:none">
    <path
       d="m 24 1 c 12.703 0 23 10.297 23 23 c 0 12.703 -10.297 23 -23 23 -12.703 0 -23 -10.297 -23 -23 0 -12.703 10.297 -23 23 -23 z"
       style="fill:#e6e6e6;fill-opacity:1;stroke:#818181;stroke-opacity:1;stroke-width:0.2;stroke-miterlimit:4;stroke-dasharray:none"
       id="path21" />
  </g>
  <g
     id="g51"
     style="stroke-width:0.1;stroke-miterlimit:4;stroke-dasharray:none;stroke:#000000;stroke-opacity:1;fill-opacity:1;fill:#000000">
    <path
       d="m 40.03 7.531 c 3.712 4.084 5.969 9.514 5.969 15.469 0 12.703 -10.297 23 -23 23 c -5.954 0 -11.384 -2.256 -15.469 -5.969 4.178 4.291 10.01 6.969 16.469 6.969 c 12.703 0 23 -10.298 23 -23 0 -6.462 -2.677 -12.291 -6.969 -16.469 z"
       style="opacity:0.1;stroke-width:0.1;stroke-miterlimit:4;stroke-dasharray:none;stroke:#000000;stroke-opacity:1;fill-opacity:1;fill:#000000"
       id="path53" />
  </g>
  <path
     d="m 26.271325,39.680928 c 0,-0.0139 0.06891,-0.149978 0.153135,-0.302332 0.386871,-0.699797 0.464976,-2.000125 0.181707,-3.025389 -0.177216,-0.641412 -0.34367,-1.646069 -0.324092,-1.956028 l 0.01983,-0.314061 -1.192831,-0.304898 c -1.4324,-0.366121 -1.320611,-0.35898 -1.405942,-0.08987 -0.05876,0.185278 -0.04428,0.327243 0.09257,0.907003 0.292301,1.238303 0.33465,1.50725 0.333737,2.119397 -0.0011,0.675587 -0.102171,1.207408 -0.332935,1.750326 -0.17873,0.42053 -0.24834,0.413282 0.670072,0.06967 0.33632,-0.125825 0.658206,-0.228775 0.715324,-0.228775 0.114082,0 0.967113,1.135304 0.967113,1.287121 0,0.136411 -0.12712,0.01264 -0.325029,-0.316494 -0.121041,-0.201285 -0.287067,-0.451331 -0.368947,-0.555626 l -0.148869,-0.189664 -0.327925,0.141093 c -0.345898,0.148835 -1.516446,0.571052 -1.750181,0.631295 -0.223343,0.05757 -0.164392,-0.09139 0.196807,-0.497324 0.31694,-0.356198 0.378208,-0.48761 0.485522,-1.041423 0.03595,-0.185531 0.02953,-0.182371 -0.226567,0.111386 -0.337114,0.386696 -0.362392,0.382279 -0.579916,-0.101357 -0.322527,-0.717124 -0.498518,-0.821173 -0.999915,-0.591128 -1.098085,0.503801 -1.484851,0.554773 -1.201778,0.158389 0.185068,-0.259152 0.293604,-0.578338 0.286923,-0.843847 l -0.0049,-0.197361 -0.0723,0.169271 c -0.03976,0.0931 -0.116788,0.221988 -0.17117,0.286414 -0.05438,0.06443 -0.147293,0.2174 -0.206476,0.33992 -0.428402,0.886926 -0.683536,0.961299 -1.029835,0.300253 -0.305147,-0.582471 -0.555481,-0.901701 -0.668907,-0.853035 -1.740607,0.746553 -1.82726,0.770523 -1.593721,0.440644 0.179469,-0.25354 0.241353,-0.389394 0.34753,-0.762997 0.124968,-0.439715 0.08536,-0.422508 -0.119204,0.05176 -0.218046,0.505545 -1.620883,2.41462 -1.774345,2.41462 -0.04355,0 -0.09726,-0.107379 -0.119391,-0.238683 -0.02212,-0.131273 -0.0838,-0.310288 -0.137061,-0.397799 -0.05326,-0.08752 -0.117108,-0.313259 -0.141877,-0.501665 -0.06728,-0.511656 -0.04645,-0.509349 -1.205945,-0.134274 -0.967579,0.312993 -1.233179,0.354599 -1.233179,0.193183 0,-0.03564 0.106084,-0.134527 0.235744,-0.219693 0.287144,-0.188622 0.658181,-0.627289 0.785496,-0.928787 0.428478,-1.014496 0.532641,-1.868663 0.149129,-1.223036 -0.184185,0.310092 -0.611238,0.690166 -0.645596,0.574616 -0.01368,-0.04594 -0.03953,-0.172627 -0.05748,-0.281504 -0.13535,-0.820889 -0.415601,-0.938095 -1.439951,-0.602061 -1.101469,0.361324 -1.216915,0.345494 -0.859058,-0.117831 0.195367,-0.252959 0.366142,-0.73571 0.35999,-1.017656 -0.0033,-0.152803 -0.0089,-0.156076 -0.07647,-0.04462 -0.51945,0.857491 -1.03999,1.38595 -1.151118,1.168582 C 9.9522369,34.12099 9.7331704,34.004997 9.0559005,34.2267 c -0.7313931,0.239448 -1.325085,0.391544 -1.3829462,0.354322 -0.1086944,-0.0699 -0.06029,-0.216407 0.1164216,-0.352344 0.5050147,-0.388503 0.6497594,-1.607412 0.3816457,-3.213972 -0.2027148,-1.214619 -0.3798808,-1.555954 -0.8076598,-1.555954 -0.4782827,0 -0.9731042,-1.156803 -1.2523229,-2.927812 -0.1915323,-1.221866 -0.08,-1.61741 0.7542344,-2.669639 C 8.99152,21.179112 16.633674,11.717569 16.789704,11.57384 c 0.01902,-0.0175 0.335791,-0.404169 0.703925,-0.859272 0.368144,-0.455098 0.909603,-1.0995114 1.203218,-1.4321074 0.293621,-0.332558 0.658905,-0.772223 0.811706,-0.977003 0.676494,-0.906599 0.773691,-0.978134 1.151781,-0.847652 0.142815,0.04929 0.452369,0.124714 0.687853,0.167603 0.235513,0.04291 0.827348,0.158263 1.315204,0.256397 0.487857,0.09813 1.244854,0.242431 1.682204,0.320665 0.437388,0.07823 1.11178,0.211175 1.498703,0.295444 0.386907,0.08427 0.923689,0.19774 1.192829,0.252156 0.269154,0.05441 0.668284,0.135697 0.886998,0.180621 0.218687,0.04493 0.961939,0.188387 1.65162,0.318807 1.35886,0.256965 2.44609,0.481822 4.771556,0.9867674 0.824273,0.179003 1.691387,0.364104 1.92691,0.411335 0.235511,0.04721 0.689722,0.147166 1.00933,0.22207 0.31962,0.0749 1.023299,0.231466 1.563761,0.34792 1.353141,0.29157 1.573761,0.535827 1.155128,1.279108 -0.308076,0.546968 -0.330449,2.080166 -0.04329,2.966524 0.117812,0.36363 0.148053,0.388864 0.597075,0.498259 0.649801,0.158338 0.656532,0.458459 0.0322,1.436151 -0.245901,0.385078 -0.479997,0.72879 -0.52019,0.763767 -0.0402,0.03501 -1.286604,1.954013 -2.769784,4.264376 -1.483177,2.310451 -3.499426,5.446562 -4.480507,6.969643 -0.98112,1.522796 -1.990955,3.112432 -2.244066,3.532514 -1.732282,2.874697 -2.440136,3.821986 -2.544803,3.405507 -0.01755,-0.06984 -0.06893,-0.138445 -0.114187,-0.152462 -0.643223,-0.199238 -0.796957,-0.239302 -0.821239,-0.214044 -0.05072,0.05277 0.118604,0.149011 0.478985,0.272252 0.381916,0.130609 0.478634,0.260157 0.145684,0.195168 l -0.206052,-0.04019 -0.04333,0.335471 c -0.02383,0.184501 -0.05682,0.450042 -0.07332,0.590079 -0.09874,0.837939 -0.535132,2.092591 -0.802484,2.307248 -0.09161,0.07356 -0.320391,0.112283 -0.320391,0.05422 z M 16.037559,38.281335 c 0.02691,-0.04853 0.194258,-0.251518 0.3719,-0.451135 0.602835,-0.677413 0.990614,-1.896481 0.901508,-2.834051 -0.06619,-0.696441 -0.267732,-2.215508 -0.408011,-3.075224 -0.142644,-0.874211 -0.117742,-1.32474 0.09811,-1.774939 0.115004,-0.239866 0.157902,-0.199921 -0.394626,-0.367467 -0.252333,-0.07652 -0.796841,-0.255025 -1.209991,-0.396693 -0.877851,-0.301018 -0.865789,-0.304702 -1.148393,0.350562 -0.23875,0.553566 -0.23449,1.088824 0.01757,2.208627 0.574937,2.554127 0.461747,3.967857 -0.405094,5.059108 -0.321309,0.404574 -0.332113,0.402684 0.576104,0.100579 1.000382,-0.332766 1.19108,-0.256497 1.19108,0.476356 0,0.134799 0.051,0.298642 0.122341,0.393009 0.06729,0.08901 0.122342,0.215258 0.122342,0.28055 0,0.139292 0.0951,0.156866 0.165181,0.03052 z m 7.510054,-0.626321 c 0.137204,-0.480729 0.114859,-1.292025 -0.06273,-2.277047 -0.306735,-1.701414 -0.331024,-1.886762 -0.329485,-2.514132 8.33e-4,-0.389982 0.0357,-0.735096 0.08971,-0.891091 0.117373,-0.338991 0.118909,-0.333569 -0.108817,-0.383852 -0.109345,-0.02414 -0.590228,-0.169631 -1.068667,-0.3233 -1.062909,-0.341411 -0.961199,-0.346227 -1.156801,0.05473 -0.271831,0.557244 -0.261853,0.930846 0.07095,2.657329 0.348467,1.807731 0.39984,2.483445 0.228588,3.00741 -0.06578,0.201286 -0.1139,0.365982 -0.106929,0.365982 0.06033,0 0.944468,-0.409149 1.09933,-0.508749 0.341305,-0.219479 0.669916,0.05056 0.984894,0.809394 0.188599,0.454332 0.23113,0.454737 0.359971,0.0032 z M 20.325811,37.36697 c 0.212314,-0.471376 0.215166,-1.550286 0.007,-2.657329 -0.205489,-1.092913 -0.220742,-2.425629 -0.03315,-2.895994 0.02905,-0.07286 -0.05249,-0.124195 -0.344267,-0.216729 -0.210285,-0.0667 -0.74902,-0.244959 -1.197186,-0.396144 l -0.814802,-0.274887 -0.147918,0.173372 c -0.377168,0.442067 -0.409724,1.024538 -0.122209,2.186402 0.390853,1.579513 0.427079,2.422918 0.136136,3.172309 -0.200798,0.517248 -0.24047,0.509918 0.575443,0.106235 0.693106,-0.342928 0.851744,-0.375783 0.851744,-0.17638 0,0.05782 0.05306,0.139658 0.117913,0.181796 0.06485,0.04215 0.24601,0.321132 0.402564,0.619964 0.337449,0.644129 0.355877,0.649879 0.56871,0.177372 z m 8.064524,-1.499756 c 0.05476,-0.11155 0.504197,-0.832959 0.998747,-1.603078 1.572749,-2.448991 3.550942,-5.511747 4.070005,-6.301222 3.189857,-4.851826 7.248577,-11.245753 7.24741,-11.417009 l -0.0013,-0.166964 -0.121972,0.159122 c -0.06708,0.08752 -0.525248,0.789229 -1.018125,1.559392 -0.492874,0.770163 -1.183063,1.844213 -1.533761,2.386802 -0.350668,0.542595 -1.417264,2.203849 -2.370174,3.691623 -4.208914,6.571263 -7.532623,11.603248 -7.638459,11.563979 -0.128574,-0.04746 -0.05819,-0.201354 0.398479,-0.871134 0.250575,-0.367517 0.672681,-0.997572 0.937971,-1.400162 0.265321,-0.402577 0.747541,-1.132959 1.071585,-1.623041 0.324049,-0.490081 1.010614,-1.549836 1.525707,-2.354984 0.515093,-0.805141 0.995052,-1.549836 1.066607,-1.654858 0.07155,-0.105016 0.907463,-1.40822 1.857572,-2.895994 0.950108,-1.487774 2.162433,-3.363805 2.694063,-4.168826 1.035087,-1.567695 2.493831,-3.814984 2.642973,-4.071665 0.296286,-0.510038 -0.07406,-0.270287 -0.401823,0.260112 -0.70132,1.134861 -3.57935,5.618627 -4.182847,6.516606 -0.341155,0.507611 -1.022247,1.553035 -1.513565,2.32316 -1.024505,1.605953 -3.22336,5.057496 -4.440431,6.969643 -1.27314,2.000523 -1.821269,2.83024 -1.885705,2.854456 -0.147606,0.05542 -0.740461,-0.850773 -0.870576,-1.330775 -0.0199,-0.0734 -0.08456,-0.09238 -0.247391,-0.07259 -0.263709,0.03204 -0.272301,0.09425 -0.07482,0.541938 0.0801,0.181588 0.175142,0.407291 0.211216,0.501583 0.0595,0.155507 0.683069,0.4332 0.972755,0.4332 0.03431,0 0.09665,0.04297 0.138531,0.09547 0.10926,0.136979 -0.07693,0.126678 -0.560385,-0.03103 -0.383809,-0.125181 -0.593495,-0.161834 -0.526375,-0.09201 0.07099,0.07387 1.096644,0.337854 1.181313,0.304045 0.04837,-0.01934 0.104826,0.01068 0.125462,0.06659 0.04865,0.131904 0.123936,0.07955 0.247476,-0.172096 z M 13.885396,35.329965 c 0.166755,-0.344559 0.198645,-1.721339 0.06166,-2.661538 -0.05577,-0.382759 -0.112685,-1.096926 -0.126473,-1.587007 l -0.02507,-0.891091 -1.082561,-0.373881 c -1.032559,-0.356622 -1.086333,-0.368464 -1.16497,-0.256561 -0.242929,0.345677 -0.251383,1.201664 -0.02007,2.030692 0.272962,0.978299 0.28946,2.207894 0.03743,2.789392 -0.251133,0.579437 -0.25137,0.579355 0.716182,0.230316 l 0.715715,-0.258191 0.151138,0.178624 c 0.08313,0.09825 0.241423,0.371953 0.351771,0.60826 0.234325,0.501741 0.234734,0.501943 0.385245,0.19096 z m 14.290933,-0.672472 c 0.223391,-0.356597 1.003416,-1.564896 1.733409,-2.685102 0.729994,-1.120201 2.25578,-3.48316 3.390634,-5.251016 2.19862,-3.424901 4.158331,-6.46073 4.910074,-7.606075 1.033571,-1.575064 1.776913,-2.831744 1.737769,-2.93786 -0.03639,-0.09866 -0.611123,0.760166 -1.751347,2.61717 -0.149641,0.243701 -0.652952,1.031337 -1.118474,1.750326 -0.46552,0.718988 -1.47026,2.289799 -2.232743,3.49073 -1.40668,2.215464 -4.609301,7.223891 -6.261039,9.790695 -0.498398,0.774574 -0.906177,1.426198 -0.906177,1.448018 0,0.128872 0.137551,-0.04152 0.497932,-0.616759 z m -0.01296,-0.555304 c 0.317197,-0.488785 0.599334,-0.888664 0.626999,-0.888664 0.02766,0 0.05029,-0.02812 0.05029,-0.06244 0,-0.03431 0.584939,-0.964213 1.299913,-2.066403 1.593721,-2.456922 1.630141,-2.513727 2.460136,-3.83575 0.979641,-1.560447 3.02009,-4.738462 4.08868,-6.368423 2.482157,-3.785473 3.269856,-5.106889 3.044138,-5.106889 -0.03118,0 -0.06559,-0.04721 -0.07647,-0.104946 -0.01237,-0.06557 -0.157479,0.107487 -0.386807,0.461259 -0.201866,0.311419 -0.646182,0.972105 -0.987385,1.468177 -0.341192,0.496079 -0.960148,1.44134 -1.375474,2.100572 -1.210731,1.921821 -2.741885,4.288263 -3.019974,4.667616 -0.269128,0.366986 -2.069244,3.14789 -2.533871,3.914369 -0.250902,0.413933 -2.53282,3.999119 -3.139663,4.932803 -0.14789,0.227542 -0.365487,0.571254 -0.483537,0.763761 -0.118057,0.192539 -0.263827,0.428828 -0.323926,0.525104 -0.0601,0.09627 -0.09613,0.175034 -0.08007,0.175034 0.06691,0 1.513527,-2.132308 2.418152,-3.564338 0.903611,-1.430445 2.959935,-4.637656 3.958331,-6.174089 0.557467,-0.857655 2.023175,-3.134702 3.257133,-5.059924 1.233999,-1.925385 2.279398,-3.538707 2.323132,-3.585186 0.04375,-0.04651 0.109116,-0.142028 0.145269,-0.212306 0.03615,-0.07028 0.07918,-0.113793 0.09562,-0.09669 0.04224,0.04392 -5.017855,8.055877 -6.478933,10.259114 -0.116105,0.175034 -0.692989,1.077254 -1.281974,2.004947 -0.588982,0.927692 -1.287926,2.028379 -1.553217,2.445989 -0.265301,0.417617 -0.543148,0.875912 -0.617465,1.018383 -0.07431,0.142483 -0.322053,0.537773 -0.55054,0.87842 -0.842989,1.256763 -1.547109,2.334901 -1.547109,2.36895 0,0.129977 0.162152,-0.07826 0.668478,-0.858458 z m -17.460561,0.429965 c 0.576764,-0.84494 0.5898,-1.678221 0.05989,-3.832394 -0.298172,-1.212147 -0.41132,-2.645505 -0.242088,-3.066964 0.05091,-0.126774 0.08532,-0.236971 0.07647,-0.244877 -0.06312,-0.05637 -2.301887,-0.793001 -2.4111075,-0.793323 -0.3465932,-6.32e-4 -0.3425425,1.990487 0.00732,3.595954 0.3941594,1.808869 0.3626347,3.395187 -0.078148,3.930288 -0.1437969,0.174567 0.072754,0.146041 0.8294874,-0.109281 l 0.6540023,-0.220667 0.1533787,0.141106 c 0.2196529,0.202062 0.4134981,0.428341 0.5702691,0.665747 0.169298,0.256353 0.159562,0.258034 0.380499,-0.06563 z m 17.13293,-1.159191 c 0.294465,-0.420087 1.264115,-1.909479 2.154769,-3.309724 2.854256,-4.487449 3.273902,-5.140893 3.800941,-5.919436 0.885401,-1.307734 1.199213,-1.787048 2.479708,-3.787084 0.683574,-1.067699 1.362751,-2.116851 1.509248,-2.331419 0.146523,-0.214588 0.472874,-0.695512 0.725207,-1.06871 0.252333,-0.373198 0.564315,-0.826678 0.693341,-1.007735 0.306289,-0.429876 0.42237,-0.667125 0.349433,-0.714008 -0.03183,-0.02048 -0.09066,0.02806 -0.130734,0.107777 -0.108887,0.216704 -1.115711,1.77688 -1.54882,2.400079 -0.796959,1.146723 -1.446136,2.109191 -2.085159,3.091383 -0.62159,0.955384 -0.961237,1.476519 -2.405931,3.691623 -0.738711,1.132631 -4.009307,6.237656 -4.327592,6.755062 -0.132064,0.214619 -0.586532,0.93065 -1.009953,1.591216 -1.083026,1.689641 -1.146215,1.844454 -0.204392,0.50085 z m -1.085359,0.04556 -0.0725,-0.642916 -0.279732,-0.06348 c -0.153852,-0.03488 -0.424238,-0.09669 -0.60089,-0.137289 -0.176634,-0.04063 -0.32115,-0.0996 -0.32115,-0.131114 0,-0.07645 -0.0035,-0.07689 0.625209,0.07671 0.61085,0.149226 0.642212,0.137826 0.66731,-0.242684 0.02292,-0.347263 0.06243,-0.321973 -0.878008,-0.561983 -1.504424,-0.383922 -2.451926,-0.660004 -2.51924,-0.73401 -0.04975,-0.05473 -0.03556,-0.0645 0.05546,-0.03817 1.104232,0.319508 3.399739,0.886275 3.436157,0.848422 0.01782,-0.01852 -0.08738,-0.06632 -0.233764,-0.106185 -0.267267,-0.07278 -1.615979,-0.48093 -3.722343,-1.126437 C 22.28448,30.368649 21.582541,30.155762 21.347017,30.086318 21.111509,30.016874 20.258155,29.734543 19.45069,29.45891 18.643227,29.18329 17.445804,28.796562 16.78974,28.599555 16.133674,28.402529 14.564623,27.88765 13.30296,27.455385 12.041297,27.02312 10.609869,26.536925 10.122053,26.374978 7.1035163,25.372874 7.0762409,25.360564 7.3684956,25.13117 c 0.1809321,-0.142003 0.3007592,-0.115221 1.8359773,0.410407 2.0912661,0.715993 4.7742791,1.606761 5.6583191,1.878546 0.471008,0.144821 1.159212,0.360363 1.529286,0.478984 0.370085,0.118615 1.237189,0.391152 1.92691,0.605632 0.689722,0.21448 1.666913,0.528257 2.171577,0.697288 0.504666,0.169024 1.330495,0.426925 1.835161,0.573118 0.504663,0.146186 1.302944,0.380067 1.773953,0.519719 0.471008,0.139646 1.200496,0.354328 1.621036,0.477045 0.420542,0.122728 0.886297,0.264024 1.035011,0.313991 0.266805,0.08966 0.387349,0.07703 0.276117,-0.02894 -0.0314,-0.02989 -0.428714,-0.160645 -0.882912,-0.290521 C 25.694733,30.636554 24.868902,30.386363 24.31377,30.210443 23.758639,30.034524 23.001641,29.806464 22.631567,29.703641 22.26148,29.600818 21.793519,29.463163 21.591654,29.397744 21.389786,29.332326 20.88053,29.173147 20.45999,29.044017 19.019225,28.601628 16.575663,27.814579 16.239012,27.684539 16.053967,27.613029 14.994159,27.265348 13.883897,26.911867 11.349483,26.105026 9.9757569,25.655471 8.806507,25.250164 8.3018409,25.075231 7.8134413,24.912298 7.7211459,24.888088 l -0.1677834,-0.04405 0.1677834,-0.261635 c 0.092281,-0.143899 0.5256375,-0.699355 0.9630284,-1.234335 2.1590477,-2.640888 3.0314527,-3.714287 3.3926557,-4.174491 0.217395,-0.276934 0.577778,-0.718344 0.800889,-0.980896 0.223091,-0.262545 0.719643,-0.867121 1.103453,-1.343439 0.383798,-0.476355 1.138902,-1.392876 1.678001,-2.036765 0.5391,-0.643844 1.252092,-1.514372 1.584462,-1.934453 0.332359,-0.420082 0.734118,-0.907004 0.892834,-1.082025 0.158698,-0.175035 0.419374,-0.490082 0.579293,-0.700126 0.293267,-0.385211 1.308006,-1.6459104 2.193212,-2.7248584 l 0.479841,-0.584859 -0.325889,-0.076 c -0.272169,-0.06348 -0.341978,-0.06086 -0.423497,0.01593 -0.05369,0.05055 -0.124375,0.09192 -0.157079,0.09192 -0.0327,0 -0.119641,0.128884 -0.193194,0.28642 -0.07356,0.15753 -0.15986,0.286414 -0.191789,0.286414 -0.03193,0 -0.119937,0.11457 -0.195575,0.254595 -0.07564,0.140032 -0.166863,0.254817 -0.202723,0.255089 -0.03585,3.48e-4 -0.127958,0.114836 -0.204662,0.254596 -0.07671,0.139753 -0.186812,0.255442 -0.244688,0.257072 -0.06146,0.0019 -0.15736,0.114255 -0.230558,0.270508 -0.06893,0.147141 -0.179041,0.29279 -0.244686,0.3236544 -0.06564,0.0309 -0.160641,0.145441 -0.211107,0.254596 -0.05047,0.109161 -0.154844,0.227112 -0.231944,0.262122 -0.07711,0.03501 -0.15513,0.125376 -0.173395,0.200817 -0.03467,0.143198 -0.327967,0.469841 -0.329722,0.367201 -6.4e-4,-0.03235 -0.06301,0.05574 -0.138804,0.195762 -0.07579,0.140025 -0.196223,0.281529 -0.267632,0.314453 -0.07141,0.03292 -0.176516,0.169954 -0.233575,0.304513 -0.05706,0.134558 -0.172659,0.291639 -0.256897,0.349064 -0.08423,0.05744 -0.178503,0.173789 -0.209482,0.258577 -0.03098,0.08479 -0.11105,0.16905 -0.177937,0.187249 -0.06688,0.0182 -0.121608,0.07051 -0.121608,0.116252 0,0.119999 -0.301187,0.47482 -0.403068,0.47482 -0.04747,0 -0.08632,0.04582 -0.08632,0.101761 0,0.05599 -0.07849,0.178055 -0.174429,0.271298 -0.09594,0.09325 -0.22217,0.265591 -0.280512,0.382993 -0.05835,0.117395 -0.157867,0.227536 -0.221159,0.244756 -0.06329,0.01719 -0.133006,0.09267 -0.154919,0.167654 -0.05218,0.178522 -0.211556,0.364906 -0.276389,0.323211 -0.02813,-0.01807 -0.09186,0.06851 -0.141633,0.192445 -0.04977,0.123935 -0.126302,0.226076 -0.170071,0.226979 -0.04378,6.32e-4 -0.130027,0.115468 -0.191675,0.254596 -0.06165,0.139128 -0.144229,0.253572 -0.183517,0.25433 -0.03928,6.32e-4 -0.112715,0.09384 -0.163181,0.206859 -0.05519,0.123595 -0.133672,0.202082 -0.19694,0.196963 -0.05849,-0.0044 -0.123155,0.05176 -0.14566,0.127298 -0.06619,0.222082 -0.277383,0.496192 -0.357622,0.464165 -0.04244,-0.01694 -0.105499,0.05896 -0.146152,0.175964 -0.07051,0.20289 -0.374675,0.559961 -0.379577,0.445586 -0.0013,-0.03235 -0.06332,0.07006 -0.137637,0.227593 -0.07431,0.15753 -0.176404,0.286414 -0.22687,0.286414 -0.05047,0 -0.139712,0.110027 -0.198326,0.24451 -0.05861,0.134483 -0.161839,0.25955 -0.229391,0.277933 -0.06756,0.01839 -0.122827,0.07085 -0.122827,0.116586 0,0.13952 -0.318087,0.493564 -0.367977,0.409598 -0.02697,-0.04544 -0.06089,-0.0038 -0.08748,0.10693 -0.0598,0.24925 -0.222793,0.433927 -0.287556,0.325796 -0.03221,-0.05378 -0.06218,-0.01068 -0.08905,0.128075 -0.02228,0.115026 -0.09377,0.247967 -0.158884,0.295419 -0.06511,0.04746 -0.167486,0.182473 -0.227493,0.300045 -0.06001,0.117572 -0.182025,0.251133 -0.271145,0.296803 -0.08912,0.04569 -0.162171,0.117275 -0.162338,0.159122 -6.41e-4,0.167868 -0.2985878,0.464292 -0.3643422,0.362506 -0.05326,-0.08243 -0.061809,-0.08067 -0.062623,0.01289 -0.00147,0.173107 -0.1332352,0.427324 -0.2396547,0.462466 -0.053792,0.01776 -0.1361004,0.122305 -0.1828969,0.232307 -0.0468,0.110008 -0.132167,0.212818 -0.1897072,0.228477 -0.057541,0.01567 -0.1495439,0.126483 -0.2044451,0.24628 -0.054907,0.119796 -0.1415592,0.21781 -0.1925705,0.21781 -0.051011,0 -0.092747,0.04089 -0.092747,0.09085 0,0.04999 -0.068816,0.147179 -0.1529289,0.216016 -0.084111,0.06884 -0.1529295,0.154762 -0.1529295,0.190947 0,0.03615 -0.067663,0.121161 -0.1503635,0.188848 -0.082699,0.06768 -0.1834661,0.19865 -0.2239196,0.291033 -0.040456,0.09238 -0.1070897,0.16797 -0.1480745,0.16797 -0.040982,0 -0.1087219,0.08593 -0.1505308,0.190946 -0.041808,0.105022 -0.1139647,0.190954 -0.1603498,0.190954 -0.046384,0 -0.084334,0.04405 -0.084334,0.09784 0,0.05384 -0.1226473,0.221873 -0.2725533,0.373463 -0.6772705,0.684864 -0.5444698,2.658549 0.3098296,4.604864 0.085269,0.194245 0.3297532,0.300424 0.3297532,0.14321 0,-0.03501 -0.041296,-0.06364 -0.091758,-0.06364 -0.050466,0 -0.091758,-0.03943 -0.091758,-0.08768 0,-0.04822 -0.041289,-0.123336 -0.091758,-0.166914 -0.050466,-0.0436 -0.091756,-0.143829 -0.091756,-0.222771 0,-0.07894 -0.03845,-0.176741 -0.085444,-0.217318 -0.046993,-0.04057 -0.071073,-0.130957 -0.05351,-0.20083 0.017565,-0.06988 -0.011766,-0.177291 -0.065172,-0.23869 -0.055766,-0.06412 -0.082795,-0.168544 -0.063501,-0.245325 0.018488,-0.07352 0.00359,-0.152986 -0.033125,-0.176583 -0.037104,-0.02389 -0.050017,-0.112169 -0.029081,-0.198959 0.020712,-0.08582 0.00738,-0.19398 -0.029594,-0.240339 -0.07172,-0.08991 -0.2162295,-1.028582 -0.1705717,-1.107935 0.014957,-0.02597 0.0057,-0.19046 -0.020475,-0.365488 -0.054446,-0.363485 0.00807,-0.541016 0.1904774,-0.541016 0.116894,0 0.1224468,0.02597 0.085051,0.3978 -0.022006,0.218796 -0.00973,0.647737 0.027255,0.953204 0.062027,0.512142 0.1333185,0.817571 0.4126423,1.767773 l 0.1029025,0.350069 0.080277,-0.731943 c 0.044154,-0.402577 0.1049006,-0.806481 0.1349982,-0.89753 0.050447,-0.15262 0.033695,-0.176198 -0.2141878,-0.301505 -0.2133451,-0.107847 -0.3607839,-0.26489 -0.2486911,-0.26489 0.1980457,0 5.3606547,1.793481 5.2618247,1.827852 -0.03482,0.01207 -0.446067,-0.08192 -0.913923,-0.208881 -1.220846,-0.331319 -1.125906,-0.317448 -1.125906,-0.164525 0,0.111822 0.08411,0.158516 0.53525,0.297144 0.616375,0.189392 0.8247,0.274445 0.687971,0.280853 -0.07896,0.0038 -0.610036,-0.140221 -1.033494,-0.280057 -0.204375,-0.0675 -0.158136,0.315192 0.217014,1.796034 0.09831,0.388055 0.204962,0.527733 0.204962,0.268461 0,-0.07114 0.04032,-0.229742 0.0896,-0.352458 0.08677,-0.216085 0.08484,-0.225369 -0.06117,-0.294591 -0.18031,-0.08548 -0.197088,-0.17834 -0.03222,-0.17834 0.0652,0 0.650149,0.188299 1.29991,0.418464 0.649721,0.230146 1.22501,0.432752 1.278356,0.450244 0.07033,0.02307 0.126154,-0.04758 0.202919,-0.256751 0.05825,-0.158698 0.17287,-0.391214 0.254719,-0.516723 0.183768,-0.281763 0.186185,-0.26247 -0.03876,-0.309284 -0.103163,-0.02149 -0.171385,-0.06628 -0.151603,-0.09959 0.0427,-0.0719 0.132855,-0.04487 2.1015,0.629556 1.670493,0.57231 1.876056,0.665792 1.342128,0.610485 l -0.351734,-0.0364 v 0.22698 c 0,0.320722 0.129384,1.130811 0.192142,1.203042 0.03174,0.03653 0.05254,0.02256 0.05254,-0.03526 0,-0.711866 0.358218,-0.767167 1.795665,-0.277092 0.671784,0.229033 1.261586,0.408055 1.310691,0.397805 0.155508,-0.03242 0.348339,-0.6347 0.23164,-0.723481 -0.09251,-0.07039 -0.133295,-0.218038 -0.06023,-0.218038 0.0196,0 0.411864,0.128094 0.871705,0.284657 0.45984,0.156562 1.083764,0.359895 1.386563,0.451823 1.419095,0.430932 2.300526,0.753278 1.743372,0.637614 -0.117754,-0.02446 -0.337974,-0.06022 -0.489373,-0.07955 -0.1514,-0.01927 -0.392255,-0.057 -0.535249,-0.08377 -0.31882,-0.05965 -0.323029,-0.03059 -0.113097,0.781462 0.178617,0.69093 0.02795,0.583197 1.272208,0.909638 0.582097,0.152696 1.25104,0.331263 1.486563,0.396807 0.521747,0.145207 0.473186,0.213893 0.387278,-0.548055 z m -1.142364,-0.01611 c -0.944623,-0.244529 -1.13789,-0.315888 -0.855481,-0.315888 0.165237,0 1.871153,0.472672 1.931113,0.535057 0.06332,0.06589 -0.113776,0.02976 -1.075632,-0.219195 z m 0.143375,-0.315888 c -0.04373,-0.07363 0.115497,-0.07363 0.336444,0 0.137365,0.04575 0.129953,0.05157 -0.07285,0.05732 -0.124182,0.0038 -0.242796,-0.02231 -0.26359,-0.05732 z m -1.899907,-0.354638 c -0.112197,-0.09452 -0.107044,-0.09796 0.09345,-0.06243 0.267247,0.04733 0.393928,0.16249 0.178764,0.16249 -0.08441,0 -0.206904,-0.04499 -0.272211,-0.100042 z M 18.762811,30.60193 c -0.0757,-0.03166 -0.137637,-0.07281 -0.137637,-0.09144 0,-0.06991 0.225772,-0.03033 0.340043,0.05959 0.138583,0.109067 0.02495,0.12695 -0.202406,0.03185 z m 1.330494,-0.236421 c -0.1514,-0.05555 -0.238767,-0.113718 -0.194154,-0.129194 0.09995,-0.03463 0.613303,0.109938 0.658126,0.185379 0.0488,0.08215 -0.154039,0.05757 -0.463964,-0.05618 z m -1.896327,-0.684498 c -0.117755,-0.04721 -0.172808,-0.08668 -0.122342,-0.08776 0.05047,-0.0013 0.174338,0.03735 0.275272,0.08546 0.236246,0.112561 0.126359,0.11421 -0.15293,0.0025 z m 0.642292,-0.09547 c -0.168222,-0.06458 -0.264566,-0.117433 -0.2141,-0.117433 0.05047,0 0.229391,0.05283 0.397623,0.117433 0.16822,0.06459 0.264566,0.117433 0.214099,0.117433 -0.05047,0 -0.229392,-0.05283 -0.397622,-0.117433 z m -5.612406,-0.234825 c -0.05888,-0.01599 -0.107049,-0.05567 -0.107049,-0.08809 0,-0.09089 0.207489,-0.06986 0.340043,0.03444 0.129906,0.102235 0.03019,0.125181 -0.232994,0.05359 z m 4.175064,-0.218076 c -2.185704,-0.719235 -4.168448,-1.404902 -4.14199,-1.432353 0.01641,-0.01706 0.617895,0.168898 1.336642,0.413237 0.718749,0.244358 1.857338,0.629721 2.530214,0.856316 0.672873,0.226619 1.182129,0.412555 1.131663,0.413199 -0.05047,6.32e-4 -0.435833,-0.112043 -0.856414,-0.250431 z m -5.841977,-0.374538 c -0.02079,-0.03501 0.01725,-0.06364 0.08454,-0.06364 0.06729,0 0.139357,0.02863 0.16015,0.06364 0.02079,0.03501 -0.01725,0.06365 -0.08454,0.06365 -0.06729,0 -0.139356,-0.02863 -0.16015,-0.06365 z m 1.205945,-0.0718 c -0.110543,-0.03318 -0.185633,-0.08616 -0.16687,-0.117755 0.03799,-0.06396 0.377923,0.03988 0.432758,0.13217 0.04035,0.06794 0.0015,0.06583 -0.26588,-0.01441 z m 0.170402,-1.073885 c -0.111819,-0.0752 -0.01523,-0.0752 0.152929,0 0.08067,0.03608 0.09109,0.05593 0.03059,0.0582 -0.05047,0.0019 -0.133048,-0.02427 -0.183514,-0.0582 z M 9.633135,26.435083 C 9.4144498,26.353033 9.2645675,26.28367 9.3000718,26.28094 c 0.035502,-0.0025 0.2557186,0.0645 0.4893737,0.14941 0.2336505,0.08491 0.3835325,0.154281 0.3330675,0.154148 -0.05047,-1.2e-4 -0.2706839,-0.06736 -0.4893735,-0.149415 z M 7.9203099,26.172745 C 7.292027,25.961418 7.286774,25.959193 7.3241272,25.920348 c 0.050056,-0.05207 1.0855565,0.290812 1.0855565,0.359466 0,0.03286 -0.00689,0.05694 -0.015297,0.05353 -0.00841,-0.0032 -0.2217452,-0.07571 -0.4740827,-0.160588 z m 1.0093302,0.03956 c -0.077116,-0.0345 -0.088425,-0.05473 -0.030587,-0.05473 0.050466,0 0.146814,0.02465 0.2141,0.05473 0.077116,0.0345 0.088425,0.05473 0.030587,0.05473 -0.050466,0 -0.1468114,-0.02458 -0.2140981,-0.05473 z M 7.0639349,24.636191 c 0,-0.06161 0.053087,-0.146483 0.1179769,-0.188646 0.064885,-0.04215 0.2686033,-0.271026 0.4527198,-0.508585 0.7429108,-0.958626 1.3853954,-1.762509 1.9312667,-2.416358 0.3162706,-0.378847 0.7154027,-0.859677 0.8869967,-1.068501 0.171571,-0.208825 0.600967,-0.718705 0.954234,-1.133118 0.353265,-0.414413 0.870615,-1.045511 1.149678,-1.402475 0.27906,-0.356976 0.888086,-1.092995 1.353413,-1.635584 0.835209,-0.973932 1.380652,-1.645513 3.515224,-4.327942 2.371888,-2.9808504 3.362735,-4.2008094 3.41184,-4.2008094 0.0965,0 0.05162,0.172102 -0.08623,0.330662 -0.345653,0.397578 -0.528516,0.62332 -0.840537,1.037777 -0.312928,0.415626 -1.98936,2.5199204 -2.411653,3.0271654 -0.103767,0.124637 -0.408867,0.507896 -0.678049,0.851702 -0.269153,0.343807 -0.552523,0.700081 -0.629762,0.791744 -0.07721,0.09166 -0.297426,0.366619 -0.489373,0.611009 -0.480074,0.611256 -2.221228,2.758705 -2.369785,2.922756 -0.522176,0.576923 -4.5890672,5.606481 -5.6532602,6.991502 -0.3358726,0.437656 -0.6144306,0.581378 -0.6144306,0.317815 z m 20.4764831,8.523891 c 0.647233,-0.971094 1.152793,-1.747811 2.616632,-4.020282 1.907145,-2.96061 2.318698,-3.595266 3.425887,-5.282998 1.558819,-2.375876 3.202152,-4.829967 3.920978,-5.855472 0.526883,-0.75166 1.798428,-2.680894 2.008544,-3.047494 0.03148,-0.05492 0.02527,-0.07876 -0.01658,-0.06365 -0.03681,0.01333 -0.429335,0.582673 -0.872289,1.265306 -0.442953,0.682633 -1.056684,1.609802 -1.363842,2.060324 -0.307148,0.450572 -0.697736,1.023406 -0.867929,1.272959 -0.537779,0.78854 -0.943495,1.392351 -1.28859,1.917695 -0.18397,0.28005 -0.472445,0.709674 -0.641083,0.954733 -0.168618,0.245054 -1.162051,1.777373 -2.207607,3.405185 -1.045595,1.627818 -2.153991,3.331987 -2.463132,3.787091 -0.763495,1.123928 -1.092016,1.629151 -1.164737,1.791136 -0.06065,0.135121 -0.592213,0.949754 -1.269289,1.945222 -0.193454,0.284417 -0.351737,0.545831 -0.351737,0.580973 0,0.09015 0.0075,0.08016 0.534664,-0.710767 z m 0.09987,-0.764855 c 0.298534,-0.442711 0.562875,-0.819271 0.587388,-0.836763 0.02453,-0.0175 0.283002,-0.404169 0.574394,-0.859273 0.291374,-0.455103 0.825322,-1.263808 1.186564,-1.797165 0.929214,-1.371946 1.3375,-1.997085 2.110215,-3.231098 0.787155,-1.25704 3.570049,-5.447776 4.480118,-6.746562 1.276567,-1.821988 2.802274,-4.173686 2.859394,-4.407693 0.05878,-0.240718 -0.03261,-0.159394 -0.323755,0.288107 -1.02011,1.567898 -1.96874,3.001376 -4.725643,7.140893 -1.712904,2.571947 -3.137872,4.74049 -3.166626,4.819439 -0.0509,0.139298 -0.367917,0.648059 -0.999797,1.604575 -0.171062,0.258937 -0.594899,0.917696 -0.94186,1.463931 -0.346963,0.546236 -0.854779,1.308177 -1.128514,1.693237 -0.602758,0.84798 -1.208784,1.782068 -1.203841,1.855632 0.0019,0.02957 0.03639,6.32e-4 0.07647,-0.06415 0.04008,-0.06488 0.317123,-0.480205 0.615676,-0.922916 z m -0.255881,-0.136638 c 0.409024,-0.579475 1.043688,-1.497853 1.539483,-2.227692 0.427389,-0.629108 5.350928,-8.036849 5.631081,-8.472477 1.315943,-2.045384 3.016785,-4.666402 4.157552,-6.406484 0.396261,-0.604494 0.710696,-1.129635 0.69875,-1.16692 -0.01194,-0.03728 -0.542369,0.743723 -1.178747,1.735589 -0.636375,0.99186 -1.325551,2.046838 -1.531541,2.344412 -0.205972,0.297561 -0.811668,1.214088 -1.345944,2.036765 -0.534314,0.822671 -2.129669,3.242871 -3.545261,5.378136 -1.415592,2.13543 -2.706086,4.092722 -2.867758,4.349397 -0.161664,0.256719 -0.677232,1.012189 -1.145672,1.678872 -0.46844,0.666639 -0.851745,1.242835 -0.851745,1.280403 0,0.0874 0.02715,0.05466 0.439843,-0.530001 z m -0.243872,-0.191344 c 0.134089,-0.245193 0.0943,-0.244978 -0.07362,3.47e-4 -0.07187,0.105016 -0.108155,0.190764 -0.08063,0.190542 0.02752,-1.77e-4 0.09694,-0.08615 0.154248,-0.190953 z m 1.027462,-1.498018 c 0.739449,-1.076559 1.83516,-2.70717 2.43601,-3.625308 0.160373,-0.245047 0.650074,-0.975423 1.088202,-1.623041 0.438128,-0.647611 0.898942,-1.329025 1.024037,-1.514208 0.12509,-0.185183 0.510619,-0.77235 0.856685,-1.304777 1.192871,-1.835145 1.989868,-3.039355 3.041921,-4.595954 1.302714,-1.927616 2.747254,-4.149805 2.803205,-4.31215 0.103896,-0.301713 -0.0144,-0.191825 -0.308676,0.286736 -0.155957,0.253623 -0.538868,0.847816 -0.850927,1.320367 -0.31206,0.47259 -0.81976,1.245913 -1.128201,1.718508 -0.308446,0.472589 -0.760305,1.159994 -1.004116,1.527567 -0.243827,0.367574 -0.772989,1.169555 -1.175943,1.782151 -0.402915,0.612627 -1.128862,1.715341 -1.613216,2.450489 -0.484315,0.735141 -1.086919,1.651655 -1.339134,2.036758 -0.252182,0.385072 -0.673419,1.018869 -0.936061,1.408422 -0.677777,1.005263 -1.310107,1.948584 -2.383871,3.556161 -0.514393,0.770157 -1.032521,1.536313 -1.151392,1.702589 -0.118867,0.166282 -0.195209,0.301587 -0.169649,0.300677 0.02556,-6.32e-4 0.390582,-0.502588 0.811122,-1.114855 z m -1.077152,0.79769 c -0.03394,-0.03533 -0.817112,-0.29152 -1.740335,-0.569352 -0.923221,-0.277813 -1.816249,-0.549351 -1.984459,-0.6034 -0.334818,-0.107594 -0.513963,-0.127317 -0.283147,-0.03115 0.07978,0.03324 0.61657,0.205955 1.19283,0.383833 0.576298,0.177885 1.419404,0.446724 1.873603,0.597493 0.872483,0.289541 1.04501,0.330339 0.94147,0.222606 z m 0.791785,-0.846394 c 0.263589,-0.39184 0.819253,-1.227977 1.234814,-1.858103 0.415561,-0.630119 0.943144,-1.423803 1.172364,-1.763767 0.229251,-0.339952 0.719604,-1.075345 1.089718,-1.634207 1.048669,-1.583563 1.382012,-2.084577 1.902281,-2.858993 1.553915,-2.312998 2.616827,-3.928626 3.955608,-6.012957 0.647154,-1.007412 1.529482,-2.370612 1.960763,-3.029314 0.741666,-1.132757 0.781315,-1.20907 0.731629,-1.408586 l -0.05254,-0.210966 -0.187246,0.2488 c -0.20926,0.27806 -0.888632,1.308057 -1.654461,2.508343 -0.279198,0.437574 -0.714898,1.110652 -0.968203,1.49575 -0.253313,0.385078 -0.870809,1.33025 -1.372206,2.100407 -0.501397,0.770163 -1.132636,1.729636 -1.402712,2.132232 -0.270087,0.402577 -0.803691,1.204533 -1.185788,1.782144 -0.382089,0.577611 -0.871977,1.304133 -1.088668,1.614453 -0.481009,0.688908 -0.817425,1.199439 -2.920676,4.43199 -0.896296,1.377615 -1.726562,2.60328 -1.791931,2.645303 -0.09888,0.06359 -0.04631,0.54312 0.05848,0.533528 0.02163,-0.0019 0.255,-0.324217 0.518596,-0.716038 z M 7.8578943,29.505945 c -0.00192,-0.171761 -0.1107188,-0.275342 -0.1953222,-0.186131 -0.064673,0.06819 -0.057464,0.09987 0.039732,0.174503 0.1449056,0.111279 0.1567765,0.11217 0.1555954,0.01163 z M 20.207984,29.238186 c -0.05341,-0.05561 -3.618684,-1.184898 -3.676933,-1.164695 -0.03224,0.01119 0.198629,0.101053 0.513031,0.199718 0.314418,0.09866 1.122208,0.359643 1.795081,0.579956 1.14077,0.373507 1.438121,0.457125 1.368821,0.38504 z m -4.824862,-1.498378 c 0,-0.03501 -0.02065,-0.05909 -0.04588,-0.05353 -0.02524,0.0057 -0.08717,-0.0085 -0.137636,-0.03141 -0.05047,-0.02281 -0.449608,-0.153105 -0.886997,-0.289541 -0.437391,-0.136435 -1.534578,-0.496318 -2.438267,-0.799674 -0.903651,-0.303394 -1.656601,-0.53749 -1.673217,-0.520206 -0.0166,0.01725 0.543847,0.221659 1.245438,0.454174 0.701588,0.232522 1.853682,0.618018 2.560211,0.856638 1.448355,0.48919 1.376371,0.469152 1.376371,0.383549 z"
     id="path3428"
     inkscape:connector-curvature="0"
     style="stroke-width:0.0396902;fill:#666666" />
</svg>
