<?xml version="1.0" encoding="UTF-8" standalone="no"?>
<svg
   xmlns:dc="http://purl.org/dc/elements/1.1/"
   xmlns:cc="http://creativecommons.org/ns#"
   xmlns:rdf="http://www.w3.org/1999/02/22-rdf-syntax-ns#"
   xmlns:svg="http://www.w3.org/2000/svg"
   xmlns="http://www.w3.org/2000/svg"
   xmlns:sodipodi="http://sodipodi.sourceforge.net/DTD/sodipodi-0.dtd"
   xmlns:inkscape="http://www.inkscape.org/namespaces/inkscape"
   viewBox="0 0 48 48"
   id="svg2"
   version="1.1"
   inkscape:version="0.92.2 5c3e80d, 2017-08-06"
   sodipodi:docname="applications-science.svg">
  <metadata
     id="metadata49">
    <rdf:RDF>
      <cc:Work
         rdf:about="">
        <dc:format>image/svg+xml</dc:format>
        <dc:type
           rdf:resource="http://purl.org/dc/dcmitype/StillImage" />
      </cc:Work>
    </rdf:RDF>
  </metadata>
  <sodipodi:namedview
     pagecolor="#ffffff"
     bordercolor="#666666"
     borderopacity="1"
     objecttolerance="10"
     gridtolerance="10"
     guidetolerance="10"
     inkscape:pageopacity="0"
     inkscape:pageshadow="2"
     inkscape:window-width="1920"
     inkscape:window-height="1034"
     id="namedview47"
     showgrid="false"
     inkscape:zoom="3.4766083"
     inkscape:cx="-54.4615"
     inkscape:cy="18.346145"
     inkscape:window-x="0"
     inkscape:window-y="22"
     inkscape:window-maximized="0"
     inkscape:current-layer="svg2" />
  <defs
     id="defs4">
    <linearGradient
       id="linearGradient3764"
       x1="1"
       x2="47"
       gradientUnits="userSpaceOnUse"
       gradientTransform="matrix(0,-1,1,0,-1.5e-6,47.999998)">
      <stop
         style="stop-color:#e38f23;stop-opacity:1"
         id="stop7" />
      <stop
         offset="1"
         style="stop-color:#e59735;stop-opacity:1"
         id="stop9" />
    </linearGradient>
  </defs>
  <g
     id="g11">
    <path
       d="m 36.31 5 c 5.859 4.062 9.688 10.831 9.688 18.5 c 0 12.426 -10.07 22.5 -22.5 22.5 c -7.669 0 -14.438 -3.828 -18.5 -9.688 c 1.037 1.822 2.306 3.499 3.781 4.969 c 4.085 3.712 9.514 5.969 15.469 5.969 c 12.703 0 23 -10.298 23 -23 c 0 -5.954 -2.256 -11.384 -5.969 -15.469 c -1.469 -1.475 -3.147 -2.744 -4.969 -3.781 z m 4.969 3.781 c 3.854 4.113 6.219 9.637 6.219 15.719 c 0 12.703 -10.297 23 -23 23 c -6.081 0 -11.606 -2.364 -15.719 -6.219 c 4.16 4.144 9.883 6.719 16.219 6.719 c 12.703 0 23 -10.298 23 -23 c 0 -6.335 -2.575 -12.06 -6.719 -16.219 z"
       style="opacity:0.05"
       id="path13" />
    <path
       d="m 41.28 8.781 c 3.712 4.085 5.969 9.514 5.969 15.469 c 0 12.703 -10.297 23 -23 23 c -5.954 0 -11.384 -2.256 -15.469 -5.969 c 4.113 3.854 9.637 6.219 15.719 6.219 c 12.703 0 23 -10.298 23 -23 c 0 -6.081 -2.364 -11.606 -6.219 -15.719 z"
       style="opacity:0.1"
       id="path15" />
    <path
       d="m 31.25 2.375 c 8.615 3.154 14.75 11.417 14.75 21.13 c 0 12.426 -10.07 22.5 -22.5 22.5 c -9.708 0 -17.971 -6.135 -21.12 -14.75 a 23 23 0 0 0 44.875 -7 a 23 23 0 0 0 -16 -21.875 z"
       style="opacity:0.2"
       id="path17" />
  </g>
  <g
     id="g19"
     style="fill:#e6e6e6;fill-opacity:1">
    <path
       d="m 24 1 c 12.703 0 23 10.297 23 23 c 0 12.703 -10.297 23 -23 23 -12.703 0 -23 -10.297 -23 -23 0 -12.703 10.297 -23 23 -23 z"
       style="fill:#e6e6e6;fill-opacity:1"
       id="path21" />
  </g>
  <g
     id="g23"
     transform="matrix(1.383725,0,0,1.3608652,-8.8195161,-10.188527)">
    <g
       id="g25">
      <g
         transform="translate(1,1)"
         id="g27">
        <g
           style="opacity:0.1"
           id="g29">
          <!-- color: #e59735 -->
          <g
             id="g31">
            <path
               d="m 28.418,35.957 c -1.973,-0.324 -4.535,-2.586 -6.875,-6.06 -0.98,-1.457 -1.984,-3.258 -2.641,-4.734 -0.129,-0.297 -0.18,-0.367 -0.219,-0.324 -0.078,0.082 -0.652,1.324 -0.953,2.066 -0.508,1.25 -0.863,2.438 -1.066,3.582 -0.133,0.719 -0.141,2.109 -0.02,2.543 0.281,1 0.895,1.422 1.852,1.258 0.691,-0.117 1.523,-0.492 2.41,-1.094 0.391,-0.266 0.496,-0.313 0.648,-0.313 0.234,0 0.406,0.125 0.488,0.352 0.055,0.152 0.055,0.199 0,0.344 -0.055,0.145 -0.145,0.227 -0.559,0.504 -0.574,0.391 -1.559,0.891 -2.055,1.051 -1.316,0.422 -2.34,0.266 -3.066,-0.461 -0.664,-0.668 -0.938,-1.746 -0.852,-3.254 0.105,-1.957 0.977,-4.633 2.336,-7.258 l 0.34,-0.656 -0.258,-0.699 c -0.25,-0.668 -0.734,-2.215 -0.734,-2.332 0,-0.086 -0.148,-0.066 -0.805,0.094 -1.5,0.367 -2.613,0.84 -3.41,1.438 -1.57,1.18 -1.156,2.508 1.195,3.832 0.375,0.215 0.461,0.328 0.461,0.609 0,0.145 -0.027,0.203 -0.148,0.324 -0.258,0.258 -0.496,0.203 -1.293,-0.289 -1.148,-0.715 -1.875,-1.523 -2.133,-2.383 -0.094,-0.313 -0.094,-0.941 0,-1.258 0.133,-0.457 0.363,-0.82 0.777,-1.234 0.922,-0.93 2.457,-1.645 4.559,-2.125 0.43,-0.098 0.527,-0.133 0.512,-0.188 -0.012,-0.039 -0.063,-0.281 -0.113,-0.547 -0.285,-1.531 -0.293,-3.289 -0.02,-4.266 0.316,-1.121 0.887,-1.793 1.797,-2.105 0.371,-0.125 1.117,-0.105 1.621,0.047 0.516,0.152 1.148,0.465 1.715,0.844 0.668,0.449 0.867,0.637 0.895,0.855 0.063,0.5 -0.449,0.77 -0.871,0.453 -1.32,-0.98 -2.262,-1.359 -3.02,-1.199 -0.551,0.117 -0.969,0.68 -1.18,1.586 -0.086,0.359 -0.098,0.531 -0.098,1.426 0,1.02 0.016,1.18 0.199,2.246 l 0.094,0.535 0.219,-0.027 c 1.012,-0.121 1.883,-0.207 2.418,-0.238 l 0.637,-0.035 0.098,-0.125 c 1.078,-1.383 2.641,-3 3.828,-3.953 2.27,-1.82 4.215,-2.453 5.555,-1.805 0.758,0.363 1.234,1.113 1.422,2.223 0.121,0.723 0.023,2.438 -0.164,2.922 -0.063,0.164 -0.273,0.285 -0.5,0.285 -0.141,0 -0.215,-0.027 -0.324,-0.129 -0.133,-0.113 -0.141,-0.148 -0.141,-0.379 0,-0.137 0.035,-0.535 0.082,-0.879 0.125,-1 0.035,-1.938 -0.234,-2.473 -0.137,-0.262 -0.406,-0.539 -0.645,-0.652 -0.176,-0.09 -0.266,-0.102 -0.68,-0.102 -0.43,0 -0.516,0.016 -0.945,0.164 -1.324,0.449 -2.84,1.539 -4.473,3.199 -0.309,0.32 -0.777,0.82 -1.035,1.121 l -0.473,0.539 0.41,0.012 c 5.742,0.137 10.582,1.457 12.863,3.504 0.512,0.461 0.957,1.148 1.082,1.684 0.063,0.273 0.063,0.801 0.004,1.082 -0.23,1.039 -1.379,2.066 -3.051,2.727 -0.273,0.105 -0.316,0.113 -0.461,0.07 -0.234,-0.07 -0.395,-0.266 -0.395,-0.5 0,-0.277 0.129,-0.41 0.609,-0.613 1.035,-0.434 1.84,-1.043 2.145,-1.629 0.109,-0.199 0.121,-0.277 0.121,-0.602 0,-0.332 -0.012,-0.398 -0.145,-0.648 -0.184,-0.359 -0.797,-0.973 -1.305,-1.309 -2.492,-1.645 -7.191,-2.719 -11.938,-2.719 h -0.781 l -0.293,0.398 c -0.445,0.598 -1.402,2.055 -1.781,2.707 l -0.336,0.574 0.23,0.531 c 2.316,5.313 5.91,9.805 8.563,10.703 0.578,0.188 1.016,0.191 1.367,0.02 0.656,-0.324 1,-1.164 1.059,-2.563 0.086,-2.348 -0.758,-5.594 -2.332,-8.949 -0.164,-0.348 -0.262,-0.613 -0.262,-0.711 0,-0.281 0.234,-0.504 0.523,-0.5 0.258,0 0.371,0.102 0.57,0.52 1.281,2.672 2.129,5.355 2.449,7.695 0.105,0.785 0.105,2.391 0,2.965 -0.172,0.918 -0.477,1.578 -0.938,2.047 -0.563,0.566 -1.297,0.781 -2.164,0.641 M 19.23,21.679 c 0.164,-0.27 0.48,-0.746 0.703,-1.07 0.223,-0.328 0.402,-0.605 0.402,-0.625 0,-0.059 -2.047,0.152 -2.105,0.211 -0.035,0.039 0.082,0.492 0.355,1.332 0.199,0.609 0.254,0.734 0.297,0.688 0.031,-0.035 0.188,-0.273 0.348,-0.535 m 4.371,3.887 c -0.652,-0.234 -1.031,-0.777 -1.023,-1.461 0,-0.359 0.082,-0.602 0.293,-0.891 0.531,-0.723 1.617,-0.805 2.266,-0.172 0.754,0.727 0.531,2.027 -0.422,2.457 -0.324,0.148 -0.801,0.18 -1.117,0.063 m 0.004,0.004"
               style="fill:#000000;fill-opacity:1;fill-rule:nonzero;stroke:none"
               id="path33"
               inkscape:connector-curvature="0" />
          </g>
        </g>
      </g>
    </g>
  </g>
  <g
     id="g35"
     style="fill:#808080"
     transform="matrix(1.383725,0,0,1.3608652,-8.8195161,-10.188527)">
    <g
       id="g37"
       style="fill:#808080">
      <!-- color: #e59735 -->
      <g
         id="g39"
         style="fill:#808080">
        <path
           d="m 28.418,35.957 c -1.973,-0.324 -4.535,-2.586 -6.875,-6.06 -0.98,-1.457 -1.984,-3.258 -2.641,-4.734 -0.129,-0.297 -0.18,-0.367 -0.219,-0.324 -0.078,0.082 -0.652,1.324 -0.953,2.066 -0.508,1.25 -0.863,2.438 -1.066,3.582 -0.133,0.719 -0.141,2.109 -0.02,2.543 0.281,1 0.895,1.422 1.852,1.258 0.691,-0.117 1.523,-0.492 2.41,-1.094 0.391,-0.266 0.496,-0.313 0.648,-0.313 0.234,0 0.406,0.125 0.488,0.352 0.055,0.152 0.055,0.199 0,0.344 -0.055,0.145 -0.145,0.227 -0.559,0.504 -0.574,0.391 -1.559,0.891 -2.055,1.051 -1.316,0.422 -2.34,0.266 -3.066,-0.461 -0.664,-0.668 -0.938,-1.746 -0.852,-3.254 0.105,-1.957 0.977,-4.633 2.336,-7.258 l 0.34,-0.656 -0.258,-0.699 c -0.25,-0.668 -0.734,-2.215 -0.734,-2.332 0,-0.086 -0.148,-0.066 -0.805,0.094 -1.5,0.367 -2.613,0.84 -3.41,1.438 -1.57,1.18 -1.156,2.508 1.195,3.832 0.375,0.215 0.461,0.328 0.461,0.609 0,0.145 -0.027,0.203 -0.148,0.324 -0.258,0.258 -0.496,0.203 -1.293,-0.289 -1.148,-0.715 -1.875,-1.523 -2.133,-2.383 -0.094,-0.313 -0.094,-0.941 0,-1.258 0.133,-0.457 0.363,-0.82 0.777,-1.234 0.922,-0.93 2.457,-1.645 4.559,-2.125 0.43,-0.098 0.527,-0.133 0.512,-0.188 -0.012,-0.039 -0.063,-0.281 -0.113,-0.547 -0.285,-1.531 -0.293,-3.289 -0.02,-4.266 0.316,-1.121 0.887,-1.793 1.797,-2.105 0.371,-0.125 1.117,-0.105 1.621,0.047 0.516,0.152 1.148,0.465 1.715,0.844 0.668,0.449 0.867,0.637 0.895,0.855 0.063,0.5 -0.449,0.77 -0.871,0.453 -1.32,-0.98 -2.262,-1.359 -3.02,-1.199 -0.551,0.117 -0.969,0.68 -1.18,1.586 -0.086,0.359 -0.098,0.531 -0.098,1.426 0,1.02 0.016,1.18 0.199,2.246 l 0.094,0.535 0.219,-0.027 c 1.012,-0.121 1.883,-0.207 2.418,-0.238 l 0.637,-0.035 0.098,-0.125 c 1.078,-1.383 2.641,-3 3.828,-3.953 2.27,-1.82 4.215,-2.453 5.555,-1.805 0.758,0.363 1.234,1.113 1.422,2.223 0.121,0.723 0.023,2.438 -0.164,2.922 -0.063,0.164 -0.273,0.285 -0.5,0.285 -0.141,0 -0.215,-0.027 -0.324,-0.129 -0.133,-0.113 -0.141,-0.148 -0.141,-0.379 0,-0.137 0.035,-0.535 0.082,-0.879 0.125,-1 0.035,-1.938 -0.234,-2.473 -0.137,-0.262 -0.406,-0.539 -0.645,-0.652 -0.176,-0.09 -0.266,-0.102 -0.68,-0.102 -0.43,0 -0.516,0.016 -0.945,0.164 -1.324,0.449 -2.84,1.539 -4.473,3.199 -0.309,0.32 -0.777,0.82 -1.035,1.121 l -0.473,0.539 0.41,0.012 c 5.742,0.137 10.582,1.457 12.863,3.504 0.512,0.461 0.957,1.148 1.082,1.684 0.063,0.273 0.063,0.801 0.004,1.082 -0.23,1.039 -1.379,2.066 -3.051,2.727 -0.273,0.105 -0.316,0.113 -0.461,0.07 -0.234,-0.07 -0.395,-0.266 -0.395,-0.5 0,-0.277 0.129,-0.41 0.609,-0.613 1.035,-0.434 1.84,-1.043 2.145,-1.629 0.109,-0.199 0.121,-0.277 0.121,-0.602 0,-0.332 -0.012,-0.398 -0.145,-0.648 -0.184,-0.359 -0.797,-0.973 -1.305,-1.309 -2.492,-1.645 -7.191,-2.719 -11.938,-2.719 h -0.781 l -0.293,0.398 c -0.445,0.598 -1.402,2.055 -1.781,2.707 l -0.336,0.574 0.23,0.531 c 2.316,5.313 5.91,9.805 8.563,10.703 0.578,0.188 1.016,0.191 1.367,0.02 0.656,-0.324 1,-1.164 1.059,-2.563 0.086,-2.348 -0.758,-5.594 -2.332,-8.949 -0.164,-0.348 -0.262,-0.613 -0.262,-0.711 0,-0.281 0.234,-0.504 0.523,-0.5 0.258,0 0.371,0.102 0.57,0.52 1.281,2.672 2.129,5.355 2.449,7.695 0.105,0.785 0.105,2.391 0,2.965 -0.172,0.918 -0.477,1.578 -0.938,2.047 -0.563,0.566 -1.297,0.781 -2.164,0.641 M 19.23,21.679 c 0.164,-0.27 0.48,-0.746 0.703,-1.07 0.223,-0.328 0.402,-0.605 0.402,-0.625 0,-0.059 -2.047,0.152 -2.105,0.211 -0.035,0.039 0.082,0.492 0.355,1.332 0.199,0.609 0.254,0.734 0.297,0.688 0.031,-0.035 0.188,-0.273 0.348,-0.535 m 4.371,3.887 c -0.652,-0.234 -1.031,-0.777 -1.023,-1.461 0,-0.359 0.082,-0.602 0.293,-0.891 0.531,-0.723 1.617,-0.805 2.266,-0.172 0.754,0.727 0.531,2.027 -0.422,2.457 -0.324,0.148 -0.801,0.18 -1.117,0.063 m 0.004,0.004"
           style="fill:#808080;fill-opacity:1;fill-rule:nonzero;stroke:none"
           id="path41"
           inkscape:connector-curvature="0" />
      </g>
    </g>
  </g>
  <g
     id="g43">
    <path
       d="m 40.03 7.531 c 3.712 4.084 5.969 9.514 5.969 15.469 0 12.703 -10.297 23 -23 23 c -5.954 0 -11.384 -2.256 -15.469 -5.969 4.178 4.291 10.01 6.969 16.469 6.969 c 12.703 0 23 -10.298 23 -23 0 -6.462 -2.677 -12.291 -6.969 -16.469 z"
       style="opacity:0.1"
       id="path45" />
  </g>
</svg>
