<?xml version="1.0" encoding="UTF-8" standalone="no"?>
<svg
   xmlns:dc="http://purl.org/dc/elements/1.1/"
   xmlns:cc="http://creativecommons.org/ns#"
   xmlns:rdf="http://www.w3.org/1999/02/22-rdf-syntax-ns#"
   xmlns:svg="http://www.w3.org/2000/svg"
   xmlns="http://www.w3.org/2000/svg"
   xmlns:sodipodi="http://sodipodi.sourceforge.net/DTD/sodipodi-0.dtd"
   xmlns:inkscape="http://www.inkscape.org/namespaces/inkscape"
   viewBox="0 0 48 48"
   id="svg2"
   version="1.1"
   inkscape:version="0.92.2 5c3e80d, 2017-08-06"
   sodipodi:docname="chrome-kjcjagobpepplkgmpglkdfhkljafgdbi-Default.svg">
  <metadata
     id="metadata51">
    <rdf:RDF>
      <cc:Work
         rdf:about="">
        <dc:format>image/svg+xml</dc:format>
        <dc:type
           rdf:resource="http://purl.org/dc/dcmitype/StillImage" />
        <dc:title></dc:title>
      </cc:Work>
    </rdf:RDF>
  </metadata>
  <sodipodi:namedview
     pagecolor="#ffffff"
     bordercolor="#666666"
     borderopacity="1"
     objecttolerance="10"
     gridtolerance="10"
     guidetolerance="10"
     inkscape:pageopacity="0"
     inkscape:pageshadow="2"
     inkscape:window-width="1920"
     inkscape:window-height="993"
     id="namedview49"
     showgrid="false"
     inkscape:zoom="6.9532167"
     inkscape:cx="40.735909"
     inkscape:cy="14.027221"
     inkscape:window-x="0"
     inkscape:window-y="0"
     inkscape:window-maximized="1"
     inkscape:current-layer="g912" />
  <defs
     id="defs4">
    <linearGradient
       id="linearGradient3764"
       x1="1"
       x2="47"
       gradientUnits="userSpaceOnUse"
       gradientTransform="matrix(0,-1,1,0,-1.5e-6,47.999998)">
      <stop
         style="stop-color:#b5945b;stop-opacity:1"
         id="stop7" />
      <stop
         offset="1"
         style="stop-color:#bb9e69;stop-opacity:1"
         id="stop9" />
    </linearGradient>
  </defs>
  <g
     id="g11">
    <path
       d="m 36.31 5 c 5.859 4.062 9.688 10.831 9.688 18.5 c 0 12.426 -10.07 22.5 -22.5 22.5 c -7.669 0 -14.438 -3.828 -18.5 -9.688 c 1.037 1.822 2.306 3.499 3.781 4.969 c 4.085 3.712 9.514 5.969 15.469 5.969 c 12.703 0 23 -10.298 23 -23 c 0 -5.954 -2.256 -11.384 -5.969 -15.469 c -1.469 -1.475 -3.147 -2.744 -4.969 -3.781 z m 4.969 3.781 c 3.854 4.113 6.219 9.637 6.219 15.719 c 0 12.703 -10.297 23 -23 23 c -6.081 0 -11.606 -2.364 -15.719 -6.219 c 4.16 4.144 9.883 6.719 16.219 6.719 c 12.703 0 23 -10.298 23 -23 c 0 -6.335 -2.575 -12.06 -6.719 -16.219 z"
       style="opacity:0.05"
       id="path13" />
    <path
       d="m 41.28 8.781 c 3.712 4.085 5.969 9.514 5.969 15.469 c 0 12.703 -10.297 23 -23 23 c -5.954 0 -11.384 -2.256 -15.469 -5.969 c 4.113 3.854 9.637 6.219 15.719 6.219 c 12.703 0 23 -10.298 23 -23 c 0 -6.081 -2.364 -11.606 -6.219 -15.719 z"
       style="opacity:0.1"
       id="path15" />
    <path
       d="m 31.25 2.375 c 8.615 3.154 14.75 11.417 14.75 21.13 c 0 12.426 -10.07 22.5 -22.5 22.5 c -9.708 0 -17.971 -6.135 -21.12 -14.75 a 23 23 0 0 0 44.875 -7 a 23 23 0 0 0 -16 -21.875 z"
       style="opacity:0.2"
       id="path17" />
  </g>
  <g
     id="g19">
    <path
       d="m 24 1 c 12.703 0 23 10.297 23 23 c 0 12.703 -10.297 23 -23 23 -12.703 0 -23 -10.297 -23 -23 0 -12.703 10.297 -23 23 -23 z"
       style="fill:#e6e6e6;fill-opacity:1"
       id="path21" />
  </g>
  <g
     id="g45">
    <path
       d="m 40.03 7.531 c 3.712 4.084 5.969 9.514 5.969 15.469 0 12.703 -10.297 23 -23 23 c -5.954 0 -11.384 -2.256 -15.469 -5.969 4.178 4.291 10.01 6.969 16.469 6.969 c 12.703 0 23 -10.298 23 -23 0 -6.462 -2.677 -12.291 -6.969 -16.469 z"
       style="opacity:0.1"
       id="path47" />
  </g>
  <g
     id="g912"
     style="fill:none;fill-rule:evenodd"
     transform="matrix(0.05864867,0,0,0.05372671,8.4338742,9.7070022)">
    <rect
       id="rect906"
       rx="30"
       height="450"
       width="450"
       y="35.707397"
       x="37.261005"
       style="fill:#f79a1f" />
    <path
       id="path908"
       d="m 37.261005,374.0574 c 0,-16.566 10.494,-38.36 23.456,-48.701 l 64.993005,-51.83 136.55,76.07 124.4,-189.45 72.24,25.02 c 15.661,5.424 28.357,23.26 28.357,39.821 v 230.72 c 0,16.569 -13.437,30 -30.01,30 H 67.257005 c -16.572,0 -30.01,-13.437 -30.01,-29.996 v -81.65"
       inkscape:connector-curvature="0"
       style="fill:#f05824" />
    <path
       id="path910"
       d="m 387.72101,97.357399 c -25.754,0 -46.657,20.903001 -46.657,46.657001 0,11.08 3.881,21.256 10.338,29.26 l -85.3,129.39 c -4,-1.12 -8.212,-1.728 -12.573,-1.728 -12.39,0 -23.647,4.839 -31.998,12.722 l -56.4,-31.13 c 0.571,-2.916 0.864,-5.915 0.864,-8.998 0,-25.754 -20.903,-46.627 -46.657,-46.627 -25.754005,0 -46.627005,20.873 -46.627005,46.627 0,7.156 1.618,13.932 4.499,19.991 l -39.953,37.45 v 38.97 l 59.38,-55.684 c 6.720005,3.754 14.459005,5.899 22.703005,5.899 12.387,0 23.648,-4.843 31.998,-12.722 l 56.43,31.13 c -0.571,2.916 -0.864,5.915 -0.864,8.998 0,25.754 20.873,46.627 46.627,46.627 25.754,0 46.627,-20.873 46.627,-46.627 0,-11.09 -3.874,-21.283 -10.338,-29.29 l 85.3,-129.36 c 4.01,1.122 8.237,1.728 12.603,1.728 11.259,0 21.557,-3.992 29.615,-10.636 l 69.925,45.08 v -33.816 l -54.52,-35.13 c 1.039,-3.867 1.609,-7.931 1.609,-12.13 0,-25.754 -20.873,-46.657001 -46.627,-46.657001"
       inkscape:connector-curvature="0"
       style="fill:#ececec" />
  </g>
</svg>
