<?xml version="1.0" encoding="UTF-8" standalone="no"?>
<svg
   xmlns:dc="http://purl.org/dc/elements/1.1/"
   xmlns:cc="http://creativecommons.org/ns#"
   xmlns:rdf="http://www.w3.org/1999/02/22-rdf-syntax-ns#"
   xmlns:svg="http://www.w3.org/2000/svg"
   xmlns="http://www.w3.org/2000/svg"
   xmlns:sodipodi="http://sodipodi.sourceforge.net/DTD/sodipodi-0.dtd"
   xmlns:inkscape="http://www.inkscape.org/namespaces/inkscape"
   viewBox="0 0 48 48"
   id="svg2"
   version="1.1"
   inkscape:version="0.92.2 5c3e80d, 2017-08-06"
   sodipodi:docname="deepin.com.baidu.pan.svg">
  <metadata
     id="metadata43">
    <rdf:RDF>
      <cc:Work
         rdf:about="">
        <dc:format>image/svg+xml</dc:format>
        <dc:type
           rdf:resource="http://purl.org/dc/dcmitype/StillImage" />
      </cc:Work>
    </rdf:RDF>
  </metadata>
  <sodipodi:namedview
     pagecolor="#ffffff"
     bordercolor="#666666"
     borderopacity="1"
     objecttolerance="10"
     gridtolerance="10"
     guidetolerance="10"
     inkscape:pageopacity="0"
     inkscape:pageshadow="2"
     inkscape:window-width="1916"
     inkscape:window-height="1029"
     id="namedview41"
     showgrid="false"
     inkscape:zoom="4.9166667"
     inkscape:cx="23.234111"
     inkscape:cy="23.170409"
     inkscape:window-x="0"
     inkscape:window-y="49"
     inkscape:window-maximized="0"
     inkscape:current-layer="Page-1" />
  <defs
     id="defs4">
    <linearGradient
       id="linearGradient3764"
       x1="1"
       x2="47"
       gradientUnits="userSpaceOnUse"
       gradientTransform="matrix(0,-1,1,0,-1.5e-6,47.999998)">
      <stop
         style="stop-color:#39569d;stop-opacity:1"
         id="stop7" />
      <stop
         offset="1"
         style="stop-color:#3f5eab;stop-opacity:1"
         id="stop9" />
    </linearGradient>
  </defs>
  <g
     id="g11">
    <path
       d="m 36.31 5 c 5.859 4.062 9.688 10.831 9.688 18.5 c 0 12.426 -10.07 22.5 -22.5 22.5 c -7.669 0 -14.438 -3.828 -18.5 -9.688 c 1.037 1.822 2.306 3.499 3.781 4.969 c 4.085 3.712 9.514 5.969 15.469 5.969 c 12.703 0 23 -10.298 23 -23 c 0 -5.954 -2.256 -11.384 -5.969 -15.469 c -1.469 -1.475 -3.147 -2.744 -4.969 -3.781 z m 4.969 3.781 c 3.854 4.113 6.219 9.637 6.219 15.719 c 0 12.703 -10.297 23 -23 23 c -6.081 0 -11.606 -2.364 -15.719 -6.219 c 4.16 4.144 9.883 6.719 16.219 6.719 c 12.703 0 23 -10.298 23 -23 c 0 -6.335 -2.575 -12.06 -6.719 -16.219 z"
       style="opacity:0.05"
       id="path13" />
    <path
       d="m 41.28 8.781 c 3.712 4.085 5.969 9.514 5.969 15.469 c 0 12.703 -10.297 23 -23 23 c -5.954 0 -11.384 -2.256 -15.469 -5.969 c 4.113 3.854 9.637 6.219 15.719 6.219 c 12.703 0 23 -10.298 23 -23 c 0 -6.081 -2.364 -11.606 -6.219 -15.719 z"
       style="opacity:0.1"
       id="path15" />
    <path
       d="m 31.25 2.375 c 8.615 3.154 14.75 11.417 14.75 21.13 c 0 12.426 -10.07 22.5 -22.5 22.5 c -9.708 0 -17.971 -6.135 -21.12 -14.75 a 23 23 0 0 0 44.875 -7 a 23 23 0 0 0 -16 -21.875 z"
       style="opacity:0.2"
       id="path17" />
  </g>
  <g
     id="g19"
     style="fill:#e6e6e6;fill-opacity:1">
    <path
       d="m 24 1 c 12.703 0 23 10.297 23 23 c 0 12.703 -10.297 23 -23 23 -12.703 0 -23 -10.297 -23 -23 0 -12.703 10.297 -23 23 -23 z"
       style="fill:#e6e6e6;fill-opacity:1"
       id="path21" />
  </g>
  <g
     id="g23">
    <g
       id="g25">
      <g
         transform="translate(1,1)"
         id="g27">
        <g
           style="opacity:0.1"
           id="g29">
          <!-- color: #3a569c -->
        </g>
      </g>
    </g>
  </g>
  <g
     id="g31">
    <path
       d="m 40.03 7.531 c 3.712 4.084 5.969 9.514 5.969 15.469 0 12.703 -10.297 23 -23 23 c -5.954 0 -11.384 -2.256 -15.469 -5.969 4.178 4.291 10.01 6.969 16.469 6.969 c 12.703 0 23 -10.298 23 -23 0 -6.462 -2.677 -12.291 -6.969 -16.469 z"
       style="opacity:0.1"
       id="path33" />
  </g>
  <g
     id="Page-1"
     style="fill:none;fill-rule:evenodd;stroke:none;stroke-width:1"
     transform="matrix(0.76271186,0,0,0.71428571,5.2418644,7.1738573)">
    <ellipse
       style="fill:#32acf2;fill-opacity:1;fill-rule:evenodd;stroke:none;stroke-width:1.35482681;stroke-opacity:1"
       id="path4540"
       cx="24.327333"
       cy="23.556601"
       rx="24.400002"
       ry="26.196609" />
    <path
       id="Combined-Shape"
       d="m 27.024086,24.775528 c -1.188119,1.304993 -5.973849,6.592533 -5.973849,6.592533 l -0.0041,-0.0043 c -1.157548,1.186528 -2.767989,1.928805 -4.552062,1.928805 -3.510268,0 -6.36652,-2.856252 -6.36652,-6.366521 0,-3.510268 2.856252,-6.36652 6.36652,-6.36652 0.151927,0 0.293728,0.03473 0.442763,0.04486 -0.07379,-0.384885 -0.120098,-0.778451 -0.120098,-1.183593 0,-3.511716 2.856252,-6.36652 6.366516,-6.36652 3.510269,0 6.366517,2.854804 6.366517,6.36652 0,0.365592 -0.0397,0.721553 -0.100523,1.071178 0.0593,-0.0015 0.118734,-0.0024 0.17829,-0.0024 1.68396,0 3.21836,0.640364 4.37296,1.690861 1.304561,1.166652 2.127,2.861954 2.127,4.745574 0,0.0069 -5e-5,0.01358 -1.39e-4,0.02034 8.9e-5,0.01438 1.39e-4,0.02876 1.39e-4,0.04316 0,3.589851 -2.910151,6.5 -6.5,6.5 -0.718949,0 -1.42411,-0.117362 -2.093236,-0.34487 -0.849691,-0.288903 -1.304302,-1.211913 -1.015401,-2.061605 0.28889,-0.849694 1.211899,-1.304306 2.061596,-1.015409 0.333311,0.11333 0.685111,0.171881 1.047041,0.171881 1.79493,0 3.25,-1.455075 3.25,-3.250001 0,-1.794925 -1.45507,-3.249999 -3.25,-3.249999 -1.48304,0 -2.311186,0.842334 -2.603227,1.036056 z m -3.84107,-8.827471 c -1.914289,0 -3.472643,1.556905 -3.472643,3.472649 0,1.914297 1.558354,3.472647 3.472643,3.472647 1.914301,0 3.472651,-1.55835 3.472651,-3.472647 0,-1.915744 -1.55835,-3.472649 -3.472651,-3.472649 z M 13.021185,26.925964 c 0,1.915745 1.55835,3.472649 3.472647,3.472649 0.954978,0 1.818799,-0.386333 2.448217,-1.011408 0.0072,-0.0087 0.01736,-0.02026 0.0246,-0.02894 0.617843,-0.626522 0.999834,-1.484557 0.999834,-2.432301 0,-1.914297 -1.556903,-3.472647 -3.472647,-3.472647 -1.914297,0 -3.472647,1.55835 -3.472647,3.472647 z"
       inkscape:connector-curvature="0"
       style="fill:#ffffff;fill-rule:evenodd;stroke:none;stroke-width:1" />
  </g>
</svg>
