<?xml version="1.0" encoding="UTF-8" standalone="no"?>
<svg
   xmlns:dc="http://purl.org/dc/elements/1.1/"
   xmlns:cc="http://creativecommons.org/ns#"
   xmlns:rdf="http://www.w3.org/1999/02/22-rdf-syntax-ns#"
   xmlns:svg="http://www.w3.org/2000/svg"
   xmlns="http://www.w3.org/2000/svg"
   xmlns:sodipodi="http://sodipodi.sourceforge.net/DTD/sodipodi-0.dtd"
   xmlns:inkscape="http://www.inkscape.org/namespaces/inkscape"
   viewBox="0 0 48 48"
   id="svg2"
   version="1.1"
   inkscape:version="0.92.2 5c3e80d, 2017-08-06"
   sodipodi:docname="applications-office.svg">
  <metadata
     id="metadata37">
    <rdf:RDF>
      <cc:Work
         rdf:about="">
        <dc:format>image/svg+xml</dc:format>
        <dc:type
           rdf:resource="http://purl.org/dc/dcmitype/StillImage" />
      </cc:Work>
    </rdf:RDF>
  </metadata>
  <sodipodi:namedview
     pagecolor="#ffffff"
     bordercolor="#666666"
     borderopacity="1"
     objecttolerance="10"
     gridtolerance="10"
     guidetolerance="10"
     inkscape:pageopacity="0"
     inkscape:pageshadow="2"
     inkscape:window-width="1920"
     inkscape:window-height="1034"
     id="namedview35"
     showgrid="false"
     inkscape:zoom="9.8333333"
     inkscape:cx="7.1811913"
     inkscape:cy="17.527299"
     inkscape:window-x="0"
     inkscape:window-y="22"
     inkscape:window-maximized="0"
     inkscape:current-layer="svg2" />
  <defs
     id="defs4">
    <linearGradient
       id="linearGradient3764"
       x1="1"
       x2="47"
       gradientUnits="userSpaceOnUse"
       gradientTransform="matrix(0,-1,1,0,-1.5e-6,47.999998)">
      <stop
         style="stop-color:#518abd;stop-opacity:1"
         id="stop7" />
      <stop
         offset="1"
         style="stop-color:#6094c2;stop-opacity:1"
         id="stop9" />
    </linearGradient>
  </defs>
  <g
     id="g11">
    <path
       d="m 36.31 5 c 5.859 4.062 9.688 10.831 9.688 18.5 c 0 12.426 -10.07 22.5 -22.5 22.5 c -7.669 0 -14.438 -3.828 -18.5 -9.688 c 1.037 1.822 2.306 3.499 3.781 4.969 c 4.085 3.712 9.514 5.969 15.469 5.969 c 12.703 0 23 -10.298 23 -23 c 0 -5.954 -2.256 -11.384 -5.969 -15.469 c -1.469 -1.475 -3.147 -2.744 -4.969 -3.781 z m 4.969 3.781 c 3.854 4.113 6.219 9.637 6.219 15.719 c 0 12.703 -10.297 23 -23 23 c -6.081 0 -11.606 -2.364 -15.719 -6.219 c 4.16 4.144 9.883 6.719 16.219 6.719 c 12.703 0 23 -10.298 23 -23 c 0 -6.335 -2.575 -12.06 -6.719 -16.219 z"
       style="opacity:0.05"
       id="path13" />
    <path
       d="m 41.28 8.781 c 3.712 4.085 5.969 9.514 5.969 15.469 c 0 12.703 -10.297 23 -23 23 c -5.954 0 -11.384 -2.256 -15.469 -5.969 c 4.113 3.854 9.637 6.219 15.719 6.219 c 12.703 0 23 -10.298 23 -23 c 0 -6.081 -2.364 -11.606 -6.219 -15.719 z"
       style="opacity:0.1"
       id="path15" />
    <path
       d="m 31.25 2.375 c 8.615 3.154 14.75 11.417 14.75 21.13 c 0 12.426 -10.07 22.5 -22.5 22.5 c -9.708 0 -17.971 -6.135 -21.12 -14.75 a 23 23 0 0 0 44.875 -7 a 23 23 0 0 0 -16 -21.875 z"
       style="opacity:0.2"
       id="path17" />
  </g>
  <g
     id="g19"
     style="fill:#e6e6e6;fill-opacity:1">
    <path
       d="m 24 1 c 12.703 0 23 10.297 23 23 c 0 12.703 -10.297 23 -23 23 -12.703 0 -23 -10.297 -23 -23 0 -12.703 10.297 -23 23 -23 z"
       style="fill:#e6e6e6;fill-opacity:1"
       id="path21" />
  </g>
  <g
     id="g23">
    <path
       d="m 40.03 7.531 c 3.712 4.084 5.969 9.514 5.969 15.469 0 12.703 -10.297 23 -23 23 c -5.954 0 -11.384 -2.256 -15.469 -5.969 4.178 4.291 10.01 6.969 16.469 6.969 c 12.703 0 23 -10.298 23 -23 0 -6.462 -2.677 -12.291 -6.969 -16.469 z"
       style="opacity:0.1"
       id="path25" />
  </g>
  <g
     id="g211"
     transform="matrix(0.06592538,0,0,0.05580617,5.1729364,6.8487386)"
     style="fill:#808080">
    <g
       id="g153"
       style="fill:#808080">
      <g
         id="g151"
         style="fill:#808080">
        <path
           id="path147"
           d="M 544.278,159.244 440.913,125.29 c 0,0 -1.434,-0.477 -3.158,-0.453 -1.629,0.024 -3.061,0.612 -3.219,0.686 l -66.941,27.283 v -44.884 c 0,-4.003 -2.57,-7.564 -6.377,-8.813 L 344.4,93.589 V 70.002 c 0,-3.88 -2.41,-7.356 -6.059,-8.703 L 174.142,0.552 c 0,0 -1.971,-0.795 -4.517,-0.477 -2.546,0.318 -4.517,1.946 -4.517,1.946 L 43.675,99.574 c -2.191,1.762 -3.476,4.418 -3.476,7.233 v 21.396 l -11.677,8.348 c -2.448,1.738 -3.893,4.554 -3.893,7.552 v 346.784 c 0,3.391 1.848,6.512 4.823,8.14 l 137.015,75.104 c 0.012,0 0.024,0 0.024,0 0,0 1.407,0.808 3.354,1.065 1.946,0.257 3.342,-0.208 3.342,-0.208 l 187.382,-47.32 79.707,-20.122 103.354,-26.084 c 4.113,-1.04 7.002,-4.749 7.002,-8.996 l 0.012,-304.409 c 0.011,-4.003 -2.559,-7.552 -6.366,-8.813 z M 79.563,514.216 c 0,1.102 -0.575,2.105 -1.505,2.669 -0.49,0.281 -1.041,0.428 -1.579,0.428 -0.514,0 -1.016,-0.134 -1.493,-0.379 L 47.997,502.148 c -0.991,-0.551 -1.604,-1.591 -1.604,-2.717 V 394.729 c 0,-0.918 0.416,-1.787 1.126,-2.375 0.71,-0.587 1.64,-0.832 2.546,-0.673 l 26.989,5.067 c 1.457,0.281 2.509,1.555 2.509,3.048 z m 0,-143.036 c 0,0.869 -0.367,1.714 -1.003,2.301 -0.576,0.515 -1.31,0.796 -2.081,0.796 -0.098,0 -0.208,0 -0.293,-0.013 l -26.989,-2.631 c -1.591,-0.147 -2.803,-1.493 -2.803,-3.085 v -52.351 c 0,-1.604 1.236,-2.938 2.84,-3.072 l 26.989,-2.239 c 0.856,-0.074 1.713,0.232 2.35,0.808 0.636,0.6 0.991,1.42 0.991,2.276 v 57.21 z m 0,-85.803 c 0,1.506 -1.077,2.791 -2.558,3.048 l -26.989,4.664 c -0.171,0.024 -0.355,0.036 -0.526,0.036 -0.722,0 -1.432,-0.257 -1.995,-0.722 -0.698,-0.588 -1.102,-1.457 -1.102,-2.362 V 237.69 c 0,-1.322 0.833,-2.472 2.069,-2.913 l 26.989,-9.522 c 0.943,-0.318 1.995,-0.184 2.815,0.392 0.808,0.575 1.297,1.505 1.297,2.509 z m 0,-85.827 c 0,1.236 -0.722,2.338 -1.836,2.84 l -26.989,11.946 c -0.404,0.184 -0.832,0.257 -1.249,0.257 -0.587,0 -1.175,-0.171 -1.689,-0.502 -0.881,-0.563 -1.408,-1.53 -1.408,-2.583 V 159.17 c 0,-1.077 0.551,-2.068 1.457,-2.631 l 26.989,-16.818 c 0.955,-0.587 2.154,-0.624 3.133,-0.073 0.979,0.539 1.591,1.579 1.591,2.693 v 57.209 z m 72.461,354.385 c 0,1.102 -0.575,2.105 -1.518,2.656 -0.49,0.282 -1.028,0.429 -1.579,0.429 -0.514,0 -1.016,-0.122 -1.481,-0.38 l -39.939,-21.872 c -0.991,-0.551 -1.603,-1.579 -1.603,-2.729 V 405.893 c 0,-0.918 0.416,-1.787 1.126,-2.375 0.71,-0.588 1.64,-0.832 2.534,-0.661 l 39.939,7.491 c 1.469,0.281 2.521,1.555 2.521,3.035 z m 0,-175.681 c 0,0.869 -0.367,1.714 -1.016,2.302 -0.563,0.514 -1.31,0.795 -2.081,0.795 -0.098,0 -0.196,-0.012 -0.294,-0.012 l -39.939,-3.904 c -1.579,-0.147 -2.803,-1.481 -2.803,-3.072 V 311.29 c 0,-1.604 1.236,-2.938 2.84,-3.072 l 39.939,-3.305 c 0.857,-0.086 1.714,0.221 2.35,0.808 0.637,0.588 1.004,1.408 1.004,2.265 z m 0,-105.399 c 0,1.506 -1.077,2.803 -2.57,3.048 l -39.939,6.891 c -0.171,0.037 -0.355,0.049 -0.526,0.049 -0.722,0 -1.432,-0.257 -1.995,-0.734 -0.697,-0.588 -1.102,-1.457 -1.102,-2.363 v -63.073 c 0,-1.297 0.833,-2.472 2.069,-2.913 L 147.9,199.684 c 0.955,-0.331 1.995,-0.196 2.815,0.379 0.82,0.587 1.31,1.53 1.31,2.534 v 70.258 z m 0,-105.398 c 0,1.236 -0.722,2.326 -1.836,2.828 l -39.939,17.687 c -0.404,0.184 -0.832,0.257 -1.248,0.257 -0.588,0 -1.175,-0.171 -1.689,-0.502 -0.881,-0.575 -1.408,-1.542 -1.408,-2.595 v -63.061 c 0,-1.077 0.551,-2.069 1.457,-2.632 L 147.3,94.555 c 0.955,-0.587 2.154,-0.625 3.133,-0.073 0.979,0.551 1.591,1.579 1.591,2.705 z m 106.488,309.978 c 0,1.519 -1.089,2.804 -2.583,3.048 l -63.562,10.771 c -0.171,0.037 -0.342,0.049 -0.514,0.049 -0.722,0 -1.432,-0.257 -1.995,-0.734 -0.698,-0.587 -1.102,-1.444 -1.102,-2.362 V 415.71 c 0,-1.604 1.236,-2.938 2.827,-3.072 l 63.562,-5.496 c 0.869,-0.086 1.726,0.221 2.362,0.796 0.636,0.587 1.003,1.407 1.003,2.289 v 67.208 z m 0,-100.821 c 0,1.652 -1.297,3.011 -2.962,3.084 l -63.562,2.853 c -0.049,0.012 -0.098,0.012 -0.134,0.012 -0.796,0 -1.555,-0.306 -2.142,-0.856 -0.612,-0.588 -0.955,-1.383 -0.955,-2.24 V 306.97 c 0,-0.832 0.342,-1.652 0.955,-2.228 0.6,-0.588 1.42,-0.894 2.264,-0.857 l 63.562,2.412 c 1.665,0.061 2.974,1.419 2.974,3.084 z m 0,-100.821 c 0,0.856 -0.367,1.689 -1.003,2.276 -0.575,0.526 -1.322,0.808 -2.093,0.808 -0.085,0 -0.159,0 -0.245,0 l -63.562,-5.055 c -1.604,-0.135 -2.852,-1.469 -2.852,-3.084 V 198.24 c 0,-0.906 0.404,-1.775 1.089,-2.35 0.686,-0.587 1.604,-0.845 2.497,-0.71 l 63.562,10.343 c 1.505,0.245 2.595,1.53 2.595,3.048 v 67.222 z m 0,-100.845 c 0,0.93 -0.416,1.799 -1.138,2.399 -0.551,0.453 -1.249,0.697 -1.958,0.697 -0.208,0 -0.416,-0.024 -0.612,-0.061 l -63.562,-12.975 c -1.444,-0.293 -2.472,-1.566 -2.472,-3.035 V 89.488 c 0,-0.979 0.465,-1.885 1.236,-2.473 0.771,-0.587 1.787,-0.783 2.717,-0.502 l 63.562,18.238 c 1.322,0.379 2.24,1.591 2.24,2.974 v 67.222 h -0.013 z m 79.694,288.974 c 0,1.518 -1.09,2.803 -2.57,3.061 l -51.273,8.678 c -0.171,0.037 -0.343,0.049 -0.514,0.049 -0.722,0 -1.432,-0.257 -1.995,-0.734 -0.698,-0.587 -1.102,-1.456 -1.102,-2.362 v -64.859 c 0,-1.604 1.236,-2.938 2.828,-3.085 l 51.273,-4.431 c 0.869,-0.086 1.727,0.232 2.35,0.796 0.637,0.6 1.004,1.42 1.004,2.289 v 60.598 z m 0,-90.894 c 0,1.652 -1.297,3.011 -2.949,3.097 l -51.273,2.301 c -0.049,0.012 -0.098,0.012 -0.135,0.012 -0.795,0 -1.554,-0.306 -2.142,-0.856 -0.612,-0.588 -0.955,-1.383 -0.955,-2.24 v -64.859 c 0,-0.845 0.343,-1.652 0.955,-2.24 0.6,-0.575 1.408,-0.881 2.265,-0.856 l 51.274,1.946 c 1.664,0.073 2.975,1.432 2.975,3.097 v 60.601 h -0.015 z m 0,-90.906 c 0,0.856 -0.354,1.689 -0.99,2.276 -0.576,0.526 -1.322,0.82 -2.094,0.82 -0.086,0 -0.172,-0.012 -0.244,-0.012 l -51.274,-4.076 c -1.604,-0.135 -2.852,-1.469 -2.852,-3.084 v -64.86 c 0,-0.906 0.404,-1.774 1.089,-2.362 0.698,-0.587 1.604,-0.832 2.509,-0.698 l 51.273,8.335 c 1.492,0.257 2.596,1.542 2.596,3.06 v 60.601 z m 0,-90.895 c 0,0.918 -0.416,1.799 -1.139,2.387 -0.551,0.453 -1.248,0.698 -1.957,0.698 -0.209,0 -0.416,-0.012 -0.625,-0.061 l -51.273,-10.453 c -1.444,-0.293 -2.473,-1.567 -2.473,-3.036 v -64.859 c 0,-0.967 0.453,-1.873 1.236,-2.46 0.783,-0.587 1.787,-0.783 2.717,-0.502 l 51.272,14.712 c 1.322,0.38 2.24,1.591 2.24,2.962 v 60.612 z m 102.902,307.335 c 0,1.407 -0.967,2.656 -2.338,2.998 l -79.707,20.123 c -0.258,0.062 -0.502,0.098 -0.76,0.098 -0.686,0 -1.346,-0.22 -1.896,-0.661 -0.746,-0.587 -1.188,-1.48 -1.188,-2.436 V 313.309 c 0,-0.845 0.344,-1.652 0.943,-2.239 0.611,-0.576 1.406,-0.894 2.264,-0.857 l 79.707,3.036 c 1.664,0.061 2.975,1.419 2.975,3.084 z m 48.911,-60.344 c 0,1.506 -1.088,2.803 -2.582,3.048 l -31.713,5.361 c -0.172,0.037 -0.344,0.049 -0.516,0.049 -0.721,0 -1.432,-0.257 -1.994,-0.734 -0.697,-0.588 -1.102,-1.456 -1.102,-2.362 v -50.637 c 0,-1.616 1.225,-2.95 2.826,-3.085 l 31.715,-2.741 c 0.857,-0.086 1.713,0.22 2.35,0.808 0.637,0.588 1.004,1.407 1.004,2.265 v 48.029 h 0.012 z m 0,-72.02 c 0,1.664 -1.309,3.023 -2.961,3.097 l -31.701,1.42 c -0.051,0 -0.1,0 -0.135,0 -0.797,0 -1.568,-0.294 -2.143,-0.857 -0.611,-0.575 -0.955,-1.383 -0.955,-2.228 v -50.65 c 0,-0.832 0.344,-1.652 0.955,-2.228 0.6,-0.587 1.42,-0.894 2.264,-0.856 l 31.715,1.199 c 1.664,0.073 2.975,1.433 2.975,3.097 v 48.006 z m 0,-71.996 c 0,0.856 -0.367,1.689 -1.004,2.265 -0.574,0.538 -1.32,0.832 -2.092,0.832 -0.086,0 -0.16,-0.012 -0.246,-0.012 l -31.701,-2.521 c -1.615,-0.135 -2.852,-1.469 -2.852,-3.085 v -50.637 c 0,-0.894 0.404,-1.775 1.09,-2.35 0.697,-0.587 1.604,-0.833 2.51,-0.698 l 31.701,5.153 c 1.506,0.245 2.594,1.542 2.594,3.047 z m 0,-72.02 c 0,0.93 -0.416,1.812 -1.137,2.399 -0.551,0.453 -1.25,0.698 -1.959,0.698 -0.209,0 -0.416,-0.024 -0.613,-0.061 l -31.713,-6.463 c -1.443,-0.294 -2.473,-1.567 -2.473,-3.036 v -50.637 c 0,-0.967 0.453,-1.885 1.236,-2.473 0.771,-0.587 1.787,-0.759 2.717,-0.501 l 31.715,9.094 c 1.322,0.379 2.24,1.603 2.24,2.974 v 48.005 h -0.013 z m 41.824,208.949 c 0,1.506 -1.088,2.804 -2.582,3.048 l -27.186,4.603 c -0.17,0.024 -0.342,0.049 -0.525,0.049 -0.723,0 -1.432,-0.257 -1.996,-0.734 -0.697,-0.6 -1.088,-1.457 -1.088,-2.362 v -46.794 c 0,-1.604 1.223,-2.938 2.826,-3.072 l 27.186,-2.35 c 0.857,-0.086 1.713,0.221 2.35,0.796 0.637,0.587 1.004,1.407 1.004,2.288 v 44.529 h 0.011 z m 0,-66.806 c 0,1.652 -1.309,3.011 -2.949,3.084 l -27.186,1.236 c -0.049,0 -0.098,0 -0.146,0 -0.795,0 -1.555,-0.306 -2.129,-0.856 -0.613,-0.588 -0.955,-1.383 -0.955,-2.24 v -46.781 c 0,-0.845 0.342,-1.652 0.955,-2.239 0.6,-0.588 1.42,-0.894 2.264,-0.857 l 27.186,1.041 c 1.664,0.061 2.975,1.42 2.975,3.084 v 44.529 h -0.015 z m 0,-66.805 c 0,0.856 -0.354,1.688 -0.99,2.264 -0.576,0.539 -1.322,0.82 -2.105,0.82 -0.074,0 -0.16,0 -0.246,-0.012 l -27.184,-2.154 c -1.604,-0.135 -2.84,-1.469 -2.84,-3.085 v -46.781 c 0,-0.906 0.404,-1.762 1.09,-2.35 0.697,-0.6 1.602,-0.844 2.496,-0.709 l 27.186,4.418 c 1.506,0.245 2.594,1.53 2.594,3.048 v 44.541 z m 0,-66.807 c 0,0.93 -0.416,1.824 -1.139,2.399 -0.551,0.453 -1.248,0.698 -1.957,0.698 -0.209,0 -0.416,-0.024 -0.613,-0.061 l -27.184,-5.545 c -1.445,-0.294 -2.473,-1.566 -2.473,-3.036 v -46.781 c 0,-0.967 0.453,-1.885 1.236,-2.472 0.771,-0.588 1.787,-0.759 2.717,-0.502 l 27.186,7.809 c 1.322,0.379 2.24,1.591 2.24,2.974 v 44.517 z"
           inkscape:connector-curvature="0"
           style="fill:#808080" />
        <path
           id="path149"
           d="m 428.28,325.622 -57.43,-3.035 c -0.857,-0.062 -1.678,0.257 -2.301,0.845 -0.611,0.587 -0.967,1.396 -0.967,2.252 v 159.952 c 0,1.444 1.004,2.705 2.41,3.011 l 57.432,12.938 c 0.219,0.049 0.451,0.073 0.672,0.073 0.697,0 1.383,-0.232 1.934,-0.674 0.734,-0.587 1.164,-1.48 1.164,-2.411 V 328.694 c 0.012,-1.628 -1.273,-2.999 -2.914,-3.072 z"
           inkscape:connector-curvature="0"
           style="fill:#808080" />
      </g>
    </g>
    <g
       id="g155"
       style="fill:#808080" />
    <g
       id="g157"
       style="fill:#808080" />
    <g
       id="g159"
       style="fill:#808080" />
    <g
       id="g161"
       style="fill:#808080" />
    <g
       id="g163"
       style="fill:#808080" />
    <g
       id="g165"
       style="fill:#808080" />
    <g
       id="g167"
       style="fill:#808080" />
    <g
       id="g169"
       style="fill:#808080" />
    <g
       id="g171"
       style="fill:#808080" />
    <g
       id="g173"
       style="fill:#808080" />
    <g
       id="g175"
       style="fill:#808080" />
    <g
       id="g177"
       style="fill:#808080" />
    <g
       id="g179"
       style="fill:#808080" />
    <g
       id="g181"
       style="fill:#808080" />
    <g
       id="g183"
       style="fill:#808080" />
  </g>
</svg>
