<?xml version="1.0" encoding="UTF-8" standalone="no"?>
<svg
   xmlns:dc="http://purl.org/dc/elements/1.1/"
   xmlns:cc="http://creativecommons.org/ns#"
   xmlns:rdf="http://www.w3.org/1999/02/22-rdf-syntax-ns#"
   xmlns:svg="http://www.w3.org/2000/svg"
   xmlns="http://www.w3.org/2000/svg"
   xmlns:sodipodi="http://sodipodi.sourceforge.net/DTD/sodipodi-0.dtd"
   xmlns:inkscape="http://www.inkscape.org/namespaces/inkscape"
   viewBox="0 0 48 48"
   id="svg2"
   version="1.1"
   inkscape:version="0.92.2 5c3e80d, 2017-08-06"
   sodipodi:docname="dolphin.svg">
  <metadata
     id="metadata39">
    <rdf:RDF>
      <cc:Work
         rdf:about="">
        <dc:format>image/svg+xml</dc:format>
        <dc:type
           rdf:resource="http://purl.org/dc/dcmitype/StillImage" />
      </cc:Work>
    </rdf:RDF>
  </metadata>
  <sodipodi:namedview
     pagecolor="#ffffff"
     bordercolor="#666666"
     borderopacity="1"
     objecttolerance="10"
     gridtolerance="10"
     guidetolerance="10"
     inkscape:pageopacity="0"
     inkscape:pageshadow="2"
     inkscape:window-width="1920"
     inkscape:window-height="993"
     id="namedview37"
     showgrid="false"
     inkscape:zoom="4.9166667"
     inkscape:cx="-6.8135592"
     inkscape:cy="24"
     inkscape:window-x="0"
     inkscape:window-y="0"
     inkscape:window-maximized="1"
     inkscape:current-layer="g27" />
  <defs
     id="defs4">
    <linearGradient
       id="linearGradient3813"
       gradientUnits="userSpaceOnUse"
       gradientTransform="matrix(0,-1,1,0,-1.5e-6,47.999998)"
       x1="1"
       x2="47">
      <stop
         style="stop-color:#2684da;stop-opacity:1"
         id="stop7" />
      <stop
         offset="1"
         style="stop-color:#3f96e5;stop-opacity:1"
         id="stop9" />
    </linearGradient>
  </defs>
  <g
     id="g11">
    <path
       d="m 36.31 5 c 5.859 4.062 9.688 10.831 9.688 18.5 c 0 12.426 -10.07 22.5 -22.5 22.5 c -7.669 0 -14.438 -3.828 -18.5 -9.688 c 1.037 1.822 2.306 3.499 3.781 4.969 c 4.085 3.712 9.514 5.969 15.469 5.969 c 12.703 0 23 -10.298 23 -23 c 0 -5.954 -2.256 -11.384 -5.969 -15.469 c -1.469 -1.475 -3.147 -2.744 -4.969 -3.781 z m 4.969 3.781 c 3.854 4.113 6.219 9.637 6.219 15.719 c 0 12.703 -10.297 23 -23 23 c -6.081 0 -11.606 -2.364 -15.719 -6.219 c 4.16 4.144 9.883 6.719 16.219 6.719 c 12.703 0 23 -10.298 23 -23 c 0 -6.335 -2.575 -12.06 -6.719 -16.219 z"
       style="opacity:0.05"
       id="path13" />
    <path
       d="m 41.28 8.781 c 3.712 4.085 5.969 9.514 5.969 15.469 c 0 12.703 -10.297 23 -23 23 c -5.954 0 -11.384 -2.256 -15.469 -5.969 c 4.113 3.854 9.637 6.219 15.719 6.219 c 12.703 0 23 -10.298 23 -23 c 0 -6.081 -2.364 -11.606 -6.219 -15.719 z"
       style="opacity:0.1"
       id="path15" />
    <path
       d="m 31.25 2.375 c 8.615 3.154 14.75 11.417 14.75 21.13 c 0 12.426 -10.07 22.5 -22.5 22.5 c -9.708 0 -17.971 -6.135 -21.12 -14.75 a 23 23 0 0 0 44.875 -7 a 23 23 0 0 0 -16 -21.875 z"
       style="opacity:0.2"
       id="path17" />
  </g>
  <path
     d="M 24,1 C 36.703,1 47,11.297 47,24 47,36.703 36.703,47 24,47 11.297,47 1,36.703 1,24 1,11.297 11.297,1 24,1 z"
     style="fill:#ececec;fill-opacity:1"
     id="path19" />
  <g
     id="g21">
    <path
       d="m 40.03 7.531 c 3.712 4.084 5.969 9.514 5.969 15.469 0 12.703 -10.297 23 -23 23 c -5.954 0 -11.384 -2.256 -15.469 -5.969 4.178 4.291 10.01 6.969 16.469 6.969 c 12.703 0 23 -10.298 23 -23 0 -6.462 -2.677 -12.291 -6.969 -16.469 z"
       style="opacity:0.1"
       id="path23" />
  </g>
  <path
     d="m 11.624566,12.351964 c -0.64007,0 -1.28014,0.710377 -1.28014,1.420754 0,8.051416 0,16.10141 0,24.152826 H 41.067797 V 16.707997 c 0,-0.757262 -0.64007,-1.514524 -1.28014,-1.514524 -4.266709,0 -8.534697,0 -12.801405,0 l -1.280141,-2.841509 z"
     style="opacity:0.1;fill:#000000;fill-opacity:1;stroke:none;stroke-width:1.348616"
     id="path25"
     inkscape:connector-curvature="0" />
  <g
     transform="matrix(4.5359307,0,0,5.0341692,-7.7211292,-10.380107)"
     id="g27">
    <path
       d="m 3.700878,4.516 v 3.951 h 6.491 V 6.491 l -0.282,-1.693 h -2.54 l -0.282,-0.564 h -3.104 c -0.141,0 -0.282,0.141 -0.282,0.282 z"
       style="fill:#2a2d36;fill-opacity:1;stroke:none"
       id="path29"
       inkscape:connector-curvature="0" />
    <rect
       y="5.0799999"
       x="4.2648778"
       height="1.1289999"
       width="3.1040001"
       style="fill:#fffdf0;fill-opacity:1;stroke:none"
       id="rect31" />
    <path
       d="m 10.473878,5.099 v 4.215 h -6.773 V 5.363 h 3.387 l 0.282,-0.564 h 2.822 c 0.141,0 0.282,0.151 0.282,0.301 z"
       style="fill:#2a2d36;fill-opacity:1;stroke:none"
       id="path33"
       inkscape:connector-curvature="0" />
    <path
       d="m 7.703878,5.854 c -0.013,0 -0.022,0.003 -0.029,0.014 -0.035,0.062 0.034,0.262 -0.019,0.367 -0.052,0.105 -0.052,0.131 -0.471,0.079 -0.419,-0.052 -1.047,0.131 -1.273,0.357 -0.229,0.227 -0.619,0.803 -0.7,1.135 -0.077,0.332 -0.042,0.349 0.063,0.298 0.104,-0.053 0.192,-0.516 0.809,-0.82 0.62,-0.305 0.909,-0.062 0.909,-0.062 0,0 -0.533,-0.071 -0.925,0.253 -0.392,0.324 -0.637,0.575 -0.628,0.675 0.009,0.096 0.043,0.076 0.106,0 0.061,-0.079 0.427,-0.559 0.863,-0.717 0.436,-0.159 0.619,-0.148 0.785,-0.061 0.166,0.087 0.202,0.172 -0.033,0.233 -0.237,0.063 -0.333,0.035 -0.333,0.035 0,0 0.201,0.183 0.487,0.183 0.289,0 0.464,-0.018 0.464,-0.018 0,0 0.714,0.742 0.898,0.891 0.182,0.148 0.385,0.078 0.385,-10e-4 0,-0.087 -0.088,-0.332 -0.088,-0.332 0,0 0.183,-0.411 -0.028,-0.873 -0.209,-0.463 -0.785,-0.941 -0.785,-0.941 0,0 -0.061,-0.262 -0.191,-0.437 -0.106,-0.141 -0.213,-0.248 -0.268,-0.25 m -2.971,2.114 c -0.025,0 -0.052,0.008 -0.076,0.022 -0.201,0.113 -0.096,0.315 0.079,0.315 0.174,0 0.366,-0.071 0.366,-0.071 0,0 -0.187,-0.273 -0.369,-0.266 m 0.386,0.336 c 0,0 -0.391,0.06 -0.435,0.244 -0.044,0.183 0.164,0.236 0.295,0.14 0.131,-0.096 0.14,-0.384 0.14,-0.384 m 0,0"
       style="opacity:0.6;fill:#ffffff;fill-opacity:1;fill-rule:nonzero;stroke:none"
       id="path35"
       inkscape:connector-curvature="0" />
  </g>
</svg>
