<?xml version="1.0" encoding="UTF-8" standalone="no"?>
<svg
   xmlns:dc="http://purl.org/dc/elements/1.1/"
   xmlns:cc="http://creativecommons.org/ns#"
   xmlns:rdf="http://www.w3.org/1999/02/22-rdf-syntax-ns#"
   xmlns:svg="http://www.w3.org/2000/svg"
   xmlns="http://www.w3.org/2000/svg"
   xmlns:sodipodi="http://sodipodi.sourceforge.net/DTD/sodipodi-0.dtd"
   xmlns:inkscape="http://www.inkscape.org/namespaces/inkscape"
   version="1.1"
   viewBox="0 0 48 48"
   id="svg29"
   sodipodi:docname="eolie.svg"
   inkscape:version="0.92.2 5c3e80d, 2017-08-06">
  <metadata
     id="metadata33">
    <rdf:RDF>
      <cc:Work
         rdf:about="">
        <dc:format>image/svg+xml</dc:format>
        <dc:type
           rdf:resource="http://purl.org/dc/dcmitype/StillImage" />
      </cc:Work>
    </rdf:RDF>
  </metadata>
  <sodipodi:namedview
     pagecolor="#ffffff"
     bordercolor="#666666"
     borderopacity="1"
     objecttolerance="10"
     gridtolerance="10"
     guidetolerance="10"
     inkscape:pageopacity="0"
     inkscape:pageshadow="2"
     inkscape:window-width="785"
     inkscape:window-height="480"
     id="namedview31"
     showgrid="false"
     inkscape:zoom="4.9166667"
     inkscape:cx="24"
     inkscape:cy="24"
     inkscape:window-x="74"
     inkscape:window-y="27"
     inkscape:window-maximized="0"
     inkscape:current-layer="svg29" />
  <defs
     id="defs7">
    <linearGradient
       id="linearGradient3764"
       x1="1"
       x2="47"
       gradientTransform="matrix(0 -1 1 0 -1.5e-6 48)"
       gradientUnits="userSpaceOnUse">
      <stop
         style="stop-color:#d5edf3"
         offset="0"
         id="stop2" />
      <stop
         style="stop-color:#e5f4f7"
         offset="1"
         id="stop4" />
    </linearGradient>
  </defs>
  <path
     d="m36.31 5c5.859 4.062 9.688 10.831 9.688 18.5 0 12.426-10.07 22.5-22.5 22.5-7.669 0-14.438-3.828-18.5-9.688 1.037 1.822 2.306 3.499 3.781 4.969 4.085 3.712 9.514 5.969 15.469 5.969 12.703 0 23-10.298 23-23 0-5.954-2.256-11.384-5.969-15.469-1.469-1.475-3.147-2.744-4.969-3.781zm4.969 3.781c3.854 4.113 6.219 9.637 6.219 15.719 0 12.703-10.297 23-23 23-6.081 0-11.606-2.364-15.719-6.219 4.16 4.144 9.883 6.719 16.219 6.719 12.703 0 23-10.298 23-23 0-6.335-2.575-12.06-6.719-16.219z"
     style="opacity:.05"
     id="path9" />
  <path
     d="m41.28 8.781c3.712 4.085 5.969 9.514 5.969 15.469 0 12.703-10.297 23-23 23-5.954 0-11.384-2.256-15.469-5.969 4.113 3.854 9.637 6.219 15.719 6.219 12.703 0 23-10.298 23-23 0-6.081-2.364-11.606-6.219-15.719z"
     style="opacity:.1"
     id="path11" />
  <path
     d="m31.25 2.375c8.615 3.154 14.75 11.417 14.75 21.13 0 12.426-10.07 22.5-22.5 22.5-9.708 0-17.971-6.135-21.12-14.75a23 23 0 0 0 44.875 -7 23 23 0 0 0 -16 -21.875z"
     style="opacity:.2"
     id="path13" />
  <path
     d="m24 1c12.703 0 23 10.297 23 23s-10.297 23-23 23-23-10.297-23-23 10.297-23 23-23z"
     style="fill:#ececec"
     id="path15" />
  <path
     d="m40.03 7.531c3.712 4.084 5.969 9.514 5.969 15.469 0 12.703-10.297 23-23 23-5.954 0-11.384-2.256-15.469-5.969 4.178 4.291 10.01 6.969 16.469 6.969 12.703 0 23-10.298 23-23 0-6.462-2.677-12.291-6.969-16.469z"
     style="opacity:.1"
     id="path17" />
  <path
     d="m25 9-3.0137 8.6113c-0.44413 0.18223-0.87742 0.39113-1.2852 0.65234l-5.7012-3.2637 3.2578 5.6934c-0.26236 0.41079-0.47005 0.84742-0.65234 1.2949l-8.6055 3.0117 8.6133 3.0137c0.18211 0.44346 0.38954 0.87799 0.65039 1.2852l-3.2637 5.7012 5.6934-3.2578c0.41079 0.26236 0.84742 0.47003 1.2949 0.65234l3.0117 8.6055 3.0156-8.6133c0.44346-0.18209 0.87604-0.38954 1.2832-0.65039l5.7012 3.2637-3.2578-5.6934c0.26203-0.41027 0.47018-0.84803 0.65234-1.2949l8.6055-3.0117-8.6113-3.0137c-0.18225-0.44413-0.39113-0.87742-0.65234-1.2852l3.2637-5.7012-5.6934 3.2578c-0.41079-0.26236-0.84742-0.47003-1.2949-0.65234zm0 11c2.7614 0 5 2.2386 5 5s-2.2386 5-5 5-5-2.2386-5-5 2.2386-5 5-5zm0 2a3 3 0 0 0 -3 3 3 3 0 0 0 3 3 3 3 0 0 0 3 -3 3 3 0 0 0 -3 -3z"
     style="opacity:.1"
     id="path19" />
  <path
     d="m24 8-3.5 10 5.5-0.9994zm6 12.5 1 5.5003l9-2.0003zm-22 3.5 9.9997 3.5-0.9994-5.4997zm19.5 6-5.4997 1.0003 2 8.9997z"
     style="fill:#48a0e4"
     id="path21" />
  <circle
     cx="24"
     cy="24"
     r="3"
     style="fill:#0a2d56"
     id="circle23" />
  <path
     d="m24 8v10h3.5zm-6 12.5-10 3.5h10zm12 3.5v3.5l10-3.5zm-9.5 6 3.4997 10 3e-4 -10z"
     style="fill:#6ec3f0"
     id="path25" />
  <path
     d="m14 14 3.2578 5.6931c-0.82147 1.2862-1.2594 2.7805-1.2578 4.3066 0.0016 1.5241 0.44157 3.0155 1.2637 4.2988l-3.2637 5.7014 5.6934-3.2581c1.2862 0.82147 2.7805 1.2596 4.3066 1.2578 1.5241-0.0018 3.0155-0.44157 4.2988-1.2637l5.7012 3.2639-3.2578-5.6936c0.82147-1.2862 1.2594-2.7805 1.2578-4.3066-0.001599-1.5241-0.44157-3.0155-1.2637-4.2988l3.2637-5.7009-5.6934 3.2575c-1.2862-0.82147-2.7805-1.2596-4.3066-1.2578-1.5241 0.0018-3.0155 0.44157-4.2988 1.2637zm10 4.9997c2.7614 0 5 2.2386 5 5s-2.2386 5-5 5-5-2.2386-5-5 2.2386-5 5-5z"
     style="fill:#1867c6"
     id="path27" />
</svg>
