<?xml version="1.0" encoding="UTF-8" standalone="no"?>
<svg
   xmlns:dc="http://purl.org/dc/elements/1.1/"
   xmlns:cc="http://creativecommons.org/ns#"
   xmlns:rdf="http://www.w3.org/1999/02/22-rdf-syntax-ns#"
   xmlns:svg="http://www.w3.org/2000/svg"
   xmlns="http://www.w3.org/2000/svg"
   xmlns:sodipodi="http://sodipodi.sourceforge.net/DTD/sodipodi-0.dtd"
   xmlns:inkscape="http://www.inkscape.org/namespaces/inkscape"
   version="1.1"
   viewBox="0 0 48 48"
   id="svg23"
   sodipodi:docname="gitkraken.svg"
   inkscape:version="0.92.2 5c3e80d, 2017-08-06">
  <metadata
     id="metadata27">
    <rdf:RDF>
      <cc:Work
         rdf:about="">
        <dc:format>image/svg+xml</dc:format>
        <dc:type
           rdf:resource="http://purl.org/dc/dcmitype/StillImage" />
      </cc:Work>
    </rdf:RDF>
  </metadata>
  <sodipodi:namedview
     pagecolor="#ffffff"
     bordercolor="#666666"
     borderopacity="1"
     objecttolerance="10"
     gridtolerance="10"
     guidetolerance="10"
     inkscape:pageopacity="0"
     inkscape:pageshadow="2"
     inkscape:window-width="785"
     inkscape:window-height="480"
     id="namedview25"
     showgrid="false"
     inkscape:zoom="4.9166667"
     inkscape:cx="24"
     inkscape:cy="24"
     inkscape:window-x="74"
     inkscape:window-y="27"
     inkscape:window-maximized="0"
     inkscape:current-layer="svg23" />
  <defs
     id="defs7">
    <linearGradient
       id="linearGradient840"
       x2="0"
       y1="47"
       y2="1"
       gradientUnits="userSpaceOnUse">
      <stop
         style="stop-color:#262937"
         offset="0"
         id="stop2" />
      <stop
         style="stop-color:#2e3142"
         offset="1"
         id="stop4" />
    </linearGradient>
  </defs>
  <path
     d="m36.31 5c5.859 4.062 9.688 10.831 9.688 18.5 0 12.426-10.07 22.5-22.5 22.5-7.669 0-14.438-3.828-18.5-9.688 1.037 1.822 2.306 3.499 3.781 4.969 4.085 3.712 9.514 5.969 15.469 5.969 12.703 0 23-10.298 23-23 0-5.954-2.256-11.384-5.969-15.469-1.469-1.475-3.147-2.744-4.969-3.781zm4.969 3.781c3.854 4.113 6.219 9.637 6.219 15.719 0 12.703-10.297 23-23 23-6.081 0-11.606-2.364-15.719-6.219 4.16 4.144 9.883 6.719 16.219 6.719 12.703 0 23-10.298 23-23 0-6.335-2.575-12.06-6.719-16.219z"
     style="opacity:.05"
     id="path9" />
  <path
     d="m41.28 8.781c3.712 4.085 5.969 9.514 5.969 15.469 0 12.703-10.297 23-23 23-5.954 0-11.384-2.256-15.469-5.969 4.113 3.854 9.637 6.219 15.719 6.219 12.703 0 23-10.298 23-23 0-6.081-2.364-11.606-6.219-15.719z"
     style="opacity:.1"
     id="path11" />
  <path
     d="m31.25 2.375c8.615 3.154 14.75 11.417 14.75 21.13 0 12.426-10.07 22.5-22.5 22.5-9.708 0-17.971-6.135-21.12-14.75a23 23 0 0 0 44.875-7 23 23 0 0 0-16-21.875z"
     style="opacity:.2"
     id="path13" />
  <circle
     cx="24"
     cy="24"
     r="23"
     style="fill:#ececec"
     id="circle15" />
  <path
     d="m18.722 13.672a0.50005 0.50005 0 0 0-0.22266 0.07031c-5.0934 2.9407-7.5788 8.942-6.0566 14.623 1.1752 4.3859 4.5555 7.8408 8.9141 9.1133a0.50005 0.50005 0 0 0 0.64062-0.47852v-4.6035a8 8 0 0 0 1 0.33984v6.0547c-2.2959-0.33447-4.4935-1.1714-6.3594-2.5605-4.9631-3.695-6.9111-10.203-4.7949-16.018a0.50005 0.50005 0 0 0-0.5-0.67774 0.50005 0.50005 0 0 0-0.43945 0.33594c-2.2658 6.2256-0.17535 13.206 5.1387 17.162 2.1635 1.6107 4.7216 2.6074 7.4043 2.8867a0.50005 0.50005 0 0 0 0.55078-0.49609v-6.4941a8 8 0 0 0 1.002 0.07031 8 8 0 0 0 1.002-0.07227v6.4961a0.50005 0.50005 0 0 0 0.55274 0.49609c2.6822-0.2795 5.2393-1.2763 7.4023-2.8867 5.314-3.9562 7.4026-10.937 5.1367-17.162a0.50005 0.50005 0 0 0-0.50391-0.33594 0.50005 0.50005 0 0 0-0.43555 0.67774c2.1162 5.8145 0.16813 12.323-4.7949 16.018-1.866 1.3892-4.0613 2.2281-6.3574 2.5625v-6.0625a8 8 0 0 0 1.002-0.32812v4.5977a0.50005 0.50005 0 0 0 0.63867 0.47852c4.3584-1.2725 7.7389-4.7276 8.9141-9.1133 1.5222-5.681-0.96327-11.682-6.0566-14.623a0.50005 0.50005 0 0 0-0.28711-0.07031 0.50005 0.50005 0 0 0-0.21289 0.93555c4.7056 2.7168 6.9981 8.2495 5.5918 13.498-1.0237 3.8205-3.8914 6.8128-7.5879 8.1328v-4.291a2.5 2.5 0 0 0 1.9961-2.4473 2.5 2.5 0 0 0-1.5469-2.3086c0.83746-3.9702 2.5469-2.5947 2.5469-4.1055v-0.54883c0-1.4197-4.2948-8.5371-7-8.5371s-7 7.1174-7 8.5371v0.54883c0 1.5106 1.7093 0.13532 2.5469 4.1035a2.5 2.5 0 0 0-1.5469 2.3105 2.5 2.5 0 0 0 1.998 2.4453v4.2949c-3.6978-1.3195-6.5659-4.3133-7.5898-8.1348-1.4063-5.2485 0.88617-10.781 5.5918-13.498a0.50005 0.50005 0 0 0-0.27734-0.93554zm2.7773 14.328a1.5 1.5 0 0 1 1.5 1.5 1.5 1.5 0 0 1-1.5 1.5 1.5 1.5 0 0 1-1.5-1.5 1.5 1.5 0 0 1 1.5-1.5zm7 0a1.5 1.5 0 0 1 1.5 1.5 1.5 1.5 0 0 1-1.5 1.5 1.5 1.5 0 0 1-1.5-1.5 1.5 1.5 0 0 1 1.5-1.5z"
     style="opacity:.1"
     id="path17" />
  <path
     d="m17.723 12.672a0.50005 0.50005 0 0 0-0.22266 0.070313c-5.0934 2.9407-7.5788 8.942-6.0566 14.623 1.1752 4.3859 4.5555 7.8408 8.9141 9.1133a0.50005 0.50005 0 0 0 0.64062-0.47852v-4.6035a8 8 0 0 0 1 0.33984v6.0547c-2.2959-0.33447-4.4935-1.1714-6.3594-2.5605-4.9631-3.695-6.9111-10.203-4.7949-16.018a0.50005 0.50005 0 0 0-0.5-0.67774 0.50005 0.50005 0 0 0-0.43945 0.33594c-2.2658 6.2256-0.17535 13.206 5.1387 17.162 2.1635 1.6107 4.7216 2.6074 7.4043 2.8867a0.50005 0.50005 0 0 0 0.55078-0.49609v-6.4941a8 8 0 0 0 1.002 0.070312 8 8 0 0 0 1.002-0.072266v6.4961a0.50005 0.50005 0 0 0 0.55274 0.49609c2.6822-0.2795 5.2393-1.2763 7.4023-2.8867 5.314-3.9562 7.4026-10.937 5.1367-17.162a0.50005 0.50005 0 0 0-0.50391-0.33594 0.50005 0.50005 0 0 0-0.43555 0.67774c2.1162 5.8145 0.16813 12.323-4.7949 16.018-1.866 1.3892-4.0613 2.2281-6.3574 2.5625v-6.0625a8 8 0 0 0 1.002-0.32812v4.5977a0.50005 0.50005 0 0 0 0.63867 0.47852c4.3584-1.2725 7.7389-4.7276 8.9141-9.1133 1.5222-5.681-0.96327-11.682-6.0566-14.623a0.50005 0.50005 0 0 0-0.28711-0.070313 0.50005 0.50005 0 0 0-0.21289 0.93555c4.7056 2.7168 6.9981 8.2495 5.5918 13.498-1.0237 3.8205-3.8914 6.8128-7.5879 8.1328v-4.291a2.5 2.5 0 0 0 1.9961-2.4473 2.5 2.5 0 0 0-1.5469-2.3086c0.83746-3.9702 2.5469-2.5947 2.5469-4.1055v-0.54883c0-1.4197-4.2948-8.5371-7-8.5371s-7 7.1174-7 8.5371v0.54883c0 1.5106 1.7093 0.13532 2.5469 4.1035a2.5 2.5 0 0 0-1.5469 2.3105 2.5 2.5 0 0 0 1.998 2.4453v4.2949c-3.6978-1.3195-6.5659-4.3133-7.5898-8.1348-1.4063-5.2485 0.88617-10.781 5.5918-13.498a0.50005 0.50005 0 0 0-0.27734-0.93555zm2.7773 14.328a1.5 1.5 0 0 1 1.5 1.5 1.5 1.5 0 0 1-1.5 1.5 1.5 1.5 0 0 1-1.5-1.5 1.5 1.5 0 0 1 1.5-1.5zm7 0a1.5 1.5 0 0 1 1.5 1.5 1.5 1.5 0 0 1-1.5 1.5 1.5 1.5 0 0 1-1.5-1.5 1.5 1.5 0 0 1 1.5-1.5z"
     style="fill:#149287"
     id="path19" />
  <path
     d="m40.03 7.531c3.712 4.084 5.969 9.514 5.969 15.469 0 12.703-10.297 23-23 23-5.954 0-11.384-2.256-15.469-5.969 4.178 4.291 10.01 6.969 16.469 6.969 12.703 0 23-10.298 23-23 0-6.462-2.677-12.291-6.969-16.469z"
     style="opacity:.1"
     id="path21" />
</svg>
