<?xml version="1.0" encoding="UTF-8" standalone="no"?>
<svg
   xmlns:dc="http://purl.org/dc/elements/1.1/"
   xmlns:cc="http://creativecommons.org/ns#"
   xmlns:rdf="http://www.w3.org/1999/02/22-rdf-syntax-ns#"
   xmlns:svg="http://www.w3.org/2000/svg"
   xmlns="http://www.w3.org/2000/svg"
   xmlns:sodipodi="http://sodipodi.sourceforge.net/DTD/sodipodi-0.dtd"
   xmlns:inkscape="http://www.inkscape.org/namespaces/inkscape"
   version="1.1"
   viewBox="0 0 48 48"
   id="svg24"
   sodipodi:docname="harvey.svg"
   inkscape:version="0.92.2 5c3e80d, 2017-08-06">
  <metadata
     id="metadata30">
    <rdf:RDF>
      <cc:Work
         rdf:about="">
        <dc:format>image/svg+xml</dc:format>
        <dc:type
           rdf:resource="http://purl.org/dc/dcmitype/StillImage" />
      </cc:Work>
    </rdf:RDF>
  </metadata>
  <defs
     id="defs28" />
  <sodipodi:namedview
     pagecolor="#ffffff"
     bordercolor="#666666"
     borderopacity="1"
     objecttolerance="10"
     gridtolerance="10"
     guidetolerance="10"
     inkscape:pageopacity="0"
     inkscape:pageshadow="2"
     inkscape:window-width="785"
     inkscape:window-height="480"
     id="namedview26"
     showgrid="false"
     inkscape:zoom="4.9166667"
     inkscape:cx="24"
     inkscape:cy="24"
     inkscape:window-x="74"
     inkscape:window-y="27"
     inkscape:window-maximized="0"
     inkscape:current-layer="svg24" />
  <path
     d="m36.31 5c5.859 4.062 9.688 10.831 9.688 18.5 0 12.426-10.07 22.5-22.5 22.5-7.669 0-14.438-3.828-18.5-9.688 1.037 1.822 2.306 3.499 3.781 4.969 4.085 3.712 9.514 5.969 15.469 5.969 12.703 0 23-10.298 23-23 0-5.954-2.256-11.384-5.969-15.469-1.469-1.475-3.147-2.744-4.969-3.781zm4.969 3.781c3.854 4.113 6.219 9.637 6.219 15.719 0 12.703-10.297 23-23 23-6.081 0-11.606-2.364-15.719-6.219 4.16 4.144 9.883 6.719 16.219 6.719 12.703 0 23-10.298 23-23 0-6.335-2.575-12.06-6.719-16.219z"
     style="opacity:.05"
     id="path2" />
  <path
     d="m41.28 8.781c3.712 4.085 5.969 9.514 5.969 15.469 0 12.703-10.297 23-23 23-5.954 0-11.384-2.256-15.469-5.969 4.113 3.854 9.637 6.219 15.719 6.219 12.703 0 23-10.298 23-23 0-6.081-2.364-11.606-6.219-15.719z"
     style="opacity:.1"
     id="path4" />
  <path
     d="m31.25 2.375c8.615 3.154 14.75 11.417 14.75 21.13 0 12.426-10.07 22.5-22.5 22.5-9.708 0-17.971-6.135-21.12-14.75a23 23 0 0 0 44.875 -7 23 23 0 0 0 -16 -21.875z"
     style="opacity:.2"
     id="path6" />
  <path
     d="m24 1c-1.721 0-3.387 0.204-5 0.563v44.875c1.613 0.358 3.279 0.563 5 0.563s3.387-0.204 5-0.563v-44.875c-1.613-0.358-3.279-0.563-5-0.563z"
     style="fill:#f3f284"
     id="path8" />
  <path
     d="m9 6.563c-4.897 4.218-8 10.467-8 17.438s3.103 13.22 8 17.438v-34.875z"
     style="fill:#ececec"
     id="path10" />
  <path
     d="m19 1.563c-3.76 0.835-7.182 2.573-10 5v34.875c2.818 2.427 6.24 4.165 10 5v-44.875z"
     style="fill:#9add9c"
     id="path12" />
  <path
     d="m29 1.563v44.875c3.76-0.835 7.182-2.573 10-5v-34.875c-2.818-2.427-6.24-4.165-10-5z"
     style="fill:#edb968"
     id="path14" />
  <path
     d="m39 6.563v34.875c4.897-4.218 8-10.467 8-17.438s-3.103-13.22-8-17.438z"
     style="fill:#ececec"
     id="path16" />
  <path
     d="m40.03 7.531c3.712 4.084 5.969 9.514 5.969 15.469 0 12.703-10.297 23-23 23-5.954 0-11.384-2.256-15.469-5.969 4.178 4.291 10.01 6.969 16.469 6.969 12.703 0 23-10.298 23-23 0-6.462-2.677-12.291-6.969-16.469z"
     style="opacity:.1"
     id="path18" />
  <path
     d="m34 15-13 14-5-5-3 3 8 8 16-17z"
     style="fill-rule:evenodd;opacity:.1"
     id="path20" />
  <path
     d="m33 14-13 14-5-5-3 3 8 8 16-17z"
     style="fill-rule:evenodd;fill:#333"
     id="path22" />
</svg>
