<?xml version="1.0" encoding="UTF-8" standalone="no"?>
<svg
   xmlns:dc="http://purl.org/dc/elements/1.1/"
   xmlns:cc="http://creativecommons.org/ns#"
   xmlns:rdf="http://www.w3.org/1999/02/22-rdf-syntax-ns#"
   xmlns:svg="http://www.w3.org/2000/svg"
   xmlns="http://www.w3.org/2000/svg"
   xmlns:xlink="http://www.w3.org/1999/xlink"
   xmlns:sodipodi="http://sodipodi.sourceforge.net/DTD/sodipodi-0.dtd"
   xmlns:inkscape="http://www.inkscape.org/namespaces/inkscape"
   viewBox="0 0 48 48"
   id="svg2"
   version="1.1"
   inkscape:version="0.92.2 2405546, 2018-03-11"
   sodipodi:docname="hexchat.svg">
  <metadata
     id="metadata43">
    <rdf:RDF>
      <cc:Work
         rdf:about="">
        <dc:format>image/svg+xml</dc:format>
        <dc:type
           rdf:resource="http://purl.org/dc/dcmitype/StillImage" />
        <dc:title />
      </cc:Work>
    </rdf:RDF>
  </metadata>
  <sodipodi:namedview
     pagecolor="#ffffff"
     bordercolor="#666666"
     borderopacity="1"
     objecttolerance="10"
     gridtolerance="10"
     guidetolerance="10"
     inkscape:pageopacity="0"
     inkscape:pageshadow="2"
     inkscape:window-width="1853"
     inkscape:window-height="1024"
     id="namedview41"
     showgrid="false"
     inkscape:zoom="3.4766083"
     inkscape:cx="-90.481969"
     inkscape:cy="31.659176"
     inkscape:window-x="67"
     inkscape:window-y="28"
     inkscape:window-maximized="0"
     inkscape:current-layer="g1615" />
  <defs
     id="defs4">
    <linearGradient
       id="linearGradient3764"
       x1="1"
       x2="47"
       gradientUnits="userSpaceOnUse"
       gradientTransform="matrix(0,-1,1,0,-1.5e-6,47.999998)">
      <stop
         style="stop-color:#39569d;stop-opacity:1"
         id="stop7" />
      <stop
         offset="1"
         style="stop-color:#3f5eab;stop-opacity:1"
         id="stop9" />
    </linearGradient>
    <linearGradient
       id="linearGradient-1"
       y2="38.164889"
       x2="24.921584"
       y1="13.548017"
       x1="5.8280658"
       gradientTransform="scale(1.1392504,0.87777013)"
       gradientUnits="userSpaceOnUse">
      <stop
         id="stop4699"
         offset="0%"
         stop-color="#FFFFFF" />
      <stop
         id="stop4701"
         offset="100%"
         stop-opacity="0.501500226"
         stop-color="#FFFFFF" />
    </linearGradient>
    <linearGradient
       id="linearGradient-2"
       y2="16.845859"
       x2="12.461589"
       y1="0"
       x1="29.705008"
       gradientTransform="scale(1.1113063,0.89984189)"
       gradientUnits="userSpaceOnUse">
      <stop
         id="stop4704"
         offset="0%"
         stop-opacity="0.481346241"
         stop-color="#FFFFFF" />
      <stop
         id="stop4706"
         offset="100%"
         stop-color="#FFFFFF" />
    </linearGradient>
    <linearGradient
       id="linearGradient-1-1"
       y2="46"
       x2="24"
       y1="3.2618781"
       x1="24"
       gradientUnits="userSpaceOnUse">
      <stop
         id="stop5020"
         offset="0%"
         stop-color="#0090FF" />
      <stop
         id="stop5022"
         offset="100%"
         stop-color="#0076FF" />
    </linearGradient>
    <circle
       r="9"
       cy="9"
       cx="9"
       id="path-2" />
    <radialGradient
       r="2.5"
       gradientTransform="matrix(2.0038,0,0,1.4,27.988,-17.4)"
       cx="4.993"
       cy="43.5"
       gradientUnits="userSpaceOnUse"
       xlink:href="#a"
       id="d" />
    <linearGradient
       id="a">
      <stop
         offset="0"
         stop-color="#181818"
         id="stop22" />
      <stop
         offset="1"
         stop-opacity="0"
         stop-color="#181818"
         id="stop24" />
    </linearGradient>
    <radialGradient
       r="2.5"
       gradientTransform="matrix(2.0038,0,0,1.4,-20.012,-104.4)"
       cx="4.993"
       cy="43.5"
       gradientUnits="userSpaceOnUse"
       xlink:href="#a"
       id="c" />
    <linearGradient
       x1="25.058"
       y1="47.028"
       x2="25.058"
       gradientUnits="userSpaceOnUse"
       y2="39.999"
       id="g">
      <stop
         offset="0"
         stop-opacity="0"
         stop-color="#181818"
         id="stop28" />
      <stop
         offset="0.5"
         stop-color="#181818"
         id="stop30" />
      <stop
         offset="1"
         stop-opacity="0"
         stop-color="#181818"
         id="stop32" />
    </linearGradient>
    <linearGradient
       x1="63.004"
       y1="16.255"
       gradientTransform="translate(-0.02060563)"
       x2="63.771"
       gradientUnits="userSpaceOnUse"
       y2="51.244"
       id="linearGradient4086">
      <stop
         offset="0"
         stop-opacity="0.39215687"
         stop-color="#FFF"
         id="stop4454" />
      <stop
         offset="0.034681"
         stop-opacity="0.23529412"
         stop-color="#FFF"
         id="stop4456" />
      <stop
         offset="0.52894"
         stop-opacity="0.15686275"
         stop-color="#FFF"
         id="stop4458" />
      <stop
         offset="1"
         stop-opacity="0.58823532"
         stop-color="#FFF"
         id="stop4460" />
    </linearGradient>
    <linearGradient
       x1="64.192"
       y1="77.523"
       gradientTransform="translate(-0.02060563)"
       x2="64.059"
       gradientUnits="userSpaceOnUse"
       y2="110.4"
       id="linearGradient4098">
      <stop
         offset="0"
         stop-opacity="0.39215687"
         stop-color="#FFF"
         id="stop4444" />
      <stop
         offset="0.055285"
         stop-opacity="0.23529412"
         stop-color="#FFF"
         id="stop4446" />
      <stop
         offset="0.84541"
         stop-opacity="0.15686275"
         stop-color="#FFF"
         id="stop4448" />
      <stop
         offset="1"
         stop-opacity="0.58823532"
         stop-color="#FFF"
         id="stop4450" />
    </linearGradient>
    <linearGradient
       x1="29.017"
       y1="38.046"
       gradientTransform="translate(-0.02060563)"
       x2="28.725"
       gradientUnits="userSpaceOnUse"
       y2="89.941"
       id="linearGradient4110">
      <stop
         offset="0"
         stop-opacity="0.39215687"
         stop-color="#FFF"
         id="stop4416" />
      <stop
         offset="0.077913"
         stop-opacity="0.23529412"
         stop-color="#FFF"
         id="stop4418" />
      <stop
         offset="0.48638"
         stop-opacity="0.15686275"
         stop-color="#FFF"
         id="stop4420" />
      <stop
         offset="1"
         stop-opacity="0.58823532"
         stop-color="#FFF"
         id="stop4422" />
    </linearGradient>
    <linearGradient
       x1="99.932"
       y1="39.809"
       gradientTransform="translate(-0.02060563)"
       x2="99.098"
       gradientUnits="userSpaceOnUse"
       y2="92.11"
       id="linearGradient4122">
      <stop
         offset="0"
         stop-opacity="0.39215687"
         stop-color="#FFF"
         id="stop4426" />
      <stop
         offset="0.034681"
         stop-opacity="0.23529412"
         stop-color="#FFF"
         id="stop4428" />
      <stop
         offset="0.44173"
         stop-opacity="0.15686275"
         stop-color="#FFF"
         id="stop4430" />
      <stop
         offset="1"
         stop-opacity="0.58823532"
         stop-color="#FFF"
         id="stop4432" />
    </linearGradient>
    <linearGradient
       x1="64.25"
       y1="118.55"
       gradientTransform="translate(-0.02060563)"
       x2="64.25"
       gradientUnits="userSpaceOnUse"
       y2="12.465"
       id="linearGradient4406">
      <stop
         offset="0"
         stop-opacity="0.39215687"
         stop-color="#FFF"
         id="stop4402" />
      <stop
         offset="0.034681"
         stop-opacity="0.23529412"
         stop-color="#FFF"
         id="stop4412" />
      <stop
         offset="0.94651"
         stop-opacity="0.15686275"
         stop-color="#FFF"
         id="stop4410" />
      <stop
         offset="1"
         stop-opacity="0.58823532"
         stop-color="#FFF"
         id="stop4404" />
    </linearGradient>
    <radialGradient
       r="60"
       gradientTransform="matrix(0,2.0783476,-1.4572363,0,158.71085,-23.908423)"
       cx="11.622"
       cy="66.316"
       gradientUnits="userSpaceOnUse"
       id="radialGradient4676">
      <stop
         offset="0"
         stop-color="#ffc100"
         id="stop3959" />
      <stop
         offset="0.76353"
         stop-color="#F50"
         id="stop3980" />
      <stop
         offset="1"
         stop-color="#f02700"
         id="stop3961" />
    </radialGradient>
  </defs>
  <g
     id="g11">
    <path
       d="m 36.31 5 c 5.859 4.062 9.688 10.831 9.688 18.5 c 0 12.426 -10.07 22.5 -22.5 22.5 c -7.669 0 -14.438 -3.828 -18.5 -9.688 c 1.037 1.822 2.306 3.499 3.781 4.969 c 4.085 3.712 9.514 5.969 15.469 5.969 c 12.703 0 23 -10.298 23 -23 c 0 -5.954 -2.256 -11.384 -5.969 -15.469 c -1.469 -1.475 -3.147 -2.744 -4.969 -3.781 z m 4.969 3.781 c 3.854 4.113 6.219 9.637 6.219 15.719 c 0 12.703 -10.297 23 -23 23 c -6.081 0 -11.606 -2.364 -15.719 -6.219 c 4.16 4.144 9.883 6.719 16.219 6.719 c 12.703 0 23 -10.298 23 -23 c 0 -6.335 -2.575 -12.06 -6.719 -16.219 z"
       style="opacity:0.05"
       id="path13" />
    <path
       d="m 41.28 8.781 c 3.712 4.085 5.969 9.514 5.969 15.469 c 0 12.703 -10.297 23 -23 23 c -5.954 0 -11.384 -2.256 -15.469 -5.969 c 4.113 3.854 9.637 6.219 15.719 6.219 c 12.703 0 23 -10.298 23 -23 c 0 -6.081 -2.364 -11.606 -6.219 -15.719 z"
       style="opacity:0.1"
       id="path15" />
    <path
       d="m 31.25 2.375 c 8.615 3.154 14.75 11.417 14.75 21.13 c 0 12.426 -10.07 22.5 -22.5 22.5 c -9.708 0 -17.971 -6.135 -21.12 -14.75 a 23 23 0 0 0 44.875 -7 a 23 23 0 0 0 -16 -21.875 z"
       style="opacity:0.2"
       id="path17" />
  </g>
  <g
     id="g19"
     style="fill:#e6e6e6;fill-opacity:1">
    <path
       d="m 24 1 c 12.703 0 23 10.297 23 23 c 0 12.703 -10.297 23 -23 23 -12.703 0 -23 -10.297 -23 -23 0 -12.703 10.297 -23 23 -23 z"
       style="fill:#e6e6e6;fill-opacity:1"
       id="path21" />
  </g>
  <g
     id="g23">
    <g
       id="g25">
      <g
         transform="translate(1,1)"
         id="g27">
        <g
           style="opacity:0.1"
           id="g29">
          <!-- color: #3a569c -->
        </g>
      </g>
    </g>
  </g>
  <g
     id="g31">
    <path
       d="m 40.03 7.531 c 3.712 4.084 5.969 9.514 5.969 15.469 0 12.703 -10.297 23 -23 23 c -5.954 0 -11.384 -2.256 -15.469 -5.969 4.178 4.291 10.01 6.969 16.469 6.969 c 12.703 0 23 -10.298 23 -23 0 -6.462 -2.677 -12.291 -6.969 -16.469 z"
       style="opacity:0.1"
       id="path33" />
  </g>
  <g
     id="g6990"
     transform="matrix(0.78962745,0,0,0.78693581,5.31989,2.2547808)">
    <g
       id="g6988">
      <g
         id="g6986">
        <g
           id="g1615"
           transform="matrix(0.40982937,0,0,0.39658878,-2.4541264,1.1583239)">
          <g
             transform="matrix(1.8314079,0,0,0.55556,20.277501,94.94)"
             id="g43">
            <g
               transform="matrix(1.0526,0,0,1.2857,-1.2632,-13.429)"
               id="g45"
               style="opacity:0.4">
              <rect
                 x="38"
                 y="40"
                 width="5"
                 height="7"
                 id="rect47"
                 style="fill:url(#d)" />
              <rect
                 x="-10"
                 y="-47"
                 width="5"
                 height="7"
                 transform="scale(-1)"
                 id="rect49"
                 style="fill:url(#c)" />
              <rect
                 x="10"
                 y="40"
                 width="28"
                 height="7"
                 id="rect51"
                 style="fill:url(#g)" />
            </g>
          </g>
          <path
             d="m 38.587,12.015 c -3.072,0.11912 -5.9191,0.8057 -7.5618,4.4992 l -25.873,45.085 c -1.6584,2.3209 -1.4094,4.5316 0,6.7175 l 25.842,45.054 c 1.7287,2.9714 4.0541,4.591 7.1243,4.6241 h 51.589 c 4.2789,0.12575 5.8013,-2.1699 7.4056,-4.4054 l 25.497,-44.263 c 1.7128,-2.6988 1.9885,-5.5421 0,-8.6234 L 97.1121,16.336 c -1.508,-2.732 -3.79,-4.51 -7.655,-4.312 h -50.87 z m 2.406,13.341 H 87.27 L 64.116,48.289 Z M 28.369,46.79 46.93,65.099 28.338,83.252 17.776,65.068 Z M 99.925,46.883 110.49,65.068 99.862,83.252 81.301,65.099 Z M 64.116,83.282 87.27,105.622 H 40.962 Z"
             style="color:#000000;text-indent:0;text-transform:none;fill:url(#radialGradient4676);fill-rule:evenodd"
             id="path4662"
             inkscape:connector-curvature="0" />
          <path
             d="m 90.456,12.977 -52.875,0.08365 c -2.3897,0.06183 -4.7011,1.455 -5.5937,3.7987 l -25.9,45.073 c -1.8238,2.2884 -1.1209,4.0292 -0.09906,5.8285 l 25.531,44.59 c 1.5309,2.7375 3.6245,4.7168 7.2243,4.6658 l 50.447,0.0143 c 3.7686,0.12031 5.6359,-1.4225 7.3896,-4.5076 l 25.28,-43.923 c 0.88165,-1.7968 1.9796,-3.9479 -0.0921,-7.325 l -25.352,-44.051 c -1.2358,-2.0464 -2.517,-4.0548 -5.9629,-4.2447 z"
             style="color:#000000;text-indent:0;text-transform:none;fill:none;stroke:url(#linearGradient4406)"
             id="path4062"
             inkscape:connector-curvature="0" />
          <path
             d="m 38.485,24.277 51.249,0.07311 -25.613,25.396 z"
             style="color:#000000;text-indent:0;text-transform:none;fill:none;stroke:url(#linearGradient4086)"
             id="path4060"
             inkscape:connector-curvature="0" />
          <path
             d="M 28.129,45.135 48.313,65.094 28.308,85.069 16.595,65.062 Z"
             style="color:#000000;text-indent:0;text-transform:none;fill:none;stroke:url(#linearGradient4110)"
             id="path4058"
             inkscape:connector-curvature="0" />
          <path
             d="M 100.13,45.248 111.66,65.029 100.05,84.877 79.884,65.106 Z"
             style="color:#000000;text-indent:0;text-transform:none;fill:none;stroke:url(#linearGradient4122)"
             id="path4056"
             inkscape:connector-curvature="0" />
          <path
             d="m 64.09,81.895 25.678,24.707 -51.323,0.0182 z"
             style="color:#000000;text-indent:0;text-transform:none;fill:none;stroke:url(#linearGradient4098)"
             id="path3984"
             inkscape:connector-curvature="0" />
          <path
             d="m 38.587,12.015 c -3.072,0.11912 -5.9191,0.8057 -7.5618,4.4992 l -25.873,45.085 c -1.6584,2.3209 -1.4094,4.5316 0,6.7175 l 25.842,45.054 c 1.7287,2.9714 4.0541,4.591 7.1243,4.6241 h 51.589 c 4.2789,0.12575 5.8013,-2.1699 7.4056,-4.4054 l 25.497,-44.263 c 1.7128,-2.6988 1.9885,-5.5421 0,-8.6234 L 97.1121,16.336 c -1.508,-2.732 -3.79,-4.51 -7.655,-4.312 h -50.87 z m 2.406,13.341 H 87.27 L 64.116,48.289 Z M 28.369,46.79 46.93,65.099 28.338,83.252 17.776,65.068 Z M 99.925,46.883 110.49,65.068 99.862,83.252 81.301,65.099 Z M 64.116,83.282 87.27,105.622 H 40.962 Z"
             style="color:#000000;text-indent:0;text-transform:none;opacity:0.4;fill:none;stroke:#000000"
             id="path4769"
             inkscape:connector-curvature="0" />
        </g>
      </g>
    </g>
  </g>
</svg>
