<?xml version="1.0" encoding="UTF-8" standalone="no"?>
<svg
   xmlns:dc="http://purl.org/dc/elements/1.1/"
   xmlns:cc="http://creativecommons.org/ns#"
   xmlns:rdf="http://www.w3.org/1999/02/22-rdf-syntax-ns#"
   xmlns:svg="http://www.w3.org/2000/svg"
   xmlns="http://www.w3.org/2000/svg"
   xmlns:sodipodi="http://sodipodi.sourceforge.net/DTD/sodipodi-0.dtd"
   xmlns:inkscape="http://www.inkscape.org/namespaces/inkscape"
   version="1.1"
   viewBox="0 0 48 48"
   id="svg31"
   sodipodi:docname="mellowplayer.svg"
   inkscape:version="0.92.2 5c3e80d, 2017-08-06">
  <metadata
     id="metadata35">
    <rdf:RDF>
      <cc:Work
         rdf:about="">
        <dc:format>image/svg+xml</dc:format>
        <dc:type
           rdf:resource="http://purl.org/dc/dcmitype/StillImage" />
      </cc:Work>
    </rdf:RDF>
  </metadata>
  <sodipodi:namedview
     pagecolor="#ffffff"
     bordercolor="#666666"
     borderopacity="1"
     objecttolerance="10"
     gridtolerance="10"
     guidetolerance="10"
     inkscape:pageopacity="0"
     inkscape:pageshadow="2"
     inkscape:window-width="785"
     inkscape:window-height="480"
     id="namedview33"
     showgrid="false"
     inkscape:zoom="4.9166667"
     inkscape:cx="24"
     inkscape:cy="24"
     inkscape:window-x="74"
     inkscape:window-y="27"
     inkscape:window-maximized="0"
     inkscape:current-layer="svg31" />
  <defs
     id="defs7">
    <linearGradient
       id="linearGradient4463"
       x1="1"
       x2="47"
       gradientTransform="translate(-48)"
       gradientUnits="userSpaceOnUse">
      <stop
         style="stop-color:#2e3568"
         offset="0"
         id="stop2" />
      <stop
         style="stop-color:#343c76"
         offset="1"
         id="stop4" />
    </linearGradient>
  </defs>
  <path
     d="m36.31 5c5.859 4.062 9.688 10.831 9.688 18.5 0 12.426-10.07 22.5-22.5 22.5-7.669 0-14.438-3.828-18.5-9.688 1.037 1.822 2.306 3.499 3.781 4.969 4.085 3.712 9.514 5.969 15.469 5.969 12.703 0 23-10.298 23-23 0-5.954-2.256-11.384-5.969-15.469-1.469-1.475-3.147-2.744-4.969-3.781zm4.969 3.781c3.854 4.113 6.219 9.637 6.219 15.719 0 12.703-10.297 23-23 23-6.081 0-11.606-2.364-15.719-6.219 4.16 4.144 9.883 6.719 16.219 6.719 12.703 0 23-10.298 23-23 0-6.335-2.575-12.06-6.719-16.219z"
     style="opacity:.05"
     id="path9" />
  <path
     d="m41.28 8.781c3.712 4.085 5.969 9.514 5.969 15.469 0 12.703-10.297 23-23 23-5.954 0-11.384-2.256-15.469-5.969 4.113 3.854 9.637 6.219 15.719 6.219 12.703 0 23-10.298 23-23 0-6.081-2.364-11.606-6.219-15.719z"
     style="opacity:.1"
     id="path11" />
  <path
     d="m31.25 2.375c8.615 3.154 14.75 11.417 14.75 21.13 0 12.426-10.07 22.5-22.5 22.5-9.708 0-17.971-6.135-21.12-14.75a23 23 0 0 0 44.875-7 23 23 0 0 0-16-21.875z"
     style="opacity:.2"
     id="path13" />
  <circle
     transform="rotate(-90)"
     cx="-24"
     cy="24"
     r="23"
     style="fill:#ececec"
     id="circle15" />
  <path
     d="m22 11c-4.4183-0.0029-8.0017 3.5817-8 8 4.53e-4 1.1824 0.26754 2.3337 0.75781 3.3809-0.47213 0.76352-0.75781 1.6557-0.75781 2.6191 0 0.96393 0.28525 1.8555 0.75781 2.6191-0.49087 1.0469-0.75717 2.1985-0.75781 3.3809-0.0024 4.4183 3.5817 8.0014 8 8 2.9529-9.61e-4 5.5842-1.6232 6.9688-4.0957 1.2298-0.24099 2.2844-0.94218 3.0117-1.9062 0.0066 2e-5 0.01297 2e-3 0.01953 2e-3 4.4183 2e-3 8-3.5817 8-8s-3.5817-8.0007-8-8c-0.0072 1e-6 -0.01427 0.0019-0.02148 2e-3 -0.72794-0.96399-1.7832-1.666-3.0137-1.9062-1.3836-2.4723-4.0137-4.0939-6.9648-4.0958z"
     style="opacity:.1"
     id="path17" />
  <path
     d="m40.03 7.531c3.712 4.084 5.969 9.514 5.969 15.469 0 12.703-10.297 23-23 23-5.954 0-11.384-2.256-15.469-5.969 4.178 4.291 10.01 6.969 16.469 6.969 12.703 0 23-10.298 23-23 0-6.462-2.677-12.291-6.969-16.469z"
     style="opacity:.1"
     id="path19" />
  <path
     d="m21 10c-4.4183-3e-3 -8.0017 3.5817-8 8 8.64e-4 2.2986 0.99366 4.4851 2.7207 6.002-1.726 1.516-2.7195 3.7008-2.7207 5.998-0.0024 4.4183 3.5817 8 8 8 3.7659-3e-3 7.0201-2.6313 7.8145-6.3125 0.71057 0.20467 1.4461 0.31212 2.1855 0.3125 4.4183 2e-3 8-3.5817 8-8s-3.5817-8.0007-8-8c-0.74124 1.2e-4 -1.4788 0.10471-2.1914 0.3086-0.79549-3.6775-4.0461-6.3063-7.8086-6.3086z"
     style="fill:#5f81d4"
     id="path21" />
  <path
     d="m20 28v7l3.7676-2.3555c0.75655 1.2076 2.012 2.0801 3.5098 2.2988 0.73455-0.93243 1.2734-2.0339 1.5371-3.2559 0.71057 0.20467 1.4461 0.31214 2.1855 0.3125 0.5678 2.77e-4 1.12-0.06149 1.6543-0.17383 0.22835-0.58177 0.34567-1.2012 0.3457-1.8262 5.2e-5 -0.97375-0.29001-1.8741-0.77148-2.6426l3.7715-2.3574-3.7715-2.3574c0.48148-0.76849 0.77236-1.6688 0.77148-2.6426-0.001422-1.5755-0.74703-3.0578-2.0098-4zm-5.9043-2.0293c0.46341 2.3416 2.5173 4.029 4.9043 4.0293 2-4-4.9043-4.0293-4.9043-4.0293z"
     style="opacity:.1"
     id="path23" />
  <path
     d="m19 19.109c-0.32881-0.07-0.66383-0.10913-1-0.10938-2.7614-0.0021-5 2.2386-5 5s2.2386 5.0007 5 5c0.33596-8.6e-5 0.67099-0.0355 1-0.10351l3.7656 2.75c0.91179 1.4616 2.5117 2.3523 4.2344 2.3535 2.7614 0.0018 5.0017-2.2386 5-5-5.78e-4 -0.93645-0.26762-1.8534-0.76562-2.6465l2e-3 -4.7051c0.49762-0.79383 0.76328-1.7115 0.76362-2.6484 1e-3 -2.7614-2.2386-5.0012-5-5-1.723 7.57e-4 -3.3237 0.89017-4.2363 2.3516z"
     style="fill:#333333"
     id="path25" />
  <path
     d="m20 29.627 2.7656 2.0195c0.25009 0.40088 0.55648 0.75407 0.89844 1.0625l8.1406-5.0859c-0.12908-0.44543-0.32131-0.873-0.57031-1.2695l2e-3 -4.3301z"
     style="opacity:.1"
     id="path27" />
  <path
     d="m19 14 16 10-16 10z"
     style="fill:#f8db39"
     id="path29" />
</svg>
