<?xml version="1.0" encoding="UTF-8" standalone="no"?>
<svg
   xmlns:dc="http://purl.org/dc/elements/1.1/"
   xmlns:cc="http://creativecommons.org/ns#"
   xmlns:rdf="http://www.w3.org/1999/02/22-rdf-syntax-ns#"
   xmlns:svg="http://www.w3.org/2000/svg"
   xmlns="http://www.w3.org/2000/svg"
   xmlns:sodipodi="http://sodipodi.sourceforge.net/DTD/sodipodi-0.dtd"
   xmlns:inkscape="http://www.inkscape.org/namespaces/inkscape"
   viewBox="0 0 48 48"
   id="svg2"
   version="1.1"
   inkscape:version="0.92.2 5c3e80d, 2017-08-06"
   sodipodi:docname="peek.svg">
  <metadata
     id="metadata49">
    <rdf:RDF>
      <cc:Work
         rdf:about="">
        <dc:format>image/svg+xml</dc:format>
        <dc:type
           rdf:resource="http://purl.org/dc/dcmitype/StillImage" />
        <dc:title />
      </cc:Work>
    </rdf:RDF>
  </metadata>
  <sodipodi:namedview
     pagecolor="#ffffff"
     bordercolor="#666666"
     borderopacity="1"
     objecttolerance="10"
     gridtolerance="10"
     guidetolerance="10"
     inkscape:pageopacity="0"
     inkscape:pageshadow="2"
     inkscape:window-width="1846"
     inkscape:window-height="1025"
     id="namedview47"
     showgrid="false"
     inkscape:zoom="9.8333332"
     inkscape:cx="-10.474477"
     inkscape:cy="30.755015"
     inkscape:window-x="74"
     inkscape:window-y="27"
     inkscape:window-maximized="1"
     inkscape:current-layer="Content" />
  <defs
     id="defs4">
    <linearGradient
       id="linearGradient3764"
       x1="1"
       x2="47"
       gradientUnits="userSpaceOnUse"
       gradientTransform="matrix(0,-1,1,0,-1.5e-6,47.999998)">
      <stop
         style="stop-color:#7fa935;stop-opacity:1"
         id="stop7" />
      <stop
         offset="1"
         style="stop-color:#89b83a;stop-opacity:1"
         id="stop9" />
    </linearGradient>
    <style
       id="style1413">.cls-1{fill:#dde1e4;opacity:0.6;}.cls-2{fill:#1e7bed;}.cls-3{fill:#fff;}</style>
  </defs>
  <g
     id="g11">
    <path
       d="m 36.31 5 c 5.859 4.062 9.688 10.831 9.688 18.5 c 0 12.426 -10.07 22.5 -22.5 22.5 c -7.669 0 -14.438 -3.828 -18.5 -9.688 c 1.037 1.822 2.306 3.499 3.781 4.969 c 4.085 3.712 9.514 5.969 15.469 5.969 c 12.703 0 23 -10.298 23 -23 c 0 -5.954 -2.256 -11.384 -5.969 -15.469 c -1.469 -1.475 -3.147 -2.744 -4.969 -3.781 z m 4.969 3.781 c 3.854 4.113 6.219 9.637 6.219 15.719 c 0 12.703 -10.297 23 -23 23 c -6.081 0 -11.606 -2.364 -15.719 -6.219 c 4.16 4.144 9.883 6.719 16.219 6.719 c 12.703 0 23 -10.298 23 -23 c 0 -6.335 -2.575 -12.06 -6.719 -16.219 z"
       style="opacity:0.05"
       id="path13" />
    <path
       d="m 41.28 8.781 c 3.712 4.085 5.969 9.514 5.969 15.469 c 0 12.703 -10.297 23 -23 23 c -5.954 0 -11.384 -2.256 -15.469 -5.969 c 4.113 3.854 9.637 6.219 15.719 6.219 c 12.703 0 23 -10.298 23 -23 c 0 -6.081 -2.364 -11.606 -6.219 -15.719 z"
       style="opacity:0.1"
       id="path15" />
    <path
       d="m 31.25 2.375 c 8.615 3.154 14.75 11.417 14.75 21.13 c 0 12.426 -10.07 22.5 -22.5 22.5 c -9.708 0 -17.971 -6.135 -21.12 -14.75 a 23 23 0 0 0 44.875 -7 a 23 23 0 0 0 -16 -21.875 z"
       style="opacity:0.2"
       id="path17" />
  </g>
  <g
     id="g19"
     style="fill:#ececec">
    <path
       d="m 24 1 c 12.703 0 23 10.297 23 23 c 0 12.703 -10.297 23 -23 23 -12.703 0 -23 -10.297 -23 -23 0 -12.703 10.297 -23 23 -23 z"
       style="fill:#ececec;fill-opacity:1"
       id="path21" />
  </g>
  <g
     id="g43">
    <path
       d="m 40.03 7.531 c 3.712 4.084 5.969 9.514 5.969 15.469 0 12.703 -10.297 23 -23 23 c -5.954 0 -11.384 -2.256 -15.469 -5.969 4.178 4.291 10.01 6.969 16.469 6.969 c 12.703 0 23 -10.298 23 -23 0 -6.462 -2.677 -12.291 -6.969 -16.469 z"
       style="opacity:0.1"
       id="path45" />
  </g>
  <style
     id="style197"
     type="text/css">
	.st0{fill:#267CB5;}
	.st1{fill:#FFFFFF;}
</style>
  <g
     id="g237"
     transform="matrix(0.29449152,0,0,0.29131356,5.1525428,5.1525422)">
    <g
       id="g201"
       style="fill:#ececec"
       transform="matrix(0.91366906,0,0,0.97545455,5.52518,1.0472727)">
      <circle
         id="circle199"
         r="64"
         cy="64"
         cx="64"
         class="st0"
         style="fill:#ececec;fill-opacity:0.76439789" />
    </g>
    <g
       id="g207"
       transform="matrix(1.3550551,0,0,1.5000592,-21.500176,-30.329266)">
      <g
         id="g205">
        <path
           id="path203"
           d="M 64,28"
           class="st1"
           inkscape:connector-curvature="0"
           style="fill:#ffffff" />
      </g>
    </g>
    <g
       data-name="Layer 2"
       id="Layer_2"
       transform="matrix(0.85097632,0,0,0.74741262,27.395683,32.087274)">
      <g
         id="Content">
        <rect
           id="rect1419"
           ry="18.453665"
           rx="17.797102"
           height="129.17564"
           width="124.57971"
           y="-11.916506"
           class="cls-1"
           x="-22.706379"
           style="opacity:0.6;fill:#dde1e4;stroke-width:1.51020086" />
        <rect
           id="rect1421"
           ry="18.453665"
           rx="17.797102"
           height="129.17564"
           width="124.57971"
           class="cls-2"
           x="-18.242611"
           y="-20.345814"
           style="fill:#1e7bed;stroke-width:1.51020086" />
        <polygon
           id="polygon1423"
           points="37.88,41.8 31.5,36.94 25,31.99 25,41.9 25,51.8 31.5,46.85 37.88,42 37.88,51.93 59,51.93 59,31.05 37.88,31.05 "
           class="cls-3"
           style="fill:#ececec"
           transform="matrix(2.8437057,0,0,2.9246867,-73.765207,-77.887522)" />
      </g>
    </g>
  </g>
</svg>
