<?xml version="1.0" encoding="UTF-8" standalone="no"?>
<svg
   xmlns:dc="http://purl.org/dc/elements/1.1/"
   xmlns:cc="http://creativecommons.org/ns#"
   xmlns:rdf="http://www.w3.org/1999/02/22-rdf-syntax-ns#"
   xmlns:svg="http://www.w3.org/2000/svg"
   xmlns="http://www.w3.org/2000/svg"
   xmlns:sodipodi="http://sodipodi.sourceforge.net/DTD/sodipodi-0.dtd"
   xmlns:inkscape="http://www.inkscape.org/namespaces/inkscape"
   version="1.1"
   viewBox="0 0 48 48"
   id="svg39"
   sodipodi:docname="pr0gramm.com.svg"
   inkscape:version="0.92.2 5c3e80d, 2017-08-06">
  <metadata
     id="metadata43">
    <rdf:RDF>
      <cc:Work
         rdf:about="">
        <dc:format>image/svg+xml</dc:format>
        <dc:type
           rdf:resource="http://purl.org/dc/dcmitype/StillImage" />
      </cc:Work>
    </rdf:RDF>
  </metadata>
  <sodipodi:namedview
     pagecolor="#ffffff"
     bordercolor="#666666"
     borderopacity="1"
     objecttolerance="10"
     gridtolerance="10"
     guidetolerance="10"
     inkscape:pageopacity="0"
     inkscape:pageshadow="2"
     inkscape:window-width="785"
     inkscape:window-height="480"
     id="namedview41"
     showgrid="false"
     inkscape:zoom="4.9166667"
     inkscape:cx="24"
     inkscape:cy="24"
     inkscape:window-x="74"
     inkscape:window-y="27"
     inkscape:window-maximized="0"
     inkscape:current-layer="svg39" />
  <defs
     id="defs7">
    <linearGradient
       id="linearGradient840"
       x2="47"
       gradientUnits="userSpaceOnUse"
       x1="1">
      <stop
         style="stop-color:#c1371f"
         offset="0"
         id="stop2" />
      <stop
         style="stop-color:#d23c22"
         offset="1"
         id="stop4" />
    </linearGradient>
  </defs>
  <path
     style="opacity:.05"
     d="m36.31 5c5.859 4.062 9.688 10.831 9.688 18.5 0 12.426-10.07 22.5-22.5 22.5-7.669 0-14.438-3.828-18.5-9.688 1.037 1.822 2.306 3.499 3.781 4.969 4.085 3.712 9.514 5.969 15.469 5.969 12.703 0 23-10.298 23-23 0-5.954-2.256-11.384-5.969-15.469-1.469-1.475-3.147-2.744-4.969-3.781zm4.969 3.781c3.854 4.113 6.219 9.637 6.219 15.719 0 12.703-10.297 23-23 23-6.081 0-11.606-2.364-15.719-6.219 4.16 4.144 9.883 6.719 16.219 6.719 12.703 0 23-10.298 23-23 0-6.335-2.575-12.06-6.719-16.219z"
     id="path9" />
  <path
     style="opacity:.1"
     d="m41.28 8.781c3.712 4.085 5.969 9.514 5.969 15.469 0 12.703-10.297 23-23 23-5.954 0-11.384-2.256-15.469-5.969 4.113 3.854 9.637 6.219 15.719 6.219 12.703 0 23-10.298 23-23 0-6.081-2.364-11.606-6.219-15.719z"
     id="path11" />
  <path
     style="opacity:.2"
     d="m31.25 2.375c8.615 3.154 14.75 11.417 14.75 21.13 0 12.426-10.07 22.5-22.5 22.5-9.708 0-17.971-6.135-21.12-14.75a23 23 0 0 0 44.875 -7 23 23 0 0 0 -16 -21.875z"
     id="path13" />
  <g
     style="fill:#ececec"
     transform="matrix(0,-1,1,0,0,48)"
     id="g17">
    <path
       style="fill:#ececec"
       d="m24 1c12.703 0 23 10.297 23 23s-10.297 23-23 23-23-10.297-23-23 10.297-23 23-23z"
       id="path15" />
  </g>
  <path
     style="opacity:.1"
     d="m40.03 7.531c3.712 4.084 5.969 9.514 5.969 15.469 0 12.703-10.297 23-23 23-5.954 0-11.384-2.256-15.469-5.969 4.178 4.291 10.01 6.969 16.469 6.969 12.703 0 23-10.298 23-23 0-6.462-2.677-12.291-6.969-16.469z"
     id="path19" />
  <g
     transform="translate(1,1)"
     id="g27">
    <g
       style="opacity:.1"
       id="g25">
      <path
         d="m36 34v-4h-12v4m12 0"
         id="path21" />
      <path
         d="m14.746 30-2.742-2.906 6.172-5.094-6.172-5.09 2.742-2.91l9.258 8m-9.258 8"
         id="path23" />
    </g>
  </g>
  <g
     style="fill:#c71616;fill-opacity:1"
     id="g37">
    <g
       style="fill:#c71616;fill-opacity:1"
       id="g35">
      <g
         style="fill:#c71616;fill-opacity:1"
         id="g33">
        <path
           style="fill:#c71616;fill-opacity:1"
           d="m36 34v-4h-12v4m12 0"
           id="path29" />
        <path
           style="fill:#c71616;fill-opacity:1"
           d="m14.746 30-2.742-2.906 6.172-5.094-6.172-5.09 2.742-2.91l9.258 8m-9.258 8"
           id="path31" />
      </g>
    </g>
  </g>
</svg>
