<?xml version="1.0" encoding="UTF-8" standalone="no"?>
<svg
   xmlns:dc="http://purl.org/dc/elements/1.1/"
   xmlns:cc="http://creativecommons.org/ns#"
   xmlns:rdf="http://www.w3.org/1999/02/22-rdf-syntax-ns#"
   xmlns:svg="http://www.w3.org/2000/svg"
   xmlns="http://www.w3.org/2000/svg"
   xmlns:sodipodi="http://sodipodi.sourceforge.net/DTD/sodipodi-0.dtd"
   xmlns:inkscape="http://www.inkscape.org/namespaces/inkscape"
   version="1.1"
   viewBox="0 0 48 48"
   id="svg23"
   sodipodi:docname="solarus-quest-editor.svg"
   inkscape:version="0.92.2 5c3e80d, 2017-08-06">
  <metadata
     id="metadata27">
    <rdf:RDF>
      <cc:Work
         rdf:about="">
        <dc:format>image/svg+xml</dc:format>
        <dc:type
           rdf:resource="http://purl.org/dc/dcmitype/StillImage" />
      </cc:Work>
    </rdf:RDF>
  </metadata>
  <sodipodi:namedview
     pagecolor="#ffffff"
     bordercolor="#666666"
     borderopacity="1"
     objecttolerance="10"
     gridtolerance="10"
     guidetolerance="10"
     inkscape:pageopacity="0"
     inkscape:pageshadow="2"
     inkscape:window-width="785"
     inkscape:window-height="480"
     id="namedview25"
     showgrid="false"
     inkscape:zoom="4.9166667"
     inkscape:cx="24"
     inkscape:cy="24"
     inkscape:window-x="74"
     inkscape:window-y="27"
     inkscape:window-maximized="0"
     inkscape:current-layer="svg23" />
  <defs
     id="defs7">
    <linearGradient
       id="linearGradient4463"
       x1="1"
       x2="47"
       gradientTransform="translate(-48)"
       gradientUnits="userSpaceOnUse">
      <stop
         style="stop-color:#575757"
         offset="0"
         id="stop2" />
      <stop
         style="stop-color:#616161"
         offset="1"
         id="stop4" />
    </linearGradient>
  </defs>
  <path
     d="m36.31 5c5.859 4.062 9.688 10.831 9.688 18.5 0 12.426-10.07 22.5-22.5 22.5-7.669 0-14.438-3.828-18.5-9.688 1.037 1.822 2.306 3.499 3.781 4.969 4.085 3.712 9.514 5.969 15.469 5.969 12.703 0 23-10.298 23-23 0-5.954-2.256-11.384-5.969-15.469-1.469-1.475-3.147-2.744-4.969-3.781zm4.969 3.781c3.854 4.113 6.219 9.637 6.219 15.719 0 12.703-10.297 23-23 23-6.081 0-11.606-2.364-15.719-6.219 4.16 4.144 9.883 6.719 16.219 6.719 12.703 0 23-10.298 23-23 0-6.335-2.575-12.06-6.719-16.219z"
     style="opacity:.05"
     id="path9" />
  <path
     d="m41.28 8.781c3.712 4.085 5.969 9.514 5.969 15.469 0 12.703-10.297 23-23 23-5.954 0-11.384-2.256-15.469-5.969 4.113 3.854 9.637 6.219 15.719 6.219 12.703 0 23-10.298 23-23 0-6.081-2.364-11.606-6.219-15.719z"
     style="opacity:.1"
     id="path11" />
  <path
     d="m31.25 2.375c8.615 3.154 14.75 11.417 14.75 21.13 0 12.426-10.07 22.5-22.5 22.5-9.708 0-17.971-6.135-21.12-14.75a23 23 0 0 0 44.875 -7 23 23 0 0 0 -16 -21.875z"
     style="opacity:.2"
     id="path13" />
  <circle
     transform="rotate(-90)"
     cx="-24"
     cy="24"
     r="23"
     style="fill:#ececec;fill-opacity:1"
     id="circle15" />
  <path
     d="m40.03 7.531c3.712 4.084 5.969 9.514 5.969 15.469 0 12.703-10.297 23-23 23-5.954 0-11.384-2.256-15.469-5.969 4.178 4.291 10.01 6.969 16.469 6.969 12.703 0 23-10.298 23-23 0-6.462-2.677-12.291-6.969-16.469z"
     style="opacity:.1"
     id="path17" />
  <rect
     style="opacity:1;fill:#333333;fill-opacity:1;stroke:none;stroke-width:2.87446404;stroke-miterlimit:4;stroke-dasharray:none;stroke-opacity:0.02010049"
     id="rect841"
     width="21.355932"
     height="18.101696"
     x="13.01695"
     y="12.406779"
     ry="1.1982714" />
  <path
     d="m13 13v14c0 9 12 12 12 12s12-3 12-12v-14zm11.824 3 1.1758 1.6-3.3633 2.9645s1.3175 1.3146 2.6445 2.6953c0.24213-0.25305 0.48818-0.51854 0.71875-0.73438v-0.52539h0.5625l3.4375-2.7891v-0.68164c0-1.5303 2.3023-1.5293 5-1.5293l-1.693 2.4186c-0.39181 0.55973-1.307 0.58142-2.4574 0.58142-0.82068 1.0976-1.7101 2.4472-2.8496 3.4746v0.52539h-0.36719c-0.23568 0.2527-0.57102 0.59076-0.8457 0.87695 0.2509 0.27863 0.54306 0.59221 0.72266 0.81055l3.252 3.9531c0.36022 0.43792 0.30624 1.0857-0.12305 1.4531l-0.77539 0.66406c-0.42929 0.36751-1.0656 0.31097-1.4258-0.12695l-3.252-3.9531c-0.13536-0.16456-0.32876-0.4432-0.49024-0.6582-2.3837 2.3955-4.8764 4.8155-4.9238 4.8633-0.07684 0.07764-0.1717 0.11707-0.26953 0.11719-0.3275 4.2e-4 -0.60166-0.41297-0.47266-0.757 0.06249-0.16664 2.1857-3.1549 4.4473-5.9285-1.1603-1.6954-2.3125-3.4883-2.3125-3.4883l-1.1641 1.1738-0.72461-0.90234-0.77539 0.66211 0.65039 0.79102-1.5488 1.3262-2.6016-3.1621 1.5488-1.3262 0.65039 0.79102 0.77539-0.66406-0.65039-0.79102 3.875-3.3164c0.65021 0.79049 2.0752 0.91837 3.625-0.4082z"
     style="opacity:0.1;fill:#ececec;fill-opacity:1"
     id="path19" />
  <path
     d="m12 12v14c0 9 12 12 12 12s12-3 12-12v-14zm11.824 3 1.1758 1.6-3.3633 2.9645s1.3175 1.3146 2.6445 2.6953c0.24213-0.25305 0.48818-0.51854 0.71875-0.73438v-0.52539h0.5625l3.4375-2.7891v-0.68164c0-1.5303 2.3023-1.5293 5-1.5293l-1.693 2.4186c-0.39181 0.55973-1.307 0.58142-2.4574 0.58142-0.82068 1.0976-1.7101 2.4472-2.8496 3.4746v0.52539h-0.36719c-0.23568 0.2527-0.57102 0.59076-0.8457 0.87695 0.2509 0.27863 0.54306 0.59221 0.72266 0.81055l3.252 3.9531c0.36022 0.43792 0.30624 1.0857-0.12305 1.4531l-0.77539 0.66406c-0.42929 0.36751-1.0656 0.31097-1.4258-0.12695l-3.252-3.9531c-0.13536-0.16456-0.32876-0.4432-0.49024-0.6582-2.3837 2.3955-4.8764 4.8155-4.9238 4.8633-0.07684 0.07764-0.1717 0.11707-0.26953 0.11719-0.3275 4.2e-4 -0.60166-0.41297-0.47266-0.757 0.06249-0.16664 2.1857-3.1549 4.4473-5.9285-1.1603-1.6954-2.3125-3.4883-2.3125-3.4883l-1.1641 1.1738-0.72461-0.90234-0.77539 0.66211 0.65039 0.79102-1.5488 1.3262-2.6016-3.1621 1.5488-1.3262 0.65039 0.79102 0.77539-0.66406-0.65039-0.79102 3.875-3.3164c0.65021 0.79049 2.0752 0.91837 3.625-0.4082z"
     style="fill:#f9ca27"
     id="path21" />
</svg>
