<?xml version="1.0" encoding="UTF-8" standalone="no"?>
<svg
   xmlns:dc="http://purl.org/dc/elements/1.1/"
   xmlns:cc="http://creativecommons.org/ns#"
   xmlns:rdf="http://www.w3.org/1999/02/22-rdf-syntax-ns#"
   xmlns:svg="http://www.w3.org/2000/svg"
   xmlns="http://www.w3.org/2000/svg"
   xmlns:sodipodi="http://sodipodi.sourceforge.net/DTD/sodipodi-0.dtd"
   xmlns:inkscape="http://www.inkscape.org/namespaces/inkscape"
   version="1.1"
   viewBox="0 0 48 48"
   id="svg23"
   sodipodi:docname="solarus.svg"
   inkscape:version="0.92.2 5c3e80d, 2017-08-06">
  <metadata
     id="metadata27">
    <rdf:RDF>
      <cc:Work
         rdf:about="">
        <dc:format>image/svg+xml</dc:format>
        <dc:type
           rdf:resource="http://purl.org/dc/dcmitype/StillImage" />
      </cc:Work>
    </rdf:RDF>
  </metadata>
  <sodipodi:namedview
     pagecolor="#ffffff"
     bordercolor="#666666"
     borderopacity="1"
     objecttolerance="10"
     gridtolerance="10"
     guidetolerance="10"
     inkscape:pageopacity="0"
     inkscape:pageshadow="2"
     inkscape:window-width="785"
     inkscape:window-height="480"
     id="namedview25"
     showgrid="false"
     inkscape:zoom="4.9166667"
     inkscape:cx="24"
     inkscape:cy="24"
     inkscape:window-x="74"
     inkscape:window-y="27"
     inkscape:window-maximized="0"
     inkscape:current-layer="svg23" />
  <defs
     id="defs7">
    <linearGradient
       id="linearGradient4463"
       x1="1"
       x2="47"
       gradientTransform="translate(-48)"
       gradientUnits="userSpaceOnUse">
      <stop
         style="stop-color:#575757"
         offset="0"
         id="stop2" />
      <stop
         style="stop-color:#616161"
         offset="1"
         id="stop4" />
    </linearGradient>
  </defs>
  <path
     d="m36.31 5c5.859 4.062 9.688 10.831 9.688 18.5 0 12.426-10.07 22.5-22.5 22.5-7.669 0-14.438-3.828-18.5-9.688 1.037 1.822 2.306 3.499 3.781 4.969 4.085 3.712 9.514 5.969 15.469 5.969 12.703 0 23-10.298 23-23 0-5.954-2.256-11.384-5.969-15.469-1.469-1.475-3.147-2.744-4.969-3.781zm4.969 3.781c3.854 4.113 6.219 9.637 6.219 15.719 0 12.703-10.297 23-23 23-6.081 0-11.606-2.364-15.719-6.219 4.16 4.144 9.883 6.719 16.219 6.719 12.703 0 23-10.298 23-23 0-6.335-2.575-12.06-6.719-16.219z"
     style="opacity:.05"
     id="path9" />
  <path
     d="m41.28 8.781c3.712 4.085 5.969 9.514 5.969 15.469 0 12.703-10.297 23-23 23-5.954 0-11.384-2.256-15.469-5.969 4.113 3.854 9.637 6.219 15.719 6.219 12.703 0 23-10.298 23-23 0-6.081-2.364-11.606-6.219-15.719z"
     style="opacity:.1"
     id="path11" />
  <path
     d="m31.25 2.375c8.615 3.154 14.75 11.417 14.75 21.13 0 12.426-10.07 22.5-22.5 22.5-9.708 0-17.971-6.135-21.12-14.75a23 23 0 0 0 44.875 -7 23 23 0 0 0 -16 -21.875z"
     style="opacity:.2"
     id="path13" />
  <circle
     transform="rotate(-90)"
     cx="-24"
     cy="24"
     r="23"
     style="fill:#ececec"
     id="circle15" />
  <path
     d="m40.03 7.531c3.712 4.084 5.969 9.514 5.969 15.469 0 12.703-10.297 23-23 23-5.954 0-11.384-2.256-15.469-5.969 4.178 4.291 10.01 6.969 16.469 6.969 12.703 0 23-10.298 23-23 0-6.462-2.677-12.291-6.969-16.469z"
     style="opacity:.1"
     id="path17" />
  <path
     d="m25 10c-8.2843 0-15.002 6.7157-15 15 6.78e-4 2.8322 0.80712 5.6059 2.3203 8h0.42969l11.609-11.619c0.70968 0.70968 1.4908 0.63811 2.9102-0.78125l-1.0645-1.0644c-0.39194-0.39194-1.028-0.39194-1.4199 0l-0.70898 0.71094-2.0762-2.2461c0.7099-0.70991 1.6873-0.99994 2.7344-1 1.0629-6e-5 2.1108 0.33736 2.8906 1.1172l1.418 1.418 2.0234-2.0234c-0.04414-0.16699-0.06641-0.33899-0.06641-0.51172 4.7e-5 -1.1046 0.89543-2 2-2s2 0.89543 2 2-0.89543 2.001-2 2c-0.1729-2e-4 -0.3449-0.0248-0.51172-0.0703l-2.0254 2.0254 1.4199 1.4199c0.77982 0.77981 1.1172 1.8437 1.1172 2.8906-6e-5 1.0471-0.40728 2.0245-1.1172 2.7344l-2.1289-2.0762 0.70898-0.71093c0.39194-0.39196 0.39194-1.026 0-1.418l-1.0645-1.0645c-1.4194 1.4194-1.489 2.1985-0.7793 2.9082l-7.3691 7.3607 16.418 6.4e-4c1.5173-2.3929 2.3305-5.1666 2.332-8 0.0046-8.2843-6.7157-15-15-15z"
     style="opacity:.1"
     id="path19" />
  <ellipse
     style="opacity:1;fill:#333333;fill-opacity:1;stroke:none;stroke-width:3.10045958;stroke-miterlimit:4;stroke-dasharray:none;stroke-opacity:0.02010049"
     id="path837"
     cx="24.20339"
     cy="24.305084"
     rx="14.237288"
     ry="14.542374" />
  <path
     d="m24 9c-8.2843 0-15.002 6.7157-15 15 6.78e-4 2.8322 0.80712 5.6059 2.3203 8h0.42969l11.609-11.619c0.70968 0.70968 1.4908 0.63811 2.9102-0.78125l-1.0645-1.0644c-0.39194-0.39194-1.028-0.39194-1.4199 0l-0.70898 0.71094-2.0762-2.2461c0.7099-0.70991 1.6873-0.99994 2.7344-1 1.0629-6e-5 2.1108 0.33736 2.8906 1.1172l1.418 1.418 2.0234-2.0234c-0.04414-0.16699-0.06641-0.33899-0.06641-0.51172 4.7e-5 -1.1046 0.89543-2 2-2s2 0.89543 2 2-0.89543 2.001-2 2c-0.1729-2e-4 -0.3449-0.0248-0.51172-0.0703l-2.0254 2.0254 1.4199 1.4199c0.77982 0.77981 1.1172 1.8437 1.1172 2.8906-6e-5 1.0471-0.40728 2.0245-1.1172 2.7344l-2.1289-2.0762 0.70898-0.71093c0.39194-0.39196 0.39194-1.026 0-1.418l-1.0645-1.0645c-1.4194 1.4194-1.489 2.1985-0.7793 2.9082l-7.3691 7.3607 16.418 6.4e-4c1.5173-2.3929 2.3305-5.1666 2.332-8 0.0046-8.2843-6.7157-15-15-15z"
     style="fill:#f9ca27"
     id="path21" />
</svg>
