<?xml version="1.0" encoding="UTF-8" standalone="no"?>
<svg
   xmlns:dc="http://purl.org/dc/elements/1.1/"
   xmlns:cc="http://creativecommons.org/ns#"
   xmlns:rdf="http://www.w3.org/1999/02/22-rdf-syntax-ns#"
   xmlns:svg="http://www.w3.org/2000/svg"
   xmlns="http://www.w3.org/2000/svg"
   xmlns:sodipodi="http://sodipodi.sourceforge.net/DTD/sodipodi-0.dtd"
   xmlns:inkscape="http://www.inkscape.org/namespaces/inkscape"
   version="1.1"
   viewBox="0 0 48 48"
   id="svg37"
   sodipodi:docname="steam_icon_251470.svg"
   inkscape:version="0.92.2 5c3e80d, 2017-08-06">
  <metadata
     id="metadata41">
    <rdf:RDF>
      <cc:Work
         rdf:about="">
        <dc:format>image/svg+xml</dc:format>
        <dc:type
           rdf:resource="http://purl.org/dc/dcmitype/StillImage" />
      </cc:Work>
    </rdf:RDF>
  </metadata>
  <sodipodi:namedview
     pagecolor="#ffffff"
     bordercolor="#666666"
     borderopacity="1"
     objecttolerance="10"
     gridtolerance="10"
     guidetolerance="10"
     inkscape:pageopacity="0"
     inkscape:pageshadow="2"
     inkscape:window-width="785"
     inkscape:window-height="480"
     id="namedview39"
     showgrid="false"
     inkscape:zoom="4.9166667"
     inkscape:cx="24"
     inkscape:cy="24"
     inkscape:window-x="74"
     inkscape:window-y="27"
     inkscape:window-maximized="0"
     inkscape:current-layer="svg37" />
  <defs
     id="defs7">
    <linearGradient
       id="bg"
       gradientUnits="userSpaceOnUse"
       x1="0"
       x2="0"
       y1="1"
       y2="47">
      <stop
         offset="0"
         stop-color="#eee5aa"
         id="stop2" />
      <stop
         offset="1"
         stop-color="#ebe099"
         id="stop4" />
    </linearGradient>
  </defs>
  <path
     opacity=".05"
     d="m 36.31 5 c 5.859 4.062 9.688 10.831 9.688 18.5 c 0 12.426 -10.07 22.5 -22.5 22.5 c -7.669 0 -14.438 -3.828 -18.5 -9.688 c 1.037 1.822 2.306 3.499 3.781 4.969 c 4.085 3.712 9.514 5.969 15.469 5.969 c 12.703 0 23 -10.298 23 -23 c 0 -5.954 -2.256 -11.384 -5.969 -15.469 c -1.469 -1.475 -3.147 -2.744 -4.969 -3.781 z m 4.969 3.781 c 3.854 4.113 6.219 9.637 6.219 15.719 c 0 12.703 -10.297 23 -23 23 c -6.081 0 -11.606 -2.364 -15.719 -6.219 c 4.16 4.144 9.883 6.719 16.219 6.719 c 12.703 0 23 -10.298 23 -23 c 0 -6.335 -2.575 -12.06 -6.719 -16.219 z"
     id="path9" />
  <path
     opacity=".1"
     d="m 41.28 8.781 c 3.712 4.085 5.969 9.514 5.969 15.469 c 0 12.703 -10.297 23 -23 23 c -5.954 0 -11.384 -2.256 -15.469 -5.969 c 4.113 3.854 9.637 6.219 15.719 6.219 c 12.703 0 23 -10.298 23 -23 c 0 -6.081 -2.364 -11.606 -6.219 -15.719 z"
     id="path11" />
  <path
     opacity=".2"
     d="m 31.25 2.375 c 8.615 3.154 14.75 11.417 14.75 21.13 c 0 12.426 -10.07 22.5 -22.5 22.5 c -9.708 0 -17.971 -6.135 -21.12 -14.75 a 23 23 0 0 0 44.875 -7 a 23 23 0 0 0 -16 -21.875 z"
     id="path13" />
  <circle
     fill="url(#bg)"
     cx="24"
     cy="24"
     r="23"
     id="circle15"
     style="fill:#ececec" />
  <path
     opacity=".1"
     d="m 40.03 7.531 c 3.712 4.084 5.969 9.514 5.969 15.469 0 12.703 -10.297 23 -23 23 c -5.954 0 -11.384 -2.256 -15.469 -5.969 4.178 4.291 10.01 6.969 16.469 6.969 c 12.703 0 23 -10.298 23 -23 0 -6.462 -2.677 -12.291 -6.969 -16.469 z"
     id="path17" />
  <path
     d="M 12,12 20,14 18,16 29,27 32,26 36,30 33,31 34,32 32,34 31,33 30,36 26,32 27,29 16,18 14,20 z M 36,12 34,20 32,18 21,29 22,32 18,36 17,33 16,34 14,32 15,31 12,30 16,26 19,27 30,16 28,14 z"
     opacity=".1"
     transform="translate(1 2)"
     id="path19" />
  <g
     transform="translate(0 1)"
     id="g35">
    <path
       d="m 29,27 3,-1 4,4 -3,1 -2,2 -1,3 -4,-4 1,-3 z"
       fill="#c42"
       id="path21" />
    <path
       d="M 14,16 16,14 34,32 32,34 z"
       fill="#532"
       id="path23" />
    <path
       d="M 12,12 20,14 14,20 z"
       fill="#888"
       id="path25" />
    <g
       transform="rotate(90 24 24)"
       id="g33">
      <path
         d="m 29,27 3,-1 4,4 -3,1 -2,2 -1,3 -4,-4 1,-3 z"
         fill="#c42"
         id="path27" />
      <path
         d="M 16,14 34,32 32,34 14,16 z"
         fill="#532"
         id="path29" />
      <path
         d="M 12,12 20,14 14,20 z"
         fill="#888"
         id="path31" />
    </g>
  </g>
</svg>
