<?xml version="1.0" encoding="UTF-8" standalone="no"?>
<svg
   xmlns:dc="http://purl.org/dc/elements/1.1/"
   xmlns:cc="http://creativecommons.org/ns#"
   xmlns:rdf="http://www.w3.org/1999/02/22-rdf-syntax-ns#"
   xmlns:svg="http://www.w3.org/2000/svg"
   xmlns="http://www.w3.org/2000/svg"
   xmlns:sodipodi="http://sodipodi.sourceforge.net/DTD/sodipodi-0.dtd"
   xmlns:inkscape="http://www.inkscape.org/namespaces/inkscape"
   version="1.1"
   viewBox="0 0 48 48"
   id="svg57"
   sodipodi:docname="steam_icon_292600.svg"
   inkscape:version="0.92.2 5c3e80d, 2017-08-06">
  <metadata
     id="metadata61">
    <rdf:RDF>
      <cc:Work
         rdf:about="">
        <dc:format>image/svg+xml</dc:format>
        <dc:type
           rdf:resource="http://purl.org/dc/dcmitype/StillImage" />
      </cc:Work>
    </rdf:RDF>
  </metadata>
  <sodipodi:namedview
     pagecolor="#ffffff"
     bordercolor="#666666"
     borderopacity="1"
     objecttolerance="10"
     gridtolerance="10"
     guidetolerance="10"
     inkscape:pageopacity="0"
     inkscape:pageshadow="2"
     inkscape:window-width="785"
     inkscape:window-height="480"
     id="namedview59"
     showgrid="false"
     inkscape:zoom="4.9166667"
     inkscape:cx="24"
     inkscape:cy="24"
     inkscape:window-x="74"
     inkscape:window-y="27"
     inkscape:window-maximized="0"
     inkscape:current-layer="svg57" />
  <defs
     id="defs27">
    <linearGradient
       id="background"
       gradientUnits="userSpaceOnUse"
       x1="24"
       y1="1"
       x2="24"
       y2="47">
      <stop
         offset="0"
         stop-color="#2A2A2A"
         id="stop2" />
      <stop
         offset="1"
         stop-color="#202020"
         id="stop4" />
    </linearGradient>
    <linearGradient
       id="blue-shadow"
       x1="50%"
       y1="15%"
       x2="50%"
       y2="75%">
      <stop
         offset="0"
         stop-opacity=".0"
         stop-color="#0AF"
         id="stop7" />
      <stop
         offset="1"
         stop-opacity=".5"
         stop-color="#0AF"
         id="stop9" />
    </linearGradient>
    <linearGradient
       id="blue-shadow-shadow"
       x1="50%"
       y1="15%"
       x2="50%"
       y2="75%">
      <stop
         offset="0"
         stop-opacity=".0"
         id="stop12" />
      <stop
         offset="1"
         stop-opacity=".1"
         id="stop14" />
    </linearGradient>
    <linearGradient
       id="red-shadow"
       x1="50%"
       y1="25%"
       x2="50%"
       y2="85%">
      <stop
         offset="0"
         stop-opacity=".5"
         stop-color="#E21"
         id="stop17" />
      <stop
         offset="1"
         stop-opacity=".0"
         stop-color="#E21"
         id="stop19" />
    </linearGradient>
    <linearGradient
       id="red-shadow-shadow"
       x1="50%"
       y1="25%"
       x2="50%"
       y2="85%">
      <stop
         offset="0"
         stop-opacity=".1"
         id="stop22" />
      <stop
         offset="1"
         stop-opacity=".0"
         id="stop24" />
    </linearGradient>
  </defs>
  <g
     id="g39"
     style="fill:#ececec">
    <path
       d="m 36.31 5 c 5.859 4.062 9.688 10.831 9.688 18.5 c 0 12.426 -10.07 22.5 -22.5 22.5 c -7.669 0 -14.438 -3.828 -18.5 -9.688 c 1.037 1.822 2.306 3.499 3.781 4.969 c 4.085 3.712 9.514 5.969 15.469 5.969 c 12.703 0 23 -10.298 23 -23 c 0 -5.954 -2.256 -11.384 -5.969 -15.469 c -1.469 -1.475 -3.147 -2.744 -4.969 -3.781 z m 4.969 3.781 c 3.854 4.113 6.219 9.637 6.219 15.719 c 0 12.703 -10.297 23 -23 23 c -6.081 0 -11.606 -2.364 -15.719 -6.219 c 4.16 4.144 9.883 6.719 16.219 6.719 c 12.703 0 23 -10.298 23 -23 c 0 -6.335 -2.575 -12.06 -6.719 -16.219 z"
       opacity="0.05"
       id="path29"
       style="fill:#ececec" />
    <path
       d="m 41.28 8.781 c 3.712 4.085 5.969 9.514 5.969 15.469 c 0 12.703 -10.297 23 -23 23 c -5.954 0 -11.384 -2.256 -15.469 -5.969 c 4.113 3.854 9.637 6.219 15.719 6.219 c 12.703 0 23 -10.298 23 -23 c 0 -6.081 -2.364 -11.606 -6.219 -15.719 z"
       opacity="0.1"
       id="path31"
       style="fill:#ececec" />
    <path
       d="m 31.25 2.375 c 8.615 3.154 14.75 11.417 14.75 21.13 c 0 12.426 -10.07 22.5 -22.5 22.5 c -9.708 0 -17.971 -6.135 -21.12 -14.75 a 23 23 0 0 0 44.875 -7 a 23 23 0 0 0 -16 -21.875 z"
       opacity="0.2"
       id="path33"
       style="fill:#ececec" />
    <circle
       cx="24"
       cy="24"
       r="23"
       fill="url(#background)"
       id="circle35"
       style="fill:#ececec" />
    <path
       d="m 40.03 7.531 c 3.712 4.084 5.969 9.514 5.969 15.469 0 12.703 -10.297 23 -23 23 c -5.954 0 -11.384 -2.256 -15.469 -5.969 4.178 4.291 10.01 6.969 16.469 6.969 c 12.703 0 23 -10.298 23 -23 0 -6.462 -2.677 -12.291 -6.969 -16.469 z"
       opacity="0.1"
       id="path37"
       style="fill:#ececec" />
  </g>
  <g
     transform="translate(1 1)"
     id="g45">
    <path
       d="m24,9 a15,15 0 0,0 0,30 a11,11 0 1,1 0,-22 a4,4 0 0,0 0,-8"
       fill="url(#red-shadow-shadow)"
       id="path41" />
    <path
       d="m24,39 a15,15 0 0,0 0,-30 a11,11 0 1,1 0,22 a4,4 0 0,0 0,8"
       fill="url(#blue-shadow-shadow)"
       id="path43" />
  </g>
  <g
     id="g55">
    <path
       d="m24,9 a15,15 0 0,0 0,30 a11,11 0 1,1 0,-22"
       fill="url(#red-shadow)"
       id="path47" />
    <path
       d="m24,39 a15,15 0 0,0 0,-30 a11,11 0 1,1 0,22"
       fill="url(#blue-shadow)"
       id="path49" />
    <circle
       cx="24"
       cy="13"
       r="4"
       fill="#E21"
       id="circle51" />
    <circle
       cx="24"
       cy="35"
       r="4"
       fill="#0AF"
       id="circle53" />
  </g>
</svg>
