<?xml version="1.0" encoding="UTF-8" standalone="no"?>
<svg
   xmlns:dc="http://purl.org/dc/elements/1.1/"
   xmlns:cc="http://creativecommons.org/ns#"
   xmlns:rdf="http://www.w3.org/1999/02/22-rdf-syntax-ns#"
   xmlns:svg="http://www.w3.org/2000/svg"
   xmlns="http://www.w3.org/2000/svg"
   xmlns:sodipodi="http://sodipodi.sourceforge.net/DTD/sodipodi-0.dtd"
   xmlns:inkscape="http://www.inkscape.org/namespaces/inkscape"
   version="1.1"
   viewBox="0 0 48 48"
   id="svg35"
   sodipodi:docname="steam_icon_105600.svg"
   inkscape:version="0.92.2 5c3e80d, 2017-08-06">
  <metadata
     id="metadata39">
    <rdf:RDF>
      <cc:Work
         rdf:about="">
        <dc:format>image/svg+xml</dc:format>
        <dc:type
           rdf:resource="http://purl.org/dc/dcmitype/StillImage" />
      </cc:Work>
    </rdf:RDF>
  </metadata>
  <sodipodi:namedview
     pagecolor="#ffffff"
     bordercolor="#666666"
     borderopacity="1"
     objecttolerance="10"
     gridtolerance="10"
     guidetolerance="10"
     inkscape:pageopacity="0"
     inkscape:pageshadow="2"
     inkscape:window-width="785"
     inkscape:window-height="480"
     id="namedview37"
     showgrid="false"
     inkscape:zoom="4.9166667"
     inkscape:cx="24"
     inkscape:cy="24"
     inkscape:window-x="74"
     inkscape:window-y="27"
     inkscape:window-maximized="0"
     inkscape:current-layer="svg35" />
  <defs
     id="defs7">
    <linearGradient
       id="bg"
       gradientUnits="userSpaceOnUse"
       x1="50%"
       y1="1"
       x2="50%"
       y2="47">
      <stop
         offset="0"
         stop-opacity="1"
         stop-color="#7a97ff"
         id="stop2" />
      <stop
         offset="1"
         stop-opacity="1"
         stop-color="#6688FF"
         id="stop4" />
    </linearGradient>
  </defs>
  <path
     opacity=".05"
     d="m 36.31 5 c 5.859 4.062 9.688 10.831 9.688 18.5 c 0 12.426 -10.07 22.5 -22.5 22.5 c -7.669 0 -14.438 -3.828 -18.5 -9.688 c 1.037 1.822 2.306 3.499 3.781 4.969 c 4.085 3.712 9.514 5.969 15.469 5.969 c 12.703 0 23 -10.298 23 -23 c 0 -5.954 -2.256 -11.384 -5.969 -15.469 c -1.469 -1.475 -3.147 -2.744 -4.969 -3.781 z m 4.969 3.781 c 3.854 4.113 6.219 9.637 6.219 15.719 c 0 12.703 -10.297 23 -23 23 c -6.081 0 -11.606 -2.364 -15.719 -6.219 c 4.16 4.144 9.883 6.719 16.219 6.719 c 12.703 0 23 -10.298 23 -23 c 0 -6.335 -2.575 -12.06 -6.719 -16.219 z"
     id="path9" />
  <path
     opacity=".1"
     d="m 41.28 8.781 c 3.712 4.085 5.969 9.514 5.969 15.469 c 0 12.703 -10.297 23 -23 23 c -5.954 0 -11.384 -2.256 -15.469 -5.969 c 4.113 3.854 9.637 6.219 15.719 6.219 c 12.703 0 23 -10.298 23 -23 c 0 -6.081 -2.364 -11.606 -6.219 -15.719 z"
     id="path11" />
  <path
     opacity=".2"
     d="m 31.25 2.375 c 8.615 3.154 14.75 11.417 14.75 21.13 c 0 12.426 -10.07 22.5 -22.5 22.5 c -9.708 0 -17.971 -6.135 -21.12 -14.75 a 23 23 0 0 0 44.875 -7 a 23 23 0 0 0 -16 -21.875 z"
     id="path13" />
  <circle
     fill="url(#bg)"
     cx="24"
     cy="24"
     r="23"
     id="circle15"
     style="fill:#ececec" />
  <path
     transform="translate(1 1)"
     opacity=".1"
     d="m 31,17 a 7,7 0 0 1 -7,7 7,7 0 0 1 -7,-7 7,7 0 0 1 7,-7 7,7 0 0 1 7,7 z m 1,13 a 2,2 0 0 1 -2,2 2,2 0 0 1 -2,-2 2,2 0 0 1 2,-2 2,2 0 0 1 2,2 z M 20,28 a 2,2 0 0 1 -2,2 2,2 0 0 1 -2,-2 2,2 0 0 1 2,-2 2,2 0 0 1 2,2 z m 0,10 2,-1 0,-6 -5,-3 0,-1 5,2 0,-8 4,0 0,10 5,-2 0,1 -5,3 0,4 2,1 z"
     id="path17" />
  <g
     id="g27">
    <path
       d="M20,38 22,37 V31 l-5,-3 v-1 l5,2 V21 H26 V31 l5,-2 v1 l-5,3L 26,37 28,38 Z"
       fill="#805030"
       id="path19" />
    <circle
       cx="18"
       cy="28"
       r="2"
       fill="#172"
       id="circle21" />
    <circle
       cx="30"
       cy="30"
       r="2"
       fill="#172"
       id="circle23" />
    <circle
       cx="24"
       cy="17"
       r="7"
       fill="#172"
       id="circle25" />
  </g>
  <path
     fill="#994911"
     d="M 5.75171240910534 38 A 23 23 0 0 0 42.2482875908947 38 Z"
     id="path29" />
  <path
     fill="#7a9722"
     d="M 5.75171240910534 38 A 23 23 0 0 0 7.4772883581417  40 L 40.5227116418583 40 A 23 23 0 0 0 42.2482875908947 38 Z"
     id="path31" />
  <path
     opacity=".1"
     d="m 40.03 7.531 c 3.712 4.084 5.969 9.514 5.969 15.469 0 12.703 -10.297 23 -23 23 c -5.954 0 -11.384 -2.256 -15.469 -5.969 4.178 4.291 10.01 6.969 16.469 6.969 c 12.703 0 23 -10.298 23 -23 0 -6.462 -2.677 -12.291 -6.969 -16.469 z"
     id="path33" />
</svg>
