<?xml version="1.0" encoding="UTF-8" standalone="no"?>
<svg
   xmlns:dc="http://purl.org/dc/elements/1.1/"
   xmlns:cc="http://creativecommons.org/ns#"
   xmlns:rdf="http://www.w3.org/1999/02/22-rdf-syntax-ns#"
   xmlns:svg="http://www.w3.org/2000/svg"
   xmlns="http://www.w3.org/2000/svg"
   xmlns:xlink="http://www.w3.org/1999/xlink"
   xmlns:sodipodi="http://sodipodi.sourceforge.net/DTD/sodipodi-0.dtd"
   xmlns:inkscape="http://www.inkscape.org/namespaces/inkscape"
   viewBox="0 0 48 48"
   id="svg2"
   version="1.1"
   inkscape:version="0.92.2 2405546, 2018-03-11"
   sodipodi:docname="thunar.svg">
  <metadata
     id="metadata59">
    <rdf:RDF>
      <cc:Work
         rdf:about="">
        <dc:format>image/svg+xml</dc:format>
        <dc:type
           rdf:resource="http://purl.org/dc/dcmitype/StillImage" />
        <dc:title />
      </cc:Work>
    </rdf:RDF>
  </metadata>
  <sodipodi:namedview
     pagecolor="#ffffff"
     bordercolor="#666666"
     borderopacity="1"
     objecttolerance="10"
     gridtolerance="10"
     guidetolerance="10"
     inkscape:pageopacity="0"
     inkscape:pageshadow="2"
     inkscape:window-width="1853"
     inkscape:window-height="1052"
     id="namedview57"
     showgrid="false"
     inkscape:zoom="9.8333333"
     inkscape:cx="2.5408529"
     inkscape:cy="3.8396921"
     inkscape:window-x="67"
     inkscape:window-y="28"
     inkscape:window-maximized="1"
     inkscape:current-layer="svg2" />
  <defs
     id="defs4">
    <linearGradient
       id="linearGradient3894">
      <stop
         id="stop3896"
         style="stop-color:#b4b4b4;stop-opacity:1;"
         offset="0" />
      <stop
         id="stop3898"
         style="stop-color:#bebebe;stop-opacity:1;"
         offset="0.26310048" />
      <stop
         id="stop3900"
         style="stop-color:#a0a0a0;stop-opacity:1;"
         offset="1" />
    </linearGradient>
    <linearGradient
       id="linearGradient5320">
      <stop
         offset="0"
         style="stop-color:#808080;stop-opacity:1"
         id="stop5322" />
      <stop
         offset="0.26310048"
         style="stop-color:#bebebe;stop-opacity:1;"
         id="stop5324" />
      <stop
         offset="1"
         style="stop-color:#8c8c8c;stop-opacity:1;"
         id="stop5326" />
    </linearGradient>
    <linearGradient
       id="linearGradient3994">
      <stop
         offset="0"
         style="stop-color:#dcdcdc;stop-opacity:1;"
         id="stop3996" />
      <stop
         offset="0.30412394"
         style="stop-color:#e6e6e6;stop-opacity:1;"
         id="stop4000" />
      <stop
         offset="1"
         style="stop-color:#c8c8c8;stop-opacity:1;"
         id="stop4004" />
    </linearGradient>
    <linearGradient
       gradientTransform="matrix(1.0058652,0,0,0.994169,100,0)"
       gradientUnits="userSpaceOnUse"
       id="ButtonShadow-0-1-1-5-9"
       y2="7.0165396"
       x2="45.447727"
       y1="92.539597"
       x1="45.447727">
      <stop
         offset="0"
         style="stop-color:#000000;stop-opacity:1"
         id="stop3750-8-9-3-6-4" />
      <stop
         offset="1"
         style="stop-color:#000000;stop-opacity:0.58823532"
         id="stop3752-5-6-4-2-9" />
    </linearGradient>
    <linearGradient
       id="linearGradient3737-9">
      <stop
         offset="0"
         style="stop-color:#ffffff;stop-opacity:1"
         id="stop3739-7" />
      <stop
         offset="1"
         style="stop-color:#ffffff;stop-opacity:0"
         id="stop3741-4" />
    </linearGradient>
    <linearGradient
       id="linearGradient4046-3">
      <stop
         offset="0"
         style="stop-color:#000000;stop-opacity:1;"
         id="stop4048-7" />
      <stop
         offset="1"
         style="stop-color:#ffffff;stop-opacity:0.2"
         id="stop4050-73" />
    </linearGradient>
    <linearGradient
       id="linearGradient3700">
      <stop
         id="stop3702"
         style="stop-color:#dcdcdc;stop-opacity:1"
         offset="0" />
      <stop
         id="stop3822"
         style="stop-color:#f0f0f0;stop-opacity:1"
         offset="0.30000001" />
      <stop
         id="stop3824"
         style="stop-color:#dcdcdc;stop-opacity:1"
         offset="0.60000002" />
      <stop
         id="stop3828"
         style="stop-color:#c8c8c8;stop-opacity:1"
         offset="0.80000001" />
      <stop
         id="stop3704"
         style="stop-color:#bebebe;stop-opacity:1"
         offset="1" />
    </linearGradient>
    <linearGradient
       x1="48"
       y1="20.220806"
       x2="48"
       y2="138.66119"
       id="linearGradient3613"
       xlink:href="#linearGradient3737-9"
       gradientUnits="userSpaceOnUse" />
    <clipPath
       id="clipPath3613">
      <rect
         width="84"
         height="84"
         rx="6"
         ry="6"
         x="6"
         y="6"
         id="rect3615"
         style="fill:#ffffff;fill-opacity:1;fill-rule:nonzero;stroke:none" />
    </clipPath>
    <filter
       x="-0.192"
       y="-0.192"
       width="1.3839999"
       height="1.3839999"
       color-interpolation-filters="sRGB"
       id="filter3794">
      <feGaussianBlur
         id="feGaussianBlur3796"
         stdDeviation="5.28" />
    </filter>
    <filter
       x="-0.06469065"
       y="-0.18604138"
       width="1.1293813"
       height="1.3720828"
       color-interpolation-filters="sRGB"
       id="filter4078">
      <feGaussianBlur
         id="feGaussianBlur4080"
         stdDeviation="0.7025" />
    </filter>
    <linearGradient
       gradientTransform="matrix(4.7857143,0,0,4.7857143,26.28571,39.636159)"
       y2="48"
       x2="72"
       y1="8"
       x1="24"
       gradientUnits="userSpaceOnUse"
       id="linearGradient10438"
       xlink:href="#linearGradient3994"
       inkscape:collect="always" />
    <linearGradient
       y2="88"
       x2="72"
       y1="40"
       x1="24"
       gradientUnits="userSpaceOnUse"
       id="linearGradient10440"
       xlink:href="#linearGradient3994"
       inkscape:collect="always" />
    <linearGradient
       gradientTransform="matrix(4.7857143,0,0,4.7857143,26.290178,39.649543)"
       y2="88"
       x2="72"
       y1="40"
       x1="24"
       gradientUnits="userSpaceOnUse"
       id="linearGradient3839"
       xlink:href="#linearGradient3994"
       inkscape:collect="always" />
  </defs>
  <g
     id="g11">
    <path
       d="m 36.31 5 c 5.859 4.062 9.688 10.831 9.688 18.5 c 0 12.426 -10.07 22.5 -22.5 22.5 c -7.669 0 -14.438 -3.828 -18.5 -9.688 c 1.037 1.822 2.306 3.499 3.781 4.969 c 4.085 3.712 9.514 5.969 15.469 5.969 c 12.703 0 23 -10.298 23 -23 c 0 -5.954 -2.256 -11.384 -5.969 -15.469 c -1.469 -1.475 -3.147 -2.744 -4.969 -3.781 z m 4.969 3.781 c 3.854 4.113 6.219 9.637 6.219 15.719 c 0 12.703 -10.297 23 -23 23 c -6.081 0 -11.606 -2.364 -15.719 -6.219 c 4.16 4.144 9.883 6.719 16.219 6.719 c 12.703 0 23 -10.298 23 -23 c 0 -6.335 -2.575 -12.06 -6.719 -16.219 z"
       style="opacity:0.05"
       id="path13" />
    <path
       d="m 41.28 8.781 c 3.712 4.085 5.969 9.514 5.969 15.469 c 0 12.703 -10.297 23 -23 23 c -5.954 0 -11.384 -2.256 -15.469 -5.969 c 4.113 3.854 9.637 6.219 15.719 6.219 c 12.703 0 23 -10.298 23 -23 c 0 -6.081 -2.364 -11.606 -6.219 -15.719 z"
       style="opacity:0.1"
       id="path15" />
    <path
       d="m 31.25 2.375 c 8.615 3.154 14.75 11.417 14.75 21.13 c 0 12.426 -10.07 22.5 -22.5 22.5 c -9.708 0 -17.971 -6.135 -21.12 -14.75 a 23 23 0 0 0 44.875 -7 a 23 23 0 0 0 -16 -21.875 z"
       style="opacity:0.2"
       id="path17" />
  </g>
  <path
     inkscape:connector-curvature="0"
     id="path21"
     style="fill:#ececec;fill-opacity:1"
     d="M 1,24 C 1,11.297 11.297,1 24,1 36.703,1 47,11.297 47,24 47,36.703 36.703,47 24,47 11.297,47 1,36.703 1,24 Z" />
  <g
     id="g53">
    <path
       d="m 40.03 7.531 c 3.712 4.084 5.969 9.514 5.969 15.469 0 12.703 -10.297 23 -23 23 c -5.954 0 -11.384 -2.256 -15.469 -5.969 4.178 4.291 10.01 6.969 16.469 6.969 c 12.703 0 23 -10.298 23 -23 0 -6.462 -2.677 -12.291 -6.969 -16.469 z"
       style="opacity:0.1"
       id="path55" />
  </g>
  <g
     id="g1899"
     transform="matrix(0.01756104,0,0,-0.0155847,3.9229504,41.242395)"
     style="fill:#4d4d4d;stroke:none">
    <path
       id="path1889"
       d="m 555,2018 c -3,-7 -39,-130 -80,-273 -41,-143 -78,-268 -81,-277 -5,-16 4,-18 85,-18 h 90 l 16,54 c 9,29 35,120 58,202 l 43,149 h 439 439 l 48,-165 c 27,-91 53,-182 59,-202 l 10,-38 h 89 c 50,0 90,1 90,3 0,1 -38,130 -83,287 l -82,285 -568,3 c -449,2 -569,0 -572,-10 z"
       inkscape:connector-curvature="0"
       style="fill:#4d4d4d" />
    <path
       id="path1891"
       d="m 767,1713 c -3,-16 -9,-36 -12,-45 -7,-17 15,-18 370,-18 355,0 377,1 370,18 -3,9 -9,29 -12,45 l -5,27 H 1125 773 Z"
       inkscape:connector-curvature="0"
       style="fill:#4d4d4d" />
    <path
       id="path1893"
       d="m 726,1558 c -3,-7 -9,-28 -15,-47 -21,-65 -51,-61 415,-61 h 426 l -7,36 c -3,20 -10,47 -15,60 l -10,24 h -395 c -308,0 -396,-3 -399,-12 z"
       inkscape:connector-curvature="0"
       style="fill:#4d4d4d" />
    <path
       id="path1895"
       d="m 234,1258 c 7,-35 28,-143 46,-240 l 34,-178 h 810 811 l 34,178 c 19,97 40,205 47,240 l 12,62 H 1125 222 Z m 1064,-114 c 14,-10 22,-26 22,-44 0,-52 -26,-60 -195,-60 -169,0 -195,8 -195,60 0,52 26,60 195,60 120,0 155,-3 173,-16 z"
       inkscape:connector-curvature="0"
       style="fill:#4d4d4d" />
    <path
       id="path1897"
       d="m 274,460 50,-240 h 801 801 l 50,240 50,240 H 1125 224 Z m 1032,66 c 19,-26 18,-55 -3,-78 -14,-16 -34,-18 -176,-18 -135,0 -163,3 -179,17 -31,27 -19,81 22,96 8,4 84,5 168,4 139,-2 155,-4 168,-21 z"
       inkscape:connector-curvature="0"
       style="fill:#4d4d4d" />
  </g>
</svg>
