<?xml version="1.0" encoding="UTF-8" standalone="no"?>
<svg
   xmlns:dc="http://purl.org/dc/elements/1.1/"
   xmlns:cc="http://creativecommons.org/ns#"
   xmlns:rdf="http://www.w3.org/1999/02/22-rdf-syntax-ns#"
   xmlns:svg="http://www.w3.org/2000/svg"
   xmlns="http://www.w3.org/2000/svg"
   xmlns:xlink="http://www.w3.org/1999/xlink"
   xmlns:sodipodi="http://sodipodi.sourceforge.net/DTD/sodipodi-0.dtd"
   xmlns:inkscape="http://www.inkscape.org/namespaces/inkscape"
   viewBox="0 0 48 48"
   id="svg2"
   version="1.1"
   inkscape:version="0.92.2 2405546, 2018-03-11"
   sodipodi:docname="user-desktop.svg">
  <metadata
     id="metadata37">
    <rdf:RDF>
      <cc:Work
         rdf:about="">
        <dc:format>image/svg+xml</dc:format>
        <dc:type
           rdf:resource="http://purl.org/dc/dcmitype/StillImage" />
        <dc:title></dc:title>
      </cc:Work>
    </rdf:RDF>
  </metadata>
  <sodipodi:namedview
     pagecolor="#ffffff"
     bordercolor="#666666"
     borderopacity="1"
     objecttolerance="10"
     gridtolerance="10"
     guidetolerance="10"
     inkscape:pageopacity="0"
     inkscape:pageshadow="2"
     inkscape:window-width="1920"
     inkscape:window-height="1003"
     id="namedview35"
     showgrid="false"
     inkscape:zoom="4.9166667"
     inkscape:cx="-23.094799"
     inkscape:cy="57.887791"
     inkscape:window-x="0"
     inkscape:window-y="0"
     inkscape:window-maximized="1"
     inkscape:current-layer="M" />
  <defs
     id="defs4">
    <linearGradient
       gradientTransform="matrix(0,-1,1,0,-1.5e-6,47.999998)"
       gradientUnits="userSpaceOnUse"
       x2="47"
       x1="1"
       id="linearGradient3764">
      <stop
         style="stop-color:#3d3d3d;stop-opacity:1"
         id="stop7" />
      <stop
         offset="1"
         style="stop-color:#474747;stop-opacity:1"
         id="stop9" />
    </linearGradient>
    <linearGradient
       id="2">
      <stop
         stop-color="#2e3436"
         id="D" />
      <stop
         stop-opacity="0"
         stop-color="#2e3436"
         id="E"
         offset="1" />
    </linearGradient>
    <linearGradient
       id="3">
      <stop
         stop-opacity="0.8"
         stop-color="#fff"
         id="F" />
      <stop
         stop-opacity="0"
         stop-color="#fff"
         id="G"
         offset="1" />
    </linearGradient>
    <linearGradient
       id="4">
      <stop
         stop-color="#729fcf"
         id="H" />
      <stop
         stop-color="#3465a4"
         id="I"
         offset="1" />
    </linearGradient>
    <linearGradient
       id="5">
      <stop
         stop-color="#d3d7cf"
         id="J" />
      <stop
         stop-color="#888a85"
         id="K"
         offset="1" />
    </linearGradient>
    <radialGradient
       gradientUnits="userSpaceOnUse"
       gradientTransform="matrix(1.5638033,-1.1298747,1.0731383,1.4852773,-30.251474,12.726229)"
       r="19.494"
       cy="13.432"
       cx="17.805"
       id="6"
       xlink:href="#5" />
    <radialGradient
       gradientUnits="userSpaceOnUse"
       gradientTransform="matrix(0.14274998,1.1954926,-1.3727886,0.16392028,15.757892,0.09273794)"
       r="20.609"
       cy="7.237"
       cx="4.812"
       id="7"
       xlink:href="#4" />
    <linearGradient
       gradientUnits="userSpaceOnUse"
       y2="37.594"
       x2="0"
       y1="8.156"
       id="8"
       xlink:href="#3" />
    <linearGradient
       gradientUnits="userSpaceOnUse"
       y2="15.13"
       x2="0"
       y1="7.06"
       id="9"
       xlink:href="#3" />
    <linearGradient
       gradientUnits="userSpaceOnUse"
       y2="38.688"
       x2="0"
       y1="30.625"
       id="A"
       xlink:href="#3" />
    <radialGradient
       gradientUnits="userSpaceOnUse"
       gradientTransform="matrix(1,0,0,0.1185567,0,38.959223)"
       r="21.07"
       cy="44.2"
       cx="24.11"
       id="B"
       xlink:href="#2" />
  </defs>
  <g
     id="g11">
    <path
       d="m 36.31 5 c 5.859 4.062 9.688 10.831 9.688 18.5 c 0 12.426 -10.07 22.5 -22.5 22.5 c -7.669 0 -14.438 -3.828 -18.5 -9.688 c 1.037 1.822 2.306 3.499 3.781 4.969 c 4.085 3.712 9.514 5.969 15.469 5.969 c 12.703 0 23 -10.298 23 -23 c 0 -5.954 -2.256 -11.384 -5.969 -15.469 c -1.469 -1.475 -3.147 -2.744 -4.969 -3.781 z m 4.969 3.781 c 3.854 4.113 6.219 9.637 6.219 15.719 c 0 12.703 -10.297 23 -23 23 c -6.081 0 -11.606 -2.364 -15.719 -6.219 c 4.16 4.144 9.883 6.719 16.219 6.719 c 12.703 0 23 -10.298 23 -23 c 0 -6.335 -2.575 -12.06 -6.719 -16.219 z"
       style="opacity:0.05"
       id="path13" />
    <path
       d="m 41.28 8.781 c 3.712 4.085 5.969 9.514 5.969 15.469 c 0 12.703 -10.297 23 -23 23 c -5.954 0 -11.384 -2.256 -15.469 -5.969 c 4.113 3.854 9.637 6.219 15.719 6.219 c 12.703 0 23 -10.298 23 -23 c 0 -6.081 -2.364 -11.606 -6.219 -15.719 z"
       style="opacity:0.1"
       id="path15" />
    <path
       d="m 31.25 2.375 c 8.615 3.154 14.75 11.417 14.75 21.13 c 0 12.426 -10.07 22.5 -22.5 22.5 c -9.708 0 -17.971 -6.135 -21.12 -14.75 a 23 23 0 0 0 44.875 -7 a 23 23 0 0 0 -16 -21.875 z"
       style="opacity:0.2"
       id="path17" />
  </g>
  <g
     id="g19"
     style="fill:#e6e6e6;fill-opacity:1">
    <path
       d="m 24 1 c 12.703 0 23 10.297 23 23 c 0 12.703 -10.297 23 -23 23 -12.703 0 -23 -10.297 -23 -23 0 -12.703 10.297 -23 23 -23 z"
       style="fill:#e6e6e6;fill-opacity:1"
       id="path21" />
  </g>
  <g
     id="g23">
    <path
       d="m 40.03 7.531 c 3.712 4.084 5.969 9.514 5.969 15.469 0 12.703 -10.297 23 -23 23 c -5.954 0 -11.384 -2.256 -15.469 -5.969 4.178 4.291 10.01 6.969 16.469 6.969 c 12.703 0 23 -10.298 23 -23 0 -6.462 -2.677 -12.291 -6.969 -16.469 z"
       style="opacity:0.1"
       id="path25" />
  </g>
  <g
     id="1"
     transform="matrix(0.823243,0,0,0.85215503,4.3334008,4.286336)">
    <g
       transform="translate(2.8406525e-8,0.12057245)"
       id="C">
      <path
         id="L"
         d="m 45.173395,44.199352 c 0,1.379369 -9.431766,2.497568 -21.066439,2.497568 -11.634672,0 -21.0664382,-1.118199 -21.0664382,-2.497568 0,-1.379368 9.4317662,-2.497567 21.0664382,-2.497567 11.634673,0 21.066439,1.118199 21.066439,2.497567 z"
         transform="matrix(1.1134021,0,0,1.4347826,-2.840736,-25.110928)"
         inkscape:connector-curvature="0"
         style="opacity:0.6;fill:url(#B)" />
      <g
         id="M"
         transform="translate(-0.20312503)">
        <path
           d="m 5.71875,7.03125 c -1.163996,0 -2.125,0.961004 -2.125,2.125 v 27.4375 c 0,1.163996 0.961004,2.125 2.125,2.125 H 42.6875 c 1.163996,0 2.125,-0.961004 2.125,-2.125 V 9.15625 c 0,-1.163996 -0.961004,-2.125 -2.125,-2.125 z"
           id="N"
           inkscape:connector-curvature="0"
           style="fill:#2e3436" />
        <rect
           rx="1"
           y="8.1660004"
           x="4.71"
           height="29.429001"
           width="38.988998"
           id="O"
           style="opacity:0.7;fill:url(#6)" />
        <path
           d="m 5.71875,8.65625 c -0.2776651,0 -0.5,0.2223349 -0.5,0.5 v 27.4375 c 0,0.277665 0.2223349,0.5 0.5,0.5 H 42.6875 c 0.277665,0 0.5,-0.222335 0.5,-0.5 V 9.15625 c 0,-0.2776651 -0.222335,-0.5 -0.5,-0.5 z"
           id="P"
           inkscape:connector-curvature="0"
           style="opacity:0.8;fill:none;stroke:url(#8)" />
        <path
           d="M 5.71875,5.875 C 3.9134814,5.875 2.4375,7.3509814 2.4375,9.15625 V 15.1875 A 1.1652086,1.1652086 0 0 0 4.40625,16 l 8.1875,-8.15625 A 1.1652086,1.1652086 0 0 0 11.78125,5.875 Z m 30.71875,0 A 1.1652086,1.1652086 0 0 0 35.84375,7.84375 L 44,16 a 1.1652086,1.1652086 0 0 0 1.96875,-0.8125 V 9.15625 C 45.96875,7.3509814 44.492769,5.875 42.6875,5.875 h -6.03125 a 1.1652086,1.1652086 0 0 0 -0.21875,0 z M 3.46875,29.40625 A 1.1652086,1.1652086 0 0 0 2.4375,30.5625 v 6.03125 c 0,1.805269 1.4759814,3.28125 3.28125,3.28125 h 6.0625 a 1.1652086,1.1652086 0 0 0 0.8125,-1.96875 L 4.40625,29.75 a 1.1652086,1.1652086 0 0 0 -0.9375,-0.34375 z m 41.1875,0 A 1.1652086,1.1652086 0 0 0 44,29.75 l -8.15625,8.15625 a 1.1652086,1.1652086 0 0 0 0.8125,1.96875 h 6.03125 c 1.805269,0 3.28125,-1.475981 3.28125,-3.28125 V 30.5625 a 1.1652086,1.1652086 0 0 0 -1.3125,-1.15625 z"
           id="Q"
           inkscape:connector-curvature="0"
           style="fill:#333333" />
        <path
           id="R"
           d="m 5.71875,7.03125 c -1.163996,0 -2.125,0.961004 -2.125,2.125 v 6.03125 l 8.1875,-8.15625 z m 30.9375,0 8.15625,8.15625 V 9.15625 c 0,-1.163996 -0.961004,-2.125 -2.125,-2.125 z M 3.59375,30.5625 v 6.03125 c 0,1.163996 0.961004,2.125 2.125,2.125 h 6.0625 z m 41.21875,0 -8.15625,8.15625 h 6.03125 c 1.163996,0 2.125,-0.961004 2.125,-2.125 z"
           inkscape:connector-curvature="0"
           style="fill:none;stroke:none" />
        <g
           id="S"
           style="fill:none;stroke:none">
          <path
             d="M 5.71875,7.0625 C 4.571881,7.0625 3.625,8.009381 3.625,9.15625 v 4.75 1.1875 L 4.46875,14.25 l 6.375,-6.34375 0.875,-0.84375 H 10.5 Z m 0,1 H 9.3125 L 4.625,12.71875 V 9.15625 C 4.625,8.5660144 5.1285144,8.0625 5.71875,8.0625 Z"
             id="U"
             inkscape:connector-curvature="0"
             style="color:#000000;fill:none;stroke:none" />
          <path
             d="m 36.71875,7.0625 0.875,0.84375 6.34375,6.34375 0.84375,0.875 v -1.21875 -4.75 c 0,-1.1468691 -0.946881,-2.09375 -2.09375,-2.09375 h -4.75 z m 2.40625,1 h 3.5625 c 0.590235,0 1.09375,0.5035145 1.09375,1.09375 v 3.5625 z"
             id="V"
             inkscape:connector-curvature="0"
             style="color:#000000;opacity:0.8;fill:none;stroke:none" />
        </g>
        <g
           id="T"
           style="fill:url(#A)">
          <path
             d="m 44.78125,30.625 -0.84375,0.875 -6.34375,6.34375 -0.875,0.84375 h 1.21875 4.75 c 1.146869,0 2.09375,-0.946881 2.09375,-2.09375 v -4.75 z m -1,2.40625 v 3.5625 c 0,0.590235 -0.503515,1.09375 -1.09375,1.09375 H 39.125 Z"
             id="W"
             inkscape:connector-curvature="0"
             style="color:#000000;fill:none" />
          <path
             d="m 3.625,30.65625 v 1.1875 4.75 c 0,1.146869 0.9468809,2.09375 2.09375,2.09375 H 10.5 11.71875 L 10.84375,37.84375 4.46875,31.5 Z m 1,2.375 4.6875,4.65625 H 5.71875 C 5.1285145,37.6875 4.625,37.183985 4.625,36.59375 Z"
             id="X"
             inkscape:connector-curvature="0"
             style="color:#000000;opacity:0.8;fill:none" />
        </g>
      </g>
    </g>
  </g>
</svg>
