<?xml version="1.0" encoding="UTF-8" standalone="no"?>
<svg
   xmlns:dc="http://purl.org/dc/elements/1.1/"
   xmlns:cc="http://creativecommons.org/ns#"
   xmlns:rdf="http://www.w3.org/1999/02/22-rdf-syntax-ns#"
   xmlns:svg="http://www.w3.org/2000/svg"
   xmlns="http://www.w3.org/2000/svg"
   xmlns:sodipodi="http://sodipodi.sourceforge.net/DTD/sodipodi-0.dtd"
   xmlns:inkscape="http://www.inkscape.org/namespaces/inkscape"
   version="1.1"
   viewBox="0 0 48 48"
   id="svg27"
   sodipodi:docname="waterfox.svg"
   inkscape:version="0.92.2 5c3e80d, 2017-08-06">
  <metadata
     id="metadata31">
    <rdf:RDF>
      <cc:Work
         rdf:about="">
        <dc:format>image/svg+xml</dc:format>
        <dc:type
           rdf:resource="http://purl.org/dc/dcmitype/StillImage" />
      </cc:Work>
    </rdf:RDF>
  </metadata>
  <sodipodi:namedview
     pagecolor="#ffffff"
     bordercolor="#666666"
     borderopacity="1"
     objecttolerance="10"
     gridtolerance="10"
     guidetolerance="10"
     inkscape:pageopacity="0"
     inkscape:pageshadow="2"
     inkscape:window-width="785"
     inkscape:window-height="480"
     id="namedview29"
     showgrid="false"
     inkscape:zoom="4.9166667"
     inkscape:cx="24"
     inkscape:cy="24"
     inkscape:window-x="74"
     inkscape:window-y="27"
     inkscape:window-maximized="0"
     inkscape:current-layer="svg27" />
  <defs
     id="defs7">
    <linearGradient
       id="bg"
       gradientUnits="userSpaceOnUse"
       x1="0"
       x2="0"
       y1="1"
       y2="47">
      <stop
         offset="0"
         stop-color="#39569d"
         id="stop2" />
      <stop
         offset="1"
         stop-color="#344e8e"
         id="stop4" />
    </linearGradient>
  </defs>
  <path
     opacity=".05"
     d="m 36.31 5 c 5.859 4.062 9.688 10.831 9.688 18.5 c 0 12.426 -10.07 22.5 -22.5 22.5 c -7.669 0 -14.438 -3.828 -18.5 -9.688 c 1.037 1.822 2.306 3.499 3.781 4.969 c 4.085 3.712 9.514 5.969 15.469 5.969 c 12.703 0 23 -10.298 23 -23 c 0 -5.954 -2.256 -11.384 -5.969 -15.469 c -1.469 -1.475 -3.147 -2.744 -4.969 -3.781 z m 4.969 3.781 c 3.854 4.113 6.219 9.637 6.219 15.719 c 0 12.703 -10.297 23 -23 23 c -6.081 0 -11.606 -2.364 -15.719 -6.219 c 4.16 4.144 9.883 6.719 16.219 6.719 c 12.703 0 23 -10.298 23 -23 c 0 -6.335 -2.575 -12.06 -6.719 -16.219 z"
     id="path9" />
  <path
     opacity=".1"
     d="m 41.28 8.781 c 3.712 4.085 5.969 9.514 5.969 15.469 c 0 12.703 -10.297 23 -23 23 c -5.954 0 -11.384 -2.256 -15.469 -5.969 c 4.113 3.854 9.637 6.219 15.719 6.219 c 12.703 0 23 -10.298 23 -23 c 0 -6.081 -2.364 -11.606 -6.219 -15.719 z"
     id="path11" />
  <path
     opacity=".2"
     d="m 31.25 2.375 c 8.615 3.154 14.75 11.417 14.75 21.13 c 0 12.426 -10.07 22.5 -22.5 22.5 c -9.708 0 -17.971 -6.135 -21.12 -14.75 a 23 23 0 0 0 44.875 -7 a 23 23 0 0 0 -16 -21.875 z"
     id="path13" />
  <circle
     fill="url(#bg)"
     cx="24"
     cy="24"
     r="23"
     id="circle15"
     style="fill:#ececec" />
  <path
     opacity=".1"
     d="m 40.03 7.531 c 3.712 4.084 5.969 9.514 5.969 15.469 0 12.703 -10.297 23 -23 23 c -5.954 0 -11.384 -2.256 -15.469 -5.969 4.178 4.291 10.01 6.969 16.469 6.969 c 12.703 0 23 -10.298 23 -23 0 -6.462 -2.677 -12.291 -6.969 -16.469 z"
     id="path17" />
  <g
     id="g25">
    <circle
       fill="#252f3c"
       cx="24"
       cy="24"
       r="12"
       id="circle19" />
    <path
       d="M 24.8609,6.62759 C 23.5196,6.76323 22.4389,8.04977 22,9.13393 A 15,15 0 1,0 39,24 C 39,19 36.1993,18.554 35.5594,14.4406 C 32.5,17.5 32,19 32,22 S 33,26.5 33,28.5 S 32,33 29,34.9087 C 32,29 28,25.5 28,25.5 A 5.5,5.5 0 1,1 22.5,20 S 21.7595,17.5377 17,17 C 21,15 23,16 26,16 S 31.1,15.6 33.6391,12.1475 C 29.9699,12.0751 27.8052,9.71753 25,9.03337 C 25.1834,8.23498 25.5148,7.50964 26.3734,6.99444 C 25.8458,6.67788 25.3378,6.57936 24.8609,6.62759 Z"
       opacity=".1"
       transform="translate(1 1)"
       id="path21" />
    <path
       d="M 24.8609,6.62759 C 23.5196,6.76323 22.4389,8.04977 22,9.13393 A 15,15 0 1,0 39,24 C 39,19 36,18 35.5594,14.4406 C 32.5,17.5 32,19 32,22 S 33,26.5 33,28.5 S 32,33 29,34.9087 C 32,29 28,25.5 28,25.5 A 5.5,5.5 0 1,1 22.5,20 S 21.7595,17.5377 17,17 C 21,15 23,16 26,16 S 30.5,15.5 33.5594,12.4406 C 30,12 27.8052,9.71753 25,9.03337 C 25.1834,8.23498 25.5148,7.50964 26.3734,6.99444 C 25.8458,6.67788 25.3378,6.57936 24.8609,6.62759 Z"
       fill="#3490b5"
       id="path23" />
  </g>
</svg>
