<?xml version="1.0" encoding="UTF-8" standalone="no"?>
<svg
   xmlns:dc="http://purl.org/dc/elements/1.1/"
   xmlns:cc="http://creativecommons.org/ns#"
   xmlns:rdf="http://www.w3.org/1999/02/22-rdf-syntax-ns#"
   xmlns:svg="http://www.w3.org/2000/svg"
   xmlns="http://www.w3.org/2000/svg"
   xmlns:sodipodi="http://sodipodi.sourceforge.net/DTD/sodipodi-0.dtd"
   xmlns:inkscape="http://www.inkscape.org/namespaces/inkscape"
   inkscape:version="1.0 (4035a4fb49, 2020-05-01)"
   sodipodi:docname="system-shutdown-symbolic.svg"
   id="svg6"
   version="1.1"
   height="24"
   width="24">
  <metadata
     id="metadata12">
    <rdf:RDF>
      <cc:Work
         rdf:about="">
        <dc:format>image/svg+xml</dc:format>
        <dc:type
           rdf:resource="http://purl.org/dc/dcmitype/StillImage" />
        <dc:title></dc:title>
      </cc:Work>
    </rdf:RDF>
  </metadata>
  <defs
     id="defs10" />
  <sodipodi:namedview
     inkscape:current-layer="svg6"
     inkscape:window-maximized="1"
     inkscape:window-y="0"
     inkscape:window-x="0"
     inkscape:cy="8"
     inkscape:cx="8"
     inkscape:zoom="47.625"
     showgrid="false"
     id="namedview8"
     inkscape:window-height="1001"
     inkscape:window-width="1920"
     inkscape:pageshadow="2"
     inkscape:pageopacity="0"
     guidetolerance="10"
     gridtolerance="10"
     objecttolerance="10"
     borderopacity="1"
     bordercolor="#666666"
     pagecolor="#ffffff" />
  <path
     id="path2"
     d="m 12,5.5 c 0.554,0 1,0.446 1,1 v 5 c 0,0.554 -0.446,1 -1,1 -0.554,0 -1,-0.446 -1,-1 v -5 c 0,-0.554 0.446,-1 1,-1 z"
     style="fill:#444444" />
  <path
     id="path4"
     d="m 15,7.5 c -0.552,0 -1,0.4477 -1,1 0,0.2839 0.102,0.5767 0.329,0.748 1.029,0.777 1.669,1.9628 1.671,3.252 0,2.209 -1.791,4 -4,4 -2.2091,0 -4,-1.791 -4,-4 C 8.0024,11.2105 8.644,10.0253 9.6719,9.2471 9.8981,9.0759 9.9994,8.7833 10,8.5 10,7.9477 9.5523,7.5 9,7.5 8.7151,7.5 8.4724,7.6511 8.2539,7.834 6.8611,8.9998 6.0063,10.6837 6,12.5 c 0,3.314 2.6863,6 6,6 3.314,0 6,-2.686 6,-6 C 17.996,10.6678 17.137,8.9602 15.714,7.7998 15.504,7.6282 15.267,7.5 15,7.5 Z"
     style="fill:#444444" />
</svg>
