<?xml version="1.0" encoding="UTF-8" standalone="no"?>
<svg
   xmlns:dc="http://purl.org/dc/elements/1.1/"
   xmlns:cc="http://creativecommons.org/ns#"
   xmlns:rdf="http://www.w3.org/1999/02/22-rdf-syntax-ns#"
   xmlns:svg="http://www.w3.org/2000/svg"
   xmlns="http://www.w3.org/2000/svg"
   xmlns:sodipodi="http://sodipodi.sourceforge.net/DTD/sodipodi-0.dtd"
   xmlns:inkscape="http://www.inkscape.org/namespaces/inkscape"
   inkscape:version="1.0.1 (3bc2e813f5, 2020-09-07)"
   sodipodi:docname="application-vnd.flatpak.svg"
   id="svg16"
   version="1"
   height="32"
   width="32">
  <metadata
     id="metadata22">
    <rdf:RDF>
      <cc:Work
         rdf:about="">
        <dc:format>image/svg+xml</dc:format>
        <dc:type
           rdf:resource="http://purl.org/dc/dcmitype/StillImage" />
      </cc:Work>
    </rdf:RDF>
  </metadata>
  <defs
     id="defs20">
    <filter
       inkscape:collect="always"
       style="color-interpolation-filters:sRGB"
       id="filter33294"
       x="-0.079493157"
       width="1.1589863"
       y="-0.070987599"
       height="1.1419752">
      <feGaussianBlur
         inkscape:collect="always"
         stdDeviation="0.8280565"
         id="feGaussianBlur33296" />
    </filter>
  </defs>
  <sodipodi:namedview
     inkscape:current-layer="svg16"
     inkscape:window-maximized="1"
     inkscape:window-y="0"
     inkscape:window-x="0"
     inkscape:cy="11.163838"
     inkscape:cx="-0.062483133"
     inkscape:zoom="11.90625"
     showgrid="false"
     id="namedview18"
     inkscape:window-height="1000"
     inkscape:window-width="1920"
     inkscape:pageshadow="2"
     inkscape:pageopacity="0"
     guidetolerance="10"
     gridtolerance="10"
     objecttolerance="10"
     borderopacity="1"
     bordercolor="#666666"
     pagecolor="#ffffff"
     inkscape:document-rotation="0" />
  <path
     d="m 15.574253,2.0022988 v 0.002 a 3.1730185,3.2214105 0 0 0 -1.660156,0.427734 l -9.3359366,5.472656 a 3.1730185,3.2214105 0 0 0 -1.566407,2.4589842 c -2e-6,0 -0.00586,0 -0.00586,0 -0.00117,0.02013 -0.00114,0.0404 -0.00195,0.06055 -5.25e-4,0.01301 -0.00159,0.02605 -0.00195,0.03906 -6.4e-5,0.0013 6.3e-5,0.0026 0,0.0039 a 3.1730185,3.2214105 0 0 0 -0.00195,0.02148 3.1730185,3.2214105 0 0 0 0,0.01172 c -1.22e-4,0.0078 5.8e-5,0.01564 0,0.02344 v 10.886668 c 8.1e-5,0.284285 0.039295,0.56279 0.111328,0.830078 0.036034,0.133627 0.08012,0.263571 0.132812,0.390625 0.263225,0.636117 0.728218,1.17954 1.341797,1.535157 l 9.3281246,5.410156 c 0.01689,0.0098 0.03571,0.014 0.05274,0.02344 0.13855,0.07695 0.281803,0.142653 0.427734,0.197265 0.03824,0.01408 0.0766,0.02652 0.115234,0.03906 0.148426,0.04908 0.298481,0.08683 0.451172,0.113281 0.01319,0.0023 0.02585,0.0076 0.03906,0.0098 v -0.002 c 0.707837,0.113457 1.445497,-0.01147 2.085937,-0.382812 l 9.328125,-5.408203 c 0.981268,-0.568724 1.586099,-1.620184 1.585938,-2.757813 V 10.523784 c -1.21e-4,-0.0032 1.31e-4,-0.0065 0,-0.0098 a 3.1730185,3.2214105 0 0 0 -0.002,-0.01563 c -0.0014,-0.0317 -0.0015,-0.06405 -0.0039,-0.0957 0,0 -0.002,0 -0.002,0 a 3.1730185,3.2214105 0 0 0 -1.078125,-2.1406254 3.1730185,3.2214105 0 0 0 -0.113281,-0.0957 3.1730185,3.2214105 0 0 0 -0.002,0 3.1730185,3.2214105 0 0 0 -0.117188,-0.0918 3.1730185,3.2214105 0 0 0 -0.002,0 3.1730185,3.2214105 0 0 0 -0.121094,-0.08594 3.1730185,3.2214105 0 0 0 -0.002,0 3.1730185,3.2214105 0 0 0 -0.126953,-0.07812 3.1730185,3.2214105 0 0 0 -0.0059,-0.0059 h -0.002 l -9.333985,-5.472656 a 3.1730185,3.2214105 0 0 0 -0.132812,-0.07227 3.1730185,3.2214105 0 0 0 -0.132813,-0.06641 3.1730185,3.2214105 0 0 0 -0.138672,-0.05859 3.1730185,3.2214105 0 0 0 -0.138672,-0.05469 3.1730185,3.2214105 0 0 0 -0.287109,-0.08594 3.1730185,3.2214105 0 0 0 -0.683594,-0.0918 z"
     style="fill:#000000;fill-opacity:1;opacity:0.5;filter:url(#filter33294)"
     id="path4-9" />
  <path
     id="path4"
     d="m 3.0054254,10.361575 c -0.00315,0.05326 -0.00495,0.106603 -0.00542,0.15996 v 10.886991 c 3.255e-4,1.13714 0.6047071,2.187762 1.5855577,2.756241 l 9.3288849,5.408575 c 0.981119,0.568877 2.189996,0.568877 3.171115,0 l 9.328883,-5.408575 C 27.395714,23.596043 28.000161,22.544788 28,21.407159 V 10.521535 C 27.9985,10.481385 27.9962,10.441285 27.9932,10.401223 28,10.399971 3.0054254,10.361575 3.0054254,10.361575 Z"
     style="fill:#e4ba75" />
  <path
     id="path6"
     d="m 15.574656,1.9999999 v 0.00139 A 3.1730185,3.2214105 0 0 0 13.913237,2.4302546 L 4.5772613,7.9032045 A 3.1730185,3.2214105 0 0 0 3,10.486116 3.1730185,3.2214105 0 0 0 4.5772613,13.095314 l 9.3359757,5.47295 a 3.1730185,3.2214105 0 0 0 3.173525,0 l 9.335977,-5.47295 A 3.1730185,3.2214105 0 0 0 28,10.512402 3.1730185,3.2214105 0 0 0 26.422739,7.9032045 L 17.086762,2.4302546 A 3.1730185,3.2214105 0 0 0 15.574656,1.9999999 Z"
     style="fill:#b89863" />
  <path
     id="path8"
     d="M 15.574219,2 V 2.00197 A 3.1730185,3.2214105 0 0 0 15,2.0415038 V 18.955294 a 3.1730185,3.2214105 0 0 0 2.085938,-0.387368 l 9.335937,-5.472574 A 3.1730185,3.2214105 0 0 0 28,10.512233 3.1730185,3.2214105 0 0 0 26.421875,7.9034228 L 17.085938,2.430849 A 3.1730185,3.2214105 0 0 0 15.574219,2 Z"
     style="opacity:0.07" />
  <path
     id="path10"
     d="M 3.0039062 10.421875 C 3.003334 10.436183 3.0026458 10.450512 3.0019531 10.464844 A 3.1730185 3.2214105 0 0 1 3.0058594 10.435547 A 3.1730185 3.183519 0 0 1 3.0039062 10.421875 z M 3.0019531 10.496094 C 3.0016676 10.504572 3.0000746 10.513012 3 10.521484 L 3 21.408203 C 3.0003255 22.545343 3.6050869 23.595584 4.5859375 24.164062 L 13.914062 29.574219 C 14.254741 29.771753 14.62335 29.896679 15 29.957031 L 15 18.955078 A 3.1730185 3.2214105 0 0 1 13.914062 18.568359 L 4.578125 13.095703 A 3.1730185 3.2214105 0 0 1 3.0019531 10.496094 z"
     style="opacity:0.1" />
  <path
     id="path12"
     d="M 15.574219 2 L 15.574219 2.0019531 A 3.1730185 3.2214105 0 0 0 13.914062 2.4296875 L 4.578125 7.9023438 A 3.1730185 3.2214105 0 0 0 3 10.486328 A 3.1730185 3.2214105 0 0 0 3.0722656 10.996094 A 3.1730185 3.2214105 0 0 1 4.578125 8.9023438 L 13.914062 3.4296875 A 3.1730185 3.2214105 0 0 1 15.574219 3.0019531 L 15.574219 3 A 3.1730185 3.2214105 0 0 1 17.085938 3.4296875 L 26.421875 8.9023438 A 3.1730185 3.2214105 0 0 1 27.927734 11.001953 A 3.1730185 3.2214105 0 0 0 28 10.511719 A 3.1730185 3.2214105 0 0 0 26.421875 7.9023438 L 17.085938 2.4296875 A 3.1730185 3.2214105 0 0 0 15.574219 2 z"
     style="opacity:0.1;fill:#ffffff" />
  <path
     id="path14"
     d="M 3.0722656 9.9960938 A 3.1730185 3.2214105 0 0 0 3 10.486328 A 3.1730185 3.2214105 0 0 0 4.578125 13.095703 L 13.914062 18.568359 A 3.1730185 3.2214105 0 0 0 17.085938 18.568359 L 26.421875 13.095703 A 3.1730185 3.2214105 0 0 0 28 10.511719 A 3.1730185 3.2214105 0 0 0 27.927734 10.001953 A 3.1730185 3.2214105 0 0 1 26.421875 12.095703 L 17.085938 17.568359 A 3.1730185 3.2214105 0 0 1 13.914062 17.568359 L 4.578125 12.095703 A 3.1730185 3.2214105 0 0 1 3.0722656 9.9960938 z"
     style="opacity:0.1" />
</svg>
