<?xml version="1.0" encoding="UTF-8" standalone="no"?>
<svg
   xmlns:dc="http://purl.org/dc/elements/1.1/"
   xmlns:cc="http://creativecommons.org/ns#"
   xmlns:rdf="http://www.w3.org/1999/02/22-rdf-syntax-ns#"
   xmlns:svg="http://www.w3.org/2000/svg"
   xmlns="http://www.w3.org/2000/svg"
   xmlns:xlink="http://www.w3.org/1999/xlink"
   xmlns:sodipodi="http://sodipodi.sourceforge.net/DTD/sodipodi-0.dtd"
   xmlns:inkscape="http://www.inkscape.org/namespaces/inkscape"
   width="32"
   height="32"
   version="1"
   id="svg12"
   sodipodi:docname="appimagekit-AppImage.svg"
   inkscape:version="1.0.2 (e86c870879, 2021-01-15)">
  <metadata
     id="metadata18">
    <rdf:RDF>
      <cc:Work
         rdf:about="">
        <dc:format>image/svg+xml</dc:format>
        <dc:type
           rdf:resource="http://purl.org/dc/dcmitype/StillImage" />
        <dc:title />
      </cc:Work>
    </rdf:RDF>
  </metadata>
  <defs
     id="defs16">
    <linearGradient
       inkscape:collect="always"
       id="linearGradient866">
      <stop
         style="stop-color:#0abff4;stop-opacity:1"
         offset="0"
         id="stop862" />
      <stop
         style="stop-color:#0098f8;stop-opacity:1"
         offset="1"
         id="stop864" />
    </linearGradient>
    <linearGradient
       inkscape:collect="always"
       xlink:href="#linearGradient866"
       id="linearGradient868"
       x1="16"
       y1="1.9996937"
       x2="16"
       y2="30.000306"
       gradientUnits="userSpaceOnUse" />
    <filter
       inkscape:collect="always"
       style="color-interpolation-filters:sRGB"
       id="filter33262"
       x="-0.076031606"
       width="1.1520632"
       y="-0.073996013"
       height="1.147992">
      <feGaussianBlur
         inkscape:collect="always"
         stdDeviation="0.86330576"
         id="feGaussianBlur33264" />
    </filter>
  </defs>
  <sodipodi:namedview
     inkscape:document-rotation="0"
     pagecolor="#ffffff"
     bordercolor="#666666"
     borderopacity="1"
     objecttolerance="10"
     gridtolerance="10"
     guidetolerance="10"
     inkscape:pageopacity="0"
     inkscape:pageshadow="2"
     inkscape:window-width="1920"
     inkscape:window-height="999"
     id="namedview14"
     showgrid="false"
     inkscape:zoom="23.8125"
     inkscape:cx="12.850393"
     inkscape:cy="16"
     inkscape:window-x="0"
     inkscape:window-y="0"
     inkscape:window-maximized="1"
     inkscape:current-layer="svg12" />
  <path
     id="path2-3"
     d="m 13.134132,2.0006153 c -0.29681,0.0323 -0.55825,0.27515 -0.6125,0.56874 l -0.59061,2.9968 c -1.0603,0.41466 -2.0567997,0.98438 -2.9311997,1.6844 l -2.909,-0.9844 c -0.30225,-0.10422 -0.66885,0.0308 -0.83124,0.30625 l -2.8,4.8561997 c -0.15772,0.2793 -0.0901,0.66583 0.15312,0.87499 l 2.3187,2.0343 c -0.0816,0.54547 -0.13125,1.0943 -0.13125,1.662501 0,0.568219 0.0496,1.116999 0.13125,1.662499 l -2.3187,2.0344 c -0.24319,0.209161 -0.31084,0.595691 -0.15312,0.87499 l 2.8,4.856201 c 0.16239,0.2754 0.52899,0.41046 0.83124,0.306239 l 2.9093,-0.984359 c 0.87441,0.69997 1.8708997,1.2697 2.9311997,1.6844 l 0.59061,2.9968 c 0.0599,0.3137 0.35879,0.56439 0.67812,0.568741 h 5.5999 c 0.31933,-0.004 0.61824,-0.255041 0.67811,-0.56874 l 0.59062,-2.9968 c 1.0603,-0.41466 2.0568,-0.98439 2.9312,-1.6844 l 2.9093,0.98436 c 0.30224,0.10422 0.66885,-0.0308 0.83124,-0.30624 l 2.8,-4.8562 c 0.15771,-0.2793 0.0901,-0.66583 -0.15312,-0.87499 l -2.3187,-2.034401 c 0.0816,-0.545471 0.13124,-1.0942 0.13124,-1.662499 0,-0.56822 -0.0497,-1.117 -0.13124,-1.6625 l 2.3187,-2.0343 c 0.24319,-0.20916 0.31083,-0.595691 0.15312,-0.874991 l -2.8,-4.8562007 c -0.16239,-0.2754 -0.529,-0.41047 -0.83124,-0.30625 l -2.9093,0.98436 c -0.875,-0.7005 -1.871,-1.2702 -2.931,-1.6849 l -0.59062,-2.9968 c -0.0599,-0.3137 -0.35878,-0.5644 -0.67811,-0.56874 h -5.5999 c -0.0219,-5.1e-4 -0.0438,-5.1e-4 -0.0656,0 z"
     style="opacity:0.5;fill:#000000;fill-opacity:1;filter:url(#filter33262)" />
  <path
     style="fill:url(#linearGradient868);fill-opacity:1"
     d="m 13.134132,2.0006162 c -0.29681,0.0323 -0.55825,0.27515 -0.6125,0.56874 l -0.59061,2.9968 c -1.0603,0.41466 -2.0567998,0.98438 -2.9311998,1.6844 l -2.909,-0.9844 c -0.30225,-0.10422 -0.66885,0.0308 -0.83124,0.30625 l -2.8,4.8561998 c -0.15772,0.2793 -0.0901,0.66583 0.15312,0.87499 l 2.3187,2.0343 c -0.0816,0.54547 -0.13125,1.0943 -0.13125,1.6625 0,0.56822 0.0496,1.117 0.13125,1.6625 l -2.3187,2.0344 c -0.24319,0.20916 -0.31084,0.59569 -0.15312,0.87499 l 2.8,4.8562 c 0.16239,0.2754 0.52899,0.41046 0.83124,0.30624 l 2.9093,-0.98436 c 0.87441,0.69997 1.8708998,1.2697 2.9311998,1.6844 l 0.59061,2.9968 c 0.0599,0.3137 0.35879,0.56439 0.67812,0.56874 h 5.5999 c 0.31933,-0.004 0.61824,-0.25504 0.67811,-0.56874 l 0.59062,-2.9968 c 1.0603,-0.41466 2.0568,-0.98439 2.9312,-1.6844 l 2.9093,0.98436 c 0.30224,0.10422 0.66885,-0.0308 0.83124,-0.30624 l 2.8,-4.8562 c 0.15771,-0.2793 0.0901,-0.66583 -0.15312,-0.87499 l -2.3187,-2.0344 c 0.0816,-0.54547 0.13124,-1.0942 0.13124,-1.6625 0,-0.56822 -0.0497,-1.117 -0.13124,-1.6625 l 2.3187,-2.0343 c 0.24319,-0.20916 0.31083,-0.59569 0.15312,-0.87499 l -2.8,-4.8561998 c -0.16239,-0.2754 -0.529,-0.41047 -0.83124,-0.30625 l -2.9093,0.98436 c -0.875,-0.7005 -1.871,-1.2702 -2.931,-1.6849 l -0.59062,-2.9968 c -0.0599,-0.3137 -0.35878,-0.5644 -0.67811,-0.56874 h -5.5999 c -0.0219,-5.1e-4 -0.0438,-5.1e-4 -0.0656,0 z"
     id="path2" />
  <path
     style="fill:#ffffff"
     d="m 14.671275,9.0000162 c -0.395715,0 -0.671143,0.3185714 -0.671143,0.7142857 v 8.2857141 h -3 l 5,6 5,-6 h -3 V 9.7143019 c 0,-0.3957143 -0.275428,-0.7142857 -0.671143,-0.7142857 z"
     id="path10" />
</svg>
