<?xml version="1.0" encoding="UTF-8" standalone="no"?>
<svg
   xmlns:dc="http://purl.org/dc/elements/1.1/"
   xmlns:cc="http://creativecommons.org/ns#"
   xmlns:rdf="http://www.w3.org/1999/02/22-rdf-syntax-ns#"
   xmlns:svg="http://www.w3.org/2000/svg"
   xmlns="http://www.w3.org/2000/svg"
   xmlns:sodipodi="http://sodipodi.sourceforge.net/DTD/sodipodi-0.dtd"
   xmlns:inkscape="http://www.inkscape.org/namespaces/inkscape"
   inkscape:version="1.0.1 (3bc2e813f5, 2020-09-07)"
   sodipodi:docname="application-x-executable.svg"
   id="svg24"
   version="1"
   height="32"
   width="32">
  <metadata
     id="metadata30">
    <rdf:RDF>
      <cc:Work
         rdf:about="">
        <dc:format>image/svg+xml</dc:format>
        <dc:type
           rdf:resource="http://purl.org/dc/dcmitype/StillImage" />
        <dc:title />
      </cc:Work>
    </rdf:RDF>
  </metadata>
  <defs
     id="defs28">
    <filter
       inkscape:collect="always"
       style="color-interpolation-filters:sRGB"
       id="filter33266"
       x="-0.075"
       width="1.15"
       y="-0.075"
       height="1.15">
      <feGaussianBlur
         inkscape:collect="always"
         stdDeviation="0.875"
         id="feGaussianBlur33268" />
    </filter>
  </defs>
  <sodipodi:namedview
     inkscape:document-rotation="0"
     inkscape:current-layer="svg24"
     inkscape:window-maximized="1"
     inkscape:window-y="0"
     inkscape:window-x="0"
     inkscape:cy="12.961074"
     inkscape:cx="3.8552234"
     inkscape:zoom="17.383042"
     showgrid="false"
     id="namedview26"
     inkscape:window-height="1000"
     inkscape:window-width="1920"
     inkscape:pageshadow="2"
     inkscape:pageopacity="0"
     guidetolerance="10"
     gridtolerance="10"
     objecttolerance="10"
     borderopacity="1"
     bordercolor="#666666"
     pagecolor="#ffffff" />
  <rect
     id="rect2"
     ry="1.4"
     rx="1.4"
     y="2"
     x="2"
     height="28"
     width="28"
     style="opacity:0.5;stroke-width:0.5;filter:url(#filter33266)" />
  <rect
     id="rect4"
     ry="1.4"
     rx="1.4"
     y="2"
     x="2"
     height="28"
     width="28"
     style="fill:#dcdcdc;fill-opacity:1;stroke-width:0.5" />
  <path
     id="rect4-3"
     d="M 2,3.2447918 V 10 H 30 V 3.2447918 C 30,2.5553695 29.375209,2 28.599609,2 H 3.4003905 C 2.6247905,2 2,2.5553695 2,3.2447918 Z"
     style="opacity:0.2;fill:#000000;fill-opacity:1;stroke-width:0.47140452"
     inkscape:connector-curvature="0" />
  <circle
     r="2"
     id="circle10"
     cy="6.000001"
     cx="5.5"
     style="opacity:0.2;stroke-width:0.5" />
  <circle
     r="2"
     id="circle14"
     cy="6.000001"
     cx="10.5"
     style="opacity:0.2;stroke-width:0.5" />
  <circle
     r="2"
     id="circle18"
     cy="6.000001"
     cx="15.5"
     style="opacity:0.2;stroke-width:0.5" />
  <path
     inkscape:connector-curvature="0"
     id="path4"
     d="m 15.580495,28.8 c -0.929364,0 -1.677436,-0.749162 -1.677436,-1.679882 v -0.7875 a 6.2908255,6.3000003 0 0 1 -1.984021,-1.147852 l -0.681622,0.39375 c -0.804855,0.46536 -1.827094,0.190793 -2.291777,-0.615234 L 8.526134,24.236719 C 8.061452,23.430691 8.335619,22.406962 9.140473,21.941602 L 9.819171,21.549024 A 6.2908255,6.3000003 0 0 1 9.709173,20.4 6.2908255,6.3000003 0 0 1 9.819171,19.250977 L 9.140473,18.858398 C 8.335619,18.393038 8.061452,17.369309 8.526134,16.563282 l 0.419505,-0.726563 c 0.464683,-0.806028 1.486922,-1.080593 2.291777,-0.615233 l 0.676941,0.391406 a 6.2908255,6.3000003 0 0 1 1.988702,-1.143751 V 13.679884 C 13.903059,12.749164 14.651131,12 15.580495,12 h 0.839011 c 0.929365,0 1.677436,0.749164 1.677436,1.679884 v 0.792186 a 6.2908255,6.3000003 0 0 1 1.98402,1.143164 l 0.681624,-0.393748 c 0.804853,-0.46536 1.827092,-0.190795 2.291775,0.615233 l 0.419505,0.726563 c 0.464682,0.806027 0.190514,1.829756 -0.614339,2.295116 l -0.678698,0.392579 A 6.2908255,6.3000003 0 0 1 22.290824,20.4 6.2908255,6.3000003 0 0 1 22.180829,21.549024 l 0.678698,0.392578 c 0.804854,0.46536 1.079021,1.489089 0.614339,2.295117 l -0.419505,0.726563 c -0.464683,0.806027 -1.486922,1.080594 -2.291775,0.615234 l -0.676943,-0.391407 a 6.2908255,6.3000003 0 0 1 -1.988701,1.144337 v 0.788672 c 0,0.93072 -0.748071,1.679882 -1.677436,1.679882 z M 16,23.999414 c 1.985271,0 3.594758,-1.611833 3.594758,-3.6 C 19.594758,18.411248 17.985271,16.8 16,16.8 c -1.985271,0 -3.594757,1.611248 -3.594757,3.599414 0,1.988167 1.609486,3.6 3.594757,3.6 z"
     style="opacity:0.5;fill:#000000;fill-opacity:1;stroke-width:0.299781" />
</svg>
