<?xml version="1.0" encoding="UTF-8" standalone="no"?>
<svg
   xmlns:dc="http://purl.org/dc/elements/1.1/"
   xmlns:cc="http://creativecommons.org/ns#"
   xmlns:rdf="http://www.w3.org/1999/02/22-rdf-syntax-ns#"
   xmlns:svg="http://www.w3.org/2000/svg"
   xmlns="http://www.w3.org/2000/svg"
   xmlns:sodipodi="http://sodipodi.sourceforge.net/DTD/sodipodi-0.dtd"
   xmlns:inkscape="http://www.inkscape.org/namespaces/inkscape"
   sodipodi:docname="application-pgp-keys.svg"
   inkscape:version="1.0.1 (3bc2e813f5, 2020-09-07)"
   id="svg8"
   version="1.1"
   viewBox="0 0 8.4666665 8.4666669"
   height="32"
   width="32">
  <defs
     id="defs2">
    <filter
       inkscape:collect="always"
       style="color-interpolation-filters:sRGB"
       id="filter33141"
       x="-0.081249999"
       width="1.1625"
       y="-0.069642858"
       height="1.1392857">
      <feGaussianBlur
         inkscape:collect="always"
         stdDeviation="0.21497395"
         id="feGaussianBlur33143" />
    </filter>
  </defs>
  <sodipodi:namedview
     inkscape:window-maximized="1"
     inkscape:window-y="0"
     inkscape:window-x="0"
     inkscape:window-height="1000"
     inkscape:window-width="1920"
     units="px"
     showgrid="false"
     inkscape:document-rotation="0"
     inkscape:current-layer="layer1"
     inkscape:document-units="px"
     inkscape:cy="25.748628"
     inkscape:cx="-23.297864"
     inkscape:zoom="9.0045629"
     inkscape:pageshadow="2"
     inkscape:pageopacity="0.0"
     borderopacity="1.0"
     bordercolor="#666666"
     pagecolor="#ffffff"
     id="base" />
  <metadata
     id="metadata5">
    <rdf:RDF>
      <cc:Work
         rdf:about="">
        <dc:format>image/svg+xml</dc:format>
        <dc:type
           rdf:resource="http://purl.org/dc/dcmitype/StillImage" />
        <dc:title></dc:title>
      </cc:Work>
    </rdf:RDF>
  </metadata>
  <g
     id="layer1"
     inkscape:groupmode="layer"
     inkscape:label="Capa 1">
    <path
       style="opacity:0.5;fill:#000000;fill-opacity:1;stroke:none;stroke-width:2.29352999;filter:url(#filter33141)"
       d="M 1.0583334,0.5291668 V 7.9374999 H 7.4083333 V 2.1166666 l -1.5875,-1.5874998 z"
       id="path926-2"
       inkscape:connector-curvature="0" />
    <path
       style="opacity:1;fill:#f5f5f5;fill-opacity:1;stroke:none;stroke-width:2.29352999"
       d="M 1.0583334,0.52916675 V 7.9374999 H 7.4083333 V 2.1166666 l -1.5875,-1.58749985 z"
       id="path926"
       inkscape:connector-curvature="0" />
    <path
       inkscape:connector-curvature="0"
       style="opacity:0.2;fill:#000000;fill-opacity:1;stroke:none;stroke-width:2.29352999"
       d="M 5.8208333,0.52916675 V 2.1166669 h 1.5875 z"
       id="path926-1" />
    <path
       id="rect3132"
       style="opacity:1;fill:#0093dd;fill-opacity:1;fill-rule:nonzero;stroke:none;stroke-width:0.115035;stroke-miterlimit:4;stroke-dasharray:none;stroke-dashoffset:0;stroke-opacity:1"
       d="m 4.2620925,2.6458742 c -1.028046,0.0074 -1.4158769,0.9547277 -1.4202343,1.1719202 H 2.8409591 V 4.7119228 H 2.6228417 v 1.0629963 c 0.00892,-0.0099 0.084772,-0.094771 0.203738,-0.2020303 0.062842,-0.056659 0.1347561,-0.1165478 0.2089505,-0.168958 0.074194,-0.05241 0.1507133,-0.09731 0.2228805,-0.1237525 0.094185,-0.034511 0.1935825,-0.057742 0.3016077,-0.075492 0.1080252,-0.01775 0.2246779,-0.030017 0.3533735,-0.042779 0.1286955,-0.012762 0.2694338,-0.025928 0.4256299,-0.045475 0.1561961,-0.019547 0.3278501,-0.045475 0.518377,-0.08358 0.06744,-0.013489 0.123285,-0.027758 0.1755184,-0.044936 0.052233,-0.017177 0.1008896,-0.037253 0.1539493,-0.062281 0.099539,-0.046951 0.2243978,-0.1164103 0.4081051,-0.212096 h 0.032713 V 3.8282182 h -0.00476 C 5.6118846,3.7743522 5.3663242,2.6379868 4.2620954,2.6458742 Z m -0.08376,0.1832473 c 0.030948,-6.087e-4 0.061305,-1.436e-4 0.09086,0.00126 0.05911,0.0028 0.1151468,0.00929 0.1669807,0.017794 0.1036675,0.017001 0.1905343,0.042253 0.2514595,0.063269 0.060925,0.021016 0.095982,0.037746 0.095982,0.037746 -0.1064911,-0.016504 -0.2324631,-0.038148 -0.3696402,-0.044665 -0.068589,-0.00326 -0.1399721,-0.00274 -0.2131745,0.00413 -0.073202,0.00688 -0.1481812,0.020044 -0.223959,0.04215 -0.075778,0.022106 -0.1523175,0.053106 -0.2286323,0.095533 -0.076315,0.042427 -0.1523811,0.096353 -0.2271943,0.1641946 -0.074813,0.067842 -0.1483719,0.149606 -0.2196452,0.2479546 -0.071273,0.098349 -0.1402898,0.2132241 -0.2059847,0.3471724 0,0 0.00386,-0.037574 0.017884,-0.09796 0.014028,-0.060385 0.038202,-0.1436025 0.078907,-0.2349233 0.020353,-0.04566 0.04484,-0.093315 0.074234,-0.1411876 0.029394,-0.047872 0.063696,-0.095953 0.1037114,-0.1423559 0.040016,-0.046403 0.085733,-0.091127 0.1379522,-0.1323803 0.052219,-0.041253 0.1109524,-0.079019 0.1769564,-0.1114403 0.067302,-0.033059 0.1349165,-0.057785 0.2017608,-0.075761 0.066844,-0.017976 0.132884,-0.029208 0.1969976,-0.035229 0.032057,-0.00301 0.063596,-0.00469 0.094545,-0.0053 z m 0.052125,0.4580734 c 0.3363247,0 0.6180274,0.2298068 0.6986586,0.5410245 H 4.9289422 V 4.7119228 H 3.5315293 V 3.8283093 C 3.6121813,3.5171247 3.8941557,3.2871949 4.2304575,3.2871949 Z M 5.8438249,4.9799186 C 5.7869769,5.0384736 5.7226925,5.0943152 5.6515906,5.1465398 5.5773006,5.2011058 5.4966975,5.2521721 5.4128927,5.2995905 5.3290877,5.3470085 5.2421038,5.3907735 5.1549624,5.4308025 5.0678214,5.4708315 4.9805223,5.5071475 4.8962232,5.5395466 4.727625,5.6043436 4.5708896,5.6536605 4.4507318,5.6864859 c -0.1201578,0.032826 -0.203738,0.04916 -0.226026,0.048081 0.1131225,0.015175 0.2196494,0.021127 0.3198516,0.019862 0.100202,-0.00127 0.1941151,-0.00978 0.2819258,-0.023456 0.087811,-0.013682 0.1694901,-0.032572 0.2454382,-0.054642 0.075948,-0.02207 0.1461332,-0.047261 0.2107479,-0.073694 0.1292293,-0.052867 0.236287,-0.1104812 0.3233565,-0.1566454 0.08707,-0.046164 0.1541467,-0.08091 0.2032887,-0.088164 -0.028579,0.060753 -0.061681,0.1175376 -0.098679,0.1705757 -0.036998,0.053038 -0.077899,0.102352 -0.1219554,0.1481975 -0.044056,0.045846 -0.091253,0.088172 -0.1410078,0.1273475 -0.049754,0.039175 -0.102105,0.075177 -0.1561961,0.108205 -0.1081824,0.066055 -0.2236051,0.120315 -0.3409713,0.1649135 -0.1173661,0.044598 -0.2366309,0.079536 -0.352295,0.1068569 -0.1156643,0.027321 -0.2277392,0.04707 -0.3308158,0.061292 -0.1030767,0.014222 -0.19711,0.022917 -0.2767134,0.02822 -0.1592068,0.010605 -0.2606264,0.00755 -0.2606264,0.00755 0.1175515,0.031994 0.23239,0.053996 0.3433079,0.068033 0.1109179,0.014036 0.2179601,0.020154 0.3199414,0.020221 0.1019812,6.9e-5 0.198913,-0.0059 0.2896549,-0.015817 0.090742,-0.00991 0.1752487,-0.023816 0.252448,-0.039723 0.1543988,-0.031815 0.2793647,-0.071672 0.3657757,-0.1035317 0.086411,-0.031859 0.1342676,-0.05572 0.1342676,-0.05572 -0.026781,0.044306 -0.058073,0.085427 -0.093196,0.1236628 -0.035123,0.038236 -0.074073,0.073623 -0.1162034,0.1062277 -0.08426,0.06521 -0.1811579,0.1195849 -0.2854309,0.1649137 -0.1042731,0.045329 -0.2159549,0.081572 -0.3295577,0.1105415 -0.1136027,0.02897 -0.2291715,0.050643 -0.3414206,0.066774 -0.2244982,0.032264 -0.4356505,0.042352 -0.5906334,0.044396 -0.1549828,0.00205 -0.2537962,-0.00395 -0.2537962,-0.00395 -0.041341,0.00359 -0.080682,0.012986 -0.116473,0.024984 -0.035791,0.011998 -0.068032,0.026602 -0.095084,0.040801 -0.045607,0.02394 -0.065199,0.039847 -0.073784,0.046374 h 2.7039541 z" />
  </g>
</svg>
