<?xml version="1.0" encoding="UTF-8" standalone="no"?>
<svg
   xmlns:dc="http://purl.org/dc/elements/1.1/"
   xmlns:cc="http://creativecommons.org/ns#"
   xmlns:rdf="http://www.w3.org/1999/02/22-rdf-syntax-ns#"
   xmlns:svg="http://www.w3.org/2000/svg"
   xmlns="http://www.w3.org/2000/svg"
   xmlns:xlink="http://www.w3.org/1999/xlink"
   xmlns:sodipodi="http://sodipodi.sourceforge.net/DTD/sodipodi-0.dtd"
   xmlns:inkscape="http://www.inkscape.org/namespaces/inkscape"
   id="svg4588"
   height="32"
   width="32"
   version="1.1"
   sodipodi:docname="application-x-firmware.svg"
   inkscape:version="1.0.1 (3bc2e813f5, 2020-09-07)">
  <sodipodi:namedview
     pagecolor="#ffffff"
     bordercolor="#666666"
     borderopacity="1"
     objecttolerance="10"
     gridtolerance="10"
     guidetolerance="10"
     inkscape:pageopacity="0"
     inkscape:pageshadow="2"
     inkscape:window-width="1920"
     inkscape:window-height="1000"
     id="namedview92"
     showgrid="false"
     inkscape:zoom="16.83798"
     inkscape:cx="9.2204335"
     inkscape:cy="9.3137092"
     inkscape:window-x="0"
     inkscape:window-y="0"
     inkscape:window-maximized="1"
     inkscape:current-layer="svg4588" />
  <defs
     id="defs4590">
    <linearGradient
       id="linearGradient4394">
      <stop
         id="stop4396"
         offset="0"
         style="stop-color:#35a445;stop-opacity:1" />
      <stop
         id="stop4398"
         offset="1"
         style="stop-color:#3bda52;stop-opacity:1" />
    </linearGradient>
    <linearGradient
       gradientTransform="matrix(0.67567568,0,0,0.67567568,-0.21621855,-0.2162061)"
       gradientUnits="userSpaceOnUse"
       xlink:href="#linearGradient3924-0"
       id="linearGradient3483"
       y2="41.679485"
       x2="38.546436"
       y1="6.3738203"
       x1="38.546436" />
    <linearGradient
       id="linearGradient3924-0">
      <stop
         offset="0"
         style="stop-color:#ffffff;stop-opacity:1"
         id="stop3926-6" />
      <stop
         offset="0.03798588"
         style="stop-color:#ffffff;stop-opacity:0.23529412"
         id="stop3928-3" />
      <stop
         offset="0.96200818"
         style="stop-color:#ffffff;stop-opacity:0.15686275"
         id="stop3930-2" />
      <stop
         offset="1"
         style="stop-color:#ffffff;stop-opacity:0.39215687"
         id="stop3932-62" />
    </linearGradient>
    <radialGradient
       gradientTransform="matrix(0,6.8187553,-8.371253,0,99.95013,-58.782234)"
       gradientUnits="userSpaceOnUse"
       xlink:href="#linearGradient2867-449-88-871-390-598-476-591-434-148-57-177-8-3-3-6-4-8-8-8-5"
       id="radialGradient4388"
       fy="9.9571075"
       fx="6.2001843"
       r="12.671875"
       cy="9.9571075"
       cx="6.7304144" />
    <linearGradient
       id="linearGradient2867-449-88-871-390-598-476-591-434-148-57-177-8-3-3-6-4-8-8-8-5">
      <stop
         offset="0"
         style="stop-color:#00ff27;stop-opacity:1"
         id="stop3750-1-0-7-6-6-1-3-9-3" />
      <stop
         offset="0.26238"
         style="stop-color:#458b50;stop-opacity:1"
         id="stop3752-3-7-4-0-32-8-923-0-7" />
      <stop
         offset="0.704952"
         style="stop-color:#176121;stop-opacity:1"
         id="stop3754-1-8-5-2-7-6-7-1-9" />
      <stop
         offset="1"
         style="stop-color:#2b5131;stop-opacity:1"
         id="stop3756-1-6-2-6-6-1-96-6-0" />
    </linearGradient>
    <radialGradient
       gradientTransform="matrix(2.003784,0,0,1.4,27.98813,-17.4)"
       gradientUnits="userSpaceOnUse"
       xlink:href="#linearGradient3688-166-749-6"
       id="radialGradient3493"
       fy="43.5"
       fx="4.9929786"
       r="2.5"
       cy="43.5"
       cx="4.9929786" />
    <linearGradient
       id="linearGradient3688-166-749-6">
      <stop
         offset="0"
         style="stop-color:#181818;stop-opacity:1"
         id="stop2883-8" />
      <stop
         offset="1"
         style="stop-color:#181818;stop-opacity:0"
         id="stop2885-3" />
    </linearGradient>
    <radialGradient
       gradientTransform="matrix(2.003784,0,0,1.4,-20.01187,-104.4)"
       gradientUnits="userSpaceOnUse"
       xlink:href="#linearGradient3688-464-309-7"
       id="radialGradient3495"
       fy="43.5"
       fx="4.9929786"
       r="2.5"
       cy="43.5"
       cx="4.9929786" />
    <linearGradient
       id="linearGradient3688-464-309-7">
      <stop
         offset="0"
         style="stop-color:#181818;stop-opacity:1"
         id="stop2889-0" />
      <stop
         offset="1"
         style="stop-color:#181818;stop-opacity:0"
         id="stop2891-66" />
    </linearGradient>
    <linearGradient
       gradientUnits="userSpaceOnUse"
       xlink:href="#linearGradient3702-501-757-3"
       id="linearGradient3497"
       y2="39.999443"
       x2="25.058096"
       y1="47.027729"
       x1="25.058096" />
    <linearGradient
       id="linearGradient3702-501-757-3">
      <stop
         offset="0"
         style="stop-color:#181818;stop-opacity:0"
         id="stop2895-3" />
      <stop
         offset="0.5"
         style="stop-color:#181818;stop-opacity:1"
         id="stop2897-28" />
      <stop
         offset="1"
         style="stop-color:#181818;stop-opacity:0"
         id="stop2899-8" />
    </linearGradient>
    <radialGradient
       gradientTransform="matrix(8.1467626e-8,2.0583266,-3.1778298,0,42.851962,-7.1746357)"
       gradientUnits="userSpaceOnUse"
       xlink:href="#linearGradient2867-449-88-871-390-598-476-591-434-148-57-177-8-3-3-6-4-8-8-8-5-9-4-5"
       id="radialGradient4900"
       fy="8.4497671"
       fx="7.4956832"
       r="19.99999"
       cy="8.4497671"
       cx="7.4956832" />
    <linearGradient
       id="linearGradient2867-449-88-871-390-598-476-591-434-148-57-177-8-3-3-6-4-8-8-8-5-9-4-5">
      <stop
         offset="0"
         style="stop-color:#505050;stop-opacity:1"
         id="stop3750-1-0-7-6-6-1-3-9-3-3-3-6" />
      <stop
         offset="0.26238"
         style="stop-color:#2b2b2b;stop-opacity:1"
         id="stop3752-3-7-4-0-32-8-923-0-7-1-1-4" />
      <stop
         offset="0.704952"
         style="stop-color:#0a0a0a;stop-opacity:1"
         id="stop3754-1-8-5-2-7-6-7-1-9-8-6-2" />
      <stop
         offset="1"
         style="stop-color:#000000;stop-opacity:1"
         id="stop3756-1-6-2-6-6-1-96-6-0-0-6-2" />
    </linearGradient>
    <linearGradient
       gradientTransform="matrix(0.2972973,0,0,0.40540542,8.8648652,6.2702759)"
       gradientUnits="userSpaceOnUse"
       xlink:href="#linearGradient3967"
       id="linearGradient4898"
       y2="38.799984"
       x2="23.999998"
       y1="6.7333193"
       x1="23.999998" />
    <linearGradient
       id="linearGradient3967">
      <stop
         offset="0"
         style="stop-color:#ffffff;stop-opacity:1"
         id="stop3969" />
      <stop
         offset="0.00431017"
         style="stop-color:#ffffff;stop-opacity:0.235"
         id="stop3971" />
      <stop
         offset="0.99545413"
         style="stop-color:#ffffff;stop-opacity:0.15686275"
         id="stop3973" />
      <stop
         offset="1"
         style="stop-color:#ffffff;stop-opacity:0.39215687"
         id="stop3975" />
    </linearGradient>
    <linearGradient
       gradientUnits="userSpaceOnUse"
       y2="3"
       x2="55"
       y1="29"
       x1="55"
       id="linearGradient4400"
       xlink:href="#linearGradient4394" />
    <filter
       inkscape:collect="always"
       style="color-interpolation-filters:sRGB"
       id="filter982"
       x="-0.075"
       width="1.15"
       y="-0.075"
       height="1.15">
      <feGaussianBlur
         inkscape:collect="always"
         stdDeviation="0.875"
         id="feGaussianBlur984" />
    </filter>
  </defs>
  <metadata
     id="metadata4593">
    <rdf:RDF>
      <cc:Work
         rdf:about="">
        <dc:format>image/svg+xml</dc:format>
        <dc:type
           rdf:resource="http://purl.org/dc/dcmitype/StillImage" />
        <dc:title />
      </cc:Work>
    </rdf:RDF>
  </metadata>
  <rect
     width="28"
     height="28"
     rx="2.24"
     ry="2.24"
     x="2"
     y="2"
     id="rect5505-3"
     style="color:#000000;display:inline;overflow:visible;visibility:visible;fill:#000000;fill-opacity:1;fill-rule:nonzero;stroke:none;stroke-width:1.03704;marker:none;enable-background:accumulate;filter:url(#filter982);opacity:0.5" />
  <rect
     width="28"
     height="28"
     rx="2.24"
     ry="2.24"
     x="2"
     y="2"
     id="rect5505"
     style="color:#000000;display:inline;overflow:visible;visibility:visible;fill:#357f41;fill-opacity:1;fill-rule:nonzero;stroke:none;stroke-width:1.03704;marker:none;enable-background:accumulate" />
  <g
     style="stroke:#ffffff;stroke-opacity:1;fill:none;opacity:0.5"
     transform="translate(-37,0)"
     id="g4347">
    <circle
       style="opacity:1;fill:none;fill-opacity:1;stroke:#ffffff;stroke-width:1;stroke-linecap:square;stroke-linejoin:miter;stroke-miterlimit:4;stroke-dasharray:none;stroke-opacity:1"
       id="path4238"
       cx="51.5"
       cy="4.5"
       r="1" />
    <path
       style="fill:none;fill-rule:evenodd;stroke:#ffffff;stroke-width:1px;stroke-linecap:square;stroke-linejoin:miter;stroke-opacity:1"
       d="M 52.507121,4.5 57.5,4.5"
       id="path4305" />
    <circle
       r="1"
       cy="4.5"
       cx="58.5"
       id="circle4307"
       style="opacity:1;fill:none;fill-opacity:1;stroke:#ffffff;stroke-width:1;stroke-linecap:square;stroke-linejoin:miter;stroke-miterlimit:4;stroke-dasharray:none;stroke-opacity:1" />
    <circle
       style="opacity:1;fill:none;fill-opacity:1;stroke:#ffffff;stroke-width:1;stroke-linecap:square;stroke-linejoin:miter;stroke-miterlimit:4;stroke-dasharray:none;stroke-opacity:1"
       id="circle4309"
       cx="63.5"
       cy="4.5"
       r="1" />
    <circle
       r="1"
       cy="17.5"
       cx="64.5"
       id="circle4311"
       style="opacity:1;fill:none;fill-opacity:1;stroke:#ffffff;stroke-width:1;stroke-linecap:square;stroke-linejoin:miter;stroke-miterlimit:4;stroke-dasharray:none;stroke-opacity:1" />
    <circle
       style="opacity:1;fill:none;fill-opacity:1;stroke:#ffffff;stroke-width:1;stroke-linecap:square;stroke-linejoin:miter;stroke-miterlimit:4;stroke-dasharray:none;stroke-opacity:1"
       id="circle4313"
       cx="41.5"
       cy="13.5"
       r="1" />
    <circle
       r="1"
       cy="5.5"
       cx="47.5"
       id="circle4315"
       style="opacity:1;fill:none;fill-opacity:1;stroke:#ffffff;stroke-width:1;stroke-linecap:square;stroke-linejoin:miter;stroke-miterlimit:4;stroke-dasharray:none;stroke-opacity:1" />
    <path
       id="path4317"
       d="m 47.5,3 0,1.5"
       style="fill:none;fill-rule:evenodd;stroke:#ffffff;stroke-width:1px;stroke-linecap:square;stroke-linejoin:miter;stroke-opacity:1" />
    <path
       style="fill:none;fill-rule:evenodd;stroke:#ffffff;stroke-width:1px;stroke-linecap:square;stroke-linejoin:miter;stroke-opacity:1"
       d="m 63.5,5.4928788 0,6.0000002"
       id="path4319" />
    <path
       id="path4321"
       d="m 62,16 3.5,-3.5 0,-6 L 66,6"
       style="fill:none;fill-rule:evenodd;stroke:#ffffff;stroke-width:1px;stroke-linecap:round;stroke-linejoin:round;stroke-opacity:1" />
    <path
       style="fill:none;fill-rule:evenodd;stroke:#ffffff;stroke-width:1px;stroke-linecap:round;stroke-linejoin:round;stroke-opacity:1"
       d="m 63,29 1.5,-1.5 0,-6 L 63,20"
       id="path4323" />
    <path
       id="path4325"
       d="m 63.5,17.5 -6,0"
       style="fill:none;fill-rule:evenodd;stroke:#ffffff;stroke-width:1px;stroke-linecap:square;stroke-linejoin:miter;stroke-opacity:1" />
    <path
       style="fill:none;fill-rule:evenodd;stroke:#ffffff;stroke-width:1px;stroke-linecap:round;stroke-linejoin:round;stroke-opacity:1"
       d="m 47,12 -3.5,-3.5 0,-4 L 42,3"
       id="path4327" />
    <path
       id="path4329"
       d="m 47,15 -5.5,-5.5 0,-3 -1,-1 -0.5,0"
       style="fill:none;fill-rule:evenodd;stroke:#ffffff;stroke-width:1px;stroke-linecap:butt;stroke-linejoin:round;stroke-opacity:1" />
    <path
       id="path4331"
       d="m 59,20 3.5,3.5 0,2 -2,2 -2,0 L 57,29"
       style="fill:none;fill-rule:evenodd;stroke:#ffffff;stroke-width:1px;stroke-linecap:round;stroke-linejoin:round;stroke-opacity:1" />
    <circle
       r="1"
       cy="27.5"
       cx="-53.507122"
       id="circle4333"
       style="opacity:1;fill:none;fill-opacity:1;stroke:#ffffff;stroke-width:1;stroke-linecap:square;stroke-linejoin:miter;stroke-miterlimit:4;stroke-dasharray:none;stroke-opacity:1"
       transform="scale(-1,1)" />
    <path
       id="path4335"
       d="m 52.5,27.5 -3.992879,0 -3.007121,-3 0,-3 2,-2"
       style="fill:none;fill-rule:evenodd;stroke:#ffffff;stroke-width:1px;stroke-linecap:square;stroke-linejoin:miter;stroke-opacity:1" />
    <path
       style="fill:none;fill-rule:evenodd;stroke:#ffffff;stroke-width:1px;stroke-linecap:butt;stroke-linejoin:miter;stroke-opacity:1"
       d="m 45.5,29.5 0,-2 -3,-3 0,-4 0,0"
       id="path4339" />
    <path
       style="fill:none;fill-rule:evenodd;stroke:#ffffff;stroke-width:1px;stroke-linecap:butt;stroke-linejoin:miter;stroke-opacity:1"
       d="m 42.5,16.5 -2,2 0,7 3,3 0,1 0,0"
       id="path4341" />
    <path
       style="fill:none;fill-rule:evenodd;stroke:#ffffff;stroke-width:1px;stroke-linecap:square;stroke-linejoin:miter;stroke-opacity:1"
       d="m 61.5,6.5 0,1 -3,3"
       id="path4345" />
  </g>
  <use
     height="100%"
     width="100%"
     transform="translate(0,6)"
     id="use4286"
     xlink:href="#g4274"
     y="0"
     x="0" />
  <use
     x="0"
     y="0"
     xlink:href="#g4274"
     id="use4288"
     transform="translate(0,8)"
     width="100%"
     height="100%" />
  <use
     x="0"
     y="0"
     xlink:href="#g4274"
     id="use4284"
     transform="translate(0,4)"
     width="100%"
     height="100%" />
  <use
     height="100%"
     width="100%"
     transform="translate(0,10)"
     id="use4290"
     xlink:href="#g4274"
     y="0"
     x="0" />
  <use
     height="100%"
     width="100%"
     transform="translate(0,2)"
     id="use4282"
     xlink:href="#g4274"
     y="0"
     x="0" />
  <g
     id="g4274"
     style="fill:#ffdd5b;fill-opacity:1;stroke:none"
     transform="translate(0,0.5)">
    <path
       style="opacity:0.3;fill:#ffdd5b;fill-opacity:1;stroke:none;stroke-width:1;stroke-linejoin:miter;stroke-miterlimit:4;stroke-dasharray:none;stroke-opacity:1"
       d="m 8,10 v 1 h 16 v -1 z m 16,1 v 1 h 1 V 11 Z M 8,11 H 7 v 1 h 1 z"
       id="rect4267" />
    <rect
       y="10"
       x="8"
       height="1"
       width="16"
       id="rect4226"
       style="opacity:1;fill:#ffdd5b;fill-opacity:1;stroke:none;stroke-width:1;stroke-linejoin:miter;stroke-miterlimit:4;stroke-dasharray:none;stroke-opacity:1" />
    <rect
       style="opacity:1;fill:#ffdd5b;fill-opacity:1;stroke:none;stroke-width:1;stroke-linejoin:miter;stroke-miterlimit:4;stroke-dasharray:none;stroke-opacity:1"
       id="rect4227"
       width="1"
       height="1"
       x="7"
       y="11" />
    <rect
       y="11"
       x="24"
       height="1"
       width="1"
       id="rect4229"
       style="opacity:1;fill:#ffdd5b;fill-opacity:1;stroke:none;stroke-width:1;stroke-linejoin:miter;stroke-miterlimit:4;stroke-dasharray:none;stroke-opacity:1" />
  </g>
  <path
     style="color:#000000;display:inline;overflow:visible;visibility:visible;fill:#424242;fill-opacity:1;fill-rule:nonzero;stroke:none;stroke-width:1.03775;stroke-linecap:round;stroke-linejoin:round;stroke-miterlimit:4;stroke-dasharray:none;stroke-dashoffset:0;stroke-opacity:0.498039;marker:none;enable-background:accumulate"
     d="M 9.538462,8 H 22.461538 C 22.759846,8 23,8.223 23,8.5 v 15 C 23,23.777 22.759846,24 22.461538,24 H 9.538462 C 9.2401538,24 9,23.777 9,23.5 V 8.5 C 9,8.223 9.2401538,8 9.538462,8 Z"
     id="rect5505-21" />
  <path
     style="font-style:normal;font-variant:normal;font-weight:bold;font-stretch:normal;font-size:5px;line-height:125%;font-family:'Open Sans';-inkscape-font-specification:'Open Sans Bold';letter-spacing:0px;word-spacing:0px;opacity:0.4;fill:#ffffff;fill-opacity:1;stroke:none;stroke-width:1px;stroke-linecap:butt;stroke-linejoin:miter;stroke-opacity:1"
     d="m 15.993702,12.51104 c -0.249642,0 -0.451027,0.05757 -0.606307,0.173434 -0.155278,0.115865 -0.233635,0.266842 -0.233635,0.454372 0,0.127809 0.03321,0.246536 0.0989,0.354036 0.06569,0.107502 0.173196,0.208075 0.322503,0.302437 -0.175585,0.0884 -0.304108,0.190875 -0.384137,0.306736 -0.07883,0.115865 -0.117535,0.247731 -0.117535,0.397037 0,0.223364 0.08146,0.395604 0.245103,0.517439 C 15.482235,15.138362 15.707031,15.2 15.9937,15.2 c 0.274726,0 0.496656,-0.06475 0.665075,-0.194935 0.168419,-0.131391 0.252269,-0.305304 0.252269,-0.520306 0,-0.136168 -0.043,-0.260631 -0.128994,-0.374103 -0.08481,-0.114667 -0.22408,-0.224559 -0.419971,-0.329671 0.164835,-0.08242 0.28428,-0.175586 0.358337,-0.279503 0.07405,-0.105105 0.11037,-0.224557 0.11037,-0.358336 0,-0.193502 -0.07668,-0.346632 -0.230768,-0.460106 -0.152889,-0.114666 -0.355471,-0.172 -0.606313,-0.172 z m -3.027232,0.03437 v 2.618726 h 0.554707 V 14.23246 h 0.237935 c 0.324894,0 0.575489,-0.0743 0.751075,-0.223602 0.176779,-0.149307 0.26517,-0.364547 0.26517,-0.646439 0,-0.271142 -0.08194,-0.475873 -0.24797,-0.612041 -0.164835,-0.13734 -0.407548,-0.204947 -0.725274,-0.204947 z m 4.400379,0 -0.0989,1.334447 0.220737,0.117535 c 0.04777,-0.01434 0.109885,-0.02675 0.186335,-0.0387 0.07645,-0.01319 0.145961,-0.02007 0.209269,-0.02007 0.349975,0 0.524604,0.131634 0.524604,0.395603 0,0.277115 -0.169373,0.415672 -0.507404,0.415672 -0.112282,0 -0.230052,-0.0148 -0.35547,-0.04587 -0.125426,-0.03225 -0.235308,-0.07311 -0.329671,-0.123271 v 0.477306 c 0.17917,0.09436 0.41376,0.141894 0.705207,0.141894 0.335642,0 0.593646,-0.07883 0.774009,-0.236502 0.180363,-0.157667 0.270902,-0.382463 0.270902,-0.675107 0,-0.247252 -0.07454,-0.442665 -0.225036,-0.584805 -0.149307,-0.14214 -0.351648,-0.212136 -0.604872,-0.212136 -0.107502,0 -0.196608,0.0077 -0.26947,0.02437 l -0.06306,0.01293 0.04873,-0.514573 h 0.934544 v -0.468704 z m -1.376014,0.369803 c 0.09317,0 0.169613,0.02389 0.229336,0.07167 0.05972,0.04776 0.08886,0.112512 0.08886,0.194935 0,0.07525 -0.02366,0.141902 -0.07023,0.199235 -0.04659,0.05734 -0.128052,0.114194 -0.245104,0.169136 -0.120645,-0.05972 -0.204253,-0.117292 -0.250836,-0.173436 -0.04538,-0.05734 -0.06737,-0.123271 -0.06737,-0.194935 0,-0.08123 0.02866,-0.14429 0.08599,-0.192069 0.05852,-0.04897 0.134973,-0.07454 0.229341,-0.07454 z m -2.469658,0.08457 h 0.25227 c 0.151694,0 0.263495,0.03106 0.333969,0.09317 0.07167,0.06211 0.107502,0.157907 0.107502,0.288102 0,0.129007 -0.04277,0.22862 -0.127567,0.296702 -0.08481,0.0669 -0.211895,0.100338 -0.382702,0.100338 h -0.18347 z m 2.445291,1.023417 c 0.151697,0.07883 0.261349,0.15313 0.328238,0.223603 0.06808,0.06927 0.101766,0.143572 0.101766,0.2236 0,0.09676 -0.03368,0.175347 -0.101766,0.23507 -0.06808,0.05853 -0.170808,0.08744 -0.308171,0.08744 -0.124227,0 -0.222169,-0.02867 -0.293837,-0.08599 -0.07167,-0.05734 -0.107502,-0.136646 -0.107502,-0.239368 0,-0.17917 0.126854,-0.327281 0.381272,-0.444347 z"
     id="text4325" />
  <rect
     y="16.700001"
     x="13"
     height="0.80000001"
     width="2"
     id="rect4452"
     style="opacity:0.2;fill:#ffffff;fill-opacity:1;stroke:none;stroke-width:3;stroke-linecap:round;stroke-linejoin:round;stroke-miterlimit:4;stroke-dasharray:none;stroke-opacity:1" />
  <rect
     style="opacity:0.2;fill:#ffffff;fill-opacity:1;stroke:none;stroke-width:3;stroke-linecap:round;stroke-linejoin:round;stroke-miterlimit:4;stroke-dasharray:none;stroke-opacity:1"
     id="rect4454"
     width="3"
     height="0.80000001"
     x="14"
     y="16.5" />
</svg>
