<?xml version="1.0" encoding="UTF-8" standalone="no"?>
<svg
   xmlns:dc="http://purl.org/dc/elements/1.1/"
   xmlns:cc="http://creativecommons.org/ns#"
   xmlns:rdf="http://www.w3.org/1999/02/22-rdf-syntax-ns#"
   xmlns:svg="http://www.w3.org/2000/svg"
   xmlns="http://www.w3.org/2000/svg"
   xmlns:xlink="http://www.w3.org/1999/xlink"
   xmlns:sodipodi="http://sodipodi.sourceforge.net/DTD/sodipodi-0.dtd"
   xmlns:inkscape="http://www.inkscape.org/namespaces/inkscape"
   sodipodi:docname="application-x-srt.svg"
   inkscape:version="1.0.1 (3bc2e813f5, 2020-09-07)"
   id="svg8"
   version="1.1"
   viewBox="0 0 8.4666665 8.4666669"
   height="32"
   width="32">
  <defs
     id="defs2">
    <filter
       inkscape:collect="always"
       style="color-interpolation-filters:sRGB"
       id="filter854"
       x="-0.081249999"
       width="1.1625"
       y="-0.069642858"
       height="1.1392857">
      <feGaussianBlur
         inkscape:collect="always"
         stdDeviation="0.21497395"
         id="feGaussianBlur856" />
    </filter>
    <linearGradient
       inkscape:collect="always"
       xlink:href="#linearGradient1102"
       id="linearGradient1096"
       x1="4.2333331"
       y1="6.8791666"
       x2="4.2333331"
       y2="7.9375"
       gradientUnits="userSpaceOnUse"
       gradientTransform="matrix(0.57142861,0,0,-0.57142861,1.8142857,10.81012)" />
    <linearGradient
       inkscape:collect="always"
       id="linearGradient1102">
      <stop
         style="stop-color:#ffdeeb;stop-opacity:1"
         offset="0"
         id="stop1098" />
      <stop
         style="stop-color:#d4d5ff;stop-opacity:1"
         offset="1"
         id="stop1100" />
    </linearGradient>
    <linearGradient
       inkscape:collect="always"
       xlink:href="#linearGradient1088"
       id="linearGradient1082"
       x1="4.2333331"
       y1="0.5291667"
       x2="4.2333331"
       y2="1.5875"
       gradientUnits="userSpaceOnUse"
       gradientTransform="matrix(0.57142861,0,0,-0.57142861,1.8142857,3.5529763)" />
    <linearGradient
       inkscape:collect="always"
       id="linearGradient1088">
      <stop
         style="stop-color:#deffff;stop-opacity:1;"
         offset="0"
         id="stop1084" />
      <stop
         style="stop-color:#faffd4;stop-opacity:1"
         offset="1"
         id="stop1086" />
    </linearGradient>
    <linearGradient
       inkscape:collect="always"
       xlink:href="#linearGradient1072"
       id="linearGradient1074"
       x1="4.2333331"
       y1="2.1166668"
       x2="4.2333331"
       y2="6.3499999"
       gradientUnits="userSpaceOnUse"
       gradientTransform="matrix(0.57142863,0,0,0.57142863,1.8142857,2.3434523)" />
    <linearGradient
       inkscape:collect="always"
       id="linearGradient1072">
      <stop
         style="stop-color:#deffff;stop-opacity:1;"
         offset="0"
         id="stop1068" />
      <stop
         style="stop-color:#d4d5ff;stop-opacity:1"
         offset="1"
         id="stop1070" />
    </linearGradient>
  </defs>
  <sodipodi:namedview
     inkscape:window-maximized="1"
     inkscape:window-y="0"
     inkscape:window-x="0"
     inkscape:window-height="1000"
     inkscape:window-width="1920"
     units="px"
     showgrid="false"
     inkscape:document-rotation="0"
     inkscape:current-layer="layer1"
     inkscape:document-units="px"
     inkscape:cy="23.358708"
     inkscape:cx="13.288222"
     inkscape:zoom="18.009126"
     inkscape:pageshadow="2"
     inkscape:pageopacity="0.0"
     borderopacity="1.0"
     bordercolor="#666666"
     pagecolor="#ffffff"
     id="base"
     inkscape:snap-page="false" />
  <metadata
     id="metadata5">
    <rdf:RDF>
      <cc:Work
         rdf:about="">
        <dc:format>image/svg+xml</dc:format>
        <dc:type
           rdf:resource="http://purl.org/dc/dcmitype/StillImage" />
        <dc:title />
      </cc:Work>
    </rdf:RDF>
  </metadata>
  <g
     id="layer1"
     inkscape:groupmode="layer"
     inkscape:label="Capa 1">
    <path
       style="opacity:0.5;fill:#000000;fill-opacity:1;stroke:none;stroke-width:2.29352999;filter:url(#filter854)"
       d="M 1.0583334,0.5291668 V 7.9374999 H 7.4083333 V 2.1166666 l -1.5875,-1.5874998 z"
       id="path926-2"
       inkscape:connector-curvature="0" />
    <path
       style="opacity:1;fill:#f5f5f5;fill-opacity:1;stroke:none;stroke-width:2.29352999"
       d="M 1.0583334,0.52916675 V 7.9374999 H 7.4083333 V 2.1166666 l -1.5875,-1.58749985 z"
       id="path926"
       inkscape:connector-curvature="0" />
    <path
       inkscape:connector-curvature="0"
       style="opacity:0.2;fill:#000000;fill-opacity:1;stroke:none;stroke-width:2.29352999"
       d="M 5.8208333,0.52916675 V 2.1166669 h 1.5875 z"
       id="path926-1" />
    <path
       id="path967"
       style="fill:#000000;fill-opacity:1;stroke:none;stroke-width:0.0698194"
       d="M 6.35,2.6458333 H 2.1166667 V 6.8791671 H 6.35 Z m -0.1511904,0.264583 a 0.15119051,0.15119051 0 0 1 -3.024e-4,0.0086 0.15119051,0.15119051 0 0 1 -0.00118,0.0127 0.15119051,0.15119051 0 0 1 -0.00236,0.0124 0.15119051,0.15119051 0 0 1 -0.00325,0.0124 0.15119051,0.15119051 0 0 1 -0.00443,0.01181 0.15119051,0.15119051 0 0 1 -0.00531,0.01151 0.15119051,0.15119051 0 0 1 -0.0065,0.01093 0.15119051,0.15119051 0 0 1 0,2.95e-4 0.15119051,0.15119051 0 0 1 -0.00709,0.01034 0.15119051,0.15119051 0 0 1 -0.00797,0.0097 0.15119051,0.15119051 0 0 1 -0.00886,0.0092 0.15119051,0.15119051 0 0 1 -0.00974,0.0083 0.15119051,0.15119051 0 0 1 -0.010335,0.0077 0.15119051,0.15119051 0 0 1 -0.01063,0.0065 0.15119051,0.15119051 0 0 1 -0.011516,0.0056 0.15119051,0.15119051 0 0 1 -0.011813,0.0047 0.15119051,0.15119051 0 0 1 -0.012107,0.0038 0.15119051,0.15119051 0 0 1 -0.012402,0.0027 0.15119051,0.15119051 0 0 1 -0.012697,0.0015 0.15119051,0.15119051 0 0 1 -0.012698,5.89e-4 0.15119051,0.15119051 0 0 1 -0.00856,-2.95e-4 0.15119051,0.15119051 0 0 1 -0.012697,-0.0012 0.15119051,0.15119051 0 0 1 -0.012402,-0.0024 0.15119051,0.15119051 0 0 1 -0.012402,-0.0032 0.15119051,0.15119051 0 0 1 -0.011813,-0.0044 0.15119051,0.15119051 0 0 1 -0.011516,-0.0053 0.15119051,0.15119051 0 0 1 -0.010926,-0.0065 0.15119051,0.15119051 0 0 1 -3.024e-4,0 0.15119051,0.15119051 0 0 1 -0.010336,-0.0071 0.15119051,0.15119051 0 0 1 -0.00974,-0.008 0.15119051,0.15119051 0 0 1 -0.00915,-0.0089 0.15119051,0.15119051 0 0 1 -0.00827,-0.0097 0.15119051,0.15119051 0 0 1 -0.00768,-0.01034 0.15119051,0.15119051 0 0 1 -0.0065,-0.01063 0.15119051,0.15119051 0 0 1 -0.00561,-0.01151 0.15119051,0.15119051 0 0 1 -0.00473,-0.01181 0.15119051,0.15119051 0 0 1 -0.00384,-0.01211 0.15119051,0.15119051 0 0 1 -0.00266,-0.0124 0.15119051,0.15119051 0 0 1 -0.00148,-0.0127 0.15119051,0.15119051 0 0 1 -5.886e-4,-0.0127 0.15119051,0.15119051 0 0 1 3.024e-4,-0.0086 0.15119051,0.15119051 0 0 1 0.00118,-0.0127 0.15119051,0.15119051 0 0 1 0.00236,-0.0124 0.15119051,0.15119051 0 0 1 0.00325,-0.0124 0.15119051,0.15119051 0 0 1 0.00443,-0.01181 0.15119051,0.15119051 0 0 1 0.00531,-0.01152 0.15119051,0.15119051 0 0 1 0.0065,-0.01093 0.15119051,0.15119051 0 0 1 0,-2.95e-4 0.15119051,0.15119051 0 0 1 0.00709,-0.01034 0.15119051,0.15119051 0 0 1 0.00797,-0.0097 0.15119051,0.15119051 0 0 1 0.00886,-0.0092 0.15119051,0.15119051 0 0 1 0.00974,-0.0083 0.15119051,0.15119051 0 0 1 0.010335,-0.0077 0.15119051,0.15119051 0 0 1 0.01063,-0.0065 0.15119051,0.15119051 0 0 1 0.011516,-0.0056 0.15119051,0.15119051 0 0 1 0.011813,-0.0047 0.15119051,0.15119051 0 0 1 0.012107,-0.0038 0.15119051,0.15119051 0 0 1 0.012402,-0.0026 0.15119051,0.15119051 0 0 1 0.012697,-0.0015 0.15119051,0.15119051 0 0 1 0.012698,-5.72e-4 0.15119051,0.15119051 0 0 1 0.00856,2.95e-4 0.15119051,0.15119051 0 0 1 0.012698,0.0012 0.15119051,0.15119051 0 0 1 0.012402,0.0023 0.15119051,0.15119051 0 0 1 0.012402,0.0033 0.15119051,0.15119051 0 0 1 0.011813,0.0044 0.15119051,0.15119051 0 0 1 0.011516,0.0053 0.15119051,0.15119051 0 0 1 0.010925,0.0065 0.15119051,0.15119051 0 0 1 2.873e-4,0 0.15119051,0.15119051 0 0 1 0.010335,0.0071 0.15119051,0.15119051 0 0 1 0.00974,0.008 0.15119051,0.15119051 0 0 1 0.00915,0.0089 0.15119051,0.15119051 0 0 1 0.00827,0.0097 0.15119051,0.15119051 0 0 1 0.00768,0.01034 0.15119051,0.15119051 0 0 1 0.0065,0.01063 0.15119051,0.15119051 0 0 1 0.00561,0.01151 0.15119051,0.15119051 0 0 1 0.00473,0.01181 0.15119051,0.15119051 0 0 1 0.00384,0.01211 0.15119051,0.15119051 0 0 1 0.00266,0.0124 0.15119051,0.15119051 0 0 1 0.00148,0.0127 0.15119051,0.15119051 0 0 1 5.885e-4,0.0127 z m 0,0.5291671 a 0.15119051,0.15119051 0 0 1 -3.024e-4,0.00856 0.15119051,0.15119051 0 0 1 -0.00118,0.012698 0.15119051,0.15119051 0 0 1 -0.00236,0.012402 0.15119051,0.15119051 0 0 1 -0.00325,0.012402 0.15119051,0.15119051 0 0 1 -0.00443,0.011812 0.15119051,0.15119051 0 0 1 -0.00531,0.011517 0.15119051,0.15119051 0 0 1 -0.0065,0.010926 0.15119051,0.15119051 0 0 1 0,2.948e-4 0.15119051,0.15119051 0 0 1 -0.00709,0.010336 0.15119051,0.15119051 0 0 1 -0.00797,0.00974 0.15119051,0.15119051 0 0 1 -0.00886,0.00915 0.15119051,0.15119051 0 0 1 -0.00974,0.00827 0.15119051,0.15119051 0 0 1 -0.010335,0.00768 0.15119051,0.15119051 0 0 1 -0.01063,0.0065 0.15119051,0.15119051 0 0 1 -0.011516,0.00561 0.15119051,0.15119051 0 0 1 -0.011813,0.00473 0.15119051,0.15119051 0 0 1 -0.012107,0.00384 0.15119051,0.15119051 0 0 1 -0.012402,0.00266 0.15119051,0.15119051 0 0 1 -0.012697,0.00147 0.15119051,0.15119051 0 0 1 -0.012698,5.886e-4 0.15119051,0.15119051 0 0 1 -0.00856,-2.948e-4 0.15119051,0.15119051 0 0 1 -0.012697,-0.00118 0.15119051,0.15119051 0 0 1 -0.012402,-0.00236 0.15119051,0.15119051 0 0 1 -0.012402,-0.00325 0.15119051,0.15119051 0 0 1 -0.011813,-0.00443 0.15119051,0.15119051 0 0 1 -0.011516,-0.00531 0.15119051,0.15119051 0 0 1 -0.010926,-0.0065 0.15119051,0.15119051 0 0 1 -3.024e-4,0 0.15119051,0.15119051 0 0 1 -0.010336,-0.00709 0.15119051,0.15119051 0 0 1 -0.00974,-0.00797 0.15119051,0.15119051 0 0 1 -0.00915,-0.00886 0.15119051,0.15119051 0 0 1 -0.00827,-0.00974 0.15119051,0.15119051 0 0 1 -0.00768,-0.010335 0.15119051,0.15119051 0 0 1 -0.0065,-0.01063 0.15119051,0.15119051 0 0 1 -0.00561,-0.011517 0.15119051,0.15119051 0 0 1 -0.00473,-0.011811 0.15119051,0.15119051 0 0 1 -0.00384,-0.012107 0.15119051,0.15119051 0 0 1 -0.00266,-0.012402 0.15119051,0.15119051 0 0 1 -0.00148,-0.012698 0.15119051,0.15119051 0 0 1 -5.886e-4,-0.012698 0.15119051,0.15119051 0 0 1 3.024e-4,-0.00856 0.15119051,0.15119051 0 0 1 0.00118,-0.012698 0.15119051,0.15119051 0 0 1 0.00236,-0.012402 0.15119051,0.15119051 0 0 1 0.00325,-0.012402 0.15119051,0.15119051 0 0 1 0.00443,-0.011812 0.15119051,0.15119051 0 0 1 0.00531,-0.011517 0.15119051,0.15119051 0 0 1 0.0065,-0.010926 0.15119051,0.15119051 0 0 1 0,-2.948e-4 0.15119051,0.15119051 0 0 1 0.00709,-0.010336 0.15119051,0.15119051 0 0 1 0.00797,-0.00974 0.15119051,0.15119051 0 0 1 0.00886,-0.00915 0.15119051,0.15119051 0 0 1 0.00974,-0.00827 0.15119051,0.15119051 0 0 1 0.010335,-0.00768 0.15119051,0.15119051 0 0 1 0.010632,-0.0065 0.15119051,0.15119051 0 0 1 0.011516,-0.00561 0.15119051,0.15119051 0 0 1 0.011813,-0.00473 0.15119051,0.15119051 0 0 1 0.012107,-0.00384 0.15119051,0.15119051 0 0 1 0.012402,-0.00266 0.15119051,0.15119051 0 0 1 0.012697,-0.00147 0.15119051,0.15119051 0 0 1 0.012697,-5.886e-4 0.15119051,0.15119051 0 0 1 0.00856,2.948e-4 0.15119051,0.15119051 0 0 1 0.012698,0.00118 0.15119051,0.15119051 0 0 1 0.012402,0.00236 0.15119051,0.15119051 0 0 1 0.012402,0.00325 0.15119051,0.15119051 0 0 1 0.011813,0.00443 0.15119051,0.15119051 0 0 1 0.011516,0.00531 0.15119051,0.15119051 0 0 1 0.010926,0.0065 0.15119051,0.15119051 0 0 1 2.872e-4,0 0.15119051,0.15119051 0 0 1 0.010335,0.00709 0.15119051,0.15119051 0 0 1 0.00974,0.00797 0.15119051,0.15119051 0 0 1 0.00915,0.00886 0.15119051,0.15119051 0 0 1 0.00827,0.00974 0.15119051,0.15119051 0 0 1 0.00768,0.010335 0.15119051,0.15119051 0 0 1 0.0065,0.010631 0.15119051,0.15119051 0 0 1 0.00561,0.011516 0.15119051,0.15119051 0 0 1 0.00473,0.011812 0.15119051,0.15119051 0 0 1 0.00384,0.012107 0.15119051,0.15119051 0 0 1 0.00266,0.012402 0.15119051,0.15119051 0 0 1 0.00148,0.012698 0.15119051,0.15119051 0 0 1 5.886e-4,0.012698 z m 0,0.5291667 a 0.15119051,0.15119051 0 0 1 -3.024e-4,0.00856 0.15119051,0.15119051 0 0 1 -0.00118,0.012697 0.15119051,0.15119051 0 0 1 -0.00236,0.012402 0.15119051,0.15119051 0 0 1 -0.00325,0.012402 0.15119051,0.15119051 0 0 1 -0.00443,0.011811 0.15119051,0.15119051 0 0 1 -0.00531,0.011516 0.15119051,0.15119051 0 0 1 -0.0065,0.010926 0.15119051,0.15119051 0 0 1 0,3.023e-4 0.15119051,0.15119051 0 0 1 -0.00709,0.010335 0.15119051,0.15119051 0 0 1 -0.00797,0.00974 0.15119051,0.15119051 0 0 1 -0.00886,0.00915 0.15119051,0.15119051 0 0 1 -0.00974,0.00827 0.15119051,0.15119051 0 0 1 -0.010335,0.00768 0.15119051,0.15119051 0 0 1 -0.01063,0.0065 0.15119051,0.15119051 0 0 1 -0.011516,0.00561 0.15119051,0.15119051 0 0 1 -0.011813,0.00473 0.15119051,0.15119051 0 0 1 -0.012107,0.00384 0.15119051,0.15119051 0 0 1 -0.012402,0.00266 0.15119051,0.15119051 0 0 1 -0.012698,0.00148 0.15119051,0.15119051 0 0 1 -0.012698,5.773e-4 0.15119051,0.15119051 0 0 1 -0.00856,-3.025e-4 0.15119051,0.15119051 0 0 1 -0.012697,-0.00118 0.15119051,0.15119051 0 0 1 -0.012402,-0.00237 0.15119051,0.15119051 0 0 1 -0.012402,-0.00325 0.15119051,0.15119051 0 0 1 -0.011813,-0.00443 0.15119051,0.15119051 0 0 1 -0.011516,-0.00531 0.15119051,0.15119051 0 0 1 -0.010926,-0.0065 0.15119051,0.15119051 0 0 1 -3.024e-4,0 0.15119051,0.15119051 0 0 1 -0.010335,-0.00709 0.15119051,0.15119051 0 0 1 -0.00974,-0.00797 0.15119051,0.15119051 0 0 1 -0.00915,-0.00886 0.15119051,0.15119051 0 0 1 -0.00827,-0.00974 0.15119051,0.15119051 0 0 1 -0.00768,-0.010335 0.15119051,0.15119051 0 0 1 -0.0065,-0.01063 0.15119051,0.15119051 0 0 1 -0.00561,-0.011516 0.15119051,0.15119051 0 0 1 -0.00473,-0.011813 0.15119051,0.15119051 0 0 1 -0.00384,-0.012103 0.15119051,0.15119051 0 0 1 -0.00266,-0.012402 0.15119051,0.15119051 0 0 1 -0.00148,-0.012698 0.15119051,0.15119051 0 0 1 -5.886e-4,-0.012697 0.15119051,0.15119051 0 0 1 3.024e-4,-0.00856 0.15119051,0.15119051 0 0 1 0.00118,-0.012697 0.15119051,0.15119051 0 0 1 0.00236,-0.012402 0.15119051,0.15119051 0 0 1 0.00325,-0.012402 0.15119051,0.15119051 0 0 1 0.00443,-0.011811 0.15119051,0.15119051 0 0 1 0.00531,-0.011516 0.15119051,0.15119051 0 0 1 0.0065,-0.010926 0.15119051,0.15119051 0 0 1 0,-3.024e-4 0.15119051,0.15119051 0 0 1 0.00709,-0.010335 0.15119051,0.15119051 0 0 1 0.00797,-0.00974 0.15119051,0.15119051 0 0 1 0.00886,-0.00915 0.15119051,0.15119051 0 0 1 0.00974,-0.00827 0.15119051,0.15119051 0 0 1 0.010336,-0.00768 0.15119051,0.15119051 0 0 1 0.01063,-0.0065 0.15119051,0.15119051 0 0 1 0.011516,-0.00561 0.15119051,0.15119051 0 0 1 0.011812,-0.00473 0.15119051,0.15119051 0 0 1 0.012108,-0.00384 0.15119051,0.15119051 0 0 1 0.012402,-0.00266 0.15119051,0.15119051 0 0 1 0.012697,-0.00147 0.15119051,0.15119051 0 0 1 0.012697,-5.886e-4 0.15119051,0.15119051 0 0 1 0.00856,2.948e-4 0.15119051,0.15119051 0 0 1 0.012697,0.00118 0.15119051,0.15119051 0 0 1 0.012402,0.00236 0.15119051,0.15119051 0 0 1 0.012402,0.00325 0.15119051,0.15119051 0 0 1 0.011813,0.00443 0.15119051,0.15119051 0 0 1 0.011516,0.00531 0.15119051,0.15119051 0 0 1 0.010925,0.0065 0.15119051,0.15119051 0 0 1 3.023e-4,0 0.15119051,0.15119051 0 0 1 0.010335,0.00709 0.15119051,0.15119051 0 0 1 0.00974,0.00797 0.15119051,0.15119051 0 0 1 0.00915,0.00886 0.15119051,0.15119051 0 0 1 0.00827,0.00974 0.15119051,0.15119051 0 0 1 0.00768,0.010335 0.15119051,0.15119051 0 0 1 0.0065,0.01063 0.15119051,0.15119051 0 0 1 0.00561,0.011516 0.15119051,0.15119051 0 0 1 0.00473,0.011813 0.15119051,0.15119051 0 0 1 0.00384,0.012109 0.15119051,0.15119051 0 0 1 0.00266,0.012402 0.15119051,0.15119051 0 0 1 0.00148,0.012698 0.15119051,0.15119051 0 0 1 5.885e-4,0.012697 z m 0,0.5291665 a 0.15119051,0.15119051 0 0 1 -3.024e-4,0.00857 0.15119051,0.15119051 0 0 1 -0.00118,0.012697 0.15119051,0.15119051 0 0 1 -0.00236,0.012401 0.15119051,0.15119051 0 0 1 -0.00325,0.012401 0.15119051,0.15119051 0 0 1 -0.00443,0.011811 0.15119051,0.15119051 0 0 1 -0.00531,0.011515 0.15119051,0.15119051 0 0 1 -0.0065,0.010925 0.15119051,0.15119051 0 0 1 0,3.023e-4 0.15119051,0.15119051 0 0 1 -0.00709,0.010337 0.15119051,0.15119051 0 0 1 -0.00797,0.00974 0.15119051,0.15119051 0 0 1 -0.00886,0.00915 0.15119051,0.15119051 0 0 1 -0.00974,0.00827 0.15119051,0.15119051 0 0 1 -0.010335,0.00767 0.15119051,0.15119051 0 0 1 -0.01063,0.0065 0.15119051,0.15119051 0 0 1 -0.011516,0.0056 0.15119051,0.15119051 0 0 1 -0.011813,0.00474 0.15119051,0.15119051 0 0 1 -0.012107,0.00383 0.15119051,0.15119051 0 0 1 -0.012402,0.00263 0.15119051,0.15119051 0 0 1 -0.012698,0.00148 0.15119051,0.15119051 0 0 1 -0.012698,5.771e-4 0.15119051,0.15119051 0 0 1 -0.00856,-3.024e-4 0.15119051,0.15119051 0 0 1 -0.012697,-0.00119 0.15119051,0.15119051 0 0 1 -0.012402,-0.00234 0.15119051,0.15119051 0 0 1 -0.012402,-0.00326 0.15119051,0.15119051 0 0 1 -0.011813,-0.0044 0.15119051,0.15119051 0 0 1 -0.011516,-0.00531 0.15119051,0.15119051 0 0 1 -0.010926,-0.0065 0.15119051,0.15119051 0 0 1 -3.024e-4,0 0.15119051,0.15119051 0 0 1 -0.010335,-0.00709 0.15119051,0.15119051 0 0 1 -0.00974,-0.00797 0.15119051,0.15119051 0 0 1 -0.00915,-0.00886 0.15119051,0.15119051 0 0 1 -0.00827,-0.00974 0.15119051,0.15119051 0 0 1 -0.00768,-0.010337 0.15119051,0.15119051 0 0 1 -0.0065,-0.010629 0.15119051,0.15119051 0 0 1 -0.00561,-0.011515 0.15119051,0.15119051 0 0 1 -0.00473,-0.011811 0.15119051,0.15119051 0 0 1 -0.00384,-0.012103 0.15119051,0.15119051 0 0 1 -0.00266,-0.012401 0.15119051,0.15119051 0 0 1 -0.00148,-0.012697 0.15119051,0.15119051 0 0 1 -5.886e-4,-0.012697 0.15119051,0.15119051 0 0 1 3.024e-4,-0.00857 0.15119051,0.15119051 0 0 1 0.00118,-0.012697 0.15119051,0.15119051 0 0 1 0.00236,-0.012401 0.15119051,0.15119051 0 0 1 0.00325,-0.012401 0.15119051,0.15119051 0 0 1 0.00443,-0.011811 0.15119051,0.15119051 0 0 1 0.00531,-0.011515 0.15119051,0.15119051 0 0 1 0.0065,-0.010925 0.15119051,0.15119051 0 0 1 0,-3.024e-4 0.15119051,0.15119051 0 0 1 0.00709,-0.010335 0.15119051,0.15119051 0 0 1 0.00797,-0.00974 0.15119051,0.15119051 0 0 1 0.00886,-0.00915 0.15119051,0.15119051 0 0 1 0.00974,-0.00827 0.15119051,0.15119051 0 0 1 0.010336,-0.00768 0.15119051,0.15119051 0 0 1 0.01063,-0.0065 0.15119051,0.15119051 0 0 1 0.011516,-0.00561 0.15119051,0.15119051 0 0 1 0.011812,-0.00473 0.15119051,0.15119051 0 0 1 0.012108,-0.00384 0.15119051,0.15119051 0 0 1 0.012402,-0.00266 0.15119051,0.15119051 0 0 1 0.012697,-0.00148 0.15119051,0.15119051 0 0 1 0.012697,-5.885e-4 0.15119051,0.15119051 0 0 1 0.00856,3.024e-4 0.15119051,0.15119051 0 0 1 0.012697,0.00118 0.15119051,0.15119051 0 0 1 0.012402,0.00237 0.15119051,0.15119051 0 0 1 0.012402,0.00325 0.15119051,0.15119051 0 0 1 0.011813,0.00443 0.15119051,0.15119051 0 0 1 0.011516,0.00531 0.15119051,0.15119051 0 0 1 0.010925,0.0065 0.15119051,0.15119051 0 0 1 3.023e-4,0 0.15119051,0.15119051 0 0 1 0.010335,0.00709 0.15119051,0.15119051 0 0 1 0.00974,0.00797 0.15119051,0.15119051 0 0 1 0.00915,0.00886 0.15119051,0.15119051 0 0 1 0.00827,0.00974 0.15119051,0.15119051 0 0 1 0.00768,0.010335 0.15119051,0.15119051 0 0 1 0.0065,0.010629 0.15119051,0.15119051 0 0 1 0.00561,0.011515 0.15119051,0.15119051 0 0 1 0.00473,0.011811 0.15119051,0.15119051 0 0 1 0.00384,0.012103 0.15119051,0.15119051 0 0 1 0.00266,0.012401 0.15119051,0.15119051 0 0 1 0.00148,0.012697 0.15119051,0.15119051 0 0 1 5.885e-4,0.012697 z m 0,0.5291669 a 0.15119051,0.15119051 0 0 1 -3.024e-4,0.00857 0.15119051,0.15119051 0 0 1 -0.00118,0.012697 0.15119051,0.15119051 0 0 1 -0.00236,0.012401 0.15119051,0.15119051 0 0 1 -0.00325,0.012401 0.15119051,0.15119051 0 0 1 -0.00443,0.011811 0.15119051,0.15119051 0 0 1 -0.00531,0.011515 0.15119051,0.15119051 0 0 1 -0.0065,0.010926 0.15119051,0.15119051 0 0 1 0,3.024e-4 0.15119051,0.15119051 0 0 1 -0.00709,0.010337 0.15119051,0.15119051 0 0 1 -0.00797,0.00974 0.15119051,0.15119051 0 0 1 -0.00886,0.00915 0.15119051,0.15119051 0 0 1 -0.00974,0.00827 0.15119051,0.15119051 0 0 1 -0.010335,0.00768 0.15119051,0.15119051 0 0 1 -0.01063,0.0065 0.15119051,0.15119051 0 0 1 -0.011516,0.0056 0.15119051,0.15119051 0 0 1 -0.011813,0.00474 0.15119051,0.15119051 0 0 1 -0.012107,0.00383 0.15119051,0.15119051 0 0 1 -0.012402,0.00263 0.15119051,0.15119051 0 0 1 -0.012698,0.00148 0.15119051,0.15119051 0 0 1 -0.012698,5.772e-4 0.15119051,0.15119051 0 0 1 -0.00856,-3.024e-4 0.15119051,0.15119051 0 0 1 -0.012697,-0.00119 0.15119051,0.15119051 0 0 1 -0.012402,-0.00234 0.15119051,0.15119051 0 0 1 -0.012402,-0.00326 0.15119051,0.15119051 0 0 1 -0.011813,-0.00446 0.15119051,0.15119051 0 0 1 -0.011516,-0.00531 0.15119051,0.15119051 0 0 1 -0.010926,-0.0065 0.15119051,0.15119051 0 0 1 -3.024e-4,0 0.15119051,0.15119051 0 0 1 -0.010335,-0.00709 0.15119051,0.15119051 0 0 1 -0.00974,-0.00797 0.15119051,0.15119051 0 0 1 -0.00915,-0.00886 0.15119051,0.15119051 0 0 1 -0.00827,-0.00974 0.15119051,0.15119051 0 0 1 -0.00768,-0.010337 0.15119051,0.15119051 0 0 1 -0.0065,-0.010629 0.15119051,0.15119051 0 0 1 -0.00561,-0.011515 0.15119051,0.15119051 0 0 1 -0.00473,-0.011811 0.15119051,0.15119051 0 0 1 -0.00384,-0.012103 0.15119051,0.15119051 0 0 1 -0.00266,-0.012401 0.15119051,0.15119051 0 0 1 -0.00148,-0.012697 0.15119051,0.15119051 0 0 1 -5.886e-4,-0.012697 0.15119051,0.15119051 0 0 1 3.024e-4,-0.00857 0.15119051,0.15119051 0 0 1 0.00118,-0.012697 0.15119051,0.15119051 0 0 1 0.00236,-0.012401 0.15119051,0.15119051 0 0 1 0.00325,-0.012399 0.15119051,0.15119051 0 0 1 0.00443,-0.011811 0.15119051,0.15119051 0 0 1 0.00531,-0.011515 0.15119051,0.15119051 0 0 1 0.0065,-0.010925 0.15119051,0.15119051 0 0 1 0,-3.024e-4 0.15119051,0.15119051 0 0 1 0.00709,-0.010337 0.15119051,0.15119051 0 0 1 0.00797,-0.00974 0.15119051,0.15119051 0 0 1 0.00886,-0.00915 0.15119051,0.15119051 0 0 1 0.00974,-0.00827 0.15119051,0.15119051 0 0 1 0.010336,-0.00768 0.15119051,0.15119051 0 0 1 0.01063,-0.0065 0.15119051,0.15119051 0 0 1 0.011516,-0.0056 0.15119051,0.15119051 0 0 1 0.011812,-0.00474 0.15119051,0.15119051 0 0 1 0.012108,-0.00383 0.15119051,0.15119051 0 0 1 0.012402,-0.00263 0.15119051,0.15119051 0 0 1 0.012697,-0.00148 0.15119051,0.15119051 0 0 1 0.012697,-5.772e-4 0.15119051,0.15119051 0 0 1 0.00856,3.025e-4 0.15119051,0.15119051 0 0 1 0.012697,0.00119 0.15119051,0.15119051 0 0 1 0.012402,0.00234 0.15119051,0.15119051 0 0 1 0.012402,0.00326 0.15119051,0.15119051 0 0 1 0.011813,0.00446 0.15119051,0.15119051 0 0 1 0.011516,0.00531 0.15119051,0.15119051 0 0 1 0.010925,0.0065 0.15119051,0.15119051 0 0 1 3.023e-4,0 0.15119051,0.15119051 0 0 1 0.010335,0.00709 0.15119051,0.15119051 0 0 1 0.00974,0.00797 0.15119051,0.15119051 0 0 1 0.00915,0.00886 0.15119051,0.15119051 0 0 1 0.00827,0.00974 0.15119051,0.15119051 0 0 1 0.00768,0.010337 0.15119051,0.15119051 0 0 1 0.0065,0.010629 0.15119051,0.15119051 0 0 1 0.00561,0.011515 0.15119051,0.15119051 0 0 1 0.00473,0.011811 0.15119051,0.15119051 0 0 1 0.00384,0.012103 0.15119051,0.15119051 0 0 1 0.00266,0.012401 0.15119051,0.15119051 0 0 1 0.00148,0.012697 0.15119051,0.15119051 0 0 1 5.885e-4,0.012697 z m 0,0.5291669 a 0.15119051,0.15119051 0 0 1 -3.024e-4,0.00857 0.15119051,0.15119051 0 0 1 -0.00118,0.012697 0.15119051,0.15119051 0 0 1 -0.00236,0.012401 0.15119051,0.15119051 0 0 1 -0.00325,0.012401 0.15119051,0.15119051 0 0 1 -0.00443,0.011811 0.15119051,0.15119051 0 0 1 -0.00531,0.011515 0.15119051,0.15119051 0 0 1 -0.0065,0.010925 0.15119051,0.15119051 0 0 1 0,3.024e-4 0.15119051,0.15119051 0 0 1 -0.00709,0.010337 0.15119051,0.15119051 0 0 1 -0.00797,0.00974 0.15119051,0.15119051 0 0 1 -0.00886,0.00915 0.15119051,0.15119051 0 0 1 -0.00974,0.00827 0.15119051,0.15119051 0 0 1 -0.010335,0.00767 0.15119051,0.15119051 0 0 1 -0.01063,0.0065 0.15119051,0.15119051 0 0 1 -0.011516,0.0056 0.15119051,0.15119051 0 0 1 -0.011813,0.00474 0.15119051,0.15119051 0 0 1 -0.012107,0.00383 0.15119051,0.15119051 0 0 1 -0.012402,0.00263 0.15119051,0.15119051 0 0 1 -0.012698,0.00148 0.15119051,0.15119051 0 0 1 -0.012698,5.771e-4 0.15119051,0.15119051 0 0 1 -0.00856,-3.024e-4 0.15119051,0.15119051 0 0 1 -0.012697,-0.00119 0.15119051,0.15119051 0 0 1 -0.012402,-0.00234 0.15119051,0.15119051 0 0 1 -0.012402,-0.00326 0.15119051,0.15119051 0 0 1 -0.011813,-0.0044 0.15119051,0.15119051 0 0 1 -0.011516,-0.00531 0.15119051,0.15119051 0 0 1 -0.010926,-0.0065 0.15119051,0.15119051 0 0 1 -3.024e-4,0 0.15119051,0.15119051 0 0 1 -0.010335,-0.00709 0.15119051,0.15119051 0 0 1 -0.00974,-0.00797 0.15119051,0.15119051 0 0 1 -0.00915,-0.00886 0.15119051,0.15119051 0 0 1 -0.00827,-0.00974 0.15119051,0.15119051 0 0 1 -0.00768,-0.010337 0.15119051,0.15119051 0 0 1 -0.0065,-0.010629 0.15119051,0.15119051 0 0 1 -0.00561,-0.011515 0.15119051,0.15119051 0 0 1 -0.00473,-0.011811 0.15119051,0.15119051 0 0 1 -0.00384,-0.012103 0.15119051,0.15119051 0 0 1 -0.00266,-0.012401 0.15119051,0.15119051 0 0 1 -0.00148,-0.012697 0.15119051,0.15119051 0 0 1 -5.886e-4,-0.012697 0.15119051,0.15119051 0 0 1 3.024e-4,-0.00857 0.15119051,0.15119051 0 0 1 0.00118,-0.012697 0.15119051,0.15119051 0 0 1 0.00236,-0.012401 0.15119051,0.15119051 0 0 1 0.00325,-0.012401 0.15119051,0.15119051 0 0 1 0.00443,-0.011811 0.15119051,0.15119051 0 0 1 0.00531,-0.011515 0.15119051,0.15119051 0 0 1 0.0065,-0.010925 0.15119051,0.15119051 0 0 1 0,-3.024e-4 0.15119051,0.15119051 0 0 1 0.00709,-0.010337 0.15119051,0.15119051 0 0 1 0.00797,-0.00974 0.15119051,0.15119051 0 0 1 0.00886,-0.00915 0.15119051,0.15119051 0 0 1 0.00974,-0.00827 0.15119051,0.15119051 0 0 1 0.010336,-0.00768 0.15119051,0.15119051 0 0 1 0.01063,-0.0065 0.15119051,0.15119051 0 0 1 0.011516,-0.0056 0.15119051,0.15119051 0 0 1 0.011812,-0.00474 0.15119051,0.15119051 0 0 1 0.012108,-0.00383 0.15119051,0.15119051 0 0 1 0.012402,-0.00263 0.15119051,0.15119051 0 0 1 0.012697,-0.00148 0.15119051,0.15119051 0 0 1 0.012697,-5.771e-4 0.15119051,0.15119051 0 0 1 0.00856,3.024e-4 0.15119051,0.15119051 0 0 1 0.012697,0.00119 0.15119051,0.15119051 0 0 1 0.012402,0.00234 0.15119051,0.15119051 0 0 1 0.012402,0.00326 0.15119051,0.15119051 0 0 1 0.011813,0.0044 0.15119051,0.15119051 0 0 1 0.011516,0.00531 0.15119051,0.15119051 0 0 1 0.010925,0.0065 0.15119051,0.15119051 0 0 1 3.023e-4,0 0.15119051,0.15119051 0 0 1 0.010335,0.00709 0.15119051,0.15119051 0 0 1 0.00974,0.00797 0.15119051,0.15119051 0 0 1 0.00915,0.00886 0.15119051,0.15119051 0 0 1 0.00827,0.00974 0.15119051,0.15119051 0 0 1 0.00768,0.010337 0.15119051,0.15119051 0 0 1 0.0065,0.010629 0.15119051,0.15119051 0 0 1 0.00561,0.011515 0.15119051,0.15119051 0 0 1 0.00473,0.011811 0.15119051,0.15119051 0 0 1 0.00384,0.012103 0.15119051,0.15119051 0 0 1 0.00266,0.012401 0.15119051,0.15119051 0 0 1 0.00148,0.012697 0.15119051,0.15119051 0 0 1 5.885e-4,0.012697 z m 0,0.5291663 a 0.15119051,0.15119051 0 0 1 -3.024e-4,0.00857 0.15119051,0.15119051 0 0 1 -0.00118,0.012697 0.15119051,0.15119051 0 0 1 -0.00236,0.012399 0.15119051,0.15119051 0 0 1 -0.00325,0.012401 0.15119051,0.15119051 0 0 1 -0.00443,0.011811 0.15119051,0.15119051 0 0 1 -0.00531,0.011515 0.15119051,0.15119051 0 0 1 -0.0065,0.010925 0.15119051,0.15119051 0 0 1 0,3.023e-4 0.15119051,0.15119051 0 0 1 -0.00709,0.010337 0.15119051,0.15119051 0 0 1 -0.00797,0.00974 0.15119051,0.15119051 0 0 1 -0.00886,0.00915 0.15119051,0.15119051 0 0 1 -0.00974,0.00827 0.15119051,0.15119051 0 0 1 -0.010335,0.00768 0.15119051,0.15119051 0 0 1 -0.01063,0.0065 0.15119051,0.15119051 0 0 1 -0.011516,0.0056 0.15119051,0.15119051 0 0 1 -0.011813,0.00474 0.15119051,0.15119051 0 0 1 -0.012107,0.00383 0.15119051,0.15119051 0 0 1 -0.012402,0.00263 0.15119051,0.15119051 0 0 1 -0.012698,0.00148 0.15119051,0.15119051 0 0 1 -0.012698,5.771e-4 0.15119051,0.15119051 0 0 1 -0.00856,-3.024e-4 0.15119051,0.15119051 0 0 1 -0.012697,-0.00119 0.15119051,0.15119051 0 0 1 -0.012402,-0.00234 0.15119051,0.15119051 0 0 1 -0.012402,-0.00326 0.15119051,0.15119051 0 0 1 -0.011813,-0.0044 0.15119051,0.15119051 0 0 1 -0.011516,-0.00531 0.15119051,0.15119051 0 0 1 -0.010926,-0.0065 0.15119051,0.15119051 0 0 1 -3.024e-4,0 0.15119051,0.15119051 0 0 1 -0.010335,-0.00709 0.15119051,0.15119051 0 0 1 -0.00974,-0.00797 0.15119051,0.15119051 0 0 1 -0.00915,-0.00886 0.15119051,0.15119051 0 0 1 -0.00827,-0.00974 0.15119051,0.15119051 0 0 1 -0.00768,-0.010337 0.15119051,0.15119051 0 0 1 -0.0065,-0.010628 0.15119051,0.15119051 0 0 1 -0.00561,-0.011515 0.15119051,0.15119051 0 0 1 -0.00473,-0.011811 0.15119051,0.15119051 0 0 1 -0.00384,-0.012103 0.15119051,0.15119051 0 0 1 -0.00266,-0.012401 0.15119051,0.15119051 0 0 1 -0.00148,-0.012697 0.15119051,0.15119051 0 0 1 -5.886e-4,-0.012697 0.15119051,0.15119051 0 0 1 3.024e-4,-0.00857 0.15119051,0.15119051 0 0 1 0.00118,-0.012697 0.15119051,0.15119051 0 0 1 0.00236,-0.012401 0.15119051,0.15119051 0 0 1 0.00325,-0.012401 0.15119051,0.15119051 0 0 1 0.00443,-0.011811 0.15119051,0.15119051 0 0 1 0.00531,-0.011515 0.15119051,0.15119051 0 0 1 0.0065,-0.010926 0.15119051,0.15119051 0 0 1 0,-3.024e-4 0.15119051,0.15119051 0 0 1 0.00709,-0.010337 0.15119051,0.15119051 0 0 1 0.00797,-0.00974 0.15119051,0.15119051 0 0 1 0.00886,-0.00915 0.15119051,0.15119051 0 0 1 0.00974,-0.00827 0.15119051,0.15119051 0 0 1 0.010336,-0.00768 0.15119051,0.15119051 0 0 1 0.01063,-0.0065 0.15119051,0.15119051 0 0 1 0.011516,-0.0056 0.15119051,0.15119051 0 0 1 0.011812,-0.00474 0.15119051,0.15119051 0 0 1 0.012108,-0.00383 0.15119051,0.15119051 0 0 1 0.012402,-0.00263 0.15119051,0.15119051 0 0 1 0.012697,-0.00148 0.15119051,0.15119051 0 0 1 0.012697,-5.772e-4 0.15119051,0.15119051 0 0 1 0.00856,3.024e-4 0.15119051,0.15119051 0 0 1 0.012697,0.00119 0.15119051,0.15119051 0 0 1 0.012402,0.00234 0.15119051,0.15119051 0 0 1 0.012402,0.00326 0.15119051,0.15119051 0 0 1 0.011813,0.00446 0.15119051,0.15119051 0 0 1 0.011516,0.00531 0.15119051,0.15119051 0 0 1 0.010925,0.0065 0.15119051,0.15119051 0 0 1 3.023e-4,0 0.15119051,0.15119051 0 0 1 0.010335,0.00709 0.15119051,0.15119051 0 0 1 0.00974,0.00797 0.15119051,0.15119051 0 0 1 0.00915,0.00886 0.15119051,0.15119051 0 0 1 0.00827,0.00974 0.15119051,0.15119051 0 0 1 0.00768,0.010337 0.15119051,0.15119051 0 0 1 0.0065,0.010629 0.15119051,0.15119051 0 0 1 0.00561,0.011515 0.15119051,0.15119051 0 0 1 0.00473,0.011811 0.15119051,0.15119051 0 0 1 0.00384,0.012103 0.15119051,0.15119051 0 0 1 0.00266,0.012401 0.15119051,0.15119051 0 0 1 0.00148,0.012697 0.15119051,0.15119051 0 0 1 5.885e-4,0.012697 z m 0,0.529167 a 0.15119051,0.15119051 0 0 1 -3.024e-4,0.00857 0.15119051,0.15119051 0 0 1 -0.00118,0.012697 0.15119051,0.15119051 0 0 1 -0.00236,0.012401 0.15119051,0.15119051 0 0 1 -0.00325,0.012399 0.15119051,0.15119051 0 0 1 -0.00443,0.011811 0.15119051,0.15119051 0 0 1 -0.00531,0.011515 0.15119051,0.15119051 0 0 1 -0.0065,0.010925 0.15119051,0.15119051 0 0 1 0,3.024e-4 0.15119051,0.15119051 0 0 1 -0.00709,0.010337 0.15119051,0.15119051 0 0 1 -0.00797,0.00974 0.15119051,0.15119051 0 0 1 -0.00886,0.00915 0.15119051,0.15119051 0 0 1 -0.00974,0.00827 0.15119051,0.15119051 0 0 1 -0.010335,0.00768 0.15119051,0.15119051 0 0 1 -0.01063,0.0065 0.15119051,0.15119051 0 0 1 -0.011516,0.0056 0.15119051,0.15119051 0 0 1 -0.011813,0.00474 0.15119051,0.15119051 0 0 1 -0.012107,0.00383 0.15119051,0.15119051 0 0 1 -0.012402,0.00263 0.15119051,0.15119051 0 0 1 -0.012698,0.00148 0.15119051,0.15119051 0 0 1 -0.012698,5.772e-4 0.15119051,0.15119051 0 0 1 -0.00856,-3.024e-4 0.15119051,0.15119051 0 0 1 -0.012697,-0.00119 0.15119051,0.15119051 0 0 1 -0.012402,-0.00234 0.15119051,0.15119051 0 0 1 -0.012402,-0.00326 0.15119051,0.15119051 0 0 1 -0.011813,-0.00446 0.15119051,0.15119051 0 0 1 -0.011516,-0.00531 0.15119051,0.15119051 0 0 1 -0.010926,-0.0065 0.15119051,0.15119051 0 0 1 -3.024e-4,0 0.15119051,0.15119051 0 0 1 -0.010335,-0.00709 0.15119051,0.15119051 0 0 1 -0.00974,-0.00797 0.15119051,0.15119051 0 0 1 -0.00915,-0.00886 0.15119051,0.15119051 0 0 1 -0.00827,-0.00974 0.15119051,0.15119051 0 0 1 -0.00768,-0.010337 0.15119051,0.15119051 0 0 1 -0.0065,-0.010629 0.15119051,0.15119051 0 0 1 -0.00561,-0.011515 0.15119051,0.15119051 0 0 1 -0.00473,-0.011811 0.15119051,0.15119051 0 0 1 -0.00384,-0.012103 0.15119051,0.15119051 0 0 1 -0.00266,-0.012401 0.15119051,0.15119051 0 0 1 -0.00148,-0.012697 0.15119051,0.15119051 0 0 1 -5.886e-4,-0.012697 0.15119051,0.15119051 0 0 1 3.024e-4,-0.00857 0.15119051,0.15119051 0 0 1 0.00118,-0.012697 0.15119051,0.15119051 0 0 1 0.00236,-0.012401 0.15119051,0.15119051 0 0 1 0.00325,-0.012401 0.15119051,0.15119051 0 0 1 0.00443,-0.011811 0.15119051,0.15119051 0 0 1 0.00531,-0.011515 0.15119051,0.15119051 0 0 1 0.0065,-0.010925 0.15119051,0.15119051 0 0 1 0,-3.024e-4 0.15119051,0.15119051 0 0 1 0.00709,-0.010337 0.15119051,0.15119051 0 0 1 0.00797,-0.00974 0.15119051,0.15119051 0 0 1 0.00886,-0.00915 0.15119051,0.15119051 0 0 1 0.00974,-0.00827 0.15119051,0.15119051 0 0 1 0.010336,-0.00768 0.15119051,0.15119051 0 0 1 0.01063,-0.0065 0.15119051,0.15119051 0 0 1 0.011516,-0.0056 0.15119051,0.15119051 0 0 1 0.011812,-0.00474 0.15119051,0.15119051 0 0 1 0.012108,-0.00383 0.15119051,0.15119051 0 0 1 0.012402,-0.00263 0.15119051,0.15119051 0 0 1 0.012697,-0.00148 0.15119051,0.15119051 0 0 1 0.012697,-5.772e-4 0.15119051,0.15119051 0 0 1 0.00856,3.024e-4 0.15119051,0.15119051 0 0 1 0.012697,0.00119 0.15119051,0.15119051 0 0 1 0.012402,0.00234 0.15119051,0.15119051 0 0 1 0.012402,0.00326 0.15119051,0.15119051 0 0 1 0.011813,0.00446 0.15119051,0.15119051 0 0 1 0.011516,0.00531 0.15119051,0.15119051 0 0 1 0.010925,0.0065 0.15119051,0.15119051 0 0 1 3.023e-4,0 0.15119051,0.15119051 0 0 1 0.010335,0.00709 0.15119051,0.15119051 0 0 1 0.00974,0.00797 0.15119051,0.15119051 0 0 1 0.00915,0.00886 0.15119051,0.15119051 0 0 1 0.00827,0.00974 0.15119051,0.15119051 0 0 1 0.00768,0.010337 0.15119051,0.15119051 0 0 1 0.0065,0.010629 0.15119051,0.15119051 0 0 1 0.00561,0.011515 0.15119051,0.15119051 0 0 1 0.00473,0.011811 0.15119051,0.15119051 0 0 1 0.00384,0.012103 0.15119051,0.15119051 0 0 1 0.00266,0.012401 0.15119051,0.15119051 0 0 1 0.00148,0.012697 0.15119051,0.15119051 0 0 1 5.885e-4,0.012697 z M 2.5702377,2.9104163 a 0.15119051,0.15119051 0 0 1 -5.71e-4,0.0127 0.15119051,0.15119051 0 0 1 -0.0015,0.0127 0.15119051,0.15119051 0 0 1 -0.0026,0.0124 0.15119051,0.15119051 0 0 1 -0.0038,0.01211 0.15119051,0.15119051 0 0 1 -0.0047,0.01181 0.15119051,0.15119051 0 0 1 -0.0056,0.01151 0.15119051,0.15119051 0 0 1 -0.0065,0.01063 0.15119051,0.15119051 0 0 1 -0.0077,0.01034 0.15119051,0.15119051 0 0 1 -0.0083,0.0097 0.15119051,0.15119051 0 0 1 -0.0092,0.0089 0.15119051,0.15119051 0 0 1 -0.0097,0.008 0.15119051,0.15119051 0 0 1 -0.01034,0.0071 0.15119051,0.15119051 0 0 1 -0.01122,0.0065 0.15119051,0.15119051 0 0 1 -0.01151,0.0053 0.15119051,0.15119051 0 0 1 -0.01181,0.0044 0.15119051,0.15119051 0 0 1 -0.0124,0.0032 0.15119051,0.15119051 0 0 1 -0.0124,0.0024 0.15119051,0.15119051 0 0 1 -0.0127,0.0012 0.15119051,0.15119051 0 0 1 -0.0086,2.96e-4 0.15119051,0.15119051 0 0 1 -0.0127,-5.88e-4 0.15119051,0.15119051 0 0 1 -0.0127,-0.0015 0.15119051,0.15119051 0 0 1 -0.0124,-0.0027 0.15119051,0.15119051 0 0 1 -0.01211,-0.0038 0.15119051,0.15119051 0 0 1 -0.01181,-0.0047 0.15119051,0.15119051 0 0 1 -0.01151,-0.0056 0.15119051,0.15119051 0 0 1 -0.01063,-0.0065 0.15119051,0.15119051 0 0 1 -0.01034,-0.0077 0.15119051,0.15119051 0 0 1 -0.0097,-0.0083 0.15119051,0.15119051 0 0 1 -0.0089,-0.0092 0.15119051,0.15119051 0 0 1 -0.008,-0.0097 0.15119051,0.15119051 0 0 1 -0.0071,-0.01034 0.15119051,0.15119051 0 0 1 -0.0065,-0.01122 0.15119051,0.15119051 0 0 1 -0.0053,-0.01151 0.15119051,0.15119051 0 0 1 -0.0044,-0.01181 0.15119051,0.15119051 0 0 1 -0.0033,-0.0124 0.15119051,0.15119051 0 0 1 -0.0023,-0.0124 0.15119051,0.15119051 0 0 1 -0.0012,-0.0127 0.15119051,0.15119051 0 0 1 -2.99e-4,-0.0086 0.15119051,0.15119051 0 0 1 5.71e-4,-0.0127 0.15119051,0.15119051 0 0 1 0.0015,-0.0127 0.15119051,0.15119051 0 0 1 0.0026,-0.0124 0.15119051,0.15119051 0 0 1 0.0038,-0.01211 0.15119051,0.15119051 0 0 1 0.0047,-0.01181 0.15119051,0.15119051 0 0 1 0.0056,-0.01151 0.15119051,0.15119051 0 0 1 0.0065,-0.01063 0.15119051,0.15119051 0 0 1 0.0077,-0.01034 0.15119051,0.15119051 0 0 1 0.0083,-0.0097 0.15119051,0.15119051 0 0 1 0.0092,-0.0089 0.15119051,0.15119051 0 0 1 0.0097,-0.008 0.15119051,0.15119051 0 0 1 0.01034,-0.0071 0.15119051,0.15119051 0 0 1 0.01122,-0.0065 0.15119051,0.15119051 0 0 1 0.01151,-0.0053 0.15119051,0.15119051 0 0 1 0.01181,-0.0044 0.15119051,0.15119051 0 0 1 0.0124,-0.0033 0.15119051,0.15119051 0 0 1 0.0124,-0.0023 0.15119051,0.15119051 0 0 1 0.0127,-0.0012 0.15119051,0.15119051 0 0 1 0.0086,-2.96e-4 0.15119051,0.15119051 0 0 1 0.0127,5.72e-4 0.15119051,0.15119051 0 0 1 0.0127,0.0015 0.15119051,0.15119051 0 0 1 0.0124,0.0027 0.15119051,0.15119051 0 0 1 0.01211,0.0038 0.15119051,0.15119051 0 0 1 0.01181,0.0047 0.15119051,0.15119051 0 0 1 0.01151,0.0056 0.15119051,0.15119051 0 0 1 0.01063,0.0065 0.15119051,0.15119051 0 0 1 0.01034,0.0077 0.15119051,0.15119051 0 0 1 0.0097,0.0083 0.15119051,0.15119051 0 0 1 0.0089,0.0092 0.15119051,0.15119051 0 0 1 0.008,0.0097 0.15119051,0.15119051 0 0 1 0.0071,0.01034 0.15119051,0.15119051 0 0 1 0.0065,0.01122 0.15119051,0.15119051 0 0 1 0.0053,0.01151 0.15119051,0.15119051 0 0 1 0.0044,0.01181 0.15119051,0.15119051 0 0 1 0.0033,0.0124 0.15119051,0.15119051 0 0 1 0.0023,0.0124 0.15119051,0.15119051 0 0 1 0.0012,0.0127 0.15119051,0.15119051 0 0 1 2.99e-4,0.0086 z m 0,0.5291671 a 0.15119051,0.15119051 0 0 1 -5.71e-4,0.012698 0.15119051,0.15119051 0 0 1 -0.0015,0.012698 0.15119051,0.15119051 0 0 1 -0.0026,0.012402 0.15119051,0.15119051 0 0 1 -0.0038,0.012107 0.15119051,0.15119051 0 0 1 -0.0047,0.011812 0.15119051,0.15119051 0 0 1 -0.0056,0.011516 0.15119051,0.15119051 0 0 1 -0.0065,0.01063 0.15119051,0.15119051 0 0 1 -0.0077,0.010335 0.15119051,0.15119051 0 0 1 -0.0083,0.00974 0.15119051,0.15119051 0 0 1 -0.0092,0.00886 0.15119051,0.15119051 0 0 1 -0.0097,0.00797 0.15119051,0.15119051 0 0 1 -0.01034,0.00709 0.15119051,0.15119051 0 0 1 -0.01122,0.0065 0.15119051,0.15119051 0 0 1 -0.01151,0.00531 0.15119051,0.15119051 0 0 1 -0.01181,0.00443 0.15119051,0.15119051 0 0 1 -0.0124,0.00325 0.15119051,0.15119051 0 0 1 -0.0124,0.00236 0.15119051,0.15119051 0 0 1 -0.0127,0.00118 0.15119051,0.15119051 0 0 1 -0.0086,2.963e-4 0.15119051,0.15119051 0 0 1 -0.0127,-5.886e-4 0.15119051,0.15119051 0 0 1 -0.0127,-0.00148 0.15119051,0.15119051 0 0 1 -0.0124,-0.00266 0.15119051,0.15119051 0 0 1 -0.01211,-0.00384 0.15119051,0.15119051 0 0 1 -0.01181,-0.00473 0.15119051,0.15119051 0 0 1 -0.01151,-0.00561 0.15119051,0.15119051 0 0 1 -0.01063,-0.0065 0.15119051,0.15119051 0 0 1 -0.01034,-0.00768 0.15119051,0.15119051 0 0 1 -0.0097,-0.00827 0.15119051,0.15119051 0 0 1 -0.0089,-0.00915 0.15119051,0.15119051 0 0 1 -0.008,-0.00974 0.15119051,0.15119051 0 0 1 -0.0071,-0.010336 0.15119051,0.15119051 0 0 1 -0.0065,-0.011221 0.15119051,0.15119051 0 0 1 -0.0053,-0.011517 0.15119051,0.15119051 0 0 1 -0.0044,-0.011811 0.15119051,0.15119051 0 0 1 -0.0033,-0.012402 0.15119051,0.15119051 0 0 1 -0.0023,-0.012402 0.15119051,0.15119051 0 0 1 -0.0012,-0.012698 0.15119051,0.15119051 0 0 1 -2.99e-4,-0.00856 0.15119051,0.15119051 0 0 1 5.71e-4,-0.012698 0.15119051,0.15119051 0 0 1 0.0015,-0.012698 0.15119051,0.15119051 0 0 1 0.0026,-0.012402 0.15119051,0.15119051 0 0 1 0.0038,-0.012107 0.15119051,0.15119051 0 0 1 0.0047,-0.011812 0.15119051,0.15119051 0 0 1 0.0056,-0.011517 0.15119051,0.15119051 0 0 1 0.0065,-0.010631 0.15119051,0.15119051 0 0 1 0.0077,-0.010335 0.15119051,0.15119051 0 0 1 0.0083,-0.00974 0.15119051,0.15119051 0 0 1 0.0092,-0.00886 0.15119051,0.15119051 0 0 1 0.0097,-0.00797 0.15119051,0.15119051 0 0 1 0.01034,-0.00709 0.15119051,0.15119051 0 0 1 0.01122,-0.0065 0.15119051,0.15119051 0 0 1 0.01151,-0.00531 0.15119051,0.15119051 0 0 1 0.01181,-0.00443 0.15119051,0.15119051 0 0 1 0.0124,-0.00325 0.15119051,0.15119051 0 0 1 0.0124,-0.00236 0.15119051,0.15119051 0 0 1 0.0127,-0.00118 0.15119051,0.15119051 0 0 1 0.0086,-2.963e-4 0.15119051,0.15119051 0 0 1 0.0127,5.886e-4 0.15119051,0.15119051 0 0 1 0.0127,0.00148 0.15119051,0.15119051 0 0 1 0.0124,0.00266 0.15119051,0.15119051 0 0 1 0.01211,0.00384 0.15119051,0.15119051 0 0 1 0.01181,0.00473 0.15119051,0.15119051 0 0 1 0.01151,0.00561 0.15119051,0.15119051 0 0 1 0.01063,0.0065 0.15119051,0.15119051 0 0 1 0.01034,0.00768 0.15119051,0.15119051 0 0 1 0.0097,0.00827 0.15119051,0.15119051 0 0 1 0.0089,0.00915 0.15119051,0.15119051 0 0 1 0.008,0.00974 0.15119051,0.15119051 0 0 1 0.0071,0.010335 0.15119051,0.15119051 0 0 1 0.0065,0.011221 0.15119051,0.15119051 0 0 1 0.0053,0.011517 0.15119051,0.15119051 0 0 1 0.0044,0.011812 0.15119051,0.15119051 0 0 1 0.0033,0.012402 0.15119051,0.15119051 0 0 1 0.0023,0.012402 0.15119051,0.15119051 0 0 1 0.0012,0.012698 0.15119051,0.15119051 0 0 1 3e-4,0.00856 z m 0,0.5291667 a 0.15119051,0.15119051 0 0 1 -5.71e-4,0.012697 0.15119051,0.15119051 0 0 1 -0.0015,0.012698 0.15119051,0.15119051 0 0 1 -0.0026,0.012402 0.15119051,0.15119051 0 0 1 -0.0038,0.012107 0.15119051,0.15119051 0 0 1 -0.0047,0.011813 0.15119051,0.15119051 0 0 1 -0.0056,0.011516 0.15119051,0.15119051 0 0 1 -0.0065,0.01063 0.15119051,0.15119051 0 0 1 -0.0077,0.010335 0.15119051,0.15119051 0 0 1 -0.0083,0.00974 0.15119051,0.15119051 0 0 1 -0.0092,0.00886 0.15119051,0.15119051 0 0 1 -0.0097,0.00797 0.15119051,0.15119051 0 0 1 -0.01034,0.00709 0.15119051,0.15119051 0 0 1 -0.01122,0.0065 0.15119051,0.15119051 0 0 1 -0.01151,0.00531 0.15119051,0.15119051 0 0 1 -0.01181,0.00443 0.15119051,0.15119051 0 0 1 -0.0124,0.00325 0.15119051,0.15119051 0 0 1 -0.0124,0.00237 0.15119051,0.15119051 0 0 1 -0.0127,0.00118 0.15119051,0.15119051 0 0 1 -0.0086,3.023e-4 0.15119051,0.15119051 0 0 1 -0.0127,-5.886e-4 0.15119051,0.15119051 0 0 1 -0.0127,-0.00148 0.15119051,0.15119051 0 0 1 -0.0124,-0.00266 0.15119051,0.15119051 0 0 1 -0.01211,-0.00384 0.15119051,0.15119051 0 0 1 -0.01181,-0.00473 0.15119051,0.15119051 0 0 1 -0.01151,-0.00561 0.15119051,0.15119051 0 0 1 -0.01063,-0.0065 0.15119051,0.15119051 0 0 1 -0.01034,-0.00768 0.15119051,0.15119051 0 0 1 -0.0097,-0.00827 0.15119051,0.15119051 0 0 1 -0.0089,-0.00915 0.15119051,0.15119051 0 0 1 -0.008,-0.00974 0.15119051,0.15119051 0 0 1 -0.0071,-0.010336 0.15119051,0.15119051 0 0 1 -0.0065,-0.011221 0.15119051,0.15119051 0 0 1 -0.0053,-0.011516 0.15119051,0.15119051 0 0 1 -0.0044,-0.011811 0.15119051,0.15119051 0 0 1 -0.0033,-0.012402 0.15119051,0.15119051 0 0 1 -0.0023,-0.012402 0.15119051,0.15119051 0 0 1 -0.0012,-0.012697 0.15119051,0.15119051 0 0 1 -2.99e-4,-0.00856 0.15119051,0.15119051 0 0 1 5.71e-4,-0.012697 0.15119051,0.15119051 0 0 1 0.0015,-0.012698 0.15119051,0.15119051 0 0 1 0.0026,-0.012402 0.15119051,0.15119051 0 0 1 0.0038,-0.012107 0.15119051,0.15119051 0 0 1 0.0047,-0.011813 0.15119051,0.15119051 0 0 1 0.0056,-0.011516 0.15119051,0.15119051 0 0 1 0.0065,-0.01063 0.15119051,0.15119051 0 0 1 0.0077,-0.010335 0.15119051,0.15119051 0 0 1 0.0083,-0.00974 0.15119051,0.15119051 0 0 1 0.0092,-0.00886 0.15119051,0.15119051 0 0 1 0.0097,-0.00797 0.15119051,0.15119051 0 0 1 0.01034,-0.00709 0.15119051,0.15119051 0 0 1 0.01122,-0.0065 0.15119051,0.15119051 0 0 1 0.01151,-0.00531 0.15119051,0.15119051 0 0 1 0.01181,-0.00443 0.15119051,0.15119051 0 0 1 0.0124,-0.00325 0.15119051,0.15119051 0 0 1 0.0124,-0.00236 0.15119051,0.15119051 0 0 1 0.0127,-0.00118 0.15119051,0.15119051 0 0 1 0.0086,-2.963e-4 0.15119051,0.15119051 0 0 1 0.0127,5.885e-4 0.15119051,0.15119051 0 0 1 0.0127,0.00147 0.15119051,0.15119051 0 0 1 0.0124,0.00266 0.15119051,0.15119051 0 0 1 0.01211,0.00384 0.15119051,0.15119051 0 0 1 0.01181,0.00473 0.15119051,0.15119051 0 0 1 0.01151,0.00561 0.15119051,0.15119051 0 0 1 0.01063,0.0065 0.15119051,0.15119051 0 0 1 0.01034,0.00768 0.15119051,0.15119051 0 0 1 0.0097,0.00827 0.15119051,0.15119051 0 0 1 0.0089,0.00915 0.15119051,0.15119051 0 0 1 0.008,0.00974 0.15119051,0.15119051 0 0 1 0.0071,0.010336 0.15119051,0.15119051 0 0 1 0.0065,0.011221 0.15119051,0.15119051 0 0 1 0.0053,0.011516 0.15119051,0.15119051 0 0 1 0.0044,0.011811 0.15119051,0.15119051 0 0 1 0.0033,0.012402 0.15119051,0.15119051 0 0 1 0.0023,0.012402 0.15119051,0.15119051 0 0 1 0.0012,0.012697 0.15119051,0.15119051 0 0 1 2.99e-4,0.00856 z m 0,0.5291665 a 0.15119051,0.15119051 0 0 1 -5.71e-4,0.012697 0.15119051,0.15119051 0 0 1 -0.0015,0.012697 0.15119051,0.15119051 0 0 1 -0.0026,0.012401 0.15119051,0.15119051 0 0 1 -0.0038,0.012109 0.15119051,0.15119051 0 0 1 -0.0047,0.011811 0.15119051,0.15119051 0 0 1 -0.0056,0.011515 0.15119051,0.15119051 0 0 1 -0.0065,0.010629 0.15119051,0.15119051 0 0 1 -0.0077,0.010336 0.15119051,0.15119051 0 0 1 -0.0083,0.00974 0.15119051,0.15119051 0 0 1 -0.0092,0.00886 0.15119051,0.15119051 0 0 1 -0.0097,0.00797 0.15119051,0.15119051 0 0 1 -0.01034,0.00709 0.15119051,0.15119051 0 0 1 -0.01122,0.0065 0.15119051,0.15119051 0 0 1 -0.01151,0.00531 0.15119051,0.15119051 0 0 1 -0.01181,0.0044 0.15119051,0.15119051 0 0 1 -0.0124,0.00326 0.15119051,0.15119051 0 0 1 -0.0124,0.00234 0.15119051,0.15119051 0 0 1 -0.0127,0.00119 0.15119051,0.15119051 0 0 1 -0.0086,3.023e-4 0.15119051,0.15119051 0 0 1 -0.0127,-5.771e-4 0.15119051,0.15119051 0 0 1 -0.0127,-0.00148 0.15119051,0.15119051 0 0 1 -0.0124,-0.00263 0.15119051,0.15119051 0 0 1 -0.01211,-0.00383 0.15119051,0.15119051 0 0 1 -0.01181,-0.00474 0.15119051,0.15119051 0 0 1 -0.01151,-0.0056 0.15119051,0.15119051 0 0 1 -0.01063,-0.0065 0.15119051,0.15119051 0 0 1 -0.01034,-0.00768 0.15119051,0.15119051 0 0 1 -0.0097,-0.00827 0.15119051,0.15119051 0 0 1 -0.0089,-0.00915 0.15119051,0.15119051 0 0 1 -0.008,-0.00974 0.15119051,0.15119051 0 0 1 -0.0071,-0.010337 0.15119051,0.15119051 0 0 1 -0.0065,-0.011223 0.15119051,0.15119051 0 0 1 -0.0053,-0.011515 0.15119051,0.15119051 0 0 1 -0.0044,-0.011811 0.15119051,0.15119051 0 0 1 -0.0033,-0.012401 0.15119051,0.15119051 0 0 1 -0.0023,-0.012401 0.15119051,0.15119051 0 0 1 -0.0012,-0.012697 0.15119051,0.15119051 0 0 1 -2.99e-4,-0.00856 0.15119051,0.15119051 0 0 1 5.71e-4,-0.012697 0.15119051,0.15119051 0 0 1 0.0015,-0.012697 0.15119051,0.15119051 0 0 1 0.0026,-0.012401 0.15119051,0.15119051 0 0 1 0.0038,-0.012109 0.15119051,0.15119051 0 0 1 0.0047,-0.011811 0.15119051,0.15119051 0 0 1 0.0056,-0.011515 0.15119051,0.15119051 0 0 1 0.0065,-0.010628 0.15119051,0.15119051 0 0 1 0.0077,-0.010336 0.15119051,0.15119051 0 0 1 0.0083,-0.00974 0.15119051,0.15119051 0 0 1 0.0092,-0.00886 0.15119051,0.15119051 0 0 1 0.0097,-0.00797 0.15119051,0.15119051 0 0 1 0.01034,-0.00709 0.15119051,0.15119051 0 0 1 0.01122,-0.0065 0.15119051,0.15119051 0 0 1 0.01151,-0.00531 0.15119051,0.15119051 0 0 1 0.01181,-0.00443 0.15119051,0.15119051 0 0 1 0.0124,-0.00325 0.15119051,0.15119051 0 0 1 0.0124,-0.00237 0.15119051,0.15119051 0 0 1 0.0127,-0.00118 0.15119051,0.15119051 0 0 1 0.0086,-3.023e-4 0.15119051,0.15119051 0 0 1 0.0127,5.886e-4 0.15119051,0.15119051 0 0 1 0.0127,0.00148 0.15119051,0.15119051 0 0 1 0.0124,0.00266 0.15119051,0.15119051 0 0 1 0.01211,0.00384 0.15119051,0.15119051 0 0 1 0.01181,0.00473 0.15119051,0.15119051 0 0 1 0.01151,0.00561 0.15119051,0.15119051 0 0 1 0.01063,0.0065 0.15119051,0.15119051 0 0 1 0.01034,0.00768 0.15119051,0.15119051 0 0 1 0.0097,0.00827 0.15119051,0.15119051 0 0 1 0.0089,0.00915 0.15119051,0.15119051 0 0 1 0.008,0.00974 0.15119051,0.15119051 0 0 1 0.0071,0.010335 0.15119051,0.15119051 0 0 1 0.0065,0.011223 0.15119051,0.15119051 0 0 1 0.0053,0.011515 0.15119051,0.15119051 0 0 1 0.0044,0.011811 0.15119051,0.15119051 0 0 1 0.0033,0.012401 0.15119051,0.15119051 0 0 1 0.0023,0.012401 0.15119051,0.15119051 0 0 1 0.0012,0.012697 0.15119051,0.15119051 0 0 1 3e-4,0.00856 z m 0,0.5291669 a 0.15119051,0.15119051 0 0 1 -5.71e-4,0.012697 0.15119051,0.15119051 0 0 1 -0.0015,0.012697 0.15119051,0.15119051 0 0 1 -0.0026,0.012401 0.15119051,0.15119051 0 0 1 -0.0038,0.012109 0.15119051,0.15119051 0 0 1 -0.0047,0.011811 0.15119051,0.15119051 0 0 1 -0.0056,0.011515 0.15119051,0.15119051 0 0 1 -0.0065,0.010629 0.15119051,0.15119051 0 0 1 -0.0077,0.010337 0.15119051,0.15119051 0 0 1 -0.0083,0.00974 0.15119051,0.15119051 0 0 1 -0.0092,0.00886 0.15119051,0.15119051 0 0 1 -0.0097,0.00797 0.15119051,0.15119051 0 0 1 -0.01034,0.00709 0.15119051,0.15119051 0 0 1 -0.01122,0.0065 0.15119051,0.15119051 0 0 1 -0.01151,0.00531 0.15119051,0.15119051 0 0 1 -0.01181,0.00446 0.15119051,0.15119051 0 0 1 -0.0124,0.00326 0.15119051,0.15119051 0 0 1 -0.0124,0.00234 0.15119051,0.15119051 0 0 1 -0.0127,0.00119 0.15119051,0.15119051 0 0 1 -0.0086,3.024e-4 0.15119051,0.15119051 0 0 1 -0.0127,-5.771e-4 0.15119051,0.15119051 0 0 1 -0.0127,-0.00148 0.15119051,0.15119051 0 0 1 -0.0124,-0.00263 0.15119051,0.15119051 0 0 1 -0.01211,-0.00383 0.15119051,0.15119051 0 0 1 -0.01181,-0.00474 0.15119051,0.15119051 0 0 1 -0.01151,-0.0056 0.15119051,0.15119051 0 0 1 -0.01063,-0.0065 0.15119051,0.15119051 0 0 1 -0.01034,-0.00768 0.15119051,0.15119051 0 0 1 -0.0097,-0.00827 0.15119051,0.15119051 0 0 1 -0.0089,-0.00915 0.15119051,0.15119051 0 0 1 -0.008,-0.00974 0.15119051,0.15119051 0 0 1 -0.0071,-0.010337 0.15119051,0.15119051 0 0 1 -0.0065,-0.011223 0.15119051,0.15119051 0 0 1 -0.0053,-0.011515 0.15119051,0.15119051 0 0 1 -0.0044,-0.011811 0.15119051,0.15119051 0 0 1 -0.0033,-0.012401 0.15119051,0.15119051 0 0 1 -0.0023,-0.012401 0.15119051,0.15119051 0 0 1 -0.0012,-0.012697 0.15119051,0.15119051 0 0 1 -2.99e-4,-0.00856 0.15119051,0.15119051 0 0 1 5.71e-4,-0.012697 0.15119051,0.15119051 0 0 1 0.0015,-0.012697 0.15119051,0.15119051 0 0 1 0.0026,-0.012399 0.15119051,0.15119051 0 0 1 0.0038,-0.012109 0.15119051,0.15119051 0 0 1 0.0047,-0.011811 0.15119051,0.15119051 0 0 1 0.0056,-0.011515 0.15119051,0.15119051 0 0 1 0.0065,-0.010629 0.15119051,0.15119051 0 0 1 0.0077,-0.010337 0.15119051,0.15119051 0 0 1 0.0083,-0.00974 0.15119051,0.15119051 0 0 1 0.0092,-0.00886 0.15119051,0.15119051 0 0 1 0.0097,-0.00797 0.15119051,0.15119051 0 0 1 0.01034,-0.00709 0.15119051,0.15119051 0 0 1 0.01122,-0.0065 0.15119051,0.15119051 0 0 1 0.01151,-0.00531 0.15119051,0.15119051 0 0 1 0.01181,-0.0044 0.15119051,0.15119051 0 0 1 0.0124,-0.00326 0.15119051,0.15119051 0 0 1 0.0124,-0.00234 0.15119051,0.15119051 0 0 1 0.0127,-0.00119 0.15119051,0.15119051 0 0 1 0.0086,-3.024e-4 0.15119051,0.15119051 0 0 1 0.0127,5.772e-4 0.15119051,0.15119051 0 0 1 0.0127,0.00148 0.15119051,0.15119051 0 0 1 0.0124,0.00263 0.15119051,0.15119051 0 0 1 0.01211,0.00383 0.15119051,0.15119051 0 0 1 0.01181,0.00474 0.15119051,0.15119051 0 0 1 0.01151,0.0056 0.15119051,0.15119051 0 0 1 0.01063,0.0065 0.15119051,0.15119051 0 0 1 0.01034,0.00767 0.15119051,0.15119051 0 0 1 0.0097,0.00827 0.15119051,0.15119051 0 0 1 0.0089,0.00915 0.15119051,0.15119051 0 0 1 0.008,0.00974 0.15119051,0.15119051 0 0 1 0.0071,0.010337 0.15119051,0.15119051 0 0 1 0.0065,0.011223 0.15119051,0.15119051 0 0 1 0.0053,0.011515 0.15119051,0.15119051 0 0 1 0.0044,0.011811 0.15119051,0.15119051 0 0 1 0.0033,0.012401 0.15119051,0.15119051 0 0 1 0.0023,0.012401 0.15119051,0.15119051 0 0 1 0.0012,0.012697 0.15119051,0.15119051 0 0 1 2.99e-4,0.00856 z m 0,0.5291669 a 0.15119051,0.15119051 0 0 1 -5.71e-4,0.012697 0.15119051,0.15119051 0 0 1 -0.0015,0.012697 0.15119051,0.15119051 0 0 1 -0.0026,0.012399 0.15119051,0.15119051 0 0 1 -0.0038,0.012109 0.15119051,0.15119051 0 0 1 -0.0047,0.011811 0.15119051,0.15119051 0 0 1 -0.0056,0.011515 0.15119051,0.15119051 0 0 1 -0.0065,0.010629 0.15119051,0.15119051 0 0 1 -0.0077,0.010337 0.15119051,0.15119051 0 0 1 -0.0083,0.00974 0.15119051,0.15119051 0 0 1 -0.0092,0.00886 0.15119051,0.15119051 0 0 1 -0.0097,0.00797 0.15119051,0.15119051 0 0 1 -0.01034,0.00709 0.15119051,0.15119051 0 0 1 -0.01122,0.0065 0.15119051,0.15119051 0 0 1 -0.01151,0.00531 0.15119051,0.15119051 0 0 1 -0.01181,0.00446 0.15119051,0.15119051 0 0 1 -0.0124,0.00326 0.15119051,0.15119051 0 0 1 -0.0124,0.00234 0.15119051,0.15119051 0 0 1 -0.0127,0.00119 0.15119051,0.15119051 0 0 1 -0.0086,3.024e-4 0.15119051,0.15119051 0 0 1 -0.0127,-5.772e-4 0.15119051,0.15119051 0 0 1 -0.0127,-0.00148 0.15119051,0.15119051 0 0 1 -0.0124,-0.00263 0.15119051,0.15119051 0 0 1 -0.01211,-0.00383 0.15119051,0.15119051 0 0 1 -0.01181,-0.00474 0.15119051,0.15119051 0 0 1 -0.01151,-0.0056 0.15119051,0.15119051 0 0 1 -0.01063,-0.0065 0.15119051,0.15119051 0 0 1 -0.01034,-0.00768 0.15119051,0.15119051 0 0 1 -0.0097,-0.00827 0.15119051,0.15119051 0 0 1 -0.0089,-0.00915 0.15119051,0.15119051 0 0 1 -0.008,-0.00974 0.15119051,0.15119051 0 0 1 -0.0071,-0.010337 0.15119051,0.15119051 0 0 1 -0.0065,-0.011223 0.15119051,0.15119051 0 0 1 -0.0053,-0.011515 0.15119051,0.15119051 0 0 1 -0.0044,-0.011811 0.15119051,0.15119051 0 0 1 -0.0033,-0.012401 0.15119051,0.15119051 0 0 1 -0.0023,-0.012401 0.15119051,0.15119051 0 0 1 -0.0012,-0.012697 0.15119051,0.15119051 0 0 1 -2.99e-4,-0.00856 0.15119051,0.15119051 0 0 1 5.71e-4,-0.012697 0.15119051,0.15119051 0 0 1 0.0015,-0.012697 0.15119051,0.15119051 0 0 1 0.0026,-0.012405 0.15119051,0.15119051 0 0 1 0.0038,-0.012108 0.15119051,0.15119051 0 0 1 0.0047,-0.011811 0.15119051,0.15119051 0 0 1 0.0056,-0.011515 0.15119051,0.15119051 0 0 1 0.0065,-0.010629 0.15119051,0.15119051 0 0 1 0.0077,-0.010337 0.15119051,0.15119051 0 0 1 0.0083,-0.00974 0.15119051,0.15119051 0 0 1 0.0092,-0.00886 0.15119051,0.15119051 0 0 1 0.0097,-0.00797 0.15119051,0.15119051 0 0 1 0.01034,-0.00709 0.15119051,0.15119051 0 0 1 0.01122,-0.0065 0.15119051,0.15119051 0 0 1 0.01151,-0.00531 0.15119051,0.15119051 0 0 1 0.01181,-0.0044 0.15119051,0.15119051 0 0 1 0.0124,-0.00326 0.15119051,0.15119051 0 0 1 0.0124,-0.00234 0.15119051,0.15119051 0 0 1 0.0127,-0.00119 0.15119051,0.15119051 0 0 1 0.0086,-3.024e-4 0.15119051,0.15119051 0 0 1 0.0127,5.772e-4 0.15119051,0.15119051 0 0 1 0.0127,0.00148 0.15119051,0.15119051 0 0 1 0.0124,0.00263 0.15119051,0.15119051 0 0 1 0.01211,0.00383 0.15119051,0.15119051 0 0 1 0.01181,0.00474 0.15119051,0.15119051 0 0 1 0.01151,0.0056 0.15119051,0.15119051 0 0 1 0.01063,0.0065 0.15119051,0.15119051 0 0 1 0.01034,0.00767 0.15119051,0.15119051 0 0 1 0.0097,0.00827 0.15119051,0.15119051 0 0 1 0.0089,0.00915 0.15119051,0.15119051 0 0 1 0.008,0.00974 0.15119051,0.15119051 0 0 1 0.0071,0.010337 0.15119051,0.15119051 0 0 1 0.0065,0.011223 0.15119051,0.15119051 0 0 1 0.0053,0.011515 0.15119051,0.15119051 0 0 1 0.0044,0.011811 0.15119051,0.15119051 0 0 1 0.0033,0.012401 0.15119051,0.15119051 0 0 1 0.0023,0.012401 0.15119051,0.15119051 0 0 1 0.0012,0.012697 0.15119051,0.15119051 0 0 1 3e-4,0.00856 z m 0,0.5291663 a 0.15119051,0.15119051 0 0 1 -5.71e-4,0.012697 0.15119051,0.15119051 0 0 1 -0.0015,0.012697 0.15119051,0.15119051 0 0 1 -0.0026,0.012401 0.15119051,0.15119051 0 0 1 -0.0038,0.012109 0.15119051,0.15119051 0 0 1 -0.0047,0.011811 0.15119051,0.15119051 0 0 1 -0.0056,0.011515 0.15119051,0.15119051 0 0 1 -0.0065,0.010629 0.15119051,0.15119051 0 0 1 -0.0077,0.010337 0.15119051,0.15119051 0 0 1 -0.0083,0.00974 0.15119051,0.15119051 0 0 1 -0.0092,0.00886 0.15119051,0.15119051 0 0 1 -0.0097,0.00797 0.15119051,0.15119051 0 0 1 -0.01034,0.00709 0.15119051,0.15119051 0 0 1 -0.01122,0.0065 0.15119051,0.15119051 0 0 1 -0.01151,0.00531 0.15119051,0.15119051 0 0 1 -0.01181,0.0044 0.15119051,0.15119051 0 0 1 -0.0124,0.00326 0.15119051,0.15119051 0 0 1 -0.0124,0.00234 0.15119051,0.15119051 0 0 1 -0.0127,0.00119 0.15119051,0.15119051 0 0 1 -0.0086,3.023e-4 0.15119051,0.15119051 0 0 1 -0.0127,-5.771e-4 0.15119051,0.15119051 0 0 1 -0.0127,-0.00148 0.15119051,0.15119051 0 0 1 -0.0124,-0.00263 0.15119051,0.15119051 0 0 1 -0.01211,-0.00383 0.15119051,0.15119051 0 0 1 -0.01181,-0.00474 0.15119051,0.15119051 0 0 1 -0.01151,-0.0056 0.15119051,0.15119051 0 0 1 -0.01063,-0.0065 0.15119051,0.15119051 0 0 1 -0.01034,-0.00768 0.15119051,0.15119051 0 0 1 -0.0097,-0.00827 0.15119051,0.15119051 0 0 1 -0.0089,-0.00915 0.15119051,0.15119051 0 0 1 -0.008,-0.00974 0.15119051,0.15119051 0 0 1 -0.0071,-0.010337 0.15119051,0.15119051 0 0 1 -0.0065,-0.011223 0.15119051,0.15119051 0 0 1 -0.0053,-0.011515 0.15119051,0.15119051 0 0 1 -0.0044,-0.011811 0.15119051,0.15119051 0 0 1 -0.0033,-0.012401 0.15119051,0.15119051 0 0 1 -0.0023,-0.012401 0.15119051,0.15119051 0 0 1 -0.0012,-0.012697 0.15119051,0.15119051 0 0 1 -2.99e-4,-0.00856 0.15119051,0.15119051 0 0 1 5.71e-4,-0.012697 0.15119051,0.15119051 0 0 1 0.0015,-0.012697 0.15119051,0.15119051 0 0 1 0.0026,-0.012401 0.15119051,0.15119051 0 0 1 0.0038,-0.012109 0.15119051,0.15119051 0 0 1 0.0047,-0.011811 0.15119051,0.15119051 0 0 1 0.0056,-0.011515 0.15119051,0.15119051 0 0 1 0.0065,-0.010629 0.15119051,0.15119051 0 0 1 0.0077,-0.010337 0.15119051,0.15119051 0 0 1 0.0083,-0.00974 0.15119051,0.15119051 0 0 1 0.0092,-0.00886 0.15119051,0.15119051 0 0 1 0.0097,-0.00797 0.15119051,0.15119051 0 0 1 0.01034,-0.00709 0.15119051,0.15119051 0 0 1 0.01122,-0.0065 0.15119051,0.15119051 0 0 1 0.01151,-0.00531 0.15119051,0.15119051 0 0 1 0.01181,-0.0044 0.15119051,0.15119051 0 0 1 0.0124,-0.00326 0.15119051,0.15119051 0 0 1 0.0124,-0.00234 0.15119051,0.15119051 0 0 1 0.0127,-0.00119 0.15119051,0.15119051 0 0 1 0.0086,-3.023e-4 0.15119051,0.15119051 0 0 1 0.0127,5.771e-4 0.15119051,0.15119051 0 0 1 0.0127,0.00148 0.15119051,0.15119051 0 0 1 0.0124,0.00269 0.15119051,0.15119051 0 0 1 0.01211,0.00383 0.15119051,0.15119051 0 0 1 0.01181,0.00474 0.15119051,0.15119051 0 0 1 0.01151,0.0056 0.15119051,0.15119051 0 0 1 0.01063,0.0065 0.15119051,0.15119051 0 0 1 0.01034,0.00768 0.15119051,0.15119051 0 0 1 0.0097,0.00827 0.15119051,0.15119051 0 0 1 0.0089,0.00915 0.15119051,0.15119051 0 0 1 0.008,0.00974 0.15119051,0.15119051 0 0 1 0.0071,0.010337 0.15119051,0.15119051 0 0 1 0.0065,0.011223 0.15119051,0.15119051 0 0 1 0.0053,0.011515 0.15119051,0.15119051 0 0 1 0.0044,0.011811 0.15119051,0.15119051 0 0 1 0.0033,0.012401 0.15119051,0.15119051 0 0 1 0.0023,0.012401 0.15119051,0.15119051 0 0 1 0.0012,0.012697 0.15119051,0.15119051 0 0 1 2.99e-4,0.00856 z m 0,0.529167 a 0.15119051,0.15119051 0 0 1 -5.71e-4,0.012697 0.15119051,0.15119051 0 0 1 -0.0015,0.012697 0.15119051,0.15119051 0 0 1 -0.0026,0.012401 0.15119051,0.15119051 0 0 1 -0.0038,0.012109 0.15119051,0.15119051 0 0 1 -0.0047,0.011811 0.15119051,0.15119051 0 0 1 -0.0056,0.011515 0.15119051,0.15119051 0 0 1 -0.0065,0.010629 0.15119051,0.15119051 0 0 1 -0.0077,0.010337 0.15119051,0.15119051 0 0 1 -0.0083,0.00974 0.15119051,0.15119051 0 0 1 -0.0092,0.00886 0.15119051,0.15119051 0 0 1 -0.0097,0.00797 0.15119051,0.15119051 0 0 1 -0.01034,0.00709 0.15119051,0.15119051 0 0 1 -0.01122,0.0065 0.15119051,0.15119051 0 0 1 -0.01151,0.00531 0.15119051,0.15119051 0 0 1 -0.01181,0.0044 0.15119051,0.15119051 0 0 1 -0.0124,0.00326 0.15119051,0.15119051 0 0 1 -0.0124,0.00234 0.15119051,0.15119051 0 0 1 -0.0127,0.00119 0.15119051,0.15119051 0 0 1 -0.0086,3.023e-4 0.15119051,0.15119051 0 0 1 -0.0127,-5.771e-4 0.15119051,0.15119051 0 0 1 -0.0127,-0.00148 0.15119051,0.15119051 0 0 1 -0.0124,-0.00263 0.15119051,0.15119051 0 0 1 -0.01211,-0.00383 0.15119051,0.15119051 0 0 1 -0.01181,-0.00474 0.15119051,0.15119051 0 0 1 -0.01151,-0.0056 0.15119051,0.15119051 0 0 1 -0.01063,-0.0065 0.15119051,0.15119051 0 0 1 -0.01034,-0.00768 0.15119051,0.15119051 0 0 1 -0.0097,-0.00827 0.15119051,0.15119051 0 0 1 -0.0089,-0.00915 0.15119051,0.15119051 0 0 1 -0.008,-0.00974 0.15119051,0.15119051 0 0 1 -0.0071,-0.010337 0.15119051,0.15119051 0 0 1 -0.0065,-0.011223 0.15119051,0.15119051 0 0 1 -0.0053,-0.011515 0.15119051,0.15119051 0 0 1 -0.0044,-0.011811 0.15119051,0.15119051 0 0 1 -0.0033,-0.012401 0.15119051,0.15119051 0 0 1 -0.0023,-0.012401 0.15119051,0.15119051 0 0 1 -0.0012,-0.012697 0.15119051,0.15119051 0 0 1 -2.99e-4,-0.00856 0.15119051,0.15119051 0 0 1 5.71e-4,-0.012697 0.15119051,0.15119051 0 0 1 0.0015,-0.012697 0.15119051,0.15119051 0 0 1 0.0026,-0.012405 0.15119051,0.15119051 0 0 1 0.0038,-0.012109 0.15119051,0.15119051 0 0 1 0.0047,-0.011811 0.15119051,0.15119051 0 0 1 0.0056,-0.011515 0.15119051,0.15119051 0 0 1 0.0065,-0.010628 0.15119051,0.15119051 0 0 1 0.0077,-0.010337 0.15119051,0.15119051 0 0 1 0.0083,-0.00974 0.15119051,0.15119051 0 0 1 0.0092,-0.00886 0.15119051,0.15119051 0 0 1 0.0097,-0.00797 0.15119051,0.15119051 0 0 1 0.01034,-0.00709 0.15119051,0.15119051 0 0 1 0.01122,-0.0065 0.15119051,0.15119051 0 0 1 0.01151,-0.00531 0.15119051,0.15119051 0 0 1 0.01181,-0.0044 0.15119051,0.15119051 0 0 1 0.0124,-0.00326 0.15119051,0.15119051 0 0 1 0.0124,-0.00234 0.15119051,0.15119051 0 0 1 0.0127,-0.00119 0.15119051,0.15119051 0 0 1 0.0086,-3.024e-4 0.15119051,0.15119051 0 0 1 0.0127,5.771e-4 0.15119051,0.15119051 0 0 1 0.0127,0.00148 0.15119051,0.15119051 0 0 1 0.0124,0.00263 0.15119051,0.15119051 0 0 1 0.01211,0.00383 0.15119051,0.15119051 0 0 1 0.01181,0.00474 0.15119051,0.15119051 0 0 1 0.01151,0.0056 0.15119051,0.15119051 0 0 1 0.01063,0.0065 0.15119051,0.15119051 0 0 1 0.01034,0.00768 0.15119051,0.15119051 0 0 1 0.0097,0.00827 0.15119051,0.15119051 0 0 1 0.0089,0.00915 0.15119051,0.15119051 0 0 1 0.008,0.00974 0.15119051,0.15119051 0 0 1 0.0071,0.010337 0.15119051,0.15119051 0 0 1 0.0065,0.011223 0.15119051,0.15119051 0 0 1 0.0053,0.011515 0.15119051,0.15119051 0 0 1 0.0044,0.011811 0.15119051,0.15119051 0 0 1 0.0033,0.012401 0.15119051,0.15119051 0 0 1 0.0023,0.012401 0.15119051,0.15119051 0 0 1 0.0012,0.012697 0.15119051,0.15119051 0 0 1 3e-4,0.00856 z" />
    <path
       inkscape:connector-curvature="0"
       id="path1175"
       d="M 2.4190477,3.1372023 V 5.8586307 L 6.0476191,3.1372023 Z"
       style="fill:none;stroke:none;stroke-width:0.15119px;stroke-linecap:butt;stroke-linejoin:miter;stroke-opacity:1" />
    <path
       id="path1018-6"
       style="fill:url(#linearGradient1074);fill-opacity:1;stroke:none;stroke-width:0.078472"
       d="M 3.0238097,3.5529763 V 5.9720241 H 5.4428571 V 3.5529763 Z" />
    <path
       id="path1018-6-1"
       style="fill:url(#linearGradient1082);fill-opacity:1;stroke:none;stroke-width:0.0392361"
       d="m 3.0238097,3.2505953 v -0.604762 h 2.4190474 v 0.604762 z" />
    <g
       aria-label="ABC"
       id="text846"
       style="font-size:10.5833px;line-height:1.25;font-family:Digital-7;-inkscape-font-specification:Digital-7;fill:#000000;fill-opacity:1;stroke-width:0.264583"
       transform="matrix(0.09920109,0,0,0.09920109,2.7075607,4.8856915)">
      <path
         inkscape:connector-curvature="0"
         d="M 10.721989,6.1478696 9.8900006,4.0188074 H 6.5723842 L 5.7352287,6.1478696 H 4.7120386 L 7.683424,-1.1333165 h 1.121375 l 2.924877,7.2811861 z M 8.2311924,-0.38917828 8.1846838,-0.24448473 Q 8.0554931,0.18442829 7.8022794,0.85621977 L 6.8721066,3.248831 H 9.5954459 L 8.6601055,0.84588451 Q 8.5154119,0.48931827 8.3707184,0.03973474 Z"
         style="font-style:normal;font-variant:normal;font-weight:normal;font-stretch:normal;font-family:'Liberation Sans';-inkscape-font-specification:'Liberation Sans';fill:#000000;fill-opacity:1;stroke-width:0.264583"
         id="path848" />
      <path
         inkscape:connector-curvature="0"
         d="m 18.251221,4.0963218 q 0,0.9715138 -0.707965,1.5141146 -0.707965,0.5374332 -1.968866,0.5374332 h -2.955883 v -7.2811861 h 2.645825 q 2.563143,0 2.563143,1.76732832 0,0.64595338 -0.361734,1.08520158 -0.361733,0.4392483 -1.02319,0.5891095 0.868162,0.1033525 1.338416,0.5839418 0.470254,0.4754217 0.470254,1.2040571 z m -1.41593,-3.34345457 q 0,-0.58910945 -0.403075,-0.84232316 -0.403075,-0.25321371 -1.167884,-0.25321371 H 13.605524 V 1.9620919 h 1.658808 q 0.790647,0 1.178219,-0.2945547 0.39274,-0.2997224 0.39274,-0.91466997 z m 0.418578,3.26594017 q 0,-1.2867391 -1.80867,-1.2867391 h -1.839675 v 2.6251544 h 1.91719 q 0.904334,0 1.317745,-0.3358958 0.41341,-0.3358957 0.41341,-1.0025195 z"
         style="font-style:normal;font-variant:normal;font-weight:normal;font-stretch:normal;font-family:'Liberation Sans';-inkscape-font-specification:'Liberation Sans';fill:#000000;fill-opacity:1;stroke-width:0.264583"
         id="path850" />
      <path
         inkscape:connector-curvature="0"
         d="m 22.902085,-0.43568693 q -1.209225,0 -1.881016,0.78031165 -0.671792,0.77514398 -0.671792,2.12906218 0,1.3384154 0.69763,2.1549004 0.702797,0.8113174 1.896519,0.8113174 1.529617,0 2.299594,-1.5141146 l 0.806149,0.4030749 q -0.449583,0.940508 -1.266068,1.4314326 -0.811318,0.4909245 -1.886184,0.4909245 -1.100704,0 -1.906854,-0.4547511 Q 20.189081,5.3365522 19.765335,4.4890614 19.346757,3.636403 19.346757,2.4736869 q 0,-1.74149017 0.940509,-2.72850689 0.940508,-0.98701671 2.604483,-0.98701671 1.162716,0 1.943028,0.45475115 0.780312,0.45475116 1.147213,1.34875059 l -0.93534,0.31005761 q -0.253214,-0.63561809 -0.816485,-0.97151383 -0.558104,-0.33589575 -1.32808,-0.33589575 z"
         style="font-style:normal;font-variant:normal;font-weight:normal;font-stretch:normal;font-family:'Liberation Sans';-inkscape-font-specification:'Liberation Sans';fill:#000000;fill-opacity:1;stroke-width:0.264583"
         id="path852" />
    </g>
    <path
       id="path1018-6-1-8"
       style="fill:url(#linearGradient1096);fill-opacity:1;stroke:none;stroke-width:0.0392361"
       d="m 3.0238097,6.8791671 v -0.604762 h 2.4190474 v 0.604762 z" />
  </g>
</svg>
