<?xml version="1.0" encoding="UTF-8" standalone="no"?>
<svg
   xmlns:dc="http://purl.org/dc/elements/1.1/"
   xmlns:cc="http://creativecommons.org/ns#"
   xmlns:rdf="http://www.w3.org/1999/02/22-rdf-syntax-ns#"
   xmlns:svg="http://www.w3.org/2000/svg"
   xmlns="http://www.w3.org/2000/svg"
   xmlns:sodipodi="http://sodipodi.sourceforge.net/DTD/sodipodi-0.dtd"
   xmlns:inkscape="http://www.inkscape.org/namespaces/inkscape"
   sodipodi:docname="application-x-desktop.svg"
   inkscape:version="1.0.1 (3bc2e813f5, 2020-09-07)"
   id="svg8"
   version="1.1"
   viewBox="0 0 8.4666665 8.4666669"
   height="32"
   width="32">
  <defs
     id="defs2">
    <filter
       inkscape:collect="always"
       style="color-interpolation-filters:sRGB"
       id="filter33189"
       x="-0.081249999"
       width="1.1625"
       y="-0.069642858"
       height="1.1392857">
      <feGaussianBlur
         inkscape:collect="always"
         stdDeviation="0.21497395"
         id="feGaussianBlur33191" />
    </filter>
  </defs>
  <sodipodi:namedview
     inkscape:window-maximized="1"
     inkscape:window-y="0"
     inkscape:window-x="0"
     inkscape:window-height="1000"
     inkscape:window-width="1920"
     units="px"
     showgrid="false"
     inkscape:document-rotation="0"
     inkscape:current-layer="layer1"
     inkscape:document-units="px"
     inkscape:cy="16.245823"
     inkscape:cx="-2.1715587"
     inkscape:zoom="9.0045629"
     inkscape:pageshadow="2"
     inkscape:pageopacity="0.0"
     borderopacity="1.0"
     bordercolor="#666666"
     pagecolor="#ffffff"
     id="base" />
  <metadata
     id="metadata5">
    <rdf:RDF>
      <cc:Work
         rdf:about="">
        <dc:format>image/svg+xml</dc:format>
        <dc:type
           rdf:resource="http://purl.org/dc/dcmitype/StillImage" />
        <dc:title />
      </cc:Work>
    </rdf:RDF>
  </metadata>
  <g
     id="layer1"
     inkscape:groupmode="layer"
     inkscape:label="Capa 1">
    <path
       style="opacity:0.5;fill:#000000;fill-opacity:1;stroke:none;stroke-width:2.29352999;filter:url(#filter33189)"
       d="M 1.0583334,0.5291668 V 7.9374999 H 7.4083333 V 2.1166666 l -1.5875,-1.5874998 z"
       id="path926-2"
       inkscape:connector-curvature="0" />
    <path
       style="opacity:1;fill:#f5f5f5;fill-opacity:1;stroke:none;stroke-width:2.29352999"
       d="M 1.0583334,0.52916675 V 7.9374999 H 7.4083333 V 2.1166666 l -1.5875,-1.58749985 z"
       id="path926"
       inkscape:connector-curvature="0" />
    <path
       inkscape:connector-curvature="0"
       style="opacity:0.2;fill:#000000;fill-opacity:1;stroke:none;stroke-width:2.29352999"
       d="M 5.8208333,0.52916675 V 2.1166669 h 1.5875 z"
       id="path926-1" />
    <path
       inkscape:connector-curvature="0"
       id="path4"
       d="M 4.1223392,6.82625 C 3.876445,6.82625 3.6785176,6.6280342 3.6785176,6.3817812 V 6.1734219 A 1.6644476,1.6668751 0 0 1 3.1535788,5.8697194 L 2.9732329,5.973899 C 2.7602817,6.0970255 2.4898143,6.0243797 2.3668669,5.8111184 L 2.2558729,5.6188819 C 2.1329258,5.4056203 2.2054658,5.1347587 2.4184168,5.0116322 L 2.5979889,4.9077626 A 1.6644476,1.6668751 0 0 1 2.5688853,4.60375 1.6644476,1.6668751 0 0 1 2.5979889,4.2997377 L 2.4184168,4.1958678 C 2.2054658,4.0727413 2.1329258,3.8018797 2.2558729,3.5886184 L 2.3668669,3.3963819 C 2.4898143,3.1831203 2.7602817,3.1104748 2.9732329,3.2336013 L 3.1523402,3.3371608 A 1.6644476,1.6668751 0 0 1 3.6785176,3.0345436 V 2.8257191 c 0,-0.246253 0.1979274,-0.4444691 0.4438216,-0.4444691 h 0.2219884 c 0.2458945,0 0.4438216,0.1982161 0.4438216,0.4444691 V 3.0353185 A 1.6644476,1.6668751 0 0 1 5.3130878,3.3377807 L 5.4934342,3.2336013 C 5.7063848,3.1104748 5.9768523,3.1831203 6.0997996,3.3963819 L 6.2107937,3.5886184 C 6.3337408,3.8018797 6.2612005,4.0727413 6.0482498,4.1958678 L 5.8686776,4.2997377 A 1.6644476,1.6668751 0 0 1 5.8977806,4.60375 1.6644476,1.6668751 0 0 1 5.8686776,4.9077626 l 0.1795722,0.1038696 c 0.212951,0.1231265 0.285491,0.3939881 0.1625439,0.6072497 L 6.0997996,5.8111184 C 5.9768523,6.0243797 5.7063848,6.0970255 5.4934342,5.973899 L 5.3143263,5.8703393 A 1.6644476,1.6668751 0 0 1 4.7881492,6.1731118 v 0.2086694 c 0,0.246253 -0.1979271,0.4444688 -0.4438216,0.4444688 z M 4.2333333,5.556095 c 0.5252696,0 0.951113,-0.4264642 0.951113,-0.9525 0,-0.5260356 -0.4258434,-0.952345 -0.951113,-0.952345 -0.5252696,0 -0.9511128,0.4263094 -0.9511128,0.952345 0,0.5260358 0.4258432,0.9525 0.9511128,0.9525 z"
       style="opacity:0.5;fill:#000000;fill-opacity:1;stroke-width:0.0793171" />
  </g>
</svg>
