<?xml version="1.0" encoding="UTF-8" standalone="no"?>
<svg
   xmlns:dc="http://purl.org/dc/elements/1.1/"
   xmlns:cc="http://creativecommons.org/ns#"
   xmlns:rdf="http://www.w3.org/1999/02/22-rdf-syntax-ns#"
   xmlns:svg="http://www.w3.org/2000/svg"
   xmlns="http://www.w3.org/2000/svg"
   xmlns:xlink="http://www.w3.org/1999/xlink"
   xmlns:sodipodi="http://sodipodi.sourceforge.net/DTD/sodipodi-0.dtd"
   xmlns:inkscape="http://www.inkscape.org/namespaces/inkscape"
   sodipodi:docname="application-rar.svg"
   inkscape:version="1.0.1 (3bc2e813f5, 2020-09-07)"
   id="svg8"
   version="1.1"
   viewBox="0 0 8.4666665 8.4666669"
   height="32"
   width="32">
  <defs
     id="defs2">
    <linearGradient
       inkscape:collect="always"
       id="linearGradient842">
      <stop
         style="stop-color:#ecd7c5;stop-opacity:1"
         offset="0"
         id="stop838" />
      <stop
         id="stop846"
         offset="0.72917265"
         style="stop-color:#ecd7c5;stop-opacity:1" />
      <stop
         style="stop-color:#e4c5aa;stop-opacity:1"
         offset="0.72917265"
         id="stop848" />
      <stop
         style="stop-color:#e4c5aa;stop-opacity:1"
         offset="1"
         id="stop840" />
    </linearGradient>
    <linearGradient
       inkscape:collect="always"
       xlink:href="#linearGradient842"
       id="linearGradient844"
       x1="4.2306323"
       y1="0.53192043"
       x2="4.2281427"
       y2="7.9494543"
       gradientUnits="userSpaceOnUse"
       spreadMethod="pad"
       gradientTransform="translate(0,-8.4666667)" />
    <filter
       inkscape:collect="always"
       style="color-interpolation-filters:sRGB"
       id="filter857"
       x="-0.075"
       width="1.15"
       y="-0.075"
       height="1.15">
      <feGaussianBlur
         inkscape:collect="always"
         stdDeviation="0.23151042"
         id="feGaussianBlur859" />
    </filter>
  </defs>
  <sodipodi:namedview
     inkscape:window-maximized="1"
     inkscape:window-y="0"
     inkscape:window-x="0"
     inkscape:window-height="1000"
     inkscape:window-width="1920"
     units="px"
     showgrid="false"
     inkscape:document-rotation="0"
     inkscape:current-layer="layer1"
     inkscape:document-units="px"
     inkscape:cy="20.064245"
     inkscape:cx="13.153374"
     inkscape:zoom="25.46875"
     inkscape:pageshadow="2"
     inkscape:pageopacity="0.0"
     borderopacity="1.0"
     bordercolor="#666666"
     pagecolor="#ffffff"
     id="base" />
  <metadata
     id="metadata5">
    <rdf:RDF>
      <cc:Work
         rdf:about="">
        <dc:format>image/svg+xml</dc:format>
        <dc:type
           rdf:resource="http://purl.org/dc/dcmitype/StillImage" />
        <dc:title />
      </cc:Work>
    </rdf:RDF>
  </metadata>
  <g
     id="layer1"
     inkscape:groupmode="layer"
     inkscape:label="Capa 1">
    <rect
       transform="matrix(1,0,0,-1,-6.6531609,0.32536061)"
       style="opacity:0.5;mix-blend-mode:normal;fill:#000000;fill-opacity:1;stroke:none;stroke-width:2.4773;filter:url(#filter857)"
       id="rect833-7"
       width="7.4083333"
       height="7.4083333"
       x="7.1823277"
       y="-7.6121392"
       rx="0.52073359"
       ry="0.52073359" />
    <rect
       y="-7.9375"
       x="0.5291667"
       height="7.4083333"
       width="7.4083333"
       id="rect833"
       style="opacity:1;fill:url(#linearGradient844);fill-opacity:1;stroke:none;stroke-width:2.4773"
       transform="scale(1,-1)"
       rx="0.53438455"
       ry="0.53438455" />
    <rect
       style="opacity:0.5;fill:#ffffff;fill-opacity:1;stroke-width:1.45149"
       id="rect850"
       width="1.0583334"
       height="3.175"
       x="3.7041667"
       y="0.5291667" />
    <rect
       ry="0.33243355"
       rx="0.33243355"
       style="opacity:1;fill:#b265cb;fill-opacity:1;stroke:none;stroke-width:1.00098002"
       id="rect833-9"
       width="4.2333336"
       height="2.1166668"
       x="3.175"
       y="5.2916665" />
    <path
       sodipodi:type="inkscape:offset"
       inkscape:radius="0"
       inkscape:original="M -0.8671875 -1.4511719 L -0.8671875 6.2636719 L 1.1230469 6.2636719 L 1.1230469 3.34375 L 1.6855469 3.34375 C 2.0093858 3.34375 2.2680122 3.4153917 2.4609375 3.5566406 C 2.6573079 3.6978895 2.8495823 3.9618056 3.0390625 4.3476562 L 3.9804688 6.2636719 L 6.0996094 6.2636719 L 5.0195312 4.0722656 C 4.7990451 3.6278483 4.5803223 3.2971191 4.3632812 3.0800781 C 4.1496853 2.859592 3.904975 2.7202148 3.6328125 2.6582031 C 4.1289062 2.5031738 4.4995389 2.2608778 4.7441406 1.9335938 C 4.9921875 1.6063097 5.1171875 1.1876085 5.1171875 0.67773438 C 5.1171875 -0.059516037 4.87972 -0.59838868 4.4042969 -0.93945312 C 3.9323188 -1.2805176 3.1881781 -1.4511719 2.171875 -1.4511719 L -0.8671875 -1.4511719 z M 9.2207031 -1.4511719 L 6.3613281 6.2636719 L 8.3613281 6.2636719 L 8.8535156 4.859375 L 11.964844 4.859375 L 12.449219 6.2636719 L 14.449219 6.2636719 L 11.591797 -1.4511719 L 9.2207031 -1.4511719 z M 15.472656 -1.4511719 L 15.472656 6.2636719 L 17.462891 6.2636719 L 17.462891 3.34375 L 18.025391 3.34375 C 18.34923 3.34375 18.607856 3.4153917 18.800781 3.5566406 C 18.997152 3.6978895 19.189426 3.9618056 19.378906 4.3476562 L 20.320312 6.2636719 L 22.439453 6.2636719 L 21.359375 4.0722656 C 21.138889 3.6278483 20.920166 3.2971191 20.703125 3.0800781 C 20.489529 2.859592 20.246772 2.7202148 19.974609 2.6582031 C 20.470703 2.5031738 20.839383 2.2608778 21.083984 1.9335938 C 21.332031 1.6063097 21.457031 1.1876085 21.457031 0.67773438 C 21.457031 -0.059516037 21.219564 -0.59838868 20.744141 -0.93945312 C 20.272163 -1.2805176 19.528022 -1.4511719 18.511719 -1.4511719 L 15.472656 -1.4511719 z M 1.1230469 -0.009765625 L 1.9589844 -0.009765625 C 2.3758409 -0.009765625 2.6743707 0.067165803 2.8535156 0.21875 C 3.0361057 0.3703342 3.1269531 0.62125652 3.1269531 0.97265625 C 3.1269531 1.3275011 3.0361057 1.583252 2.8535156 1.7382812 C 2.6743707 1.8933105 2.3758409 1.9707031 1.9589844 1.9707031 L 1.1230469 1.9707031 L 1.1230469 -0.009765625 z M 17.462891 -0.009765625 L 18.298828 -0.009765625 C 18.715685 -0.009765625 19.014214 0.067165803 19.193359 0.21875 C 19.375949 0.3703342 19.466797 0.62125652 19.466797 0.97265625 C 19.466797 1.3275011 19.375949 1.583252 19.193359 1.7382812 C 19.014214 1.8933105 18.715685 1.9707031 18.298828 1.9707031 L 17.462891 1.9707031 L 17.462891 -0.009765625 z M 10.408203 0.35742188 L 11.462891 3.4277344 L 9.3496094 3.4277344 L 10.408203 0.35742188 z "
       style="font-style:normal;font-weight:normal;font-size:10.58333302px;line-height:1.25;font-family:sans-serif;letter-spacing:0px;word-spacing:0px;fill:#ffffff;fill-opacity:1;stroke:none;stroke-width:0.26458332"
       id="text833"
       d="M -0.8671875,-1.4511719 V 6.2636719 H 1.1230469 V 3.34375 h 0.5625 c 0.3238389,0 0.5824653,0.071642 0.7753906,0.2128906 0.1963704,0.1412489 0.3886448,0.405165 0.578125,0.7910156 L 3.9804688,6.2636719 H 6.0996094 L 5.0195312,4.0722656 C 4.7990451,3.6278483 4.5803223,3.2971191 4.3632812,3.0800781 4.1496853,2.859592 3.904975,2.7202148 3.6328125,2.6582031 4.1289062,2.5031738 4.4995389,2.2608778 4.7441406,1.9335938 4.9921875,1.6063097 5.1171875,1.1876085 5.1171875,0.67773438 c 0,-0.73725042 -0.2374675,-1.27612306 -0.7128906,-1.6171875 C 3.9323188,-1.2805176 3.1881781,-1.4511719 2.171875,-1.4511719 Z m 10.0878906,0 -2.859375,7.7148438 h 2 L 8.8535156,4.859375 h 3.1113284 l 0.484375,1.4042969 h 2 l -2.857422,-7.7148438 z m 6.2519529,0 v 7.7148438 h 1.990235 V 3.34375 h 0.5625 c 0.323839,0 0.582465,0.071642 0.77539,0.2128906 0.196371,0.1412489 0.388645,0.405165 0.578125,0.7910156 l 0.941406,1.9160157 h 2.119141 L 21.359375,4.0722656 C 21.138889,3.6278483 20.920166,3.2971191 20.703125,3.0800781 20.489529,2.859592 20.246772,2.7202148 19.974609,2.6582031 c 0.496094,-0.1550293 0.864774,-0.3973253 1.109375,-0.7246093 0.248047,-0.3272841 0.373047,-0.7459853 0.373047,-1.25585942 0,-0.73725042 -0.237467,-1.27612306 -0.71289,-1.6171875 C 20.272163,-1.2805176 19.528022,-1.4511719 18.511719,-1.4511719 Z M 1.1230469,-0.00976563 h 0.8359375 c 0.4168565,0 0.7153863,0.07693143 0.8945312,0.22851563 0.1825901,0.1515842 0.2734375,0.40250652 0.2734375,0.75390625 0,0.35484485 -0.090847,0.61059575 -0.2734375,0.76562495 C 2.6743707,1.8933105 2.3758409,1.9707031 1.9589844,1.9707031 H 1.1230469 Z m 16.3398441,0 h 0.835937 c 0.416857,0 0.715386,0.07693143 0.894531,0.22851563 0.18259,0.1515842 0.273438,0.40250652 0.273438,0.75390625 0,0.35484485 -0.09085,0.61059575 -0.273438,0.76562495 -0.179145,0.1550293 -0.477674,0.2324219 -0.894531,0.2324219 H 17.462891 Z M 10.408203,0.35742188 11.462891,3.4277344 H 9.3496094 Z"
       transform="matrix(0.13718143,0,0,0.13718143,3.8120096,6.0199071)" />
  </g>
</svg>
