<?xml version="1.0" encoding="UTF-8" standalone="no"?>
<svg
   xmlns:dc="http://purl.org/dc/elements/1.1/"
   xmlns:cc="http://creativecommons.org/ns#"
   xmlns:rdf="http://www.w3.org/1999/02/22-rdf-syntax-ns#"
   xmlns:svg="http://www.w3.org/2000/svg"
   xmlns="http://www.w3.org/2000/svg"
   xmlns:sodipodi="http://sodipodi.sourceforge.net/DTD/sodipodi-0.dtd"
   xmlns:inkscape="http://www.inkscape.org/namespaces/inkscape"
   sodipodi:docname="application-vnd.oasis.opendocument.database.svg"
   inkscape:version="1.0.1 (3bc2e813f5, 2020-09-07)"
   id="svg8"
   version="1.1"
   viewBox="0 0 8.4666665 8.4666669"
   height="32"
   width="32">
  <defs
     id="defs2">
    <filter
       inkscape:collect="always"
       style="color-interpolation-filters:sRGB"
       id="filter33290"
       x="-0.081249999"
       width="1.1625"
       y="-0.069642858"
       height="1.1392857">
      <feGaussianBlur
         inkscape:collect="always"
         stdDeviation="0.21497395"
         id="feGaussianBlur33292" />
    </filter>
  </defs>
  <sodipodi:namedview
     inkscape:window-maximized="1"
     inkscape:window-y="0"
     inkscape:window-x="0"
     inkscape:window-height="1000"
     inkscape:window-width="1920"
     units="px"
     showgrid="false"
     inkscape:document-rotation="0"
     inkscape:current-layer="layer1"
     inkscape:document-units="px"
     inkscape:cy="16.245823"
     inkscape:cx="-2.1715587"
     inkscape:zoom="9.0045629"
     inkscape:pageshadow="2"
     inkscape:pageopacity="0.0"
     borderopacity="1.0"
     bordercolor="#666666"
     pagecolor="#ffffff"
     id="base" />
  <metadata
     id="metadata5">
    <rdf:RDF>
      <cc:Work
         rdf:about="">
        <dc:format>image/svg+xml</dc:format>
        <dc:type
           rdf:resource="http://purl.org/dc/dcmitype/StillImage" />
        <dc:title />
      </cc:Work>
    </rdf:RDF>
  </metadata>
  <g
     id="layer1"
     inkscape:groupmode="layer"
     inkscape:label="Capa 1">
    <path
       style="opacity:0.5;fill:#000000;fill-opacity:1;stroke:none;stroke-width:2.29352999;filter:url(#filter33290)"
       d="M 1.0583334,0.5291668 V 7.9374999 H 7.4083333 V 2.1166666 l -1.5875,-1.5874998 z"
       id="path926-2"
       inkscape:connector-curvature="0" />
    <path
       style="opacity:1;fill:#f5f5f5;fill-opacity:1;stroke:none;stroke-width:2.29352999"
       d="M 1.0583334,0.52916675 V 7.9374999 H 7.4083333 V 2.1166666 l -1.5875,-1.58749985 z"
       id="path926"
       inkscape:connector-curvature="0" />
    <path
       inkscape:connector-curvature="0"
       style="opacity:0.2;fill:#000000;fill-opacity:1;stroke:none;stroke-width:2.29352999"
       d="M 5.8208333,0.52916675 V 2.1166669 h 1.5875 z"
       id="path926-1" />
    <path
       inkscape:connector-curvature="0"
       style="fill:#e81d62;fill-opacity:1;stroke-width:0.423333"
       d="m 4.2329228,2.6458333 c -0.7103109,0 -1.3170653,0.2191046 -1.5684831,0.5291667 -0.021112,0.02603 -0.040293,0.05213 -0.056224,0.079374 -0.015136,0.025891 -0.027838,0.052523 -0.038032,0.079374 a 1.6933333,0.84666667 0 0 0 -0.00744,0.024803 c -0.00581,0.018198 -0.012272,0.036005 -0.015712,0.05457 a 1.6933333,0.84666667 0 0 0 -0.00744,0.079378 c 9.31e-5,0.027512 0.00368,0.055403 0.00909,0.082682 a 1.6933333,0.84666667 0 0 0 0.023152,0.079374 1.6933333,0.84666667 0 0 0 0.038862,0.078549 1.6933333,0.84666667 0 0 0 0.053742,0.076894 1.6933333,0.84666667 0 0 0 1.5684831,0.5291666 1.6933333,0.84666667 0 0 0 1.5684831,-0.5291666 1.6933333,0.84666667 0 0 0 8.466e-4,0 1.6933333,0.84666667 0 0 0 0.045475,-0.066146 c 0.0027,-0.00429 0.00654,-0.0081 0.00909,-0.0124 a 1.6933333,0.84666667 0 0 0 0.027283,-0.056224 c 0.00394,-0.00886 0.00902,-0.017542 0.012401,-0.026458 a 1.6933333,0.84666667 0 0 0 0.014047,-0.04713 c 0.00326,-0.012416 0.00694,-0.024723 0.00909,-0.037206 a 1.6933333,0.84666667 0 0 0 0.00744,-0.071107 1.6933333,0.84666667 0 0 0 -0.00909,-0.085163 C 5.9014955,3.3264594 5.8615167,3.2490621 5.80225,3.1758255 5.55079,2.8659455 4.9441204,2.6466587 4.2337669,2.6466587 Z M 2.6644397,4.3391666 c -0.082126,0.1100672 -0.1244272,0.2279055 -0.1248496,0.3464387 0,0.5101167 0.7581899,0.9235613 1.6933333,0.9235613 0.9351434,0 1.6933334,-0.4134446 1.6933334,-0.9235613 -4.239e-4,-0.1185332 -0.042724,-0.236372 -0.1248511,-0.3464387 -0.2586566,0.3488267 -0.8788728,0.6345768 -1.5684829,0.635 -0.68961,-4.232e-4 -1.3098263,-0.2861733 -1.5684831,-0.635 z m 0,1.27 c -0.082126,0.1100672 -0.1244272,0.2279055 -0.1248496,0.3464388 0,0.5101165 0.7581899,0.9235612 1.6933333,0.9235612 0.9351434,0 1.6933334,-0.4134447 1.6933334,-0.9235612 -4.239e-4,-0.1185333 -0.042724,-0.2363721 -0.1248511,-0.3464388 -0.2586566,0.3488267 -0.8788728,0.6345767 -1.5684829,0.635 -0.68961,-4.233e-4 -1.3098263,-0.2861733 -1.5684831,-0.635 z"
       id="path12" />
  </g>
</svg>
