<?xml version="1.0" encoding="UTF-8" standalone="no"?>
<svg
   xmlns:dc="http://purl.org/dc/elements/1.1/"
   xmlns:cc="http://creativecommons.org/ns#"
   xmlns:rdf="http://www.w3.org/1999/02/22-rdf-syntax-ns#"
   xmlns:svg="http://www.w3.org/2000/svg"
   xmlns="http://www.w3.org/2000/svg"
   xmlns:sodipodi="http://sodipodi.sourceforge.net/DTD/sodipodi-0.dtd"
   xmlns:inkscape="http://www.inkscape.org/namespaces/inkscape"
   sodipodi:docname="audio-x-wav.svg"
   inkscape:version="1.0.1 (3bc2e813f5, 2020-09-07)"
   id="svg8"
   version="1.1"
   viewBox="0 0 8.4666665 8.4666669"
   height="32"
   width="32">
  <defs
     id="defs2">
    <filter
       inkscape:collect="always"
       style="color-interpolation-filters:sRGB"
       id="filter1441"
       x="-0.075000003"
       width="1.15"
       y="-0.075000003"
       height="1.15">
      <feGaussianBlur
         inkscape:collect="always"
         stdDeviation="0.23151042"
         id="feGaussianBlur1443" />
    </filter>
  </defs>
  <sodipodi:namedview
     inkscape:window-maximized="1"
     inkscape:window-y="0"
     inkscape:window-x="0"
     inkscape:window-height="1000"
     inkscape:window-width="1920"
     units="px"
     showgrid="false"
     inkscape:document-rotation="0"
     inkscape:current-layer="layer1"
     inkscape:document-units="px"
     inkscape:cy="16.245823"
     inkscape:cx="-2.1715587"
     inkscape:zoom="9.0045629"
     inkscape:pageshadow="2"
     inkscape:pageopacity="0.0"
     borderopacity="1.0"
     bordercolor="#666666"
     pagecolor="#ffffff"
     id="base" />
  <metadata
     id="metadata5">
    <rdf:RDF>
      <cc:Work
         rdf:about="">
        <dc:format>image/svg+xml</dc:format>
        <dc:type
           rdf:resource="http://purl.org/dc/dcmitype/StillImage" />
        <dc:title></dc:title>
      </cc:Work>
    </rdf:RDF>
  </metadata>
  <g
     id="layer1"
     inkscape:groupmode="layer"
     inkscape:label="Capa 1">
    <rect
       style="opacity:0.5;fill:#000000;fill-opacity:1;stroke:none;stroke-width:0.189688;stroke-linecap:square;paint-order:markers stroke fill;filter:url(#filter1441)"
       id="rect1424-3"
       width="7.4083333"
       height="7.4083333"
       x="0.5291667"
       y="0.5291667"
       rx="0"
       ry="0" />
    <rect
       style="opacity:1;fill:#f5f5f5;fill-opacity:1;stroke:none;stroke-width:0.189688;stroke-linecap:square;paint-order:markers stroke fill"
       id="rect1424"
       width="7.4083333"
       height="7.4083333"
       x="0.5291667"
       y="0.5291667"
       rx="0"
       ry="0" />
    <path
       style="color:#4d4d4d;opacity:1;fill:#00c287;fill-opacity:1;stroke:none;stroke-width:0.227662"
       class="ColorScheme-Text"
       d="M 5.2838892,2.38125 3.6322189,2.822456 C 3.5081301,2.8568079 3.4080165,2.9933808 3.4080165,3.1261013 V 5.2304564 C 3.2821876,5.162387 3.1205727,5.1348743 2.9530322,5.1798487 2.6507024,5.2610046 2.4614418,5.5232123 2.5262491,5.7655164 2.5910563,6.0078205 2.889006,6.1429583 3.191335,6.0618008 3.4325315,5.9970556 3.598652,5.8142325 3.6251683,5.6210549 l 0.00705,-1.9888776 1.5680058,-0.433845 V 4.7676271 C 5.0743936,4.6995575 4.9127795,4.6720443 4.7452397,4.7170195 4.4429099,4.7981756 4.253179,5.0603814 4.3179861,5.3026871 4.3827931,5.5449909 4.6807439,5.6801293 4.9830726,5.5989715 5.2242696,5.5342258 5.3903903,5.351404 5.4169061,5.1582254 l 0.00705,-2.5888074 c 0,-0.09954 -0.059622,-0.1741668 -0.140068,-0.188168 z"
       id="path4"
       inkscape:connector-curvature="0" />
  </g>
</svg>
