<?xml version="1.0" encoding="UTF-8" standalone="no"?>
<svg
   xmlns:dc="http://purl.org/dc/elements/1.1/"
   xmlns:cc="http://creativecommons.org/ns#"
   xmlns:rdf="http://www.w3.org/1999/02/22-rdf-syntax-ns#"
   xmlns:svg="http://www.w3.org/2000/svg"
   xmlns="http://www.w3.org/2000/svg"
   xmlns:sodipodi="http://sodipodi.sourceforge.net/DTD/sodipodi-0.dtd"
   xmlns:inkscape="http://www.inkscape.org/namespaces/inkscape"
   sodipodi:docname="font-x-generic.svg"
   inkscape:version="1.0.1 (3bc2e813f5, 2020-09-07)"
   id="svg8"
   version="1.1"
   viewBox="0 0 8.4666665 8.4666669"
   height="32"
   width="32">
  <defs
     id="defs2">
    <filter
       inkscape:collect="always"
       style="color-interpolation-filters:sRGB"
       id="filter33173"
       x="-0.081249999"
       width="1.1625"
       y="-0.069642858"
       height="1.1392857">
      <feGaussianBlur
         inkscape:collect="always"
         stdDeviation="0.21497395"
         id="feGaussianBlur33175" />
    </filter>
  </defs>
  <sodipodi:namedview
     inkscape:window-maximized="1"
     inkscape:window-y="0"
     inkscape:window-x="0"
     inkscape:window-height="1000"
     inkscape:window-width="1920"
     units="px"
     showgrid="false"
     inkscape:document-rotation="0"
     inkscape:current-layer="layer1"
     inkscape:document-units="px"
     inkscape:cy="16.245823"
     inkscape:cx="-2.1715587"
     inkscape:zoom="9.0045629"
     inkscape:pageshadow="2"
     inkscape:pageopacity="0.0"
     borderopacity="1.0"
     bordercolor="#666666"
     pagecolor="#ffffff"
     id="base" />
  <metadata
     id="metadata5">
    <rdf:RDF>
      <cc:Work
         rdf:about="">
        <dc:format>image/svg+xml</dc:format>
        <dc:type
           rdf:resource="http://purl.org/dc/dcmitype/StillImage" />
        <dc:title />
      </cc:Work>
    </rdf:RDF>
  </metadata>
  <g
     id="layer1"
     inkscape:groupmode="layer"
     inkscape:label="Capa 1">
    <path
       style="opacity:0.5;fill:#000000;fill-opacity:1;stroke:none;stroke-width:2.29352999;filter:url(#filter33173)"
       d="M 1.0583334,0.5291668 V 7.9374999 H 7.4083333 V 2.1166666 l -1.5875,-1.5874998 z"
       id="path926-2"
       inkscape:connector-curvature="0" />
    <path
       style="opacity:1;fill:#f5f5f5;fill-opacity:1;stroke:none;stroke-width:2.29352999"
       d="M 1.0583334,0.52916675 V 7.9374999 H 7.4083333 V 2.1166666 l -1.5875,-1.58749985 z"
       id="path926"
       inkscape:connector-curvature="0" />
    <path
       inkscape:connector-curvature="0"
       style="opacity:0.2;fill:#000000;fill-opacity:1;stroke:none;stroke-width:2.29352999"
       d="M 5.8208333,0.52916675 V 2.1166669 h 1.5875 z"
       id="path926-1" />
    <g
       transform="matrix(0.086664,0,0,0.086664,1.9943726,3.8361488)"
       style="font-size:40px;line-height:1.25;font-family:Digital-7;-inkscape-font-specification:Digital-7"
       id="text853"
       aria-label="Aa">
      <path
         inkscape:connector-curvature="0"
         id="path855"
         style="font-style:normal;font-variant:normal;font-weight:normal;font-stretch:normal;font-family:'Liberation Sans';-inkscape-font-specification:'Liberation Sans'"
         d="M 24.125973,18.147493 20.981441,10.100618 H 8.442379 L 5.2783165,18.147493 H 1.411129 L 12.641598,-9.3720379 h 4.238281 L 27.934566,18.147493 Z m -9.414063,-24.7070309 -0.175781,0.546875 q -0.488281,1.6210938 -1.445313,4.1601563 L 9.5751915,7.1904621 H 19.86816 l -3.535156,-9.0820312 q -0.546875,-1.3476563 -1.09375,-3.046875 z" />
      <path
         inkscape:connector-curvature="0"
         id="path857"
         style="font-style:normal;font-variant:normal;font-weight:normal;font-stretch:normal;font-family:'Liberation Sans';-inkscape-font-specification:'Liberation Sans'"
         d="m 36.098629,18.538118 q -3.183594,0 -4.785156,-1.679687 -1.601563,-1.679688 -1.601563,-4.609375 0,-3.2812501 2.148438,-5.0390626 2.167968,-1.7578125 6.972656,-1.875 l 4.746094,-0.078125 V 4.1045246 q 0,-2.578125 -1.09375,-3.69140624 -1.09375,-1.11328125 -3.4375,-1.11328125 -2.363282,0 -3.4375,0.80078125 -1.074219,0.80078125 -1.289063,2.55859374 L 30.64941,2.3271809 q 0.898438,-5.703125 8.476563,-5.703125 3.984375,0 5.996093,1.8359375 2.011719,1.81640621 2.011719,5.2734375 v 9.1015621 q 0,1.5625 0.410156,2.363282 0.410157,0.78125 1.5625,0.78125 0.507813,0 1.152344,-0.136719 v 2.1875 q -1.328125,0.3125 -2.714844,0.3125 -1.953125,0 -2.851562,-1.015625 -0.878906,-1.035156 -0.996094,-3.222656 h -0.117187 q -1.347657,2.421875 -3.144532,3.4375 -1.777343,0.996093 -4.335937,0.996093 z M 36.89941,15.9014 q 1.933594,0 3.4375,-0.878907 1.503906,-0.878906 2.363281,-2.402343 0.878907,-1.542969 0.878907,-3.1640629 V 7.7178059 l -3.847657,0.078125 q -2.480468,0.039063 -3.769531,0.5078125 -1.269531,0.46875 -1.953125,1.4453125 -0.683594,0.9765621 -0.683594,2.5585941 0,1.71875 0.917969,2.65625 0.9375,0.9375 2.65625,0.9375 z" />
    </g>
  </g>
</svg>
