<?xml version="1.0" encoding="UTF-8" standalone="no"?>
<svg
   xmlns:dc="http://purl.org/dc/elements/1.1/"
   xmlns:cc="http://creativecommons.org/ns#"
   xmlns:rdf="http://www.w3.org/1999/02/22-rdf-syntax-ns#"
   xmlns:svg="http://www.w3.org/2000/svg"
   xmlns="http://www.w3.org/2000/svg"
   xmlns:sodipodi="http://sodipodi.sourceforge.net/DTD/sodipodi-0.dtd"
   xmlns:inkscape="http://www.inkscape.org/namespaces/inkscape"
   sodipodi:docname="text-x-makefile.svg"
   inkscape:version="1.0.1 (3bc2e813f5, 2020-09-07)"
   id="svg8"
   version="1.1"
   viewBox="0 0 8.4666665 8.4666669"
   height="32"
   width="32">
  <defs
     id="defs2">
    <filter
       inkscape:collect="always"
       style="color-interpolation-filters:sRGB"
       id="filter33125"
       x="-0.081249999"
       width="1.1625"
       y="-0.069642858"
       height="1.1392857">
      <feGaussianBlur
         inkscape:collect="always"
         stdDeviation="0.21497395"
         id="feGaussianBlur33127" />
    </filter>
  </defs>
  <sodipodi:namedview
     inkscape:window-maximized="1"
     inkscape:window-y="0"
     inkscape:window-x="0"
     inkscape:window-height="1000"
     inkscape:window-width="1920"
     units="px"
     showgrid="false"
     inkscape:document-rotation="0"
     inkscape:current-layer="layer1"
     inkscape:document-units="px"
     inkscape:cy="16.245823"
     inkscape:cx="-4.9479289"
     inkscape:zoom="9.0045629"
     inkscape:pageshadow="2"
     inkscape:pageopacity="0.0"
     borderopacity="1.0"
     bordercolor="#666666"
     pagecolor="#ffffff"
     id="base" />
  <metadata
     id="metadata5">
    <rdf:RDF>
      <cc:Work
         rdf:about="">
        <dc:format>image/svg+xml</dc:format>
        <dc:type
           rdf:resource="http://purl.org/dc/dcmitype/StillImage" />
        <dc:title />
      </cc:Work>
    </rdf:RDF>
  </metadata>
  <g
     id="layer1"
     inkscape:groupmode="layer"
     inkscape:label="Capa 1">
    <path
       style="opacity:0.5;fill:#000000;fill-opacity:1;stroke:none;stroke-width:2.29352999;filter:url(#filter33125)"
       d="M 1.0583334,0.5291668 V 7.9374999 H 7.4083333 V 2.1166666 l -1.5875,-1.5874998 z"
       id="path926-2"
       inkscape:connector-curvature="0" />
    <path
       style="opacity:1;fill:#f5f5f5;fill-opacity:1;stroke:none;stroke-width:2.29352999"
       d="M 1.0583334,0.52916675 V 7.9374999 H 7.4083333 V 2.1166666 l -1.5875,-1.58749985 z"
       id="path926"
       inkscape:connector-curvature="0" />
    <path
       inkscape:connector-curvature="0"
       style="opacity:0.2;fill:#000000;fill-opacity:1;stroke:none;stroke-width:2.29352999"
       d="M 5.8208333,0.52916675 V 2.1166669 h 1.5875 z"
       id="path926-1" />
    <path
       style="opacity:0.5;fill:#000000;fill-opacity:1;stroke-width:0.0527955"
       d="m 3.4716638,5.6045293 c -0.1636728,0 -0.2954181,-0.1319369 -0.2954181,-0.2958486 V 5.1699919 A 1.1078955,1.1095113 0 0 1 2.826834,4.9678404 L 2.7067915,5.0371848 C 2.5650462,5.1191408 2.3850165,5.0707861 2.3031798,4.9288342 l -0.07388,-0.127957 C 2.1474632,4.6589251 2.1957476,4.4786332 2.3374928,4.3966775 L 2.4570202,4.3275395 A 1.1078955,1.1095113 0 0 1 2.4376474,4.1251814 1.1078955,1.1095113 0 0 1 2.4570202,3.9228238 L 2.3374928,3.8536855 C 2.1957476,3.7717295 2.1474632,3.5914377 2.2292996,3.4494858 l 0.07388,-0.127957 C 2.3850165,3.1795767 2.5650462,3.1312225 2.7067915,3.213178 L 2.8260096,3.28211 A 1.1078955,1.1095113 0 0 1 3.1762457,3.080681 V 2.9416824 c 0,-0.1639117 0.1317453,-0.2958491 0.2954181,-0.2958491 h 0.1477608 c 0.1636729,0 0.2954179,0.1319374 0.2954179,0.2958491 v 0.1395143 a 1.1078955,1.1095113 0 0 1 0.3494117,0.2013256 l 0.1200427,-0.069344 c 0.141745,-0.081955 0.3217744,-0.033601 0.4036111,0.1083509 l 0.073881,0.127957 C 4.943625,3.5914381 4.89534,3.7717299 4.7535952,3.8536859 l -0.1195274,0.069138 a 1.1078955,1.1095113 0 0 1 0.019373,0.2023576 1.1078955,1.1095113 0 0 1 -0.019373,0.2023578 l 0.1195274,0.069138 C 4.8953406,4.4786333 4.9436249,4.6589249 4.8617885,4.800877 L 4.7879075,4.928834 C 4.7060713,5.0707861 4.5260419,5.1191408 4.3842969,5.0371848 L 4.2650783,4.9682529 A 1.1078955,1.1095113 0 0 1 3.9148425,5.1697855 v 0.1388952 c 0,0.1639117 -0.131745,0.2958486 -0.2954179,0.2958486 z m 0.07388,-0.8454446 c 0.349632,0 0.6330833,-0.2838646 0.6330833,-0.6340065 0,-0.3501417 -0.2834513,-0.6339031 -0.6330833,-0.6339031 -0.3496318,0 -0.6330829,0.2837614 -0.6330829,0.6339031 0,0.3501419 0.2834511,0.6340065 0.6330829,0.6340065 z"
       id="path4-81"
       inkscape:connector-curvature="0" />
    <path
       style="opacity:0.5;fill:#000000;fill-opacity:1;stroke-width:0.0377111"
       d="M 5.1904063,6.8990713 C 5.0736219,6.8936685 4.9839755,6.7951765 4.9893867,6.6782228 l 0.00458,-0.098958 A 0.79135391,0.79250808 2.6493618 0 1 4.751328,6.4234891 L 4.663385,6.4690041 C 4.5595413,6.5228015 4.4326824,6.4823549 4.3789772,6.3783683 L 4.3304852,6.2846288 C 4.2767801,6.180641 4.3171846,6.0535928 4.4210272,5.9997946 l 0.087568,-0.045385 A 0.79135391,0.79250808 2.6493618 0 1 4.5014544,5.8093832 0.79135391,0.79250808 2.6493618 0 1 4.5219569,5.6656361 L 4.4389543,5.6123583 C 4.3405219,5.5492012 4.3120226,5.4189643 4.3751013,5.3203808 l 0.056941,-0.088861 c 0.06308,-0.098583 0.193131,-0.1271418 0.2915634,-0.063985 l 0.082789,0.05312 A 0.79135391,0.79250808 2.6493618 0 1 5.0629459,5.0884946 l 0.00459,-0.099178 c 0.00541,-0.1169543 0.1037722,-0.2067451 0.2205567,-0.201341 l 0.1054301,0.00488 c 0.1167844,0.0054 0.2064308,0.103895 0.2010196,0.2208485 l -0.00461,0.099547 a 0.79135391,0.79250808 2.6493618 0 1 0.2426655,0.1551871 l 0.087943,-0.045515 c 0.103844,-0.053797 0.2307027,-0.013351 0.2844081,0.090636 l 0.04849,0.093739 c 0.053705,0.1039876 0.013301,0.2310357 -0.090542,0.2848337 l -0.087568,0.045385 a 0.79135391,0.79250808 2.6493618 0 1 0.00714,0.1450263 0.79135391,0.79250808 2.6493618 0 1 -0.020505,0.1437473 l 0.083003,0.053278 c 0.098433,0.063157 0.126932,0.1933943 0.063853,0.2919778 l -0.056941,0.088861 c -0.063073,0.098583 -0.1931258,0.1271403 -0.2915582,0.063983 l -0.082789,-0.05312 A 0.79135391,0.79250808 2.6493618 0 1 5.5209794,6.6035047 l -0.00459,0.099105 C 5.5109781,6.8195642 5.4126227,6.9093546 5.295838,6.9039507 Z M 5.2710357,6.2982668 C 5.5205058,6.3098106 5.7321269,6.1166256 5.7436876,5.8667914 5.7552473,5.6169576 5.5623684,5.405129 5.3128981,5.3935852 5.063428,5.3820414 4.8518103,5.5751526 4.8402498,5.8249865 4.8286899,6.0748209 5.0215656,6.286723 5.2710357,6.2982668 Z"
       id="path4-8"
       inkscape:connector-curvature="0" />
  </g>
</svg>
