<?xml version="1.0" encoding="UTF-8" standalone="no"?>
<svg
   xmlns:dc="http://purl.org/dc/elements/1.1/"
   xmlns:cc="http://creativecommons.org/ns#"
   xmlns:rdf="http://www.w3.org/1999/02/22-rdf-syntax-ns#"
   xmlns:svg="http://www.w3.org/2000/svg"
   xmlns="http://www.w3.org/2000/svg"
   xmlns:sodipodi="http://sodipodi.sourceforge.net/DTD/sodipodi-0.dtd"
   xmlns:inkscape="http://www.inkscape.org/namespaces/inkscape"
   sodipodi:docname="unknown.svg"
   inkscape:version="1.0.1 (3bc2e813f5, 2020-09-07)"
   id="svg8"
   version="1.1"
   viewBox="0 0 8.4666665 8.4666669"
   height="32"
   width="32">
  <defs
     id="defs2">
    <filter
       inkscape:collect="always"
       style="color-interpolation-filters:sRGB"
       id="filter33097"
       x="-0.081249999"
       width="1.1625"
       y="-0.069642858"
       height="1.1392857">
      <feGaussianBlur
         inkscape:collect="always"
         stdDeviation="0.21497395"
         id="feGaussianBlur33099" />
    </filter>
  </defs>
  <sodipodi:namedview
     inkscape:window-maximized="1"
     inkscape:window-y="0"
     inkscape:window-x="0"
     inkscape:window-height="1000"
     inkscape:window-width="1920"
     units="px"
     showgrid="false"
     inkscape:document-rotation="0"
     inkscape:current-layer="layer1"
     inkscape:document-units="px"
     inkscape:cy="16.245823"
     inkscape:cx="-4.9479289"
     inkscape:zoom="9.0045629"
     inkscape:pageshadow="2"
     inkscape:pageopacity="0.0"
     borderopacity="1.0"
     bordercolor="#666666"
     pagecolor="#ffffff"
     id="base" />
  <metadata
     id="metadata5">
    <rdf:RDF>
      <cc:Work
         rdf:about="">
        <dc:format>image/svg+xml</dc:format>
        <dc:type
           rdf:resource="http://purl.org/dc/dcmitype/StillImage" />
        <dc:title />
      </cc:Work>
    </rdf:RDF>
  </metadata>
  <g
     id="layer1"
     inkscape:groupmode="layer"
     inkscape:label="Capa 1">
    <path
       style="opacity:0.5;fill:#000000;fill-opacity:1;stroke:none;stroke-width:2.29352999;filter:url(#filter33097)"
       d="M 1.0583334,0.5291668 V 7.9374999 H 7.4083333 V 2.1166666 l -1.5875,-1.5874998 z"
       id="path926-2"
       inkscape:connector-curvature="0" />
    <path
       style="opacity:1;fill:#f5f5f5;fill-opacity:1;stroke:none;stroke-width:2.29352999"
       d="M 1.0583334,0.52916675 V 7.9374999 H 7.4083333 V 2.1166666 l -1.5875,-1.58749985 z"
       id="path926"
       inkscape:connector-curvature="0" />
    <path
       inkscape:connector-curvature="0"
       style="opacity:0.2;fill:#000000;fill-opacity:1;stroke:none;stroke-width:2.29352999"
       d="M 5.8208333,0.52916675 V 2.1166669 h 1.5875 z"
       id="path926-1" />
    <g
       aria-label="?"
       id="text1778"
       style="font-style:normal;font-weight:normal;font-size:40px;line-height:1.25;font-family:sans-serif;opacity:0.5;fill:#000000;fill-opacity:1;stroke:none"
       transform="matrix(0.1515711,0,0,0.1515711,3.1143148,5.49239)">
      <path
         inkscape:connector-curvature="0"
         d="m 16.943343,-11.006902 q 0,1.464844 -0.429688,2.6171878 -0.429687,1.1523437 -1.230468,2.1289062 -0.800782,0.9765625 -2.617188,2.3046875 l -1.5625,1.1523438 Q 9.6972492,-1.7881517 9.0136554,-0.65533924 8.3300617,0.45794201 8.3105304,1.786067 H 4.8925617 q 0.039063,-1.34765624 0.4101562,-2.36328124 0.390625,-1.01562496 0.9960938,-1.79687496 0.6054687,-0.78125 1.3671875,-1.3867188 0.7617187,-0.625 1.5429687,-1.171875 0.78125,-0.5664062 1.5234371,-1.1132812 0.761719,-0.5664063 1.347657,-1.25 0.585937,-0.6835938 0.9375,-1.5429688 0.371093,-0.859375 0.371093,-2.011719 0,-2.226562 -1.523437,-3.515625 -1.503906,-1.289062 -4.2382813,-1.289062 -2.734375,0 -4.3359375,1.367187 -1.6015625,1.367188 -1.875,3.75 l -3.59375,-0.234375 q 0.5078125,-3.867187 3.04687497,-5.9375 2.53906253,-2.070312 6.71875003,-2.070312 4.3554688,0 6.8554688,2.070312 2.5,2.050782 2.5,5.703125 z M 4.7363117,9.1493483 V 5.223567 h 3.8085937 v 3.9257813 z"
         style="font-style:normal;font-variant:normal;font-weight:normal;font-stretch:normal;font-family:'Liberation Sans';-inkscape-font-specification:'Liberation Sans'"
         id="path1780" />
    </g>
  </g>
</svg>
