<?xml version="1.0" encoding="UTF-8" standalone="no"?>
<svg
   xmlns:dc="http://purl.org/dc/elements/1.1/"
   xmlns:cc="http://creativecommons.org/ns#"
   xmlns:rdf="http://www.w3.org/1999/02/22-rdf-syntax-ns#"
   xmlns:svg="http://www.w3.org/2000/svg"
   xmlns="http://www.w3.org/2000/svg"
   xmlns:sodipodi="http://sodipodi.sourceforge.net/DTD/sodipodi-0.dtd"
   xmlns:inkscape="http://www.inkscape.org/namespaces/inkscape"
   width="32"
   height="32"
   version="1"
   id="svg16"
   sodipodi:docname="virtualbox-vhd.svg"
   inkscape:version="1.0.1 (3bc2e813f5, 2020-09-07)">
  <metadata
     id="metadata22">
    <rdf:RDF>
      <cc:Work
         rdf:about="">
        <dc:format>image/svg+xml</dc:format>
        <dc:type
           rdf:resource="http://purl.org/dc/dcmitype/StillImage" />
        <dc:title />
      </cc:Work>
    </rdf:RDF>
  </metadata>
  <defs
     id="defs20">
    <filter
       inkscape:collect="always"
       style="color-interpolation-filters:sRGB"
       id="filter33061"
       x="-0.075"
       width="1.15"
       y="-0.075"
       height="1.15">
      <feGaussianBlur
         inkscape:collect="always"
         stdDeviation="0.875"
         id="feGaussianBlur33063" />
    </filter>
  </defs>
  <sodipodi:namedview
     inkscape:document-rotation="0"
     pagecolor="#ffffff"
     bordercolor="#666666"
     borderopacity="1"
     objecttolerance="10"
     gridtolerance="10"
     guidetolerance="10"
     inkscape:pageopacity="0"
     inkscape:pageshadow="2"
     inkscape:window-width="1920"
     inkscape:window-height="1000"
     id="namedview18"
     showgrid="false"
     inkscape:zoom="24.375"
     inkscape:cx="13.948718"
     inkscape:cy="16"
     inkscape:window-x="0"
     inkscape:window-y="0"
     inkscape:window-maximized="1"
     inkscape:current-layer="svg16" />
  <rect
     style="opacity:0.5;filter:url(#filter33061)"
     width="28"
     height="28"
     x="2"
     y="2"
     rx="1.4"
     ry="1.4"
     id="rect2" />
  <rect
     style="fill:#333366;fill-opacity:1"
     width="28"
     height="28"
     x="2"
     y="2"
     rx="1.4"
     ry="1.4"
     id="rect4" />
  <path
     style="fill:none;stroke:none;stroke-width:3;stroke-linecap:square"
     d="M 4.1,13.5 H 9 l 2.8,7.89 3.5,-10.29 2.45,5.6 2.45,-6.3 2.8,8.1 h 4.2"
     id="path6" />
  <path
     style="fill:#f9feff;fill-opacity:1;opacity:0.7"
     d="M 6.0996094 5 C 5.4902094 5 5 5.4902094 5 6.0996094 L 5 12 L 10.058594 12 L 11.769531 16.822266 L 15.125 6.9570312 L 17.667969 12.771484 L 20.283203 6.0488281 L 24.068359 17 L 27 17 L 27 6.0996094 C 27 5.4902094 26.509791 5 25.900391 5 L 6.0996094 5 z M 20.117188 14.75 L 17.832031 20.628906 L 15.476562 15.244141 L 11.830078 25.958984 L 7.9414062 15 L 5 15 L 5 25.900391 C 5 26.509791 5.4902094 27 6.0996094 27 L 25.900391 27 C 26.509791 27 27 26.509791 27 25.900391 L 27 20 L 21.931641 20 L 20.117188 14.75 z"
     id="path10" />
</svg>
