<?xml version="1.0" encoding="UTF-8" standalone="no"?>
<svg
   xmlns:dc="http://purl.org/dc/elements/1.1/"
   xmlns:cc="http://creativecommons.org/ns#"
   xmlns:rdf="http://www.w3.org/1999/02/22-rdf-syntax-ns#"
   xmlns:svg="http://www.w3.org/2000/svg"
   xmlns="http://www.w3.org/2000/svg"
   xmlns:sodipodi="http://sodipodi.sourceforge.net/DTD/sodipodi-0.dtd"
   xmlns:inkscape="http://www.inkscape.org/namespaces/inkscape"
   height="16"
   viewBox="0 0 16 16"
   width="16"
   version="1.1"
   id="svg6"
   sodipodi:docname="folder-download-symbolic.svg"
   inkscape:version="0.92.3 (2405546, 2018-03-11)">
  <metadata
     id="metadata10">
    <rdf:RDF>
      <cc:Work
         rdf:about="">
        <dc:format>image/svg+xml</dc:format>
        <dc:type
           rdf:resource="http://purl.org/dc/dcmitype/StillImage" />
        <dc:title></dc:title>
      </cc:Work>
    </rdf:RDF>
  </metadata>
  <sodipodi:namedview
     pagecolor="#ffffff"
     bordercolor="#666666"
     borderopacity="1"
     objecttolerance="10"
     gridtolerance="10"
     guidetolerance="10"
     inkscape:pageopacity="0"
     inkscape:pageshadow="2"
     inkscape:window-width="1366"
     inkscape:window-height="704"
     id="namedview8"
     showgrid="false"
     inkscape:zoom="14.75"
     inkscape:cx="-16.135593"
     inkscape:cy="7.9661017"
     inkscape:window-x="0"
     inkscape:window-y="30"
     inkscape:window-maximized="1"
     inkscape:current-layer="svg6" />
  <defs
     id="defs2">
    <style
       type="text/css"
       id="current-color-scheme">
      .ColorScheme-Text {
        color:#122036;
      }
      </style>
  </defs>
  <path
     d="m8 293.76664c-3.8779999 0-6.9999999 3.12201-6.9999999 6.99999 0 3.87802 3.122 7.00003 7 7.00003 3.8779999 0 6.9999999-3.12201 6.9999999-7.00003 0-3.87798-3.122-6.99999-7-6.99999zm0 3c .553999 0 1 .44603 1 .99999v3h1a1.0001 1.0001 0 0 1  .707031 1.70706l-1.9999999 1.99998a1.0001 1.0001 0 0 1 -1.4140621 0l-2-1.99998a1.0001 1.0001 0 0 1  .7070311-1.70707h1v-3c0-.55396.446001-.99999.9999999-.99998z"
     fill="currentColor"
     transform="translate(0 -292.76665)"
     style="fill:#444444;fill-opacity:1;stroke:none"
     class="ColorScheme-Text"
     id="path4" />
</svg>
