<?xml version="1.0" encoding="UTF-8" standalone="no"?>
<svg
   xmlns:dc="http://purl.org/dc/elements/1.1/"
   xmlns:cc="http://creativecommons.org/ns#"
   xmlns:rdf="http://www.w3.org/1999/02/22-rdf-syntax-ns#"
   xmlns:svg="http://www.w3.org/2000/svg"
   xmlns="http://www.w3.org/2000/svg"
   xmlns:sodipodi="http://sodipodi.sourceforge.net/DTD/sodipodi-0.dtd"
   xmlns:inkscape="http://www.inkscape.org/namespaces/inkscape"
   height="15.997"
   width="16.002"
   version="1.1"
   id="svg6"
   sodipodi:docname="folder-remote-symbolic.svg"
   inkscape:version="0.92.3 (2405546, 2018-03-11)">
  <metadata
     id="metadata12">
    <rdf:RDF>
      <cc:Work
         rdf:about="">
        <dc:format>image/svg+xml</dc:format>
        <dc:type
           rdf:resource="http://purl.org/dc/dcmitype/StillImage" />
        <dc:title></dc:title>
      </cc:Work>
    </rdf:RDF>
  </metadata>
  <defs
     id="defs10" />
  <sodipodi:namedview
     pagecolor="#ffffff"
     bordercolor="#666666"
     borderopacity="1"
     objecttolerance="10"
     gridtolerance="10"
     guidetolerance="10"
     inkscape:pageopacity="0"
     inkscape:pageshadow="2"
     inkscape:window-width="1366"
     inkscape:window-height="704"
     id="namedview8"
     showgrid="false"
     inkscape:zoom="14.752766"
     inkscape:cx="0.84979925"
     inkscape:cy="7.9984999"
     inkscape:window-x="0"
     inkscape:window-y="30"
     inkscape:window-maximized="1"
     inkscape:current-layer="svg6" />
  <g
     transform="translate(-991.998 -459.951)"
     id="g4"
     style="fill:#444444;fill-opacity:1">
    <path
       color="#000"
       d="M1001.362 462.13c-1.516 0-2.828.887-3.479 2.174a2.667 2.667 0 0 0-1.457-.434c-1.505 0-2.724 1.245-2.724 2.782 0 .245.038.48.096.707a4.196 4.196 0 0 0-1.798 3.467c0 2.312 1.822 4.174 4.085 4.174h7.83c2.263 0 4.085-1.862 4.085-4.174 0-1.846-1.167-3.403-2.787-3.956.044-.24.064-.487.064-.74 0-2.209-1.753-4-3.915-4z"
       fill="#666"
       overflow="visible"
       style="marker:none;fill:#444444;fill-opacity:1"
       id="path2" />
  </g>
</svg>
