<?xml version="1.0" encoding="UTF-8" standalone="no"?>
<svg
   xmlns:dc="http://purl.org/dc/elements/1.1/"
   xmlns:cc="http://creativecommons.org/ns#"
   xmlns:rdf="http://www.w3.org/1999/02/22-rdf-syntax-ns#"
   xmlns:svg="http://www.w3.org/2000/svg"
   xmlns="http://www.w3.org/2000/svg"
   xmlns:sodipodi="http://sodipodi.sourceforge.net/DTD/sodipodi-0.dtd"
   xmlns:inkscape="http://www.inkscape.org/namespaces/inkscape"
   width="16"
   height="16"
   version="1"
   id="svg24"
   sodipodi:docname="start-here-windows-symbolic.svg"
   inkscape:version="1.0.1 (3bc2e813f5, 2020-09-07)">
  <metadata
     id="metadata30">
    <rdf:RDF>
      <cc:Work
         rdf:about="">
        <dc:format>image/svg+xml</dc:format>
        <dc:type
           rdf:resource="http://purl.org/dc/dcmitype/StillImage" />
        <dc:title></dc:title>
      </cc:Work>
    </rdf:RDF>
  </metadata>
  <defs
     id="defs28" />
  <sodipodi:namedview
     pagecolor="#ffffff"
     bordercolor="#666666"
     borderopacity="1"
     objecttolerance="10"
     gridtolerance="10"
     guidetolerance="10"
     inkscape:pageopacity="0"
     inkscape:pageshadow="2"
     inkscape:window-width="1920"
     inkscape:window-height="1000"
     id="namedview26"
     showgrid="false"
     inkscape:zoom="17.383042"
     inkscape:cx="0.89256584"
     inkscape:cy="12.961074"
     inkscape:window-x="0"
     inkscape:window-y="0"
     inkscape:window-maximized="1"
     inkscape:current-layer="g838"
     inkscape:document-rotation="0" />
  <g
     id="g838"
     style="opacity:1;fill:#444444;fill-opacity:1;stroke:none"
     transform="matrix(0.83333326,0,0,0.83333326,1.3333339,1.3330748)">
    <path
       id="path840"
       style="color:#000000;font-style:normal;font-variant:normal;font-weight:normal;font-stretch:normal;font-size:medium;line-height:normal;font-family:sans-serif;font-variant-ligatures:normal;font-variant-position:normal;font-variant-caps:normal;font-variant-numeric:normal;font-variant-alternates:normal;font-variant-east-asian:normal;font-feature-settings:normal;font-variation-settings:normal;text-indent:0;text-align:start;text-decoration:none;text-decoration-line:none;text-decoration-style:solid;text-decoration-color:#000000;letter-spacing:normal;word-spacing:normal;text-transform:none;writing-mode:lr-tb;direction:ltr;text-orientation:mixed;dominant-baseline:auto;baseline-shift:baseline;text-anchor:start;white-space:normal;shape-padding:0;shape-margin:0;inline-size:0;clip-rule:nonzero;display:inline;overflow:visible;visibility:visible;isolation:auto;mix-blend-mode:normal;color-interpolation:sRGB;color-interpolation-filters:linearRGB;solid-color:#000000;solid-opacity:1;vector-effect:none;fill:#444444;fill-opacity:1;fill-rule:nonzero;stroke:none;stroke-width:1.4;stroke-linecap:round;stroke-linejoin:round;stroke-miterlimit:4;stroke-dasharray:none;stroke-dashoffset:0;stroke-opacity:1;color-rendering:auto;image-rendering:auto;shape-rendering:auto;text-rendering:auto;enable-background:accumulate;stop-color:#000000;stop-opacity:1"
       d="m 15.717497,-0.7508653 a 0.70006973,0.70006973 0 0 0 -0.144375,0.013132 L 8.574219,0.5353844 A 0.70006973,0.70006973 0 0 0 8,1.2211656 v 5.7290605 a 0.70006973,0.70006973 0 0 0 0.698906,0.6989061 h 7.002184 a 0.70006973,0.70006973 0 0 0 0.698907,-0.6989061 v -6.998904 a 0.70006973,0.70006973 0 0 0 -0.6825,-0.7021874 z M 5.9164069,1.0341342 a 0.70006973,0.70006973 0 0 0 -0.1410938,0.00984 L 0.17422121,2.0611653 a 0.70006973,0.70006973 0 0 0 -0.5742186,0.6890622 v 4.1999986 a 0.70006973,0.70006973 0 0 0 0.6989059,0.6989061 H 5.9000006 A 0.70006973,0.70006973 0 0 0 6.5989066,6.9502261 V 1.7330402 A 0.70006973,0.70006973 0 0 0 5.9164069,1.0341342 Z m -5.61749839,8.016091 a 0.70006973,0.70006973 0 0 0 -0.6989059,0.698906 v 4.1999998 a 0.70006973,0.70006973 0 0 0 0.6037498,0.695625 L 5.8048444,15.406005 A 0.70006973,0.70006973 0 0 0 6.5989066,14.716944 V 9.7491312 a 0.70006973,0.70006973 0 0 0 -0.698906,-0.698906 z m 8.39999749,0 A 0.70006973,0.70006973 0 0 0 8,9.7491312 v 5.3451558 a 0.70006973,0.70006973 0 0 0 0.60375,0.695625 l 6.998905,0.954843 a 0.70006973,0.70006973 0 0 0 0.797342,-0.695624 V 9.7491312 A 0.70006973,0.70006973 0 0 0 15.70109,9.0502252 Z" />
  </g>
</svg>
