<?xml version="1.0" encoding="UTF-8" standalone="no"?>
<svg
   xmlns:dc="http://purl.org/dc/elements/1.1/"
   xmlns:cc="http://creativecommons.org/ns#"
   xmlns:rdf="http://www.w3.org/1999/02/22-rdf-syntax-ns#"
   xmlns:svg="http://www.w3.org/2000/svg"
   xmlns="http://www.w3.org/2000/svg"
   xmlns:sodipodi="http://sodipodi.sourceforge.net/DTD/sodipodi-0.dtd"
   xmlns:inkscape="http://www.inkscape.org/namespaces/inkscape"
   width="16"
   height="16"
   version="1"
   id="svg24"
   sodipodi:docname="start-here-windows10-symbolic.svg"
   inkscape:version="1.0.1 (3bc2e813f5, 2020-09-07)">
  <metadata
     id="metadata30">
    <rdf:RDF>
      <cc:Work
         rdf:about="">
        <dc:format>image/svg+xml</dc:format>
        <dc:type
           rdf:resource="http://purl.org/dc/dcmitype/StillImage" />
        <dc:title />
      </cc:Work>
    </rdf:RDF>
  </metadata>
  <defs
     id="defs28" />
  <sodipodi:namedview
     pagecolor="#ffffff"
     bordercolor="#666666"
     borderopacity="1"
     objecttolerance="10"
     gridtolerance="10"
     guidetolerance="10"
     inkscape:pageopacity="0"
     inkscape:pageshadow="2"
     inkscape:window-width="1920"
     inkscape:window-height="1000"
     id="namedview26"
     showgrid="false"
     inkscape:zoom="17.383042"
     inkscape:cx="0.89256584"
     inkscape:cy="12.961074"
     inkscape:window-x="0"
     inkscape:window-y="0"
     inkscape:window-maximized="1"
     inkscape:current-layer="g838"
     inkscape:document-rotation="0" />
  <g
     id="g838"
     style="opacity:1;fill:#444444;fill-opacity:1;stroke:none"
     transform="matrix(0.83333326,0,0,0.83333326,1.3333339,1.3330748)">
    <path
       id="path840"
       style="color:#000000;font-style:normal;font-variant:normal;font-weight:normal;font-stretch:normal;font-size:medium;line-height:normal;font-family:sans-serif;font-variant-ligatures:normal;font-variant-position:normal;font-variant-caps:normal;font-variant-numeric:normal;font-variant-alternates:normal;font-variant-east-asian:normal;font-feature-settings:normal;font-variation-settings:normal;text-indent:0;text-align:start;text-decoration:none;text-decoration-line:none;text-decoration-style:solid;text-decoration-color:#000000;letter-spacing:normal;word-spacing:normal;text-transform:none;writing-mode:lr-tb;direction:ltr;text-orientation:mixed;dominant-baseline:auto;baseline-shift:baseline;text-anchor:start;white-space:normal;shape-padding:0;shape-margin:0;inline-size:0;clip-rule:nonzero;display:inline;overflow:visible;visibility:visible;isolation:auto;mix-blend-mode:normal;color-interpolation:sRGB;color-interpolation-filters:linearRGB;solid-color:#000000;solid-opacity:1;vector-effect:none;fill:#444444;fill-opacity:1;fill-rule:nonzero;stroke:none;stroke-width:1;stroke-linecap:round;stroke-linejoin:round;stroke-miterlimit:4;stroke-dasharray:none;stroke-dashoffset:0;stroke-opacity:1;color-rendering:auto;image-rendering:auto;shape-rendering:auto;text-rendering:auto;enable-background:accumulate;stop-color:#000000;stop-opacity:1"
       d="m 13.5125,1.7494686 a 0.50005,0.50005 0 0 0 -0.103125,0.00938 L 8.4101564,2.6682187 A 0.50005,0.50005 0 0 0 8.0000001,3.1580626 V 7.2502503 A 0.50005,0.50005 0 0 0 8.4992188,7.7494691 H 13.500781 A 0.50005,0.50005 0 0 0 14,7.2502503 V 2.2510312 A 0.50005,0.50005 0 0 0 13.5125,1.7494686 Z M 6.5117187,3.0244687 a 0.50005,0.50005 0 0 0 -0.1007813,0.00703 L 2.4101559,3.7580626 A 0.50005,0.50005 0 0 0 1.9999996,4.2502501 V 7.2502503 A 0.50005,0.50005 0 0 0 2.4992183,7.7494691 H 6.4999999 A 0.50005,0.50005 0 0 0 6.9992187,7.2502503 V 3.5236875 a 0.50005,0.50005 0 0 0 -0.4875,-0.4992188 z M 2.4992183,8.7502505 A 0.50005,0.50005 0 0 0 1.9999996,9.2494692 V 12.24947 a 0.50005,0.50005 0 0 0 0.43125,0.496875 l 4.0007816,0.54375 A 0.50005,0.50005 0 0 0 6.9992187,12.797908 V 9.2494692 A 0.50005,0.50005 0 0 0 6.4999999,8.7502505 Z m 6.0000005,0 A 0.50005,0.50005 0 0 0 8.0000001,9.2494692 v 3.8179698 a 0.50005,0.50005 0 0 0 0.43125,0.496875 L 13.43047,14.246345 A 0.50005,0.50005 0 0 0 14,13.749471 V 9.2494692 A 0.50005,0.50005 0 0 0 13.500781,8.7502505 Z" />
  </g>
</svg>
