<?xml version="1.0" encoding="UTF-8" standalone="no"?>
<svg
   xmlns:dc="http://purl.org/dc/elements/1.1/"
   xmlns:cc="http://creativecommons.org/ns#"
   xmlns:rdf="http://www.w3.org/1999/02/22-rdf-syntax-ns#"
   xmlns:svg="http://www.w3.org/2000/svg"
   xmlns="http://www.w3.org/2000/svg"
   xmlns:xlink="http://www.w3.org/1999/xlink"
   xmlns:sodipodi="http://sodipodi.sourceforge.net/DTD/sodipodi-0.dtd"
   xmlns:inkscape="http://www.inkscape.org/namespaces/inkscape"
   inkscape:version="1.0.1 (3bc2e813f5, 2020-09-07)"
   sodipodi:docname="1password.svg"
   id="svg18"
   version="1.1"
   height="32"
   width="32">
  <metadata
     id="metadata24">
    <rdf:RDF>
      <cc:Work
         rdf:about="">
        <dc:format>image/svg+xml</dc:format>
        <dc:type
           rdf:resource="http://purl.org/dc/dcmitype/StillImage" />
      </cc:Work>
    </rdf:RDF>
  </metadata>
  <defs
     id="defs22">
    <linearGradient
       id="linearGradient1005"
       inkscape:collect="always">
      <stop
         id="stop1001"
         offset="0"
         style="stop-color:#515b63;stop-opacity:1" />
      <stop
         id="stop1003"
         offset="1"
         style="stop-color:#394045;stop-opacity:1" />
    </linearGradient>
    <linearGradient
       id="linearGradient861"
       inkscape:collect="always">
      <stop
         id="stop857"
         offset="0"
         style="stop-color:#0076e2;stop-opacity:1;" />
      <stop
         id="stop859"
         offset="1"
         style="stop-color:#22baff;stop-opacity:1" />
    </linearGradient>
    <linearGradient
       id="linearGradient853"
       inkscape:collect="always">
      <stop
         id="stop849"
         offset="0"
         style="stop-color:#000000;stop-opacity:1;" />
      <stop
         id="stop851"
         offset="1"
         style="stop-color:#000000;stop-opacity:0;" />
    </linearGradient>
    <linearGradient
       gradientUnits="userSpaceOnUse"
       y2="20"
       x2="16"
       y1="12"
       x1="16"
       id="linearGradient855"
       xlink:href="#linearGradient853"
       inkscape:collect="always" />
    <linearGradient
       gradientTransform="matrix(0.92857143,0,0,0.92857143,23.799026,55.385079)"
       gradientUnits="userSpaceOnUse"
       y2="-28.4147"
       x2="-8.3989506"
       y1="-56.4147"
       x1="-8.3989506"
       id="linearGradient949"
       xlink:href="#linearGradient861"
       inkscape:collect="always" />
    <filter
       height="1.024"
       y="-0.012"
       width="1.024"
       x="-0.012"
       id="filter993"
       style="color-interpolation-filters:sRGB"
       inkscape:collect="always">
      <feGaussianBlur
         id="feGaussianBlur995"
         stdDeviation="0.08"
         inkscape:collect="always" />
    </filter>
    <radialGradient
       gradientUnits="userSpaceOnUse"
       gradientTransform="matrix(1,0,0,3,0,-32)"
       r="2"
       fy="16"
       fx="16"
       cy="16"
       cx="16"
       id="radialGradient1007"
       xlink:href="#linearGradient1005"
       inkscape:collect="always" />
    <filter
       inkscape:collect="always"
       style="color-interpolation-filters:sRGB"
       id="filter17686"
       x="-0.075"
       width="1.15"
       y="-0.075"
       height="1.15">
      <feGaussianBlur
         inkscape:collect="always"
         stdDeviation="0.875"
         id="feGaussianBlur17688" />
    </filter>
  </defs>
  <sodipodi:namedview
     inkscape:current-layer="svg18"
     inkscape:window-maximized="1"
     inkscape:window-y="0"
     inkscape:window-x="0"
     inkscape:cy="18.119791"
     inkscape:cx="7.7311409"
     inkscape:zoom="16.83798"
     showgrid="false"
     id="namedview20"
     inkscape:window-height="1000"
     inkscape:window-width="1920"
     inkscape:pageshadow="2"
     inkscape:pageopacity="0"
     guidetolerance="10"
     gridtolerance="10"
     objecttolerance="10"
     borderopacity="1"
     bordercolor="#666666"
     pagecolor="#ffffff"
     inkscape:document-rotation="0" />
  <circle
     id="circle4-6-9"
     r="13"
     cy="16"
     cx="16"
     style="fill:url(#linearGradient949);fill-opacity:1;stroke-width:0.928571" />
  <path
     id="circle4-6-6"
     style="opacity:0.3;fill:#000000;fill-opacity:1;filter:url(#filter993)"
     d="m 16,8.192 c -1.108518,0 -2.163247,0.223365 -3.121094,0.626953 -0.957847,0.403589 -1.820098,0.988067 -2.542969,1.710938 -0.72287,0.72287 -1.305396,1.585122 -1.708984,2.542969 C 8.223365,14.030707 8,15.083483 8,16.192 c 0,1.108518 0.223365,2.163247 0.626953,3.121094 0.403588,0.957847 0.986114,1.820098 1.708984,2.542969 0.722871,0.72287 1.585122,1.307349 2.542969,1.710937 0.957847,0.403589 2.012577,0.625 3.121094,0.625 1.108518,0 2.163247,-0.221411 3.121094,-0.625 0.957847,-0.403588 1.818145,-0.988067 2.541015,-1.710937 0.722871,-0.722871 1.30735,-1.585122 1.710938,-2.542969 C 23.776635,18.355247 24,17.300518 24,16.192 24,15.083483 23.776635,14.030707 23.373047,13.07286 22.969459,12.115013 22.38498,11.252761 21.662109,10.529891 20.939239,9.80702 20.078941,9.222542 19.121094,8.818953 18.163247,8.415365 17.108517,8.192 16,8.192 Z" />
  <path
     d="M 16,8 C 14.891482,8 13.836753,8.223365 12.878906,8.626953 11.921059,9.030542 11.058808,9.61502 10.335937,10.337891 9.613067,11.060761 9.030541,11.923013 8.626953,12.88086 8.223365,13.838707 8,14.891483 8,16 c 0,1.108518 0.223365,2.163247 0.626953,3.121094 0.403588,0.957847 0.986114,1.820098 1.708984,2.542969 0.722871,0.72287 1.585122,1.307349 2.542969,1.710937 C 13.836753,23.778589 14.891483,24 16,24 c 1.108518,0 2.163247,-0.221411 3.121094,-0.625 0.957847,-0.403588 1.818145,-0.988067 2.541015,-1.710937 0.722871,-0.722871 1.30735,-1.585122 1.710938,-2.542969 C 23.776635,18.163247 24,17.108518 24,16 24,14.891483 23.776635,13.838707 23.373047,12.88086 22.969459,11.923013 22.38498,11.060761 21.662109,10.337891 20.939239,9.61502 20.078941,9.030542 19.121094,8.626953 18.163247,8.223365 17.108517,8 16,8 Z"
     style="fill:#e4e4e4"
     id="circle4-6" />
  <circle
     id="circle6"
     r="4"
     cy="16"
     cx="16"
     style="opacity:0.2;fill-opacity:1;fill:url(#linearGradient855)" />
  <path
     id="path10"
     d="M 14.666667,10 C 14.297333,10 14,10.297333 14,10.666667 v 2.701823 c 0,0 0.722656,0.63512 0.722656,1.063802 0,0.42868 -0.722656,1.063802 -0.722656,1.063802 v 5.837239 C 14,21.702667 14.297333,22 14.666667,22 h 2.666666 C 17.702667,22 18,21.702667 18,21.333333 v -2.691405 l -0.0066,-0.0091 c 0,0 -0.753784,-0.662275 -0.753906,-1.109375 -8.4e-5,-0.447431 0.753944,-1.110648 0.753944,-1.110648 L 18,16.403646 V 10.666667 C 18,10.297333 17.702667,10 17.333333,10 Z"
     style="fill:url(#radialGradient1007);fill-opacity:1" />
  <path
     id="path938-0"
     style="opacity:0.5;fill:#000000;fill-opacity:1;filter:url(#filter17686)"
     d="m 16,2.3 a 14,14 0 0 0 -14,14 14,14 0 0 0 14,14 14,14 0 0 0 14,-14 14,14 0 0 0 -14,-14 z m 0,3 c 1.514712,0 2.960132,0.309285 4.275391,0.867188 1.315258,0.557902 2.499771,1.365006 3.496093,2.361328 0.996322,0.996322 1.803426,2.182788 2.361329,3.498047 C 26.690715,13.341821 27,14.785289 27,16.3 c 0,1.514712 -0.309285,2.960132 -0.867187,4.275391 -0.557903,1.315258 -1.365007,2.501725 -2.361329,3.498047 -0.996322,0.996322 -2.180835,1.803425 -3.496093,2.361328 C 18.960132,26.992668 17.514712,27.3 16,27.3 14.485288,27.3 13.039868,26.992668 11.724609,26.434766 10.409351,25.876863 9.224838,25.06976 8.228516,24.073438 7.232194,23.077116 6.42509,21.890649 5.867187,20.575391 5.309285,19.260132 5,17.814712 5,16.3 5,14.785289 5.309285,13.341821 5.867187,12.026563 6.42509,10.711304 7.232194,9.524838 8.228516,8.528516 9.224838,7.532194 10.409351,6.72509 11.724609,6.167188 13.039868,5.609285 14.485288,5.3 16,5.3 Z" />
  <path
     d="M 16,1.9999999 A 14,14 0 0 0 2,16 14,14 0 0 0 16,30 14,14 0 0 0 30,16 14,14 0 0 0 16,1.9999999 Z m 0,3 c 1.514712,0 2.960132,0.309285 4.275391,0.867188 1.315258,0.557902 2.499771,1.365006 3.496093,2.361328 0.996322,0.996322 1.803426,2.1827881 2.361329,3.4980471 C 26.690715,13.041821 27,14.485289 27,16 c 0,1.514712 -0.309285,2.960132 -0.867187,4.275391 -0.557903,1.315258 -1.365007,2.501725 -2.361329,3.498047 -0.996322,0.996322 -2.180835,1.803425 -3.496093,2.361328 C 18.960132,26.692668 17.514712,27 16,27 14.485288,27 13.039868,26.692668 11.724609,26.134766 10.409351,25.576863 9.224838,24.76976 8.228516,23.773438 7.232194,22.777116 6.42509,21.590649 5.867187,20.275391 5.309285,18.960132 5,17.514712 5,16 5,14.485289 5.309285,13.041821 5.867187,11.726563 6.42509,10.411304 7.232194,9.2248379 8.228516,8.2285159 9.224838,7.2321939 10.409351,6.4250899 11.724609,5.8671879 13.039868,5.3092849 14.485288,4.9999999 16,4.9999999 Z"
     style="fill:#e4e4e4"
     id="path938" />
</svg>
