<?xml version="1.0" encoding="UTF-8" standalone="no"?>
<svg
   xmlns:dc="http://purl.org/dc/elements/1.1/"
   xmlns:cc="http://creativecommons.org/ns#"
   xmlns:rdf="http://www.w3.org/1999/02/22-rdf-syntax-ns#"
   xmlns:svg="http://www.w3.org/2000/svg"
   xmlns="http://www.w3.org/2000/svg"
   xmlns:sodipodi="http://sodipodi.sourceforge.net/DTD/sodipodi-0.dtd"
   xmlns:inkscape="http://www.inkscape.org/namespaces/inkscape"
   inkscape:version="1.0.1 (3bc2e813f5, 2020-09-07)"
   sodipodi:docname="4diac-ide.svg"
   id="svg20"
   version="1"
   height="32"
   width="32">
  <metadata
     id="metadata26">
    <rdf:RDF>
      <cc:Work
         rdf:about="">
        <dc:format>image/svg+xml</dc:format>
        <dc:type
           rdf:resource="http://purl.org/dc/dcmitype/StillImage" />
      </cc:Work>
    </rdf:RDF>
  </metadata>
  <defs
     id="defs24">
    <filter
       height="1.15"
       y="-0.075000003"
       width="1.15"
       x="-0.074999997"
       id="filter905"
       style="color-interpolation-filters:sRGB"
       inkscape:collect="always">
      <feGaussianBlur
         id="feGaussianBlur907"
         stdDeviation="0.87500004"
         inkscape:collect="always" />
    </filter>
  </defs>
  <sodipodi:namedview
     inkscape:current-layer="svg20"
     inkscape:window-maximized="1"
     inkscape:window-y="0"
     inkscape:window-x="0"
     inkscape:cy="21.765478"
     inkscape:cx="11.071092"
     inkscape:zoom="16.83798"
     showgrid="false"
     id="namedview22"
     inkscape:window-height="1000"
     inkscape:window-width="1920"
     inkscape:pageshadow="2"
     inkscape:pageopacity="0"
     guidetolerance="10"
     gridtolerance="10"
     objecttolerance="10"
     borderopacity="1"
     bordercolor="#666666"
     pagecolor="#ffffff"
     inkscape:document-rotation="0" />
  <path
     d="m 3.4049037,2 c -0.7756,0 -1.399245,0.6255315 -1.399245,1.4011315 v 4.3919718 h -0.00566 v 3.8620687 h 0.00566 v 2.896552 h -0.00566 v 0.965517 h 0.00566 v 1.931035 h -0.00566 v 0.965517 h 0.00566 v 1.931034 h -0.00566 v 0.965518 h 0.00566 v 7.290409 c 0,0.7756 0.623645,1.399246 1.399245,1.399246 h 20.3003773 4.363685 v -2.896552 h 1.931035 V 22.300377 H 28.068966 V 2 h -2.268588 -2.095097 z"
     style="opacity:0.5;mix-blend-mode:normal;fill:#000000;fill-opacity:1;stroke-width:0.965517;filter:url(#filter905)"
     id="rect4-3" />
  <rect
     id="rect4"
     transform="matrix(0,-1,-1,0,0,0)"
     ry="1.4000001"
     rx="1.4000001"
     y="-25.104828"
     x="-30"
     height="23.099998"
     width="28"
     style="fill:#1e3d7d;stroke-width:0.965517" />
  <path
     id="path10"
     d="M 25.1,5.5 V 24.4 H 14.6 Z"
     style="fill:#ffffff;stroke-width:0.965517" />
  <path
     id="path12"
     d="M 2,7.7931034 V 11.655172 H 5.862069 V 7.7931034 Z m 0,6.7586206 v 0.965517 h 15.448276 v -0.965517 z m 0,2.896552 v 0.965517 h 15.448276 v -0.965517 z m 0,2.896552 v 0.965517 h 15.448276 v -0.965517 z"
     style="fill:#ffffff;stroke-width:0.965517" />
  <path
     id="path16"
     d="M 23.410157,2 11.655172,23.370508 v 3.73294 H 23.241379 V 30 h 4.827587 V 27.103448 H 30 V 22.3 H 28.068966 V 2 H 25.8 Z m -0.168778,8.689655 V 22.3 h -5.793103 z"
     style="fill:#ff950e;stroke-width:0.965517" />
</svg>
