<?xml version="1.0" encoding="UTF-8" standalone="no"?>
<svg
   xmlns:dc="http://purl.org/dc/elements/1.1/"
   xmlns:cc="http://creativecommons.org/ns#"
   xmlns:rdf="http://www.w3.org/1999/02/22-rdf-syntax-ns#"
   xmlns:svg="http://www.w3.org/2000/svg"
   xmlns="http://www.w3.org/2000/svg"
   xmlns:sodipodi="http://sodipodi.sourceforge.net/DTD/sodipodi-0.dtd"
   xmlns:inkscape="http://www.inkscape.org/namespaces/inkscape"
   inkscape:version="1.0.1 (3bc2e813f5, 2020-09-07)"
   sodipodi:docname="4kslideshowmaker.svg"
   id="svg28"
   version="1.1"
   viewBox="0 0 32 32"
   height="32"
   width="32">
  <metadata
     id="metadata34">
    <rdf:RDF>
      <cc:Work
         rdf:about="">
        <dc:format>image/svg+xml</dc:format>
        <dc:type
           rdf:resource="http://purl.org/dc/dcmitype/StillImage" />
        <dc:title>CFD93243-ECA7-4A15-8DB1-06FB7C510530</dc:title>
      </cc:Work>
    </rdf:RDF>
  </metadata>
  <defs
     id="defs32">
    <filter
       inkscape:collect="always"
       style="color-interpolation-filters:sRGB"
       id="filter17682"
       x="-0.075"
       width="1.15"
       y="-0.075"
       height="1.15">
      <feGaussianBlur
         inkscape:collect="always"
         stdDeviation="0.875"
         id="feGaussianBlur17684" />
    </filter>
  </defs>
  <sodipodi:namedview
     inkscape:current-layer="svg28"
     inkscape:window-maximized="1"
     inkscape:window-y="0"
     inkscape:window-x="0"
     inkscape:cy="13.749458"
     inkscape:cx="-3.5982701"
     inkscape:zoom="8.2826087"
     showgrid="false"
     id="namedview30"
     inkscape:window-height="1000"
     inkscape:window-width="1920"
     inkscape:pageshadow="2"
     inkscape:pageopacity="0"
     guidetolerance="10"
     gridtolerance="10"
     objecttolerance="10"
     borderopacity="1"
     bordercolor="#666666"
     pagecolor="#ffffff"
     inkscape:document-rotation="0" />
  <title
     id="title24">CFD93243-ECA7-4A15-8DB1-06FB7C510530</title>
  <circle
     style="opacity:0.5;fill:#000000;fill-opacity:1;stroke-width:0.825056;filter:url(#filter17682)"
     id="path3202-6"
     cx="16"
     cy="16"
     r="14" />
  <circle
     r="14"
     cy="16"
     cx="16"
     id="path3202"
     style="opacity:1;fill:#f12733;stroke-width:0.825056;fill-opacity:1" />
  <path
     style="stroke-width:0.571429"
     id="path26"
     fill-rule="evenodd"
     fill="#ffffff"
     d="m 20.444571,14.830571 -1.04,-1.043428 -2.865142,2.871428 -1.056,-1.058857 -2.402286,2.407429 -1.036572,-1.04 -2.034285,2.04 H 20.444571 V 14.83 Z m -8.667428,-0.501143 c 0.614286,0 1.112,-0.498285 1.112,-1.114285 0,-0.614286 -0.497143,-1.113143 -1.111429,-1.113143 -0.613143,0 -1.110285,0.498857 -1.110285,1.114286 0,0.614857 0.497142,1.113142 1.110857,1.113142 z m 12,-3.118285 h -0.888 V 21.456857 H 9.7771429 v 0.891429 c 0,0.122857 0.1,0.222857 0.2228571,0.222857 h 13.777143 c 0.123428,0 0.222857,-0.1 0.222857,-0.222857 V 11.433428 c 0,-0.122857 -0.09943,-0.222857 -0.222857,-0.222857 z M 9.1114286,19.674571 H 21.111429 V 10.543143 H 9.1114286 Z M 22.222857,20.566 V 9.6517141 C 22.222857,9.528857 22.122857,9.428857 22,9.428857 H 8.2228571 C 8.0988571,9.428857 8,9.528857 8,9.6517141 V 20.567143 C 8,20.69 8.099429,20.79 8.2228571,20.79 H 22 c 0.122857,0 0.222857,-0.1 0.222857,-0.222857 z" />
</svg>
