<?xml version="1.0" encoding="UTF-8" standalone="no"?>
<svg
   xmlns:dc="http://purl.org/dc/elements/1.1/"
   xmlns:cc="http://creativecommons.org/ns#"
   xmlns:rdf="http://www.w3.org/1999/02/22-rdf-syntax-ns#"
   xmlns:svg="http://www.w3.org/2000/svg"
   xmlns="http://www.w3.org/2000/svg"
   xmlns:sodipodi="http://sodipodi.sourceforge.net/DTD/sodipodi-0.dtd"
   xmlns:inkscape="http://www.inkscape.org/namespaces/inkscape"
   width="32"
   height="32"
   viewBox="0 0 32 32"
   version="1.1"
   id="svg4"
   sodipodi:docname="4kvideodownloader.svg"
   inkscape:version="1.0.1 (3bc2e813f5, 2020-09-07)">
  <metadata
     id="metadata10">
    <rdf:RDF>
      <cc:Work
         rdf:about="">
        <dc:format>image/svg+xml</dc:format>
        <dc:type
           rdf:resource="http://purl.org/dc/dcmitype/StillImage" />
        <dc:title />
      </cc:Work>
    </rdf:RDF>
  </metadata>
  <defs
     id="defs8">
    <filter
       inkscape:collect="always"
       style="color-interpolation-filters:sRGB"
       id="filter17674"
       x="-0.075"
       width="1.15"
       y="-0.075"
       height="1.15">
      <feGaussianBlur
         inkscape:collect="always"
         stdDeviation="0.875"
         id="feGaussianBlur17676" />
    </filter>
  </defs>
  <sodipodi:namedview
     inkscape:document-rotation="0"
     pagecolor="#ffffff"
     bordercolor="#666666"
     borderopacity="1"
     objecttolerance="10"
     gridtolerance="10"
     guidetolerance="10"
     inkscape:pageopacity="0"
     inkscape:pageshadow="2"
     inkscape:window-width="1920"
     inkscape:window-height="1000"
     id="namedview6"
     showgrid="false"
     inkscape:zoom="11.785113"
     inkscape:cx="12.958161"
     inkscape:cy="13.471994"
     inkscape:window-x="0"
     inkscape:window-y="0"
     inkscape:window-maximized="1"
     inkscape:current-layer="svg4" />
  <circle
     r="14"
     cy="16"
     cx="16"
     id="path3295-7"
     style="opacity:0.5;fill:#000000;fill-opacity:1;stroke-width:0.592202;filter:url(#filter17674)" />
  <circle
     style="opacity:1;fill:#55a92b;stroke-width:0.592202;fill-opacity:1"
     id="path3295"
     cx="16"
     cy="16"
     r="14" />
  <path
     d="m 18.592714,17.023787 h -0.263458 a 0.04373188,0.04373188 0 0 0 -0.04426,0.0432 v 0.260258 c 0,0.024 0.01973,0.0432 0.04426,0.0432 h 0.263458 a 0.04373188,0.04373188 0 0 0 0.04426,-0.0432 v -0.260258 a 0.04373188,0.04373188 0 0 0 -0.04426,-0.0432 z m 0,0.69331 h -0.263458 a 0.04373188,0.04373188 0 0 0 -0.04426,0.04373 v 0.260258 c 0,0.02347 0.01973,0.0432 0.04426,0.0432 h 0.263458 a 0.04373188,0.04373188 0 0 0 0.04426,-0.0432 v -0.260256 a 0.04373188,0.04373188 0 0 0 -0.04426,-0.0432 z m 0,0.693843 h -0.263458 a 0.04373188,0.04373188 0 0 0 -0.04426,0.04373 v 0.260258 c 0,0.02347 0.01973,0.04266 0.04426,0.04266 h 0.263458 a 0.04373188,0.04373188 0 0 0 0.04426,-0.04266 V 18.45467 a 0.04373188,0.04373188 0 0 0 -0.04426,-0.04373 z m 0,-2.080997 h -0.263458 a 0.04373188,0.04373188 0 0 0 -0.04426,0.0432 v 0.260258 c 0,0.024 0.01973,0.0432 0.04426,0.0432 h 0.263458 a 0.04373188,0.04373188 0 0 0 0.04426,-0.04266 V 16.37315 a 0.04373188,0.04373188 0 0 0 -0.04426,-0.0432 z m 0.571714,2.90497 a 0.04373188,0.04373188 0 0 1 -0.04426,0.0432 h -6.241397 a 0.04373188,0.04373188 0 0 1 -0.04427,-0.04267 v -5.464351 c 0,-0.02347 0.02027,-0.0432 0.04427,-0.0432 h 6.241392 c 0.02453,0 0.04426,0.01973 0.04426,0.0432 v 5.463285 z m 2.103396,-4.71131 0.0011,-0.09173 c 0,-2.447918 -2.011666,-4.431852 -4.49265,-4.431852 a 4.5011833,4.5011833 0 0 0 -3.928436,2.27939 2.0404653,2.0404653 0 0 0 -0.277324,-0.0192 c -1.102896,0 -1.996733,0.882104 -1.996733,1.970068 0,0.106663 0.0085,0.210659 0.02507,0.312523 C 9.1231626,14.789728 8,16.056352 8,17.582701 c 0,1.702344 1.3988867,3.083097 3.125229,3.083097 h 9.752742 C 22.602713,20.663665 24,19.284511 24,17.582701 24,16.011554 22.808573,14.715064 21.268358,14.523603 Z m -2.67511,1.112497 h -0.263458 a 0.04373188,0.04373188 0 0 0 -0.04426,0.04373 v 0.259724 c 0,0.024 0.01973,0.04373 0.04426,0.04373 h 0.263458 a 0.04373188,0.04373188 0 0 0 0.04426,-0.04373 v -0.259725 a 0.04373188,0.04373188 0 0 0 -0.04426,-0.04373 z m 0,-1.387154 h -0.263458 a 0.04373188,0.04373188 0 0 0 -0.04426,0.04266 v 0.260791 c 0,0.02347 0.01973,0.0432 0.04426,0.0432 h 0.263458 a 0.04373188,0.04373188 0 0 0 0.04426,-0.0432 v -0.260258 a 0.04373188,0.04373188 0 0 0 -0.04426,-0.0432 z m 0,0.69331 h -0.263458 a 0.04373188,0.04373188 0 0 0 -0.04426,0.04373 v 0.260258 c 0,0.02347 0.01973,0.04266 0.04426,0.04266 h 0.263458 a 0.04373188,0.04373188 0 0 0 0.04426,-0.04266 v -0.260791 a 0.04373188,0.04373188 0 0 0 -0.04426,-0.04373 z M 13.670211,18.41094 H 13.40622 a 0.04373188,0.04373188 0 0 0 -0.04426,0.04373 v 0.260258 c 0,0.02347 0.02027,0.04266 0.04426,0.04266 h 0.263458 a 0.04373188,0.04373188 0 0 0 0.04427,-0.04266 V 18.45467 a 0.04373188,0.04373188 0 0 0 -0.04427,-0.04373 z m 0,-1.387153 H 13.40622 a 0.04373188,0.04373188 0 0 0 -0.04426,0.0432 v 0.260258 c 0,0.024 0.02027,0.0432 0.04426,0.0432 h 0.263458 a 0.04373188,0.04373188 0 0 0 0.04427,-0.0432 v -0.260259 a 0.04373188,0.04373188 0 0 0 -0.04427,-0.0432 z m 3.91187,-2.774841 h -3.165228 a 0.1749275,0.1749275 0 0 0 -0.175994,0.173327 v 1.647945 c 0,0.09493 0.08,0.172795 0.175994,0.172795 h 3.165228 a 0.17599413,0.17599413 0 0 0 0.175994,-0.173328 V 14.42174 a 0.1749275,0.1749275 0 0 0 -0.175994,-0.172794 z m -3.912403,2.080997 H 13.40622 a 0.04373188,0.04373188 0 0 0 -0.04426,0.0432 v 0.260258 c 0,0.024 0.02027,0.0432 0.04426,0.0432 h 0.263458 a 0.04373188,0.04373188 0 0 0 0.04427,-0.04266 V 16.37315 a 0.04373188,0.04373188 0 0 0 -0.04427,-0.0432 z m 0,1.387687 H 13.40622 a 0.04373188,0.04373188 0 0 0 -0.04426,0.0432 v 0.260258 c 0,0.02347 0.02027,0.0432 0.04426,0.0432 h 0.263458 a 0.04373188,0.04373188 0 0 0 0.04427,-0.0432 v -0.260259 a 0.04373188,0.04373188 0 0 0 -0.04427,-0.0432 z m 3.912403,-0.954101 h -3.165228 a 0.1749275,0.1749275 0 0 0 -0.175994,0.173327 v 1.647945 c 0,0.09546 0.08,0.173328 0.175994,0.173328 h 3.165228 a 0.17599413,0.17599413 0 0 0 0.175994,-0.173328 V 16.936856 A 0.1749275,0.1749275 0 0 0 17.582081,16.763529 Z M 13.669678,14.942256 H 13.40622 a 0.04373188,0.04373188 0 0 0 -0.04426,0.04373 v 0.260258 c 0,0.02347 0.02027,0.04266 0.04426,0.04266 h 0.263458 a 0.04373188,0.04373188 0 0 0 0.04427,-0.04266 v -0.260791 a 0.04373188,0.04373188 0 0 0 -0.04427,-0.04373 z m 0,0.693844 H 13.40622 a 0.04373188,0.04373188 0 0 0 -0.04426,0.04373 v 0.259724 c 0,0.024 0.02027,0.04373 0.04426,0.04373 h 0.263458 a 0.04373188,0.04373188 0 0 0 0.04427,-0.04373 v -0.259725 a 0.04373188,0.04373188 0 0 0 -0.04427,-0.04373 z m 0,-1.387154 H 13.40622 a 0.04373188,0.04373188 0 0 0 -0.04426,0.04266 v 0.260791 c 0,0.02347 0.02027,0.0432 0.04426,0.0432 h 0.263458 a 0.04373188,0.04373188 0 0 0 0.04427,-0.0432 v -0.260258 a 0.04373188,0.04373188 0 0 0 -0.04427,-0.0432 z"
     fill="#ffffff"
     fill-rule="evenodd"
     id="path2"
     style="stroke-width:0.533316" />
</svg>
