<?xml version="1.0" encoding="UTF-8" standalone="no"?>
<svg
   xmlns:dc="http://purl.org/dc/elements/1.1/"
   xmlns:cc="http://creativecommons.org/ns#"
   xmlns:rdf="http://www.w3.org/1999/02/22-rdf-syntax-ns#"
   xmlns:svg="http://www.w3.org/2000/svg"
   xmlns="http://www.w3.org/2000/svg"
   xmlns:sodipodi="http://sodipodi.sourceforge.net/DTD/sodipodi-0.dtd"
   xmlns:inkscape="http://www.inkscape.org/namespaces/inkscape"
   inkscape:version="1.0.1 (3bc2e813f5, 2020-09-07)"
   sodipodi:docname="4kvideotomp3.svg"
   id="svg16"
   version="1.1"
   viewBox="0 0 32 32"
   height="32"
   width="32">
  <metadata
     id="metadata22">
    <rdf:RDF>
      <cc:Work
         rdf:about="">
        <dc:format>image/svg+xml</dc:format>
        <dc:type
           rdf:resource="http://purl.org/dc/dcmitype/StillImage" />
        <dc:title>689E0086-CBFF-4ED5-923F-EE602A7A6F5C</dc:title>
      </cc:Work>
    </rdf:RDF>
  </metadata>
  <defs
     id="defs20">
    <filter
       inkscape:collect="always"
       style="color-interpolation-filters:sRGB"
       id="filter17670"
       x="-0.075"
       width="1.15"
       y="-0.075"
       height="1.15">
      <feGaussianBlur
         inkscape:collect="always"
         stdDeviation="0.875"
         id="feGaussianBlur17672" />
    </filter>
  </defs>
  <sodipodi:namedview
     inkscape:current-layer="svg16"
     inkscape:window-maximized="1"
     inkscape:window-y="0"
     inkscape:window-x="0"
     inkscape:cy="20.497892"
     inkscape:cx="6.2488411"
     inkscape:zoom="10.361834"
     showgrid="false"
     id="namedview18"
     inkscape:window-height="1000"
     inkscape:window-width="1920"
     inkscape:pageshadow="2"
     inkscape:pageopacity="0"
     guidetolerance="10"
     gridtolerance="10"
     objecttolerance="10"
     borderopacity="1"
     bordercolor="#666666"
     pagecolor="#ffffff"
     inkscape:document-rotation="0" />
  <title
     id="title12">689E0086-CBFF-4ED5-923F-EE602A7A6F5C</title>
  <circle
     style="opacity:0.5;fill:#000000;fill-opacity:1;stroke-width:1.50063;filter:url(#filter17670)"
     id="path3445-3"
     cx="16"
     cy="16"
     r="14" />
  <circle
     r="14"
     cy="16"
     cx="16"
     id="path3445"
     style="opacity:1;fill:#9c72d5;stroke-width:1.50063;fill-opacity:1" />
  <path
     style="stroke-width:0.533333"
     id="path14"
     fill-rule="evenodd"
     fill="#ffffff"
     d="M 23.498667,15.608266 22.363733,15.122934 V 14.644001 C 22.363733,11.145333 19.509333,8.3 16,8.3 c -3.509333,0 -6.3637333,2.845866 -6.3637333,6.344001 v 0.48 L 8.5013333,15.608266 C 8.224,15.726666 8,16.065867 8,16.3656 v 2.448 c 0,0.299733 0.224,0.64 0.5013333,0.757333 l 1.5429337,0.659734 c 0.277333,0.117332 0.501333,-0.02933 0.501333,-0.3296 v -5.257066 c 0,-2.9984 2.4464,-5.437334 5.4544,-5.437334 3.008,0 5.4544,2.438933 5.4544,5.437334 v 5.256533 c 0,0.300799 0.224,0.448 0.501333,0.330666 l 1.542934,-0.659732 C 23.776,19.454132 24,19.113866 24,18.814132 V 16.366133 C 24,16.066399 23.776,15.7272 23.498667,15.608801 m -5.317334,2.933332 c -0.501333,0 -0.9088,-0.405333 -0.9088,-0.906667 0,-0.500267 0.406934,-0.906666 0.909334,-0.906666 0.5024,0 0.909333,0.4064 0.909333,0.906666 0,0.501333 -0.406933,0.906667 -0.9088,0.906667 M 16,16.3656 c -0.5024,0 -0.909333,-0.405333 -0.909333,-0.9056 0,-0.501333 0.406933,-0.906666 0.909333,-0.906666 0.501333,0 0.909333,0.405333 0.909333,0.906666 0,0.500267 -0.407466,0.906667 -0.909333,0.906667 m -0.363733,1.268266 c 0,-0.2 0.162666,-0.362666 0.363733,-0.362666 0.200533,0 0.363733,0.162666 0.363733,0.362666 0,0.200533 -0.1632,0.362667 -0.363733,0.362667 -0.201067,0 -0.363733,-0.162134 -0.363733,-0.362667 M 16,20.715999 c -0.5024,0 -0.909333,-0.405332 -0.909333,-0.9056 0,-0.501333 0.406933,-0.906666 0.909333,-0.906666 0.501333,0 0.909333,0.405333 0.909333,0.906666 0,0.500268 -0.407466,0.906667 -0.909333,0.906667 m -2.181333,-2.176 c -0.5024,0 -0.909334,-0.405332 -0.909334,-0.906666 0,-0.499733 0.406934,-0.9056 0.9088,-0.9056 0.501334,0 0.9088,0.405334 0.9088,0.906666 0,0.500268 -0.406933,0.906667 -0.909333,0.906667 M 16,13.103201 c -2.5104,0 -4.5456,2.0288 -4.5456,4.531199 0,2.503467 2.0352,4.532267 4.5456,4.532267 2.5104,0 4.5456,-2.0288 4.5456,-4.531733 0,-2.5024 -2.0352,-4.5312 -4.5456,-4.5312" />
</svg>
