<?xml version="1.0" encoding="UTF-8" standalone="no"?>
<svg
   xmlns:dc="http://purl.org/dc/elements/1.1/"
   xmlns:cc="http://creativecommons.org/ns#"
   xmlns:rdf="http://www.w3.org/1999/02/22-rdf-syntax-ns#"
   xmlns:svg="http://www.w3.org/2000/svg"
   xmlns="http://www.w3.org/2000/svg"
   xmlns:sodipodi="http://sodipodi.sourceforge.net/DTD/sodipodi-0.dtd"
   xmlns:inkscape="http://www.inkscape.org/namespaces/inkscape"
   inkscape:version="1.0.1 (3bc2e813f5, 2020-09-07)"
   sodipodi:docname="abiword.svg"
   id="svg12"
   version="1.1"
   height="32"
   width="32">
  <metadata
     id="metadata18">
    <rdf:RDF>
      <cc:Work
         rdf:about="">
        <dc:format>image/svg+xml</dc:format>
        <dc:type
           rdf:resource="http://purl.org/dc/dcmitype/StillImage" />
      </cc:Work>
    </rdf:RDF>
  </metadata>
  <defs
     id="defs16">
    <filter
       inkscape:collect="always"
       style="color-interpolation-filters:sRGB"
       id="filter17658"
       x="-0.075"
       width="1.15"
       y="-0.075"
       height="1.15">
      <feGaussianBlur
         inkscape:collect="always"
         stdDeviation="0.875"
         id="feGaussianBlur17660" />
    </filter>
    <filter
       inkscape:collect="always"
       style="color-interpolation-filters:sRGB"
       id="filter17662"
       x="-0.078000205"
       width="1.1560004"
       y="-0.072222047"
       height="1.1444441">
      <feGaussianBlur
         inkscape:collect="always"
         stdDeviation="0.81250242"
         id="feGaussianBlur17664" />
    </filter>
  </defs>
  <sodipodi:namedview
     inkscape:current-layer="svg12"
     inkscape:window-maximized="1"
     inkscape:window-y="0"
     inkscape:window-x="0"
     inkscape:cy="16"
     inkscape:cx="14.950131"
     inkscape:zoom="23.8125"
     showgrid="false"
     id="namedview14"
     inkscape:window-height="1000"
     inkscape:window-width="1920"
     inkscape:pageshadow="2"
     inkscape:pageopacity="0"
     guidetolerance="10"
     gridtolerance="10"
     objecttolerance="10"
     borderopacity="1"
     bordercolor="#666666"
     pagecolor="#ffffff"
     inkscape:document-rotation="0" />
  <circle
     id="circle2"
     r="14"
     cy="16"
     cx="16"
     style="opacity:0.5;filter:url(#filter17658)" />
  <circle
     id="circle4"
     r="14"
     cy="16"
     cx="16"
     style="fill:#248afd" />
  <path
     style="fill:#000000;fill-opacity:1;opacity:0.5;filter:url(#filter17662)"
     d="m 22.646,22.367436 c -4.6258,2.3502 -9.3867,4.5558 -14.4410002,5.7308 -1.6292,-0.0082 -0.82535,-2.188 -0.56221,-3.1757 1.2632,-4.196 3.2230002,-8.124 5.0860002,-12.063 0.73783,-1.2446 1.2612,-2.9597996 2.7488,-3.4386996 1.445,-0.16501 2.3944,1.2711996 3.1429,2.3188996 3.0605,4.8172 5.9508,9.7605 8.4857,14.89 0.64202,1.337 1.271,2.6806 1.8933,4.0274 -1.8504,-7.7623 -4.3411,-15.462 -8.3563,-22.3519996 -0.90008,-1.3607 -1.7198,-2.8372 -2.9342,-3.9319 -1.1835,-0.93406 -2.6392,0.071567 -3.5139,0.97577 -2.7482,2.8326 -4.4221002,6.5287996 -6.0624002,10.0979996 -1.913,4.2239 -3.1682,8.7262 -4.0896,13.274 -0.32303,1.5316 1.2099,2.6434 2.5722,2.1681 3.7733002,-0.80655 7.3194002,-2.4984 10.6570002,-4.4399 1.9233,-1.1607 3.773,-2.4786 5.3731,-4.0811 z"
     id="path8-4" />
  <path
     id="path8"
     d="m22.646 21.368c-4.6258 2.3502-9.3867 4.5558-14.441 5.7308-1.6292-0.0082-0.82535-2.188-0.56221-3.1757 1.2632-4.196 3.223-8.124 5.086-12.063 0.73783-1.2446 1.2612-2.9598 2.7488-3.4387 1.445-0.16501 2.3944 1.2712 3.1429 2.3189 3.0605 4.8172 5.9508 9.7605 8.4857 14.89 0.64202 1.337 1.271 2.6806 1.8933 4.0274-1.8504-7.7623-4.3411-15.462-8.3563-22.352-0.90008-1.3607-1.7198-2.8372-2.9342-3.9319-1.1835-0.93406-2.6392 0.071567-3.5139 0.97577-2.7482 2.8326-4.4221 6.5288-6.0624 10.098-1.913 4.2239-3.1682 8.7262-4.0896 13.274-0.32303 1.5316 1.2099 2.6434 2.5722 2.1681 3.7733-0.80655 7.3194-2.4984 10.657-4.4399 1.9233-1.1607 3.773-2.4786 5.3731-4.0811z"
     style="fill:#ffffff" />
</svg>
