<?xml version="1.0" encoding="UTF-8" standalone="no"?>
<svg
   xmlns:dc="http://purl.org/dc/elements/1.1/"
   xmlns:cc="http://creativecommons.org/ns#"
   xmlns:rdf="http://www.w3.org/1999/02/22-rdf-syntax-ns#"
   xmlns:svg="http://www.w3.org/2000/svg"
   xmlns="http://www.w3.org/2000/svg"
   xmlns:xlink="http://www.w3.org/1999/xlink"
   xmlns:sodipodi="http://sodipodi.sourceforge.net/DTD/sodipodi-0.dtd"
   xmlns:inkscape="http://www.inkscape.org/namespaces/inkscape"
   inkscape:version="1.0.2 (e86c870879, 2021-01-15)"
   sodipodi:docname="accessories-screenshot.svg"
   id="svg24"
   version="1"
   height="32"
   width="32">
  <metadata
     id="metadata30">
    <rdf:RDF>
      <cc:Work
         rdf:about="">
        <dc:format>image/svg+xml</dc:format>
        <dc:type
           rdf:resource="http://purl.org/dc/dcmitype/StillImage" />
        <dc:title></dc:title>
      </cc:Work>
    </rdf:RDF>
  </metadata>
  <defs
     id="defs28">
    <linearGradient
       inkscape:collect="always"
       id="linearGradient2125">
      <stop
         style="stop-color:#28b4bc;stop-opacity:1"
         offset="0"
         id="stop2121" />
      <stop
         style="stop-color:#2dd0d1;stop-opacity:1"
         offset="1"
         id="stop2123" />
    </linearGradient>
    <filter
       inkscape:collect="always"
       style="color-interpolation-filters:sRGB"
       id="filter1753"
       x="-0.075"
       width="1.15"
       y="-0.075"
       height="1.15">
      <feGaussianBlur
         inkscape:collect="always"
         stdDeviation="0.875"
         id="feGaussianBlur1755" />
    </filter>
    <linearGradient
       inkscape:collect="always"
       xlink:href="#linearGradient2125"
       id="linearGradient2127"
       x1="5.1018734"
       y1="28.931631"
       x2="26.093098"
       y2="8.7072134"
       gradientUnits="userSpaceOnUse" />
  </defs>
  <sodipodi:namedview
     inkscape:document-rotation="0"
     inkscape:current-layer="svg24"
     inkscape:window-maximized="1"
     inkscape:window-y="0"
     inkscape:window-x="0"
     inkscape:cy="16.056706"
     inkscape:cx="-14.513757"
     inkscape:zoom="12.291667"
     showgrid="false"
     id="namedview26"
     inkscape:window-height="1000"
     inkscape:window-width="1920"
     inkscape:pageshadow="2"
     inkscape:pageopacity="0"
     guidetolerance="10"
     gridtolerance="10"
     objecttolerance="10"
     borderopacity="1"
     bordercolor="#666666"
     pagecolor="#ffffff"
     showguides="false" />
  <rect
     id="rect4"
     ry="1.735382"
     rx="1.735382"
     y="2"
     x="2"
     height="28"
     width="28"
     style="fill:#000000;fill-opacity:1;stroke-width:0.5;filter:url(#filter1753);opacity:0.5" />
  <path
     id="rect4-6-4"
     style="fill:url(#linearGradient2127);fill-opacity:1;stroke-width:0.5"
     d="M 3.736328,2 C 2.774926,2 2,2.7729741 2,3.7343751 V 6.0000001 28.263672 C 2,29.225074 2.774926,30 3.736328,30 H 28.265625 C 29.227026,30 30,29.225074 30,28.263672 V 6.0000001 3.7343751 C 30,2.7729741 29.227026,2 28.265625,2 Z" />
  <path
     id="path1714"
     style="fill:#000000;fill-opacity:1;stroke-width:0.5;opacity:0.2"
     d="M 2,6 H 30 V 3.734375 C 30,2.772974 29.227026,2 28.265625,2 H 3.736328 C 2.774926,2 2,2.772974 2,3.734375 Z" />
  <circle
     r="1"
     id="circle10"
     cy="4"
     cx="4"
     style="opacity:0.3;fill:#fafafa;stroke-width:0.25" />
  <circle
     r="1"
     id="circle14"
     cy="4"
     cx="6.5"
     style="opacity:0.3;fill:#fafafa;stroke-width:0.25" />
  <circle
     r="1"
     id="circle18"
     cy="4"
     cx="9"
     style="opacity:0.3;fill:#fafafa;stroke-width:0.25" />
  <path
     style="opacity:0.5;fill:#fafafa;fill-opacity:1;stroke-width:1.33333"
     d="M 13.333333,12 12,13.333333 H 9.333333 C 8.7056,13.333333 8,14.053333 8,14.666667 v 8 C 8,23.266667 8.71,24 9.333333,24 H 22.666667 C 23.293333,24 24,23.266667 24,22.666667 v -8 c 0,-0.613334 -0.706667,-1.333334 -1.333333,-1.333334 H 20 L 18.666667,12 Z M 16,14.666667 c 2.213334,0 4,1.786666 4,4 0,2.2 -1.786666,4 -4,4 -2.213333,0 -4,-1.8 -4,-4 0,-2.213334 1.786667,-4 4,-4 z M 16,16 c -1.466667,0 -2.666667,1.186667 -2.666667,2.666667 0,1.466666 1.2,2.666666 2.666667,2.666666 1.48,0 2.666667,-1.2 2.666667,-2.666666 C 18.666667,17.186667 17.48,16 16,16 Z"
     id="path2" />
</svg>
