<?xml version="1.0" encoding="UTF-8" standalone="no"?>
<svg
   xmlns:dc="http://purl.org/dc/elements/1.1/"
   xmlns:cc="http://creativecommons.org/ns#"
   xmlns:rdf="http://www.w3.org/1999/02/22-rdf-syntax-ns#"
   xmlns:svg="http://www.w3.org/2000/svg"
   xmlns="http://www.w3.org/2000/svg"
   xmlns:xlink="http://www.w3.org/1999/xlink"
   xmlns:sodipodi="http://sodipodi.sourceforge.net/DTD/sodipodi-0.dtd"
   xmlns:inkscape="http://www.inkscape.org/namespaces/inkscape"
   width="32"
   height="32"
   version="1"
   id="svg26"
   sodipodi:docname="acestream.svg"
   inkscape:version="1.0.2 (e86c870879, 2021-01-15)">
  <metadata
     id="metadata32">
    <rdf:RDF>
      <cc:Work
         rdf:about="">
        <dc:format>image/svg+xml</dc:format>
        <dc:type
           rdf:resource="http://purl.org/dc/dcmitype/StillImage" />
      </cc:Work>
    </rdf:RDF>
  </metadata>
  <defs
     id="defs30">
    <linearGradient
       inkscape:collect="always"
       id="linearGradient868">
      <stop
         style="stop-color:#ffffff;stop-opacity:1;"
         offset="0"
         id="stop864" />
      <stop
         style="stop-color:#f2f2f2;stop-opacity:1"
         offset="1"
         id="stop866" />
    </linearGradient>
    <filter
       inkscape:collect="always"
       style="color-interpolation-filters:sRGB"
       id="filter857"
       x="-0.075"
       width="1.15"
       y="-0.075"
       height="1.15">
      <feGaussianBlur
         inkscape:collect="always"
         stdDeviation="0.875"
         id="feGaussianBlur859" />
    </filter>
    <linearGradient
       inkscape:collect="always"
       xlink:href="#linearGradient868"
       id="linearGradient870"
       x1="16.392237"
       y1="7.7938008"
       x2="17.651403"
       y2="32.022648"
       gradientUnits="userSpaceOnUse" />
  </defs>
  <sodipodi:namedview
     pagecolor="#ffffff"
     bordercolor="#666666"
     borderopacity="1"
     objecttolerance="10"
     gridtolerance="10"
     guidetolerance="10"
     inkscape:pageopacity="0"
     inkscape:pageshadow="2"
     inkscape:window-width="1920"
     inkscape:window-height="999"
     id="namedview28"
     showgrid="false"
     inkscape:zoom="22.4375"
     inkscape:cx="16.109636"
     inkscape:cy="16"
     inkscape:window-x="0"
     inkscape:window-y="0"
     inkscape:window-maximized="1"
     inkscape:current-layer="svg26" />
  <circle
     style="opacity:0.5;filter:url(#filter857)"
     cx="16"
     cy="16"
     id="circle2"
     r="14" />
  <path
     style="fill:#3591ac"
     d="m 16,16 v 14 a 14.009401,14 0 0 0 12.039329,-6.872852 14.009401,14 0 0 0 0.07798,-0.135351 z"
     id="path4" />
  <path
     style="fill:#2cba66"
     d="M 16,16 V 30 A 14.009401,14 0 0 1 3.9606719,23.127148 14.009401,14 0 0 1 3.88269,22.991797 Z"
     id="path6" />
  <path
     style="fill:#ff482e"
     d="M 16,16 V 2.0000004 a 14.009401,14 0 0 1 12.039329,6.8728511 14.009401,14 0 0 1 0.07798,0.135352 z"
     id="path8" />
  <path
     style="fill:#ff8201"
     d="M 16,16 V 2.0000004 A 14.009401,14 0 0 0 3.9606719,8.8728515 14.009401,14 0 0 0 3.88269,9.0082035 Z"
     id="path10" />
  <path
     style="fill:#ffc825"
     d="M 16,16 3.8675038,23 A 14.009401,14 0 0 1 3.8038999,9.1442065 14.009401,14 0 0 1 3.8822059,9.0090414 Z"
     id="path12" />
  <path
     style="fill:#9e56d6"
     d="M 16,16 28.132497,9.0000002 a 14.009401,14 0 0 1 0.0636,13.8557938 14.009401,14 0 0 1 -0.07831,0.135165 z"
     id="path14" />
  <path
     id="path861"
     style="fill:url(#linearGradient870);fill-opacity:1"
     d="M 16 5 A 11 11 0 0 0 5 16 A 11 11 0 0 0 16 27 A 11 11 0 0 0 27 16 A 11 11 0 0 0 16 5 z M 13 10 L 17.333984 13 L 21.666016 16 L 17.333984 19 L 13 22 L 13 16 L 13 10 z " />
</svg>
