<?xml version="1.0" encoding="UTF-8" standalone="no"?>
<svg
   xmlns:dc="http://purl.org/dc/elements/1.1/"
   xmlns:cc="http://creativecommons.org/ns#"
   xmlns:rdf="http://www.w3.org/1999/02/22-rdf-syntax-ns#"
   xmlns:svg="http://www.w3.org/2000/svg"
   xmlns="http://www.w3.org/2000/svg"
   xmlns:xlink="http://www.w3.org/1999/xlink"
   xmlns:sodipodi="http://sodipodi.sourceforge.net/DTD/sodipodi-0.dtd"
   xmlns:inkscape="http://www.inkscape.org/namespaces/inkscape"
   width="32"
   height="32"
   version="1.1"
   id="svg14"
   sodipodi:docname="actionaz.svg"
   inkscape:version="1.0.2 (e86c870879, 2021-01-15)">
  <metadata
     id="metadata20">
    <rdf:RDF>
      <cc:Work
         rdf:about="">
        <dc:format>image/svg+xml</dc:format>
        <dc:type
           rdf:resource="http://purl.org/dc/dcmitype/StillImage" />
      </cc:Work>
    </rdf:RDF>
  </metadata>
  <defs
     id="defs18">
    <linearGradient
       inkscape:collect="always"
       id="linearGradient839">
      <stop
         style="stop-color:#00bcd4;stop-opacity:1"
         offset="0"
         id="stop835" />
      <stop
         style="stop-color:#00c8e6;stop-opacity:1"
         offset="1"
         id="stop837" />
    </linearGradient>
    <linearGradient
       inkscape:collect="always"
       xlink:href="#linearGradient839"
       id="linearGradient841"
       x1="5.2881541"
       y1="27.450411"
       x2="24.227726"
       y2="5.6984391"
       gradientUnits="userSpaceOnUse" />
    <filter
       inkscape:collect="always"
       style="color-interpolation-filters:sRGB"
       id="filter873"
       x="-0.075"
       width="1.15"
       y="-0.075"
       height="1.15">
      <feGaussianBlur
         inkscape:collect="always"
         stdDeviation="0.875"
         id="feGaussianBlur875" />
    </filter>
  </defs>
  <sodipodi:namedview
     pagecolor="#ffffff"
     bordercolor="#666666"
     borderopacity="1"
     objecttolerance="10"
     gridtolerance="10"
     guidetolerance="10"
     inkscape:pageopacity="0"
     inkscape:pageshadow="2"
     inkscape:window-width="1920"
     inkscape:window-height="1000"
     id="namedview16"
     showgrid="false"
     inkscape:zoom="22.4375"
     inkscape:cx="14.885794"
     inkscape:cy="16"
     inkscape:window-x="0"
     inkscape:window-y="0"
     inkscape:window-maximized="1"
     inkscape:current-layer="svg14"
     inkscape:document-rotation="0" />
  <rect
     style="fill:#000000;fill-opacity:1;stroke-width:1.15374;filter:url(#filter873);opacity:0.5"
     id="rect833-7"
     width="28"
     height="28"
     x="2"
     y="2"
     rx="4.0103421"
     ry="4.0103421" />
  <rect
     style="fill:url(#linearGradient841);stroke-width:1.15374;fill-opacity:1"
     id="rect833"
     width="28"
     height="28"
     x="2"
     y="2"
     rx="4.0103421"
     ry="4.0103421" />
  <path
     id="path4"
     style="fill:#ffffff;fill-opacity:1;stroke-width:0.714286;opacity:0.5"
     d="m 9.5714284,6.0000001 c -1.9785714,0 -3.5714285,1.5928571 -3.5714285,3.5714289 v 8.571429 c 0,1.711678 1.1945011,3.129384 2.7971539,3.482143 L 6.7142856,26 H 11 l 2.000558,-4.285714 h 5.998884 L 21,26 h 4.285714 L 23.202845,21.625001 C 24.805499,21.272242 26,19.854536 26,18.142858 V 9.5714289 C 26,7.5928572 24.407143,6.0000001 22.428571,6.0000001 H 18.857143 V 9.571429 h 1.428571 c 1.187143,0 2.142857,0.955714 2.142857,2.142858 v 4.285714 c 0,0.779511 -0.416078,1.452675 -1.035156,1.827567 l -3.250558,-6.827567 h -4.285714 l -3.250559,6.827567 C 9.9875069,17.452676 9.5714284,16.779512 9.5714284,16.000001 v -4.285714 c 0,-1.187144 0.9557146,-2.1428581 2.1428576,-2.1428581 h 1.428571 V 6.0000001 Z M 16,15.285715 l 1.333706,2.857143 h -2.667412 z" />
</svg>
