<?xml version="1.0" encoding="UTF-8" standalone="no"?>
<svg
   xmlns:dc="http://purl.org/dc/elements/1.1/"
   xmlns:cc="http://creativecommons.org/ns#"
   xmlns:rdf="http://www.w3.org/1999/02/22-rdf-syntax-ns#"
   xmlns:svg="http://www.w3.org/2000/svg"
   xmlns="http://www.w3.org/2000/svg"
   xmlns:sodipodi="http://sodipodi.sourceforge.net/DTD/sodipodi-0.dtd"
   xmlns:inkscape="http://www.inkscape.org/namespaces/inkscape"
   width="32"
   height="32"
   version="1.1"
   id="svg12"
   sodipodi:docname="agordejo.svg"
   inkscape:version="1.0.2 (e86c870879, 2021-01-15)">
  <metadata
     id="metadata18">
    <rdf:RDF>
      <cc:Work
         rdf:about="">
        <dc:format>image/svg+xml</dc:format>
        <dc:type
           rdf:resource="http://purl.org/dc/dcmitype/StillImage" />
      </cc:Work>
    </rdf:RDF>
  </metadata>
  <defs
     id="defs16">
    <filter
       inkscape:collect="always"
       style="color-interpolation-filters:sRGB"
       id="filter874"
       x="-0.081250255"
       width="1.1625005"
       y="-0.06964267"
       height="1.1392853">
      <feGaussianBlur
         inkscape:collect="always"
         stdDeviation="0.81260892"
         id="feGaussianBlur876" />
    </filter>
  </defs>
  <sodipodi:namedview
     pagecolor="#ffffff"
     bordercolor="#666666"
     borderopacity="1"
     objecttolerance="10"
     gridtolerance="10"
     guidetolerance="10"
     inkscape:pageopacity="0"
     inkscape:pageshadow="2"
     inkscape:window-width="1920"
     inkscape:window-height="999"
     id="namedview14"
     showgrid="false"
     inkscape:zoom="22.4375"
     inkscape:cx="16"
     inkscape:cy="16"
     inkscape:window-x="0"
     inkscape:window-y="0"
     inkscape:window-maximized="1"
     inkscape:current-layer="svg12" />
  <path
     d="M 10.4,1.9980857 C 9.729749,1.9983118 9.153666,2.4735089 9.025976,3.1314844 L 4.025496,28.331485 c -0.224672,1.156823 0.993057,2.056812 2.033008,1.502538 L 16,24.998086 l 9.941496,4.835937 c 1.039951,0.554274 2.25768,-0.345715 2.033008,-1.502538 L 22.974024,3.1314844 C 22.846334,2.4735089 22.270251,1.9983118 21.6,1.9980857 Z"
     style="fill:#000000;filter:url(#filter874);opacity:0.5"
     id="path4-3" />
  <path
     d="m10.4 2c-0.6702507 2.261e-4 -1.2463339 0.4754232-1.3740237 1.1333987l-5.0004801 25.2c-0.2246722 1.156823 0.9930564 2.056812 2.0330077 1.502538l9.9414961-4.835937 9.941496 4.835937c1.039951 0.554274 2.25768-0.345715 2.033008-1.502538l-5.00048-25.2c-0.12769-0.6579755-0.703773-1.1331726-1.374024-1.1333987z"
     style="fill:#404040"
     id="path4" />
  <path
     d="m16 21 4-6.5-4-6.5-4 6.5z"
     style="fill:#ffffff"
     id="path8" />
</svg>
