<?xml version="1.0" encoding="UTF-8" standalone="no"?>
<svg
   xmlns:dc="http://purl.org/dc/elements/1.1/"
   xmlns:cc="http://creativecommons.org/ns#"
   xmlns:rdf="http://www.w3.org/1999/02/22-rdf-syntax-ns#"
   xmlns:svg="http://www.w3.org/2000/svg"
   xmlns="http://www.w3.org/2000/svg"
   xmlns:sodipodi="http://sodipodi.sourceforge.net/DTD/sodipodi-0.dtd"
   xmlns:inkscape="http://www.inkscape.org/namespaces/inkscape"
   inkscape:version="1.0.1 (3bc2e813f5, 2020-09-07)"
   sodipodi:docname="akira.svg"
   id="svg24"
   version="1.1"
   height="32"
   width="32">
  <metadata
     id="metadata30">
    <rdf:RDF>
      <cc:Work
         rdf:about="">
        <dc:format>image/svg+xml</dc:format>
        <dc:type
           rdf:resource="http://purl.org/dc/dcmitype/StillImage" />
      </cc:Work>
    </rdf:RDF>
  </metadata>
  <defs
     id="defs28">
    <filter
       height="1.2815899"
       y="-0.14079496"
       width="1.1751928"
       x="-0.087596421"
       id="filter929"
       style="color-interpolation-filters:sRGB"
       inkscape:collect="always">
      <feGaussianBlur
         id="feGaussianBlur931"
         stdDeviation="0.13688397"
         inkscape:collect="always" />
    </filter>
    <filter
       inkscape:collect="always"
       style="color-interpolation-filters:sRGB"
       id="filter17618"
       x="-0.077118786"
       width="1.1542376"
       y="-0.072994525"
       height="1.1459891">
      <feGaussianBlur
         inkscape:collect="always"
         stdDeviation="0.85157894"
         id="feGaussianBlur17620" />
    </filter>
  </defs>
  <sodipodi:namedview
     inkscape:current-layer="svg24"
     inkscape:window-maximized="1"
     inkscape:window-y="0"
     inkscape:window-x="0"
     inkscape:cy="11.169454"
     inkscape:cx="0.69994403"
     inkscape:zoom="11.313709"
     showgrid="false"
     id="namedview26"
     inkscape:window-height="1000"
     inkscape:window-width="1920"
     inkscape:pageshadow="2"
     inkscape:pageopacity="0"
     guidetolerance="10"
     gridtolerance="10"
     objecttolerance="10"
     borderopacity="1"
     bordercolor="#666666"
     pagecolor="#ffffff"
     inkscape:document-rotation="0" />
  <path
     d="M 14.543675,2.0003918 9.1100825,15.400783 c -0.346996,0.01742 -0.611824,0.146715 -0.63086,0.310547 -0.00858,-0.03367 -0.00781,-0.05664 -0.00781,-0.05664 l -5.685549,14.199219 c -0.071612,0.149656 -0.039126,0.184962 0.101562,0.101562 l 13.9648435,-8.339845 12.251953,7.404297 c 0.152405,0.10052 0.175708,0.05879 0.117188,-0.07227 -1.418512,-3.526939 -2.692146,-6.642428 -4.806641,-11.851558 L 26.06516,16.11172 c 0.106077,-0.06625 0.11327,-0.101987 0.002,-0.101562 H 23.975316 C 21.522906,9.9703858 18.293675,2.0003918 18.293675,2.0003918 Z"
     style="opacity:0.5;fill:#000000;fill-opacity:1;fill-rule:evenodd;stroke-width:1.75;filter:url(#filter17618)"
     id="path8-3" />
  <path
     id="path8"
     d="m 8.4709875,15.793016 c 0,-0.184588 0.316032,-0.334259 0.713541,-0.334259 0.02067,0 0.04109,2.24e-4 0.06149,0.0011 0.01628,6.58e-4 0.543704,0 0.543704,0 l -0.949245,2.483924 -1.062166,-0.402977 c 0,0 0.692657,-1.563213 0.692657,-1.7478 z"
     style="fill:#f07800;fill-rule:evenodd;stroke-width:1.75" />
  <path
     id="path10"
     d="m 14.543323,2.0642624 c 0,0 1.066175,0.8478362 1.456677,1.1666663 h 1.166666 c 0.323661,-0.4061223 1.127056,-1.1666663 1.127056,-1.1666663 0,0 7.702804,18.9292176 10.928065,26.9484066 0.05852,0.131057 0.03512,0.17213 -0.117285,0.07161 L 13.256464,19.505704 3.5376966,29.200832 Z"
     style="fill:#ff8f13;fill-opacity:1;fill-rule:evenodd;stroke-width:1.75" />
  <path
     id="path16"
     d="M 9.1845285,16.075032 H 26.067403 c 0.111317,-4.25e-4 0.104877,0.03537 -0.0012,0.101622 L 2.8868163,30.020269 c -0.1406877,0.0834 -0.1728194,0.04758 -0.1012077,-0.102077 L 8.4709925,15.718548 c 0,0 -0.05301,0.323808 0.713541,0.356498 z"
     style="fill:#ffc30e;fill-rule:evenodd;stroke-width:1.75" />
  <path
     style="opacity:0.3;fill:#090700;fill-opacity:1;fill-rule:evenodd;stroke-width:1.75;filter:url(#filter929)"
     d="m 18.293722,2.2642623 h -3.750399 l 1.851216,2.333333 z"
     id="path18-6" />
  <path
     id="path18"
     d="m 18.293722,2.0642624 h -3.750399 l 1.851216,2.333333 z"
     style="fill:#ffc30e;fill-rule:evenodd;stroke-width:1.75" />
</svg>
