<?xml version="1.0" encoding="UTF-8" standalone="no"?>
<svg
   xmlns:dc="http://purl.org/dc/elements/1.1/"
   xmlns:cc="http://creativecommons.org/ns#"
   xmlns:rdf="http://www.w3.org/1999/02/22-rdf-syntax-ns#"
   xmlns:svg="http://www.w3.org/2000/svg"
   xmlns="http://www.w3.org/2000/svg"
   xmlns:xlink="http://www.w3.org/1999/xlink"
   xmlns:sodipodi="http://sodipodi.sourceforge.net/DTD/sodipodi-0.dtd"
   xmlns:inkscape="http://www.inkscape.org/namespaces/inkscape"
   inkscape:version="1.0.1 (3bc2e813f5, 2020-09-07)"
   sodipodi:docname="akregator.svg"
   id="svg12"
   version="1"
   height="32"
   width="32">
  <metadata
     id="metadata18">
    <rdf:RDF>
      <cc:Work
         rdf:about="">
        <dc:format>image/svg+xml</dc:format>
        <dc:type
           rdf:resource="http://purl.org/dc/dcmitype/StillImage" />
      </cc:Work>
    </rdf:RDF>
  </metadata>
  <defs
     id="defs16">
    <linearGradient
       id="linearGradient847"
       inkscape:collect="always">
      <stop
         id="stop843"
         offset="0"
         style="stop-color:#ffa146;stop-opacity:1" />
      <stop
         id="stop845"
         offset="1"
         style="stop-color:#fa7b00;stop-opacity:1" />
    </linearGradient>
    <linearGradient
       gradientUnits="userSpaceOnUse"
       y2="29"
       x2="16"
       y1="3"
       x1="16"
       id="linearGradient849"
       xlink:href="#linearGradient847"
       inkscape:collect="always" />
    <filter
       inkscape:collect="always"
       style="color-interpolation-filters:sRGB"
       id="filter17590"
       x="-0.075"
       width="1.15"
       y="-0.075"
       height="1.15">
      <feGaussianBlur
         inkscape:collect="always"
         stdDeviation="0.8125"
         id="feGaussianBlur17592" />
    </filter>
  </defs>
  <sodipodi:namedview
     inkscape:current-layer="svg12"
     inkscape:window-maximized="1"
     inkscape:window-y="0"
     inkscape:window-x="0"
     inkscape:cy="16"
     inkscape:cx="14.950131"
     inkscape:zoom="23.8125"
     showgrid="false"
     id="namedview14"
     inkscape:window-height="1000"
     inkscape:window-width="1920"
     inkscape:pageshadow="2"
     inkscape:pageopacity="0"
     guidetolerance="10"
     gridtolerance="10"
     objecttolerance="10"
     borderopacity="1"
     bordercolor="#666666"
     pagecolor="#ffffff"
     inkscape:document-rotation="0" />
  <path
     fill="#f59335"
     d="M 29,25.1 C 29,12.1 19.9,3 6.9,3 4.95,3 3,4.95 3,6.9 V 25.1 C 3,27.05 4.95,29 6.9,29 h 18.2 c 1.95,0 3.9,-1.95 3.9,-3.9 z"
     id="path2-5"
     style="fill:#000000;fill-opacity:1;opacity:0.5;filter:url(#filter17590)" />
  <path
     style="fill-opacity:1;fill:url(#linearGradient849)"
     id="path2"
     d="m29 25.1c0-13-9.1-22.1-22.1-22.1-1.95 0-3.9 1.95-3.9 3.9v18.2c0 1.95 1.95 3.9 3.9 3.9h18.2c1.95 0 3.9-1.95 3.9-3.9z"
     fill="#f59335" />
  <path
     id="path6"
     d="m6 9.5c0 1.056 0.4491 1.5 1.5 1.5 7.456 0 13.5 6.044 13.5 13.5 0 0.933 0.509 1.5 1.5 1.5 1.02 0 1.5-0.596 1.5-1.5 0-9.113-7.387-16.5-16.5-16.5-0.9974 0-1.5 0.4855-1.5 1.5zm0 6c0 1.0274 0.42023 1.5 1.5 1.5 4.1422 0 7.5 3.3579 7.5 7.5 0 0.88301 0.50689 1.5 1.5 1.5 0.969 0 1.5-0.538 1.5-1.5 0-5.799-4.701-10.5-10.5-10.5-0.9686 0-1.5 0.428-1.5 1.5zm3 4.5c-1.6569 0-3 1.343-3 3s1.3431 3 3 3c1.657 0 3-1.343 3-3s-1.343-3-3-3z"
     fill="#fff" />
</svg>
