<?xml version="1.0" encoding="UTF-8" standalone="no"?>
<svg
   xmlns:dc="http://purl.org/dc/elements/1.1/"
   xmlns:cc="http://creativecommons.org/ns#"
   xmlns:rdf="http://www.w3.org/1999/02/22-rdf-syntax-ns#"
   xmlns:svg="http://www.w3.org/2000/svg"
   xmlns="http://www.w3.org/2000/svg"
   xmlns:xlink="http://www.w3.org/1999/xlink"
   xmlns:sodipodi="http://sodipodi.sourceforge.net/DTD/sodipodi-0.dtd"
   xmlns:inkscape="http://www.inkscape.org/namespaces/inkscape"
   width="32"
   height="32"
   version="1"
   id="svg14"
   sodipodi:docname="albert.svg"
   inkscape:version="1.0.1 (3bc2e813f5, 2020-09-07)">
  <metadata
     id="metadata20">
    <rdf:RDF>
      <cc:Work
         rdf:about="">
        <dc:format>image/svg+xml</dc:format>
        <dc:type
           rdf:resource="http://purl.org/dc/dcmitype/StillImage" />
      </cc:Work>
    </rdf:RDF>
  </metadata>
  <defs
     id="defs18">
    <linearGradient
       inkscape:collect="always"
       id="linearGradient853">
      <stop
         style="stop-color:#686868;stop-opacity:1"
         offset="0"
         id="stop849" />
      <stop
         style="stop-color:#4f4f4f;stop-opacity:1"
         offset="1"
         id="stop851" />
    </linearGradient>
    <filter
       inkscape:collect="always"
       style="color-interpolation-filters:sRGB"
       id="filter845"
       x="-0.075"
       width="1.15"
       y="-0.075"
       height="1.15">
      <feGaussianBlur
         inkscape:collect="always"
         stdDeviation="0.875"
         id="feGaussianBlur847" />
    </filter>
    <radialGradient
       inkscape:collect="always"
       xlink:href="#linearGradient853"
       id="radialGradient855"
       cx="15.102138"
       cy="7.3291311"
       fx="15.102138"
       fy="7.3291311"
       r="14"
       gradientUnits="userSpaceOnUse" />
  </defs>
  <sodipodi:namedview
     pagecolor="#ffffff"
     bordercolor="#666666"
     borderopacity="1"
     objecttolerance="10"
     gridtolerance="10"
     guidetolerance="10"
     inkscape:pageopacity="0"
     inkscape:pageshadow="2"
     inkscape:window-width="1920"
     inkscape:window-height="1020"
     id="namedview16"
     showgrid="false"
     inkscape:zoom="20.8125"
     inkscape:cx="16"
     inkscape:cy="16"
     inkscape:window-x="0"
     inkscape:window-y="25"
     inkscape:window-maximized="1"
     inkscape:current-layer="svg14" />
  <rect
     style="opacity:0.5;filter:url(#filter845)"
     width="28"
     height="28"
     x="2"
     y="2"
     rx="1.4"
     ry="1.4"
     id="rect2" />
  <rect
     style="fill:url(#radialGradient855);fill-opacity:1"
     width="28"
     height="28"
     x="2"
     y="2"
     rx="1.4"
     ry="1.4"
     id="rect4" />
  <path
     style="fill:#00dada"
     d="m 27.011036,17.235259 c -3.035187,3.802294 -0.09482,0.166153 -2.995749,3.821892 -1.009852,0.604228 -2.8614,1.060672 -3.698489,0.8869 -1.173426,-0.176992 -2.45931,-1.491379 -3.40243,-2.7929 -1.193117,-1.647052 -2.067158,-3.947963 -3.276349,-5.361656 -1.12199,-1.311665 -2.716963,-2.118283 -4.2323697,-1.053504 -0.749064,0.527034 -1.480446,1.475133 -2.047468,2.489743 -0.905788,1.619432 -0.3819926,3.724854 1.9897747,4.184246 1.86647,0.160775 2.811356,-0.09006 5.28726,-1.193655 3.191751,-1.495984 5.465939,-3.451859 11.54255,-8.064681 -3.394347,3.524956 -0.177148,0.09062 -3.505379,3.594551 -1.690195,1.779419 -5.074401,3.813481 -8.624875,5.883515 -1.68262,0.965064 -3.161418,1.579411 -5.3242187,2.106501 -1.2943846,0.315658 -3.2003978,0.608147 -3.617928,-0.765467 -0.4348109,-1.431729 0.6027874,-3.639129 0.8189868,-4.11763 1.6315439,-3.60807 4.0680098,-7.3542394 8.3281079,-6.797895 4.062786,0.53098 4.25443,6.869446 7.286852,8.535099 1.493264,0.820088 2.607059,0.143812 5.471724,-1.355059 z"
     id="path8" />
</svg>
