<?xml version="1.0" encoding="UTF-8" standalone="no"?>
<svg
   xmlns:dc="http://purl.org/dc/elements/1.1/"
   xmlns:cc="http://creativecommons.org/ns#"
   xmlns:rdf="http://www.w3.org/1999/02/22-rdf-syntax-ns#"
   xmlns:svg="http://www.w3.org/2000/svg"
   xmlns="http://www.w3.org/2000/svg"
   xmlns:xlink="http://www.w3.org/1999/xlink"
   xmlns:sodipodi="http://sodipodi.sourceforge.net/DTD/sodipodi-0.dtd"
   xmlns:inkscape="http://www.inkscape.org/namespaces/inkscape"
   inkscape:version="1.0.1 (3bc2e813f5, 2020-09-07)"
   sodipodi:docname="altus.svg"
   id="svg20"
   version="1"
   height="32"
   width="32">
  <metadata
     id="metadata26">
    <rdf:RDF>
      <cc:Work
         rdf:about="">
        <dc:format>image/svg+xml</dc:format>
        <dc:type
           rdf:resource="http://purl.org/dc/dcmitype/StillImage" />
      </cc:Work>
    </rdf:RDF>
  </metadata>
  <defs
     id="defs24">
    <linearGradient
       id="linearGradient859"
       inkscape:collect="always">
      <stop
         id="stop855"
         offset="0"
         style="stop-color:#585594;stop-opacity:1" />
      <stop
         id="stop857"
         offset="1"
         style="stop-color:#3d3b67;stop-opacity:1" />
    </linearGradient>
    <radialGradient
       gradientUnits="userSpaceOnUse"
       r="14"
       fy="16"
       fx="16"
       cy="16"
       cx="16"
       id="radialGradient861"
       xlink:href="#linearGradient859"
       inkscape:collect="always" />
    <filter
       inkscape:collect="always"
       style="color-interpolation-filters:sRGB"
       id="filter17610"
       x="-0.075"
       width="1.15"
       y="-0.075"
       height="1.15">
      <feGaussianBlur
         inkscape:collect="always"
         stdDeviation="0.875"
         id="feGaussianBlur17612" />
    </filter>
  </defs>
  <sodipodi:namedview
     inkscape:current-layer="svg20"
     inkscape:window-maximized="1"
     inkscape:window-y="0"
     inkscape:window-x="0"
     inkscape:cy="16"
     inkscape:cx="14.950131"
     inkscape:zoom="23.8125"
     showgrid="false"
     id="namedview22"
     inkscape:window-height="1000"
     inkscape:window-width="1920"
     inkscape:pageshadow="2"
     inkscape:pageopacity="0"
     guidetolerance="10"
     gridtolerance="10"
     objecttolerance="10"
     borderopacity="1"
     bordercolor="#666666"
     pagecolor="#ffffff"
     inkscape:document-rotation="0" />
  <path
     id="path2"
     d="m 16.1078,29.99993 0.0014,-0.0027 C 23.8141,29.93847 30,23.71953 30,16 30,8.2440002 23.756,2 16,2 8.524,2 2.4543,7.8023002 2.0259,15.1677 L 2,15.1922 V 27.2 C 2,28.7512 3.2488,30 4.8,30 h 11.3078 z"
     style="opacity:0.5;filter:url(#filter17610)" />
  <path
     id="path4"
     d="m 16.1078,29.99993 0.0014,-0.0027 C 23.8141,29.93847 30,23.71953 30,16 30,8.2440001 23.756,1.9999999 16,1.9999999 8.524,1.9999999 2.4543,7.8023001 2.0259,15.1677 L 2,15.1922 V 27.2 C 2,28.7512 3.2488,30 4.8,30 h 11.3078 z"
     style="fill:url(#radialGradient861);fill-opacity:1" />
  <path
     id="path8"
     d="m 18.2442,14 h 4.136877 L 20.9,18.55 Z"
     style="fill:#ffffff" />
  <path
     id="path10"
     d="M 22.381077,14 23.7,16.8 21.537678,16.4626 Z"
     style="fill:#3a88d6" />
  <path
     id="path12"
     d="m 14.25,17.15 6.65,1.4 -5.598858,3.85 z"
     style="fill:#ffffff" />
  <path
     id="path14"
     d="m 14.25,17.15 1.4,7 -3.85,2.8 z"
     style="fill:#3a88d6" />
  <path
     id="path16"
     d="m 8.65,8.0500001 7,1.4 L 20.9,18.55 14.25,17.15 Z"
     style="fill:#0365db" />
</svg>
