<?xml version="1.0" encoding="UTF-8" standalone="no"?>
<svg
   xmlns:dc="http://purl.org/dc/elements/1.1/"
   xmlns:cc="http://creativecommons.org/ns#"
   xmlns:rdf="http://www.w3.org/1999/02/22-rdf-syntax-ns#"
   xmlns:svg="http://www.w3.org/2000/svg"
   xmlns="http://www.w3.org/2000/svg"
   xmlns:sodipodi="http://sodipodi.sourceforge.net/DTD/sodipodi-0.dtd"
   xmlns:inkscape="http://www.inkscape.org/namespaces/inkscape"
   inkscape:version="1.0.1 (3bc2e813f5, 2020-09-07)"
   sodipodi:docname="amazon-store.svg"
   id="svg16"
   version="1"
   height="32"
   width="32">
  <metadata
     id="metadata22">
    <rdf:RDF>
      <cc:Work
         rdf:about="">
        <dc:format>image/svg+xml</dc:format>
        <dc:type
           rdf:resource="http://purl.org/dc/dcmitype/StillImage" />
      </cc:Work>
    </rdf:RDF>
  </metadata>
  <defs
     id="defs20">
    <filter
       inkscape:collect="always"
       style="color-interpolation-filters:sRGB"
       id="filter17602"
       x="-0.075"
       width="1.15"
       y="-0.075"
       height="1.15">
      <feGaussianBlur
         inkscape:collect="always"
         stdDeviation="0.875"
         id="feGaussianBlur17604" />
    </filter>
  </defs>
  <sodipodi:namedview
     inkscape:current-layer="svg16"
     inkscape:window-maximized="1"
     inkscape:window-y="0"
     inkscape:window-x="0"
     inkscape:cy="16"
     inkscape:cx="14.950131"
     inkscape:zoom="23.8125"
     showgrid="false"
     id="namedview18"
     inkscape:window-height="1000"
     inkscape:window-width="1920"
     inkscape:pageshadow="2"
     inkscape:pageopacity="0"
     guidetolerance="10"
     gridtolerance="10"
     objecttolerance="10"
     borderopacity="1"
     bordercolor="#666666"
     pagecolor="#ffffff"
     inkscape:document-rotation="0" />
  <rect
     id="rect2"
     ry="1.4"
     rx="1.4"
     y="2"
     x="2"
     height="28"
     width="28"
     style="opacity:0.5;filter:url(#filter17602)" />
  <rect
     id="rect4"
     ry="1.4"
     rx="1.4"
     y="2"
     x="2"
     height="28"
     width="28"
     fill="#3f5979" />
  <path
     id="path10"
     d="M 17.145,14.874 C 17.145,15.715 17.167,16.415 16.76,17.16 16.434,17.766 15.914,18.139 15.335,18.139 14.544,18.139 14.085,17.509 14.085,16.579 14.085,14.742 15.658,14.408 17.146,14.408 V 14.875 M 19.222,20.125 C 19.088,20.252 18.891,20.262 18.737,20.177 18.054,19.584 17.931,19.307 17.554,18.74 16.424,19.947 15.626,20.307 14.16,20.307 12.427,20.307 11.077,19.19 11.077,16.952 11.077,15.204 11.983,14.012 13.271,13.43 14.387,12.915 15.949,12.824 17.144,12.682 V 12.403 C 17.144,11.891 17.182,11.286 16.896,10.843 16.644,10.446 16.163,10.283 15.74,10.283 14.954,10.283 14.254,10.704 14.084,11.577 14.048,11.771 13.913,11.961 13.726,11.971 L 11.728,11.748 C 11.56,11.707 11.375,11.565 11.42,11.296 11.882,8.768 14.07,8.003 16.026,8.003 17.029,8.003 18.339,8.2817 19.128,9.075 20.13,10.053 20.034,11.358 20.034,12.779 V 16.135 C 20.034,17.145 20.433,17.587 20.811,18.132 20.943,18.325 20.972,18.56 20.806,18.705 20.385,19.075 19.638,19.753 19.227,20.135 L 19.219,20.128"
     style="fill:#ffffff;fill-rule:evenodd" />
  <path
     id="path14"
     d="M 22.826,20.304 C 22.266,20.312 21.605,20.441 21.105,20.802 20.948,20.912 20.975,21.066 21.148,21.044 21.711,20.974 22.968,20.821 23.191,21.114 23.417,21.407 22.941,22.619 22.732,23.16 22.668,23.323 22.805,23.39 22.949,23.266 23.891,22.461 24.132,20.773 23.939,20.53 23.844,20.408 23.386,20.296 22.826,20.304 Z M 8.117,20.629 C 8.0002,20.644 7.9486,20.789 8.0713,20.903 10.159,22.837 12.92,23.998 15.985,23.998 18.172,23.998 20.709,23.291 22.462,21.969 L 22.463,21.967 C 22.754,21.745 22.506,21.419 22.208,21.546 20.246,22.402 18.109,22.813 16.17,22.813 13.292,22.813 10.504,22.005 8.2513,20.661 8.2021,20.632 8.1556,20.624 8.1167,20.629 Z"
     style="fill:#ff9900" />
</svg>
