<?xml version="1.0" encoding="UTF-8" standalone="no"?>
<svg
   xmlns:dc="http://purl.org/dc/elements/1.1/"
   xmlns:cc="http://creativecommons.org/ns#"
   xmlns:rdf="http://www.w3.org/1999/02/22-rdf-syntax-ns#"
   xmlns:svg="http://www.w3.org/2000/svg"
   xmlns="http://www.w3.org/2000/svg"
   xmlns:sodipodi="http://sodipodi.sourceforge.net/DTD/sodipodi-0.dtd"
   xmlns:inkscape="http://www.inkscape.org/namespaces/inkscape"
   version="1.1"
   viewBox="0 0 32 32"
   id="svg15"
   sodipodi:docname="anatine.svg"
   width="32"
   height="32"
   inkscape:version="1.0.2 (e86c870879, 2021-01-15)">
  <metadata
     id="metadata21">
    <rdf:RDF>
      <cc:Work
         rdf:about="">
        <dc:format>image/svg+xml</dc:format>
        <dc:type
           rdf:resource="http://purl.org/dc/dcmitype/StillImage" />
        <dc:title></dc:title>
      </cc:Work>
    </rdf:RDF>
  </metadata>
  <defs
     id="defs19">
    <radialGradient
       id="Gradient-3"
       cx="101.925"
       cy="809.00787"
       r="1.0896"
       gradientTransform="matrix(27.99752,0,0,-27.997468,-2835.6072,22666.99)"
       gradientUnits="userSpaceOnUse">
      <stop
         offset="0"
         style="stop-color:#0099FF"
         id="stop2-6" />
      <stop
         offset="0.6098"
         style="stop-color:#A033FF"
         id="stop4-7" />
      <stop
         offset="0.9348"
         style="stop-color:#FF5280"
         id="stop6-5" />
      <stop
         offset="1"
         style="stop-color:#FF7061"
         id="stop8-3" />
    </radialGradient>
    <filter
       inkscape:collect="always"
       style="color-interpolation-filters:sRGB"
       id="filter876"
       x="-0.07500333"
       width="1.1500067"
       y="-0.074996671"
       height="1.1499933">
      <feGaussianBlur
         inkscape:collect="always"
         stdDeviation="0.87496116"
         id="feGaussianBlur878" />
    </filter>
  </defs>
  <sodipodi:namedview
     pagecolor="#ffffff"
     bordercolor="#666666"
     borderopacity="1"
     objecttolerance="10"
     gridtolerance="10"
     guidetolerance="10"
     inkscape:pageopacity="0"
     inkscape:pageshadow="2"
     inkscape:window-width="1920"
     inkscape:window-height="1000"
     id="namedview17"
     showgrid="false"
     inkscape:zoom="18.837325"
     inkscape:cx="20.530702"
     inkscape:cy="15.400375"
     inkscape:window-x="0"
     inkscape:window-y="0"
     inkscape:window-maximized="1"
     inkscape:current-layer="svg15"
     inkscape:document-rotation="0" />
  <radialGradient
     id="Gradient"
     cx="101.925"
     cy="809.00787"
     r="1.0896"
     gradientTransform="matrix(27.99752,0,0,-27.997468,-2846.2565,22680.017)"
     gradientUnits="userSpaceOnUse">
    <stop
       offset="0"
       style="stop-color:#0099FF"
       id="stop2" />
    <stop
       offset="0.6098"
       style="stop-color:#A033FF"
       id="stop4" />
    <stop
       offset="0.9348"
       style="stop-color:#FF5280"
       id="stop6" />
    <stop
       offset="1"
       style="stop-color:#FF7061"
       id="stop8" />
  </radialGradient>
  <path
     fill="url(#Gradient)"
     d="m 16.000002,2.0000004 c -7.8848008,0 -13.9987588,5.7779878 -13.9987588,13.5787966 0,4.080638 1.672852,7.608325 4.39561,10.044109 0.22748,0.202982 0.367468,0.489956 0.374467,0.797929 l 0.07699,2.491779 c 0.0245,0.79443 0.843425,1.312384 1.571361,0.990412 l 2.7787538,-1.224891 c 0.234479,-0.104991 0.500455,-0.122489 0.748933,-0.05599 1.277388,0.349969 2.635267,0.538952 4.052641,0.538952 7.884799,0 13.998758,-5.777987 13.998758,-13.578796 -1e-6,-7.8008131 -6.113959,-13.5823006 -13.998758,-13.5823006 z"
     id="path11-5"
     style="opacity:0.5;fill:#000000;fill-opacity:1;stroke-width:0.0349969;filter:url(#filter876)" />
  <path
     fill="url(#Gradient)"
     d="M 16,2 C 8.1151993,2 2.0012415,7.7779875 2.0012415,15.578796 c 0,4.080638 1.6728516,7.608325 4.3956102,10.044109 0.2274798,0.202982 0.3674674,0.489956 0.3744667,0.797929 l 0.076993,2.491779 c 0.024498,0.79443 0.8434252,1.312384 1.5713606,0.990412 l 2.778754,-1.224891 c 0.234479,-0.104991 0.500455,-0.122489 0.748933,-0.05599 1.277388,0.349969 2.635267,0.538952 4.052641,0.538952 7.8848,0 13.998758,-5.777987 13.998758,-13.578796 C 29.998758,7.7814872 23.8848,2 16,2 Z"
     id="path11"
     style="fill:#f2f2f2;stroke-width:0.0349969;fill-opacity:1" />
  <path
     fill="#2aa2ee"
     d="M 14.499236,23.992444 C 12.70599,23.809017 11.456911,23.295877 10.534003,22.363883 10.161091,21.987313 9.9077779,21.64103 9.6972649,21.219889 9.2517248,20.329038 9.1120685,19.326758 9.3301814,18.58562 c 0.2168559,-0.737139 0.7102246,-1.549705 1.4046206,-2.314272 0.385597,-0.423998 0.580682,-0.699425 0.759081,-1.045708 0.215141,-0.417141 0.238341,-0.696568 0.220227,-1.083994 -0.01754,-0.375998 -0.09823,-0.537711 -0.304398,-0.709138 -0.195428,-0.161714 -0.275999,-0.251427 -0.880738,-0.222285 -0.590282,0.028 -0.8797659,-0.008 -1.1617071,-0.143999 -0.2186844,-0.105714 -0.2961696,-0.225141 -0.22857,-0.352569 0.3515407,-0.27417 0.4748542,-0.574111 0.8611376,-0.71371 -0.565368,-0.482169 -1.1235932,-0.986623 -1.1428502,-1.706961 0.039714,-0.3858262 0.3966833,-0.2930272 0.3966833,-0.2930272 0.5597281,0.1133762 1.1382214,0.2273992 1.6653614,0.2452162 0.151593,-0.02056 0.311404,-0.06098 0.355146,-0.08983 0.04374,-0.02885 0.162948,-0.1998052 0.264907,-0.3799122 0.397369,-0.701939 0.818167,-1.1551363 1.289593,-1.388792 0.543202,-0.2692669 1.311763,-0.4133061 2.041244,-0.382552 0.877024,0.036971 1.621933,0.3402208 2.230215,0.907937 0.418152,0.39025 0.694853,0.487832 1.092565,0.38529 0.279775,-0.07214 0.28609,-0.07178 0.28609,0.01598 0,0.115325 -0.09203,0.264758 -0.23329,0.378809 l -0.130131,0.105062 0.131182,0.0779 c 0.180782,0.107348 0.15937,0.1936792 -0.05571,0.2246382 -0.179148,0.02579 -0.313415,0.08521 -0.313415,0.138691 0,0.01889 0.02571,0.18253 0.05714,0.363661 0.0771,0.444374 0.04963,1.30542 -0.0552,1.730332 -0.162284,0.658968 -0.408569,1.122965 -0.828566,1.563533 -0.326855,0.297142 -1.250278,0.906852 -1.336563,0.961138 0.04043,0 0.394186,-0.02077 0.631024,2.24e-4 0.866795,0.07683 1.470449,0.222924 2.3409,0.628567 0.822167,0.383124 1.171536,0.424443 1.626562,0.19233 0.290347,-0.148107 0.705996,-0.4641 1.016565,-0.88268 0.265713,-0.357712 0.423998,-0.509711 0.670853,-0.509711 0.241719,0 0.415364,0.159313 0.59834,0.438569 0.25909,0.395466 0.40042,0.677881 0.500968,1.366734 0.07186,0.492289 0.05167,1.647876 -0.03736,2.138673 -0.532089,2.933182 -2.404043,4.90797 -5.261911,5.550938 -0.77131,0.17353 -1.082051,0.204724 -2.150901,0.215896 -0.554494,0.0058 -1.071822,0.004 -1.149651,-0.0039 z"
     id="path2"
     style="stroke-width:0.571425" />
</svg>
