<?xml version="1.0" encoding="UTF-8" standalone="no"?>
<svg
   xmlns:dc="http://purl.org/dc/elements/1.1/"
   xmlns:cc="http://creativecommons.org/ns#"
   xmlns:rdf="http://www.w3.org/1999/02/22-rdf-syntax-ns#"
   xmlns:svg="http://www.w3.org/2000/svg"
   xmlns="http://www.w3.org/2000/svg"
   xmlns:sodipodi="http://sodipodi.sourceforge.net/DTD/sodipodi-0.dtd"
   xmlns:inkscape="http://www.inkscape.org/namespaces/inkscape"
   inkscape:version="1.0.2 (e86c870879, 2021-01-15)"
   sodipodi:docname="anbox.svg"
   id="svg28"
   version="1"
   height="32"
   width="32">
  <metadata
     id="metadata34">
    <rdf:RDF>
      <cc:Work
         rdf:about="">
        <dc:format>image/svg+xml</dc:format>
        <dc:type
           rdf:resource="http://purl.org/dc/dcmitype/StillImage" />
      </cc:Work>
    </rdf:RDF>
  </metadata>
  <defs
     id="defs32">
    <filter
       inkscape:collect="always"
       style="color-interpolation-filters:sRGB"
       id="filter17582"
       x="-0.075"
       width="1.15"
       y="-0.075"
       height="1.15">
      <feGaussianBlur
         inkscape:collect="always"
         stdDeviation="0.875"
         id="feGaussianBlur17584" />
    </filter>
  </defs>
  <sodipodi:namedview
     inkscape:current-layer="svg28"
     inkscape:window-maximized="1"
     inkscape:window-y="0"
     inkscape:window-x="0"
     inkscape:cy="16"
     inkscape:cx="13.900262"
     inkscape:zoom="23.8125"
     showgrid="false"
     id="namedview30"
     inkscape:window-height="999"
     inkscape:window-width="1920"
     inkscape:pageshadow="2"
     inkscape:pageopacity="0"
     guidetolerance="10"
     gridtolerance="10"
     objecttolerance="10"
     borderopacity="1"
     bordercolor="#666666"
     pagecolor="#ffffff"
     inkscape:document-rotation="0" />
  <rect
     id="rect2"
     ry="1.4"
     rx="1.4"
     y="2"
     x="2"
     height="28"
     width="28"
     style="opacity:0.5;filter:url(#filter17582)" />
  <rect
     id="rect4"
     ry="1.4"
     rx="1.4"
     y="2"
     x="2"
     height="28"
     width="28"
     style="fill:#109d8f" />
  <g
     id="g24"
     style="fill:#ffffff">
    <path
       id="path16"
       d="m9.044 13c-0.5753 0-1.044 0.53-1.044 1.183v4.6305c0 0.653 0.4687 1.186 1.044 1.186s0.956-0.533 0.956-1.186v-4.6305c0-0.654-0.38-1.184-0.956-1.184"
       style="fill:#ffffff" />
    <path
       id="path18"
       d="m11 13-0.000245 8.5c-0.000007 0.23573 0.26439 0.5 0.50012 0.5h1.5v1.8751c0 0.622 0.396 1.125 1 1.125 0.60019 0 1.0199-0.50359 1-1.1249v-1.875h1v1.8751c0 0.622 0.396 1.125 1 1.125 0.60019 0 1-0.51173 1-1.1249v-1.875h1.5c0.236 0 0.5-0.264 0.5-0.5v-8.5z"
       style="fill:#ffffff" />
    <path
       id="path20"
       d="m22.044 13c-0.575 0-1.044 0.53-1.044 1.183v4.6305c0 0.653 0.469 1.186 1.044 1.186s0.956-0.533 0.956-1.186v-4.6305c0-0.654-0.38-1.184-0.956-1.184"
       style="fill:#ffffff" />
    <path
       id="path22"
       d="m12.865 5.9023-0.865 0.5 1.197 2.0743c-2.188 1.0571-2.197 3.5234-2.197 3.5234h9s-0.01-2.4665-2.197-3.5234l1.197-2.0743-0.86523-0.5-1.2949 2.2422c-0.397-0.0888-0.835-0.1445-1.338-0.1445-0.504 0-0.944 0.0555-1.342 0.1445l-1.295-2.2422zm0.637 4.0977c0.277 0 0.498 0.223 0.498 0.498s-0.224 0.502-0.498 0.502c-0.277 0-0.502-0.224-0.502-0.502 0-0.275 0.225-0.498 0.502-0.498zm4 0c0.277 0 0.498 0.223 0.498 0.498s-0.224 0.502-0.498 0.502c-0.277 0-0.502-0.224-0.502-0.502 0-0.275 0.225-0.498 0.502-0.498z"
       style="fill:#ffffff" />
  </g>
</svg>
