<?xml version="1.0" encoding="UTF-8" standalone="no"?>
<svg
   xmlns:dc="http://purl.org/dc/elements/1.1/"
   xmlns:cc="http://creativecommons.org/ns#"
   xmlns:rdf="http://www.w3.org/1999/02/22-rdf-syntax-ns#"
   xmlns:svg="http://www.w3.org/2000/svg"
   xmlns="http://www.w3.org/2000/svg"
   xmlns:sodipodi="http://sodipodi.sourceforge.net/DTD/sodipodi-0.dtd"
   xmlns:inkscape="http://www.inkscape.org/namespaces/inkscape"
   inkscape:version="1.0.1 (3bc2e813f5, 2020-09-07)"
   sodipodi:docname="androidstudio.svg"
   id="svg28"
   version="1.1"
   height="32"
   width="32">
  <metadata
     id="metadata34">
    <rdf:RDF>
      <cc:Work
         rdf:about="">
        <dc:format>image/svg+xml</dc:format>
        <dc:type
           rdf:resource="http://purl.org/dc/dcmitype/StillImage" />
      </cc:Work>
    </rdf:RDF>
  </metadata>
  <defs
     id="defs32">
    <filter
       inkscape:collect="always"
       style="color-interpolation-filters:sRGB"
       id="filter17578"
       x="-0.075"
       width="1.15"
       y="-0.075"
       height="1.15">
      <feGaussianBlur
         inkscape:collect="always"
         stdDeviation="0.875"
         id="feGaussianBlur17580" />
    </filter>
  </defs>
  <sodipodi:namedview
     inkscape:current-layer="g26"
     inkscape:window-maximized="1"
     inkscape:window-y="0"
     inkscape:window-x="0"
     inkscape:cy="16"
     inkscape:cx="14.950131"
     inkscape:zoom="23.8125"
     showgrid="false"
     id="namedview30"
     inkscape:window-height="1000"
     inkscape:window-width="1920"
     inkscape:pageshadow="2"
     inkscape:pageopacity="0"
     guidetolerance="10"
     gridtolerance="10"
     objecttolerance="10"
     borderopacity="1"
     bordercolor="#666666"
     pagecolor="#ffffff"
     inkscape:document-rotation="0" />
  <g
     id="g26"
     transform="translate(0,-1090.5197)">
    <circle
       id="circle2"
       r="14"
       cy="1106.5197"
       cx="16"
       style="opacity:0.5;stroke-width:0.965517;filter:url(#filter17578)" />
    <circle
       id="circle4"
       r="14"
       cy="1106.5197"
       cx="16"
       style="fill:#90bb64;stroke-width:0.965517;fill-opacity:1" />
    <path
       id="path8"
       d="m 16.703974,1101.6702 -2.511474,1.45 7.975,13.813 2.705737,1.7865 -0.194263,-3.2365 z"
       style="fill:#e4e4e4" />
    <path
       id="path12"
       d="m 14.169263,1101.6702 2.511474,1.45 -7.975,13.813 L 6,1118.7197 l 0.194263,-3.2365 z"
       style="fill:#ffffff" />
    <path
       id="path16"
       d="m 13.925,1094.7197 v 3 h -1.500001 c -1.499999,0 -1.499999,1.4417 -1.499999,1.4417 v 5.9682 l 3,2.9473 c 0.99648,0.7912 2.075587,0.9206 3,0 l 3,-2.9473 v -5.9682 c 0,-1.4737 -1.499999,-1.4417 -1.499999,-1.4417 H 16.925 v -3 z"
       style="fill:#4f4f4f" />
    <circle
       id="circle20"
       r="1.5"
       cy="1102.2198"
       cx="15.425"
       style="fill:#ffffff" />
    <path
       id="path22"
       d="m 23.907422,1103.7197 c 0.01076,0.1665 0.01663,0.3332 0.01758,0.5 0,4.6944 -3.80558,8.5 -8.5,8.5 -1.612826,0 -3.172045,-0.4625 -4.508402,-1.3017 -0.742299,-0.4661 -0.415834,-0.012 -0.9916,-0.6983 l -1,2.9727 c 1.912353,1.3164 4.178363,2.0231 6.5,2.0273 6.351275,0 11.5,-5.1487 11.5,-11.5 -0.0048,-0.1668 -0.0133,-0.3335 -0.02539,-0.5 z"
       style="fill:#ffffff" />
  </g>
</svg>
