<?xml version="1.0" encoding="UTF-8" standalone="no"?>
<svg
   xmlns:dc="http://purl.org/dc/elements/1.1/"
   xmlns:cc="http://creativecommons.org/ns#"
   xmlns:rdf="http://www.w3.org/1999/02/22-rdf-syntax-ns#"
   xmlns:svg="http://www.w3.org/2000/svg"
   xmlns="http://www.w3.org/2000/svg"
   xmlns:xlink="http://www.w3.org/1999/xlink"
   xmlns:sodipodi="http://sodipodi.sourceforge.net/DTD/sodipodi-0.dtd"
   xmlns:inkscape="http://www.inkscape.org/namespaces/inkscape"
   inkscape:version="1.0.1 (3bc2e813f5, 2020-09-07)"
   sodipodi:docname="anjuta.svg"
   id="svg12"
   version="1"
   height="32"
   width="32">
  <metadata
     id="metadata18">
    <rdf:RDF>
      <cc:Work
         rdf:about="">
        <dc:format>image/svg+xml</dc:format>
        <dc:type
           rdf:resource="http://purl.org/dc/dcmitype/StillImage" />
      </cc:Work>
    </rdf:RDF>
  </metadata>
  <defs
     id="defs16">
    <linearGradient
       id="linearGradient847"
       inkscape:collect="always">
      <stop
         id="stop843"
         offset="0"
         style="stop-color:#a25eb4;stop-opacity:1" />
      <stop
         id="stop845"
         offset="1"
         style="stop-color:#783f87;stop-opacity:1" />
    </linearGradient>
    <linearGradient
       gradientUnits="userSpaceOnUse"
       y2="30"
       x2="16"
       y1="2"
       x1="16"
       id="linearGradient849"
       xlink:href="#linearGradient847"
       inkscape:collect="always" />
    <filter
       inkscape:collect="always"
       style="color-interpolation-filters:sRGB"
       id="filter17574"
       x="-0.075"
       width="1.15"
       y="-0.075"
       height="1.15">
      <feGaussianBlur
         inkscape:collect="always"
         stdDeviation="0.875"
         id="feGaussianBlur17576" />
    </filter>
  </defs>
  <sodipodi:namedview
     inkscape:current-layer="svg12"
     inkscape:window-maximized="1"
     inkscape:window-y="0"
     inkscape:window-x="0"
     inkscape:cy="16"
     inkscape:cx="14.950131"
     inkscape:zoom="23.8125"
     showgrid="false"
     id="namedview14"
     inkscape:window-height="1000"
     inkscape:window-width="1920"
     inkscape:pageshadow="2"
     inkscape:pageopacity="0"
     guidetolerance="10"
     gridtolerance="10"
     objecttolerance="10"
     borderopacity="1"
     bordercolor="#666666"
     pagecolor="#ffffff"
     inkscape:document-rotation="0" />
  <rect
     fill="#964fa9"
     width="28"
     height="28"
     x="2"
     y="2"
     rx="14"
     ry="14"
     id="rect2-5"
     style="fill:#000000;fill-opacity:1;opacity:0.5;filter:url(#filter17574)" />
  <rect
     style="fill-opacity:1;fill:url(#linearGradient849)"
     id="rect2"
     ry="14"
     rx="14"
     y="2"
     x="2"
     height="28"
     width="28"
     fill="#964fa9" />
  <path
     id="path6"
     d="m6.001 14.996c-0.4558-0.136-2.001 1-2.001 1 0.82022-3.0347 6.003-5.9976 6.003-5.9976-0.50081-0.18479-3.0015 0-3.0015 0 3.6907-3.5864 9.0046-1.9992 9.0046-1.9992 0.13592-0.78296 2.001-1.9992 2.001-1.9992-0.22846 0.2286 0 1.4994 0 1.4994 0.22793-0.41443 1.0005-0.49944 1.0005-0.49944-0.40984 0.96509-0.38334 2.909-0.38334 2.909 1.1841 1.1969 2.5051 5.3387 2.5051 5.3387l0.50236 0.73596c0.63778 0.92128 0.37842 2.3659-0.25361 2.709-1.7712 1.0589-2.5719-1.0513-2.5719-1.0513-1.9593-0.2302-3.8006-2.6449-3.8006-2.6449-2.489 1.4052 0.32675 5.864 1.4675 7.3592 1.4653 1.9165-0.46695 4.636-0.46695 4.636s-5.0025 0.35197-8.7504-3.4972c-1.8455-1.977-3.256-4.184-1.255-8.499z"
     style="fill:#ffffff" />
</svg>
