<?xml version="1.0" encoding="UTF-8" standalone="no"?>
<svg
   xmlns:dc="http://purl.org/dc/elements/1.1/"
   xmlns:cc="http://creativecommons.org/ns#"
   xmlns:rdf="http://www.w3.org/1999/02/22-rdf-syntax-ns#"
   xmlns:svg="http://www.w3.org/2000/svg"
   xmlns="http://www.w3.org/2000/svg"
   xmlns:xlink="http://www.w3.org/1999/xlink"
   xmlns:sodipodi="http://sodipodi.sourceforge.net/DTD/sodipodi-0.dtd"
   xmlns:inkscape="http://www.inkscape.org/namespaces/inkscape"
   inkscape:version="1.0.1 (3bc2e813f5, 2020-09-07)"
   sodipodi:docname="anki.svg"
   id="svg10"
   version="1"
   height="32"
   width="32">
  <metadata
     id="metadata16">
    <rdf:RDF>
      <cc:Work
         rdf:about="">
        <dc:format>image/svg+xml</dc:format>
        <dc:type
           rdf:resource="http://purl.org/dc/dcmitype/StillImage" />
      </cc:Work>
    </rdf:RDF>
  </metadata>
  <defs
     id="defs14">
    <linearGradient
       id="linearGradient845"
       inkscape:collect="always">
      <stop
         id="stop841"
         offset="0"
         style="stop-color:#0088d1;stop-opacity:1;" />
      <stop
         id="stop843"
         offset="1"
         style="stop-color:#4cc0ff;stop-opacity:1" />
    </linearGradient>
    <linearGradient
       gradientUnits="userSpaceOnUse"
       y2="28.826427"
       x2="10.783442"
       y1="4.7663279"
       x1="19.245382"
       id="linearGradient847"
       xlink:href="#linearGradient845"
       inkscape:collect="always" />
    <filter
       inkscape:collect="always"
       style="color-interpolation-filters:sRGB"
       id="filter17570"
       x="-0.074999943"
       width="1.1499999"
       y="-0.075000057"
       height="1.1500001">
      <feGaussianBlur
         inkscape:collect="always"
         stdDeviation="0.87498203"
         id="feGaussianBlur17572" />
    </filter>
  </defs>
  <sodipodi:namedview
     inkscape:current-layer="svg10"
     inkscape:window-maximized="1"
     inkscape:window-y="0"
     inkscape:window-x="0"
     inkscape:cy="16"
     inkscape:cx="14.950131"
     inkscape:zoom="23.8125"
     showgrid="false"
     id="namedview12"
     inkscape:window-height="1000"
     inkscape:window-width="1920"
     inkscape:pageshadow="2"
     inkscape:pageopacity="0"
     guidetolerance="10"
     gridtolerance="10"
     objecttolerance="10"
     borderopacity="1"
     bordercolor="#666666"
     pagecolor="#ffffff"
     inkscape:document-rotation="0" />
  <path
     fill="#0088d1"
     d="m 13.118194,2.0895348 a 2.9557,2.8785 0 0 0 -2.168,2.2255 l -1.2568,6.1428002 -5.9069,2.475 a 2.9557,2.8785 0 0 0 -0.2767,5.154 l 5.6088,3.0618 0.58994,6.2361 a 2.9557,2.8785 0 0 0 4.9483,1.8514 l 4.7253,-4.25 6.272,1.3803 a 2.9557,2.8785 0 0 0 3.3348,-4.0129 l -2.6908,-5.6879 3.2876,-5.3833 a 2.9557,2.8785 0 0 0 -2.886,-4.3281002 l -6.389,0.7336 -4.24,-4.7086 a 2.9557,2.8785 0 0 0 -2.953,-0.8892 z"
     id="path2-5"
     style="fill:#000000;fill-opacity:1;opacity:0.5;filter:url(#filter17570)" />
  <path
     style="fill-opacity:1;fill:url(#linearGradient847)"
     id="path2"
     d="m13.118 2.0897a2.9557 2.8785 0 0 0 -2.168 2.2255l-1.2568 6.1428-5.9069 2.475a2.9557 2.8785 0 0 0 -0.2767 5.154l5.6088 3.0618 0.58994 6.2361a2.9557 2.8785 0 0 0 4.9483 1.8514l4.7253-4.25 6.272 1.3803a2.9557 2.8785 0 0 0 3.3348 -4.0129l-2.6908-5.6879 3.2876-5.3833a2.9557 2.8785 0 0 0 -2.886 -4.3281l-6.389 0.7336-4.24-4.7086a2.9557 2.8785 0 0 0 -2.953 -0.8892z"
     fill="#0088d1" />
  <path
     style="fill:#ffffff;fill-opacity:1"
     id="path4"
     d="m13.703 2.0039a2.9557 2.8785 0 0 0 -0.586 0.0859 2.9557 2.8785 0 0 0 -2.166 2.2247l-1.2576 6.1445-5.9063 2.475a2.9557 2.8785 0 0 0 -0.2773 5.154l5.6093 3.06 0.5899 6.237a2.9557 2.8785 0 0 0 4.947 1.851l4.727-4.25 6.271 1.381a2.9557 2.8785 0 0 0 3.334 -4.013l-2.689-5.688 3.287-5.383a2.9557 2.8785 0 0 0 -2.887 -4.3299l-6.388 0.7344-4.241-4.709a2.9557 2.8785 0 0 0 -2.367 -0.9746zm0.141 2.9844l0.004 0.0039c0 0.0002-0.005 0.0059-0.004 0.0058 0.009 0.0007 0.017 0.009 0-0.0097zm0.025 0.0273l4.213 4.6797a3.0003 3.0003 0 0 0 2.572 0.9727l6.229-0.7168-3.145 5.1508a3.0003 3.0003 0 0 0 -0.152 2.847l2.584 5.459-6.143-1.351a3.0003 3.0003 0 0 0 -2.652 0.699l-4.691 4.221-0.579-6.11a3.0003 3.0003 0 0 0 -1.548 -2.351l-5.3558-2.924 5.6508-2.367a3.0003 3.0003 0 0 0 1.781 -2.164l1.236-6.0454z"
     fill="#e4e4e4" />
</svg>
