<?xml version="1.0" encoding="UTF-8" standalone="no"?>
<svg
   xmlns:dc="http://purl.org/dc/elements/1.1/"
   xmlns:cc="http://creativecommons.org/ns#"
   xmlns:rdf="http://www.w3.org/1999/02/22-rdf-syntax-ns#"
   xmlns:svg="http://www.w3.org/2000/svg"
   xmlns="http://www.w3.org/2000/svg"
   xmlns:sodipodi="http://sodipodi.sourceforge.net/DTD/sodipodi-0.dtd"
   xmlns:inkscape="http://www.inkscape.org/namespaces/inkscape"
   inkscape:version="1.0.1 (3bc2e813f5, 2020-09-07)"
   sodipodi:docname="anydesk.svg"
   id="svg18"
   version="1"
   height="32"
   width="32">
  <metadata
     id="metadata24">
    <rdf:RDF>
      <cc:Work
         rdf:about="">
        <dc:format>image/svg+xml</dc:format>
        <dc:type
           rdf:resource="http://purl.org/dc/dcmitype/StillImage" />
      </cc:Work>
    </rdf:RDF>
  </metadata>
  <defs
     id="defs22">
    <filter
       inkscape:collect="always"
       style="color-interpolation-filters:sRGB"
       id="filter17562"
       x="-0.075"
       width="1.15"
       y="-0.075"
       height="1.15">
      <feGaussianBlur
         inkscape:collect="always"
         stdDeviation="0.875"
         id="feGaussianBlur17564" />
    </filter>
  </defs>
  <sodipodi:namedview
     inkscape:current-layer="svg18"
     inkscape:window-maximized="1"
     inkscape:window-y="0"
     inkscape:window-x="0"
     inkscape:cy="16.954432"
     inkscape:cx="15.820387"
     inkscape:zoom="23.8125"
     showgrid="false"
     id="namedview20"
     inkscape:window-height="1000"
     inkscape:window-width="1920"
     inkscape:pageshadow="2"
     inkscape:pageopacity="0"
     guidetolerance="10"
     gridtolerance="10"
     objecttolerance="10"
     borderopacity="1"
     bordercolor="#666666"
     pagecolor="#ffffff"
     inkscape:document-rotation="0" />
  <rect
     style="opacity:0.5;fill:#000000;fill-opacity:1;stroke-width:0.842593;filter:url(#filter17562)"
     id="rect857-7"
     width="28"
     height="28"
     x="2"
     y="2"
     rx="3.3631032"
     ry="3.3631032" />
  <rect
     ry="3.3631032"
     rx="3.3631032"
     y="2"
     x="2"
     height="28"
     width="28"
     id="rect857"
     style="opacity:1;fill:#e52e38;fill-opacity:1;stroke-width:0.842593" />
  <path
     d="m 18.002358,22.681563 0.847656,0.847656 c 0.626526,0.62651 1.67621,0.628446 2.302735,0.002 l 6.376953,-6.380859 c 0.626524,-0.62651 0.626524,-1.674272 0,-2.300782 L 21.152749,8.4686717 c -0.313262,-0.313254 -0.733278,-0.46875 -1.152344,-0.46875 -0.419067,0 -0.839081,0.155496 -1.152344,0.46875 l -0.847656,0.8476562 5.529297,5.5332031 c 0.313262,0.313255 0.470703,0.731422 0.470703,1.150391 0,0.418969 -0.157441,0.837136 -0.470703,1.150391 z"
     style="fill:#ffffff;fill-opacity:1;stroke-width:0.695652"
     id="path14-3" />
  <path
     id="path14"
     d="m 12.000175,7.9999298 c -0.419067,0 -0.838413,0.156199 -1.151676,0.469453 L 4.4698534,14.848741 c -0.626526,0.62651 -0.625637,1.674978 9.04e-4,2.301488 l 6.3786466,6.379356 c 0.626526,0.62651 1.675928,0.627398 2.302453,9.05e-4 l 6.378656,-6.379348 c 0.626524,-0.62651 0.626524,-1.675875 0,-2.302385 L 13.15185,8.4693828 c -0.313262,-0.313254 -0.732609,-0.469453 -1.151675,-0.469453 z"
     style="fill:#ffffff;fill-opacity:1;stroke-width:0.695652" />
</svg>
