<?xml version="1.0" encoding="UTF-8" standalone="no"?>
<svg
   xmlns:dc="http://purl.org/dc/elements/1.1/"
   xmlns:cc="http://creativecommons.org/ns#"
   xmlns:rdf="http://www.w3.org/1999/02/22-rdf-syntax-ns#"
   xmlns:svg="http://www.w3.org/2000/svg"
   xmlns="http://www.w3.org/2000/svg"
   xmlns:xlink="http://www.w3.org/1999/xlink"
   xmlns:sodipodi="http://sodipodi.sourceforge.net/DTD/sodipodi-0.dtd"
   xmlns:inkscape="http://www.inkscape.org/namespaces/inkscape"
   inkscape:version="1.0.1 (3bc2e813f5, 2020-09-07)"
   sodipodi:docname="applications-graphics.svg"
   id="svg16"
   version="1"
   height="32"
   width="32">
  <metadata
     id="metadata22">
    <rdf:RDF>
      <cc:Work
         rdf:about="">
        <dc:format>image/svg+xml</dc:format>
        <dc:type
           rdf:resource="http://purl.org/dc/dcmitype/StillImage" />
        <dc:title />
      </cc:Work>
    </rdf:RDF>
  </metadata>
  <defs
     id="defs20">
    <linearGradient
       id="linearGradient870"
       inkscape:collect="always">
      <stop
         id="stop866"
         offset="0"
         style="stop-color:#e5e5e5;stop-opacity:1;" />
      <stop
         id="stop868"
         offset="1"
         style="stop-color:#f2f2f2;stop-opacity:1" />
    </linearGradient>
    <linearGradient
       gradientUnits="userSpaceOnUse"
       y2="3.2027557"
       x2="28.802261"
       y1="28.97101"
       x1="3.1580224"
       id="linearGradient872"
       xlink:href="#linearGradient870"
       inkscape:collect="always" />
    <filter
       inkscape:collect="always"
       style="color-interpolation-filters:sRGB"
       id="filter17558"
       x="-0.075000519"
       width="1.150001"
       y="-0.074999481"
       height="1.149999">
      <feGaussianBlur
         inkscape:collect="always"
         stdDeviation="0.81250062"
         id="feGaussianBlur17560" />
    </filter>
  </defs>
  <sodipodi:namedview
     inkscape:current-layer="svg16"
     inkscape:window-maximized="1"
     inkscape:window-y="0"
     inkscape:window-x="0"
     inkscape:cy="16"
     inkscape:cx="14.950131"
     inkscape:zoom="23.8125"
     showgrid="false"
     id="namedview18"
     inkscape:window-height="1000"
     inkscape:window-width="1920"
     inkscape:pageshadow="2"
     inkscape:pageopacity="0"
     guidetolerance="10"
     gridtolerance="10"
     objecttolerance="10"
     borderopacity="1"
     bordercolor="#666666"
     pagecolor="#ffffff"
     inkscape:document-rotation="0" />
  <path
     fill="#f3c72f"
     d="m 16.00008,3.0001002 c -7.2222,0 -13,5.7778 -13,12.9999998 0,7.2222 5.7778,13 13,13 1.1556,0 2.1667,-1.0111 2.1667,-2.1667 0,-0.57778 -0.14444,-1.0111 -0.57778,-1.4444 -0.28889,-0.43333 -0.57778,-0.86667 -0.57778,-1.4444 0,-1.1556 1.0112,-2.1667 2.1667,-2.1667 h 2.6 c 4.044,0 7.222,-3.178 7.222,-7.222 0,-6.3559998 -5.778,-11.5559998 -13,-11.5559998 z"
     id="path2-5"
     style="fill:#000000;fill-opacity:1;opacity:0.5;filter:url(#filter17558)" />
  <path
     style="fill:url(#linearGradient872);fill-opacity:1"
     id="path2"
     d="m16 3c-7.2222 0-13 5.7778-13 13s5.7778 13 13 13c1.1556 0 2.1667-1.0111 2.1667-2.1667 0-0.57778-0.14444-1.0111-0.57778-1.4444-0.28889-0.43333-0.57778-0.86667-0.57778-1.4444 0-1.1556 1.0112-2.1667 2.1667-2.1667h2.6c4.044 0 7.222-3.178 7.222-7.222 0-6.356-5.778-11.556-13-11.556z"
     fill="#f3c72f" />
  <path
     id="path4"
     d="m7 16c-1.0667 0-2-0.933-2-2s0.9333-2 2-2 2 0.933 2 2-0.9333 2-2 2z"
     fill="#da8015" />
  <path
     id="path6"
     d="m12 10c-1.0667 0-2-0.93333-2-2s0.93333-2 2-2 2 0.93333 2 2-0.93333 2-2 2z"
     fill="#327cc4" />
  <path
     id="path8"
     d="m19 10c-1.0667 0-2-0.93333-2-2s0.93333-2 2-2 2 0.93333 2 2-0.93333 2-2 2z"
     fill="#4c9511" />
  <path
     id="path10"
     d="m24 16c-1.0667 0-2-0.93333-2-2s0.93333-2 2-2 2 0.93333 2 2-0.93333 2-2 2z"
     fill="#d94d4d" />
</svg>
