<?xml version="1.0" encoding="UTF-8" standalone="no"?>
<svg
   xmlns:dc="http://purl.org/dc/elements/1.1/"
   xmlns:cc="http://creativecommons.org/ns#"
   xmlns:rdf="http://www.w3.org/1999/02/22-rdf-syntax-ns#"
   xmlns:svg="http://www.w3.org/2000/svg"
   xmlns="http://www.w3.org/2000/svg"
   xmlns:sodipodi="http://sodipodi.sourceforge.net/DTD/sodipodi-0.dtd"
   xmlns:inkscape="http://www.inkscape.org/namespaces/inkscape"
   width="32"
   height="32"
   version="1.1"
   id="svg12"
   sodipodi:docname="aranym.svg"
   inkscape:version="1.0.2 (e86c870879, 2021-01-15)">
  <metadata
     id="metadata18">
    <rdf:RDF>
      <cc:Work
         rdf:about="">
        <dc:format>image/svg+xml</dc:format>
        <dc:type
           rdf:resource="http://purl.org/dc/dcmitype/StillImage" />
      </cc:Work>
    </rdf:RDF>
  </metadata>
  <defs
     id="defs16">
    <filter
       inkscape:collect="always"
       style="color-interpolation-filters:sRGB"
       id="filter865"
       x="-0.075"
       width="1.15"
       y="-0.075"
       height="1.15">
      <feGaussianBlur
         inkscape:collect="always"
         stdDeviation="0.875"
         id="feGaussianBlur867" />
    </filter>
  </defs>
  <sodipodi:namedview
     pagecolor="#ffffff"
     bordercolor="#666666"
     borderopacity="1"
     objecttolerance="10"
     gridtolerance="10"
     guidetolerance="10"
     inkscape:pageopacity="0"
     inkscape:pageshadow="2"
     inkscape:window-width="1920"
     inkscape:window-height="1000"
     id="namedview14"
     showgrid="false"
     inkscape:zoom="21"
     inkscape:cx="16"
     inkscape:cy="15.478181"
     inkscape:window-x="0"
     inkscape:window-y="0"
     inkscape:window-maximized="1"
     inkscape:current-layer="svg12" />
  <rect
     style="fill:#000000;fill-opacity:1;stroke-width:1.9166;filter:url(#filter865);opacity:0.5"
     id="rect843-3"
     width="28"
     height="28"
     x="2"
     y="2"
     rx="0"
     ry="0" />
  <rect
     style="opacity:1;fill:#12194b;fill-opacity:1;stroke-width:1.9166"
     id="rect843"
     width="28"
     height="28"
     x="2"
     y="2"
     rx="0"
     ry="0" />
  <path
     d="m10 6v2h2v-2h-2zm9 0v2h-1v1 1h-2v2h-1v1h-2v2h-1v1h-2v2h-1-1v1h-2v5h2v-4h1v-1h2v-2h1 1v-1h1v-1h1v-1h1v-1h1v-1-1h2v-2h1v-1h4v-2h-5zm5 2v2h2v-2h-2zm0 2h-2v2h2v-2zm0 2v2h2v-2h-2zm-2 0h-2v2h2v-2zm-2 2h-1v-1h-2v1h-1v2h1v1h-1v-1h-2v1h-1v2h1v1h2v-1h1v1h-1v3h1v2h2v-2-3h1v-1h3 2v-2h-2v-1h-3v1h-1v-1h1v-2zm0 6v3 3h2v-3h1v-1h3v-2h-3-3zm3 3v2 1h2v-1h1v-2h-3zm-9-3h-2v2h2v-2zm-2 2h-2v2h2v-2zm0 2v2h2v-2h-2zm-2 0h-2v2h2v-2zm2-9v-3h-3v3h3zm0-3h3v-3h-3v3zm-6-2v2h2v-2h-2z"
     style="fill:#ffffff;opacity:0.7"
     id="path8" />
</svg>
