<?xml version="1.0" encoding="UTF-8" standalone="no"?>
<svg
   xmlns:dc="http://purl.org/dc/elements/1.1/"
   xmlns:cc="http://creativecommons.org/ns#"
   xmlns:rdf="http://www.w3.org/1999/02/22-rdf-syntax-ns#"
   xmlns:svg="http://www.w3.org/2000/svg"
   xmlns="http://www.w3.org/2000/svg"
   xmlns:xlink="http://www.w3.org/1999/xlink"
   xmlns:sodipodi="http://sodipodi.sourceforge.net/DTD/sodipodi-0.dtd"
   xmlns:inkscape="http://www.inkscape.org/namespaces/inkscape"
   width="32"
   height="32"
   version="1.1"
   id="svg12"
   sodipodi:docname="arcolinux-hello.svg"
   inkscape:version="1.0.1 (3bc2e813f5, 2020-09-07)">
  <metadata
     id="metadata18">
    <rdf:RDF>
      <cc:Work
         rdf:about="">
        <dc:format>image/svg+xml</dc:format>
        <dc:type
           rdf:resource="http://purl.org/dc/dcmitype/StillImage" />
      </cc:Work>
    </rdf:RDF>
  </metadata>
  <defs
     id="defs16">
    <linearGradient
       id="linearGradient841"
       inkscape:collect="always">
      <stop
         id="stop837"
         offset="0"
         style="stop-color:#525b69;stop-opacity:1" />
      <stop
         id="stop839"
         offset="1"
         style="stop-color:#3e4550;stop-opacity:1" />
    </linearGradient>
    <linearGradient
       gradientUnits="userSpaceOnUse"
       y2="30"
       x2="16"
       y1="2"
       x1="16"
       id="linearGradient843"
       xlink:href="#linearGradient841"
       inkscape:collect="always" />
    <filter
       inkscape:collect="always"
       style="color-interpolation-filters:sRGB"
       id="filter60912"
       x="-0.075"
       width="1.15"
       y="-0.075"
       height="1.15">
      <feGaussianBlur
         inkscape:collect="always"
         stdDeviation="0.875"
         id="feGaussianBlur60914" />
    </filter>
  </defs>
  <sodipodi:namedview
     inkscape:document-rotation="0"
     pagecolor="#ffffff"
     bordercolor="#666666"
     borderopacity="1"
     objecttolerance="10"
     gridtolerance="10"
     guidetolerance="10"
     inkscape:pageopacity="0"
     inkscape:pageshadow="2"
     inkscape:window-width="1920"
     inkscape:window-height="1000"
     id="namedview14"
     showgrid="false"
     inkscape:zoom="23.8125"
     inkscape:cx="13.900262"
     inkscape:cy="16"
     inkscape:window-x="0"
     inkscape:window-y="0"
     inkscape:window-maximized="1"
     inkscape:current-layer="svg12" />
  <path
     style="opacity:0.5;fill-rule:evenodd;filter:url(#filter60912)"
     d="M 30,16 C 30,23.732298 23.731658,30 16,30 8.267702,30 2,23.731658 2,16 2,8.267702 8.2683418,2 16,2 23.732298,2 30,8.2683418 30,16"
     id="path2" />
  <path
     style="fill:url(#linearGradient843);fill-rule:evenodd;fill-opacity:1"
     d="M 30,16 C 30,23.732298 23.731658,30 16,30 8.267702,30 2,23.731658 2,16 2,8.267702 8.2683418,2 16,2 23.732298,2 30,8.2683418 30,16"
     id="path4" />
  <path
     style="fill:#5991e6;fill-opacity:1"
     d="m 6.6468128,22.976474 c 0,-0.06179 8.9644902,-17.1143764 9.2650102,-17.624236 L 16.119433,5 16.346186,5.3978721 c 0.124715,0.2188243 1.038681,1.9585736 2.031029,3.8661 0.992352,1.9075319 2.993415,5.7427289 4.446802,8.5226589 2.039431,3.90087 2.614405,5.072244 2.519317,5.132503 -0.06777,0.04293 -0.884435,0.0787 -1.814813,0.07949 L 21.83692,23 21.338057,22.494155 C 20.086493,21.225084 17.898975,20.135567 15.4543,19.460542 l -1.095227,-0.302414 1.369036,-0.06867 c 1.286098,-0.0645 2.76727,-0.02102 3.560494,0.105824 0.265126,0.0424 0.348794,0.02502 0.348794,-0.07241 0,-0.240734 -3.386326,-6.436304 -3.518029,-6.436304 -0.09598,0 -0.773473,1.18093 -3.403449,5.932504 -1.291973,2.334212 -2.35617,4.252675 -2.364888,4.263254 -0.03894,0.04725 -3.7042182,0.140402 -3.7042182,0.09414 z"
     id="path8" />
</svg>
