<?xml version="1.0" encoding="UTF-8" standalone="no"?>
<svg
   xmlns:dc="http://purl.org/dc/elements/1.1/"
   xmlns:cc="http://creativecommons.org/ns#"
   xmlns:rdf="http://www.w3.org/1999/02/22-rdf-syntax-ns#"
   xmlns:svg="http://www.w3.org/2000/svg"
   xmlns="http://www.w3.org/2000/svg"
   xmlns:xlink="http://www.w3.org/1999/xlink"
   xmlns:sodipodi="http://sodipodi.sourceforge.net/DTD/sodipodi-0.dtd"
   xmlns:inkscape="http://www.inkscape.org/namespaces/inkscape"
   width="32"
   height="32"
   version="1.1"
   id="svg104"
   sodipodi:docname="astah_viewer.svg"
   inkscape:version="1.0.2 (e86c870879, 2021-01-15)">
  <metadata
     id="metadata110">
    <rdf:RDF>
      <cc:Work
         rdf:about="">
        <dc:format>image/svg+xml</dc:format>
        <dc:type
           rdf:resource="http://purl.org/dc/dcmitype/StillImage" />
      </cc:Work>
    </rdf:RDF>
  </metadata>
  <defs
     id="defs108">
    <linearGradient
       inkscape:collect="always"
       id="linearGradient3750">
      <stop
         style="stop-color:#233791;stop-opacity:1"
         offset="0"
         id="stop3746" />
      <stop
         style="stop-color:#bc2455;stop-opacity:1"
         offset="1"
         id="stop3748" />
    </linearGradient>
    <linearGradient
       inkscape:collect="always"
       xlink:href="#linearGradient3750"
       id="linearGradient3752"
       x1="5.8827386"
       y1="28.743141"
       x2="27.636869"
       y2="5.490612"
       gradientUnits="userSpaceOnUse" />
    <filter
       inkscape:collect="always"
       style="color-interpolation-filters:sRGB"
       id="filter3784"
       x="-0.075"
       width="1.15"
       y="-0.075"
       height="1.15">
      <feGaussianBlur
         inkscape:collect="always"
         stdDeviation="0.875"
         id="feGaussianBlur3786" />
    </filter>
  </defs>
  <sodipodi:namedview
     pagecolor="#ffffff"
     bordercolor="#666666"
     borderopacity="1"
     objecttolerance="10"
     gridtolerance="10"
     guidetolerance="10"
     inkscape:pageopacity="0"
     inkscape:pageshadow="2"
     inkscape:window-width="1920"
     inkscape:window-height="1000"
     id="namedview106"
     showgrid="false"
     inkscape:zoom="14.849242"
     inkscape:cx="11.31743"
     inkscape:cy="16.981186"
     inkscape:window-x="0"
     inkscape:window-y="0"
     inkscape:window-maximized="1"
     inkscape:current-layer="svg104" />
  <rect
     style="fill:#000000;fill-opacity:1;stroke-width:1.81501;filter:url(#filter3784);opacity:0.5"
     id="rect3744-7"
     width="28"
     height="28"
     x="2.0000005"
     y="2.0000005"
     rx="6.2616162"
     ry="6.2616162" />
  <rect
     style="opacity:1;fill:url(#linearGradient3752);fill-opacity:1;stroke-width:1.81501"
     id="rect3744"
     width="28"
     height="28"
     x="2"
     y="2"
     rx="6.2616162"
     ry="6.2616162" />
  <path
     d="m13.273438 2c-0.248146 0.8690281-0.466801 1.9034552-0.490235 2.9472656-0.03374 1.5034448 0.753906 3.421875 0.753906 3.421875l2.464844-0.453125s-0.911849-1.1372497-0.953125-3.1210937c-0.019689-0.946556 0.166584-1.9412619 0.390625-2.7949219h-2.166015zm16.597656 5.0253906c-1.1541 0.0616486-3.005351 0.1878038-4.269532 0.5371094-3.252317 0.8986477-7.582031 1.9140625-7.582031 1.9140625l1.685547 1.5097655s3.420026-1.0040796 6.09375-1.533203c1.27172-0.251671 3.128276-0.3533193 4.201172-0.4023438v-0.7441406c0-0.4388539-0.044369-0.8681149-0.128906-1.28125zm-27.84375 0.7441406c-0.0148677 0.1774318-0.0273438 0.3557067-0.0273438 0.5371094v1.4238282c0.7705818 0.2335774 1.8900356 0.5397192 3.5390625 0.8144532 1.3153942 0.219157 3.9746094 0.453125 3.9746094 0.453125l0.5527341-2.0117189s-2.4612131 0.038824-3.6718748-0.1503906c-1.9754632-0.3087466-3.5501001-0.798132-4.3671874-1.0664063zm16.794922 5.2324218-1.828125 1.728516s2.213028 0.241343 7.414062 5.871093c2.511362 2.718368 3.88392 4.825429 4.669922 6.400391 0.581587-0.955397 0.921875-2.076424 0.921875-3.28125v-0.931641c-1.130974-1.541134-2.664906-3.294192-4.787109-5.207031-3.343114-3.013309-6.390625-4.580078-6.390625-4.580078zm-8.378907 0.976563c-4.4441676-0.02049-5.4414059 2.30664-5.4414059 2.30664l1.9980469 1.714844s0.8473856-0.968062 3.396484-0.970703c2.604746-0.0027 2.597657 2 2.597657 2s-8.994141-0.299251-8.994141 4.599609c0 2.150729 1.49762 4.398438 4.9960938 4.398438 2.7987782 0 4.0039062-2.027344 4.0039062-2.027344v2h3l-0.005859-8.570312c0.0061-2.429174-0.994948-5.430172-5.550782-5.451172zm2.556641 7.021484v1.400391c0 0.699837-0.504431 2.626953-2.603516 2.626953-2.0990844 0-2.396484-1.027344-2.396484-2.027344 0-2 5-2 5-2z"
     style="fill:#fcfcfc"
     id="path102" />
</svg>
