<?xml version="1.0" encoding="UTF-8" standalone="no"?>
<svg
   xmlns:dc="http://purl.org/dc/elements/1.1/"
   xmlns:cc="http://creativecommons.org/ns#"
   xmlns:rdf="http://www.w3.org/1999/02/22-rdf-syntax-ns#"
   xmlns:svg="http://www.w3.org/2000/svg"
   xmlns="http://www.w3.org/2000/svg"
   xmlns:xlink="http://www.w3.org/1999/xlink"
   xmlns:sodipodi="http://sodipodi.sourceforge.net/DTD/sodipodi-0.dtd"
   xmlns:inkscape="http://www.inkscape.org/namespaces/inkscape"
   inkscape:version="1.0.1 (3bc2e813f5, 2020-09-07)"
   sodipodi:docname="atom-beta.svg"
   id="svg12"
   version="1"
   height="32"
   width="32">
  <metadata
     id="metadata18">
    <rdf:RDF>
      <cc:Work
         rdf:about="">
        <dc:format>image/svg+xml</dc:format>
        <dc:type
           rdf:resource="http://purl.org/dc/dcmitype/StillImage" />
        <dc:title />
      </cc:Work>
    </rdf:RDF>
  </metadata>
  <defs
     id="defs16">
    <linearGradient
       id="linearGradient889"
       inkscape:collect="always">
      <stop
         id="stop885"
         offset="0"
         style="stop-color:#f6cc1f;stop-opacity:1;" />
      <stop
         id="stop887"
         offset="1"
         style="stop-color:#ddb309;stop-opacity:1" />
    </linearGradient>
    <linearGradient
       gradientUnits="userSpaceOnUse"
       y2="29"
       x2="16"
       y1="3"
       x1="16"
       id="linearGradient891"
       xlink:href="#linearGradient889"
       inkscape:collect="always" />
    <filter
       inkscape:collect="always"
       style="color-interpolation-filters:sRGB"
       id="filter60900"
       x="-0.075"
       width="1.15"
       y="-0.075"
       height="1.15">
      <feGaussianBlur
         inkscape:collect="always"
         stdDeviation="0.875"
         id="feGaussianBlur60902" />
    </filter>
  </defs>
  <sodipodi:namedview
     inkscape:current-layer="svg12"
     inkscape:window-maximized="1"
     inkscape:window-y="0"
     inkscape:window-x="0"
     inkscape:cy="16"
     inkscape:cx="14.974359"
     inkscape:zoom="24.375"
     showgrid="false"
     id="namedview14"
     inkscape:window-height="1000"
     inkscape:window-width="1920"
     inkscape:pageshadow="2"
     inkscape:pageopacity="0"
     guidetolerance="10"
     gridtolerance="10"
     objecttolerance="10"
     borderopacity="1"
     bordercolor="#666666"
     pagecolor="#ffffff"
     inkscape:document-rotation="0" />
  <circle
     r="14"
     cy="16"
     cx="16"
     id="path879"
     style="opacity:0.5;fill:#000000;fill-opacity:1;stroke:none;stroke-width:4.06863;stroke-miterlimit:4;stroke-dasharray:none;stroke-opacity:1;filter:url(#filter60900)" />
  <rect
     style="fill:url(#linearGradient891);fill-opacity:1;stroke-width:0.928571"
     id="rect2"
     ry="13"
     rx="13"
     y="3"
     x="3"
     height="26"
     width="26"
     fill="#40a459" />
  <path
     id="path6"
     d="M 12.419922 7.0019531 C 12.19187 6.9955949 11.97672 7.0150505 11.833984 7.0625 C 11.133745 7.2994 10.694319 7.8090962 10.451172 8.6601562 C 10.241112 9.4018563 10.247499 10.736137 10.466797 11.898438 C 10.505267 12.100387 10.545488 12.284843 10.554688 12.314453 C 10.566232 12.356213 10.491023 12.382631 10.160156 12.457031 C 8.5426619 12.821431 7.3617953 13.364263 6.6523438 14.070312 C 6.3337909 14.384622 6.1570238 14.660863 6.0546875 15.007812 C 5.9823575 15.248482 5.9823575 15.725261 6.0546875 15.962891 C 6.2532383 16.615791 6.8119593 17.228664 7.6953125 17.771484 C 8.3085799 18.145014 8.4928859 18.186104 8.6914062 17.990234 C 8.7845115 17.898374 8.8046875 17.854221 8.8046875 17.744141 C 8.8046875 17.530811 8.737771 17.446433 8.4492188 17.283203 C 6.6401974 16.278103 6.3212692 15.268897 7.5292969 14.373047 C 8.1425846 13.919067 9.0000873 13.55987 10.154297 13.28125 C 10.659836 13.15978 10.773438 13.145648 10.773438 13.210938 C 10.773437 13.299737 11.145523 14.473329 11.337891 14.980469 L 11.537109 15.511719 L 11.275391 16.009766 C 10.22966 18.002566 9.5593106 20.033831 9.4785156 21.519531 C 9.4123421 22.664331 9.6218811 23.483094 10.132812 23.990234 C 10.69147 24.542174 11.479568 24.660224 12.492188 24.339844 C 12.873783 24.218374 13.632542 23.837856 14.074219 23.541016 C 14.392782 23.330716 14.461586 23.270236 14.503906 23.160156 C 14.546236 23.050076 14.546236 23.013838 14.503906 22.898438 C 14.440804 22.726097 14.30896 22.630859 14.128906 22.630859 C 14.011945 22.630859 13.929762 22.667191 13.628906 22.869141 C 12.946394 23.326181 12.307089 23.610389 11.775391 23.699219 C 11.03904 23.823749 10.565826 23.503341 10.349609 22.744141 C 10.256501 22.414641 10.262898 21.35836 10.365234 20.8125 C 10.52144 19.944 10.794659 19.04274 11.185547 18.09375 C 11.417149 17.53045 11.859902 16.587641 11.919922 16.525391 C 11.949922 16.492751 11.988621 16.546004 12.087891 16.771484 C 12.59344 17.891984 13.365063 19.259134 14.119141 20.365234 C 15.91978 23.002634 17.891988 24.720817 19.410156 24.966797 L 19.394531 24.96875 C 20.061657 25.07504 20.62308 24.912122 21.058594 24.482422 C 21.41331 24.126322 21.648903 23.624674 21.78125 22.927734 C 21.86205 22.491934 21.86205 21.273704 21.78125 20.677734 C 21.534962 18.901234 20.879092 16.862584 19.896484 14.833984 C 19.743359 14.516644 19.655551 14.439453 19.457031 14.439453 C 19.234652 14.436423 19.054688 14.606983 19.054688 14.820312 C 19.054688 14.894713 19.129664 15.095175 19.255859 15.359375 C 20.466958 17.906475 21.116951 20.371697 21.050781 22.154297 C 21.010007 23.216397 20.740272 23.853629 20.232422 24.099609 C 19.965397 24.229439 19.628351 24.226714 19.183594 24.083984 C 17.142139 23.402184 14.377795 19.992584 12.595703 15.958984 L 12.417969 15.554688 L 12.677734 15.119141 C 12.969327 14.624141 13.705591 13.518453 14.044922 13.064453 L 14.273438 12.761719 L 14.873047 12.761719 C 18.525711 12.761719 22.143048 13.577272 24.060547 14.826172 C 24.451436 15.081252 24.922873 15.547762 25.064453 15.820312 C 25.166823 16.010112 25.175781 16.06045 25.175781 16.3125 C 25.175781 16.55924 25.165901 16.618451 25.082031 16.769531 C 24.847297 17.214391 24.228043 17.676369 23.431641 18.005859 C 23.062305 18.159979 22.962891 18.260403 22.962891 18.470703 C 22.962891 18.648353 23.080831 18.798423 23.257812 18.851562 C 23.372464 18.884213 23.410552 18.878548 23.615234 18.798828 C 24.901811 18.297028 25.782838 17.517316 25.962891 16.728516 C 26.013751 16.515186 26.011727 16.11351 25.960938 15.90625 C 25.864754 15.49931 25.520922 14.976943 25.126953 14.626953 C 23.371821 13.072853 19.648755 12.070807 15.230469 11.966797 L 14.914062 11.958984 L 15.283203 11.548828 C 15.481723 11.320308 15.836922 10.940206 16.080078 10.697266 C 17.336654 9.4369655 18.502683 8.6134513 19.521484 8.2695312 C 19.846199 8.1571682 19.912971 8.1445312 20.25 8.1445312 C 20.563171 8.1445312 20.638009 8.1543283 20.773438 8.2226562 C 20.957344 8.3084463 21.164114 8.5178869 21.269531 8.7167969 C 21.476524 9.1229969 21.544573 9.836503 21.445312 10.595703 C 21.412222 10.856863 21.386719 11.157709 21.386719 11.261719 C 21.386719 11.437099 21.391805 11.464991 21.494141 11.550781 C 21.578011 11.628221 21.635642 11.648438 21.744141 11.648438 C 21.918813 11.648437 22.080426 11.556151 22.128906 11.431641 C 22.272801 11.064141 22.347006 9.7617906 22.253906 9.2128906 C 22.109224 8.3701706 21.743412 7.8009806 21.160156 7.5253906 C 20.129091 7.0333906 18.633439 7.5147844 16.886719 8.8964844 C 15.973325 9.6199844 14.77089 10.846484 13.941406 11.896484 L 13.859375 11.992188 L 13.369141 12.017578 C 12.957546 12.041118 12.288473 12.107359 11.509766 12.199219 L 11.339844 12.21875 L 11.267578 11.8125 C 11.126764 11.00315 11.115234 10.881802 11.115234 10.107422 C 11.115234 9.4279518 11.125236 9.2979406 11.191406 9.0253906 C 11.353763 8.3375406 11.673676 7.9110916 12.097656 7.8222656 C 12.680944 7.7008356 13.406215 7.9884119 14.421875 8.7324219 C 14.74659 8.9730819 15.140277 8.7663187 15.091797 8.3867188 C 15.07102 8.2212188 14.919427 8.0791612 14.402344 7.7382812 C 13.96912 7.4505512 13.481025 7.2130563 13.083984 7.0976562 C 12.888535 7.0399577 12.647974 7.0083114 12.419922 7.0019531 z M 13.193359 12.839844 C 13.193359 12.855034 13.054403 13.065433 12.882812 13.314453 C 12.711221 13.560433 12.467992 13.921973 12.341797 14.126953 C 12.218684 14.325863 12.098079 14.506633 12.074219 14.533203 C 12.041138 14.568123 11.992675 14.474069 11.845703 14.011719 C 11.635626 13.374039 11.545336 13.02961 11.572266 13 C 11.616862 12.95521 13.193359 12.795054 13.193359 12.839844 z M 16.150391 15 C 15.515588 15 15 15.518386 15 16.152344 C 15 16.786311 15.515599 17.300781 16.150391 17.300781 C 16.785193 17.300781 17.300781 16.786301 17.300781 16.152344 C 17.300781 15.518417 16.785183 15 16.150391 15 z"
     style="fill:#ffffff" />
  <rect
     fill="#40a459"
     width="26.071259"
     height="26.071259"
     x="2.9643707"
     y="2.9643707"
     rx="13.035628"
     ry="13.035628"
     id="rect2-5"
     style="fill:none;fill-opacity:1;stroke:#ffffff;stroke-width:1.92874;stroke-miterlimit:4;stroke-dasharray:none;stroke-opacity:1" />
</svg>
