<?xml version="1.0" encoding="UTF-8" standalone="no"?>
<svg
   xmlns:dc="http://purl.org/dc/elements/1.1/"
   xmlns:cc="http://creativecommons.org/ns#"
   xmlns:rdf="http://www.w3.org/1999/02/22-rdf-syntax-ns#"
   xmlns:svg="http://www.w3.org/2000/svg"
   xmlns="http://www.w3.org/2000/svg"
   xmlns:sodipodi="http://sodipodi.sourceforge.net/DTD/sodipodi-0.dtd"
   xmlns:inkscape="http://www.inkscape.org/namespaces/inkscape"
   width="32"
   height="32"
   version="1.1"
   id="svg12"
   sodipodi:docname="auryo.svg"
   inkscape:version="1.0.2 (e86c870879, 2021-01-15)">
  <metadata
     id="metadata18">
    <rdf:RDF>
      <cc:Work
         rdf:about="">
        <dc:format>image/svg+xml</dc:format>
        <dc:type
           rdf:resource="http://purl.org/dc/dcmitype/StillImage" />
      </cc:Work>
    </rdf:RDF>
  </metadata>
  <defs
     id="defs16">
    <filter
       inkscape:collect="always"
       style="color-interpolation-filters:sRGB"
       id="filter843"
       x="-0.075"
       width="1.15"
       y="-0.075"
       height="1.15">
      <feGaussianBlur
         inkscape:collect="always"
         stdDeviation="0.875"
         id="feGaussianBlur845" />
    </filter>
  </defs>
  <sodipodi:namedview
     pagecolor="#ffffff"
     bordercolor="#666666"
     borderopacity="1"
     objecttolerance="10"
     gridtolerance="10"
     guidetolerance="10"
     inkscape:pageopacity="0"
     inkscape:pageshadow="2"
     inkscape:window-width="1920"
     inkscape:window-height="1000"
     id="namedview14"
     showgrid="false"
     inkscape:zoom="21"
     inkscape:cx="16"
     inkscape:cy="16"
     inkscape:window-x="0"
     inkscape:window-y="0"
     inkscape:window-maximized="1"
     inkscape:current-layer="svg12" />
  <circle
     style="opacity:0.5;filter:url(#filter843)"
     cx="16"
     cy="16"
     r="14"
     id="circle2" />
  <circle
     style="fill:#ffffff"
     cx="16"
     cy="16"
     r="14"
     id="circle4" />
  <path
     style="fill:#000000"
     d="m 16,7 c -3.865993,0 -7,3.134007 -7,7 l 0,2.175781 C 7.8028154,16.599048 7.0017816,17.730196 7,19 c 0,1.656854 1.3431458,3 3,3 0.3409,-0.0014 0.679075,-0.0608 1,-0.175781 L 11,22 l 2,0 0,-3 0,-3 -2,0 0,-2 c 0,-2.761424 2.238576,-5 5,-5 2.761424,0 5,2.238576 5,5 l 0,2.175781 C 19.802815,16.599048 19.001782,17.730196 19,19 c 0,1.656854 1.343146,3 3,3 1.656854,0 3,-1.343146 3,-3 -9.55e-4,-1.270521 -0.802141,-2.402665 -2,-2.826172 L 23,14 C 23,10.134007 19.865993,7 16,7 Z m -6,11 c 0.552285,0 1,0.447715 1,1 0,0.552285 -0.447715,1 -1,1 -0.5522847,0 -1,-0.447715 -1,-1 0,-0.552285 0.4477153,-1 1,-1 z m 12,0 c 0.552285,0 1,0.447715 1,1 0,0.552285 -0.447715,1 -1,1 -0.552285,0 -1,-0.447715 -1,-1 0,-0.552285 0.447715,-1 1,-1 z"
     id="path10" />
</svg>
