<?xml version="1.0" encoding="UTF-8" standalone="no"?>
<svg
   xmlns:dc="http://purl.org/dc/elements/1.1/"
   xmlns:cc="http://creativecommons.org/ns#"
   xmlns:rdf="http://www.w3.org/1999/02/22-rdf-syntax-ns#"
   xmlns:svg="http://www.w3.org/2000/svg"
   xmlns="http://www.w3.org/2000/svg"
   xmlns:sodipodi="http://sodipodi.sourceforge.net/DTD/sodipodi-0.dtd"
   xmlns:inkscape="http://www.inkscape.org/namespaces/inkscape"
   width="32"
   height="32"
   version="1.1"
   id="svg12"
   sodipodi:docname="avocode.svg"
   inkscape:version="1.0.2 (e86c870879, 2021-01-15)">
  <metadata
     id="metadata18">
    <rdf:RDF>
      <cc:Work
         rdf:about="">
        <dc:format>image/svg+xml</dc:format>
        <dc:type
           rdf:resource="http://purl.org/dc/dcmitype/StillImage" />
      </cc:Work>
    </rdf:RDF>
  </metadata>
  <defs
     id="defs16">
    <filter
       inkscape:collect="always"
       style="color-interpolation-filters:sRGB"
       id="filter843"
       x="-0.075"
       width="1.15"
       y="-0.075"
       height="1.15">
      <feGaussianBlur
         inkscape:collect="always"
         stdDeviation="0.875"
         id="feGaussianBlur845" />
    </filter>
  </defs>
  <sodipodi:namedview
     pagecolor="#ffffff"
     bordercolor="#666666"
     borderopacity="1"
     objecttolerance="10"
     gridtolerance="10"
     guidetolerance="10"
     inkscape:pageopacity="0"
     inkscape:pageshadow="2"
     inkscape:window-width="1920"
     inkscape:window-height="1000"
     id="namedview14"
     showgrid="false"
     inkscape:zoom="21"
     inkscape:cx="16"
     inkscape:cy="16"
     inkscape:window-x="0"
     inkscape:window-y="0"
     inkscape:window-maximized="1"
     inkscape:current-layer="svg12" />
  <circle
     style="opacity:0.5;filter:url(#filter843)"
     cx="16"
     cy="16"
     r="14"
     id="circle2" />
  <circle
     style="fill:#ffffff"
     cx="16"
     cy="16"
     r="14"
     id="circle4" />
  <path
     style="fill:#00bc8a;fill-opacity:1"
     d="m 15.918238,8.0003897 c -0.191469,0.0032 -0.383247,0.02216 -0.571622,0.054687 -1.554404,0.4733005 -2.620276,1.8286555 -3.425819,3.1678113 -1.267983,2.241875 -2.0624074,4.831926 -1.89976,7.42541 0.23981,2.650574 2.447745,4.952115 5.083389,5.303122 0.290173,0.03834 0.582717,0.04337 0.875011,0.04557 2.726436,0.09433 5.312416,-1.978114 5.868553,-4.641695 0.398768,-1.914334 -0.045,-3.898201 -0.660163,-5.717164 C 20.444998,11.653116 19.383107,9.6285632 17.55237,8.4495913 17.066505,8.1223804 16.492641,7.9908569 15.918238,8.000395 Z m 0.166668,4.6716413 c 0.470352,0.04079 0.93024,0.306729 1.234389,0.671842 0.998134,1.096472 1.578782,2.570035 1.661477,4.045371 0.17445,1.439667 -0.867268,2.867912 -2.272162,3.192549 -1.110254,0.274698 -2.331169,-0.129695 -3.043002,-1.027292 -0.735025,-0.838409 -0.762814,-2.02294 -0.552089,-3.061046 0.32563,-1.370471 0.935115,-2.812035 2.145857,-3.623516 0.257756,-0.165047 0.543319,-0.222381 0.82553,-0.197908 z"
     id="path8" />
</svg>
