<?xml version="1.0" encoding="UTF-8" standalone="no"?>
<svg
   xmlns:dc="http://purl.org/dc/elements/1.1/"
   xmlns:cc="http://creativecommons.org/ns#"
   xmlns:rdf="http://www.w3.org/1999/02/22-rdf-syntax-ns#"
   xmlns:svg="http://www.w3.org/2000/svg"
   xmlns="http://www.w3.org/2000/svg"
   xmlns:xlink="http://www.w3.org/1999/xlink"
   xmlns:sodipodi="http://sodipodi.sourceforge.net/DTD/sodipodi-0.dtd"
   xmlns:inkscape="http://www.inkscape.org/namespaces/inkscape"
   inkscape:version="1.0.1 (3bc2e813f5, 2020-09-07)"
   sodipodi:docname="birdie.svg"
   id="svg26"
   version="1.1"
   height="32"
   width="32">
  <metadata
     id="metadata32">
    <rdf:RDF>
      <cc:Work
         rdf:about="">
        <dc:format>image/svg+xml</dc:format>
        <dc:type
           rdf:resource="http://purl.org/dc/dcmitype/StillImage" />
      </cc:Work>
    </rdf:RDF>
  </metadata>
  <defs
     id="defs30">
    <linearGradient
       id="linearGradient865"
       inkscape:collect="always">
      <stop
         id="stop861"
         offset="0"
         style="stop-color:#4da3e9;stop-opacity:1" />
      <stop
         id="stop863"
         offset="1"
         style="stop-color:#1a85dc;stop-opacity:1" />
    </linearGradient>
    <linearGradient
       gradientUnits="userSpaceOnUse"
       y2="1049.3622"
       x2="16"
       y1="1021.8622"
       x1="16"
       id="linearGradient867"
       xlink:href="#linearGradient865"
       inkscape:collect="always" />
    <filter
       inkscape:collect="always"
       style="color-interpolation-filters:sRGB"
       id="filter60860"
       x="-0.074330358"
       width="1.1486607"
       y="-0.075681818"
       height="1.1513636">
      <feGaussianBlur
         inkscape:collect="always"
         stdDeviation="0.86718749"
         id="feGaussianBlur60862" />
    </filter>
  </defs>
  <sodipodi:namedview
     inkscape:current-layer="g24"
     inkscape:window-maximized="1"
     inkscape:window-y="0"
     inkscape:window-x="0"
     inkscape:cy="16"
     inkscape:cx="14.974359"
     inkscape:zoom="24.375"
     showgrid="false"
     id="namedview28"
     inkscape:window-height="1000"
     inkscape:window-width="1920"
     inkscape:pageshadow="2"
     inkscape:pageopacity="0"
     guidetolerance="10"
     gridtolerance="10"
     objecttolerance="10"
     borderopacity="1"
     bordercolor="#666666"
     pagecolor="#ffffff"
     inkscape:document-rotation="0" />
  <g
     id="g24"
     transform="translate(0,-1020.3622)">
    <path
       id="path2"
       d="m 16,1022.6122 -1.333333,1.6 -1.666667,-0.6 -0.791667,1.5209 c -3.0709324,0.6319 -5.2408127,2.1161 -7.0390593,4.4622 -3.1452866,4.1035 -3.1692733,11.1836 -3.1692733,15.1836 0,3.9999 7.333333,5.3333 13.9999996,5.3333 6.666667,0 14,-1.3334 14,-5.3333 0,-4 -0.024,-11.0801 -3.169273,-15.1836 -1.798247,-2.3462 -3.968127,-3.8303 -7.03906,-4.4623 L 19,1023.6122 l -1.666667,0.6 z"
       style="opacity:0.5;filter:url(#filter60860)" />
    <path
       id="path4"
       d="m 16,1021.8622 -1.333333,1.6 -1.666667,-0.6 -0.791667,1.5209 c -3.0709328,0.6319 -5.2408131,2.1161 -7.0390597,4.4622 C 2.0239867,1032.9488 2,1040.0289 2,1044.0289 c 0,3.9999 7.333333,5.3333 14,5.3333 6.666667,0 14,-1.3334 14,-5.3333 0,-4 -0.024,-11.0801 -3.169273,-15.1836 -1.798247,-2.3462 -3.968127,-3.8303 -7.03906,-4.4623 L 19,1022.8622 l -1.666667,0.6 z"
       style="fill:url(#linearGradient867);fill-opacity:1" />
    <path
       id="path6"
       d="m 12.694481,1043.4506 c 0.681975,1.1812 1.941576,1.9096 3.305519,1.9116 1.363943,0 2.623544,-0.7304 3.305519,-1.9116 l -3.305519,0 z"
       style="fill:#86572f" />
    <path
       id="path10"
       d="m 16.000001,1039.3622 c -0.15317,10e-5 -0.301029,0.058 -0.409484,0.1621 l -3.402434,2.897 c -0.364082,0.35 -0.172602,1.3851 0.342477,1.3854 l 3.469441,0.5555 3.46944,-0.5555 c 0.515073,-3e-4 0.70656,-1.0354 0.342477,-1.3854 l -3.402435,-2.897 c -0.108455,-0.1043 -0.256313,-0.162 -0.409482,-0.1621 z"
       style="fill:#ffc12e" />
    <ellipse
       id="ellipse12"
       transform="matrix(-0.97032493,0.24180473,0.15783338,0.98746576,0,0)"
       ry="2.945"
       rx="3.054"
       cy="1011.499"
       cx="155.256"
       style="opacity:0.6" />
    <ellipse
       id="ellipse14"
       transform="matrix(0.52938519,0.84838159,-0.77241219,0.63512157,0,0)"
       ry="1.179"
       rx=".782"
       cy="545.946"
       cx="811.687"
       style="opacity:0.76381908;fill:#ffffff" />
    <ellipse
       id="ellipse16"
       transform="matrix(0.97032493,0.24180473,-0.15783338,0.98746576,0,0)"
       ry="2.945"
       rx="3.054"
       cy="1003.733"
       cx="186.971"
       style="opacity:0.6" />
    <ellipse
       id="ellipse18"
       transform="matrix(0.52938519,0.84838159,-0.77241219,0.63512157,0,0)"
       ry="1.179"
       rx=".782"
       cy="533.967"
       cx="820.655"
       style="opacity:0.76381908;fill:#ffffff" />
  </g>
</svg>
