<?xml version="1.0" encoding="UTF-8" standalone="no"?>
<svg
   xmlns:dc="http://purl.org/dc/elements/1.1/"
   xmlns:cc="http://creativecommons.org/ns#"
   xmlns:rdf="http://www.w3.org/1999/02/22-rdf-syntax-ns#"
   xmlns:svg="http://www.w3.org/2000/svg"
   xmlns="http://www.w3.org/2000/svg"
   xmlns:sodipodi="http://sodipodi.sourceforge.net/DTD/sodipodi-0.dtd"
   xmlns:inkscape="http://www.inkscape.org/namespaces/inkscape"
   inkscape:version="1.0.1 (3bc2e813f5, 2020-09-07)"
   sodipodi:docname="bitcoin.svg"
   id="svg12"
   version="1.1"
   height="32"
   width="32">
  <metadata
     id="metadata18">
    <rdf:RDF>
      <cc:Work
         rdf:about="">
        <dc:format>image/svg+xml</dc:format>
        <dc:type
           rdf:resource="http://purl.org/dc/dcmitype/StillImage" />
      </cc:Work>
    </rdf:RDF>
  </metadata>
  <defs
     id="defs16">
    <filter
       inkscape:collect="always"
       style="color-interpolation-filters:sRGB"
       id="filter60856"
       x="-0.075"
       width="1.15"
       y="-0.075"
       height="1.15">
      <feGaussianBlur
         inkscape:collect="always"
         stdDeviation="0.875"
         id="feGaussianBlur60858" />
    </filter>
  </defs>
  <sodipodi:namedview
     inkscape:current-layer="svg12"
     inkscape:window-maximized="1"
     inkscape:window-y="0"
     inkscape:window-x="0"
     inkscape:cy="16"
     inkscape:cx="15.038462"
     inkscape:zoom="26"
     showgrid="false"
     id="namedview14"
     inkscape:window-height="1000"
     inkscape:window-width="1920"
     inkscape:pageshadow="2"
     inkscape:pageopacity="0"
     guidetolerance="10"
     gridtolerance="10"
     objecttolerance="10"
     borderopacity="1"
     bordercolor="#666666"
     pagecolor="#ffffff"
     inkscape:document-rotation="0" />
  <circle
     id="circle2"
     r="14"
     cy="16"
     cx="16"
     style="opacity:0.5;filter:url(#filter60856)" />
  <circle
     id="circle4"
     r="14"
     cy="16"
     cx="16"
     style="fill:#f7931a" />
  <path
     id="path8"
     d="m 13,7 0,2.9999995 -3.0000007,0 0,2.0000015 c 0,0 1.1456507,-0.01999 1.1273687,0 0.613377,-0.0093 0.808708,0.436058 0.872215,0.733073 l 0,6.600259 c -0.02351,0.1877 -0.0035,0.653333 -0.432202,0.666667 0.0198,0.01733 -1.5673817,0 -1.5673817,0 l 0,2 2.1688177,0 C 12.535544,21.98667 12.645729,22 13,22 l 0,3 2,0 0,-3 0.97917,0 0.04166,3 L 18,25 17.97917,22 C 20.52239,21.815365 22,20.597881 21.983179,18.5 22,16.570087 20.456651,15.506411 19.5,15.5 20.456506,15.503769 21,14.463447 21,13 21,11 19.619804,10 17.999999,10 l 0,-3 L 16,7 l 0,3 c -0.398082,0 -0.595857,-0.01467 -1,0 l 0,-3 z m 2,5.000001 C 17,12 18,12 18,13.5 18,15 17,15 15,15 Z M 15,17 c 2.666111,8.3e-5 4.000276,-0.166641 4,1.5 2.76e-4,1.666775 -1.333889,1.5 -4,1.5 z"
     style="fill:#ffffff" />
  <circle
     style="fill:none;stroke:#ffffff;stroke-width:1.86667;stroke-miterlimit:4;stroke-dasharray:none;stroke-opacity:1;opacity:0.3"
     cx="16"
     cy="16"
     r="13.066667"
     id="circle4-3" />
</svg>
