<?xml version="1.0" encoding="UTF-8" standalone="no"?>
<svg
   xmlns:dc="http://purl.org/dc/elements/1.1/"
   xmlns:cc="http://creativecommons.org/ns#"
   xmlns:rdf="http://www.w3.org/1999/02/22-rdf-syntax-ns#"
   xmlns:svg="http://www.w3.org/2000/svg"
   xmlns="http://www.w3.org/2000/svg"
   xmlns:sodipodi="http://sodipodi.sourceforge.net/DTD/sodipodi-0.dtd"
   xmlns:inkscape="http://www.inkscape.org/namespaces/inkscape"
   width="32"
   height="32"
   version="1.1"
   id="svg4"
   sodipodi:docname="box.svg"
   inkscape:version="1.0.2 (e86c870879, 2021-01-15)">
  <metadata
     id="metadata10">
    <rdf:RDF>
      <cc:Work
         rdf:about="">
        <dc:format>image/svg+xml</dc:format>
        <dc:type
           rdf:resource="http://purl.org/dc/dcmitype/StillImage" />
        <dc:title></dc:title>
      </cc:Work>
    </rdf:RDF>
  </metadata>
  <defs
     id="defs8">
    <filter
       inkscape:collect="always"
       style="color-interpolation-filters:sRGB"
       id="filter857"
       x="-0.075"
       width="1.15"
       y="-0.075"
       height="1.15">
      <feGaussianBlur
         inkscape:collect="always"
         stdDeviation="0.875"
         id="feGaussianBlur859" />
    </filter>
  </defs>
  <sodipodi:namedview
     pagecolor="#ffffff"
     bordercolor="#666666"
     borderopacity="1"
     objecttolerance="10"
     gridtolerance="10"
     guidetolerance="10"
     inkscape:pageopacity="0"
     inkscape:pageshadow="2"
     inkscape:window-width="1920"
     inkscape:window-height="999"
     id="namedview6"
     showgrid="false"
     inkscape:zoom="23.853659"
     inkscape:cx="20.5"
     inkscape:cy="16.030675"
     inkscape:window-x="0"
     inkscape:window-y="0"
     inkscape:window-maximized="1"
     inkscape:current-layer="svg4" />
  <rect
     style="fill:#000000;fill-opacity:1;stroke-width:3.94414;filter:url(#filter857);opacity:0.5"
     id="rect835-3"
     width="28"
     height="28"
     x="2"
     y="2"
     rx="4.227704"
     ry="4.227704" />
  <rect
     style="fill:#0071f7;fill-opacity:1;stroke-width:3.94414"
     id="rect835"
     width="28"
     height="28"
     x="2"
     y="2"
     rx="4.227704"
     ry="4.227704" />
  <path
     d="m 25.823665,19.087264 c 0.249668,0.349535 0.199734,0.798939 -0.09986,1.048607 -0.349541,0.249668 -0.848878,0.199735 -1.098546,-0.09986 l -1.747678,-2.247019 -1.697746,2.197082 c -0.249668,0.349535 -0.749005,0.349535 -1.09854,0.09986 -0.349535,-0.249667 -0.39947,-0.699071 -0.1498,-1.048606 l 1.997346,-2.596551 -1.997346,-2.596551 c -0.24967,-0.349535 -0.149802,-0.848872 0.1498,-1.09854 0.349535,-0.249668 0.848872,-0.149801 1.09854,0.1498 l 1.697746,2.247015 1.747678,-2.147147 c 0.249668,-0.349535 0.699071,-0.399469 1.098541,-0.149801 0.349535,0.249668 0.349535,0.749005 0.09986,1.098541 l -1.947408,2.546616 z m -9.087928,-0.299602 c -1.298275,0 -2.346881,-0.998673 -2.346881,-2.296949 0,-1.248341 1.048606,-2.296948 2.346881,-2.296948 1.298276,0 2.346883,1.048607 2.346883,2.296948 -0.04993,1.298276 -1.09854,2.296949 -2.346883,2.296949 z m -6.8908457,0 c -1.298275,0 -2.3468823,-0.998673 -2.3468823,-2.296949 0,-1.248341 1.0486073,-2.296948 2.3468823,-2.296948 1.2982747,0 2.3468827,1.048607 2.3468827,2.296948 0,1.298276 -1.048608,2.296949 -2.3468827,2.296949 z m 6.8908457,-6.091907 c -1.448076,0 -2.746351,0.798939 -3.395489,1.997347 -0.649137,-1.198408 -1.947412,-1.997347 -3.4454225,-1.997347 -0.8988067,0 -1.6977451,0.299602 -2.3468827,0.749005 V 10.249005 C 7.5479428,9.849536 7.1984071,9.5 6.7989377,9.5 6.3495348,9.5 5.999999,9.849536 5.999999,10.249005 v 6.291642 c 0.049934,2.097214 1.7476781,3.745025 3.8448923,3.745025 1.4980097,0 2.7962857,-0.848873 3.4454227,-2.04728 0.649138,1.198407 1.947414,2.04728 3.395491,2.04728 2.147146,0 3.894825,-1.697745 3.894825,-3.844893 0.04993,-2.04728 -1.697745,-3.745024 -3.844893,-3.745024 z"
     fill="#0071f7"
     id="path2"
     style="stroke-width:0.499337;fill:#ffffff" />
</svg>
