<?xml version="1.0" encoding="UTF-8" standalone="no"?>
<svg
   xmlns:dc="http://purl.org/dc/elements/1.1/"
   xmlns:cc="http://creativecommons.org/ns#"
   xmlns:rdf="http://www.w3.org/1999/02/22-rdf-syntax-ns#"
   xmlns:svg="http://www.w3.org/2000/svg"
   xmlns="http://www.w3.org/2000/svg"
   xmlns:xlink="http://www.w3.org/1999/xlink"
   xmlns:sodipodi="http://sodipodi.sourceforge.net/DTD/sodipodi-0.dtd"
   xmlns:inkscape="http://www.inkscape.org/namespaces/inkscape"
   inkscape:version="1.0.1 (3bc2e813f5, 2020-09-07)"
   sodipodi:docname="brave.svg"
   id="svg12"
   version="1.1"
   height="32"
   width="32">
  <metadata
     id="metadata18">
    <rdf:RDF>
      <cc:Work
         rdf:about="">
        <dc:format>image/svg+xml</dc:format>
        <dc:type
           rdf:resource="http://purl.org/dc/dcmitype/StillImage" />
      </cc:Work>
    </rdf:RDF>
  </metadata>
  <defs
     id="defs16">
    <linearGradient
       id="linearGradient851"
       inkscape:collect="always">
      <stop
         id="stop847"
         offset="0"
         style="stop-color:#ee5132;stop-opacity:1;" />
      <stop
         id="stop849"
         offset="1"
         style="stop-color:#f17057;stop-opacity:1" />
    </linearGradient>
    <linearGradient
       gradientUnits="userSpaceOnUse"
       y2="2.1334209"
       x2="16.120104"
       y1="30.069723"
       x1="15.882505"
       id="linearGradient853"
       xlink:href="#linearGradient851"
       inkscape:collect="always" />
    <filter
       inkscape:collect="always"
       style="color-interpolation-filters:sRGB"
       id="filter60844"
       x="-0.08125"
       width="1.1625"
       y="-0.069642857"
       height="1.1392857">
      <feGaussianBlur
         inkscape:collect="always"
         stdDeviation="0.8125"
         id="feGaussianBlur60846" />
    </filter>
  </defs>
  <sodipodi:namedview
     inkscape:current-layer="svg12"
     inkscape:window-maximized="1"
     inkscape:window-y="0"
     inkscape:window-x="0"
     inkscape:cy="16"
     inkscape:cx="14.974359"
     inkscape:zoom="24.375"
     showgrid="false"
     id="namedview14"
     inkscape:window-height="1000"
     inkscape:window-width="1920"
     inkscape:pageshadow="2"
     inkscape:pageopacity="0"
     guidetolerance="10"
     gridtolerance="10"
     objecttolerance="10"
     borderopacity="1"
     bordercolor="#666666"
     pagecolor="#ffffff"
     inkscape:document-rotation="0" />
  <path
     id="path2"
     d="M 11.572,2 9.2161,4.3969 C 9.1848,4.4072 8.9546,4.215 8.7036,4.1412 8.0306,3.9435 7.1761,3.9773 6.5956,4.241 6.2159,4.4135 6.0687,4.5349 5.1656,5.4223 4.1921,6.3786 4,6.6081 4,6.8113 4,6.864 4.3518,7.3773 4.5249,7.7793 L 4.839,8.5107 4.4354,9.618 c -0.222,0.609 -0.4135,1.141 -0.4271,1.183 -0.0345,0.107 3.117,12.244 3.2817,12.635 0.299,0.71 0.769,1.346 1.3777,1.868 0.5497,0.47 6.1283,4.278 6.6803,4.559 0.164,0.084 0.427,0.132 0.652,0.137 0.225,-0.005 0.488,-0.053 0.652,-0.137 0.552,-0.281 6.131,-4.089 6.68,-4.559 0.609,-0.522 1.079,-1.158 1.378,-1.868 0.165,-0.391 3.316,-12.528 3.282,-12.635 -0.014,-0.042 -0.205,-0.574 -0.427,-1.183 L 27.161,8.5107 27.475,7.7793 C 27.648,7.3773 28,6.864 28,6.8113 28,6.6081 27.808,6.3786 26.834,5.4223 25.931,4.5349 25.784,4.4135 25.404,4.241 24.824,3.9773 23.969,3.9435 23.296,4.1412 23.045,4.215 22.815,4.4072 22.784,4.3969 L 20.428,2 H 16 Z"
     style="opacity:0.5;filter:url(#filter60844)" />
  <path
     id="path4"
     d="M 11.572,2 9.2161,4.3969 C 9.1848,4.4072 8.9546,4.215 8.7036,4.1412 8.0306,3.9435 7.1761,3.9773 6.5956,4.241 6.2159,4.4135 6.0687,4.5349 5.1656,5.4223 4.1921,6.3786 4,6.6081 4,6.8113 4,6.864 4.3518,7.3773 4.5249,7.7793 L 4.839,8.5107 4.4354,9.6182 C 4.2134,10.227 4.0219,10.759 4.0083,10.801 3.9738,10.908 7.1253,23.045 7.29,23.436 7.589,24.146 8.059,24.782 8.6677,25.304 9.2174,25.774 14.796,29.582 15.348,29.863 15.512,29.947 15.775,29.995 16,30 16.225,29.995 16.488,29.947 16.652,29.863 17.204,29.582 22.783,25.774 23.332,25.304 23.941,24.782 24.411,24.146 24.71,23.436 24.875,23.045 28.026,10.908 27.992,10.801 27.978,10.759 27.787,10.227 27.565,9.6182 L 27.161,8.5107 27.475,7.7793 C 27.648,7.3773 28,6.864 28,6.8113 28,6.6081 27.808,6.3786 26.834,5.4223 25.931,4.5349 25.784,4.4135 25.404,4.241 24.824,3.9773 23.969,3.9435 23.296,4.1412 23.045,4.215 22.815,4.4072 22.784,4.3969 L 20.428,2 H 16 Z"
     style="fill:url(#linearGradient853);fill-opacity:1" />
  <path
     id="path8"
     d="M 17.128,23.247 C 17.128,23.247 18.355,22.438 19.448,21.657 20.062,21.217 20.159,21.105 20.059,20.95 19.978,20.825 17.996,19.85 17.048,19.469 16.051,19.068 15.946,19.068 14.979,19.461 14.112,19.813 12.16,20.778 11.997,20.935 11.827,21.098 11.913,21.248 12.339,21.536 13.216,22.13 14.899,23.272 14.899,23.272 16.044,24.246 15.955,24.247 17.128,23.248 Z M 12.529,19.76 C 13.719,19.201 13.897,19.085 14.806,18.28 15.571,17.603 15.713,17.401 15.604,17.145 15.567,17.058 14.992,16.528 14.327,15.967 12.754,14.642 12.82,14.829 13.418,13.39 13.774,12.536 13.866,12.25 13.865,12.013 13.863,11.655 13.73,11.386 13.463,11.201 13.355,11.125 12.405,10.742 11.351,10.349 10.298,9.9563 9.442,9.6087 9.4494,9.5769 9.4662,9.5041 10.628,9.3777 11.471,9.3568 L 12.109,9.3409 13.282,9.7502 C 14.305,10.107 14.466,10.181 14.543,10.326 14.591,10.417 14.63,10.54 14.629,10.599 14.628,10.657 14.439,11.506 14.208,12.485 13.803,14.199 13.792,14.268 13.897,14.373 14.064,14.539 15.699,14.925 16.21,14.886 16.793,14.842 17.985,14.486 18.105,14.367 18.203,14.27 18.184,14.161 17.788,12.485 17.557,11.506 17.367,10.657 17.366,10.599 17.365,10.54 17.404,10.416 17.453,10.324 17.53,10.179 17.681,10.108 18.592,9.7898 20.061,9.2761 20.031,9.2803 21.366,9.3988 21.989,9.4541 22.523,9.5226 22.554,9.5512 22.586,9.5819 22.549,9.6261 22.462,9.6586 22.382,9.6891 21.523,10.011 20.554,10.375 19.585,10.738 18.69,11.101 18.566,11.181 18.274,11.37 18.132,11.64 18.13,12.01 18.128,12.245 18.221,12.529 18.566,13.356 18.808,13.932 19.005,14.458 19.005,14.524 19.005,14.792 18.805,15.008 17.699,15.937 17.064,16.471 16.5,16.987 16.446,17.083 16.392,17.179 16.361,17.326 16.378,17.409 16.406,17.551 17.166,18.287 17.942,18.92 18.267,19.186 20.239,20.42 20.554,20.47 20.819,20.512 21.102,20.117 21.564,19.734 22.018,19.358 22.288,18.982 22.472,18.471 22.644,17.992 22.601,17.669 22.26,16.893 22,16.301 21.931,15.975 22.018,15.753 22.038,15.702 22.742,15.036 23.583,14.273 25.413,12.611 25.85,12.313 25.951,12.016 26.062,11.687 25.983,10.753 25.733,10.316 25.135,9.2712 22.65,6.0001 22.439,6.0001 21.352,6.1739 20.442,6.5583 19.297,6.7349 19.207,6.735 18.824,6.6415 18.446,6.5267 16.833,6.0375 16.31,6 15.997,6 15.685,6 15.162,6.0373 13.549,6.5267 13.171,6.6412 12.784,6.7351 12.689,6.7351 11.56,6.5719 10.724,6.1332 9.5557,6.0001 9.3736,6.1207 7.7577,8.3366 7.0887,9.3048 6.302,10.443 6.0796,11.089 6.0156,11.523 5.9261,12.129 6.1537,12.231 8.5041,14.361 9.2947,15.078 9.9577,15.705 9.9774,15.755 10.066,15.98 9.9959,16.318 9.7395,16.911 9.3874,17.725 9.3559,17.952 9.5258,18.443 9.7106,18.978 10.024,19.41 10.497,19.784 10.937,20.131 11.107,20.478 11.367,20.484 11.46,20.486 11.983,20.016 12.529,19.76 Z"
     style="fill:#ffffff" />
</svg>
