<?xml version="1.0" encoding="UTF-8" standalone="no"?>
<svg
   xmlns:dc="http://purl.org/dc/elements/1.1/"
   xmlns:cc="http://creativecommons.org/ns#"
   xmlns:rdf="http://www.w3.org/1999/02/22-rdf-syntax-ns#"
   xmlns:svg="http://www.w3.org/2000/svg"
   xmlns="http://www.w3.org/2000/svg"
   xmlns:xlink="http://www.w3.org/1999/xlink"
   xmlns:sodipodi="http://sodipodi.sourceforge.net/DTD/sodipodi-0.dtd"
   xmlns:inkscape="http://www.inkscape.org/namespaces/inkscape"
   width="32"
   height="32"
   version="1"
   id="svg12"
   sodipodi:docname="ciano.svg"
   inkscape:version="1.0.1 (3bc2e813f5, 2020-09-07)">
  <metadata
     id="metadata18">
    <rdf:RDF>
      <cc:Work
         rdf:about="">
        <dc:format>image/svg+xml</dc:format>
        <dc:type
           rdf:resource="http://purl.org/dc/dcmitype/StillImage" />
      </cc:Work>
    </rdf:RDF>
  </metadata>
  <defs
     id="defs16">
    <linearGradient
       id="linearGradient845"
       inkscape:collect="always">
      <stop
         id="stop841"
         offset="0"
         style="stop-color:#80e5ff;stop-opacity:1;" />
      <stop
         id="stop843"
         offset="1"
         style="stop-color:#66e0ff;stop-opacity:1" />
    </linearGradient>
    <linearGradient
       gradientUnits="userSpaceOnUse"
       y2="29"
       x2="-16"
       y1="3"
       x1="-16"
       id="linearGradient847"
       xlink:href="#linearGradient845"
       inkscape:collect="always" />
    <filter
       inkscape:collect="always"
       style="color-interpolation-filters:sRGB"
       id="filter60788"
       x="-0.075"
       width="1.15"
       y="-0.075"
       height="1.15">
      <feGaussianBlur
         inkscape:collect="always"
         stdDeviation="0.8125"
         id="feGaussianBlur60790" />
    </filter>
  </defs>
  <sodipodi:namedview
     inkscape:document-rotation="0"
     pagecolor="#ffffff"
     bordercolor="#666666"
     borderopacity="1"
     objecttolerance="10"
     gridtolerance="10"
     guidetolerance="10"
     inkscape:pageopacity="0"
     inkscape:pageshadow="2"
     inkscape:window-width="1920"
     inkscape:window-height="1000"
     id="namedview14"
     showgrid="false"
     inkscape:zoom="24.375"
     inkscape:cx="13.948718"
     inkscape:cy="16"
     inkscape:window-x="0"
     inkscape:window-y="0"
     inkscape:window-maximized="1"
     inkscape:current-layer="svg12" />
  <rect
     id="rect2-5"
     transform="scale(-1,1)"
     ry="13"
     rx="13"
     y="3"
     x="-29"
     height="26"
     width="26"
     style="fill:#000000;fill-opacity:1;opacity:0.5;filter:url(#filter60788)" />
  <rect
     style="fill:url(#linearGradient847);fill-opacity:1"
     width="26"
     height="26"
     x="-29"
     y="3"
     rx="13"
     ry="13"
     transform="scale(-1,1)"
     id="rect2" />
  <path
     style="fill:#000000;fill-opacity:1;opacity:0.3"
     d="m16.017 8.0003c1.7532 0.0037 3.531 0.52833 4.9196 1.5668 0.97624 1.0798-0.88389 2.2362-1.7217 1.1833-2.522-1.4652-6.0788-0.94934-7.9763 1.2413-1.0095 1.0871-1.5784 2.5377-1.5717 3.994h1.6667c-0.8892 1.28-1.778 2.56-2.6669 3.84l-2.6667-3.84h1.6667c-0.053013-3.4772 2.5514-6.7845 6.048-7.6851 0.7502-0.19742 1.5231-0.308 2.302-0.30025zm7.3167 4.1607c0.888 1.28 1.777 2.561 2.666 3.841h-1.6667c0.04725 3.5187-2.6237 6.8634-6.1816 7.7164-2.4008 0.64371-5.1155 0.174-7.0886-1.2988-1.0067-1.0978 0.87926-2.2431 1.7248-1.1806 2.4435 1.4235 5.8653 0.97198 7.7941-1.0611 1.117-1.105 1.7598-2.6358 1.7513-4.176h-1.6667l2.6667-3.8406z"
     id="path10" />
</svg>
