<?xml version="1.0" encoding="UTF-8" standalone="no"?>
<svg
   xmlns:dc="http://purl.org/dc/elements/1.1/"
   xmlns:cc="http://creativecommons.org/ns#"
   xmlns:rdf="http://www.w3.org/1999/02/22-rdf-syntax-ns#"
   xmlns:svg="http://www.w3.org/2000/svg"
   xmlns="http://www.w3.org/2000/svg"
   xmlns:sodipodi="http://sodipodi.sourceforge.net/DTD/sodipodi-0.dtd"
   xmlns:inkscape="http://www.inkscape.org/namespaces/inkscape"
   width="32"
   height="32"
   version="1"
   id="svg12"
   sodipodi:docname="cinelerra.svg"
   inkscape:version="1.0.2 (e86c870879, 2021-01-15)">
  <metadata
     id="metadata18">
    <rdf:RDF>
      <cc:Work
         rdf:about="">
        <dc:format>image/svg+xml</dc:format>
        <dc:type
           rdf:resource="http://purl.org/dc/dcmitype/StillImage" />
      </cc:Work>
    </rdf:RDF>
  </metadata>
  <defs
     id="defs16">
    <filter
       inkscape:collect="always"
       style="color-interpolation-filters:sRGB"
       id="filter843"
       x="-0.075"
       width="1.15"
       y="-0.075"
       height="1.15">
      <feGaussianBlur
         inkscape:collect="always"
         stdDeviation="0.84375"
         id="feGaussianBlur845" />
    </filter>
  </defs>
  <sodipodi:namedview
     pagecolor="#ffffff"
     bordercolor="#666666"
     borderopacity="1"
     objecttolerance="10"
     gridtolerance="10"
     guidetolerance="10"
     inkscape:pageopacity="0"
     inkscape:pageshadow="2"
     inkscape:window-width="1920"
     inkscape:window-height="999"
     id="namedview14"
     showgrid="false"
     inkscape:zoom="22.4375"
     inkscape:cx="16"
     inkscape:cy="16"
     inkscape:window-x="0"
     inkscape:window-y="0"
     inkscape:window-maximized="1"
     inkscape:current-layer="svg12" />
  <rect
     style="opacity:0.5;filter:url(#filter843)"
     width="27"
     height="27"
     x="2"
     y="-29.5"
     rx="1.35"
     ry="1.35"
     transform="scale(1,-1)"
     id="rect2" />
  <rect
     style="fill:#fecd38"
     width="27"
     height="27"
     x="2"
     y="-29"
     rx="1.35"
     ry="1.35"
     transform="scale(1,-1)"
     id="rect4" />
  <path
     style="fill:#000000;fill-opacity:1;opacity:0.5"
     d="M 4 4 L 4 7 L 7 7 L 7 4 L 4 4 z M 9 4 L 9 7 L 12 7 L 12 4 L 9 4 z M 14 4 L 14 7 L 17 7 L 17 4 L 14 4 z M 19 4 L 19 7 L 22 7 L 22 4 L 19 4 z M 24 4 L 24 7 L 27 7 L 27 4 L 24 4 z M 5 9 L 5 22.246094 L 14 22.246094 L 14 9 L 5 9 z M 17 9 L 17 22.246094 L 26 22.246094 L 26 9 L 17 9 z M 4 24 L 4 27 L 7 27 L 7 24 L 4 24 z M 9 24 L 9 27 L 12 27 L 12 24 L 9 24 z M 14 24 L 14 27 L 17 27 L 17 24 L 14 24 z M 19 24 L 19 27 L 22 27 L 22 24 L 19 24 z M 24 24 L 24 27 L 27 27 L 27 24 L 24 24 z"
     id="path8" />
</svg>
