<?xml version="1.0" encoding="UTF-8" standalone="no"?>
<svg
   xmlns:dc="http://purl.org/dc/elements/1.1/"
   xmlns:cc="http://creativecommons.org/ns#"
   xmlns:rdf="http://www.w3.org/1999/02/22-rdf-syntax-ns#"
   xmlns:svg="http://www.w3.org/2000/svg"
   xmlns="http://www.w3.org/2000/svg"
   xmlns:xlink="http://www.w3.org/1999/xlink"
   xmlns:sodipodi="http://sodipodi.sourceforge.net/DTD/sodipodi-0.dtd"
   xmlns:inkscape="http://www.inkscape.org/namespaces/inkscape"
   inkscape:version="1.0.1 (3bc2e813f5, 2020-09-07)"
   sodipodi:docname="clementine.svg"
   id="svg14"
   version="1"
   height="32"
   width="32">
  <metadata
     id="metadata20">
    <rdf:RDF>
      <cc:Work
         rdf:about="">
        <dc:format>image/svg+xml</dc:format>
        <dc:type
           rdf:resource="http://purl.org/dc/dcmitype/StillImage" />
      </cc:Work>
    </rdf:RDF>
  </metadata>
  <defs
     id="defs18">
    <linearGradient
       id="linearGradient853"
       inkscape:collect="always">
      <stop
         id="stop849"
         offset="0"
         style="stop-color:#f17623;stop-opacity:1;" />
      <stop
         id="stop851"
         offset="1"
         style="stop-color:#db6a1d;stop-opacity:1" />
    </linearGradient>
    <linearGradient
       gradientUnits="userSpaceOnUse"
       y2="30.091702"
       x2="29.863111"
       y1="2.0640244"
       x1="2.0947793"
       id="linearGradient855"
       xlink:href="#linearGradient853"
       inkscape:collect="always" />
    <filter
       inkscape:collect="always"
       style="color-interpolation-filters:sRGB"
       id="filter60784"
       x="-0.074999965"
       width="1.1499999"
       y="-0.075000035"
       height="1.1500001">
      <feGaussianBlur
         inkscape:collect="always"
         stdDeviation="0.87499959"
         id="feGaussianBlur60786" />
    </filter>
  </defs>
  <sodipodi:namedview
     inkscape:current-layer="svg14"
     inkscape:window-maximized="1"
     inkscape:window-y="0"
     inkscape:window-x="0"
     inkscape:cy="16"
     inkscape:cx="14.974359"
     inkscape:zoom="24.375"
     showgrid="false"
     id="namedview16"
     inkscape:window-height="1000"
     inkscape:window-width="1920"
     inkscape:pageshadow="2"
     inkscape:pageopacity="0"
     guidetolerance="10"
     gridtolerance="10"
     objecttolerance="10"
     borderopacity="1"
     bordercolor="#666666"
     pagecolor="#ffffff"
     inkscape:document-rotation="0" />
  <path
     id="path2"
     d="M 8.7266402,2.003241 C 6.1032658,2.1193168 3.1336753,5.3504076 2.2555431,9.8530102 2.0466181,10.98123 2.0055492,11.885876 2.0000001,12.905099 c 0.00244,0.09259 0.00255,0.184381 0.00684,0.277571 0.3541746,9.150473 7.80458,16.541614 16.9793629,16.807431 0.04679,0.002 0.09288,0.0027 0.139511,0.0041 0.601493,0.02353 1.285684,-0.0299 1.834573,-0.06708 6.912172,-0.674728 11.421724,-6.274715 7.701443,-9.366217 C 26.555953,18.810699 22.674503,17.557542 18.612806,13.531371 14.328412,9.2832482 13.10929,5.2583367 11.31444,3.1818944 10.574537,2.3259679 9.6737087,1.9613364 8.7266402,2.003241 Z"
     style="opacity:0.5;filter:url(#filter60784)" />
  <path
     id="path4"
     d="M 8.7266402,2.0032266 C 6.1032658,2.1193024 3.1336753,5.3503932 2.2555431,9.8529955 2.0466181,10.981216 2.0055492,11.885862 2.0000001,12.905085 c 0.00244,0.09259 0.00255,0.184381 0.00684,0.277571 0.3541746,9.150473 7.80458,16.541614 16.9793629,16.807431 0.04679,0.002 0.09288,0.0027 0.139511,0.0041 0.601493,0.02353 1.285684,-0.0299 1.834573,-0.06708 C 27.872459,29.252379 32.382011,23.652392 28.66173,20.56089 26.555953,18.810685 22.674503,17.557528 18.612806,13.531357 14.328412,9.2832342 13.10929,5.2583223 11.31444,3.18188 10.574537,2.3259535 9.6737087,1.961322 8.7266402,2.0032266 Z"
     style="fill:url(#linearGradient855);fill-opacity:1" />
  <path
     id="path6"
     d="M 9.2011719 2.0351562 A 14.700001 14.700001 0 0 0 5 12.300781 A 14.700001 14.700001 0 0 0 19.699219 27 A 14.700001 14.700001 0 0 0 29.955078 22.798828 C 29.850933 21.988242 29.451281 21.216337 28.662109 20.560547 C 26.556332 18.810342 22.674978 17.557421 18.613281 13.53125 C 14.328887 9.2831272 13.109303 5.2580829 11.314453 3.1816406 C 10.700119 2.4709735 9.9717395 2.116959 9.2011719 2.0351562 z"
     style="fill:#ffbf55" />
  <path
     id="path10"
     d="M 9.2011719,2.0351562 C 6.5190769,4.7773686 5.001809,8.4573254 5,12.300781 5,20.419367 11.580632,27 19.699219,27 c 3.840321,-0.0047 7.51618,-1.520796 10.255859,-4.201172 L 28.564453,22.125 c -2.432999,2.197933 -5.567799,3.470275 -8.865234,3.474609 -7.361507,0 -13.29808,-5.937501 -13.2988284,-13.298828 0.00182,-3.2584226 1.2474338,-6.3565077 3.3945313,-8.7792966 z"
     style="fill:#ffffff" />
</svg>
