<?xml version="1.0" encoding="UTF-8" standalone="no"?>
<svg
   xmlns:dc="http://purl.org/dc/elements/1.1/"
   xmlns:cc="http://creativecommons.org/ns#"
   xmlns:rdf="http://www.w3.org/1999/02/22-rdf-syntax-ns#"
   xmlns:svg="http://www.w3.org/2000/svg"
   xmlns="http://www.w3.org/2000/svg"
   xmlns:xlink="http://www.w3.org/1999/xlink"
   xmlns:sodipodi="http://sodipodi.sourceforge.net/DTD/sodipodi-0.dtd"
   xmlns:inkscape="http://www.inkscape.org/namespaces/inkscape"
   inkscape:version="1.0.1 (3bc2e813f5, 2020-09-07)"
   sodipodi:docname="color-picker.svg"
   id="svg24"
   version="1"
   height="32"
   width="32">
  <metadata
     id="metadata30">
    <rdf:RDF>
      <cc:Work
         rdf:about="">
        <dc:format>image/svg+xml</dc:format>
        <dc:type
           rdf:resource="http://purl.org/dc/dcmitype/StillImage" />
        <dc:title />
      </cc:Work>
    </rdf:RDF>
  </metadata>
  <defs
     id="defs28">
    <linearGradient
       inkscape:collect="always"
       id="linearGradient899">
      <stop
         style="stop-color:#ffffff;stop-opacity:1;"
         offset="0"
         id="stop895" />
      <stop
         style="stop-color:#ffffff;stop-opacity:0;"
         offset="1"
         id="stop897" />
    </linearGradient>
    <linearGradient
       id="linearGradient949"
       inkscape:collect="always">
      <stop
         id="stop945"
         offset="0"
         style="stop-color:#e6e6e6;stop-opacity:1" />
      <stop
         id="stop947"
         offset="1"
         style="stop-color:#ffffff;stop-opacity:1" />
    </linearGradient>
    <linearGradient
       gradientTransform="matrix(0.49999739,0,0,0.49999739,8.3372027e-5,8.0729653e-5)"
       gradientUnits="userSpaceOnUse"
       y2="6.0395966"
       x2="57.601952"
       y1="51.549301"
       x1="12.368709"
       id="linearGradient951-3"
       xlink:href="#linearGradient949"
       inkscape:collect="always" />
    <linearGradient
       gradientTransform="matrix(1.2222222,0,0,1.2222222,-3.5555558,-3.5555554)"
       inkscape:collect="always"
       xlink:href="#linearGradient899"
       id="linearGradient901"
       x1="16"
       y1="7"
       x2="16"
       y2="25"
       gradientUnits="userSpaceOnUse" />
    <filter
       inkscape:collect="always"
       style="color-interpolation-filters:sRGB"
       id="filter60776"
       x="-0.074963174"
       width="1.1499263"
       y="-0.075036862"
       height="1.1500737">
      <feGaussianBlur
         inkscape:collect="always"
         stdDeviation="0.87543007"
         id="feGaussianBlur60778" />
    </filter>
  </defs>
  <sodipodi:namedview
     inkscape:document-rotation="0"
     inkscape:current-layer="svg24"
     inkscape:window-maximized="1"
     inkscape:window-y="0"
     inkscape:window-x="0"
     inkscape:cy="9.2208539"
     inkscape:cx="14.138735"
     inkscape:zoom="18.009126"
     showgrid="false"
     id="namedview26"
     inkscape:window-height="1000"
     inkscape:window-width="1920"
     inkscape:pageshadow="2"
     inkscape:pageopacity="0"
     guidetolerance="10"
     gridtolerance="10"
     objecttolerance="10"
     borderopacity="1"
     bordercolor="#666666"
     pagecolor="#ffffff" />
  <path
     style="fill:#000000;fill-opacity:1;stroke-width:0.874996;opacity:0.5;filter:url(#filter60776)"
     d="m 16.013834,1.9999999 c -12.4734708,0 -18.7179472,15.0798611 -9.8989404,23.8988671 4.0039304,4.003932 10.0252554,5.202002 15.2565644,3.035209 5.231312,-2.166799 8.642304,-7.271712 8.642304,-12.934149 V 5.4999813 c 0,-1.9389904 -1.560993,-3.4999814 -3.499983,-3.4999814 z"
     id="path20-5-5"
     inkscape:connector-curvature="0"
     sodipodi:nodetypes="sssssss" />
  <path
     sodipodi:nodetypes="sssssss"
     inkscape:connector-curvature="0"
     id="path20-5"
     d="M 16.013834,2 C 3.540364,2 -2.7041124,17.079861 6.1148944,25.898867 10.118825,29.902799 16.140149,31.100869 21.371458,28.934076 26.60277,26.767277 30.013762,21.662364 30.013762,15.999927 V 5.4999815 C 30.013762,3.5609914 28.452769,2 26.513779,2 Z"
     style="fill:url(#linearGradient951-3);fill-opacity:1;stroke-width:0.874996" />
  <g
     transform="matrix(0.39285715,0,0,0.39285715,3.4285713,3.4285711)"
     id="g871">
    <circle
       style="fill:#f57c00"
       cx="32"
       cy="32"
       r="27"
       id="circle2" />
    <path
       inkscape:connector-curvature="0"
       style="fill:#1e88e5"
       d="M 31.999998,32 59.075266,24.751346 A 28.028228,28.010254 0 0 0 39.245296,4.9781078 Z"
       id="path6" />
    <path
       inkscape:connector-curvature="0"
       style="fill:#43a047"
       d="M 31.999998,32 51.81996,51.80725 a 28.028228,28.010254 0 0 0 7.21927,-27.0479 z"
       id="path8" />
    <path
       inkscape:connector-curvature="0"
       style="fill:#fbc02d"
       d="M 31.999998,32 24.744692,59.055904 A 28.028228,28.010254 0 0 0 51.793934,51.781242 Z"
       id="path10" />
    <path
       inkscape:connector-curvature="0"
       style="fill:#f57c00"
       d="M 31.999998,32 4.9247324,39.248654 A 28.028228,28.010254 0 0 0 24.754702,59.021892 Z"
       id="path12" />
    <path
       inkscape:connector-curvature="0"
       style="fill:#e53935"
       d="M 31.999998,32 12.180039,12.192749 A 28.028228,28.010254 0 0 0 4.9607686,39.24065 Z"
       id="path14" />
    <path
       inkscape:connector-curvature="0"
       style="fill:#8e24aa"
       d="M 31.999998,32 39.255306,4.9440954 A 28.028228,28.010254 0 0 0 12.206065,12.218759 Z"
       id="path16" />
  </g>
  <circle
     style="opacity:0.4;fill:url(#linearGradient901);fill-opacity:1;stroke:none;stroke-width:0.824912"
     id="path885"
     cx="16"
     cy="16"
     r="11" />
  <circle
     r="2"
     cy="5"
     cx="27"
     id="path878"
     style="opacity:0.2;fill:#000000;fill-opacity:1;stroke-width:0.9356" />
</svg>
