<?xml version="1.0" encoding="UTF-8" standalone="no"?>
<svg
   xmlns:dc="http://purl.org/dc/elements/1.1/"
   xmlns:cc="http://creativecommons.org/ns#"
   xmlns:rdf="http://www.w3.org/1999/02/22-rdf-syntax-ns#"
   xmlns:svg="http://www.w3.org/2000/svg"
   xmlns="http://www.w3.org/2000/svg"
   xmlns:sodipodi="http://sodipodi.sourceforge.net/DTD/sodipodi-0.dtd"
   xmlns:inkscape="http://www.inkscape.org/namespaces/inkscape"
   inkscape:version="1.0.1 (3bc2e813f5, 2020-09-07)"
   sodipodi:docname="com.github.danrabbit.nimbus.svg"
   id="svg12"
   version="1.1"
   height="32"
   width="32">
  <metadata
     id="metadata18">
    <rdf:RDF>
      <cc:Work
         rdf:about="">
        <dc:format>image/svg+xml</dc:format>
        <dc:type
           rdf:resource="http://purl.org/dc/dcmitype/StillImage" />
      </cc:Work>
    </rdf:RDF>
  </metadata>
  <defs
     id="defs16">
    <filter
       inkscape:collect="always"
       style="color-interpolation-filters:sRGB"
       id="filter60748"
       x="-0.066666667"
       width="1.1333333"
       y="-0.085714284"
       height="1.1714286">
      <feGaussianBlur
         inkscape:collect="always"
         stdDeviation="0.50000001"
         id="feGaussianBlur60750" />
    </filter>
    <filter
       inkscape:collect="always"
       style="color-interpolation-filters:sRGB"
       id="filter60752"
       x="-0.075"
       width="1.15"
       y="-0.075"
       height="1.15">
      <feGaussianBlur
         inkscape:collect="always"
         stdDeviation="0.875"
         id="feGaussianBlur60754" />
    </filter>
  </defs>
  <sodipodi:namedview
     inkscape:current-layer="svg12"
     inkscape:window-maximized="1"
     inkscape:window-y="0"
     inkscape:window-x="0"
     inkscape:cy="16"
     inkscape:cx="14.974359"
     inkscape:zoom="24.375"
     showgrid="false"
     id="namedview14"
     inkscape:window-height="1000"
     inkscape:window-width="1920"
     inkscape:pageshadow="2"
     inkscape:pageopacity="0"
     guidetolerance="10"
     gridtolerance="10"
     objecttolerance="10"
     borderopacity="1"
     bordercolor="#666666"
     pagecolor="#ffffff"
     inkscape:document-rotation="0" />
  <path
     style="fill:#000000;fill-opacity:1;opacity:0.5;filter:url(#filter60752)"
     d="M 16,2.0000002 A 14,14 0 0 0 2,16 14,14 0 0 0 16,30 14,14 0 0 0 30,16 14,14 0 0 0 16,2.0000002 Z"
     id="path2-3" />
  <path
     id="path2"
     d="m16 2a14 14 0 0 0 -14 14 14 14 0 0 0 14 14 14 14 0 0 0 14 -14 14 14 0 0 0 -14 -14z"
     style="fill:#2baee1" />
  <path
     id="path8"
     d="m 17.531918,9.0000016 c -1.705029,0 -3.181649,0.964698 -3.913566,2.3648704 -0.474384,-0.297813 -1.035953,-0.472965 -1.63963,-0.472965 -1.692101,0 -3.063823,1.355219 -3.063823,3.027025 0,0.265791 0.04257,0.522938 0.107708,0.768562 C 7.800519,15.501865 7,16.887299 7,18.459443 c 0,2.515456 2.049702,4.540558 4.595744,4.540558 h 8.808517 C 22.950303,23.000001 25,20.974899 25,18.459443 c 0,-2.008694 -1.312522,-3.702213 -3.135642,-4.304051 0.04945,-0.261061 0.07182,-0.528775 0.07182,-0.804025 0,-2.403211 -1.971848,-4.3513664 -4.404252,-4.3513664 z"
     style="opacity:0.5;filter:url(#filter60748)" />
  <path
     id="path10"
     d="m17.531918 9.000001c-1.705029 0-3.181649 0.964698-3.913566 2.36487-0.474384-0.297813-1.035953-0.472965-1.63963-0.472965-1.692101 0-3.063823 1.355219-3.063823 3.027025 0 0.265791 0.04257 0.522938 0.107708 0.768562-1.222088 0.814371-2.022607 2.199805-2.022607 3.771949 0 2.515456 2.049702 4.540558 4.595744 4.540558h8.808517c2.546042 0 4.595739-2.025102 4.595739-4.540558 0-2.008694-1.312522-3.702213-3.135642-4.304051 0.04945-0.261061 0.07182-0.528775 0.07182-0.804025 0-2.403211-1.971848-4.351366-4.404252-4.351366z"
     style="fill:#ffffff" />
</svg>
