<?xml version="1.0" encoding="UTF-8" standalone="no"?>
<svg
   xmlns:dc="http://purl.org/dc/elements/1.1/"
   xmlns:cc="http://creativecommons.org/ns#"
   xmlns:rdf="http://www.w3.org/1999/02/22-rdf-syntax-ns#"
   xmlns:svg="http://www.w3.org/2000/svg"
   xmlns="http://www.w3.org/2000/svg"
   xmlns:xlink="http://www.w3.org/1999/xlink"
   xmlns:sodipodi="http://sodipodi.sourceforge.net/DTD/sodipodi-0.dtd"
   xmlns:inkscape="http://www.inkscape.org/namespaces/inkscape"
   inkscape:version="1.0.1 (3bc2e813f5, 2020-09-07)"
   sodipodi:docname="com.github.artemanufrij.webpin.svg"
   id="svg12"
   version="1"
   height="32"
   width="32">
  <metadata
     id="metadata18">
    <rdf:RDF>
      <cc:Work
         rdf:about="">
        <dc:format>image/svg+xml</dc:format>
        <dc:type
           rdf:resource="http://purl.org/dc/dcmitype/StillImage" />
      </cc:Work>
    </rdf:RDF>
  </metadata>
  <defs
     id="defs16">
    <linearGradient
       id="linearGradient859"
       inkscape:collect="always">
      <stop
         id="stop855"
         offset="0"
         style="stop-color:#16caff;stop-opacity:1;" />
      <stop
         id="stop857"
         offset="1"
         style="stop-color:#00aadd;stop-opacity:1" />
    </linearGradient>
    <filter
       height="1.1720522"
       y="-0.086026123"
       width="1.1329585"
       x="-0.066479237"
       id="filter851"
       style="color-interpolation-filters:sRGB"
       inkscape:collect="always">
      <feGaussianBlur
         id="feGaussianBlur853"
         stdDeviation="0.6093719"
         inkscape:collect="always" />
    </filter>
    <linearGradient
       gradientUnits="userSpaceOnUse"
       y2="26"
       x2="16"
       y1="6"
       x1="16"
       id="linearGradient861"
       xlink:href="#linearGradient859"
       inkscape:collect="always" />
    <filter
       inkscape:collect="always"
       style="color-interpolation-filters:sRGB"
       id="filter60756"
       x="-0.0625"
       width="1.125"
       y="-0.093749999"
       height="1.1875">
      <feGaussianBlur
         inkscape:collect="always"
         stdDeviation="0.78125"
         id="feGaussianBlur60758" />
    </filter>
  </defs>
  <sodipodi:namedview
     inkscape:current-layer="svg12"
     inkscape:window-maximized="1"
     inkscape:window-y="0"
     inkscape:window-x="0"
     inkscape:cy="16"
     inkscape:cx="14.950131"
     inkscape:zoom="23.8125"
     showgrid="false"
     id="namedview14"
     inkscape:window-height="1000"
     inkscape:window-width="1920"
     inkscape:pageshadow="2"
     inkscape:pageopacity="0"
     guidetolerance="10"
     gridtolerance="10"
     objecttolerance="10"
     borderopacity="1"
     bordercolor="#666666"
     pagecolor="#ffffff"
     inkscape:document-rotation="0" />
  <path
     style="fill:#000000;fill-opacity:1;opacity:0.5;filter:url(#filter60756)"
     d="m 16,5.9999998 c -3.883,0 -7.1901,2.3053 -8.6133,5.5680002 C 3.772,12.089 1,15.077 1,18.727 1,22.744 4.3579,26 8.5,26 H 24.438 C 28.062,26 31,23.151 31,19.636 31,16.37 28.467,13.693 25.199,13.33 24.347,9.1596998 20.55,5.9999998 16,5.9999998 Z"
     id="path2-5" />
  <path
     id="path2"
     d="m16 6c-3.883 0-7.1901 2.3053-8.6133 5.568-3.6147 0.521-6.3867 3.509-6.3867 7.159 0 4.017 3.3579 7.273 7.5 7.273h15.938c3.624 0 6.562-2.849 6.562-6.364 0-3.266-2.533-5.943-5.801-6.306-0.852-4.1703-4.649-7.33-9.199-7.33z"
     style="fill:url(#linearGradient861);fill-opacity:1" />
  <path
     id="path849"
     d="m 6.5351562,7.9998565 a 1.5,1.5 0 0 0 -0.4941406,0.072266 1.5,1.5 0 0 0 -0.96875,1.8867184 l 4.5,14.0000001 a 1.50015,1.50015 0 0 0 2.7695314,0.212891 L 16,16.855325 l 3.658203,7.316406 a 1.50015,1.50015 0 0 0 2.769531,-0.212891 l 4.5,-13.9999995 a 1.5,1.5 0 0 0 -0.96875,-1.8867184 1.5,1.5 0 0 0 -1.886718,0.9687504 l -3.375,10.4999995 -3.355469,-6.710938 a 1.50015,1.50015 0 0 0 -2.683594,0 L 11.302734,19.540872 7.9277344,9.0408725 A 1.5,1.5 0 0 0 6.5351562,7.9998565 Z"
     style="color:#000000;font-style:normal;font-variant:normal;font-weight:normal;font-stretch:normal;font-size:medium;line-height:normal;font-family:sans-serif;font-variant-ligatures:normal;font-variant-position:normal;font-variant-caps:normal;font-variant-numeric:normal;font-variant-alternates:normal;font-variant-east-asian:normal;font-feature-settings:normal;font-variation-settings:normal;text-indent:0;text-align:start;text-decoration:none;text-decoration-line:none;text-decoration-style:solid;text-decoration-color:#000000;letter-spacing:normal;word-spacing:normal;text-transform:none;writing-mode:lr-tb;direction:ltr;text-orientation:mixed;dominant-baseline:auto;baseline-shift:baseline;text-anchor:start;white-space:normal;shape-padding:0;shape-margin:0;inline-size:0;clip-rule:nonzero;display:inline;overflow:visible;visibility:visible;opacity:0.5;isolation:auto;mix-blend-mode:normal;color-interpolation:sRGB;color-interpolation-filters:linearRGB;solid-color:#000000;solid-opacity:1;vector-effect:none;fill:#000000;fill-opacity:1;fill-rule:nonzero;stroke:none;stroke-width:3;stroke-linecap:round;stroke-linejoin:round;stroke-miterlimit:4;stroke-dasharray:none;stroke-dashoffset:0;stroke-opacity:1;filter:url(#filter851);color-rendering:auto;image-rendering:auto;shape-rendering:auto;text-rendering:auto;enable-background:accumulate;stop-color:#000000;stop-opacity:1" />
  <path
     id="path10"
     d="m6.5 9.5002611 4.499999 14.000001 5.000001-10.000001 5 10.000001 4.5-14.000001"
     style="stroke-linejoin:round;stroke:#ffffff;stroke-linecap:round;stroke-width:3;fill:none;stroke-opacity:1" />
</svg>
