<?xml version="1.0" encoding="UTF-8" standalone="no"?>
<svg
   xmlns:dc="http://purl.org/dc/elements/1.1/"
   xmlns:cc="http://creativecommons.org/ns#"
   xmlns:rdf="http://www.w3.org/1999/02/22-rdf-syntax-ns#"
   xmlns:svg="http://www.w3.org/2000/svg"
   xmlns="http://www.w3.org/2000/svg"
   xmlns:xlink="http://www.w3.org/1999/xlink"
   xmlns:sodipodi="http://sodipodi.sourceforge.net/DTD/sodipodi-0.dtd"
   xmlns:inkscape="http://www.inkscape.org/namespaces/inkscape"
   inkscape:version="1.0.1 (3bc2e813f5, 2020-09-07)"
   sodipodi:docname="credentials-preferences.svg"
   id="svg10"
   version="1"
   height="32"
   width="32">
  <metadata
     id="metadata16">
    <rdf:RDF>
      <cc:Work
         rdf:about="">
        <dc:format>image/svg+xml</dc:format>
        <dc:type
           rdf:resource="http://purl.org/dc/dcmitype/StillImage" />
      </cc:Work>
    </rdf:RDF>
  </metadata>
  <defs
     id="defs14">
    <linearGradient
       id="linearGradient845"
       inkscape:collect="always">
      <stop
         id="stop841"
         offset="0"
         style="stop-color:#e5e5e5;stop-opacity:1;" />
      <stop
         id="stop843"
         offset="1"
         style="stop-color:#d9d9d9;stop-opacity:1" />
    </linearGradient>
    <linearGradient
       gradientUnits="userSpaceOnUse"
       y2="26"
       x2="16"
       y1="6"
       x1="16"
       id="linearGradient847"
       xlink:href="#linearGradient845"
       inkscape:collect="always" />
    <filter
       inkscape:collect="always"
       style="color-interpolation-filters:sRGB"
       id="filter60732"
       x="-0.0625"
       width="1.125"
       y="-0.09375"
       height="1.1875">
      <feGaussianBlur
         inkscape:collect="always"
         stdDeviation="0.78125"
         id="feGaussianBlur60734" />
    </filter>
  </defs>
  <sodipodi:namedview
     inkscape:current-layer="svg10"
     inkscape:window-maximized="1"
     inkscape:window-y="0"
     inkscape:window-x="0"
     inkscape:cy="16"
     inkscape:cx="14.974359"
     inkscape:zoom="24.375"
     showgrid="false"
     id="namedview12"
     inkscape:window-height="1000"
     inkscape:window-width="1920"
     inkscape:pageshadow="2"
     inkscape:pageopacity="0"
     guidetolerance="10"
     gridtolerance="10"
     objecttolerance="10"
     borderopacity="1"
     bordercolor="#666666"
     pagecolor="#ffffff"
     inkscape:document-rotation="0" />
  <path
     fill="#e4e4e4"
     d="m 16,5.9999999 c -3.883,0 -7.1900999,2.3053 -8.6132999,5.5680001 -3.6147002,0.521 -6.3867002,3.509 -6.3867002,7.159 0,4.017 3.3579,7.273 7.5000002,7.273 H 24.438 C 28.062,26 31,23.151 31,19.636 31,16.37 28.467,13.693 25.199,13.33 24.347,9.1596999 20.55,5.9999999 16,5.9999999 Z"
     id="path2-5"
     style="fill:#000000;fill-opacity:1;opacity:0.5;filter:url(#filter60732)" />
  <path
     style="fill:url(#linearGradient847);fill-opacity:1"
     id="path2"
     d="m16 6c-3.883 0-7.1901 2.3053-8.6133 5.568-3.6147 0.521-6.3867 3.509-6.3867 7.159 0 4.017 3.3579 7.273 7.5 7.273h15.938c3.624 0 6.562-2.849 6.562-6.364 0-3.266-2.533-5.943-5.801-6.306-0.852-4.1703-4.649-7.33-9.199-7.33z"
     fill="#e4e4e4" />
  <path
     id="path6"
     d="m14.5 11c-1.381 0-2.5 1.119-2.5 2.5s1.119 2.5 2.5 2.5 2.5-1.119 2.5-2.5-1.119-2.5-2.5-2.5zm4.5 1c-0.472 0-0.9 0.17-1.242 0.443 0.151 0.322 0.242 0.678 0.242 1.057 0 0.635-0.245 1.208-0.635 1.648 0.362 0.515 0.958 0.852 1.635 0.852 1.105 0 2-0.895 2-2s-0.895-2-2-2zm-4.5 5c-4.5002 0.003-4.5 3.201-4.5 3.201v0.799h9v-0.799s0-3.203-4.5-3.201zm4.5 0c-0.623 0-1.111 0.107-1.502 0.271 2.191 0.676 2.442 2.311 2.475 2.729h2.027v-0.6s0-2.402-3-2.4z"
     opacity=".5" />
</svg>
