<?xml version="1.0" encoding="UTF-8" standalone="no"?>
<svg
   xmlns:dc="http://purl.org/dc/elements/1.1/"
   xmlns:cc="http://creativecommons.org/ns#"
   xmlns:rdf="http://www.w3.org/1999/02/22-rdf-syntax-ns#"
   xmlns:svg="http://www.w3.org/2000/svg"
   xmlns="http://www.w3.org/2000/svg"
   xmlns:xlink="http://www.w3.org/1999/xlink"
   xmlns:sodipodi="http://sodipodi.sourceforge.net/DTD/sodipodi-0.dtd"
   xmlns:inkscape="http://www.inkscape.org/namespaces/inkscape"
   inkscape:version="1.0.2 (e86c870879, 2021-01-15)"
   sodipodi:docname="cairo-dock.svg"
   id="svg30"
   version="1"
   height="32"
   width="32">
  <metadata
     id="metadata36">
    <rdf:RDF>
      <cc:Work
         rdf:about="">
        <dc:format>image/svg+xml</dc:format>
        <dc:type
           rdf:resource="http://purl.org/dc/dcmitype/StillImage" />
      </cc:Work>
    </rdf:RDF>
  </metadata>
  <defs
     id="defs34">
    <linearGradient
       id="linearGradient1535"
       inkscape:collect="always">
      <stop
         id="stop1531"
         offset="0"
         style="stop-color:#0063d7;stop-opacity:1" />
      <stop
         id="stop1533"
         offset="1"
         style="stop-color:#1abdff;stop-opacity:1" />
    </linearGradient>
    <linearGradient
       gradientUnits="userSpaceOnUse"
       y2="-16"
       x2="-5"
       y1="-16"
       x1="-27"
       id="linearGradient1537"
       xlink:href="#linearGradient1535"
       inkscape:collect="always" />
    <filter
       inkscape:collect="always"
       style="color-interpolation-filters:sRGB"
       id="filter60728"
       x="-0.066964286"
       width="1.1339286"
       y="-0.085227273"
       height="1.1704545">
      <feGaussianBlur
         inkscape:collect="always"
         stdDeviation="0.78125"
         id="feGaussianBlur60730" />
    </filter>
  </defs>
  <sodipodi:namedview
     inkscape:current-layer="svg30"
     inkscape:window-maximized="1"
     inkscape:window-y="0"
     inkscape:window-x="0"
     inkscape:cy="26.036887"
     inkscape:cx="9.9056787"
     inkscape:zoom="16.83798"
     showgrid="false"
     id="namedview32"
     inkscape:window-height="999"
     inkscape:window-width="1920"
     inkscape:pageshadow="2"
     inkscape:pageopacity="0"
     guidetolerance="10"
     gridtolerance="10"
     objecttolerance="10"
     borderopacity="1"
     bordercolor="#666666"
     pagecolor="#ffffff"
     inkscape:document-rotation="0" />
  <rect
     style="fill:#000000;fill-opacity:1;opacity:0.5;filter:url(#filter60728)"
     width="22"
     height="28"
     x="-27"
     y="-30"
     rx="1.5"
     ry="1.5"
     transform="matrix(0,-1,-1,0,0,0)"
     id="rect2-2" />
  <rect
     id="rect2"
     transform="matrix(0,-1,-1,0,0,0)"
     ry="1.5"
     rx="1.5"
     y="-30"
     x="-27"
     height="28"
     width="22"
     style="fill:url(#linearGradient1537);fill-opacity:1" />
  <rect
     id="rect2-7"
     transform="matrix(0,-1,-1,0,0,0)"
     ry="1.5"
     rx="1.5"
     y="-27"
     x="-27"
     height="22"
     width="3"
     style="opacity:0.5;fill:#000000;fill-opacity:1;stroke-width:0.327326" />
  <g
     id="g26"
     transform="matrix(0.66667,0,0,0.66667,0,1.9999)"
     fill="#ffffff">
    <path
       id="path18"
       d="m 10,30 h 4 c 0.554,0 1,0.446 1,1 v 4 c 0,0.554 -0.446,1 -1,1 H 10 C 9.446,36 9,35.554 9,35 v -4 c 0,-0.554 0.446,-1 1,-1 z" />
    <path
       id="path20"
       d="m 18,30 h 4 c 0.554,0 1,0.446 1,1 v 4 c 0,0.554 -0.446,1 -1,1 h -4 c -0.554,0 -1,-0.446 -1,-1 v -4 c 0,-0.554 0.446,-1 1,-1 z" />
    <path
       id="path22"
       d="m 26,30 h 4 c 0.554,0 1,0.446 1,1 v 4 c 0,0.554 -0.446,1 -1,1 h -4 c -0.554,0 -1,-0.446 -1,-1 v -4 c 0,-0.554 0.446,-1 1,-1 z" />
    <path
       id="path24"
       d="m 34,30 h 4 c 0.554,0 1,0.446 1,1 v 4 c 0,0.554 -0.446,1 -1,1 h -4 c -0.554,0 -1,-0.446 -1,-1 v -4 c 0,-0.554 0.446,-1 1,-1 z" />
  </g>
</svg>
