<?xml version="1.0" encoding="UTF-8" standalone="no"?>
<svg
   xmlns:dc="http://purl.org/dc/elements/1.1/"
   xmlns:cc="http://creativecommons.org/ns#"
   xmlns:rdf="http://www.w3.org/1999/02/22-rdf-syntax-ns#"
   xmlns:svg="http://www.w3.org/2000/svg"
   xmlns="http://www.w3.org/2000/svg"
   xmlns:xlink="http://www.w3.org/1999/xlink"
   xmlns:sodipodi="http://sodipodi.sourceforge.net/DTD/sodipodi-0.dtd"
   xmlns:inkscape="http://www.inkscape.org/namespaces/inkscape"
   width="32"
   height="32"
   version="1"
   id="svg66"
   sodipodi:docname="cs-login.svg"
   inkscape:version="1.0.1 (3bc2e813f5, 2020-09-07)">
  <metadata
     id="metadata72">
    <rdf:RDF>
      <cc:Work
         rdf:about="">
        <dc:format>image/svg+xml</dc:format>
        <dc:type
           rdf:resource="http://purl.org/dc/dcmitype/StillImage" />
      </cc:Work>
    </rdf:RDF>
  </metadata>
  <defs
     id="defs70">
    <linearGradient
       inkscape:collect="always"
       id="linearGradient916">
      <stop
         style="stop-color:#3e9ade;stop-opacity:1;"
         offset="0"
         id="stop912" />
      <stop
         style="stop-color:#3eded7;stop-opacity:1"
         offset="1"
         id="stop914" />
    </linearGradient>
    <filter
       inkscape:collect="always"
       style="color-interpolation-filters:sRGB"
       id="filter870"
       x="-0.075"
       width="1.15"
       y="-0.075"
       height="1.15">
      <feGaussianBlur
         inkscape:collect="always"
         stdDeviation="0.875"
         id="feGaussianBlur872" />
    </filter>
    <filter
       inkscape:collect="always"
       style="color-interpolation-filters:sRGB"
       id="filter885"
       x="-0.075"
       width="1.15"
       y="-0.075"
       height="1.15">
      <feGaussianBlur
         inkscape:collect="always"
         stdDeviation="0.625"
         id="feGaussianBlur887" />
    </filter>
    <linearGradient
       inkscape:collect="always"
       xlink:href="#linearGradient916"
       id="linearGradient918"
       x1="-30.345249"
       y1="-30.568785"
       x2="-2"
       y2="-2"
       gradientUnits="userSpaceOnUse" />
  </defs>
  <sodipodi:namedview
     inkscape:document-rotation="0"
     pagecolor="#ffffff"
     bordercolor="#666666"
     borderopacity="1"
     objecttolerance="10"
     gridtolerance="10"
     guidetolerance="10"
     inkscape:pageopacity="0"
     inkscape:pageshadow="2"
     inkscape:window-width="1920"
     inkscape:window-height="963"
     id="namedview68"
     showgrid="false"
     inkscape:zoom="16.83798"
     inkscape:cx="16.588329"
     inkscape:cy="20.24964"
     inkscape:window-x="0"
     inkscape:window-y="25"
     inkscape:window-maximized="1"
     inkscape:current-layer="svg66" />
  <rect
     style="fill:#000000;fill-opacity:1;stroke-width:1.10335;filter:url(#filter870);opacity:0.5"
     fill="#4f4f4f"
     width="28"
     height="28"
     x="-30"
     y="-30"
     rx="3.0453987"
     ry="3.0453987"
     transform="matrix(0,-1,-1,0,0,0)"
     id="rect38-5" />
  <rect
     style="fill:url(#linearGradient918);fill-opacity:1;stroke-width:1.10335"
     fill="#4f4f4f"
     width="28"
     height="28"
     x="-30"
     y="-30"
     rx="3.0453987"
     ry="3.0453987"
     transform="matrix(0,-1,-1,0,0,0)"
     id="rect38" />
  <rect
     style="opacity:0.5;fill:#000000;fill-opacity:1;stroke-width:0.788108;filter:url(#filter885)"
     fill="#4f4f4f"
     width="20"
     height="20"
     x="-26"
     y="-26"
     rx="2.1752849"
     ry="2.1752849"
     transform="matrix(0,-1,-1,0,0,0.49999946)"
     id="rect38-53-5" />
  <rect
     style="fill:#e5e5e5;fill-opacity:1;stroke-width:0.788108"
     fill="#4f4f4f"
     width="20"
     height="20"
     x="-26"
     y="-26"
     rx="2.1752849"
     ry="2.1752849"
     transform="matrix(0,-1,-1,0,0,0)"
     id="rect38-53" />
  <path
     d="m 16.000773,9 c -0.465176,0 -0.885821,0.188908 -1.190617,0.493747 -0.304798,0.30484 -0.493748,0.725611 -0.493748,1.190618 0,0.465008 0.18895,0.885778 0.493748,1.190618 0.304796,0.30484 0.725441,0.493748 1.190617,0.493748 0.465177,-1e-6 0.886212,-0.188908 1.190618,-0.493748 0.304407,-0.30484 0.492185,-0.72561 0.492185,-1.190618 0,-0.465007 -0.187778,-0.885779 -0.492185,-1.190618 C 16.886985,9.188908 16.46595,9 16.000773,9 Z m 0,4.210913 c -0.736765,4.4e-4 -1.29012,0.117345 -1.704677,0.292184 -0.414558,0.174838 -0.690635,0.407726 -0.874996,0.640622 -0.36872,0.465792 -0.368746,0.931246 -0.368747,0.931246 v 0.628121 a 3.9999767,3.9999767 0 0 0 2.468736,1.26718 3.9999767,3.9999767 0 0 0 0.120305,0.01253 3.9999767,3.9999767 0 0 0 0.03125,0.0031 3.9999767,3.9999767 0 0 0 0.112504,0.0079 3.9999767,3.9999767 0 0 0 0.215624,0.0063 3.9999767,3.9999767 0 0 0 0.142186,-0.0031 3.9999767,3.9999767 0 0 0 0.123438,-0.0063 3.9999767,3.9999767 0 0 0 0.09688,-0.0077 3.9999767,3.9999767 0 0 0 0.08751,-0.0093 3.9999767,3.9999767 0 0 0 2.496861,-1.270306 v -0.628096 c 0,0 -3.78e-4,-0.466644 -0.368748,-0.932807 -0.184185,-0.233082 -0.460598,-0.465923 -0.874996,-0.640622 -0.414397,-0.174698 -0.966423,-0.290921 -1.703113,-0.290621 z"
     style="opacity:0.5;fill:#000000;fill-opacity:1;stroke-width:1.03515"
     id="path845" />
  <rect
     fill="#ffffff"
     width="16"
     height="4"
     x="8"
     y="20"
     rx="1.0663999"
     ry="1"
     id="rect48"
     style="stroke-width:0.800001" />
  <circle
     style="opacity:0.5;fill:#000000;fill-opacity:1;stroke-width:0.167597"
     id="path889"
     cx="10"
     cy="22"
     r="1" />
  <circle
     style="opacity:0.5;fill:#000000;fill-opacity:1;stroke-width:0.167597"
     id="path889-6"
     cx="13"
     cy="22"
     r="1" />
  <circle
     style="opacity:0.5;fill:#000000;fill-opacity:1;stroke-width:0.167597"
     id="path889-2"
     cx="16"
     cy="22"
     r="1" />
</svg>
