<?xml version="1.0" encoding="UTF-8" standalone="no"?>
<svg
   xmlns:dc="http://purl.org/dc/elements/1.1/"
   xmlns:cc="http://creativecommons.org/ns#"
   xmlns:rdf="http://www.w3.org/1999/02/22-rdf-syntax-ns#"
   xmlns:svg="http://www.w3.org/2000/svg"
   xmlns="http://www.w3.org/2000/svg"
   xmlns:xlink="http://www.w3.org/1999/xlink"
   xmlns:sodipodi="http://sodipodi.sourceforge.net/DTD/sodipodi-0.dtd"
   xmlns:inkscape="http://www.inkscape.org/namespaces/inkscape"
   width="32"
   height="32"
   version="1"
   id="svg12"
   sodipodi:docname="cs-overview.svg"
   inkscape:version="1.0.1 (3bc2e813f5, 2020-09-07)">
  <metadata
     id="metadata18">
    <rdf:RDF>
      <cc:Work
         rdf:about="">
        <dc:format>image/svg+xml</dc:format>
        <dc:type
           rdf:resource="http://purl.org/dc/dcmitype/StillImage" />
      </cc:Work>
    </rdf:RDF>
  </metadata>
  <defs
     id="defs16">
    <linearGradient
       id="linearGradient841"
       inkscape:collect="always">
      <stop
         id="stop837"
         offset="0"
         style="stop-color:#0083d7;stop-opacity:1;" />
      <stop
         id="stop839"
         offset="1"
         style="stop-color:#2bacff;stop-opacity:1" />
    </linearGradient>
    <linearGradient
       gradientUnits="userSpaceOnUse"
       y2="27"
       x2="16"
       y1="5"
       x1="16"
       id="linearGradient843"
       xlink:href="#linearGradient841"
       inkscape:collect="always" />
    <filter
       inkscape:collect="always"
       style="color-interpolation-filters:sRGB"
       id="filter60716"
       x="-0.066964286"
       width="1.1339286"
       y="-0.085227273"
       height="1.1704545">
      <feGaussianBlur
         inkscape:collect="always"
         stdDeviation="0.78125"
         id="feGaussianBlur60718" />
    </filter>
  </defs>
  <sodipodi:namedview
     inkscape:document-rotation="0"
     pagecolor="#ffffff"
     bordercolor="#666666"
     borderopacity="1"
     objecttolerance="10"
     gridtolerance="10"
     guidetolerance="10"
     inkscape:pageopacity="0"
     inkscape:pageshadow="2"
     inkscape:window-width="1920"
     inkscape:window-height="1000"
     id="namedview14"
     showgrid="false"
     inkscape:zoom="16"
     inkscape:cx="1.1369826"
     inkscape:cy="8.611124"
     inkscape:window-x="0"
     inkscape:window-y="0"
     inkscape:window-maximized="1"
     inkscape:current-layer="svg12" />
  <path
     id="path2-7"
     d="M 3.4,5 C 3.4,5 2,5 2,6.375 v 19.25 C 2,26.387 2.6244,27 3.4,27 H 28.6 C 29.376,27 30,26.387 30,25.625 V 6.375 C 30,5.6132 29.376,5 28.6,5 Z"
     fill="#4ab3e4"
     style="fill:#000000;fill-opacity:1;opacity:0.5;filter:url(#filter60716)" />
  <path
     fill="#4ab3e4"
     d="m3.4 5s-1.4 0-1.4 1.375v19.25c0 0.762 0.6244 1.375 1.4 1.375h25.2c0.776 0 1.4-0.613 1.4-1.375v-19.25c0-0.7618-0.624-1.375-1.4-1.375h-25.2z"
     id="path2"
     style="fill:url(#linearGradient843);fill-opacity:1" />
  <path
     id="path896"
     d="m 1.9964123,13.317209 a 8,8 0 0 0 0.08398,0.09375 8,8 0 0 0 0.162109,0.173828 8,8 0 0 0 0.167969,0.167969 8,8 0 0 0 0.173828,0.164063 8,8 0 0 0 0.175782,0.158203 8,8 0 0 0 0.183593,0.152343 8,8 0 0 0 0.185547,0.148438 8,8 0 0 0 0.191407,0.140625 8,8 0 0 0 0.195312,0.136719 8,8 0 0 0 0.199219,0.130859 8,8 0 0 0 0.201172,0.125 8,8 0 0 0 0.207031,0.117187 8,8 0 0 0 0.210937,0.111329 8,8 0 0 0 0.212891,0.107421 8,8 0 0 0 0.214844,0.09766 8,8 0 0 0 0.21875,0.09375 8,8 0 0 0 0.222656,0.08594 8,8 0 0 0 0.222656,0.08008 8,8 0 0 0 0.226563,0.07422 8,8 0 0 0 0.228515,0.06445 8,8 0 0 0 0.230469,0.06055 8,8 0 0 0 0.232422,0.05273 8,8 0 0 0 0.232422,0.04492 8,8 0 0 0 0.236328,0.03906 8,8 0 0 0 0.234375,0.03125 8,8 0 0 0 0.236328,0.02539 8,8 0 0 0 0.238281,0.01758 8,8 0 0 0 0.238282,0.0098 8,8 0 0 0 0.236328,0.0039 8,8 0 0 0 0.1992186,-0.002 8,8 0 0 0 0.2382813,-0.0098 8,8 0 0 0 0.2363281,-0.01563 8,8 0 0 0 0.2363281,-0.02344 8,8 0 0 0 0.2363281,-0.03125 8,8 0 0 0 0.234375,-0.03711 8,8 0 0 0 0.234375,-0.04492 8,8 0 0 0 0.2324219,-0.05078 8,8 0 0 0 0.2304686,-0.05859 8,8 0 0 0 0.228516,-0.06641 8,8 0 0 0 0.226562,-0.07031 8,8 0 0 0 0.224609,-0.08008 8,8 0 0 0 0.222657,-0.08398 8,8 0 0 0 0.21875,-0.0918 8,8 0 0 0 0.216797,-0.09961 8,8 0 0 0 0.21289,-0.103516 8,8 0 0 0 0.210938,-0.111328 8,8 0 0 0 0.207031,-0.117188 8,8 0 0 0 0.203125,-0.123047 8,8 0 0 0 0.199219,-0.130859 8,8 0 0 0 0.195312,-0.134766 8,8 0 0 0 0.191406,-0.140625 8,8 0 0 0 0.1875,-0.146484 8,8 0 0 0 0.183594,-0.152344 8,8 0 0 0 0.177735,-0.15625 8,8 0 0 0 0.173828,-0.164062 8,8 0 0 0 0.167968,-0.167969 8,8 0 0 0 0.164063,-0.171875 8,8 0 0 0 0.158203,-0.177734 8,8 0 0 0 0.152344,-0.181641 8,8 0 0 0 0.148437,-0.1875 8,8 0 0 0 0.142578,-0.189453 8,8 0 0 0 0.134766,-0.195313 8,8 0 0 0 0.130859,-0.199218 8,8 0 0 0 0.125,-0.203125 8,8 0 0 0 0.117188,-0.207032 8,8 0 0 0 0.113281,-0.208984 8,8 0 0 0 0.105469,-0.212891 8,8 0 0 0 0.09961,-0.216796 8,8 0 0 0 0.0918,-0.21875 8,8 0 0 0 0.08594,-0.220704 8,8 0 0 0 0.08008,-0.224609 8,8 0 0 0 0.07422,-0.226563 8,8 0 0 0 0.06641,-0.228515 8,8 0 0 0 0.05859,-0.2304689 8,8 0 0 0 0.05273,-0.232422 8,8 0 0 0 0.04492,-0.232422 8,8 0 0 0 0.03906,-0.234375 8,8 0 0 0 0.03125,-0.236328 8,8 0 0 0 0.02539,-0.236328 8,8 0 0 0 0.01758,-0.236328 8,8 0 0 0 0.0098,-0.238281 8,8 0 0 0 0.0039,-0.238282 8,8 0 0 0 -0.0019,-0.197265 8,8 0 0 0 -0.0098,-0.238281 8,8 0 0 0 -0.01563,-0.238282 8,8 0 0 0 -0.02344,-0.236328 8,8 0 0 0 -0.03125,-0.236328 8,8 0 0 0 -0.03711,-0.234375 8,8 0 0 0 -0.04492,-0.232422 8,8 0 0 0 -0.05078,-0.232422 8,8 0 0 0 -0.05859,-0.230468 8,8 0 0 0 -0.06641,-0.228516 8,8 0 0 0 -0.07031,-0.228516 8,8 0 0 0 -0.08008,-0.222656 8,8 0 0 0 -0.08398,-0.222656 8,8 0 0 0 -0.0098,-0.02148 H 3.3968023 c 0,0 -1.40039,0 -1.40039,1.375 z"
     style="opacity:0.5;fill:#ffffff;fill-opacity:1" />
  <path
     id="path927"
     d="m 1.9920544,10.476433 a 6,6 0 0 0 0.039062,0.03516 6,6 0 0 0 0.1582039,0.132813 6,6 0 0 0 0.160156,0.126953 6,6 0 0 0 0.166016,0.123047 6,6 0 0 0 0.169921,0.117187 6,6 0 0 0 0.173829,0.109376 6,6 0 0 0 0.177734,0.105468 6,6 0 0 0 0.18164,0.09766 6,6 0 0 0 0.183594,0.0918 6,6 0 0 0 0.1875,0.08594 6,6 0 0 0 0.189453,0.08008 6,6 0 0 0 0.19336,0.07227 6,6 0 0 0 0.1953121,0.06641 6,6 0 0 0 0.197266,0.05859 6,6 0 0 0 0.199219,0.05273 6,6 0 0 0 0.201172,0.04492 6,6 0 0 0 0.201171,0.03906 6,6 0 0 0 0.203125,0.03125 6,6 0 0 0 0.205078,0.02539 6,6 0 0 0 0.205079,0.01758 6,6 0 0 0 0.205078,0.0098 6,6 0 0 0 0.207031,0.0039 6,6 0 0 0 0.15625,-0.002 6,6 0 0 0 0.205078,-0.0098 6,6 0 0 0 0.205078,-0.01563 6,6 0 0 0 0.205078,-0.02344 6,6 0 0 0 0.203125,-0.0293 6,6 0 0 0 0.203125,-0.03711 6,6 0 0 0 0.201172,-0.04297 6,6 0 0 0 0.199219,-0.05078 6,6 0 0 0 0.199219,-0.05859 6,6 0 0 0 0.195312,-0.06445 6,6 0 0 0 0.19336,-0.07031 6,6 0 0 0 0.189453,-0.07813 6,6 0 0 0 0.189453,-0.08398 6,6 0 0 0 0.183594,-0.08984 6,6 0 0 0 0.18164,-0.09766 6,6 0 0 0 0.179688,-0.103516 6,6 0 0 0 0.173828,-0.107422 6,6 0 0 0 0.171875,-0.115234 6,6 0 0 0 0.166015,-0.121094 6,6 0 0 0 0.16211,-0.126953 6,6 0 0 0 0.158203,-0.130859 6,6 0 0 0 0.1542976,-0.138672 6,6 0 0 0 0.148437,-0.142578 6,6 0 0 0 0.144532,-0.146485 6,6 0 0 0 0.138671,-0.152343 6,6 0 0 0 0.132813,-0.158204 6,6 0 0 0 0.126953,-0.160156 6,6 0 0 0 0.123047,-0.166016 6,6 0 0 0 0.115234,-0.169921 6,6 0 0 0 0.111329,-0.173829 6,6 0 0 0 0.105468,-0.177734 6,6 0 0 0 0.09766,-0.18164 6,6 0 0 0 0.0918,-0.183594 6,6 0 0 0 0.08594,-0.1875 6,6 0 0 0 0.07813,-0.189453 6,6 0 0 0 0.07422,-0.19336 6,6 0 0 0 0.06445,-0.195312 6,6 0 0 0 0.06055,-0.197266 6,6 0 0 0 0.05273,-0.199219 6,6 0 0 0 0.04492,-0.201172 6,6 0 0 0 0.03906,-0.201171 6,6 0 0 0 0.03125,-0.203125 6,6 0 0 0 0.02539,-0.205078 6,6 0 0 0 0.01758,-0.205079 6,6 0 0 0 0.0098,-0.207031 6,6 0 0 0 0.0039,-0.205078 6,6 0 0 0 -0.0019,-0.15625 6,6 0 0 0 -0.0098,-0.205078 6,6 0 0 0 -0.01563,-0.205078 6,6 0 0 0 -0.02344,-0.205078 6,6 0 0 0 -0.0293,-0.203125 6,6 0 0 0 -0.0039,-0.02539 H 3.3924453 c 0,0 -1.4003909,0 -1.4003909,1.375 z"
     style="opacity:0.5;fill:#ffffff;fill-opacity:1" />
  <path
     id="path2-4"
     d="M 7 -54.912109 L 7 -36.75 C 7 -35.988 7.6247906 -35.375 8.4003906 -35.375 L 33.599609 -35.375 C 34.375609 -35.375 35 -35.988 35 -36.75 L 35 -56 C 35 -56.7618 34.375609 -57.375 33.599609 -57.375 L 12.873047 -57.375 A 4 4 0 0 1 12.828125 -57.214844 A 4 4 0 0 1 12.775391 -57.054688 A 4 4 0 0 1 12.716797 -56.896484 A 4 4 0 0 1 12.652344 -56.742188 A 4 4 0 0 1 12.580078 -56.589844 A 4 4 0 0 1 12.501953 -56.441406 A 4 4 0 0 1 12.417969 -56.296875 A 4 4 0 0 1 12.326172 -56.154297 A 4 4 0 0 1 12.230469 -56.015625 A 4 4 0 0 1 12.128906 -55.882812 A 4 4 0 0 1 12.021484 -55.753906 A 4 4 0 0 1 11.908203 -55.628906 A 4 4 0 0 1 11.791016 -55.507812 A 4 4 0 0 1 11.667969 -55.394531 A 4 4 0 0 1 11.539062 -55.285156 A 4 4 0 0 1 11.408203 -55.179688 A 4 4 0 0 1 11.271484 -55.082031 A 4 4 0 0 1 11.130859 -54.990234 A 4 4 0 0 1 10.986328 -54.902344 A 4 4 0 0 1 10.837891 -54.822266 A 4 4 0 0 1 10.6875 -54.748047 A 4 4 0 0 1 10.533203 -54.681641 A 4 4 0 0 1 10.376953 -54.619141 A 4 4 0 0 1 10.21875 -54.564453 A 4 4 0 0 1 10.056641 -54.517578 A 4 4 0 0 1 9.8945312 -54.476562 A 4 4 0 0 1 9.7285156 -54.441406 A 4 4 0 0 1 9.5625 -54.414062 A 4 4 0 0 1 9.3964844 -54.394531 A 4 4 0 0 1 9.2285156 -54.380859 A 4 4 0 0 1 9.0605469 -54.375 A 4 4 0 0 1 9 -54.375 A 4 4 0 0 1 8.8320312 -54.378906 A 4 4 0 0 1 8.6640625 -54.388672 A 4 4 0 0 1 8.4960938 -54.40625 A 4 4 0 0 1 8.3300781 -54.431641 A 4 4 0 0 1 8.1660156 -54.462891 A 4 4 0 0 1 8.0019531 -54.501953 A 4 4 0 0 1 7.8398438 -54.546875 A 4 4 0 0 1 7.6796875 -54.599609 A 4 4 0 0 1 7.5214844 -54.658203 A 4 4 0 0 1 7.3671875 -54.722656 A 4 4 0 0 1 7.2148438 -54.794922 A 4 4 0 0 1 7.0664062 -54.873047 A 4 4 0 0 1 7 -54.912109 z " />
  <path
     id="path964"
     d="m 2.0014338,7.4660493 a 4,4 0 0 0 0.06641,0.03906 4,4 0 0 0 0.148438,0.07813 4,4 0 0 0 0.152343,0.07227 4,4 0 0 0 0.154297,0.06445 4,4 0 0 0 0.158203,0.05859 4,4 0 0 0 0.160157,0.05273 4,4 0 0 0 0.162109,0.04492 4,4 0 0 0 0.164062,0.03906 4,4 0 0 0 0.164063,0.03125 4,4 0 0 0 0.166016,0.02539 4,4 0 0 0 0.167968,0.01758 4,4 0 0 0 0.167969,0.0098 4,4 0 0 0 0.167969,0.0039 4,4 0 0 0 0.06055,0 4,4 0 0 0 0.167968,-0.0059 4,4 0 0 0 0.167969,-0.01367 4,4 0 0 0 0.166016,-0.01953 4,4 0 0 0 0.166015,-0.02734 4,4 0 0 0 0.166016,-0.03516 4,4 0 0 0 0.16211,-0.04102 4,4 0 0 0 0.162109,-0.04687 4,4 0 0 0 0.158203,-0.05469 4,4 0 0 0 0.15625,-0.0625 4,4 0 0 0 0.1542968,-0.06641 4,4 0 0 0 0.150391,-0.07422 4,4 0 0 0 0.148437,-0.08008 4,4 0 0 0 0.144531,-0.08789 4,4 0 0 0 0.140625,-0.0918 4,4 0 0 0 0.136719,-0.09766 4,4 0 0 0 0.130859,-0.105468 4,4 0 0 0 0.128907,-0.109375 4,4 0 0 0 0.123047,-0.113281 4,4 0 0 0 0.117187,-0.121094 4,4 0 0 0 0.113281,-0.125 4,4 0 0 0 0.107422,-0.128906 4,4 0 0 0 0.101563,-0.132813 4,4 0 0 0 0.095703,-0.138672 4,4 0 0 0 0.091797,-0.142578 4,4 0 0 0 0.083984,-0.144531 4,4 0 0 0 0.078125,-0.148438 4,4 0 0 0 0.072266,-0.152344 4,4 0 0 0 0.064453,-0.154296 4,4 0 0 0 0.058594,-0.158204 4,4 0 0 0 0.052734,-0.160156 4,4 0 0 0 0.044922,-0.160156 H 3.4018308 c 0,0 -1.40039,0 -1.40039,1.375 z"
     style="fill:#ffffff;fill-opacity:1;opacity:0.5" />
</svg>
