<?xml version="1.0" encoding="UTF-8" standalone="no"?>
<svg
   xmlns:dc="http://purl.org/dc/elements/1.1/"
   xmlns:cc="http://creativecommons.org/ns#"
   xmlns:rdf="http://www.w3.org/1999/02/22-rdf-syntax-ns#"
   xmlns:svg="http://www.w3.org/2000/svg"
   xmlns="http://www.w3.org/2000/svg"
   xmlns:xlink="http://www.w3.org/1999/xlink"
   xmlns:sodipodi="http://sodipodi.sourceforge.net/DTD/sodipodi-0.dtd"
   xmlns:inkscape="http://www.inkscape.org/namespaces/inkscape"
   inkscape:version="1.0.1 (3bc2e813f5, 2020-09-07)"
   sodipodi:docname="dconf-editor.svg"
   id="svg16"
   version="1"
   height="32"
   width="32">
  <metadata
     id="metadata22">
    <rdf:RDF>
      <cc:Work
         rdf:about="">
        <dc:format>image/svg+xml</dc:format>
        <dc:type
           rdf:resource="http://purl.org/dc/dcmitype/StillImage" />
        <dc:title />
      </cc:Work>
    </rdf:RDF>
  </metadata>
  <defs
     id="defs20">
    <linearGradient
       id="linearGradient823"
       inkscape:collect="always">
      <stop
         id="stop819"
         offset="0"
         style="stop-color:#ff196e;stop-opacity:1" />
      <stop
         id="stop821"
         offset="1"
         style="stop-color:#ed1414;stop-opacity:1" />
    </linearGradient>
    <linearGradient
       gradientTransform="matrix(0.66804001,0,0,0.66804001,0.60623958,0.27332212)"
       gradientUnits="userSpaceOnUse"
       y2="19.485796"
       x2="35.894283"
       y1="19.485796"
       x1="4"
       id="linearGradient825"
       xlink:href="#linearGradient823"
       inkscape:collect="always" />
    <filter
       height="1.216"
       y="-0.108"
       width="1.216"
       x="-0.108"
       id="filter888"
       style="color-interpolation-filters:sRGB"
       inkscape:collect="always">
      <feGaussianBlur
         id="feGaussianBlur890"
         stdDeviation="0.81"
         inkscape:collect="always" />
    </filter>
    <filter
       inkscape:collect="always"
       style="color-interpolation-filters:sRGB"
       id="filter60712"
       x="-0.074929125"
       width="1.1498582"
       y="-0.075071009"
       height="1.150142">
      <feGaussianBlur
         inkscape:collect="always"
         stdDeviation="0.83430626"
         id="feGaussianBlur60714" />
    </filter>
  </defs>
  <sodipodi:namedview
     inkscape:document-rotation="0"
     inkscape:current-layer="svg16"
     inkscape:window-maximized="1"
     inkscape:window-y="0"
     inkscape:window-x="0"
     inkscape:cy="8.4129261"
     inkscape:cx="9.8662901"
     inkscape:zoom="20.85965"
     showgrid="false"
     id="namedview18"
     inkscape:window-height="1000"
     inkscape:window-width="1920"
     inkscape:pageshadow="2"
     inkscape:pageopacity="0"
     guidetolerance="10"
     gridtolerance="10"
     objecttolerance="10"
     borderopacity="1"
     bordercolor="#666666"
     pagecolor="#ffffff" />
  <path
     d="M 13.931729,2.6372846 A 10.65333,10.65333 0 0 0 3.2774331,13.291582 10.65333,10.65333 0 0 0 13.931729,23.943926 10.65333,10.65333 0 0 0 19.947355,22.082598 l 6.574218,6.574219 c 1.882662,1.960817 4.786989,-0.941557 2.826172,-2.824219 L 22.761808,19.248614 A 10.65333,10.65333 0 0 0 24.584073,13.291582 10.65333,10.65333 0 0 0 13.931729,2.6372846 Z"
     style="opacity:0.5;fill:#000000;fill-opacity:1;stroke:none;stroke-width:0.475646;stroke-miterlimit:4;stroke-dasharray:none;stroke-opacity:0;filter:url(#filter60712)"
     id="path829-2" />
  <circle
     r="9.5434284"
     cy="13.330028"
     cx="13.792346"
     id="path829"
     style="opacity:1;fill:#990909;fill-opacity:1;stroke:none;stroke-width:0.4756462;stroke-miterlimit:4;stroke-dasharray:none;stroke-opacity:0" />
  <path
     inkscape:connector-curvature="0"
     id="path8"
     d="m 18.382045,20.516081 8.140403,8.140403 c 1.882662,1.960817 4.785406,-0.941927 2.824589,-2.824589 l -8.264086,-8.264087 c -3.156224,1.049471 -1.824558,1.049471 -2.700906,2.948273 z"
     style="fill:#565656;stroke-width:0.66583306" />
  <path
     style="fill:#000000;fill-opacity:1;stroke-width:0.5625;filter:url(#filter888);opacity:0.3"
     d="m 14.095262,4.5155175 a 9.0000008,9.0000008 0 0 0 -9.0000016,8.9999995 9.0000008,9.0000008 0 0 0 9.0000016,9 9.0000008,9.0000008 0 0 0 8.999999,-9 9.0000008,9.0000008 0 0 0 -8.999999,-8.9999995 z m 0,3.3749999 a 5.6249999,5.6249999 0 0 1 5.624999,5.6249996 5.6249999,5.6249999 0 0 1 -5.624999,5.625 5.6249999,5.6249999 0 0 1 -5.6250016,-5.625 5.6249999,5.6249999 0 0 1 5.6250016,-5.6249996 z"
     id="path12-7"
     inkscape:connector-curvature="0" />
  <path
     inkscape:connector-curvature="0"
     id="path12"
     d="M 13.931729,2.6372846 A 10.65333,10.65333 0 0 0 3.2783995,13.290614 10.65333,10.65333 0 0 0 13.931729,23.943943 10.65333,10.65333 0 0 0 24.585058,13.290614 10.65333,10.65333 0 0 0 13.931729,2.6372846 Z m 0,3.9949984 a 6.6583305,6.6583305 0 0 1 6.65833,6.658331 6.6583305,6.6583305 0 0 1 -6.65833,6.65833 6.6583305,6.6583305 0 0 1 -6.6583309,-6.65833 6.6583305,6.6583305 0 0 1 6.6583309,-6.658331 z"
     style="fill:url(#linearGradient825);fill-opacity:1;stroke-width:0.66583306" />
</svg>
