<?xml version="1.0" encoding="UTF-8" standalone="no"?>
<svg
   xmlns:dc="http://purl.org/dc/elements/1.1/"
   xmlns:cc="http://creativecommons.org/ns#"
   xmlns:rdf="http://www.w3.org/1999/02/22-rdf-syntax-ns#"
   xmlns:svg="http://www.w3.org/2000/svg"
   xmlns="http://www.w3.org/2000/svg"
   xmlns:xlink="http://www.w3.org/1999/xlink"
   xmlns:sodipodi="http://sodipodi.sourceforge.net/DTD/sodipodi-0.dtd"
   xmlns:inkscape="http://www.inkscape.org/namespaces/inkscape"
   width="32"
   height="32"
   version="1.1"
   id="svg20"
   sodipodi:docname="deluge.svg"
   inkscape:version="1.0.1 (3bc2e813f5, 2020-09-07)">
  <metadata
     id="metadata26">
    <rdf:RDF>
      <cc:Work
         rdf:about="">
        <dc:format>image/svg+xml</dc:format>
        <dc:type
           rdf:resource="http://purl.org/dc/dcmitype/StillImage" />
      </cc:Work>
    </rdf:RDF>
  </metadata>
  <defs
     id="defs24">
    <linearGradient
       inkscape:collect="always"
       id="linearGradient891">
      <stop
         style="stop-color:#2c6abe;stop-opacity:1"
         offset="0"
         id="stop887" />
      <stop
         style="stop-color:#578ed9;stop-opacity:1"
         offset="1"
         id="stop889" />
    </linearGradient>
    <linearGradient
       gradientTransform="translate(0,0.49999607)"
       inkscape:collect="always"
       xlink:href="#linearGradient891"
       id="linearGradient893"
       x1="16.064951"
       y1="29.824617"
       x2="15.947155"
       y2="1.5753824"
       gradientUnits="userSpaceOnUse" />
    <filter
       height="1.1318964"
       y="-0.065948177"
       width="1.173864"
       x="-0.08693199"
       id="filter862"
       style="color-interpolation-filters:sRGB"
       inkscape:collect="always">
      <feGaussianBlur
         id="feGaussianBlur864"
         stdDeviation="0.7968732"
         inkscape:collect="always" />
    </filter>
  </defs>
  <sodipodi:namedview
     inkscape:document-rotation="0"
     pagecolor="#ffffff"
     bordercolor="#666666"
     borderopacity="1"
     objecttolerance="10"
     gridtolerance="10"
     guidetolerance="10"
     inkscape:pageopacity="0"
     inkscape:pageshadow="2"
     inkscape:window-width="1920"
     inkscape:window-height="1000"
     id="namedview22"
     showgrid="false"
     inkscape:zoom="23.8125"
     inkscape:cx="13.900262"
     inkscape:cy="16"
     inkscape:window-x="0"
     inkscape:window-y="0"
     inkscape:window-maximized="1"
     inkscape:current-layer="svg20" />
  <path
     style="opacity:0.5;mix-blend-mode:normal;filter:url(#filter862)"
     d="M 15.117,2.2253881 7.1627,13.680989 c -2.7361,3.939 -2.7057,8.195 -0.862,11.409 1.8437,3.215 5.4713,5.41 9.7023,5.41 4.23,0 7.856,-2.195 9.698,-5.41 1.842,-3.214 1.871,-7.47 -0.862,-11.412 L 16.882,2.2030881 c -0.687,-0.9332999 -1,-0.9489999 -1.765,0.0223 z"
     id="path2" />
  <path
     style="fill:url(#linearGradient893);fill-opacity:1"
     d="M 15.117,2.2253961 7.1627,13.680996 c -2.7361,3.939 -2.7057,8.195 -0.862,11.409 1.8437,3.215 5.4713,5.41 9.7023,5.41 4.23,0 7.856,-2.195 9.698,-5.41 1.842,-3.214 1.871,-7.47 -0.862,-11.412 L 16.882,2.2030961 c -0.687,-0.93332 -1,-0.94902 -1.765,0.0223 z"
     id="path4" />
  <path
     id="path4-3"
     d="M 15.330152,6.0502937 9.2958548,14.740751 c -2.0756637,2.988208 -2.0526022,6.216899 -0.653932,8.655106 1.3986692,2.438966 4.1506422,4.104139 7.3603682,4.104139 3.208966,0 5.959725,-1.665173 7.357105,-4.104139 1.397379,-2.438207 1.419379,-5.666898 -0.653931,-8.657382 L 16.669119,6.0333765 C 16.147946,5.3253404 15.910497,5.3134301 15.330152,6.0502937 Z"
     style="opacity:0.3;fill:#ffffff;fill-opacity:1;stroke-width:0.758621" />
  <path
     style="opacity:0.3;fill:#ffffff;fill-opacity:1;stroke-width:0.551724"
     d="m 15.512838,9.9002125 -4.38858,6.3203325 c -1.5095737,2.173243 -1.4928017,4.521382 -0.475587,6.294623 1.017214,1.773794 3.018649,2.984828 5.352995,2.984828 2.333794,0 4.334346,-1.211034 5.350622,-2.984828 1.016276,-1.773241 1.032276,-4.12138 -0.475586,-6.296278 L 16.486632,9.8879091 C 16.107597,9.3729738 15.934907,9.3643117 15.512838,9.9002125 Z"
     id="path4-3-6" />
  <path
     style="opacity:0.3;fill:#ffffff;fill-opacity:1;stroke-width:0.344827"
     d="m 15.695524,13.450141 -2.742861,3.950206 c -0.943482,1.358275 -0.932999,2.82586 -0.297241,3.934136 0.635758,1.10862 1.886654,1.865516 3.345619,1.865516 1.45862,0 2.708964,-0.756896 3.344136,-1.865516 0.635172,-1.108276 0.645172,-2.575861 -0.297241,-3.935171 l -2.743792,-3.956859 c -0.236896,-0.321835 -0.344827,-0.327249 -0.60862,0.0076 z"
     id="path4-3-7" />
</svg>
