<?xml version="1.0" encoding="UTF-8" standalone="no"?>
<svg
   xmlns:dc="http://purl.org/dc/elements/1.1/"
   xmlns:cc="http://creativecommons.org/ns#"
   xmlns:rdf="http://www.w3.org/1999/02/22-rdf-syntax-ns#"
   xmlns:svg="http://www.w3.org/2000/svg"
   xmlns="http://www.w3.org/2000/svg"
   xmlns:sodipodi="http://sodipodi.sourceforge.net/DTD/sodipodi-0.dtd"
   xmlns:inkscape="http://www.inkscape.org/namespaces/inkscape"
   inkscape:version="1.0.2 (e86c870879, 2021-01-15)"
   sodipodi:docname="about_kde.svg"
   id="svg12"
   version="1.1"
   height="32"
   width="32">
  <metadata
     id="metadata18">
    <rdf:RDF>
      <cc:Work
         rdf:about="">
        <dc:format>image/svg+xml</dc:format>
        <dc:type
           rdf:resource="http://purl.org/dc/dcmitype/StillImage" />
      </cc:Work>
    </rdf:RDF>
  </metadata>
  <defs
     id="defs16">
    <filter
       inkscape:collect="always"
       style="color-interpolation-filters:sRGB"
       id="filter60688"
       x="-0.075"
       width="1.15"
       y="-0.075"
       height="1.15">
      <feGaussianBlur
         inkscape:collect="always"
         stdDeviation="0.875"
         id="feGaussianBlur60690" />
    </filter>
  </defs>
  <sodipodi:namedview
     inkscape:current-layer="svg12"
     inkscape:window-maximized="1"
     inkscape:window-y="0"
     inkscape:window-x="0"
     inkscape:cy="16"
     inkscape:cx="13.900262"
     inkscape:zoom="23.8125"
     showgrid="false"
     id="namedview14"
     inkscape:window-height="1000"
     inkscape:window-width="1920"
     inkscape:pageshadow="2"
     inkscape:pageopacity="0"
     guidetolerance="10"
     gridtolerance="10"
     objecttolerance="10"
     borderopacity="1"
     bordercolor="#666666"
     pagecolor="#ffffff"
     inkscape:document-rotation="0" />
  <rect
     style="fill:#000000;fill-opacity:1;opacity:0.5;filter:url(#filter60688)"
     width="28"
     height="28"
     x="2"
     y="-30"
     rx="1.4"
     ry="1.4"
     id="rect4-5"
     transform="rotate(90)" />
  <rect
     transform="rotate(90)"
     id="rect4"
     ry="1.4"
     rx="1.4"
     y="-30"
     x="2"
     height="28"
     width="28"
     style="fill:#2e8ee5;fill-opacity:1" />
  <path
     id="path8"
     d="M 18 5 L 14 5.6054688 L 14 20.074219 L 18 19 L 18 13.410156 L 22 20 L 26 18.5 L 21 12.5 L 26.001953 6.0019531 L 22.121094 5 L 18 11.558594 L 18 5 z M 9.8554688 8.9238281 C 9.7608767 8.9238281 9.6662837 8.9606691 9.59375 9.0332031 L 8.0214844 10.605469 C 7.8764169 10.750536 7.9113407 10.957776 8.0214844 11.130859 L 9.6484375 13.685547 C 9.5278952 13.935768 9.4235146 14.193457 9.3359375 14.457031 C 9.3320875 14.468371 9.3260476 14.478874 9.3222656 14.490234 L 6.3710938 15.146484 C 6.1708235 15.190994 6 15.312423 6 15.517578 L 6 16.5 L 6 17.482422 C 6 17.687577 6.1708235 17.809012 6.3710938 17.853516 L 9.3222656 18.509766 C 9.3287256 18.529166 9.3390531 18.547076 9.3457031 18.566406 C 9.4309481 18.822448 9.5320551 19.072933 9.6484375 19.316406 L 8.0214844 21.869141 C 7.9113407 22.042224 7.8764169 22.249464 8.0214844 22.394531 L 9.59375 23.966797 C 9.7388175 24.111864 9.9721176 24.111864 10.117188 23.966797 L 12.667969 22.341797 C 12.918728 22.463746 13.177074 22.569433 13.441406 22.658203 C 13.458756 22.664303 13.474798 22.673748 13.492188 22.679688 L 14.146484 25.628906 C 14.146484 25.834062 14.312424 26 14.517578 26 L 16.738281 26 C 16.943436 26 17.064871 25.829176 17.109375 25.628906 L 17.763672 22.589844 C 18.064276 22.476831 18.35609 22.341695 18.636719 22.185547 L 21.126953 23.966797 C 21.272021 24.111864 21.505324 24.111864 21.650391 23.966797 L 23.222656 22.394531 C 23.367724 22.249464 23.3328 22.042224 23.222656 21.869141 L 22.275391 20.431641 L 22.175781 20.46875 C 21.95053 20.55336 21.696956 20.46555 21.572266 20.259766 L 20.576172 18.619141 C 19.746236 20.604336 17.786239 22 15.5 22 C 12.462434 22 10 19.537566 10 16.5 C 10 14.16908 11.452799 12.18165 13.5 11.380859 L 13.5 10.285156 L 13.492188 10.320312 C 13.470107 10.327813 13.449734 10.339886 13.427734 10.347656 C 13.166909 10.434276 12.911839 10.537344 12.664062 10.65625 L 10.117188 9.0332031 C 10.044652 8.9606696 9.9500611 8.9238281 9.8554688 8.9238281 z"
     style="fill:#ffffff" />
</svg>
