<?xml version="1.0" encoding="UTF-8" standalone="no"?>
<svg
   xmlns:dc="http://purl.org/dc/elements/1.1/"
   xmlns:cc="http://creativecommons.org/ns#"
   xmlns:rdf="http://www.w3.org/1999/02/22-rdf-syntax-ns#"
   xmlns:svg="http://www.w3.org/2000/svg"
   xmlns="http://www.w3.org/2000/svg"
   xmlns:xlink="http://www.w3.org/1999/xlink"
   xmlns:sodipodi="http://sodipodi.sourceforge.net/DTD/sodipodi-0.dtd"
   xmlns:inkscape="http://www.inkscape.org/namespaces/inkscape"
   inkscape:version="1.0.1 (3bc2e813f5, 2020-09-07)"
   sodipodi:docname="distributor-logo-xubuntu.svg"
   id="svg222"
   version="1.1"
   height="32"
   width="32">
  <metadata
     id="metadata228">
    <rdf:RDF>
      <cc:Work
         rdf:about="">
        <dc:format>image/svg+xml</dc:format>
        <dc:type
           rdf:resource="http://purl.org/dc/dcmitype/StillImage" />
      </cc:Work>
    </rdf:RDF>
  </metadata>
  <defs
     id="defs226">
    <linearGradient
       id="linearGradient7839"
       inkscape:collect="always">
      <stop
         id="stop7835"
         offset="0"
         style="stop-color:#285da4;stop-opacity:1;" />
      <stop
         id="stop7837"
         offset="1"
         style="stop-color:#1f4980;stop-opacity:1" />
    </linearGradient>
    <linearGradient
       gradientTransform="translate(0,-32)"
       gradientUnits="userSpaceOnUse"
       y2="16"
       x2="30"
       y1="16"
       x1="2"
       id="linearGradient7841"
       xlink:href="#linearGradient7839"
       inkscape:collect="always" />
    <filter
       inkscape:collect="always"
       style="color-interpolation-filters:sRGB"
       id="filter60684"
       x="-0.075"
       width="1.15"
       y="-0.075"
       height="1.15">
      <feGaussianBlur
         inkscape:collect="always"
         stdDeviation="0.875"
         id="feGaussianBlur60686" />
    </filter>
  </defs>
  <sodipodi:namedview
     inkscape:current-layer="svg222"
     inkscape:window-maximized="1"
     inkscape:window-y="0"
     inkscape:window-x="0"
     inkscape:cy="16"
     inkscape:cx="13.900262"
     inkscape:zoom="23.8125"
     showgrid="false"
     id="namedview224"
     inkscape:window-height="1000"
     inkscape:window-width="1920"
     inkscape:pageshadow="2"
     inkscape:pageopacity="0"
     guidetolerance="10"
     gridtolerance="10"
     objecttolerance="10"
     borderopacity="1"
     bordercolor="#666666"
     pagecolor="#ffffff"
     inkscape:document-rotation="0" />
  <circle
     id="circle212"
     r="14"
     cy="16"
     cx="16"
     style="opacity:0.5;filter:url(#filter60684)" />
  <circle
     transform="rotate(90)"
     id="circle214"
     r="14"
     cy="-16"
     cx="16"
     style="fill:url(#linearGradient7841);fill-opacity:1" />
  <path
     id="path218"
     d="M 3.7510518,9.9497582 C 3.7000115,10.04977 3.6489711,10.149092 3.6,10.249103 c 0.7759509,0.431085 3.0120691,1.554662 4.0735699,2.220255 1.3415329,0.821474 3.1548441,2.497527 3.2976181,2.779629 -1.395332,2.429933 -0.762155,4.580524 -0.927002,4.809516 -0.118634,0.191057 -1.2153114,1.395332 -0.8621675,1.573283 0.3503845,0.175193 0.9076905,-0.100011 0.9918375,-0.15381 0.175193,-0.107598 0.355903,-0.264169 0.280033,0.04552 -0.148293,0.633176 -0.821474,2.15542 0.107598,1.831934 0.113116,-0.06484 1.60846,-1.713299 1.789171,-1.769857 2.974823,0.77595 6.3021,0.420048 6.918032,0.131739 0.320727,0.02138 1.228417,0.592482 1.745718,0.864927 0.517301,0.269685 1.926428,0.945625 1.509138,-0.282791 -0.12967,-0.388321 -1.055983,-1.379468 -0.905621,-1.444304 0.331073,-0.131739 1.150477,0.342108 1.465685,0.431084 0.942867,0.264168 1.069778,-0.102081 0.474537,-0.90769 -0.587653,-0.80561 -0.675939,-0.681457 -0.862167,-1.053224 -0.145535,-0.299345 0,-0.630417 0.107598,-0.711116 0.191057,-0.145534 3.006551,-1.708472 3.666627,-2.306472 0.978043,-0.889066 0,-1.998849 -0.240028,-2.155418 -2.028508,-1.460167 -4.111505,-1.147718 -4.138404,-1.379469 -0.0138,-0.264167 -0.0082,-1.026324 -0.04346,-1.290493 -0.202093,-1.7891709 -1.029084,-1.338774 -1.1422,-1.338774 -0.826992,0.12967 -0.522819,1.395333 -0.172434,2.586504 0.0269,0.304173 -0.288309,0.169675 -0.474537,-0.151052 -0.635935,-1.705713 -0.902862,-1.676054 -1.078055,-1.727095 -0.169674,-0.03794 -0.767673,0.326245 -0.757327,1.015979 0.0028,0.196574 0.237268,1.134613 0.237268,1.422922 -0.39039,0.342108 -0.409702,1.118059 -0.819404,1.40085 -1.19324,0.247614 -4.060465,-0.589723 -4.418437,-0.627659 -1.239453,-0.23175 -1.780894,0.698012 -1.980227,0.474538 C 9.834507,12.695591 7.3769842,11.327159 6.3127244,11.08989 5.9002634,11.000914 4.5076901,10.38636 4.0062534,10.076669 3.9255545,10.028388 3.8338199,9.9932115 3.7448441,9.9469993 M 25.864618,11.563737 c -0.38832,0.41729 -0.320726,1.977468 -0.240027,1.964363 0.395908,-0.0807 0.358662,-2.089894 0.240027,-1.964363 m 1.123578,0.237269 c -0.04552,-0.126911 -1.067019,1.307046 -0.886309,1.834693 0.0807,0.228991 1.023565,-1.433268 0.886309,-1.834693 m -5.304746,2.43821 c 0.0138,-0.0138 0.02966,0.0056 0.04552,0.02138 0.118634,0.393149 0.250372,0.767674 1.031842,0.862167 0.09174,0.01104 -0.433844,0.317968 -0.794574,0.129671 -0.329004,-0.199334 -0.358662,-0.924244 -0.282791,-1.01322 m 2.026439,1.980227 c 0.07242,-0.01104 0.124152,-0.0082 0.175193,0 0.191056,0.04828 -1.386366,0.870444 -1.509139,0.757328 -0.07518,-0.07242 0.840786,-0.665593 1.336704,-0.757328 m 0.409703,0.520059 c 0.164157,0.0138 -0.913208,1.129095 -1.034602,1.013219 -0.08898,-0.0807 0.698012,-1.040118 1.034602,-1.013219"
     style="fill:#f9f9f9" />
</svg>
