<?xml version="1.0" encoding="UTF-8" standalone="no"?>
<svg
   xmlns:dc="http://purl.org/dc/elements/1.1/"
   xmlns:cc="http://creativecommons.org/ns#"
   xmlns:rdf="http://www.w3.org/1999/02/22-rdf-syntax-ns#"
   xmlns:svg="http://www.w3.org/2000/svg"
   xmlns="http://www.w3.org/2000/svg"
   xmlns:sodipodi="http://sodipodi.sourceforge.net/DTD/sodipodi-0.dtd"
   xmlns:inkscape="http://www.inkscape.org/namespaces/inkscape"
   inkscape:version="1.0.1 (3bc2e813f5, 2020-09-07)"
   sodipodi:docname="devhelp.svg"
   id="svg28"
   version="1"
   height="32"
   width="32">
  <metadata
     id="metadata34">
    <rdf:RDF>
      <cc:Work
         rdf:about="">
        <dc:format>image/svg+xml</dc:format>
        <dc:type
           rdf:resource="http://purl.org/dc/dcmitype/StillImage" />
      </cc:Work>
    </rdf:RDF>
  </metadata>
  <defs
     id="defs32">
    <filter
       inkscape:collect="always"
       style="color-interpolation-filters:sRGB"
       id="filter60672"
       x="-0.085227273"
       width="1.1704545"
       y="-0.066964286"
       height="1.1339286">
      <feGaussianBlur
         inkscape:collect="always"
         stdDeviation="0.78125"
         id="feGaussianBlur60674" />
    </filter>
  </defs>
  <sodipodi:namedview
     inkscape:current-layer="svg28"
     inkscape:window-maximized="1"
     inkscape:window-y="0"
     inkscape:window-x="0"
     inkscape:cy="4.6099799"
     inkscape:cx="8.0312929"
     inkscape:zoom="12.1875"
     showgrid="false"
     id="namedview30"
     inkscape:window-height="1000"
     inkscape:window-width="1920"
     inkscape:pageshadow="2"
     inkscape:pageopacity="0"
     guidetolerance="10"
     gridtolerance="10"
     objecttolerance="10"
     borderopacity="1"
     bordercolor="#666666"
     pagecolor="#ffffff"
     inkscape:document-rotation="0" />
  <path
     style="opacity:0.5;filter:url(#filter60672)"
     d="M 5.4,2 C 4.6244,2 3.999609,2.6247901 3.999609,3.4003901 V 28.601562 C 3.999609,29.377562 4.6244,30 5.4,30 h 2.599609 0.185547 16.414063 c 0.775999,0 1.40039,-0.622438 1.40039,-1.398438 V 3.4003901 C 25.999609,2.6247901 25.375218,2 24.599219,2 H 15.284765 8.185156 7.999609 Z"
     id="path2-3" />
  <path
     id="path2"
     d="m5.4 2c-0.7756 0-1.4 0.6244-1.4 1.4v25.2c0 0.776 0.6244 1.4 1.4 1.4h2.785l2.1-14-2.1-14z"
     fill="#4f4f4f" />
  <path
     id="path4"
     d="m18.714 5h8.5714c0.396 0 0.715 0.2973 0.715 0.6667v6.6667c0 0.37-0.319 0.667-0.714 0.667h-8.5714c-0.396 0-0.715-0.297-0.715-0.667v-6.6663c0-0.3694 0.319-0.6667 0.714-0.6667z"
     fill="#4bae4f" />
  <path
     id="path6"
     d="m18.714 12h8.5714c0.396 0 0.715 0.297 0.715 0.667v6.6667c0 0.369-0.319 0.666-0.714 0.666h-8.5714c-0.396 0-0.715-0.297-0.715-0.667v-6.6667c0-0.369 0.319-0.666 0.714-0.666z"
     fill="#2095f2" />
  <path
     id="path8"
     d="m18.714 19h8.5714c0.396 0 0.715 0.297 0.715 0.667v6.6667c0 0.369-0.319 0.666-0.714 0.666h-8.5714c-0.396 0-0.715-0.297-0.715-0.667v-6.6667c0-0.369 0.319-0.666 0.714-0.666z"
     fill="#fec006" />
  <path
     id="path18"
     d="m8 2v28h16.6c0.776 0 1.4-0.624 1.4-1.4v-25.2c0-0.7756-0.624-1.4-1.4-1.4h-9.315z"
     fill="#f34235" />
  <path
     id="path22"
     d="m12 10.002v11.998h3.556c6.222 0 6.444-3.777 6.444-5.999s-0.223-6.1087-6.444-5.999zm3.5556 2.6662c2.6667 0 3.4444 0.66654 3.4444 3.3327s-0.77777 3.3327-3.4444 3.3327h-0.55555v-6.6654z"
     fill="#f9f9f9" />
</svg>
