<?xml version="1.0" encoding="UTF-8" standalone="no"?>
<svg
   xmlns:dc="http://purl.org/dc/elements/1.1/"
   xmlns:cc="http://creativecommons.org/ns#"
   xmlns:rdf="http://www.w3.org/1999/02/22-rdf-syntax-ns#"
   xmlns:svg="http://www.w3.org/2000/svg"
   xmlns="http://www.w3.org/2000/svg"
   xmlns:sodipodi="http://sodipodi.sourceforge.net/DTD/sodipodi-0.dtd"
   xmlns:inkscape="http://www.inkscape.org/namespaces/inkscape"
   inkscape:version="1.0.1 (3bc2e813f5, 2020-09-07)"
   sodipodi:docname="diodon.svg"
   id="svg30"
   version="1.1"
   height="32"
   width="32">
  <metadata
     id="metadata36">
    <rdf:RDF>
      <cc:Work
         rdf:about="">
        <dc:format>image/svg+xml</dc:format>
        <dc:type
           rdf:resource="http://purl.org/dc/dcmitype/StillImage" />
        <dc:title />
      </cc:Work>
    </rdf:RDF>
  </metadata>
  <defs
     id="defs34">
    <filter
       height="1.198"
       y="-0.099"
       width="1.2376"
       x="-0.1188"
       id="filter963"
       style="color-interpolation-filters:sRGB"
       inkscape:collect="always">
      <feGaussianBlur
         id="feGaussianBlur965"
         stdDeviation="0.99"
         inkscape:collect="always" />
    </filter>
    <filter
       inkscape:collect="always"
       style="color-interpolation-filters:sRGB"
       id="filter60668"
       x="-0.08125"
       width="1.1625"
       y="-0.069642857"
       height="1.1392857">
      <feGaussianBlur
         inkscape:collect="always"
         stdDeviation="0.8125"
         id="feGaussianBlur60670" />
    </filter>
  </defs>
  <sodipodi:namedview
     inkscape:current-layer="svg30"
     inkscape:window-maximized="1"
     inkscape:window-y="0"
     inkscape:window-x="0"
     inkscape:cy="17.733297"
     inkscape:cx="16.097711"
     inkscape:zoom="20.802202"
     showgrid="false"
     id="namedview32"
     inkscape:window-height="1000"
     inkscape:window-width="1920"
     inkscape:pageshadow="2"
     inkscape:pageopacity="0"
     guidetolerance="10"
     gridtolerance="10"
     objecttolerance="10"
     borderopacity="1"
     bordercolor="#666666"
     pagecolor="#ffffff"
     inkscape:document-rotation="0" />
  <rect
     ry="1.8867359"
     rx="1.8867359"
     style="opacity:0.5;fill:#000000;fill-opacity:1;stroke-width:1.26012;filter:url(#filter60668)"
     id="rect916-4"
     width="24"
     height="28"
     x="4"
     y="2" />
  <rect
     ry="1.5346619"
     rx="1.5346619"
     y="2"
     x="4"
     height="28"
     width="24"
     id="rect916"
     style="opacity:1;fill:#ce7224;fill-opacity:1;stroke-width:1.26012" />
  <rect
     y="5"
     x="6"
     height="24"
     width="20"
     id="rect916-2-2"
     style="opacity:0.5;fill:#000000;fill-opacity:1;stroke-width:1.065;filter:url(#filter963)" />
  <rect
     style="opacity:1;fill:#ffffff;fill-opacity:1;stroke-width:1.065"
     id="rect916-2"
     width="20"
     height="24"
     x="6"
     y="4" />
  <rect
     style="opacity:1;fill:#727272;fill-opacity:1;stroke-width:0.336782"
     id="rect916-8"
     width="8"
     height="6"
     x="12"
     y="0" />
  <path
     inkscape:connector-curvature="0"
     style="opacity:0.4;fill:none;stroke:#000000;stroke-width:0.483432px;stroke-linecap:butt;stroke-linejoin:miter;stroke-opacity:1"
     id="path3475"
     d="m 8.0000001,6.2417159 h 1.507539 z m 1.7286436,0 h 1.4070353 z m 1.6281413,0 h 1.24623 z m 1.447236,0 h 0.542714 z m 0.76382,0 h 1.206029 z m 1.447235,0 h 3.17588 z m 3.376884,0 h 2.432161 z m 2.633167,0 h 0.743719 z M 8.0000001,7.7054581 h 2.3517589 z m 2.6130669,0 h 1.125626 z m 1.326633,0 h 0.562814 z m 0.78392,0 h 1.025125 z m 1.246229,0 h 1.045227 z m 1.246233,0 h 1.668341 z m 1.889445,0 h 2.170856 z m 2.37186,0 h 1.447237 z m 1.648242,0 h 0.36181 z M 8.0000001,9.158979 h 1.9899507 z m 2.1909549,0 h 3.256282 z m 3.457287,0 h 1.58794 z m 1.788945,0 h 1.487437 z m 1.688443,0 h 1.26633 z m 1.467334,0 1.989952,0.020447 z m 2.170855,0.020447 H 24 Z M 8.0000001,10.632945 h 2.7537709 z m 2.9748769,0 h 2.974873 z m 3.175878,0 h 1.18593 z m 1.386934,0 h 2.79397 z m 2.974874,0 h 1.909549 z m 2.130654,0 h 0.763818 z m 0.964823,0 h 0.422111 z m 0.643217,0 h 1.18593 z M 8.0000001,12.096689 h 1.0251253 z m 1.3467341,0 H 13.14573 Z m -1.3467341,2.439572 h 1.507539 z m 1.7286436,0 h 1.3869353 z m 1.6281413,0 h 1.24623 z m 1.447236,0 h 0.542714 z m 0.76382,0 h 1.206029 z m 1.447235,0 h 3.155778 z m 3.376884,0 h 2.412061 z m 2.613065,0 h 0.763821 z m 0.964825,0 h 1.809045 z M 8.0000001,16.000002 h 2.5326649 z m 2.7336699,0 h 2.713567 z m 2.914572,0 h 1.045227 z m 1.246232,0 h 2.552764 z m 2.753768,0 h 3.216081 z m 3.437185,0 h 1.18593 z M 8.0000001,17.463743 h 2.7537709 z m 2.9748769,0 h 2.974873 z m 3.175878,0 h 1.18593 z m 1.386934,0 h 2.79397 z m 2.974874,0 h 1.909549 z m 2.130654,0 h 0.763818 z m 0.964823,0 h 0.422111 z m 0.643217,0 h 1.18593 z M 8.0000001,18.927486 h 2.3517589 z m 2.6130669,0 h 1.125626 z m 1.326633,0 h 0.562814 z m 0.78392,0 h 1.025125 z m 1.246229,0 h 1.045227 z m 1.246233,0 h 1.668341 z m 1.889445,0 h 2.170856 z m 2.37186,0 h 1.447237 z m 1.648242,0 h 0.36181 z M 8.0000001,21.356837 h 1.9899507 z m 2.1909549,0 h 3.256282 z m 3.457287,0 h 1.58794 z m 1.788945,0 h 1.487437 z m 1.688443,0 h 1.26633 z m 1.467334,0 1.989952,0.02045 z m 2.170855,0.02045 H 24 Z M 8.0000001,22.830798 h 2.3517589 z m 2.6130669,0 h 1.125626 z m 1.326633,0 h 0.562814 z m 0.78392,0 h 1.025125 z m 1.246229,0 h 1.045227 z m 1.246233,0 h 1.668341 z m 1.889445,0 h 2.170856 z m 2.37186,0 h 1.447237 z m 1.648242,0 h 0.36181 z M 8.0000001,24.294541 h 2.4924639 z m 2.7135689,0 h 0.78392 z m 0.984924,0 h 1.788945 z m 1.98995,0 h 2.633166 z m 2.85427,0 h 1.788946 z m 1.96985,0 h 0.38191 z m 0.582915,0 h 2.271357 z m 2.512562,0 h 1.18593 z M 8.0000001,25.758284 h 2.4924639 z m 2.7135689,0 h 1.125628 z m 1.326633,0 h 1.768844 z m 1.96985,0 h 1.909547 z m 2.130652,0 h 0.763819 z m 0.964823,0 h 0.422112 z m 0.643217,0 h 1.185932 z" />
</svg>
