<?xml version="1.0" encoding="UTF-8" standalone="no"?>
<svg
   xmlns:dc="http://purl.org/dc/elements/1.1/"
   xmlns:cc="http://creativecommons.org/ns#"
   xmlns:rdf="http://www.w3.org/1999/02/22-rdf-syntax-ns#"
   xmlns:svg="http://www.w3.org/2000/svg"
   xmlns="http://www.w3.org/2000/svg"
   xmlns:sodipodi="http://sodipodi.sourceforge.net/DTD/sodipodi-0.dtd"
   xmlns:inkscape="http://www.inkscape.org/namespaces/inkscape"
   width="32"
   height="32"
   version="1"
   id="svg26"
   sodipodi:docname="distributor-logo-solus.svg"
   inkscape:version="1.0.1 (3bc2e813f5, 2020-09-07)">
  <metadata
     id="metadata32">
    <rdf:RDF>
      <cc:Work
         rdf:about="">
        <dc:format>image/svg+xml</dc:format>
        <dc:type
           rdf:resource="http://purl.org/dc/dcmitype/StillImage" />
      </cc:Work>
    </rdf:RDF>
  </metadata>
  <defs
     id="defs30">
    <filter
       inkscape:collect="always"
       style="color-interpolation-filters:sRGB"
       id="filter857"
       x="-0.075"
       width="1.15"
       y="-0.075"
       height="1.15">
      <feGaussianBlur
         inkscape:collect="always"
         stdDeviation="0.90234375"
         id="feGaussianBlur859" />
    </filter>
  </defs>
  <sodipodi:namedview
     pagecolor="#ffffff"
     bordercolor="#666666"
     borderopacity="1"
     objecttolerance="10"
     gridtolerance="10"
     guidetolerance="10"
     inkscape:pageopacity="0"
     inkscape:pageshadow="2"
     inkscape:window-width="1920"
     inkscape:window-height="1000"
     id="namedview28"
     showgrid="false"
     inkscape:zoom="20.84375"
     inkscape:cx="16"
     inkscape:cy="16"
     inkscape:window-x="0"
     inkscape:window-y="0"
     inkscape:window-maximized="1"
     inkscape:current-layer="svg26" />
  <path
     style="opacity:0.5;filter:url(#filter857)"
     d="M 10.96875,1.5625 C 10.751359,2.272606 10.517493,2.9766212 10.279297,3.6796875 A 13.999998,13.999998 0 0 0 2,16.4375 13.999998,13.999998 0 0 0 2.6230469,20.519531 C 2.4876742,20.762691 2.3554009,21.007718 2.21875,21.25 L 2,21.6875 2.3378906,21.861328 c 0.226862,0.105325 0.5318867,0.185067 0.8886719,0.263672 A 13.999998,13.999998 0 0 0 16,30.4375 13.999998,13.999998 0 0 0 29.697266,19.308594 C 30.087679,18.78136 30.402767,18.248172 30.65625,17.75 L 30.875,17.3125 30.4375,16.875 C 30.300157,16.730364 30.150689,16.593795 29.998047,16.458984 A 13.999998,13.999998 0 0 0 30,16.4375 13.999998,13.999998 0 0 0 16,2.4375 13.999998,13.999998 0 0 0 12.125,2.9902344 C 11.583804,2.1974805 11.143551,1.6146235 10.96875,1.5625 Z"
     id="path2" />
  <path
     style="fill:#4c5263"
     d="m 29.999998,16.000002 c 0,1.329372 -0.185285,2.615468 -0.53144,3.833872 -1.667173,5.868166 -6.95719,5.870332 -13.359804,5.870332 -4.781879,0 -9.1125633,1.898369 -11.6381503,-1.760085 C 2.9124816,21.687094 2.0000019,18.950109 2.0000019,16.000002 2.0000019,8.2680165 8.2680145,2.0000037 16,2.0000038 c 7.731985,0 13.999998,6.2680127 13.999998,13.9999982 z"
     id="path4" />
  <path
     style="fill:#4c5263;fill-rule:evenodd"
     d="M 10.968751,1.1249962 C 8.8620184,8.0066091 5.7477733,14.555557 2.2187494,20.812503 L 2,21.250002 2.3372181,21.423777 c 0.2960406,0.137442 0.6857707,0.229864 1.2133781,0.335389 0.5276095,0.105523 1.1766256,0.210699 1.9059448,0.31489 1.4586425,0.208359 3.2371062,0.412037 4.962464,0.591302 3.450718,0.358511 6.689818,0.619938 6.689818,0.619938 l 0.551147,0.04443 -0.04229,-0.551578 c 0,0 -0.854645,-11.119037 -1.014283,-12.9459777 l -0.0086,-0.098694 -0.04786,-0.087158 c -1.01139,-1.6152298 -4.9402,-8.3310867 -5.578183,-8.5213249 z m 0.437499,1.96875 c 1.493629,2.6275944 2.783982,4.1173931 4.375,6.9999998 0.158748,1.837087 0.783775,11.322244 0.851196,12.198623 C 16.160478,22.253794 13.668853,22.053362 10.516417,21.72585 8.7978263,21.547283 7.0276841,21.344568 5.5902688,21.139228 4.8715637,21.036569 4.235734,20.932837 3.7360218,20.83289 3.4894666,20.783583 3.4840494,20.640215 3.3124996,20.593753 5.8899499,16.039693 9.9841186,8.8976823 11.40625,3.0937462 Z"
     id="path6" />
  <path
     style="fill:#4c5263;fill-rule:evenodd"
     d="m 18.40625,11.406245 -0.225036,0.984271 c 2.198128,1.470312 4.292926,2.754035 5.653319,4.11908 1.360391,1.365049 1.997878,2.708394 1.480835,4.58947 l -0.240966,0.877996 0.856626,-0.30846 c 2.676513,-0.963024 3.948263,-2.829148 4.725221,-4.356108 l 0.218751,-0.437498 -0.4375,-0.4375 c -1.304433,-1.37369 -3.319289,-2.28419 -5.657043,-3.113019 -2.337758,-0.82883 -4.883862,-1.558854 -6.374207,-1.918232 z m 2.611021,1.739217 c 1.087931,0.298992 2.273123,0.65305 3.44745,1.069396 2.130761,0.755443 4.148076,1.726804 5.288023,2.776673 -0.651813,1.20201 -1.64588,2.588381 -3.360717,3.450015 0.183859,-1.798539 -0.608632,-3.314279 -1.888428,-4.598454 -0.944669,-0.947901 -2.178298,-1.821104 -3.486328,-2.69763 z"
     id="path8" />
  <circle
     style="fill:#500000;fill-opacity:0"
     cx="16.016"
     cy="15.984"
     r="14.016"
     id="circle10" />
  <path
     style="fill:#5294e2"
     d="m 29.097331,20.600349 c -2.826664,2.005062 -6.165122,3.221835 -9.578401,3.746048 -4.757318,0.671302 -9.6031121,0.504611 -14.377171,0.139453 -0.035026,0.08274 -0.057858,0.163594 -0.083396,0.244722 a 13.999998,13.999998 0 0 0 10.803385,5.262242 c 0.120816,-3.92e-4 0.243595,0.0013 0.362299,-0.0014 a 13.999998,13.999998 0 0 0 0.404685,-0.01366 c 0.191657,-0.0088 0.377783,-0.02188 0.561907,-0.03691 a 13.999998,13.999998 0 0 0 1.034948,-0.125781 c 0.06573,-0.01094 0.13829,-0.0181 0.202342,-0.03008 A 13.999998,13.999998 0 0 0 29.15612,20.734342 c -0.02087,-0.04468 -0.03587,-0.08918 -0.05879,-0.133983 z"
     id="path12" />
  <path
     style="fill:#ffffff;fill-rule:evenodd"
     d="m 16.874999,10.531246 c 2.108427,4.343373 2.110335,8.640435 0.875,11.812507 1.739452,0.01051 4.577933,0.205558 7.65625,-1.3125 -2.530125,-5.777114 -8.531251,-10.500007 -8.53125,-10.500007 z"
     id="path16" />
  <path
     style="fill:#ffffff;fill-rule:evenodd"
     d="M 11.40625,3.0937462 C 9.9840568,8.8976451 5.8899107,16.039756 3.3124996,20.593753 l 2.2781984,0.545913 c 1.437413,0.205339 3.2075546,0.408055 4.926147,0.5866 3.152216,0.327512 5.667122,0.578878 6.139405,0.617487 -0.06746,-0.876947 -0.716219,-10.412475 -0.875,-12.250007 -1.591018,-2.8826067 -2.881371,-4.3724054 -4.375,-6.9999998 z"
     id="path18" />
  <path
     style="fill:#ffffff;fill-rule:evenodd"
     d="m 21.03125,13.156247 c 1.308409,0.876755 2.555092,1.676858 3.500001,2.624999 1.279702,1.284084 1.933705,3.014129 1.749999,4.812507 1.714637,-0.861548 2.848179,-2.298089 3.5,-3.500005 -1.139998,-1.049786 -3.119384,-2.088361 -5.249999,-2.843752 -1.174819,-0.41652 -2.411708,-0.794679 -3.500001,-1.093749 z"
     id="path20" />
  <path
     style="fill:#ffffff;fill-rule:evenodd"
     d="M 29.615234 19.191406 C 27.463354 21.64404 23.667758 22.992533 19.402344 23.607422 C 14.719381 24.282489 9.1624461 24.087952 4.3027344 23.681641 A 13.999998 13.999998 0 0 0 5.0234375 24.689453 C 9.7070481 25.053519 14.988065 25.199007 19.539062 24.542969 C 23.168053 24.019828 26.647613 22.980945 29.021484 21.101562 A 13.999998 13.999998 0 0 0 29.615234 19.191406 z"
     id="path22" />
</svg>
