<?xml version="1.0" encoding="UTF-8" standalone="no"?>
<svg
   xmlns:dc="http://purl.org/dc/elements/1.1/"
   xmlns:cc="http://creativecommons.org/ns#"
   xmlns:rdf="http://www.w3.org/1999/02/22-rdf-syntax-ns#"
   xmlns:svg="http://www.w3.org/2000/svg"
   xmlns="http://www.w3.org/2000/svg"
   xmlns:sodipodi="http://sodipodi.sourceforge.net/DTD/sodipodi-0.dtd"
   xmlns:inkscape="http://www.inkscape.org/namespaces/inkscape"
   width="32"
   height="32"
   version="1.1"
   id="svg12"
   sodipodi:docname="distributor-logo-rhel.svg"
   inkscape:version="1.0.1 (3bc2e813f5, 2020-09-07)">
  <metadata
     id="metadata18">
    <rdf:RDF>
      <cc:Work
         rdf:about="">
        <dc:format>image/svg+xml</dc:format>
        <dc:type
           rdf:resource="http://purl.org/dc/dcmitype/StillImage" />
      </cc:Work>
    </rdf:RDF>
  </metadata>
  <defs
     id="defs16">
    <filter
       inkscape:collect="always"
       style="color-interpolation-filters:sRGB"
       id="filter843"
       x="-0.065"
       width="1.13"
       y="-0.088636364"
       height="1.1772727">
      <feGaussianBlur
         inkscape:collect="always"
         stdDeviation="0.8125"
         id="feGaussianBlur845" />
    </filter>
  </defs>
  <sodipodi:namedview
     pagecolor="#ffffff"
     bordercolor="#666666"
     borderopacity="1"
     objecttolerance="10"
     gridtolerance="10"
     guidetolerance="10"
     inkscape:pageopacity="0"
     inkscape:pageshadow="2"
     inkscape:window-width="1920"
     inkscape:window-height="1000"
     id="namedview14"
     showgrid="false"
     inkscape:zoom="20.84375"
     inkscape:cx="16"
     inkscape:cy="16"
     inkscape:window-x="0"
     inkscape:window-y="0"
     inkscape:window-maximized="1"
     inkscape:current-layer="svg12" />
  <path
     style="opacity:0.5;filter:url(#filter843)"
     d="m 16.282315,5 c -0.907604,0 -1.177318,1.141448 -2.281161,1.141448 -1.054783,0 -1.840628,-0.856086 -2.821821,-0.856086 -0.956665,0 -1.5687327,0.617602 -2.0348025,1.901984 0,0 -1.3250945,3.615129 -1.4968036,4.138397 -0.024532,0.09514 -0.6131257,1.308428 -0.5886007,1.403568 C 4.434432,12.848235 1,13.323672 1,16.249207 1,21.053745 12.749771,27 22.071112,27 29.209295,27 31,23.861389 31,21.41155 31,19.437409 29.257896,17.249312 26.118075,15.917361 L 25.774503,14.489259 24.597301,9.542552 C 24.327472,8.448449 24.107302,7.948928 22.120383,6.997534 20.599535,6.236421 17.26351,5 16.282315,5 Z"
     id="path2" />
  <path
     style="fill:#f42c13;fill-opacity:1"
     d="m 16.282315,5 c -0.907604,0 -1.177318,1.1414485 -2.281161,1.1414485 -1.054783,0 -1.840628,-0.8560865 -2.821821,-0.8560863 -0.956665,0 -1.5687323,0.6176018 -2.0348021,1.9019838 0,0 -1.3250945,3.615129 -1.4968036,4.138397 -0.024532,0.09514 -0.6131257,1.308428 -0.5886007,1.403568 C 4.4344321,12.848235 1,13.323672 1,16.249207 1,21.053745 12.749771,27 22.071112,27 29.209295,27 31,23.861389 31,21.41155 31,19.437409 29.257896,17.249312 26.118075,15.917361 L 25.774503,14.489259 24.597301,9.542552 C 24.327472,8.4484493 24.107302,7.9489286 22.120383,6.9975346 20.599535,6.2364215 17.26351,5 16.282315,5 Z"
     id="path4" />
  <path
     style="fill:#000000;fill-opacity:1;opacity:0.5"
     d="m 26.14953,16.083129 c 0.269828,1.271191 0.269828,1.391114 0.269828,1.559008 C 26.419358,19.800763 23.910875,21 20.648406,21 13.289452,21 6.7452653,16.778686 6.7452653,13.996457 c 0,-0.383756 0.07359,-0.767512 0.245299,-1.127283 l 0.5887159,-1.391115 c -0.024532,0.09594 -0.049057,0.191878 -0.024532,0.287817 0,1.4151 5.7837618,6.068139 13.4616028,6.068139 1.962388,0 4.863349,-0.407741 4.863349,-2.686291 0,-0.167893 0,-0.359771 -0.04906,-0.527664 z"
     id="path10" />
</svg>
