<?xml version="1.0" encoding="UTF-8" standalone="no"?>
<svg
   xmlns:dc="http://purl.org/dc/elements/1.1/"
   xmlns:cc="http://creativecommons.org/ns#"
   xmlns:rdf="http://www.w3.org/1999/02/22-rdf-syntax-ns#"
   xmlns:svg="http://www.w3.org/2000/svg"
   xmlns="http://www.w3.org/2000/svg"
   xmlns:sodipodi="http://sodipodi.sourceforge.net/DTD/sodipodi-0.dtd"
   xmlns:inkscape="http://www.inkscape.org/namespaces/inkscape"
   inkscape:version="1.0.1 (3bc2e813f5, 2020-09-07)"
   sodipodi:docname="distributor-logo-manjaro.svg"
   id="svg138"
   version="1"
   height="32"
   width="32">
  <metadata
     id="metadata144">
    <rdf:RDF>
      <cc:Work
         rdf:about="">
        <dc:format>image/svg+xml</dc:format>
        <dc:type
           rdf:resource="http://purl.org/dc/dcmitype/StillImage" />
      </cc:Work>
    </rdf:RDF>
  </metadata>
  <defs
     id="defs142">
    <filter
       inkscape:collect="always"
       style="color-interpolation-filters:sRGB"
       id="filter59638"
       x="-0.075000001"
       width="1.15"
       y="-0.074999999"
       height="1.15">
      <feGaussianBlur
         inkscape:collect="always"
         stdDeviation="0.87500001"
         id="feGaussianBlur59640" />
    </filter>
  </defs>
  <sodipodi:namedview
     inkscape:current-layer="svg138"
     inkscape:window-maximized="1"
     inkscape:window-y="0"
     inkscape:window-x="0"
     inkscape:cy="16"
     inkscape:cx="14.950131"
     inkscape:zoom="23.8125"
     showgrid="false"
     id="namedview140"
     inkscape:window-height="1000"
     inkscape:window-width="1920"
     inkscape:pageshadow="2"
     inkscape:pageopacity="0"
     guidetolerance="10"
     gridtolerance="10"
     objecttolerance="10"
     borderopacity="1"
     bordercolor="#666666"
     pagecolor="#ffffff"
     inkscape:document-rotation="0" />
  <path
     id="path132"
     d="m 3.4,2.0000006 c -0.7756,0 -1.4,0.6244 -1.4,1.4 V 28.600001 c 0,0.7756 0.6244,1.4 1.4,1.4 H 10 v -20 H 20 V 2.0000006 Z m 18.6,0 V 30.000001 h 6.6 c 0.7756,0 1.4,-0.6244 1.4,-1.4 V 3.4000006 c 0,-0.7756 -0.6244,-1.4 -1.4,-1.4 z M 12,12.000001 v 18 h 8 v -18 z"
     style="opacity:0.5;filter:url(#filter59638)" />
  <path
     id="path134"
     d="M 3.4,2 C 2.6244,2 2,2.6244 2,3.4 V 28.6 C 2,29.3756 2.6244,30 3.4,30 H 10 V 10 H 20 V 2 Z M 22,2 v 28 h 6.6 C 29.3756,30 30,29.3756 30,28.6 V 3.4 C 30,2.6244 29.3756,2 28.6,2 Z M 12,12 v 18 h 8 V 12 Z"
     style="fill:#16a085" />
</svg>
