<?xml version="1.0" encoding="UTF-8" standalone="no"?>
<svg
   xmlns:dc="http://purl.org/dc/elements/1.1/"
   xmlns:cc="http://creativecommons.org/ns#"
   xmlns:rdf="http://www.w3.org/1999/02/22-rdf-syntax-ns#"
   xmlns:svg="http://www.w3.org/2000/svg"
   xmlns="http://www.w3.org/2000/svg"
   xmlns:sodipodi="http://sodipodi.sourceforge.net/DTD/sodipodi-0.dtd"
   xmlns:inkscape="http://www.inkscape.org/namespaces/inkscape"
   inkscape:version="1.0.1 (3bc2e813f5, 2020-09-07)"
   sodipodi:docname="distributor-logo-archlinux.svg"
   id="svg8"
   version="1.1"
   height="32"
   width="32">
  <metadata
     id="metadata14">
    <rdf:RDF>
      <cc:Work
         rdf:about="">
        <dc:format>image/svg+xml</dc:format>
        <dc:type
           rdf:resource="http://purl.org/dc/dcmitype/StillImage" />
      </cc:Work>
    </rdf:RDF>
  </metadata>
  <defs
     id="defs12">
    <filter
       inkscape:collect="always"
       style="color-interpolation-filters:sRGB"
       id="filter59678"
       x="-0.075"
       width="1.15"
       y="-0.075"
       height="1.15">
      <feGaussianBlur
         inkscape:collect="always"
         stdDeviation="0.875"
         id="feGaussianBlur59680" />
    </filter>
  </defs>
  <sodipodi:namedview
     inkscape:current-layer="svg8"
     inkscape:window-maximized="1"
     inkscape:window-y="0"
     inkscape:window-x="0"
     inkscape:cy="16"
     inkscape:cx="14.950131"
     inkscape:zoom="23.8125"
     showgrid="false"
     id="namedview10"
     inkscape:window-height="1000"
     inkscape:window-width="1920"
     inkscape:pageshadow="2"
     inkscape:pageopacity="0"
     guidetolerance="10"
     gridtolerance="10"
     objecttolerance="10"
     borderopacity="1"
     bordercolor="#666666"
     pagecolor="#ffffff"
     inkscape:document-rotation="0" />
  <path
     id="path2"
     d="m 15.997589,2.0007004 c -1.246533,3.055461 -1.998346,5.054077 -3.386166,8.0183996 0.850882,0.901798 1.895353,1.951925 3.591588,3.13799 C 14.379421,12.40684 13.135548,11.653649 12.20597,10.872039 10.42985,14.577512 7.6470659,19.855727 2.0000003,30 6.4384109,27.438242 9.0286788,25.858852 12.235329,25.256159 c -0.13769,-0.592053 -0.21598,-1.232474 -0.210658,-1.900686 l 0.0049,-0.142168 C 12.099991,20.37036 14.460516,18.003839 16.18146,18 c 1.720944,-0.0038 3.894499,2.907393 3.824064,5.750338 -0.01323,0.535003 -0.07361,1.049567 -0.179047,1.526891 C 22.99812,25.897561 25.621663,27.472891 30,30 29.136655,28.41095 28.366079,26.978488 27.63023,25.614205 26.471075,24.715976 25.26207,23.54699 22.79589,22.281407 c 1.695113,0.440364 2.908809,0.948418 3.854841,1.516321 C 19.169014,9.8707014 18.563392,8.0199254 15.997371,2.0000004 Z"
     style="opacity:0.5;fill-rule:evenodd;filter:url(#filter59678)" />
  <path
     id="path4"
     d="m 15.997589,2.0007 c -1.246533,3.055461 -1.998346,5.054077 -3.386166,8.0184 0.850882,0.901798 1.895353,1.951925 3.591588,3.13799 C 14.379421,12.40684 13.135548,11.653649 12.20597,10.872039 10.42985,14.577512 7.6470659,19.855727 2.0000003,30 6.4384109,27.438242 9.0286788,25.858852 12.235329,25.256159 c -0.13769,-0.592053 -0.21598,-1.232474 -0.210658,-1.900686 l 0.0049,-0.142168 C 12.099991,20.37036 14.460516,18.003839 16.18146,18 c 1.720944,-0.0038 3.894499,2.907393 3.824064,5.750338 -0.01323,0.535003 -0.07361,1.049567 -0.179047,1.526891 C 22.99812,25.897561 25.621663,27.472891 30,30 29.136655,28.41095 28.366079,26.978488 27.63023,25.614205 26.471075,24.715976 25.26207,23.54699 22.79589,22.281407 c 1.695113,0.440364 2.908809,0.948418 3.854841,1.516321 C 19.169014,9.870701 18.563392,8.019925 15.997371,2 Z"
     style="fill:#1793d1;fill-rule:evenodd" />
  <path
     id="path6"
     d="M 15.998047 2 C 14.751514 5.055461 13.999148 7.0552083 12.611328 10.019531 C 12.707637 10.121604 12.817988 10.232036 12.919922 10.337891 C 14.104824 7.7501909 14.853917 5.8044542 15.998047 3 C 18.457436 8.7697648 19.272449 10.981318 25.910156 23.394531 C 26.174052 23.525078 26.421013 23.65918 26.650391 23.796875 C 19.168674 9.869848 18.564068 8.019925 15.998047 2 z M 12.205078 10.871094 C 10.428958 14.576567 7.6470656 19.855727 2 30 C 2.2969741 29.828593 2.5274295 29.697769 2.8085938 29.535156 C 7.8604179 20.43162 10.525337 15.375494 12.205078 11.871094 C 13.134656 12.652704 14.379535 13.406 16.203125 14.15625 C 14.832864 13.198117 13.895906 12.334726 13.134766 11.560547 C 12.796762 11.33302 12.480837 11.102958 12.205078 10.871094 z M 22.794922 23.28125 C 25.261102 24.546833 26.471704 25.715052 27.630859 26.613281 C 28.123573 27.526785 28.67552 28.549601 29.216797 29.550781 C 29.489026 29.708057 29.713377 29.834565 30 30 C 29.136655 28.41095 28.366708 26.977564 27.630859 25.613281 C 27.28849 25.347979 26.874364 25.018993 26.492188 24.710938 C 25.568328 24.178359 24.402207 23.698798 22.794922 23.28125 z M 12.052734 23.890625 C 12.043528 23.997704 12.031986 24.104317 12.029297 24.212891 L 12.025391 24.355469 C 12.022841 24.675573 12.041054 24.987881 12.074219 25.292969 C 12.128396 25.282157 12.179853 25.266107 12.234375 25.255859 C 12.134335 24.825698 12.080775 24.36396 12.052734 23.890625 z M 19.970703 24.25 C 19.941365 24.604613 19.898035 24.95201 19.826172 25.277344 C 19.873891 25.286677 19.919318 25.300781 19.966797 25.310547 C 19.98344 25.125542 20.001137 24.940978 20.005859 24.75 C 20.010003 24.582763 19.981541 24.417102 19.970703 24.25 z"
     style="fill:#ffffff;fill-rule:evenodd;opacity:0.2" />
</svg>
