<?xml version="1.0" encoding="UTF-8" standalone="no"?>
<svg
   xmlns:dc="http://purl.org/dc/elements/1.1/"
   xmlns:cc="http://creativecommons.org/ns#"
   xmlns:rdf="http://www.w3.org/1999/02/22-rdf-syntax-ns#"
   xmlns:svg="http://www.w3.org/2000/svg"
   xmlns="http://www.w3.org/2000/svg"
   xmlns:sodipodi="http://sodipodi.sourceforge.net/DTD/sodipodi-0.dtd"
   xmlns:inkscape="http://www.inkscape.org/namespaces/inkscape"
   width="32"
   height="32"
   version="1"
   id="svg22"
   sodipodi:docname="distributor-logo-puppy-linux.svg"
   inkscape:version="1.0.1 (3bc2e813f5, 2020-09-07)">
  <metadata
     id="metadata28">
    <rdf:RDF>
      <cc:Work
         rdf:about="">
        <dc:format>image/svg+xml</dc:format>
        <dc:type
           rdf:resource="http://purl.org/dc/dcmitype/StillImage" />
      </cc:Work>
    </rdf:RDF>
  </metadata>
  <defs
     id="defs26">
    <filter
       inkscape:collect="always"
       style="color-interpolation-filters:sRGB"
       id="filter957"
       x="-0.075056502"
       width="1.150113"
       y="-0.074943583"
       height="1.1498872">
      <feGaussianBlur
         inkscape:collect="always"
         stdDeviation="0.87434176"
         id="feGaussianBlur959" />
    </filter>
  </defs>
  <sodipodi:namedview
     pagecolor="#ffffff"
     bordercolor="#666666"
     borderopacity="1"
     objecttolerance="10"
     gridtolerance="10"
     guidetolerance="10"
     inkscape:pageopacity="0"
     inkscape:pageshadow="2"
     inkscape:window-width="1920"
     inkscape:window-height="1000"
     id="namedview24"
     showgrid="false"
     inkscape:zoom="14.738757"
     inkscape:cx="8.209152"
     inkscape:cy="16.982412"
     inkscape:window-x="0"
     inkscape:window-y="0"
     inkscape:window-maximized="1"
     inkscape:current-layer="svg22" />
  <path
     d="m 24.761905,2.0802795 c 1.628173,0.114666 3.130218,0.38985 3.795246,0.84849 0.34398,0.321048 0.596232,0.951675 0.710892,1.6854998 0.11466,0.6764915 0.103197,1.4447215 -0.02293,2.1441398 C 29.118988,7.4463692 28.866736,8.0770072 28.488357,8.5012414 28.22464,8.7993627 27.903591,8.9942874 27.502281,9.0630781 26.6194,9.2006702 26.114896,8.3407226 25.404004,7.1482584 24.773373,6.0819176 24.005151,4.7862568 22.709493,3.6396565 c -0.51597,-0.378371 -0.97461,0.01143 -0.699426,0.3095896 1.37592,1.1466006 2.155608,2.4651882 2.797705,3.5429871 0.848484,1.4332529 1.456181,2.4651983 2.797704,2.2473364 0.275183,-0.045916 0.527436,-0.137592 0.756756,-0.2637154 1.03194,1.9492258 1.616705,4.1736268 1.616705,6.5470898 0,3.864042 -1.559376,7.349707 -4.093361,9.883693 -2.522521,2.52252 -6.019652,4.093362 -9.872229,4.093362 -3.852576,0 -7.3497066,-1.559376 -9.8722269,-4.093362 -2.522521,-2.52252 -4.093363,-6.019651 -4.093363,-9.883693 0,-0.951679 0.09173,-1.868959 0.275185,-2.763307 -0.09173,-0.51597 -0.137593,-1.077806 -0.171991,-1.502051 -0.11466,-1.238328 -0.194922,-2.9582233 -0.05733,-4.4258716 0.103197,-1.2039328 0.34398,-2.212941 0.80262,-2.5225204 0.0344,-0.022958 0.05733,-0.045916 0.08026,-0.080301 0.149058,-0.1949247 1.020475,-0.7682304 2.361996,-1.1466005 0.676495,-0.194925 1.4561833,-0.321049 2.3161329,-0.321049 0.1949226,0 0.4013106,0.01143 0.6076986,0.02296 1.2039297,0.09173 2.4995884,1.1236739 3.3939364,2.3734602 0.366912,0.5159727 0.665028,1.0663408 0.85995,1.6052403 0.194923,0.5274413 0.28665,1.0319454 0.252252,1.4791169 C 12.734077,9.2121296 12.550614,9.613437 12.172235,9.8771525 11.518673,10.347261 10.589926,10.060608 9.5350543,9.7281023 7.8954166,9.2121296 5.9691281,8.6044289 3.9052481,10.163805 c -0.515971,0.366912 -0.156871,0.839904 0.152711,0.725239 1.926289,-1.6052408 3.7696689,-1.0106964 5.2946477,-0.529119 1.2268612,0.389839 2.2233972,0.725354 3.1636092,0.06038 0.550367,-0.401307 0.894505,-1.0768451 0.894505,-1.6186379 0,-0.5418033 -0.05754,-1.1368613 -0.275397,-1.7445515 C 12.917469,6.4608865 12.61941,5.841172 12.218099,5.2793457 11.667731,4.5111157 10.968305,3.8231555 10.223014,3.3301195 c 1.765765,-0.802615 3.726451,-1.249786 5.790331,-1.249786 1.043407,0 2.052415,0.114655 3.027025,0.332506 0.412776,-0.171987 0.963144,-0.240789 1.444716,-0.309579 0.550368,-0.04592 1.203931,-0.0803 1.914823,-0.0803 0.103196,-0.02296 0.194921,-0.02296 0.298116,-0.02296 0.676494,0 1.37592,0.02296 2.06388,0.0803 z"
     fill="url(#radialGradient-1)"
     id="path38-3"
     style="fill:#000000;fill-opacity:1;stroke-width:0.11466;filter:url(#filter957);opacity:0.5" />
  <path
     d="m 24.362124,2.721845 c 1.553125,0.10938 2.985937,0.37188 3.620312,0.80938 0.328125,0.30625 0.56875,0.90781 0.678125,1.60781 0.109375,0.64531 0.09844,1.37813 -0.02187,2.04531 -0.120312,0.65625 -0.360937,1.25782 -0.721875,1.6625 -0.251562,0.28438 -0.557812,0.47032 -0.940625,0.53594 -0.842187,0.13125 -1.323437,-0.68906 -2.001562,-1.82656 -0.601563,-1.01719 -1.334375,-2.25313 -2.570313,-3.34688 -0.492187,-0.36093 -0.929687,0.0109 -0.667187,0.29532 1.3125,1.09375 2.05625,2.35156 2.66875,3.37968 0.809375,1.36719 1.389062,2.35157 2.66875,2.14375 0.2625,-0.0438 0.503125,-0.13125 0.721875,-0.25156 0.984375,1.85938 1.542187,3.981252 1.542187,6.245315 0,3.685937 -1.4875,7.010937 -3.904687,9.428125 -2.40625,2.40625 -5.742188,3.904687 -9.417188,3.904687 -3.674999,0 -7.0109368,-1.4875 -9.4171868,-3.904687 -2.40625,-2.40625 -3.904687,-5.742188 -3.904687,-9.428125 0,-0.907813 0.0875,-1.782813 0.2625,-2.635938 -0.0875,-0.492187 -0.13125,-1.028127 -0.164063,-1.432817 -0.109375,-1.18125 -0.185937,-2.82187 -0.05469,-4.22187 0.09844,-1.14844 0.328125,-2.11094 0.765625,-2.40625 0.03281,-0.0219 0.05469,-0.0438 0.07656,-0.0766 0.142188,-0.18594 0.973438,-0.73282 2.253125,-1.09375 0.645313,-0.18594 1.389063,-0.30625 2.209375,-0.30625 0.185938,0 0.382813,0.0109 0.579688,0.0219 1.148437,0.0875 2.3843748,1.07188 3.2374998,2.26406 0.35,0.49219 0.634375,1.01719 0.820312,1.53125 0.185938,0.50313 0.273437,0.98438 0.240625,1.41094 -0.03281,0.44844 -0.207812,0.83125 -0.56875,1.08281 -0.623437,0.44844 -1.509375,0.175 -2.5156248,-0.14218 -1.564062,-0.49219 -3.401562,-1.07188 -5.370312,0.41562 -0.492188,0.35 -0.14964,0.80119 0.145673,0.69181 1.8375,-1.53125 3.595913,-0.96411 5.050601,-0.50473 1.1703118,0.37187 2.1209138,0.69192 3.0177888,0.0576 0.524999,-0.38281 0.853274,-1.02721 0.853274,-1.54403 0,-0.51683 -0.05489,-1.08446 -0.262703,-1.66414 -0.207813,-0.56875 -0.492134,-1.1599 -0.874947,-1.69583 -0.525,-0.73282 -1.192187,-1.38907 -1.903125,-1.85938 1.684375,-0.76562 3.554687,-1.19218 5.523437,-1.19218 0.995313,0 1.957813,0.10937 2.8875,0.31718 0.39375,-0.16406 0.91875,-0.22969 1.378125,-0.29531 0.525,-0.0438 1.148438,-0.0766 1.826563,-0.0766 0.09844,-0.0219 0.185937,-0.0219 0.284375,-0.0219 0.645312,0 1.3125,0.0219 1.96875,0.0766 z"
     fill="url(#radialGradient-1)"
     id="path38"
     style="fill:#ffffff;fill-opacity:1;stroke-width:0.109375" />
  <path
     d="m 22.327749,1.999975 c -1.4875,0 -2.821875,0.12031 -3.423438,0.29531 -0.03281,0.0109 -0.06562,0.0219 -0.09844,0.0438 -0.896875,-0.18594 -1.8375,-0.27344 -2.789063,-0.27344 -2.242187,0 -4.364062,0.525 -6.2453118,1.46563 -0.360937,-0.15313 -0.732812,-0.2625 -1.104687,-0.28438 -1.126563,-0.0875 -2.154688,0.0656 -3.01875,0.30625 -1.345313,0.38282 -2.296875,1.00625 -2.559375,1.27969 -0.601563,0.44844 -0.896875,1.56406 -1.017188,2.86563 -0.175,1.97968 0.03281,4.44062 0.196875,5.435935 0,0.04375 0.02187,0.07656 0.03281,0.109375 -0.185938,0.896875 -0.284375,1.8375 -0.284375,2.789062 0,3.860938 1.564062,7.35 4.101562,9.876563 2.5375,2.526562 6.0265628,4.090625 9.8874998,4.090625 3.860937,0 7.360937,-1.564063 9.8875,-4.090625 2.526562,-2.526563 4.101562,-6.015625 4.101562,-9.876563 0,-2.40625 -0.6125,-4.670312 -1.684375,-6.639062 l 0.0875,-0.0875 c 0.448438,-0.50313 0.732813,-1.21406 0.875,-1.97969 0.142188,-0.74375 0.142188,-1.55312 0.02187,-2.26406 -0.142187,-0.85313 -0.448437,-1.59688 -0.896875,-2.00156 -0.01094,-0.0109 -0.02188,-0.0219 -0.03281,-0.0219 -0.732813,-0.525 -2.296875,-0.82031 -3.970313,-0.94062 -0.678125,-0.0766 -1.389062,-0.0984 -2.067187,-0.0984 z m 0.06562,0.65625 c 0.645312,0 1.3125,0.0219 1.96875,0.0766 1.553125,0.10938 2.996875,0.37188 3.620312,0.80938 0.328125,0.30625 0.56875,0.90781 0.678125,1.60781 0.109375,0.64531 0.09844,1.37812 -0.02187,2.04531 -0.120312,0.65625 -0.360937,1.25781 -0.721875,1.6625 -0.251562,0.28438 -0.557812,0.47031 -0.940625,0.53594 -0.842187,0.13125 -1.323437,-0.68906 -2.001562,-1.82656 -0.601563,-1.01719 -1.334375,-2.24219 -2.570313,-3.34688 -0.492187,-0.36094 -0.929687,0.0109 -0.667187,0.29531 v 0 c 1.3125,1.08282 2.05625,2.35157 2.66875,3.37969 0.809375,1.36719 1.389062,2.35156 2.66875,2.14375 0.2625,-0.0438 0.503125,-0.13125 0.721875,-0.25156 0.984375,1.85937 1.553125,3.98125 1.553125,6.234375 0,3.675 -1.4875,7.010937 -3.904688,9.417188 -2.40625,2.40625 -5.742187,3.893749 -9.428125,3.893749 -3.685937,0 -7.0109368,-1.487499 -9.4281238,-3.893749 -2.417188,-2.406251 -3.904688,-5.742188 -3.904688,-9.417188 0,-0.907813 0.0875,-1.782813 0.2625,-2.635938 -0.0875,-0.492187 -0.13125,-1.028127 -0.164062,-1.432817 v -0.0109 c -0.109375,-1.17032 -0.185938,-2.81094 -0.06562,-4.21094 0.09844,-1.14844 0.328125,-2.11094 0.765625,-2.40625 0.03281,-0.0219 0.05469,-0.0438 0.07656,-0.0766 0.142188,-0.18594 0.984375,-0.73282 2.264063,-1.09375 0.645312,-0.18594 1.389062,-0.30625 2.209375,-0.30625 0.185937,0 0.382812,0.0109 0.579687,0.0219 1.159375,0.0875 2.3843748,1.07188 3.2374998,2.25313 0.35,0.49218 0.634375,1.01718 0.820313,1.52031 0.185937,0.50312 0.273437,0.98437 0.240625,1.41094 -0.03281,0.44843 -0.207813,0.83125 -0.56875,1.08281 -0.623438,0.44844 -1.509375,0.175 -2.5156248,-0.14219 -1.564063,-0.49219 -3.4125,-1.07187 -5.370313,0.41563 v 0 c -0.492187,0.35 -0.142187,0.85312 0.153125,0.74375 1.8375,-1.52032 3.565625,-0.98438 5.020313,-0.525 1.1703118,0.37187 2.1984368,0.68906 3.0953118,0.0547 0.535937,-0.38281 0.7875,-0.92968 0.842187,-1.56406 0.04375,-0.525 -0.06562,-1.09375 -0.273437,-1.68437 -0.207813,-0.56875 -0.525,-1.14844 -0.907812,-1.68438 -0.525,-0.73281 -1.192188,-1.38906 -1.903125,-1.84844 1.684375,-0.76562 3.554687,-1.19218 5.523437,-1.19218 0.995312,0 1.957812,0.10937 2.8875,0.31718 0.39375,-0.16406 0.91875,-0.22968 1.389062,-0.29531 v 0 c 0.525,-0.0438 1.148438,-0.0766 1.826563,-0.0766 z m 1.421875,7.0875 c -1.290625,0 -2.329688,1.03906 -2.329688,2.32969 0,1.290622 1.05,2.329685 2.329688,2.329685 1.279687,0 2.329687,-1.039063 2.329687,-2.329685 0,-1.29063 -1.039062,-2.32969 -2.329687,-2.32969 z m -14.5468748,1.70625 c -2.515625,0 -4.560937,2.045312 -4.560937,4.55 0,2.515625 2.045312,4.55 4.560937,4.55 2.5156248,0 4.5609368,-2.034375 4.5609368,-4.55 0,-2.515625 -2.045312,-4.55 -4.5609368,-4.55 z m 1.2578128,2.384375 c 1.159375,0 2.089062,0.940625 2.089062,2.089062 0,1.148438 -0.940625,2.089063 -2.089062,2.089063 -1.1484378,0 -2.0890628,-0.940625 -2.0890628,-2.089063 0,-1.159375 0.929688,-2.089062 2.0890628,-2.089062 z m 11.593749,1.815625 c -0.05469,0 -0.109375,0.01094 -0.164062,0.03281 l -6.496875,1.88125 c -0.01094,0 -0.02187,0.01094 -0.03281,0.01094 v 0 c -0.185937,0.06562 -0.317187,0.240625 -0.317187,0.459375 0,0.196875 0.120312,0.371875 0.295312,0.448437 v 0 l 4.003125,2.253125 v 0.02187 c 0,0.689063 -0.30625,1.323438 -0.809375,1.782813 -0.503125,0.470312 -1.214062,0.754687 -2.001562,0.754687 -0.492188,0 -0.9625,-0.109375 -1.378125,-0.328125 -0.404688,-0.207812 -0.754688,-0.503125 -1.00625,-0.875 0,-0.01094 -0.01094,-0.01094 -0.01094,-0.01094 -0.07656,-0.120313 -0.207812,-0.196875 -0.360937,-0.196875 -0.240625,0 -0.4375,0.196875 -0.4375,0.4375 0,0.09844 0.03281,0.185937 0.0875,0.2625 0.339062,0.492187 0.798437,0.885937 1.334375,1.159375 0.535937,0.273437 1.148437,0.426562 1.771875,0.426562 1.00625,0 1.925,-0.382812 2.592187,-0.984375 0.48125,-0.4375 0.83125,-1.00625 0.995313,-1.640625 0.65625,0.535938 1.509375,0.864063 2.45,0.864063 1.00625,0 1.925,-0.371875 2.592187,-0.984375 0.678125,-0.623438 1.09375,-1.476563 1.09375,-2.417188 v -0.142187 c 0,0 0,0 0,-0.01094 0,-0.240625 -0.196875,-0.4375 -0.4375,-0.4375 -0.240625,0 -0.4375,0.196875 -0.4375,0.4375 v 0.01094 0.02187 0.120312 c 0,0.689063 -0.30625,1.323438 -0.809375,1.782813 -0.503125,0.470312 -1.214062,0.754687 -2.001562,0.754687 -0.754688,0 -1.432813,-0.2625 -1.935938,-0.7 -0.109375,-0.0875 -0.196875,-0.185937 -0.284375,-0.295312 l 2.14375,-4.15625 c 0.04375,-0.07656 0.06562,-0.153125 0.06562,-0.240625 -0.02187,-0.284375 -0.240625,-0.503125 -0.503125,-0.503125 z"
     fill="#000000"
     id="path44"
     style="stroke-width:0.109375" />
</svg>
