<?xml version="1.0" encoding="UTF-8" standalone="no"?>
<svg
   xmlns:dc="http://purl.org/dc/elements/1.1/"
   xmlns:cc="http://creativecommons.org/ns#"
   xmlns:rdf="http://www.w3.org/1999/02/22-rdf-syntax-ns#"
   xmlns:svg="http://www.w3.org/2000/svg"
   xmlns="http://www.w3.org/2000/svg"
   xmlns:sodipodi="http://sodipodi.sourceforge.net/DTD/sodipodi-0.dtd"
   xmlns:inkscape="http://www.inkscape.org/namespaces/inkscape"
   inkscape:version="1.0.1 (3bc2e813f5, 2020-09-07)"
   sodipodi:docname="distributor-logo-lubuntu.svg"
   id="svg124"
   version="1"
   height="32"
   width="32">
  <metadata
     id="metadata130">
    <rdf:RDF>
      <cc:Work
         rdf:about="">
        <dc:format>image/svg+xml</dc:format>
        <dc:type
           rdf:resource="http://purl.org/dc/dcmitype/StillImage" />
      </cc:Work>
    </rdf:RDF>
  </metadata>
  <defs
     id="defs128">
    <filter
       inkscape:collect="always"
       style="color-interpolation-filters:sRGB"
       id="filter59642"
       x="-0.075"
       width="1.15"
       y="-0.075"
       height="1.15">
      <feGaussianBlur
         inkscape:collect="always"
         stdDeviation="0.875"
         id="feGaussianBlur59644" />
    </filter>
  </defs>
  <sodipodi:namedview
     inkscape:current-layer="svg124"
     inkscape:window-maximized="1"
     inkscape:window-y="0"
     inkscape:window-x="0"
     inkscape:cy="16"
     inkscape:cx="14.950131"
     inkscape:zoom="23.8125"
     showgrid="false"
     id="namedview126"
     inkscape:window-height="1000"
     inkscape:window-width="1920"
     inkscape:pageshadow="2"
     inkscape:pageopacity="0"
     guidetolerance="10"
     gridtolerance="10"
     objecttolerance="10"
     borderopacity="1"
     bordercolor="#666666"
     pagecolor="#ffffff"
     inkscape:document-rotation="0" />
  <circle
     id="circle116"
     r="14"
     cy="16"
     cx="16"
     style="opacity:0.5;filter:url(#filter59642)" />
  <circle
     id="circle118"
     r="14"
     cy="16"
     cx="16"
     style="fill:#0068c8" />
  <path
     id="path120"
     d="M 19.369 5.9707 C 18.959 5.9507 16.67 6.6305 15.99 7.4805 C 14.092 7.612 6.8564 12.488 2.0059 15.887 A 14 14 0 0 0 2 16 A 14 14 0 0 0 2.0703 17.281 C 3.9905 16.569 5.9679 15.921 6.8496 15.93 C 7.0496 15.93 7.1998 15.959 7.2598 16.039 C 7.6598 16.499 5.98 18.751 4.25 21.301 C 4.0071 21.655 3.7726 22.01 3.5332 22.367 A 14 14 0 0 0 4.0176 23.215 C 6.2652 20.412 8.7958 17.32 9.5508 17.211 C 9.6008 17.201 9.6399 17.211 9.6699 17.221 C 9.8082 17.387 7.4667 21.155 5.1855 24.877 A 14 14 0 0 0 6.0879 25.877 C 7.1139 24.464 8.1776 22.988 9.2305 21.539 C 11.83 17.949 14.13 14.581 15.26 14.551 C 15.29 14.551 15.319 14.561 15.359 14.561 C 18.626 14.579 21.806 22.279 23.65 27.721 A 14 14 0 0 0 24.551 27.076 C 23.623 20.953 21.633 11.922 17.689 9.2891 C 18.139 8.9891 18.18 7.4609 18.18 7.4609 L 19.369 5.9707 z"
     style="fill:#ffffff" />
</svg>
