<?xml version="1.0" encoding="UTF-8" standalone="no"?>
<svg
   xmlns:dc="http://purl.org/dc/elements/1.1/"
   xmlns:cc="http://creativecommons.org/ns#"
   xmlns:rdf="http://www.w3.org/1999/02/22-rdf-syntax-ns#"
   xmlns:svg="http://www.w3.org/2000/svg"
   xmlns="http://www.w3.org/2000/svg"
   xmlns:xlink="http://www.w3.org/1999/xlink"
   xmlns:sodipodi="http://sodipodi.sourceforge.net/DTD/sodipodi-0.dtd"
   xmlns:inkscape="http://www.inkscape.org/namespaces/inkscape"
   width="32"
   height="32"
   version="1.1"
   id="svg42"
   sodipodi:docname="distributor-logo-pisilinux.svg"
   inkscape:version="1.0.1 (3bc2e813f5, 2020-09-07)">
  <metadata
     id="metadata48">
    <rdf:RDF>
      <cc:Work
         rdf:about="">
        <dc:format>image/svg+xml</dc:format>
        <dc:type
           rdf:resource="http://purl.org/dc/dcmitype/StillImage" />
      </cc:Work>
    </rdf:RDF>
  </metadata>
  <defs
     id="defs46">
    <linearGradient
       inkscape:collect="always"
       id="linearGradient960">
      <stop
         style="stop-color:#f2f2f2;stop-opacity:1"
         offset="0"
         id="stop956" />
      <stop
         style="stop-color:#ffffff;stop-opacity:1"
         offset="1"
         id="stop958" />
    </linearGradient>
    <filter
       inkscape:collect="always"
       style="color-interpolation-filters:sRGB"
       id="filter936"
       x="-0.074988025"
       width="1.1499761"
       y="-0.075011979"
       height="1.150024">
      <feGaussianBlur
         inkscape:collect="always"
         stdDeviation="0.87514134"
         id="feGaussianBlur938" />
    </filter>
    <linearGradient
       inkscape:collect="always"
       xlink:href="#linearGradient960"
       id="linearGradient962"
       x1="16.300058"
       y1="26.901083"
       x2="17.15686"
       y2="3.4053555"
       gradientUnits="userSpaceOnUse" />
  </defs>
  <sodipodi:namedview
     pagecolor="#ffffff"
     bordercolor="#666666"
     borderopacity="1"
     objecttolerance="10"
     gridtolerance="10"
     guidetolerance="10"
     inkscape:pageopacity="0"
     inkscape:pageshadow="2"
     inkscape:window-width="1920"
     inkscape:window-height="1000"
     id="namedview44"
     showgrid="false"
     inkscape:zoom="20.84375"
     inkscape:cx="7.76189"
     inkscape:cy="15.166653"
     inkscape:window-x="0"
     inkscape:window-y="0"
     inkscape:window-maximized="1"
     inkscape:current-layer="svg42" />
  <path
     id="path8-3"
     style="fill:#000000;fill-opacity:1;filter:url(#filter936);opacity:0.5"
     d="m 2.7461759,1.9999774 c -0.09789,0.128474 -0.09439,0.325066 -0.14649,0.480469 -0.33399,1.607329 -0.57785,3.238186 -0.59766,4.880859 -0.04586,1.947308 0.13671,3.9604026 1,5.7382816 0.06424,0.146126 0.33712,0.523325 0.59961,0.884765 -0.17728,0.358388 -0.3619,0.713006 -0.52734,1.076172 -0.1227,0.277814 -0.24017,0.557012 -0.35547,0.837891 -0.0255,0.06068 -0.05107,0.122791 -0.07617,0.183593 -0.009,0.02366 -0.01864,0.04668 -0.02734,0.07031 -0.13054,0.325604 -0.25542,0.652727 -0.375,0.982422 -0.0142,0.03874 -0.02732,0.07832 -0.04102,0.117187 -0.0575,0.16056 -0.11519,0.320892 -0.16992,0.482422 -0.0211,0.0465 -0.02789,0.09413 -0.02539,0.140625 0,0 0,0.002 0,0.002 0,0 0.00195,0.002 0.00195,0.002 0.007,0.100175 0.05319,0.19968 0.08399,0.294922 0.20258,0.568312 0.4384,1.124907 0.70703,1.666016 6.7e-4,0.0013 9.5e-4,0.0025 0.00195,0.0039 0.0429,0.08629 0.08829,0.172357 0.13281,0.257813 0.004,0.007 0.00577,0.01446 0.00977,0.02148 0.47671,0.911198 1.04795,1.773039 1.71094,2.5625 0.43609,0.531843 0.91387,1.028626 1.42382,1.490234 0.0456,0.04155 0.09256,0.08207 0.13868,0.123047 0.0155,0.01371 0.03127,0.02736 0.04687,0.04102 0.18414,0.162154 0.37242,0.319801 0.56445,0.472656 0.15417,0.124406 0.31973,0.23722 0.48047,0.355469 l -4.98047,3.464844 a 0.75,0.75 0 0 0 -0.1875,1.044921 0.75,0.75 0 0 0 1.04493,0.1875 l 5.47265,-3.810546 c 0.25671,0.146954 0.51875,0.281408 0.7832,0.412109 l -3.11328,2.166016 a 0.75,0.75 0 0 0 -0.1875,1.044921 0.75,0.75 0 0 0 1.04493,0.1875 l 3.8906201,-2.708984 c 0.35268,0.125222 0.70886,0.242447 1.07031,0.339844 0.1,0.02694 0.20023,0.05331 0.30078,0.07813 0.98492,0.245016 1.99484,0.385126 3.00977,0.421875 0.004,1.7e-4 0.0093,-1.52e-4 0.01367,0 0.0885,0.0031 0.17703,0.0045 0.26563,0.0059 0.03,5.54e-4 0.05984,0.0017 0.08984,0.002 0.06,6.89e-4 0.11973,0.002 0.17969,0.002 0.0599,2.8e-5 0.11977,-0.0012 0.17969,-0.002 0.03,-3.82e-4 0.05974,-0.0015 0.08984,-0.002 0.0885,-0.0015 0.17714,-0.0029 0.26562,-0.0059 0.004,-1.69e-4 0.0094,1.57e-4 0.01368,0 1.01471,-0.03679 2.02504,-0.176906 3.00976,-0.421875 0.0992,-0.02449 0.19819,-0.05156 0.29688,-0.07813 10e-4,-3.81e-4 0.0029,4.05e-4 0.0039,0 0.35058,-0.09448 0.694747,-0.209411 1.037112,-0.330078 l 3.876954,2.699218 a 0.75,0.75 0 0 0 1.042968,-0.1875 0.75,0.75 0 0 0 -0.1875,-1.044921 l -3.091796,-2.152344 c 0.264793,-0.13059 0.528934,-0.26347 0.785156,-0.410156 l 5.451172,3.794921 a 0.75,0.75 0 0 0 1.042968,-0.1875 0.75,0.75 0 0 0 -0.1875,-1.044921 l -4.957031,-3.449219 c 0.169816,-0.124047 0.345025,-0.242825 0.507813,-0.373047 0.192071,-0.152934 0.380274,-0.310418 0.564453,-0.472656 0.06123,-0.05394 0.12326,-0.109128 0.183593,-0.164063 0.509918,-0.461586 0.987759,-0.956468 1.423829,-1.488281 0.662387,-0.788744 1.232531,-1.650267 1.708984,-2.560547 0.0047,-0.0089 0.009,-0.01649 0.01367,-0.02539 0.04396,-0.0844 0.08657,-0.170646 0.128906,-0.25586 6.96e-4,-0.0014 0.0032,-0.0024 0.0039,-0.0039 0.26861,-0.541077 0.504464,-1.097738 0.707032,-1.666016 0.03079,-0.09524 0.07715,-0.194747 0.08398,-0.294922 0,0 0.002,-0.002 0.002,-0.002 0,0 0,-0.002 0,-0.002 0.0025,-0.04649 -0.0042,-0.09413 -0.02539,-0.140625 -0.05452,-0.160918 -0.110697,-0.32051 -0.167969,-0.480469 -0.01423,-0.04018 -0.02832,-0.08104 -0.04297,-0.121093 -0.119653,-0.329803 -0.246349,-0.656713 -0.376953,-0.982422 -0.0085,-0.02281 -0.01703,-0.04552 -0.02539,-0.06836 -0.0245,-0.05934 -0.0494,-0.118516 -0.07422,-0.177734 -0.115861,-0.282359 -0.234085,-0.564487 -0.357422,-0.84375 -0.168449,-0.369775 -0.356378,-0.730893 -0.53711,-1.095703 0.258085,-0.355311 0.523144,-0.722391 0.585938,-0.865234 0.86329,-1.777879 1.045853,-3.7909736 1,-5.7382816 -0.01981,-1.642673 -0.263661,-3.27353 -0.597656,-4.880859 -0.05208,-0.155403 -0.04855,-0.351995 -0.146485,-0.480469 -1.338807,0.192992 -2.66317,0.524438 -3.902344,1.070313 -1.200368,0.515552 -2.481022,1.354106 -3.460937,2.267578 -0.07268,-0.0572 -0.140665,-0.12052 -0.214844,-0.175781 -0.256757,-0.196827 -0.518413,-0.385833 -0.789062,-0.564454 -1.657986,-1.080272 -3.043346,-1.541394 -4.923826,-1.591796 -1.70772,0.01005 -3.60685,0.8099 -4.81055,1.591796 -0.27033,0.178413 -0.53259,0.367876 -0.78906,0.564454 -0.07864,0.05857 -0.14961,0.126762 -0.22656,0.1875 -0.9813301,-0.917844 -2.2673901,-1.761636 -3.4726601,-2.279297 -1.23918,-0.545875 -2.56354,-0.877321 -3.90234,-1.070313 z" />
  <path
     style="fill:#df0459;fill-opacity:1"
     d="m 29.387815,2.4750406 c -0.05208,-0.1554031 -0.04755,-0.3511999 -0.145484,-0.479674 -1.338807,0.1929916 -2.664026,0.5234337 -3.9032,1.0693083 -1.312766,0.5638272 -2.739225,1.5103732 -3.742339,2.5230182 1.63457,1.7019663 2.900674,3.7781819 4.383047,5.3922689 0.690632,1.000302 1.386335,2.55236 1.976202,3.612692 0.130767,-0.236751 0.920594,-1.249492 1.029849,-1.498025 C 29.84918,11.31675 30.031462,9.3038026 29.985609,7.3564943 29.965794,5.7138215 29.72181,4.0823691 29.387815,2.4750406 Z"
     id="path8" />
  <path
     style="fill:#df0459;fill-opacity:1"
     d="M 2.6043027,2.4750406 C 2.656383,2.3196375 2.6518543,2.1238407 2.7497881,1.9953666 4.0885942,2.1883582 5.413814,2.5188003 6.6529873,3.0646749 7.9657533,3.6285021 9.3922123,4.5750481 10.395326,5.5876931 8.7607564,7.2896594 7.4946524,9.365875 6.0122791,10.979962 5.3216478,11.980264 4.6259441,13.532322 4.0360769,14.592654 3.9053098,14.355903 3.1154831,13.343162 3.0062276,13.094629 2.1429382,11.31675 1.9606567,9.3038026 2.0065101,7.3564943 2.0263234,5.7138215 2.2703088,4.0823691 2.6043027,2.4750406 Z"
     id="path12" />
  <path
     style="fill:url(#linearGradient962);fill-opacity:1"
     d="M 11.140894,4.5927346 C 10.870559,4.7711469 10.607832,4.9598047 10.351357,5.156382 9.7466144,5.6067926 9.193941,6.1253882 8.655439,6.6509314 8.450659,6.8603283 8.2503555,7.0735878 8.0538551,7.2900952 7.9638401,7.3884919 7.8744536,7.4874102 7.786197,7.5872044 7.7188285,7.6647731 7.651909,7.742708 7.5854742,7.8210245 c -4.27e-4,4.909e-4 -8.4e-4,9.721e-4 -0.00126,0.00146 -0.00126,0.00153 -0.00259,0.00306 -0.00385,0.00451 C 5.7270143,9.9937183 4.2560205,12.471587 3.0786686,15.056089 2.9559701,15.333903 2.837259,15.613411 2.7219581,15.89429 c -0.025448,0.06068 -0.051087,0.121297 -0.076199,0.182099 -0.00865,0.02366 -0.017754,0.04718 -0.026541,0.07081 -0.1305326,0.325604 -0.2559024,0.653259 -0.375489,0.982954 -0.014172,0.03874 -0.027964,0.07763 -0.04173,0.116497 -0.057504,0.16056 -0.1141172,0.321394 -0.1688453,0.482924 -0.021072,0.0465 -0.027492,0.09314 -0.024955,0.139631 -1.701e-4,6.6e-4 -3.308e-4,0.0013 -5.008e-4,0.002 3.162e-4,9.73e-4 6.852e-4,0.002 10e-4,0.003 0.00682,0.100175 0.054009,0.199553 0.084796,0.294795 0.2025813,0.568312 0.4392812,1.125047 0.7079125,1.666156 6.688e-4,0.0013 0.00134,0.0027 0.002,0.0041 0.042872,0.08629 0.086581,0.17216 0.1311165,0.257616 0.00367,0.007 0.00734,0.01405 0.011016,0.02107 0.4767143,0.911198 1.0472021,1.773887 1.7101902,2.563348 0.4360962,0.531843 0.9148884,1.026827 1.4248388,1.488435 0.04563,0.04155 0.091979,0.08229 0.1381273,0.123272 0.015519,0.01371 0.030835,0.02765 0.046403,0.04131 0.1841483,0.162154 0.3722444,0.319825 0.5642775,0.47268 1.1773118,0.950045 2.5573448,1.725624 3.9706392,2.249303 0.04784,0.01762 0.09557,0.03539 0.143635,0.05238 0.395739,0.144841 0.797613,0.272544 1.204587,0.382209 0.09999,0.02694 0.200243,0.0531 0.300791,0.07791 0.984927,0.245016 1.995744,0.385119 3.010673,0.421868 0.0041,1.7e-4 0.0083,4.28e-4 0.01244,5.8e-4 0.08855,0.0031 0.177141,0.0051 0.265739,0.0065 0.02999,5.54e-4 0.05997,0.0015 0.08997,0.0018 0.05995,6.89e-4 0.119904,4.44e-4 0.179858,4.23e-4 0.05992,2.8e-5 0.119851,2.96e-4 0.179774,-4.23e-4 0.03003,-3.82e-4 0.06004,-0.0013 0.09005,-0.0018 0.08853,-0.0015 0.177005,-0.0035 0.265488,-0.0065 0.0044,-1.69e-4 0.0088,-4.23e-4 0.01328,-5.8e-4 1.014709,-0.03679 2.025376,-0.176899 3.010089,-0.421868 0.09924,-0.02449 0.198097,-0.05036 0.296786,-0.07692 0.0014,-3.81e-4 0.0028,-6.95e-4 0.0042,-0.0011 0.407289,-0.109758 0.809555,-0.237547 1.205588,-0.38254 0.04707,-0.01665 0.09386,-0.03404 0.140714,-0.0513 6.8e-4,-2.55e-4 0.0013,-5.76e-4 0.002,-8.33e-4 1.429706,-0.523822 2.796923,-1.310581 3.972058,-2.250627 0.192071,-0.152934 0.380265,-0.310689 0.564444,-0.472927 0.06123,-0.05394 0.122362,-0.107995 0.182695,-0.16293 0.509917,-0.461586 0.988685,-0.956542 1.424755,-1.488355 0.662387,-0.788744 1.232402,-1.650587 1.708855,-2.560867 0.0047,-0.0089 0.0093,-0.01778 0.01394,-0.02668 0.04396,-0.0844 0.08711,-0.16918 0.129448,-0.254394 6.96e-4,-0.0014 0.0014,-0.0028 0.0021,-0.0043 0.26861,-0.541077 0.50526,-1.097795 0.707828,-1.666073 0.03079,-0.09524 0.07805,-0.19462 0.08488,-0.294795 3.01e-4,-9.73e-4 6.85e-4,-0.002 9.81e-4,-0.003 -1.71e-4,-6.6e-4 -3.42e-4,-0.0013 -5e-4,-0.002 0.0025,-0.04649 -0.0038,-0.09314 -0.02495,-0.139631 -0.05452,-0.160918 -0.110985,-0.321149 -0.168257,-0.481108 -0.01423,-0.04018 -0.02858,-0.08033 -0.04323,-0.12038 -0.119653,-0.329803 -0.244968,-0.657575 -0.375572,-0.983284 -0.0085,-0.02281 -0.01726,-0.04557 -0.02562,-0.06841 -0.0245,-0.05934 -0.04946,-0.118502 -0.07428,-0.17772 -0.115861,-0.282359 -0.235208,-0.563317 -0.358545,-0.84258 -1.177328,-2.584448 -2.648319,-5.0622383 -4.501612,-7.2289296 -9.11e-4,-0.00104 -0.0017,-0.00208 -0.0026,-0.00313 -6.11e-4,-6.944e-4 -0.0013,-0.00146 -0.0018,-0.00215 -2.56e-4,-2.959e-4 -4.95e-4,-6.091e-4 -7.69e-4,-9.028e-4 C 24.363471,7.7427094 24.296554,7.6647736 24.229184,7.5872051 24.144914,7.4919185 24.059582,7.3974145 23.97371,7.3033988 23.773339,7.0822906 23.568935,6.8646387 23.359942,6.650932 22.821707,6.1256563 22.269314,5.6072935 21.664933,5.1570428 21.408176,4.9602167 21.145128,4.771355 20.874479,4.5927345 19.21649,3.5124626 17.831448,3.0504036 15.95097,3.0000001 14.243256,3.0100479 12.344589,3.8108387 11.140894,4.5927346 Z"
     id="path16" />
  <path
     style="fill:#000000;fill-opacity:1"
     d="m 9.04704,15.000005 c -0.6403318,4.69e-4 -1.2810724,0.09046 -1.8924535,0.276316 -0.177822,1.076108 -0.2670802,2.207188 0.098123,3.257082 0.2861722,0.926927 1.0115113,1.713994 1.9280255,2.07977 1.116643,0.462528 2.389411,0.479407 3.558315,0.2135 0.150416,-0.673503 0.275994,-1.35883 0.258148,-2.051059 0.02932,-0.849529 -0.169582,-1.734083 -0.685839,-2.430059 -0.594652,-0.821438 -1.625248,-1.241479 -2.625254,-1.316383 -0.212239,-0.0195 -0.425622,-0.02932 -0.639065,-0.02917 z m -0.01316,0.885727 c 0.343044,-0.0064 0.68668,0.02079 1.02129,0.08906 0.14659,0.06055 0.367761,0.02749 0.471012,0.148581 -0.468454,0.181017 -0.869424,0.55926 -0.999444,1.043634 -0.1587,0.507469 -0.0019,1.088028 0.377371,1.464417 0.546212,0.606715 1.629043,0.634789 2.197561,0.04616 -0.01465,0.466274 -0.02997,0.941866 -0.144057,1.39191 -0.472917,0.04743 -0.959789,0.06685 -1.431431,-0.008 -0.861704,-0.09238 -1.7514658,-0.510028 -2.184866,-1.277162 -0.4926741,-0.840789 -0.4971599,-1.845054 -0.3760634,-2.7776 0.1389435,-0.07615 0.3015066,-0.05936 0.4538346,-0.07434 0.2033955,-0.02668 0.4089637,-0.04274 0.6147908,-0.04663 z"
     id="path18" />
  <path
     style="fill:#000000;fill-opacity:1"
     d="m 13.008695,22.324627 c -0.04274,0.0867 0.08346,0.145582 0.131625,0.21302 0.702226,0.662077 1.395632,1.330041 2.11007,1.984089 0.144515,0.137555 0.360272,0.197499 0.569243,0.247811 0.0014,0.390181 0.0047,0.780898 -0.0014,1.171614 0.08141,0.07975 0.230684,0.06798 0.336526,0.02622 -0.0075,-0.394463 0.0081,-0.789461 -0.0088,-1.183387 0.215078,-0.06798 0.445762,-0.127385 0.604525,-0.271362 0.716474,-0.682415 1.444482,-1.358943 2.15892,-2.042963 0.02646,-0.04495 0.118734,-0.0851 0.0821,-0.140766 -0.803998,-0.199639 -1.641919,-0.28367 -2.478483,-0.320601 -1.181232,-0.03639 -2.371283,0.04282 -3.504344,0.316319 z"
     id="path20" />
  <path
     style="fill:#000000;fill-opacity:1"
     d="m 15.950972,3.0000299 c -0.724214,0.00427 -1.482618,0.1509767 -2.207948,0.3779132 0.648538,2.3323741 1.264485,4.6735228 1.904486,7.0079989 0.08888,-0.0096 0.177775,-0.01808 0.266657,-0.0271 0.174579,-2.4443214 0.430829,-4.8852723 0.596659,-7.3301424 -0.182095,-0.013897 -0.368288,-0.023536 -0.559854,-0.028671 z m -2.514916,0.479373 c -0.86881,0.3022256 -1.674472,0.7101416 -2.295166,1.1133317 -0.360832,0.2596997 -1.082891,0.7482717 -0.428653,0.3074365 1.280245,2.0305187 2.575931,4.0519601 3.861303,6.0796579 0.08091,-0.03158 0.161798,-0.06372 0.242703,-0.09699 C 14.630502,9.9628936 14.486878,9.0361852 14.298288,8.1168115 14.141604,7.35029 14.025983,6.5770358 13.869299,5.8110788 13.709159,5.0360995 13.587123,4.255158 13.436056,3.4794029 Z"
     id="path22" />
  <path
     style="color:#000000;font-style:normal;font-variant:normal;font-weight:normal;font-stretch:normal;font-size:medium;line-height:normal;font-family:sans-serif;font-variant-ligatures:normal;font-variant-position:normal;font-variant-caps:normal;font-variant-numeric:normal;font-variant-alternates:normal;font-variant-east-asian:normal;font-feature-settings:normal;font-variation-settings:normal;text-indent:0;text-align:start;text-decoration:none;text-decoration-line:none;text-decoration-style:solid;text-decoration-color:#000000;letter-spacing:normal;word-spacing:normal;text-transform:none;writing-mode:lr-tb;direction:ltr;text-orientation:mixed;dominant-baseline:auto;baseline-shift:baseline;text-anchor:start;white-space:normal;shape-padding:0;shape-margin:0;inline-size:0;clip-rule:nonzero;display:inline;overflow:visible;visibility:visible;isolation:auto;mix-blend-mode:normal;color-interpolation:sRGB;color-interpolation-filters:linearRGB;solid-color:#000000;solid-opacity:1;vector-effect:none;fill:#df0459;fill-opacity:1;fill-rule:nonzero;stroke:none;stroke-width:1.5;stroke-linecap:round;stroke-linejoin:round;stroke-miterlimit:4;stroke-dasharray:none;stroke-dashoffset:0;stroke-opacity:1;color-rendering:auto;image-rendering:auto;shape-rendering:auto;text-rendering:auto;enable-background:accumulate;stop-color:#000000;stop-opacity:1;opacity:1"
     d="M 9.203125 24.003906 A 0.75000006 0.75000006 0 0 0 8.78125 24.138672 L 2.3300781 28.628906 A 0.75000006 0.75000006 0 0 0 2.1425781 29.671875 A 0.75000006 0.75000006 0 0 0 3.1875 29.859375 L 9.6367188 25.369141 A 0.75000006 0.75000006 0 0 0 9.8242188 24.326172 A 0.75000006 0.75000006 0 0 0 9.203125 24.003906 z "
     id="path942" />
  <path
     style="fill:#000000;fill-opacity:1"
     d="m 23.00813,15.000005 c 0.640332,4.69e-4 1.281072,0.09046 1.892453,0.276316 0.177822,1.076108 0.267081,2.207188 -0.09812,3.257082 -0.286172,0.926927 -1.011511,1.713994 -1.928025,2.07977 -1.116643,0.462528 -2.389411,0.479407 -3.558315,0.2135 -0.150416,-0.673503 -0.275994,-1.35883 -0.258148,-2.051059 -0.02932,-0.849529 0.169582,-1.734083 0.685839,-2.430059 0.594652,-0.821438 1.625248,-1.241479 2.625254,-1.316383 0.212239,-0.0195 0.425622,-0.02932 0.639065,-0.02917 z m 0.01316,0.885727 c -0.343044,-0.0064 -0.68668,0.02079 -1.02129,0.08906 -0.14659,0.06055 -0.367761,0.02749 -0.471012,0.148581 0.468454,0.181017 0.869424,0.55926 0.999444,1.043634 0.1587,0.507469 0.0019,1.088028 -0.377371,1.464417 -0.546212,0.606715 -1.629043,0.634789 -2.197561,0.04616 0.01465,0.466274 0.02997,0.941866 0.144057,1.39191 0.472917,0.04743 0.959789,0.06685 1.431431,-0.008 0.861704,-0.09238 1.751466,-0.510028 2.184866,-1.277162 0.492674,-0.840789 0.49716,-1.845054 0.376063,-2.7776 -0.138943,-0.07615 -0.301506,-0.05936 -0.453834,-0.07434 -0.203396,-0.02668 -0.408964,-0.04274 -0.614791,-0.04663 z"
     id="path28" />
  <path
     style="color:#000000;font-style:normal;font-variant:normal;font-weight:normal;font-stretch:normal;font-size:medium;line-height:normal;font-family:sans-serif;font-variant-ligatures:normal;font-variant-position:normal;font-variant-caps:normal;font-variant-numeric:normal;font-variant-alternates:normal;font-variant-east-asian:normal;font-feature-settings:normal;font-variation-settings:normal;text-indent:0;text-align:start;text-decoration:none;text-decoration-line:none;text-decoration-style:solid;text-decoration-color:#000000;letter-spacing:normal;word-spacing:normal;text-transform:none;writing-mode:lr-tb;direction:ltr;text-orientation:mixed;dominant-baseline:auto;baseline-shift:baseline;text-anchor:start;white-space:normal;shape-padding:0;shape-margin:0;inline-size:0;clip-rule:nonzero;display:inline;overflow:visible;visibility:visible;isolation:auto;mix-blend-mode:normal;color-interpolation:sRGB;color-interpolation-filters:linearRGB;solid-color:#000000;solid-opacity:1;vector-effect:none;fill:#df0459;fill-opacity:1;fill-rule:nonzero;stroke:none;stroke-width:1.5;stroke-linecap:round;stroke-linejoin:round;stroke-miterlimit:4;stroke-dasharray:none;stroke-dashoffset:0;stroke-opacity:1;color-rendering:auto;image-rendering:auto;shape-rendering:auto;text-rendering:auto;enable-background:accumulate;stop-color:#000000;stop-opacity:1;opacity:1"
     d="M 13.203125 24.003906 A 0.75000006 0.75000006 0 0 0 12.78125 24.138672 L 6.3300781 28.628906 A 0.75000006 0.75000006 0 0 0 6.1425781 29.671875 A 0.75000006 0.75000006 0 0 0 7.1875 29.859375 L 13.636719 25.369141 A 0.75000006 0.75000006 0 0 0 13.824219 24.326172 A 0.75000006 0.75000006 0 0 0 13.203125 24.003906 z "
     id="path946" />
  <path
     style="color:#000000;font-style:normal;font-variant:normal;font-weight:normal;font-stretch:normal;font-size:medium;line-height:normal;font-family:sans-serif;font-variant-ligatures:normal;font-variant-position:normal;font-variant-caps:normal;font-variant-numeric:normal;font-variant-alternates:normal;font-variant-east-asian:normal;font-feature-settings:normal;font-variation-settings:normal;text-indent:0;text-align:start;text-decoration:none;text-decoration-line:none;text-decoration-style:solid;text-decoration-color:#000000;letter-spacing:normal;word-spacing:normal;text-transform:none;writing-mode:lr-tb;direction:ltr;text-orientation:mixed;dominant-baseline:auto;baseline-shift:baseline;text-anchor:start;white-space:normal;shape-padding:0;shape-margin:0;inline-size:0;clip-rule:nonzero;display:inline;overflow:visible;visibility:visible;isolation:auto;mix-blend-mode:normal;color-interpolation:sRGB;color-interpolation-filters:linearRGB;solid-color:#000000;solid-opacity:1;vector-effect:none;fill:#df0459;fill-opacity:1;fill-rule:nonzero;stroke:none;stroke-width:1.5;stroke-linecap:round;stroke-linejoin:round;stroke-miterlimit:4;stroke-dasharray:none;stroke-dashoffset:0;stroke-opacity:1;color-rendering:auto;image-rendering:auto;shape-rendering:auto;text-rendering:auto;enable-background:accumulate;stop-color:#000000;stop-opacity:1;opacity:1"
     d="M 22.777344 24.003906 A 0.75000006 0.75000006 0 0 0 22.142578 24.326172 A 0.75000006 0.75000006 0 0 0 22.330078 25.369141 L 28.78125 29.859375 A 0.75000006 0.75000006 0 0 0 29.824219 29.671875 A 0.75000006 0.75000006 0 0 0 29.636719 28.628906 L 23.1875 24.138672 A 0.75000006 0.75000006 0 0 0 22.777344 24.003906 z "
     id="path950" />
  <path
     style="color:#000000;font-style:normal;font-variant:normal;font-weight:normal;font-stretch:normal;font-size:medium;line-height:normal;font-family:sans-serif;font-variant-ligatures:normal;font-variant-position:normal;font-variant-caps:normal;font-variant-numeric:normal;font-variant-alternates:normal;font-variant-east-asian:normal;font-feature-settings:normal;font-variation-settings:normal;text-indent:0;text-align:start;text-decoration:none;text-decoration-line:none;text-decoration-style:solid;text-decoration-color:#000000;letter-spacing:normal;word-spacing:normal;text-transform:none;writing-mode:lr-tb;direction:ltr;text-orientation:mixed;dominant-baseline:auto;baseline-shift:baseline;text-anchor:start;white-space:normal;shape-padding:0;shape-margin:0;inline-size:0;clip-rule:nonzero;display:inline;overflow:visible;visibility:visible;isolation:auto;mix-blend-mode:normal;color-interpolation:sRGB;color-interpolation-filters:linearRGB;solid-color:#000000;solid-opacity:1;vector-effect:none;fill:#df0459;fill-opacity:1;fill-rule:nonzero;stroke:none;stroke-width:1.5;stroke-linecap:round;stroke-linejoin:round;stroke-miterlimit:4;stroke-dasharray:none;stroke-dashoffset:0;stroke-opacity:1;color-rendering:auto;image-rendering:auto;shape-rendering:auto;text-rendering:auto;enable-background:accumulate;stop-color:#000000;stop-opacity:1;opacity:1"
     d="M 18.777344 24.003906 A 0.75000006 0.75000006 0 0 0 18.142578 24.326172 A 0.75000006 0.75000006 0 0 0 18.330078 25.369141 L 24.78125 29.859375 A 0.75000006 0.75000006 0 0 0 25.824219 29.671875 A 0.75000006 0.75000006 0 0 0 25.636719 28.628906 L 19.1875 24.138672 A 0.75000006 0.75000006 0 0 0 18.777344 24.003906 z "
     id="path954" />
</svg>
