<?xml version="1.0" encoding="UTF-8" standalone="no"?>
<svg
   xmlns:dc="http://purl.org/dc/elements/1.1/"
   xmlns:cc="http://creativecommons.org/ns#"
   xmlns:rdf="http://www.w3.org/1999/02/22-rdf-syntax-ns#"
   xmlns:svg="http://www.w3.org/2000/svg"
   xmlns="http://www.w3.org/2000/svg"
   xmlns:sodipodi="http://sodipodi.sourceforge.net/DTD/sodipodi-0.dtd"
   xmlns:inkscape="http://www.inkscape.org/namespaces/inkscape"
   inkscape:version="1.0.1 (3bc2e813f5, 2020-09-07)"
   sodipodi:docname="distributor-logo-ubuntu-budgie.svg"
   id="svg204"
   version="1.1"
   height="32"
   width="32">
  <metadata
     id="metadata210">
    <rdf:RDF>
      <cc:Work
         rdf:about="">
        <dc:format>image/svg+xml</dc:format>
        <dc:type
           rdf:resource="http://purl.org/dc/dcmitype/StillImage" />
      </cc:Work>
    </rdf:RDF>
  </metadata>
  <defs
     id="defs208">
    <filter
       inkscape:collect="always"
       style="color-interpolation-filters:sRGB"
       id="filter59622"
       x="-0.075"
       width="1.15"
       y="-0.075"
       height="1.15">
      <feGaussianBlur
         inkscape:collect="always"
         stdDeviation="0.90625"
         id="feGaussianBlur59624" />
    </filter>
  </defs>
  <sodipodi:namedview
     inkscape:current-layer="svg204"
     inkscape:window-maximized="1"
     inkscape:window-y="0"
     inkscape:window-x="0"
     inkscape:cy="16"
     inkscape:cx="13.900262"
     inkscape:zoom="23.8125"
     showgrid="false"
     id="namedview206"
     inkscape:window-height="1000"
     inkscape:window-width="1920"
     inkscape:pageshadow="2"
     inkscape:pageopacity="0"
     guidetolerance="10"
     gridtolerance="10"
     objecttolerance="10"
     borderopacity="1"
     bordercolor="#666666"
     pagecolor="#ffffff"
     inkscape:document-rotation="0" />
  <circle
     id="circle190"
     r="14.5"
     cy="16"
     cx="16.5"
     style="opacity:0.5;filter:url(#filter59622)" />
  <circle
     id="circle192"
     r="14.5"
     cy="15.5"
     cx="16.5"
     style="fill:#404552" />
  <path
     id="path196"
     d="m 19.114345,4.0004065 c -0.251431,0.00334 -0.512342,0.027062 -0.82384,0.088773 -0.566826,0.1123014 -1.157607,0.455244 -1.656862,0.8029354 -1.695051,1.1804902 -2.142869,3.4875735 -1.003562,5.1541561 0.953049,1.394126 2.734667,1.882288 4.288426,1.348826 0.327983,-0.112608 0.459335,-0.124533 0.713644,-0.145748 0.327914,-0.02736 0.855882,0.01315 1.328901,0.246445 0.384834,0.189802 0.713972,0.355331 0.927475,0.796312 0.05557,0.114788 0.153459,0.31884 0.174476,0.576364 0.03339,0.410511 -0.04839,0.610408 -0.320091,1.13153 0.432002,-0.348404 0.638953,-0.405875 1.280362,-1.185854 1.276778,-1.552595 1.343531,-4.1466015 -0.04723,-6.1810121 -1.030945,-1.508079 -2.609285,-2.471119 -4.096892,-2.5956281 -0.272032,-0.022769 -0.513376,-0.040441 -0.764806,-0.037099 z"
     style="fill:#ffffff" />
  <path
     id="path198"
     d="M 10.112069,9.0010779 C 8.3590622,9.0410679 6.5293485,10.249772 5.6182205,12.230598 4.8463283,13.908722 4.80877,15.795773 5.4411231,17.177605 c 0.2312711,0.505379 0.4191481,0.892046 0.8333998,1.381778 0.3769094,0.445573 0.9616084,0.795792 1.5053284,1.062183 1.8456766,0.904256 4.0311317,0.132202 4.8845047,-1.721516 0,0 0,-0.0013 0,-0.0013 0.712802,-1.551072 0.245654,-3.378291 -0.979245,-4.485071 -0.258629,-0.233688 -0.333628,-0.34393 -0.477903,-0.55862 -0.186033,-0.276827 -0.414352,-0.765009 -0.450557,-1.302549 -0.02946,-0.43733 -0.0532,-0.813281 0.216163,-1.226009 0.07012,-0.107435 0.196225,-0.296694 0.40498,-0.4458231 0.332822,-0.237629 0.54279,-0.26684 1.121184,-0.290052 -0.510949,-0.206488 -0.661155,-0.361172 -1.643361,-0.534524 -0.244393,-0.04314 -0.493119,-0.06077 -0.743548,-0.05506 z"
     style="fill:#ffffff" />
  <path
     id="path200"
     d="m 21.391294,17.000859 c -0.123917,-0.0029 -0.248822,0.0017 -0.374997,0.01187 v -0.0014 c -1.688775,0.135988 -3.011211,1.444703 -3.333902,3.063663 -0.06812,0.341746 -0.124475,0.461938 -0.234539,0.694009 -0.141916,0.299239 -0.444202,0.739884 -0.885152,1.035734 -0.358743,0.240695 -0.668361,0.445253 -1.15812,0.411654 -0.127483,-0.0087 -0.353354,-0.02598 -0.58701,-0.135898 C 14.445166,21.905189 14.314117,21.736153 14,21.240027 c 0.08357,0.549752 0.02738,0.756328 0.378973,1.703356 0.699864,1.88513 2.91279,3.235719 5.377173,3.037275 1.826813,-0.147104 3.459292,-1.040921 4.318434,-2.274657 0.314216,-0.451217 0.548876,-0.806357 0.756622,-1.410447 0.189007,-0.549631 0.19077,-1.235237 0.141782,-1.843212 -0.155943,-1.935169 -1.722931,-3.408929 -3.58169,-3.451568 z"
     style="fill:#ffffff" />
</svg>
