<?xml version="1.0" encoding="UTF-8" standalone="no"?>
<svg
   xmlns:dc="http://purl.org/dc/elements/1.1/"
   xmlns:cc="http://creativecommons.org/ns#"
   xmlns:rdf="http://www.w3.org/1999/02/22-rdf-syntax-ns#"
   xmlns:svg="http://www.w3.org/2000/svg"
   xmlns="http://www.w3.org/2000/svg"
   xmlns:xlink="http://www.w3.org/1999/xlink"
   xmlns:sodipodi="http://sodipodi.sourceforge.net/DTD/sodipodi-0.dtd"
   xmlns:inkscape="http://www.inkscape.org/namespaces/inkscape"
   width="32"
   height="32"
   version="1.1"
   id="svg14"
   sodipodi:docname="distributor-logo-kali-linux.svg"
   inkscape:version="1.0.1 (3bc2e813f5, 2020-09-07)">
  <metadata
     id="metadata20">
    <rdf:RDF>
      <cc:Work
         rdf:about="">
        <dc:format>image/svg+xml</dc:format>
        <dc:type
           rdf:resource="http://purl.org/dc/dcmitype/StillImage" />
      </cc:Work>
    </rdf:RDF>
  </metadata>
  <defs
     id="defs18">
    <linearGradient
       inkscape:collect="always"
       id="linearGradient864">
      <stop
         style="stop-color:#0058ff;stop-opacity:1"
         offset="0"
         id="stop860" />
      <stop
         style="stop-color:#001d76;stop-opacity:1"
         offset="1"
         id="stop862" />
    </linearGradient>
    <filter
       inkscape:collect="always"
       style="color-interpolation-filters:sRGB"
       id="filter845"
       x="-0.075"
       width="1.15"
       y="-0.075"
       height="1.15">
      <feGaussianBlur
         inkscape:collect="always"
         stdDeviation="0.875"
         id="feGaussianBlur847" />
    </filter>
    <radialGradient
       inkscape:collect="always"
       xlink:href="#linearGradient864"
       id="radialGradient868"
       cx="17.579666"
       cy="16.351151"
       fx="17.579666"
       fy="16.351151"
       r="14"
       gradientUnits="userSpaceOnUse"
       gradientTransform="matrix(-0.59688643,-0.64355356,2.1713956,-2.0139374,-7.4286508,60.020363)" />
  </defs>
  <sodipodi:namedview
     pagecolor="#ffffff"
     bordercolor="#666666"
     borderopacity="1"
     objecttolerance="10"
     gridtolerance="10"
     guidetolerance="10"
     inkscape:pageopacity="0"
     inkscape:pageshadow="2"
     inkscape:window-width="1920"
     inkscape:window-height="1000"
     id="namedview16"
     showgrid="false"
     inkscape:zoom="9.1371454"
     inkscape:cx="17.936304"
     inkscape:cy="9.5084039"
     inkscape:window-x="0"
     inkscape:window-y="0"
     inkscape:window-maximized="1"
     inkscape:current-layer="svg14" />
  <circle
     style="opacity:0.5;filter:url(#filter845)"
     cx="16"
     cy="16"
     r="14"
     id="circle2" />
  <circle
     style="fill:url(#radialGradient868);fill-opacity:1"
     cx="16"
     cy="16"
     r="14"
     id="circle4" />
  <path
     id="path857"
     style="fill:#ffffff"
     d="M 16.041016 7.609375 C 12.160648 7.5766402 8.2664646 7.7530765 4.4316406 8.3730469 C 3.4271056 8.5412758 2.4162104 8.6946698 1.4335938 8.9667969 C 4.7196098 8.5048074 8.0311438 8.1945336 11.349609 8.1210938 C 12.966144 8.1102766 14.584225 8.1608687 16.193359 8.3222656 C 16.139557 8.0848669 16.085136 7.8487673 16.041016 7.609375 z M 16.292969 8.6601562 C 14.109977 8.8653901 11.966912 9.3842627 9.8886719 10.072266 C 8.4520364 10.564998 7.0441885 11.140566 5.6855469 11.820312 C 5.2030628 12.062837 4.7135789 12.29787 4.2558594 12.585938 C 4.7722171 12.364478 5.2762081 12.113191 5.7988281 11.90625 C 9.196997 10.508611 12.799356 9.5302362 16.480469 9.3417969 C 16.409875 9.1166377 16.341359 8.8910085 16.292969 8.6601562 z " />
  <path
     id="path855"
     style="fill:#ffffff"
     d="M 30.513672 23.638672 C 30.709142 24.041102 30.991969 24.401821 31.076172 24.826172 C 30.888302 24.466373 30.752306 24.011297 30.537109 23.666016 C 30.53104 23.655563 30.519805 23.649085 30.513672 23.638672 z " />
  <path
     id="path853"
     style="fill:#ffffff"
     d="M 1.1972656 4.2753906 C 0.90606725 4.2776679 0.61356692 4.2879257 0.32421875 4.3242188 C 3.5282553 4.3820031 6.7411935 4.6434509 9.8789062 5.3183594 C 10.484929 5.3974925 11.071173 5.5801729 11.662109 5.7304688 C 11.948184 5.7979312 12.215634 5.9248915 12.5 5.9980469 C 12.975083 6.1184547 13.438528 6.2773904 13.908203 6.4160156 C 14.195416 6.5409782 14.505795 6.5967615 14.791016 6.7265625 C 15.217424 6.9078856 15.63466 7.112801 16.048828 7.3203125 C 16.102343 7.3561784 16.186085 7.3735409 16.201172 7.4472656 C 16.30877 7.8978689 16.365154 8.3594924 16.496094 8.8046875 C 16.742318 9.6381467 17.054854 10.457261 17.498047 11.207031 C 17.02638 11.431905 16.618387 11.772373 16.261719 12.150391 C 15.7539 12.709446 15.358536 13.382668 15.189453 14.123047 C 14.983085 14.880504 15.026602 15.913848 15.205078 16.671875 C 15.398927 17.350199 15.7446 17.844488 16.214844 18.371094 C 17.158178 19.445653 18.627367 20.069394 20.058594 19.904297 C 21.783297 19.765671 23.580504 20.041724 25.095703 20.908203 C 25.891304 21.368199 26.643058 21.934217 27.210938 22.664062 C 27.982627 23.541643 28.562941 24.641059 29.005859 25.71875 C 29.070759 25.881286 29.1288 26.048069 29.21875 26.199219 C 29.21875 25.997401 29.143632 25.809209 29.076172 25.623047 C 28.869799 25.072531 28.637186 24.460453 28.345703 23.949219 C 28.00156 23.33551 27.624374 22.734087 27.148438 22.212891 C 26.453603 21.376584 25.605957 20.661918 24.636719 20.164062 C 25.375674 20.259135 26.095209 20.473666 26.796875 20.71875 C 27.547785 20.987461 28.269817 21.343719 28.917969 21.810547 C 29.548788 22.321598 30.100444 22.937037 30.513672 23.638672 C 30.325222 23.250695 30.227375 22.819416 29.970703 22.494141 C 29.661572 22.092498 29.268516 21.770629 28.882812 21.447266 C 27.992707 20.744746 26.95591 20.249855 25.884766 19.890625 C 23.918678 19.245035 21.839114 18.996947 19.775391 18.998047 C 19.276682 19.000894 18.773794 18.934827 18.304688 18.759766 C 17.221589 18.370647 16.367142 17.553128 16.101562 16.433594 C 15.758273 15.217563 16.138259 13.607392 17.033203 12.720703 C 17.759634 11.978617 18.818689 11.554914 19.859375 11.65625 C 20.934503 11.733106 21.957256 12.10908 22.960938 12.476562 C 23.782157 12.79765 24.607352 13.114258 25.400391 13.501953 C 25.421171 13.731098 25.439468 13.966689 25.523438 14.183594 C 25.63616 14.405337 25.878553 14.511418 26.09375 14.611328 C 26.503648 14.795213 26.891536 14.960058 27.240234 15.244141 C 27.498412 15.452505 27.713329 15.707659 27.958984 15.929688 C 28.041853 15.796765 28.054672 15.76251 28.078125 15.716797 C 28.090629 15.703727 28.082247 15.718393 28.099609 15.699219 C 28.285201 15.504518 28.563666 15.466071 28.800781 15.347656 C 28.184795 15.193944 27.577748 14.971199 27.173828 14.466797 C 27.110117 14.388343 27.377306 14.45847 27.322266 14.335938 C 27.283258 14.231731 27.246599 14.172781 27.193359 14.082031 C 26.969907 13.751551 26.743363 13.423123 26.542969 13.078125 C 26.309555 13.074195 26.076311 13.072059 25.84375 13.068359 C 25.551414 12.723646 25.226049 12.40905 24.927734 12.070312 C 24.952784 12.256475 24.987712 12.440182 24.988281 12.628906 C 24.788456 12.514476 24.590301 12.396026 24.412109 12.25 C 24.217408 12.073801 24.036989 11.880788 23.845703 11.701172 C 23.870753 11.837521 23.897722 11.974411 23.919922 12.111328 C 23.526534 11.953631 23.157256 11.714843 22.880859 11.390625 C 22.876949 11.470897 22.874194 11.550299 22.871094 11.630859 C 22.625155 11.53664 22.384041 11.431297 22.138672 11.335938 C 21.520693 11.103661 20.908849 10.83688 20.255859 10.71875 C 19.536545 10.682599 18.774636 10.779803 18.09375 10.486328 C 17.624075 10.303296 17.240214 9.9335544 17.015625 9.484375 C 16.605442 8.7183776 16.66255 7.8096977 16.78125 6.9785156 C 16.25863 6.6318098 15.692871 6.3556072 15.111328 6.1230469 C 14.839486 6.0262652 14.584578 5.8837496 14.300781 5.8222656 C 13.276605 5.4843844 12.227726 5.2234687 11.167969 5.0273438 C 10.707403 4.9254385 10.237624 4.8775805 9.7773438 4.7753906 C 9.3369873 4.6905641 8.8905076 4.647264 8.4453125 4.59375 C 6.3303528 4.3498042 4.1986513 4.2585568 2.0703125 4.2773438 C 1.7795411 4.2794787 1.488464 4.2731134 1.1972656 4.2753906 z M 20.621094 9.3769531 C 21.006511 9.5503067 21.414019 9.6730464 21.796875 9.8535156 C 22.966223 10.36475 24.088431 11.000104 25.076172 11.8125 C 25.433409 12.108822 25.76772 12.435616 26.056641 12.798828 C 26.132643 12.881948 26.257829 12.818894 26.355469 12.833984 C 26.245594 12.631312 26.04466 12.501282 25.888672 12.337891 C 25.099618 11.563639 24.194046 10.910524 23.214844 10.398438 C 22.38964 9.970036 21.526569 9.5964192 20.621094 9.3769531 z M 26.597656 13.755859 C 27.124565 14.304842 26.582697 13.734068 27.080078 14.255859 C 27.093908 14.270369 27.089312 14.261864 27.070312 14.308594 C 26.910339 14.244834 26.755598 14.168818 26.599609 14.097656 C 26.598509 13.983226 26.597356 13.869719 26.597656 13.755859 z " />
</svg>
