<?xml version="1.0" encoding="UTF-8" standalone="no"?>
<svg
   xmlns:dc="http://purl.org/dc/elements/1.1/"
   xmlns:cc="http://creativecommons.org/ns#"
   xmlns:rdf="http://www.w3.org/1999/02/22-rdf-syntax-ns#"
   xmlns:svg="http://www.w3.org/2000/svg"
   xmlns="http://www.w3.org/2000/svg"
   xmlns:sodipodi="http://sodipodi.sourceforge.net/DTD/sodipodi-0.dtd"
   xmlns:inkscape="http://www.inkscape.org/namespaces/inkscape"
   inkscape:version="1.0.1 (3bc2e813f5, 2020-09-07)"
   sodipodi:docname="distributor-logo-zorin.svg"
   id="svg240"
   version="1.1"
   height="32"
   width="32">
  <metadata
     id="metadata246">
    <rdf:RDF>
      <cc:Work
         rdf:about="">
        <dc:format>image/svg+xml</dc:format>
        <dc:type
           rdf:resource="http://purl.org/dc/dcmitype/StillImage" />
      </cc:Work>
    </rdf:RDF>
  </metadata>
  <defs
     id="defs244">
    <filter
       height="1.1580357"
       y="-0.079017855"
       width="1.1427419"
       x="-0.07137097"
       id="filter7823"
       style="color-interpolation-filters:sRGB"
       inkscape:collect="always">
      <feGaussianBlur
         id="feGaussianBlur7825"
         stdDeviation="0.8326613"
         inkscape:collect="always" />
    </filter>
  </defs>
  <sodipodi:namedview
     inkscape:current-layer="svg240"
     inkscape:window-maximized="1"
     inkscape:window-y="0"
     inkscape:window-x="0"
     inkscape:cy="16"
     inkscape:cx="14.950131"
     inkscape:zoom="23.8125"
     showgrid="false"
     id="namedview242"
     inkscape:window-height="1000"
     inkscape:window-width="1920"
     inkscape:pageshadow="2"
     inkscape:pageopacity="0"
     guidetolerance="10"
     gridtolerance="10"
     objecttolerance="10"
     borderopacity="1"
     bordercolor="#666666"
     pagecolor="#ffffff"
     inkscape:document-rotation="0" />
  <path
     id="path230"
     d="m 10.19866,28.645162 c -0.7726127,0 -1.7204263,-0.553945 -2.1062275,-1.230985 L 2.2893503,17.230985 c -0.3858002,-0.677042 -0.3858002,-1.784929 0,-2.461969 L 8.0924325,4.5858234 C 8.4782337,3.9087816 9.4260473,3.3548383 10.19866,3.3548383 h 11.60268 c 0.772613,0 1.720427,0.5539434 2.106172,1.2309851 l 5.803137,10.1831926 c 0.385801,0.67704 0.385801,1.784927 0,2.461969 l -5.803081,10.183192 c -0.385745,0.67704 -1.333559,1.230985 -2.106172,1.230985 z"
     style="opacity:0.5;mix-blend-mode:normal;stroke-width:0.903226;filter:url(#filter7823)" />
  <path
     id="path232"
     d="m 10.19866,28.645162 c -0.7726127,0 -1.7204263,-0.553945 -2.1062275,-1.230985 L 2.2893503,17.230985 c -0.3858002,-0.677042 -0.3858002,-1.784929 0,-2.461969 L 8.0924325,4.5858233 C 8.4782337,3.9087815 9.4260473,3.3548382 10.19866,3.3548382 h 11.60268 c 0.772613,0 1.720427,0.5539433 2.106172,1.2309851 l 5.803137,10.1831927 c 0.385801,0.67704 0.385801,1.784927 0,2.461969 l -5.803081,10.183192 c -0.385745,0.67704 -1.333559,1.230985 -2.106172,1.230985 z"
     style="fill:#17b5f9;stroke-width:0.903226" />
  <path
     id="path238"
     d="M 6.2215223,7.8709677 4.1610384,11.483871 H 20.786038 L 3.9810989,20.19859 6.2215223,24.129033 H 25.778478 l 2.060484,-3.612904 h -16.625 l 16.80494,-8.714718 -2.240424,-3.9304433 z"
     style="fill:#ffffff;stroke-width:0.903226" />
</svg>
