<?xml version="1.0" encoding="UTF-8" standalone="no"?>
<svg
   xmlns:dc="http://purl.org/dc/elements/1.1/"
   xmlns:cc="http://creativecommons.org/ns#"
   xmlns:rdf="http://www.w3.org/1999/02/22-rdf-syntax-ns#"
   xmlns:svg="http://www.w3.org/2000/svg"
   xmlns="http://www.w3.org/2000/svg"
   xmlns:sodipodi="http://sodipodi.sourceforge.net/DTD/sodipodi-0.dtd"
   xmlns:inkscape="http://www.inkscape.org/namespaces/inkscape"
   inkscape:version="1.0.1 (3bc2e813f5, 2020-09-07)"
   sodipodi:docname="distributor-logo-ubuntu.svg"
   id="svg182"
   version="1.1"
   height="32"
   width="32">
  <metadata
     id="metadata188">
    <rdf:RDF>
      <cc:Work
         rdf:about="">
        <dc:format>image/svg+xml</dc:format>
        <dc:type
           rdf:resource="http://purl.org/dc/dcmitype/StillImage" />
      </cc:Work>
    </rdf:RDF>
  </metadata>
  <defs
     id="defs186">
    <filter
       inkscape:collect="always"
       style="color-interpolation-filters:sRGB"
       id="filter59626"
       x="-0.075"
       width="1.15"
       y="-0.075"
       height="1.15">
      <feGaussianBlur
         inkscape:collect="always"
         stdDeviation="0.875"
         id="feGaussianBlur59628" />
    </filter>
  </defs>
  <sodipodi:namedview
     inkscape:current-layer="svg182"
     inkscape:window-maximized="1"
     inkscape:window-y="0"
     inkscape:window-x="0"
     inkscape:cy="16"
     inkscape:cx="13.900262"
     inkscape:zoom="23.8125"
     showgrid="false"
     id="namedview184"
     inkscape:window-height="1000"
     inkscape:window-width="1920"
     inkscape:pageshadow="2"
     inkscape:pageopacity="0"
     guidetolerance="10"
     gridtolerance="10"
     objecttolerance="10"
     borderopacity="1"
     bordercolor="#666666"
     pagecolor="#ffffff"
     inkscape:document-rotation="0" />
  <path
     style="fill:#000000;fill-opacity:1;opacity:0.5;filter:url(#filter59626)"
     fill="#f56e2c"
     d="M 30,16 A 14,14 0 0 1 16,30 14,14 0 0 1 2,16 14,14 0 0 1 16,2 14,14 0 0 1 30,16 Z"
     id="path172-2" />
  <path
     id="path172"
     d="m30 16a14 14 0 0 1 -14 14 14 14 0 0 1 -14 -14 14 14 0 0 1 14 -14 14 14 0 0 1 14 14z"
     fill="#f56e2c" />
  <path
     id="path178"
     d="m23.93 15a8 8 0 0 0 -2.895 -5.1992c-0.325 0.1216-0.67 0.1992-1.035 0.1992-1.258 0-2.34-0.7945-2.783-1.9023a8 8 0 0 0 -1.217 -0.0977 8 8 0 0 0 -3.104 0.627l1.5215 2.6367a5 5 0 0 1 1.582 -0.264 5 5 0 0 1 4.8945 4h3.0352zm-0.002 2h-3.0293a5 5 0 0 1 -4.8984 4 5 5 0 0 1 -1.582 -0.26172l-1.5176 2.6289a8 8 0 0 0 3.099 0.633 8 8 0 0 0 1.221 -0.105c0.444-1.104 1.524-1.895 2.779-1.895 0.36611 0 0.71342 0.07673 1.0391 0.19922a8 8 0 0 0 2.889 -5.199zm-1.928-10a2 2 0 0 0 -2 -2 2 2 0 0 0 -2 2 2 2 0 0 0 2 2 2 2 0 0 0 2 -2zm0 18a2 2 0 0 0 -2 -2 2 2 0 0 0 -2 2 2 2 0 0 0 2 2 2 2 0 0 0 2 -2zm-9.312-12.736-1.518-2.6292a8 8 0 0 0 -2.918 4.4122c0.45895 0.52763 0.74805 1.2063 0.74805 1.9531 0 0.74588-0.28822 1.4238-0.74609 1.9512a8 8 0 0 0 2.9141 4.418l1.52-2.631a5 5 0 0 1 -1.688 -3.738 5 5 0 0 1 1.688 -3.736zm-4.688 3.736a2 2 0 0 0 -2 -2 2 2 0 0 0 -2 2 2 2 0 0 0 2 2 2 2 0 0 0 2 -2z"
     fill="#fff"
     style="fill:#ffffff;fill-opacity:1" />
</svg>
