<?xml version="1.0" encoding="UTF-8" standalone="no"?>
<svg
   xmlns:dc="http://purl.org/dc/elements/1.1/"
   xmlns:cc="http://creativecommons.org/ns#"
   xmlns:rdf="http://www.w3.org/1999/02/22-rdf-syntax-ns#"
   xmlns:svg="http://www.w3.org/2000/svg"
   xmlns="http://www.w3.org/2000/svg"
   xmlns:sodipodi="http://sodipodi.sourceforge.net/DTD/sodipodi-0.dtd"
   xmlns:inkscape="http://www.inkscape.org/namespaces/inkscape"
   inkscape:version="1.0.1 (3bc2e813f5, 2020-09-07)"
   sodipodi:docname="distributor-logo-ubuntu-mate.svg"
   id="svg12"
   version="1.1"
   height="32"
   width="32">
  <metadata
     id="metadata18">
    <rdf:RDF>
      <cc:Work
         rdf:about="">
        <dc:format>image/svg+xml</dc:format>
        <dc:type
           rdf:resource="http://purl.org/dc/dcmitype/StillImage" />
      </cc:Work>
    </rdf:RDF>
  </metadata>
  <defs
     id="defs16">
    <filter
       inkscape:collect="always"
       style="color-interpolation-filters:sRGB"
       id="filter59618"
       x="-0.075"
       width="1.15"
       y="-0.075"
       height="1.15">
      <feGaussianBlur
         inkscape:collect="always"
         stdDeviation="0.875"
         id="feGaussianBlur59620" />
    </filter>
  </defs>
  <sodipodi:namedview
     inkscape:current-layer="svg12"
     inkscape:window-maximized="1"
     inkscape:window-y="0"
     inkscape:window-x="0"
     inkscape:cy="16"
     inkscape:cx="23.929603"
     inkscape:zoom="24.375"
     showgrid="false"
     id="namedview14"
     inkscape:window-height="1000"
     inkscape:window-width="1920"
     inkscape:pageshadow="2"
     inkscape:pageopacity="0"
     guidetolerance="10"
     gridtolerance="10"
     objecttolerance="10"
     borderopacity="1"
     bordercolor="#666666"
     pagecolor="#ffffff"
     inkscape:document-rotation="0" />
  <circle
     id="circle2"
     r="14"
     cy="16"
     cx="16"
     style="opacity:0.5;filter:url(#filter59618)" />
  <circle
     id="circle4"
     r="14"
     cy="16"
     cx="16"
     style="fill:#7ea043" />
  <path
     id="path8"
     d="M 18 6 L 18 12 L 23 9 L 18 6 z M 16 7 A 9 9 0 0 0 7.59375 12.791016 L 8.4726562 13.318359 A 8 8 0 0 1 16 8 A 8 8 0 0 1 17 8.0703125 L 17 7.0664062 A 9 9 0 0 0 16 7 z M 16 10 A 6 6 0 0 0 10.226562 14.371094 L 11.125 14.908203 A 5 5 0 0 1 16 11 A 5 5 0 0 1 17 11.101562 L 17 10.085938 A 6 6 0 0 0 16 10 z M 22.900391 10.224609 L 22.023438 10.751953 A 8 8 0 0 1 24 16 A 8 8 0 0 1 22.029297 21.251953 L 22.894531 21.771484 A 9 9 0 0 0 25 16 A 9 9 0 0 0 22.900391 10.224609 z M 20.277344 11.798828 L 19.388672 12.332031 A 5 5 0 0 1 21 16 A 5 5 0 0 1 19.390625 19.667969 L 20.279297 20.203125 A 6 6 0 0 0 22 16 A 6 6 0 0 0 20.277344 11.798828 z M 6 13 L 6 19 L 11 16 L 6 13 z M 11.126953 17.089844 L 10.230469 17.626953 A 6 6 0 0 0 16 22 A 6 6 0 0 0 17 21.910156 L 17 20.894531 A 5 5 0 0 1 16 21 A 5 5 0 0 1 11.126953 17.089844 z M 8.4707031 18.683594 L 7.6015625 19.205078 A 9 9 0 0 0 16 25 A 9 9 0 0 0 17 24.939453 L 17 23.927734 A 8 8 0 0 1 16 24 A 8 8 0 0 1 8.4707031 18.683594 z M 18 20 L 18 26 L 23 23 L 18 20 z"
     style="fill:#ffffff" />
</svg>
