<?xml version="1.0" encoding="UTF-8" standalone="no"?>
<svg
   xmlns:dc="http://purl.org/dc/elements/1.1/"
   xmlns:cc="http://creativecommons.org/ns#"
   xmlns:rdf="http://www.w3.org/1999/02/22-rdf-syntax-ns#"
   xmlns:svg="http://www.w3.org/2000/svg"
   xmlns="http://www.w3.org/2000/svg"
   xmlns:sodipodi="http://sodipodi.sourceforge.net/DTD/sodipodi-0.dtd"
   xmlns:inkscape="http://www.inkscape.org/namespaces/inkscape"
   inkscape:version="1.0.1 (3bc2e813f5, 2020-09-07)"
   sodipodi:docname="com.dropbox.Client.svg"
   id="svg16"
   version="1"
   height="32"
   width="32">
  <metadata
     id="metadata22">
    <rdf:RDF>
      <cc:Work
         rdf:about="">
        <dc:format>image/svg+xml</dc:format>
        <dc:type
           rdf:resource="http://purl.org/dc/dcmitype/StillImage" />
      </cc:Work>
    </rdf:RDF>
  </metadata>
  <defs
     id="defs20">
    <filter
       inkscape:collect="always"
       style="color-interpolation-filters:sRGB"
       id="filter59610"
       x="-0.075"
       width="1.15"
       y="-0.075"
       height="1.15">
      <feGaussianBlur
         inkscape:collect="always"
         stdDeviation="0.875"
         id="feGaussianBlur59612" />
    </filter>
  </defs>
  <sodipodi:namedview
     inkscape:current-layer="svg16"
     inkscape:window-maximized="1"
     inkscape:window-y="0"
     inkscape:window-x="0"
     inkscape:cy="16"
     inkscape:cx="14.344763"
     inkscape:zoom="24.375"
     showgrid="false"
     id="namedview18"
     inkscape:window-height="1000"
     inkscape:window-width="1920"
     inkscape:pageshadow="2"
     inkscape:pageopacity="0"
     guidetolerance="10"
     gridtolerance="10"
     objecttolerance="10"
     borderopacity="1"
     bordercolor="#666666"
     pagecolor="#ffffff"
     inkscape:document-rotation="0" />
  <circle
     style="opacity:0.5;fill:#000000;fill-opacity:1;stroke:none;stroke-width:3.36813;filter:url(#filter59610)"
     id="path858-5"
     cx="16"
     cy="16"
     r="14" />
  <circle
     r="14"
     cy="16"
     cx="16"
     id="path858"
     style="opacity:1;fill:#ffffff;fill-opacity:1;stroke:none;stroke-width:3.36813" />
  <path
     id="path4"
     d="M 15.943081,17.429839 A 1.1429714,1.0476477 0 0 0 15.4375,17.563851 l -2.955357,1.530396 -0.893973,-0.115599 a 1.1429714,1.0476477 0 0 0 -1.302456,1.037313 v 1.629625 a 1.1429714,1.0476477 0 0 0 0.541295,0.890002 l 4.571429,2.593283 a 1.1429714,1.0476477 0 0 0 1.203125,0 l 4.571428,-2.593283 a 1.1429714,1.0476477 0 0 0 0.541295,-0.890002 v -1.786143 a 1.1429714,1.0476477 0 0 0 -1.581474,-0.967749 l -0.719865,0.274161 -2.815849,-1.582567 a 1.1429714,1.0476477 0 0 0 -0.654017,-0.153449 z"
     style="fill:#1383d9;stroke-width:0.714286" />
  <path
     d="M 11.714286,6.7142858 6,10.642857 9.9285714,13.857144 16,10.285714 Z M 16,10.285714 22.071428,13.857144 26,10.642857 20.285714,6.7142858 Z m 6.071428,3.57143 L 16,17.428572 20.285714,20.881418 26,17.071428 Z M 16,17.428572 9.9285714,13.857144 6,17.071428 11.714286,21 Z"
     style="fill:#5aacff;stroke-width:0.714286"
     id="path8" />
</svg>
