<?xml version="1.0" encoding="UTF-8" standalone="no"?>
<svg
   xmlns:dc="http://purl.org/dc/elements/1.1/"
   xmlns:cc="http://creativecommons.org/ns#"
   xmlns:rdf="http://www.w3.org/1999/02/22-rdf-syntax-ns#"
   xmlns:svg="http://www.w3.org/2000/svg"
   xmlns="http://www.w3.org/2000/svg"
   xmlns:xlink="http://www.w3.org/1999/xlink"
   xmlns:sodipodi="http://sodipodi.sourceforge.net/DTD/sodipodi-0.dtd"
   xmlns:inkscape="http://www.inkscape.org/namespaces/inkscape"
   inkscape:version="1.0.1 (3bc2e813f5, 2020-09-07)"
   sodipodi:docname="appimagekit-emacs.svg"
   id="svg12"
   version="1"
   height="32"
   width="32">
  <metadata
     id="metadata18">
    <rdf:RDF>
      <cc:Work
         rdf:about="">
        <dc:format>image/svg+xml</dc:format>
        <dc:type
           rdf:resource="http://purl.org/dc/dcmitype/StillImage" />
      </cc:Work>
    </rdf:RDF>
  </metadata>
  <defs
     id="defs16">
    <linearGradient
       id="linearGradient847"
       inkscape:collect="always">
      <stop
         id="stop843"
         offset="0"
         style="stop-color:#6966b2;stop-opacity:1;" />
      <stop
         id="stop845"
         offset="1"
         style="stop-color:#a53eda;stop-opacity:1" />
    </linearGradient>
    <linearGradient
       gradientUnits="userSpaceOnUse"
       y2="30"
       x2="30"
       y1="2"
       x1="2"
       id="linearGradient849"
       xlink:href="#linearGradient847"
       inkscape:collect="always" />
    <filter
       inkscape:collect="always"
       style="color-interpolation-filters:sRGB"
       id="filter59606"
       x="-0.075"
       width="1.15"
       y="-0.075"
       height="1.15">
      <feGaussianBlur
         inkscape:collect="always"
         stdDeviation="0.875"
         id="feGaussianBlur59608" />
    </filter>
  </defs>
  <sodipodi:namedview
     inkscape:current-layer="svg12"
     inkscape:window-maximized="1"
     inkscape:window-y="0"
     inkscape:window-x="0"
     inkscape:cy="16"
     inkscape:cx="13.948718"
     inkscape:zoom="24.375"
     showgrid="false"
     id="namedview14"
     inkscape:window-height="1001"
     inkscape:window-width="1920"
     inkscape:pageshadow="2"
     inkscape:pageopacity="0"
     guidetolerance="10"
     gridtolerance="10"
     objecttolerance="10"
     borderopacity="1"
     bordercolor="#666666"
     pagecolor="#ffffff"
     inkscape:document-rotation="0" />
  <rect
     style="fill:#000000;fill-opacity:1;opacity:0.5;filter:url(#filter59606)"
     width="28"
     height="28"
     x="2"
     y="2"
     rx="14"
     ry="14"
     id="rect2-8" />
  <rect
     id="rect2"
     ry="14"
     rx="14"
     y="2"
     x="2"
     height="28"
     width="28"
     style="fill:url(#linearGradient849);fill-opacity:1" />
  <path
     id="path10"
     d="m10.537 24.193s1.073 0.31156 2.5013 0.48967c0.57842 0.07213 2.7792 0.32424 4.4666 0.31764 0 0 2.0551 0.0019 3.1895-0.15882 1.187-0.16861 1.8594-0.3838 2.2337-0.81323 0.0098-0.10239 0.18064-0.43615-0.28076-0.75801-1.1796-0.82288-2.7045-1.0481-5.6665-1.7516-3.2754-0.82349-4.2542-1.6121-4.7433-2.1827-0.46362-0.57196 0.08703-1.7598 2.7263-2.3425 1.3363-0.32519 6.3132-0.38494 6.3132-0.38494-1.4279-1.1336-4.1085-3.1632-4.6564-3.5948-0.48056-0.37855-1.255-0.95947-1.3382-1.4786-0.11229-0.50534 0.68314-0.74866 1.1043-0.77673 1.3569-0.09358 3.2099 0.06551 4.8569 0.39304 0.8279 0.16464 0.97325 0.14038 0.97325 0.14038 1.1791 0.05615 2.0962-0.56149 2.0494-1.8623-0.0094-1.3195-1.3286-2.3776-2.7887-2.4238-1.375-0.043533-4.7633 0.19652-4.7633 0.19652 3.9492 0.81417 4.5948 1.0219 4.8008 1.4973 0.122 0.2809-0.203 0.56-1.291 0.5055-1.185-0.0594-3.613-0.3463-3.613-0.3463-2.311-0.3556-3.921-0.6925-4.623 0.2246-0.45854 0.59915 0.06552 1.3289 0.27139 1.7593 0.9171 1.6003 2.503 2.6982 3.5093 3.4719 0.37865 0.29113 1.5347 0.93582 1.5347 0.93582-3.5935-0.98261-6.4571-0.43048-8.2726 0.52406-2.0869 1.2353-1.7299 3.3198 1.5815 5.2687 1.9559 1.1511 2.9297 1.704 6.132 2.0972 1.8718 0.29846 2.1507 0.42058 2.1365 0.57638-0.02007 0.21936-2.2155 0.30248-2.8189 0.3441-1.5352 0.10587-5.5056 0.13234-5.5254 0.13234z"
     fill="#fff" />
</svg>
