<?xml version="1.0" encoding="UTF-8" standalone="no"?>
<svg
   xmlns:dc="http://purl.org/dc/elements/1.1/"
   xmlns:cc="http://creativecommons.org/ns#"
   xmlns:rdf="http://www.w3.org/1999/02/22-rdf-syntax-ns#"
   xmlns:svg="http://www.w3.org/2000/svg"
   xmlns="http://www.w3.org/2000/svg"
   xmlns:sodipodi="http://sodipodi.sourceforge.net/DTD/sodipodi-0.dtd"
   xmlns:inkscape="http://www.inkscape.org/namespaces/inkscape"
   inkscape:version="1.0.1 (3bc2e813f5, 2020-09-07)"
   sodipodi:docname="fbreader.svg"
   id="svg22"
   version="1"
   height="32"
   width="32">
  <metadata
     id="metadata28">
    <rdf:RDF>
      <cc:Work
         rdf:about="">
        <dc:format>image/svg+xml</dc:format>
        <dc:type
           rdf:resource="http://purl.org/dc/dcmitype/StillImage" />
      </cc:Work>
    </rdf:RDF>
  </metadata>
  <defs
     id="defs26">
    <filter
       inkscape:collect="always"
       style="color-interpolation-filters:sRGB"
       id="filter59582"
       x="-0.065625"
       width="1.13125"
       y="-0.0875"
       height="1.175">
      <feGaussianBlur
         inkscape:collect="always"
         stdDeviation="0.765625"
         id="feGaussianBlur59584" />
    </filter>
    <filter
       inkscape:collect="always"
       style="color-interpolation-filters:sRGB"
       id="filter865"
       x="-0.140625"
       width="1.28125"
       y="-0.051136364"
       height="1.1022727">
      <feGaussianBlur
         inkscape:collect="always"
         stdDeviation="0.234375"
         id="feGaussianBlur867" />
    </filter>
  </defs>
  <sodipodi:namedview
     inkscape:current-layer="svg22"
     inkscape:window-maximized="1"
     inkscape:window-y="0"
     inkscape:window-x="0"
     inkscape:cy="16"
     inkscape:cx="13.900262"
     inkscape:zoom="23.8125"
     showgrid="false"
     id="namedview24"
     inkscape:window-height="1000"
     inkscape:window-width="1920"
     inkscape:pageshadow="2"
     inkscape:pageopacity="0"
     guidetolerance="10"
     gridtolerance="10"
     objecttolerance="10"
     borderopacity="1"
     bordercolor="#666666"
     pagecolor="#ffffff"
     inkscape:document-rotation="0" />
  <rect
     id="rect2"
     ry="2.0999999"
     rx="2.0999999"
     y="6"
     x="2"
     height="21"
     width="28"
     style="opacity:0.5;filter:url(#filter59582)" />
  <rect
     id="rect4"
     ry="2.1"
     rx="2.1"
     y="6"
     x="2"
     height="21"
     width="28"
     style="fill:#dc4a3d" />
  <path
     id="path8"
     d="M 16,6 V 8.1 24.9 27 h 1.411765 6.352941 2.117647 C 27.055529,27 28,26.0634 28,24.9 V 8.1 C 28,6.9366 27.055529,6 25.882353,6 h -2.117647 -6.352941 z"
     style="fill:#e5e5e5;fill-opacity:1" />
  <path
     id="path10"
     d="m 18,9 v 1 h 8 V 9 Z m 0,3 v 1 h 8 v -1 z m 0,3.001 v 1 h 8 v -1 z M 18,18 v 1 h 8 v -1 z m 0,3 v 1 h 8 v -1 z m 0,3 v 1 h 8 v -1 z"
     style="opacity:0.2" />
  <path
     id="path12"
     d="M 20,6.6875 C 20,6.6875 20,6 22,6 c 2,0 2,0.6875 2,0.6875 V 17 L 22,15.96875 20,17 Z"
     style="opacity:0.5;filter:url(#filter865)" />
  <path
     id="path14"
     d="M 20,5.6875 C 20,5.6875 20,5 22,5 c 2,0 2,0.6875 2,0.6875 V 16 L 22,14.96875 20,16 Z"
     style="fill:#dc4a3d" />
  <path
     id="path16"
     d="M 16,6 V 8.1 24.9 27 H 14.588235 8.2352941 6.1176471 C 4.9444706,27 4,26.0634 4,24.9 V 8.1 C 4,6.9366 4.9444706,6 6.1176471,6 h 2.117647 6.3529409 z"
     style="fill:#d9d9d9;fill-opacity:1" />
  <path
     id="path16-3"
     d="M 16,6 V 8.1 24.9 27 H 14.82353 9.5294123 7.7647064 C 6.7870593,27 6.0000004,26.0634 6.0000004,24.9 V 8.1 c 0,-1.1634 0.7870589,-2.1 1.764706,-2.1 H 9.5294123 14.82353 Z"
     style="fill:#e5e5e5;stroke-width:0.912871;fill-opacity:1" />
  <path
     id="path16-3-6"
     d="M 16,6 V 8.1 24.9 27 H 15.058824 10.82353 9.411765 C 8.629647,27 7.9999996,26.0634 7.9999996,24.9 V 8.1 C 7.9999996,6.9366 8.629647,6 9.411765,6 h 1.411765 4.235294 z"
     style="fill:#ffffff;stroke-width:0.816497;fill-opacity:1" />
  <path
     id="path18"
     d="m 9,9 v 1 h 6 V 9 Z m 0,3 v 1 h 6 v -1 z m 0,3.001 v 1 h 6 v -1 z M 9,18 v 1 h 6 v -1 z m 0,3 v 1 h 6 v -1 z m 0,3 v 1 h 6 v -1 z"
     style="opacity:0.2;stroke-width:0.866026" />
</svg>
