<?xml version="1.0" encoding="UTF-8" standalone="no"?>
<svg
   xmlns:dc="http://purl.org/dc/elements/1.1/"
   xmlns:cc="http://creativecommons.org/ns#"
   xmlns:rdf="http://www.w3.org/1999/02/22-rdf-syntax-ns#"
   xmlns:svg="http://www.w3.org/2000/svg"
   xmlns="http://www.w3.org/2000/svg"
   xmlns:sodipodi="http://sodipodi.sourceforge.net/DTD/sodipodi-0.dtd"
   xmlns:inkscape="http://www.inkscape.org/namespaces/inkscape"
   inkscape:version="1.0.1 (3bc2e813f5, 2020-09-07)"
   sodipodi:docname="filezilla.svg"
   id="svg12"
   version="1"
   height="32"
   width="32">
  <metadata
     id="metadata18">
    <rdf:RDF>
      <cc:Work
         rdf:about="">
        <dc:format>image/svg+xml</dc:format>
        <dc:type
           rdf:resource="http://purl.org/dc/dcmitype/StillImage" />
      </cc:Work>
    </rdf:RDF>
  </metadata>
  <defs
     id="defs16">
    <filter
       height="1.2160043"
       y="-0.10800213"
       width="1.2159957"
       x="-0.10799787"
       id="filter843"
       style="color-interpolation-filters:sRGB"
       inkscape:collect="always">
      <feGaussianBlur
         id="feGaussianBlur845"
         stdDeviation="0.81001597"
         inkscape:collect="always" />
    </filter>
    <filter
       inkscape:collect="always"
       style="color-interpolation-filters:sRGB"
       id="filter59578"
       x="-0.075"
       width="1.15"
       y="-0.075"
       height="1.15">
      <feGaussianBlur
         inkscape:collect="always"
         stdDeviation="0.875"
         id="feGaussianBlur59580" />
    </filter>
  </defs>
  <sodipodi:namedview
     inkscape:current-layer="svg12"
     inkscape:window-maximized="1"
     inkscape:window-y="0"
     inkscape:window-x="0"
     inkscape:cy="16"
     inkscape:cx="14.950131"
     inkscape:zoom="23.8125"
     showgrid="false"
     id="namedview14"
     inkscape:window-height="1000"
     inkscape:window-width="1920"
     inkscape:pageshadow="2"
     inkscape:pageopacity="0"
     guidetolerance="10"
     gridtolerance="10"
     objecttolerance="10"
     borderopacity="1"
     bordercolor="#666666"
     pagecolor="#ffffff"
     inkscape:document-rotation="0" />
  <rect
     style="fill:#000000;fill-opacity:1;opacity:0.5;filter:url(#filter59578)"
     fill="#d95951"
     width="28"
     height="28"
     x="2"
     y="2"
     rx="1.5"
     ry="1.5"
     id="rect2-3" />
  <rect
     style="fill:#bc0d13;fill-opacity:1"
     id="rect2"
     ry="1.5"
     rx="1.5"
     y="2"
     x="2"
     height="28"
     width="28"
     fill="#d95951" />
  <path
     style="filter:url(#filter843);opacity:0.5"
     id="path6"
     d="m10.648 8-3.648 16.184h2.9644l1.722-7.2426h8.092l-7.5781 6.7836 1.976 2.275 1.012-0.521c1.9135-0.98386 2.7161-0.40858 4.1679-0.0058 1.4124 0.39196 2.7401 0.81146 5.4949-0.77642l-0.54706-2.8026c-3.0064 2.1376-3.9575 0.23044-6.0987 0.15473l6.1302-5.1871 0.66517-2.769h-12.841l0.8266-3.3233h8.4165l0.57719-2.769h-11.331z"
     opacity=".2" />
  <path
     id="path8"
     d="m10.648 7.0001-3.648 16.184h2.9644l1.722-7.2426h8.092l-7.5781 6.7836 1.976 2.275 1.012-0.521c1.9135-0.98386 2.7161-0.40858 4.1679-0.0058 1.4124 0.39196 2.7401 0.81146 5.4949-0.77642l-0.54706-2.8026c-3.0064 2.1376-3.9575 0.23044-6.0987 0.15473l6.1302-5.1871 0.66517-2.769h-12.841l0.8266-3.3233h8.4165l0.57719-2.769h-11.331z"
     fill="#fff" />
</svg>
