<?xml version="1.0" encoding="UTF-8" standalone="no"?>
<svg
   xmlns:dc="http://purl.org/dc/elements/1.1/"
   xmlns:cc="http://creativecommons.org/ns#"
   xmlns:rdf="http://www.w3.org/1999/02/22-rdf-syntax-ns#"
   xmlns:svg="http://www.w3.org/2000/svg"
   xmlns="http://www.w3.org/2000/svg"
   xmlns:sodipodi="http://sodipodi.sourceforge.net/DTD/sodipodi-0.dtd"
   xmlns:inkscape="http://www.inkscape.org/namespaces/inkscape"
   inkscape:version="1.0.1 (3bc2e813f5, 2020-09-07)"
   sodipodi:docname="firefox.svg"
   id="svg23"
   version="1"
   height="32"
   width="32">
  <metadata
     id="metadata29">
    <rdf:RDF>
      <cc:Work
         rdf:about="">
        <dc:format>image/svg+xml</dc:format>
        <dc:type
           rdf:resource="http://purl.org/dc/dcmitype/StillImage" />
      </cc:Work>
    </rdf:RDF>
  </metadata>
  <defs
     id="defs27">
    <linearGradient
       gradientTransform="matrix(0.35014453,0,0,0.35014453,1.9909934,1.9983197)"
       gradientUnits="userSpaceOnUse"
       y2="66.806"
       x2="15.267"
       y1="12.061"
       x1="70.013"
       id="l">
      <stop
         id="stop969"
         stop-opacity=".8"
         stop-color="#fff44f"
         offset=".167" />
      <stop
         id="stop971"
         stop-opacity=".634"
         stop-color="#fff44f"
         offset=".266" />
      <stop
         id="stop973"
         stop-opacity=".217"
         stop-color="#fff44f"
         offset=".489" />
      <stop
         id="stop975"
         stop-opacity="0"
         stop-color="#fff44f"
         offset=".6" />
    </linearGradient>
    <radialGradient
       gradientUnits="userSpaceOnUse"
       gradientTransform="matrix(0.35014453,0,0,0.35014453,2794.3936,2986.6302)"
       r="80.685997"
       cy="-8503.8613"
       cx="-7918.9229"
       id="k">
      <stop
         id="stop960"
         stop-color="#fff44f"
         offset=".094" />
      <stop
         id="stop962"
         stop-color="#ffe141"
         offset=".231" />
      <stop
         id="stop964"
         stop-color="#ffaf1e"
         offset=".509" />
      <stop
         id="stop966"
         stop-color="#ff980e"
         offset=".626" />
    </radialGradient>
    <radialGradient
       gradientUnits="userSpaceOnUse"
       gradientTransform="matrix(0.35014453,0,0,0.35014453,2794.3936,2986.6302)"
       r="73.720001"
       cy="-8508.1758"
       cx="-7938.3828"
       id="j">
      <stop
         id="stop949"
         stop-color="#fff44f"
         offset=".137" />
      <stop
         id="stop951"
         stop-color="#ff980e"
         offset=".48" />
      <stop
         id="stop953"
         stop-color="#ff5634"
         offset=".592" />
      <stop
         id="stop955"
         stop-color="#ff3647"
         offset=".655" />
      <stop
         id="stop957"
         stop-color="#e31587"
         offset=".904" />
    </radialGradient>
    <radialGradient
       gradientUnits="userSpaceOnUse"
       gradientTransform="matrix(0.03676518,0.34839381,-0.22864438,0.02415997,-1638.0874,2967.7893)"
       r="86.499001"
       cy="-8522.8594"
       cx="-7927.165"
       id="i">
      <stop
         id="stop932"
         stop-color="#fff44f"
         offset="0" />
      <stop
         id="stop934"
         stop-color="#ffe847"
         offset=".06" />
      <stop
         id="stop936"
         stop-color="#ffc830"
         offset=".168" />
      <stop
         id="stop938"
         stop-color="#ff980e"
         offset=".304" />
      <stop
         id="stop940"
         stop-color="#ff8b16"
         offset=".356" />
      <stop
         id="stop942"
         stop-color="#ff672a"
         offset=".455" />
      <stop
         id="stop944"
         stop-color="#ff3647"
         offset=".57" />
      <stop
         id="stop946"
         stop-color="#e31587"
         offset=".737" />
    </radialGradient>
    <radialGradient
       gradientUnits="userSpaceOnUse"
       gradientTransform="matrix(0.35014453,0,0,0.35014453,2794.3936,2986.6302)"
       r="118.081"
       cy="-8535.9814"
       cx="-7915.9771"
       id="h">
      <stop
         id="stop921"
         stop-color="#fff44f"
         offset=".113" />
      <stop
         id="stop923"
         stop-color="#ff980e"
         offset=".456" />
      <stop
         id="stop925"
         stop-color="#ff5634"
         offset=".622" />
      <stop
         id="stop927"
         stop-color="#ff3647"
         offset=".716" />
      <stop
         id="stop929"
         stop-color="#e31587"
         offset=".904" />
    </radialGradient>
    <radialGradient
       gradientUnits="userSpaceOnUse"
       gradientTransform="matrix(0.35014453,0,0,0.35014453,2794.3936,2986.6302)"
       r="27.676001"
       cy="-8518.4268"
       cx="-7937.731"
       id="g">
      <stop
         id="stop908"
         stop-color="#ffe226"
         offset="0" />
      <stop
         id="stop910"
         stop-color="#ffdb27"
         offset=".121" />
      <stop
         id="stop912"
         stop-color="#ffc82a"
         offset=".295" />
      <stop
         id="stop914"
         stop-color="#ffa930"
         offset=".502" />
      <stop
         id="stop916"
         stop-color="#ff7e37"
         offset=".732" />
      <stop
         id="stop918"
         stop-color="#ff7139"
         offset=".792" />
    </radialGradient>
    <radialGradient
       gradientUnits="userSpaceOnUse"
       gradientTransform="matrix(0.34034048,-0.08228396,0.09628975,0.39846448,3535.4051,2744.9598)"
       r="20.396999"
       cy="-8491.5459"
       cx="-7935.6201"
       id="f">
      <stop
         id="stop899"
         stop-opacity="0"
         stop-color="#9059ff"
         offset=".206" />
      <stop
         id="stop901"
         stop-opacity=".064"
         stop-color="#8c4ff3"
         offset=".278" />
      <stop
         id="stop903"
         stop-opacity=".45"
         stop-color="#7716a8"
         offset=".747" />
      <stop
         id="stop905"
         stop-opacity=".6"
         stop-color="#6e008b"
         offset=".975" />
    </radialGradient>
    <radialGradient
       gradientUnits="userSpaceOnUse"
       gradientTransform="matrix(0.35014453,0,0,0.35014453,2794.3936,2986.6302)"
       r="38.471001"
       cy="-8460.9844"
       cx="-7945.6479"
       id="e">
      <stop
         id="stop890"
         stop-color="#3a8ee6"
         offset=".353" />
      <stop
         id="stop892"
         stop-color="#5c79f0"
         offset=".472" />
      <stop
         id="stop894"
         stop-color="#9059ff"
         offset=".669" />
      <stop
         id="stop896"
         stop-color="#c139e6"
         offset="1" />
    </radialGradient>
    <radialGradient
       gradientUnits="userSpaceOnUse"
       gradientTransform="matrix(0.35014453,0,0,0.35014453,2794.3936,2986.6302)"
       r="58.534"
       cy="-8533.457"
       cx="-7926.9702"
       id="d">
      <stop
         id="stop881"
         stop-color="#fff44f"
         offset=".132" />
      <stop
         id="stop883"
         stop-color="#ffdc3e"
         offset=".252" />
      <stop
         id="stop885"
         stop-color="#ff9d12"
         offset=".506" />
      <stop
         id="stop887"
         stop-color="#ff980e"
         offset=".526" />
    </radialGradient>
    <radialGradient
       gradientUnits="userSpaceOnUse"
       gradientTransform="matrix(0.35014453,0,0,0.35014453,2794.3936,2986.6302)"
       r="80.796997"
       cy="-8482.0889"
       cx="-7936.7109"
       id="c">
      <stop
         id="stop870"
         stop-color="#960e18"
         offset=".3" />
      <stop
         id="stop872"
         stop-opacity=".74"
         stop-color="#b11927"
         offset=".351" />
      <stop
         id="stop874"
         stop-opacity=".343"
         stop-color="#db293d"
         offset=".435" />
      <stop
         id="stop876"
         stop-opacity=".094"
         stop-color="#f5334b"
         offset=".497" />
      <stop
         id="stop878"
         stop-opacity="0"
         stop-color="#ff3750"
         offset=".53" />
    </radialGradient>
    <radialGradient
       gradientUnits="userSpaceOnUse"
       gradientTransform="matrix(0.35014453,0,0,0.35014453,2794.3936,2986.6302)"
       r="80.796997"
       cy="-8515.1211"
       cx="-7907.187"
       id="b">
      <stop
         id="stop851"
         stop-color="#ffbd4f"
         offset=".129" />
      <stop
         id="stop853"
         stop-color="#ffac31"
         offset=".186" />
      <stop
         id="stop855"
         stop-color="#ff9d17"
         offset=".247" />
      <stop
         id="stop857"
         stop-color="#ff980e"
         offset=".283" />
      <stop
         id="stop859"
         stop-color="#ff563b"
         offset=".403" />
      <stop
         id="stop861"
         stop-color="#ff3750"
         offset=".467" />
      <stop
         id="stop863"
         stop-color="#f5156c"
         offset=".71" />
      <stop
         id="stop865"
         stop-color="#eb0878"
         offset=".782" />
      <stop
         id="stop867"
         stop-color="#e50080"
         offset=".86" />
    </radialGradient>
    <linearGradient
       gradientTransform="matrix(0.35014453,0,0,0.35014453,1.9909934,1.9983197)"
       gradientUnits="userSpaceOnUse"
       y2="74.468002"
       x2="6.447"
       y1="12.393"
       x1="70.786003"
       id="a">
      <stop
         id="stop834"
         stop-color="#fff44f"
         offset=".048" />
      <stop
         id="stop836"
         stop-color="#ffe847"
         offset=".111" />
      <stop
         id="stop838"
         stop-color="#ffc830"
         offset=".225" />
      <stop
         id="stop840"
         stop-color="#ff980e"
         offset=".368" />
      <stop
         id="stop842"
         stop-color="#ff8b16"
         offset=".401" />
      <stop
         id="stop844"
         stop-color="#ff672a"
         offset=".462" />
      <stop
         id="stop846"
         stop-color="#ff3647"
         offset=".534" />
      <stop
         id="stop848"
         stop-color="#e31587"
         offset=".705" />
    </linearGradient>
    <linearGradient
       id="l-7"
       x1="70.013"
       y1="12.061"
       x2="15.267"
       y2="66.806"
       gradientUnits="userSpaceOnUse"
       gradientTransform="matrix(0.35014453,0,0,0.35014453,14.589441,2.5022534)">
      <stop
         offset=".167"
         stop-color="#fff44f"
         stop-opacity=".8"
         id="stop969-0" />
      <stop
         offset=".266"
         stop-color="#fff44f"
         stop-opacity=".634"
         id="stop971-2" />
      <stop
         offset=".489"
         stop-color="#fff44f"
         stop-opacity=".217"
         id="stop973-4" />
      <stop
         offset=".6"
         stop-color="#fff44f"
         stop-opacity="0"
         id="stop975-6" />
    </linearGradient>
    <radialGradient
       id="k-4"
       cx="-7918.9229"
       cy="-8503.8613"
       r="80.685997"
       gradientTransform="matrix(0.35014453,0,0,0.35014453,2806.992,2987.1342)"
       gradientUnits="userSpaceOnUse">
      <stop
         offset=".094"
         stop-color="#fff44f"
         id="stop960-9" />
      <stop
         offset=".231"
         stop-color="#ffe141"
         id="stop962-7" />
      <stop
         offset=".509"
         stop-color="#ffaf1e"
         id="stop964-4" />
      <stop
         offset=".626"
         stop-color="#ff980e"
         id="stop966-2" />
    </radialGradient>
    <radialGradient
       id="j-4"
       cx="-7938.3828"
       cy="-8508.1758"
       r="73.720001"
       gradientTransform="matrix(0.35014453,0,0,0.35014453,2806.992,2987.1342)"
       gradientUnits="userSpaceOnUse">
      <stop
         offset=".137"
         stop-color="#fff44f"
         id="stop949-7" />
      <stop
         offset=".48"
         stop-color="#ff980e"
         id="stop951-7" />
      <stop
         offset=".592"
         stop-color="#ff5634"
         id="stop953-4" />
      <stop
         offset=".655"
         stop-color="#ff3647"
         id="stop955-9" />
      <stop
         offset=".904"
         stop-color="#e31587"
         id="stop957-0" />
    </radialGradient>
    <radialGradient
       id="i-4"
       cx="-7927.165"
       cy="-8522.8594"
       r="86.499001"
       gradientTransform="matrix(0.03676518,0.34839381,-0.22864438,0.02415997,-1625.489,2968.2933)"
       gradientUnits="userSpaceOnUse">
      <stop
         offset="0"
         stop-color="#fff44f"
         id="stop932-2" />
      <stop
         offset=".06"
         stop-color="#ffe847"
         id="stop934-4" />
      <stop
         offset=".168"
         stop-color="#ffc830"
         id="stop936-1" />
      <stop
         offset=".304"
         stop-color="#ff980e"
         id="stop938-7" />
      <stop
         offset=".356"
         stop-color="#ff8b16"
         id="stop940-2" />
      <stop
         offset=".455"
         stop-color="#ff672a"
         id="stop942-0" />
      <stop
         offset=".57"
         stop-color="#ff3647"
         id="stop944-9" />
      <stop
         offset=".737"
         stop-color="#e31587"
         id="stop946-2" />
    </radialGradient>
    <radialGradient
       id="h-7"
       cx="-7915.9771"
       cy="-8535.9814"
       r="118.081"
       gradientTransform="matrix(0.35014453,0,0,0.35014453,2806.992,2987.1342)"
       gradientUnits="userSpaceOnUse">
      <stop
         offset=".113"
         stop-color="#fff44f"
         id="stop921-6" />
      <stop
         offset=".456"
         stop-color="#ff980e"
         id="stop923-0" />
      <stop
         offset=".622"
         stop-color="#ff5634"
         id="stop925-9" />
      <stop
         offset=".716"
         stop-color="#ff3647"
         id="stop927-1" />
      <stop
         offset=".904"
         stop-color="#e31587"
         id="stop929-8" />
    </radialGradient>
    <radialGradient
       id="g-9"
       cx="-7937.731"
       cy="-8518.4268"
       r="27.676001"
       gradientTransform="matrix(0.35014453,0,0,0.35014453,2806.992,2987.1342)"
       gradientUnits="userSpaceOnUse">
      <stop
         offset="0"
         stop-color="#ffe226"
         id="stop908-3" />
      <stop
         offset=".121"
         stop-color="#ffdb27"
         id="stop910-2" />
      <stop
         offset=".295"
         stop-color="#ffc82a"
         id="stop912-5" />
      <stop
         offset=".502"
         stop-color="#ffa930"
         id="stop914-9" />
      <stop
         offset=".732"
         stop-color="#ff7e37"
         id="stop916-7" />
      <stop
         offset=".792"
         stop-color="#ff7139"
         id="stop918-4" />
    </radialGradient>
    <radialGradient
       id="f-8"
       cx="-7935.6201"
       cy="-8491.5459"
       r="20.396999"
       gradientTransform="matrix(0.34034048,-0.08228396,0.09628975,0.39846448,3548.0035,2745.4638)"
       gradientUnits="userSpaceOnUse">
      <stop
         offset=".206"
         stop-color="#9059ff"
         stop-opacity="0"
         id="stop899-3" />
      <stop
         offset=".278"
         stop-color="#8c4ff3"
         stop-opacity=".064"
         id="stop901-8" />
      <stop
         offset=".747"
         stop-color="#7716a8"
         stop-opacity=".45"
         id="stop903-2" />
      <stop
         offset=".975"
         stop-color="#6e008b"
         stop-opacity=".6"
         id="stop905-2" />
    </radialGradient>
    <radialGradient
       id="e-5"
       cx="-7945.6479"
       cy="-8460.9844"
       r="38.471001"
       gradientTransform="matrix(0.35014453,0,0,0.35014453,2806.992,2987.1342)"
       gradientUnits="userSpaceOnUse">
      <stop
         offset=".353"
         stop-color="#3a8ee6"
         id="stop890-8" />
      <stop
         offset=".472"
         stop-color="#5c79f0"
         id="stop892-3" />
      <stop
         offset=".669"
         stop-color="#9059ff"
         id="stop894-7" />
      <stop
         offset="1"
         stop-color="#c139e6"
         id="stop896-3" />
    </radialGradient>
    <radialGradient
       id="d-5"
       cx="-7926.9702"
       cy="-8533.457"
       r="58.534"
       gradientTransform="matrix(0.35014453,0,0,0.35014453,2806.992,2987.1342)"
       gradientUnits="userSpaceOnUse">
      <stop
         offset=".132"
         stop-color="#fff44f"
         id="stop881-3" />
      <stop
         offset=".252"
         stop-color="#ffdc3e"
         id="stop883-6" />
      <stop
         offset=".506"
         stop-color="#ff9d12"
         id="stop885-5" />
      <stop
         offset=".526"
         stop-color="#ff980e"
         id="stop887-7" />
    </radialGradient>
    <radialGradient
       id="c-7"
       cx="-7936.7109"
       cy="-8482.0889"
       r="80.796997"
       gradientTransform="matrix(0.35014453,0,0,0.35014453,2806.992,2987.1342)"
       gradientUnits="userSpaceOnUse">
      <stop
         offset=".3"
         stop-color="#960e18"
         id="stop870-4" />
      <stop
         offset=".351"
         stop-color="#b11927"
         stop-opacity=".74"
         id="stop872-9" />
      <stop
         offset=".435"
         stop-color="#db293d"
         stop-opacity=".343"
         id="stop874-6" />
      <stop
         offset=".497"
         stop-color="#f5334b"
         stop-opacity=".094"
         id="stop876-0" />
      <stop
         offset=".53"
         stop-color="#ff3750"
         stop-opacity="0"
         id="stop878-1" />
    </radialGradient>
    <radialGradient
       id="b-8"
       cx="-7907.187"
       cy="-8515.1211"
       r="80.796997"
       gradientTransform="matrix(0.35014453,0,0,0.35014453,2806.992,2987.1342)"
       gradientUnits="userSpaceOnUse">
      <stop
         offset=".129"
         stop-color="#ffbd4f"
         id="stop851-4" />
      <stop
         offset=".186"
         stop-color="#ffac31"
         id="stop853-2" />
      <stop
         offset=".247"
         stop-color="#ff9d17"
         id="stop855-7" />
      <stop
         offset=".283"
         stop-color="#ff980e"
         id="stop857-7" />
      <stop
         offset=".403"
         stop-color="#ff563b"
         id="stop859-4" />
      <stop
         offset=".467"
         stop-color="#ff3750"
         id="stop861-4" />
      <stop
         offset=".71"
         stop-color="#f5156c"
         id="stop863-9" />
      <stop
         offset=".782"
         stop-color="#eb0878"
         id="stop865-3" />
      <stop
         offset=".86"
         stop-color="#e50080"
         id="stop867-9" />
    </radialGradient>
    <linearGradient
       id="a-7"
       x1="70.786003"
       y1="12.393"
       x2="6.447"
       y2="74.468002"
       gradientUnits="userSpaceOnUse"
       gradientTransform="matrix(0.35014453,0,0,0.35014453,14.589441,2.5022534)">
      <stop
         offset=".048"
         stop-color="#fff44f"
         id="stop834-6" />
      <stop
         offset=".111"
         stop-color="#ffe847"
         id="stop836-7" />
      <stop
         offset=".225"
         stop-color="#ffc830"
         id="stop838-2" />
      <stop
         offset=".368"
         stop-color="#ff980e"
         id="stop840-9" />
      <stop
         offset=".401"
         stop-color="#ff8b16"
         id="stop842-5" />
      <stop
         offset=".462"
         stop-color="#ff672a"
         id="stop844-0" />
      <stop
         offset=".534"
         stop-color="#ff3647"
         id="stop846-4" />
      <stop
         offset=".705"
         stop-color="#e31587"
         id="stop848-2" />
    </linearGradient>
    <filter
       inkscape:collect="always"
       style="color-interpolation-filters:sRGB"
       id="filter59574"
       x="-0.076234782"
       width="1.1524696"
       y="-0.07380458"
       height="1.1476092">
      <feGaussianBlur
         inkscape:collect="always"
         stdDeviation="0.86106563"
         id="feGaussianBlur59576" />
    </filter>
  </defs>
  <sodipodi:namedview
     inkscape:current-layer="svg23"
     inkscape:window-maximized="1"
     inkscape:window-y="0"
     inkscape:window-x="0"
     inkscape:cy="16"
     inkscape:cx="14.950131"
     inkscape:zoom="23.8125"
     showgrid="false"
     id="namedview25"
     inkscape:window-height="1000"
     inkscape:window-width="1920"
     inkscape:pageshadow="2"
     inkscape:pageopacity="0"
     guidetolerance="10"
     gridtolerance="10"
     objecttolerance="10"
     borderopacity="1"
     bordercolor="#666666"
     pagecolor="#ffffff"
     inkscape:document-rotation="0" />
  <path
     d="m 20.245157,1.9999269 a 0.04831995,0.04831995 0 0 0 -0.0078,0.00195 c -0.0018,0 -0.0037,0.00321 -0.0059,0.00391 -0.0021,7e-4 -0.0067,0.00251 -0.0098,0.00391 l 0.0039,-0.00781 C 20.012516,2.1266259 19.808015,2.257319 19.612276,2.394465 16.676179,4.4516557 15.653473,7.8083907 15.553682,9.5409495 a 6.788252,6.788252 0 0 0 -3.732422,1.4374995 4.0571247,4.0571247 0 0 0 -0.07422,-0.05859 4.0571247,4.0571247 0 0 0 -0.05859,-0.04687 4.0571247,4.0571247 0 0 0 -0.107421,-0.08008 4.0571247,4.0571247 0 0 0 -0.02344,-0.01758 4.0571247,4.0571247 0 0 0 -0.0059,-0.0039 4.0571247,4.0571247 0 0 0 -0.07813,-0.05469 c -10e-4,-7.1e-4 -0.0029,-0.0012 -0.0039,-0.002 a 6.2913969,6.2913969 0 0 1 -0.203125,-1.0332025 6.2913969,6.2913969 0 0 1 0,-0.002 6.2913969,6.2913969 0 0 1 0.0098,-1.4726565 6.2913969,6.2913969 0 0 1 0.0293,-0.2089844 6.2913969,6.2913969 0 0 1 0.126953,-0.6015625 10.050899,10.050899 0 0 0 -0.0039,0.00195 6.2913969,6.2913969 0 0 1 0,-0.00195 10.050899,10.050899 0 0 0 -0.236328,0.1210938 10.050899,10.050899 0 0 0 -0.002,0 10.050899,10.050899 0 0 0 -0.234374,0.125 10.050899,10.050899 0 0 0 -0.230469,0.1308594 10.050899,10.050899 0 0 0 -0.002,0 10.050899,10.050899 0 0 0 -0.449219,0.2832031 10.050899,10.050899 0 0 0 -0.002,0 10.050899,10.050899 0 0 0 -0.220703,0.1484375 10.050899,10.050899 0 0 0 -0.2148438,0.15625 10.050899,10.050899 0 0 0 -0.00195,0 10.050899,10.050899 0 0 0 -0.212891,0.1621094 10.050899,10.050899 0 0 0 -0.207031,0.1660156 10.050899,10.050899 0 0 0 -0.203125,0.171875 10.050899,10.050899 0 0 0 -0.199219,0.1777344 10.050899,10.050899 0 0 0 -0.191406,0.1835937 10.050899,10.050899 0 0 0 -0.00195,0 10.050899,10.050899 0 0 0 -0.1875,0.1875 10.050899,10.050899 0 0 0 -0.00195,0 10.050899,10.050899 0 0 0 -0.466797,0.5117185 C 7.6278102,9.2364435 7.6636092,6.9941637 7.6943762,6.5253176 a 2.4258013,2.4258013 0 0 0 -0.00391,0.00195 c 4.8e-5,-7.326e-4 -4.7e-5,-0.00318 0,-0.00391 a 2.4258013,2.4258013 0 0 0 -0.453124,0.2402343 9.8828294,9.8828294 0 0 0 -0.826172,0.6582031 9.8828294,9.8828294 0 0 0 -0.386719,0.3613282 9.8828294,9.8828294 0 0 0 -0.113281,0.1152344 9.8828294,9.8828294 0 0 0 0,0.00195 11.850642,11.850642 0 0 0 -0.587891,0.6386719 11.850642,11.850642 0 0 0 -0.363281,0.4492187 11.850642,11.850642 0 0 0 0,0.00195 11.850642,11.850642 0 0 0 -0.31836,0.4316406 v 0.00195 a 11.461281,11.461281 0 0 0 -1.11914,1.9765622 11.461281,11.461281 0 0 0 -0.216797,0.525391 11.461281,11.461281 0 0 0 -0.484375,1.607421 l -0.019531,0.08984 c -0.02556,0.1194 -0.139794,0.725215 -0.15625,0.855469 a 15.789417,15.789417 0 0 0 -0.097657,0.671875 10.110773,10.110773 0 0 0 -0.101562,1.203125 15.789417,15.789417 0 0 0 0,0.01758 v 0.06836 0.002 a 13.571252,13.571252 0 0 0 0.013672,0.619141 13.571252,13.571252 0 0 0 0.042968,0.617188 13.571252,13.571252 0 0 0 0.539063,2.730468 13.571252,13.571252 0 0 0 0.195313,0.587891 13.571252,13.571252 0 0 0 0.222656,0.578125 13.571252,13.571252 0 0 0 0.248047,0.568359 13.571252,13.571252 0 0 0 0.273437,0.554688 13.571252,13.571252 0 0 0 0.298828,0.542969 13.571252,13.571252 0 0 0 1.431641,2.019531 13.571252,13.571252 0 0 0 0.414062,0.460937 13.571252,13.571252 0 0 0 0.214844,0.222657 13.571252,13.571252 0 0 0 0.671875,0.640625 13.571252,13.571252 0 0 0 0.00195,0 13.571252,13.571252 0 0 0 0.232422,0.203125 13.571252,13.571252 0 0 0 0.00195,0 13.571252,13.571252 0 0 0 1.234375,0.929687 13.571252,13.571252 0 0 0 0.00195,0 13.571252,13.571252 0 0 0 0.257813,0.169922 13.571252,13.571252 0 0 0 0.00195,0 13.571252,13.571252 0 0 0 0.261719,0.162109 13.571252,13.571252 0 0 0 0.00195,0 13.571252,13.571252 0 0 0 0.535156,0.308594 13.571252,13.571252 0 0 0 0.00195,0 13.571252,13.571252 0 0 0 1.6874998,0.771484 13.571252,13.571252 0 0 0 0.002,0 13.571252,13.571252 0 0 0 0.289063,0.105469 13.571252,13.571252 0 0 0 0.002,0 13.571252,13.571252 0 0 0 0.292969,0.09961 13.571252,13.571252 0 0 0 0.591797,0.177734 13.571252,13.571252 0 0 0 0.002,0 13.571252,13.571252 0 0 0 1.511719,0.326172 13.571252,13.571252 0 0 0 0.002,0 13.571252,13.571252 0 0 0 0.304687,0.04492 13.571252,13.571252 0 0 0 0.002,0 13.571252,13.571252 0 0 0 1.232422,0.105469 13.571252,13.571252 0 0 0 0.002,0 13.571252,13.571252 0 0 0 0.308594,0.0098 13.571252,13.571252 0 0 0 0.308594,0.002 13.571252,13.571252 0 0 0 0.002,0 13.571252,13.571252 0 0 0 2.158203,-0.183594 13.571252,13.571252 0 0 0 0.304688,-0.05469 13.571252,13.571252 0 0 0 0.90625,-0.205078 13.571252,13.571252 0 0 0 0.595703,-0.169922 13.571252,13.571252 0 0 0 0.294921,-0.0957 13.571252,13.571252 0 0 0 0.291016,-0.101563 13.571252,13.571252 0 0 0 0.578125,-0.224609 13.571252,13.571252 0 0 0 0.566406,-0.25 13.571252,13.571252 0 0 0 0.279297,-0.134766 13.571252,13.571252 0 0 0 0.453125,-0.236328 13.571252,13.571252 0 0 0 0.248047,-0.140625 13.571252,13.571252 0 0 0 0.05078,-0.0293 13.571252,13.571252 0 0 0 0.002,-0.002 13.571252,13.571252 0 0 0 0.0625,-0.0332 13.571252,13.571252 0 0 0 0,-0.002 13.571252,13.571252 0 0 0 0.265626,-0.158203 13.571252,13.571252 0 0 0 0.773437,-0.515625 13.571252,13.571252 0 0 0 0.496094,-0.371094 13.571252,13.571252 0 0 0 0.710937,-0.599609 13.571252,13.571252 0 0 0 0.226563,-0.210938 13.571252,13.571252 0 0 0 0.222656,-0.216797 13.571252,13.571252 0 0 0 0.216797,-0.21875 13.571252,13.571252 0 0 0 0,-0.002 13.571252,13.571252 0 0 0 0.21289,-0.224609 13.571252,13.571252 0 0 0 0.207032,-0.230469 13.571252,13.571252 0 0 0 0.201172,-0.234375 13.571252,13.571252 0 0 0 0.197265,-0.240234 13.571252,13.571252 0 0 0 0.148438,-0.189453 13.571252,13.571252 0 0 0 0.04297,-0.05469 13.571252,13.571252 0 0 0 0.183593,-0.246094 13.571252,13.571252 0 0 0 0,-0.002 13.571252,13.571252 0 0 0 0.002,0 13.571252,13.571252 0 0 0 0.177735,-0.251953 13.571252,13.571252 0 0 0 0.341797,-0.517578 13.571252,13.571252 0 0 0 0.162109,-0.261719 13.571252,13.571252 0 0 0 0,-0.002 13.571252,13.571252 0 0 0 0.15625,-0.265625 13.571252,13.571252 0 0 0 0,-0.002 13.571252,13.571252 0 0 0 0.150391,-0.269531 13.571252,13.571252 0 0 0 0,-0.002 13.571252,13.571252 0 0 0 0.142578,-0.273438 13.571252,13.571252 0 0 0 0.136718,-0.279297 13.571252,13.571252 0 0 0 0.13086,-0.279297 13.571252,13.571252 0 0 0 0.125,-0.285156 13.571252,13.571252 0 0 0 0.117187,-0.285156 13.571252,13.571252 0 0 0 0.216797,-0.582031 13.571252,13.571252 0 0 0 0.09766,-0.292969 13.571252,13.571252 0 0 0 0.0918,-0.296875 13.571252,13.571252 0 0 0 0.08398,-0.296875 13.571252,13.571252 0 0 0 0.07813,-0.300781 13.571252,13.571252 0 0 0 0.134765,-0.603516 13.571252,13.571252 0 0 0 0.05664,-0.304687 13.571252,13.571252 0 0 0 0.0059,-0.03516 c 0.02276,-0.175072 0.04024,-0.346614 0.06055,-0.523437 A 13.955711,13.955711 0 0 0 28.573734,11.39228 C 27.983638,9.9737187 26.787263,8.4431613 25.850626,7.9589113 a 14.09892,14.09892 0 0 1 1.373047,4.1191407 v 0.01172 c -0.0231,-0.05747 -0.05259,-0.103708 -0.07617,-0.160156 C 26.976612,11.520653 26.798156,11.125216 26.604534,10.7636 25.049571,7.8597862 22.825259,6.3117366 20.96586,3.3729738 20.858365,3.2031538 20.750241,3.0330666 20.645548,2.8534426 20.585668,2.7508506 20.538777,2.6592307 20.49711,2.5741457 a 2.4695694,2.4695694 0 0 1 -0.203125,-0.5371094 0.03501445,0.03501445 0 0 0 -0.01367,-0.027344 0.03501445,0.03501445 0 0 0 -0.01367,-0.00781 0.03501445,0.03501445 0 0 0 -0.0039,0 0.04831995,0.04831995 0 0 0 -0.01758,-0.00195 z M 12.999063,22.048755 c 0.03951,0.02007 0.07948,0.04002 0.121094,0.05859 l 0.0078,0.0059 c -0.0431,-0.02063 -0.08581,-0.04272 -0.128906,-0.06445 z"
     style="fill:#000000;fill-opacity:1;stroke-width:0.350145;opacity:0.5;filter:url(#filter59574)"
     id="path980-5" />
  <path
     style="fill:url(#a);stroke-width:0.350145"
     id="path980"
     d="M 28.572566,11.393048 C 27.982922,9.9742627 26.786829,8.4423797 25.850192,7.9581297 a 14.09892,14.09892 0 0 1 1.374317,4.1191013 l 0.0024,0.02276 C 25.692576,8.2746617 23.090652,6.7322747 20.965625,3.3736887 c -0.107495,-0.16982 -0.214989,-0.339991 -0.319682,-0.519615 -0.05988,-0.102592 -0.107845,-0.19503 -0.149512,-0.280115 a 2.4695694,2.4695694 0 0 1 -0.202383,-0.537472 0.03501445,0.03501445 0 0 0 -0.03081,-0.03502 0.04831995,0.04831995 0 0 0 -0.02556,0 c -0.0018,0 -0.0045,0.0032 -0.0067,0.0039 -0.0021,7e-4 -0.0067,0.0039 -0.0098,0.0053 l 0.0053,-0.0091 c -3.408657,1.995824 -4.565185,5.690549 -4.671629,7.538612 a 6.788252,6.788252 0 0 0 -3.734641,1.4394443 4.0571247,4.0571247 0 0 0 -0.350145,-0.265409 6.2913969,6.2913969 0 0 1 -0.03817,-3.3169193 10.050899,10.050899 0 0 0 -3.2664976,2.524542 h -0.0063 c -0.537822,-0.681732 -0.500006,-2.929659 -0.469193,-3.399203 a 2.4258013,2.4258013 0 0 0 -0.453087,0.240549 9.8828294,9.8828294 0 0 0 -1.326348,1.136219 11.850642,11.850642 0 0 0 -1.268574,1.522078 v 0.0021 -0.0025 a 11.461281,11.461281 0 0 0 -1.820751,4.1117473 l -0.01821,0.08964 c -0.02556,0.1194 -0.117648,0.717446 -0.133405,0.84735 0,0.01015 -0.0021,0.01961 -0.0032,0.02976 a 12.933289,12.933289 0 0 0 -0.220241,1.870822 v 0.07003 a 13.571252,13.571252 0 0 0 26.9450226,2.294847 c 0.02276,-0.175072 0.04132,-0.348393 0.06162,-0.525216 a 13.955711,13.955711 0 0 0 -0.880163,-6.81701 z M 12.93161,22.015733 c 0.06338,0.03046 0.1229,0.06338 0.188027,0.09244 l 0.0094,0.006 q -0.09874,-0.04727 -0.197481,-0.09839 z m 3.108583,-8.184979 z m 11.187818,-1.727613 v -0.01296 l 0.0024,0.01436 z" />
  <path
     style="fill:url(#b);stroke-width:0.350145"
     id="path982"
     d="M 28.572566,11.393048 C 27.982922,9.9742627 26.786829,8.4423797 25.850192,7.9581297 a 14.09892,14.09892 0 0 1 1.374317,4.1191013 v 0.01295 l 0.0024,0.01436 a 12.290073,12.290073 0 0 1 -0.422273,9.159081 C 25.249344,24.60085 21.48459,28.021412 15.591658,27.855093 9.2242794,27.674769 3.6167144,22.949918 2.5683814,16.761464 c -0.190828,-0.975853 0,-1.470607 0.09594,-2.263684 a 10.110773,10.110773 0 0 0 -0.21814,1.872573 v 0.07003 a 13.571252,13.571252 0 0 0 26.9450226,2.294847 c 0.02276,-0.175072 0.04132,-0.348394 0.06163,-0.525217 a 13.955711,13.955711 0 0 0 -0.880263,-6.816964 z" />
  <path
     style="fill:url(#c);stroke-width:0.350145"
     id="path984"
     d="M 28.572566,11.393048 C 27.982922,9.9742627 26.786829,8.4423797 25.850192,7.9581297 a 14.09892,14.09892 0 0 1 1.374317,4.1191013 v 0.01295 l 0.0024,0.01436 a 12.290073,12.290073 0 0 1 -0.422273,9.159081 C 25.249344,24.60085 21.48459,28.021412 15.591658,27.855093 9.2242794,27.674769 3.6167144,22.949918 2.5683814,16.761464 c -0.190828,-0.975853 0,-1.470607 0.09594,-2.263684 a 10.110773,10.110773 0 0 0 -0.21814,1.872573 v 0.07003 a 13.571252,13.571252 0 0 0 26.9450226,2.294847 c 0.02276,-0.175072 0.04132,-0.348394 0.06163,-0.525217 a 13.955711,13.955711 0 0 0 -0.880263,-6.816964 z" />
  <path
     style="fill:url(#d);stroke-width:0.350145"
     id="path986"
     d="m 21.977944,12.988306 c 0.02941,0.02066 0.05672,0.04132 0.08438,0.06198 a 7.3880496,7.3880496 0 0 0 -1.26052,-1.643928 C 16.583963,7.1878117 19.696398,2.2595277 20.221265,2.0091737 l 0.0053,-0.0077 c -3.408657,1.995824 -4.565185,5.690549 -4.671629,7.538612 0.158266,-0.01085 0.31513,-0.02416 0.476897,-0.02416 a 6.848827,6.848827 0 0 1 5.946154,3.4723843 z" />
  <path
     style="fill:url(#e);stroke-width:0.350145"
     id="path988"
     d="m 16.040543,13.830754 c -0.02241,0.33754 -1.215002,1.50177 -1.632024,1.50177 -3.858943,0 -4.4853516,2.334414 -4.4853516,2.334414 0.1708706,1.965711 1.5406356,3.584779 3.1964696,4.441233 0.07563,0.03922 0.152313,0.07458 0.228995,0.109245 q 0.199232,0.08824 0.398464,0.163167 a 6.034741,6.034741 0 0 0 1.765779,0.340691 c 6.763742,0.317231 8.073983,-8.088339 3.192968,-10.527445 a 4.6849338,4.6849338 0 0 1 3.272101,0.794477 6.848827,6.848827 0 0 0 -5.946155,-3.4723833 c -0.161066,0 -0.318631,0.01331 -0.476897,0.02416 a 6.788252,6.788252 0 0 0 -3.734641,1.4394443 c 0.206935,0.175073 0.440482,0.408969 0.932435,0.893919 0.92088,0.907225 3.282605,1.847013 3.287857,1.957308 z" />
  <path
     style="fill:url(#f);stroke-width:0.350145"
     id="path990"
     d="m 16.040543,13.830754 c -0.02241,0.33754 -1.215002,1.50177 -1.632024,1.50177 -3.858943,0 -4.4853516,2.334414 -4.4853516,2.334414 0.1708706,1.965711 1.5406356,3.584779 3.1964696,4.441233 0.07563,0.03922 0.152313,0.07458 0.228995,0.109245 q 0.199232,0.08824 0.398464,0.163167 a 6.034741,6.034741 0 0 0 1.765779,0.340691 c 6.763742,0.317231 8.073983,-8.088339 3.192968,-10.527445 a 4.6849338,4.6849338 0 0 1 3.272101,0.794477 6.848827,6.848827 0 0 0 -5.946155,-3.4723833 c -0.161066,0 -0.318631,0.01331 -0.476897,0.02416 a 6.788252,6.788252 0 0 0 -3.734641,1.4394443 c 0.206935,0.175073 0.440482,0.408969 0.932435,0.893919 0.92088,0.907225 3.282605,1.847013 3.287857,1.957308 z" />
  <path
     style="fill:url(#g);stroke-width:0.350145"
     id="path992"
     d="m 11.187539,10.528191 c 0.109946,0.07003 0.200633,0.130954 0.280116,0.185927 a 6.2913969,6.2913969 0 0 1 -0.03817,-3.3169193 10.050899,10.050899 0 0 0 -3.2664976,2.524542 c 0.06618,-0.0018 2.0346896,-0.03712 3.0245476,0.6064503 z" />
  <path
     style="fill:url(#h);stroke-width:0.350145"
     id="path994"
     d="m 2.5701324,16.761464 c 1.047282,6.188454 6.655898,10.913305 13.0232756,11.093629 5.892933,0.166669 9.657687,-3.254243 11.213029,-6.591471 a 12.290073,12.290073 0 0 0 0.422274,-9.15908 v -0.01295 c 0,-0.01016 -0.0021,-0.01611 0,-0.01296 l 0.0024,0.02276 c 0.481449,3.143247 -1.117311,6.188454 -3.616643,8.247654 l -0.0077,0.01751 c -4.86981,3.966087 -9.530234,2.392888 -10.473523,1.750722 q -0.09874,-0.04727 -0.197481,-0.09839 C 10.096489,20.661724 8.9235054,18.074856 9.1749094,15.85634 a 3.4849885,3.4849885 0 0 1 -3.214677,-2.022084 5.1184128,5.1184128 0 0 1 4.9892086,-0.200283 6.7577894,6.7577894 0 0 0 5.095304,0.200283 c -0.0053,-0.110296 -2.366977,-1.050434 -3.287858,-1.957308 -0.491953,-0.48495 -0.725499,-0.718497 -0.932434,-0.893919 a 4.0571247,4.0571247 0 0 0 -0.350145,-0.26541 C 11.393778,10.662649 11.303087,10.603122 11.194192,10.531693 10.204333,9.8881267 8.2358214,9.9234917 8.1706944,9.9252417 h -0.0063 c -0.537822,-0.681731 -0.500006,-2.929659 -0.469193,-3.399203 a 2.4258013,2.4258013 0 0 0 -0.453087,0.240549 9.8828294,9.8828294 0 0 0 -1.326348,1.136219 11.850642,11.850642 0 0 0 -1.273826,1.518577 v 0.0021 -0.0025 a 11.461281,11.461281 0 0 0 -1.820751,4.1117473 c -0.0067,0.02766 -0.488802,2.135532 -0.251054,3.228683 z" />
  <path
     style="fill:url(#i);stroke-width:0.350145"
     id="path996"
     d="m 20.802508,11.406354 a 7.3880496,7.3880496 0 0 1 1.260521,1.645679 c 0.07458,0.05637 0.144259,0.112396 0.203434,0.166669 3.07672,2.83617 1.464654,6.845325 1.344555,7.130693 2.499331,-2.0592 4.096691,-5.104407 3.616643,-8.247654 -1.535034,-3.8270803 -4.136958,-5.3694673 -6.261985,-8.7280533 -0.107495,-0.16982 -0.214989,-0.339991 -0.319682,-0.519615 -0.05988,-0.102592 -0.107845,-0.19503 -0.149512,-0.280115 a 2.4695694,2.4695694 0 0 1 -0.202383,-0.537472 0.03501445,0.03501445 0 0 0 -0.03081,-0.03502 0.04831995,0.04831995 0 0 0 -0.02556,0 c -0.0018,0 -0.0046,0.0032 -0.0067,0.0039 -0.0021,7e-4 -0.0067,0.0039 -0.0098,0.0053 -0.524867,0.248953 -3.637302,5.177237 0.58124,9.3957793 z" />
  <path
     style="fill:url(#j);stroke-width:0.350145"
     id="path998"
     d="m 22.264362,13.216951 c -0.05917,-0.05427 -0.128853,-0.110296 -0.203434,-0.166669 -0.02766,-0.02066 -0.05497,-0.04132 -0.08439,-0.06198 a 4.6849338,4.6849338 0 0 0 -3.272096,-0.794477 c 4.881015,2.440507 3.571475,10.844676 -3.192968,10.527445 a 6.034741,6.034741 0 0 1 -1.765778,-0.340691 q -0.199233,-0.07458 -0.398465,-0.163167 c -0.07668,-0.03501 -0.153363,-0.07003 -0.228994,-0.109245 l 0.0094,0.006 c 0.943343,0.643916 5.602366,2.217116 10.473577,-1.750722 l 0.0077,-0.01751 c 0.121503,-0.283618 1.733568,-4.293823 -1.344552,-7.128943 z" />
  <path
     style="fill:url(#k);stroke-width:0.350145"
     id="path1000"
     d="m 9.9231674,17.666938 c 0,0 0.6264086,-2.334414 4.4853516,-2.334414 0.417022,0 1.610665,-1.16423 1.632024,-1.50177 a 6.7577894,6.7577894 0 0 1 -5.095304,-0.200282 5.1184128,5.1184128 0 0 0 -4.9892086,0.200282 3.4849885,3.4849885 0 0 0 3.214677,2.022085 c -0.251404,2.218866 0.9215796,4.805734 3.7609026,6.162544 0.06338,0.03046 0.1229,0.06338 0.188027,0.09244 -1.657234,-0.856104 -3.025599,-2.475172 -3.1964696,-4.440883 z" />
  <path
     style="fill:url(#l);stroke-width:0.350145"
     id="path1002"
     d="M 28.572566,11.393048 C 27.982922,9.9742627 26.786829,8.4423797 25.850192,7.9581297 a 14.09892,14.09892 0 0 1 1.374317,4.1191013 l 0.0024,0.02276 C 25.692576,8.2746617 23.090652,6.7322747 20.965625,3.3736887 c -0.107495,-0.16982 -0.214989,-0.339991 -0.319682,-0.519615 -0.05988,-0.102592 -0.107845,-0.19503 -0.149512,-0.280115 a 2.4695694,2.4695694 0 0 1 -0.202383,-0.537472 0.03501445,0.03501445 0 0 0 -0.03081,-0.03502 0.04831995,0.04831995 0 0 0 -0.02556,0 c -0.0018,0 -0.0045,0.0032 -0.0067,0.0039 -0.0021,7e-4 -0.0067,0.0039 -0.0098,0.0053 l 0.0053,-0.0091 c -3.408657,1.995824 -4.565185,5.690549 -4.671629,7.538612 0.158266,-0.01085 0.31513,-0.02416 0.476897,-0.02416 a 6.848827,6.848827 0 0 1 5.946152,3.4722873 4.6849338,4.6849338 0 0 0 -3.272101,-0.794477 c 4.881015,2.440507 3.571474,10.844676 -3.192968,10.527445 A 6.034741,6.034741 0 0 1 13.74705,22.380583 q -0.199232,-0.07458 -0.398464,-0.163167 c -0.07668,-0.03501 -0.153364,-0.07003 -0.228995,-0.109245 l 0.0094,0.006 q -0.09874,-0.04727 -0.197481,-0.09839 c 0.06338,0.03046 0.1229,0.06338 0.188027,0.09244 -1.65723,-0.856454 -3.025595,-2.475522 -3.1964656,-4.441233 0,0 0.6264086,-2.334414 4.4853516,-2.334414 0.417022,0 1.610665,-1.16423 1.632024,-1.50177 -0.0053,-0.110295 -2.366977,-1.050433 -3.287857,-1.957308 -0.491953,-0.48495 -0.7255,-0.718496 -0.932435,-0.893919 A 4.0571247,4.0571247 0 0 0 11.47001,10.714118 6.2913969,6.2913969 0 0 1 11.43184,7.3971987 10.050899,10.050899 0 0 0 8.1653424,9.9217407 h -0.0063 c -0.537822,-0.681732 -0.500006,-2.929659 -0.469193,-3.399203 a 2.4258013,2.4258013 0 0 0 -0.453087,0.240549 9.8828294,9.8828294 0 0 0 -1.326348,1.136219 11.850642,11.850642 0 0 0 -1.268574,1.522078 v 0.0021 -0.0025 a 11.461281,11.461281 0 0 0 -1.820751,4.1117473 l -0.01821,0.08964 c -0.02556,0.1194 -0.140058,0.72585 -0.156514,0.856104 0,0.0098 0,-0.01015 0,0 a 15.789417,15.789417 0 0 0 -0.200283,1.891831 v 0.07003 a 13.571252,13.571252 0 0 0 26.9451186,2.294847 c 0.02276,-0.175072 0.04132,-0.348394 0.06163,-0.525217 a 13.955711,13.955711 0 0 0 -0.88026,-6.816914 z m -1.346306,0.697138 0.0024,0.01436 z" />
</svg>
