<?xml version="1.0" encoding="UTF-8" standalone="no"?>
<svg
   xmlns:dc="http://purl.org/dc/elements/1.1/"
   xmlns:cc="http://creativecommons.org/ns#"
   xmlns:rdf="http://www.w3.org/1999/02/22-rdf-syntax-ns#"
   xmlns:svg="http://www.w3.org/2000/svg"
   xmlns="http://www.w3.org/2000/svg"
   xmlns:sodipodi="http://sodipodi.sourceforge.net/DTD/sodipodi-0.dtd"
   xmlns:inkscape="http://www.inkscape.org/namespaces/inkscape"
   width="32"
   height="32"
   version="1"
   id="svg12"
   sodipodi:docname="foxit-reader.svg"
   inkscape:version="1.0.1 (3bc2e813f5, 2020-09-07)">
  <metadata
     id="metadata18">
    <rdf:RDF>
      <cc:Work
         rdf:about="">
        <dc:format>image/svg+xml</dc:format>
        <dc:type
           rdf:resource="http://purl.org/dc/dcmitype/StillImage" />
      </cc:Work>
    </rdf:RDF>
  </metadata>
  <defs
     id="defs16">
    <filter
       inkscape:collect="always"
       style="color-interpolation-filters:sRGB"
       id="filter858"
       x="-0.075"
       width="1.15"
       y="-0.075"
       height="1.15">
      <feGaussianBlur
         inkscape:collect="always"
         stdDeviation="0.875"
         id="feGaussianBlur860" />
    </filter>
  </defs>
  <sodipodi:namedview
     pagecolor="#ffffff"
     bordercolor="#666666"
     borderopacity="1"
     objecttolerance="10"
     gridtolerance="10"
     guidetolerance="10"
     inkscape:pageopacity="0"
     inkscape:pageshadow="2"
     inkscape:window-width="1920"
     inkscape:window-height="1000"
     id="namedview14"
     showgrid="false"
     inkscape:zoom="25.84375"
     inkscape:cx="16"
     inkscape:cy="12.221078"
     inkscape:window-x="0"
     inkscape:window-y="0"
     inkscape:window-maximized="1"
     inkscape:current-layer="svg12" />
  <rect
     fill="#f18d00"
     width="28"
     height="28"
     x="2"
     y="2"
     rx="5.4190178"
     ry="5.4190178"
     id="rect2-3"
     style="fill:#000000;fill-opacity:1;filter:url(#filter858);opacity:0.5" />
  <rect
     fill="#f18d00"
     width="28"
     height="28"
     x="2"
     y="2"
     rx="5.4190178"
     ry="5.4190178"
     id="rect2" />
  <path
     fill="#fff"
     fill-rule="evenodd"
     d="m25.999 12.968c-1.874-7.9226-9.072-7.8562-13.418-5.7879-4.5736 2.3115-7.8856 8.2359-6.0792 13.197 2.7919 7.484 13.069 7.372 16.547 0.412 1.032-2.552 1.79-4.364-1.049-6.789v3l-1-2s-0.88754 2.098-1.8304 3.0549c-1.312 1.331-3.17 0.945-3.17 0.945 0.3507 1.3257 3 2 3 2-6.8774 3.255-7.0786-2.1851-7-3.5 0.2257-3.7844 3.2683-6.7214 7.2767-6.5107 1.278 0.098 3.723 1.011 3.723 1.011-0.92-2.1051-2.23-2.606-3-3 3.0184-0.99806 4.6294 2.1529 6 3.9672z"
     id="path6" />
</svg>
