<?xml version="1.0" encoding="UTF-8" standalone="no"?>
<svg
   xmlns:dc="http://purl.org/dc/elements/1.1/"
   xmlns:cc="http://creativecommons.org/ns#"
   xmlns:rdf="http://www.w3.org/1999/02/22-rdf-syntax-ns#"
   xmlns:svg="http://www.w3.org/2000/svg"
   xmlns="http://www.w3.org/2000/svg"
   xmlns:xlink="http://www.w3.org/1999/xlink"
   xmlns:sodipodi="http://sodipodi.sourceforge.net/DTD/sodipodi-0.dtd"
   xmlns:inkscape="http://www.inkscape.org/namespaces/inkscape"
   inkscape:version="1.0.1 (3bc2e813f5, 2020-09-07)"
   sodipodi:docname="franz.svg"
   id="svg12"
   version="1"
   height="32"
   width="32">
  <metadata
     id="metadata18">
    <rdf:RDF>
      <cc:Work
         rdf:about="">
        <dc:format>image/svg+xml</dc:format>
        <dc:type
           rdf:resource="http://purl.org/dc/dcmitype/StillImage" />
      </cc:Work>
    </rdf:RDF>
  </metadata>
  <defs
     id="defs16">
    <linearGradient
       id="linearGradient847"
       inkscape:collect="always">
      <stop
         id="stop843"
         offset="0"
         style="stop-color:#008ec6;stop-opacity:1" />
      <stop
         id="stop845"
         offset="1"
         style="stop-color:#49c3f9;stop-opacity:1" />
    </linearGradient>
    <filter
       inkscape:collect="always"
       style="color-interpolation-filters:sRGB"
       id="filter59522"
       x="-0.075"
       width="1.15"
       y="-0.075"
       height="1.15">
      <feGaussianBlur
         inkscape:collect="always"
         stdDeviation="0.875"
         id="feGaussianBlur59524" />
    </filter>
    <linearGradient
       gradientTransform="matrix(0.92857143,0,0,0.92857143,-30.857144,1.1428566)"
       gradientUnits="userSpaceOnUse"
       y2="19.563929"
       x2="27.031445"
       y1="10.118678"
       x1="5.5196762"
       id="linearGradient849-3"
       xlink:href="#linearGradient847"
       inkscape:collect="always" />
  </defs>
  <sodipodi:namedview
     inkscape:current-layer="svg12"
     inkscape:window-maximized="1"
     inkscape:window-y="0"
     inkscape:window-x="0"
     inkscape:cy="16"
     inkscape:cx="13.900262"
     inkscape:zoom="23.8125"
     showgrid="false"
     id="namedview14"
     inkscape:window-height="1000"
     inkscape:window-width="1920"
     inkscape:pageshadow="2"
     inkscape:pageopacity="0"
     guidetolerance="10"
     gridtolerance="10"
     objecttolerance="10"
     borderopacity="1"
     bordercolor="#666666"
     pagecolor="#ffffff"
     inkscape:document-rotation="0" />
  <rect
     fill="#0286c2"
     width="28"
     height="28"
     x="-30"
     y="2"
     rx="14"
     ry="14"
     id="rect2-2"
     style="fill:#000000;fill-opacity:1;opacity:0.5;filter:url(#filter59522)"
     transform="rotate(-90)" />
  <rect
     transform="rotate(-90)"
     style="fill:#ffffff;fill-opacity:1"
     id="rect2"
     ry="14"
     rx="14"
     y="2"
     x="-30"
     height="28"
     width="28"
     fill="#0286c2" />
  <rect
     transform="rotate(-90)"
     style="fill:url(#linearGradient849-3);fill-opacity:1;stroke-width:0.928571"
     id="rect2-5"
     ry="13"
     rx="13"
     y="3"
     x="-29"
     height="26"
     width="26"
     fill="#0286c2" />
  <path
     id="path10"
     d="m 24.108899,9.3086259 c -0.0674,-0.01162 -0.149778,0.05421 -0.255674,0.166894 -0.155968,0.165968 -0.299626,0.6571341 -0.490039,1.6761281 -0.31929,1.70858 -0.528701,2.42192 -0.829164,2.828361 -0.12185,0.16485 -0.195811,0.373389 -0.163348,0.463404 0.08447,0.234282 0.554408,0.538363 1.200232,0.775901 0.66776,0.245601 0.90198,0.261601 0.958788,0.06747 0.02331,-0.07967 -0.0075,-1.406136 -0.06925,-2.949086 -0.09059,-2.260475 -0.149362,-2.9939971 -0.351545,-3.0289951 z m -15.77403,0.11545 c -0.07327,-0.0095 -0.152722,0.04373 -0.24681,0.143814 -0.1539041,0.163721 -0.1887211,0.5918901 -0.2379014,2.9399951 -0.031705,1.511769 -0.041574,2.787726 -0.021305,2.835453 0.1138775,0.268618 1.4105004,-0.22872 1.8695754,-0.717304 L 9.927465,14.381014 9.645156,13.869668 C 9.461708,13.536951 9.252715,12.793339 9.048539,11.749736 8.717459,10.058156 8.554646,9.4526299 8.334835,9.4240849 Z M 18.727256,12.69606 c -0.338125,-0.01269 -0.725212,0.124938 -1.322775,0.353325 -0.633742,0.242238 -1.285685,0.440368 -1.448861,0.440331 -0.163178,-4.2e-5 -0.666343,-0.160058 -1.116783,-0.355097 -1.123326,-0.486366 -1.570585,-0.551328 -2.029387,-0.292964 -0.203721,0.114713 -0.96015,0.834246 -1.6814,1.597949 -1.096328,1.160871 -1.416771,1.430316 -1.95839,1.651219 -0.852381,0.347615 -1.5708577,0.432157 -2.1608385,0.252118 -0.8008647,-0.244401 -1.2338687,0.211693 -0.8895345,0.937424 0.3283074,0.692005 1.6415826,1.319411 3.380617,1.615674 2.414285,0.411341 4.01305,0.03135 5.709995,-1.360046 0.325307,-0.266719 0.685013,-0.486493 0.800755,-0.486493 0.115737,0 0.511011,0.246901 0.877098,0.546855 0.869482,0.712413 1.293322,0.93915 2.324107,1.24814 0.733612,0.21993 1.019238,0.245038 2.050751,0.179331 2.168837,-0.13816 3.619699,-0.604607 4.383765,-1.409772 C 25.90364,17.343154 26,17.134979 26,16.85317 c 0,-0.564436 -0.29949,-0.707577 -1.063511,-0.507792 -0.46393,0.121312 -0.72263,0.126286 -1.189598,0.01952 -1.143599,-0.26181 -1.660854,-0.620889 -2.993537,-2.078114 -1.035422,-1.131781 -1.46268,-1.56904 -2.026298,-1.590858 z m 5.310554,7.270671 c -0.04086,0.0039 -0.09336,0.01578 -0.159795,0.03374 -0.807629,0.218202 -1.646765,0.337199 -2.865634,0.406596 l -1.333411,0.07634 -0.03196,0.807856 c -0.02957,0.726876 -0.0051,0.8369 0.24502,1.106145 0.257519,0.277209 0.352925,0.299645 1.31032,0.294736 1.075784,-0.0055 1.717035,-0.173267 2.11284,-0.552182 0.291809,-0.279082 0.866335,-1.565403 0.866335,-1.939028 5.8e-5,-0.185657 -0.02124,-0.246119 -0.143812,-0.234365 z m -16.2103789,0.0071 c -0.032945,0.03751 0.028906,0.388242 0.1367137,0.777674 0.2361562,0.853045 0.7418132,1.513496 1.3440462,1.755943 0.599335,0.241256 2.19511,0.244401 2.601098,0.0054 0.324535,-0.190903 0.45453,-0.58998 0.45453,-1.402682 0,-0.800882 -0.02455,-0.818155 -1.262687,-0.818155 C 10.481426,20.291103 9.503913,20.205651 8.930023,20.100199 8.356041,19.993836 7.86033,19.936569 7.827422,19.97384 Z"
     fill="#ffffff"
     style="stroke-width:0.909061" />
</svg>
