<?xml version="1.0" encoding="UTF-8" standalone="no"?>
<svg
   xmlns:dc="http://purl.org/dc/elements/1.1/"
   xmlns:cc="http://creativecommons.org/ns#"
   xmlns:rdf="http://www.w3.org/1999/02/22-rdf-syntax-ns#"
   xmlns:svg="http://www.w3.org/2000/svg"
   xmlns="http://www.w3.org/2000/svg"
   xmlns:sodipodi="http://sodipodi.sourceforge.net/DTD/sodipodi-0.dtd"
   xmlns:inkscape="http://www.inkscape.org/namespaces/inkscape"
   inkscape:version="1.0.1 (3bc2e813f5, 2020-09-07)"
   sodipodi:docname="freeoffice-presentations.svg"
   id="svg62"
   version="1"
   height="32"
   width="32">
  <metadata
     id="metadata68">
    <rdf:RDF>
      <cc:Work
         rdf:about="">
        <dc:format>image/svg+xml</dc:format>
        <dc:type
           rdf:resource="http://purl.org/dc/dcmitype/StillImage" />
        <dc:title />
      </cc:Work>
    </rdf:RDF>
  </metadata>
  <defs
     id="defs66">
    <filter
       inkscape:collect="always"
       style="color-interpolation-filters:sRGB"
       id="filter59510"
       x="-0.075"
       width="1.15"
       y="-0.075"
       height="1.15">
      <feGaussianBlur
         inkscape:collect="always"
         stdDeviation="0.875"
         id="feGaussianBlur59512" />
    </filter>
  </defs>
  <sodipodi:namedview
     inkscape:current-layer="svg62"
     inkscape:window-maximized="1"
     inkscape:window-y="0"
     inkscape:window-x="0"
     inkscape:cy="10.579263"
     inkscape:cx="14.950131"
     inkscape:zoom="23.8125"
     showgrid="false"
     id="namedview64"
     inkscape:window-height="1000"
     inkscape:window-width="1920"
     inkscape:pageshadow="2"
     inkscape:pageopacity="0"
     guidetolerance="10"
     gridtolerance="10"
     objecttolerance="10"
     borderopacity="1"
     bordercolor="#666666"
     pagecolor="#ffffff"
     inkscape:document-rotation="0" />
  <rect
     style="opacity:0.5;fill:#000000;fill-opacity:1;stroke-width:0.965517;filter:url(#filter59510)"
     width="28"
     height="28"
     x="2.0000007"
     y="2.0000007"
     rx="1.4000001"
     ry="1.4000001"
     id="rect52-5" />
  <rect
     id="rect52"
     ry="1.4000001"
     rx="1.4000001"
     y="2"
     x="2"
     height="28"
     width="28"
     style="fill:#da8139;stroke-width:0.965517;fill-opacity:1" />
  <rect
     y="4"
     x="4"
     height="2"
     width="24"
     id="rect2047"
     style="opacity:1;fill:#ffffff;fill-opacity:1;stroke-width:0.496146" />
  <rect
     style="opacity:1;fill:#ffffff;fill-opacity:1;stroke-width:0.452918"
     id="rect2047-6"
     width="20"
     height="2"
     x="7.999999"
     y="26" />
  <rect
     transform="matrix(0,1,1,0,0,0)"
     style="opacity:1;fill:#ffffff;fill-opacity:1;stroke-width:0.452918"
     id="rect2047-7"
     width="20"
     height="2"
     x="4"
     y="4" />
  <rect
     transform="rotate(90)"
     style="opacity:1;fill:#ffffff;fill-opacity:1;stroke-width:0.496146"
     id="rect2047-5"
     width="24"
     height="2"
     x="4"
     y="-28" />
  <rect
     style="opacity:1;fill:#ffffff;fill-opacity:1;stroke-width:0.143225"
     id="rect2047-3"
     width="2"
     height="2"
     x="4"
     y="26" />
  <g
     transform="matrix(0.46275016,0,0,0.46275016,8.5538256,18.548212)"
     style="font-style:normal;font-weight:normal;font-size:40px;line-height:1.25;font-family:sans-serif;fill:#ffffff;fill-opacity:1;stroke:none"
     id="text2176"
     aria-label="S">
    <path
       style="fill:#ffffff;fill-opacity:1"
       id="path2178"
       d="m 24.596992,-19.149247 v 3.847656 q -2.246093,-1.074219 -4.238281,-1.601562 -1.992187,-0.527344 -3.847656,-0.527344 -3.222656,0 -4.980469,1.25 -1.738281,1.25 -1.738281,3.554687 0,1.933594 1.152344,2.9296878 1.171875,0.9765625 4.414062,1.5820313 l 2.382813,0.4882812 q 4.414062,0.8398438 6.503906,2.96875 2.109375,2.109375 2.109375,5.6640625 0,4.2382813 -2.851563,6.4257813 -2.832031,2.1875 -8.320312,2.1875 -2.070313,0 -4.414063,-0.46875 -2.3242183,-0.46875 -4.8242183,-1.3867188 v -4.0625 q 2.4023438,1.3476563 4.7070313,2.03125 2.304687,0.6835938 4.53125,0.6835938 3.378906,0 5.214844,-1.328125 1.835937,-1.328125 1.835937,-3.7890625 0,-2.14843752 -1.328125,-3.359375 -1.308594,-1.2109375 -4.316406,-1.8164063 l -2.402344,-0.46875 q -4.4140623,-0.8789062 -6.3867185,-2.7539062 -1.9726563,-1.875 -1.9726563,-5.2148441 0,-3.867187 2.7148438,-6.09375 2.734375,-2.226562 7.519531,-2.226562 2.050781,0 4.179688,0.371094 2.128906,0.371093 4.355468,1.113281 z" />
  </g>
</svg>
