<?xml version="1.0" encoding="UTF-8" standalone="no"?>
<svg
   xmlns:dc="http://purl.org/dc/elements/1.1/"
   xmlns:cc="http://creativecommons.org/ns#"
   xmlns:rdf="http://www.w3.org/1999/02/22-rdf-syntax-ns#"
   xmlns:svg="http://www.w3.org/2000/svg"
   xmlns="http://www.w3.org/2000/svg"
   xmlns:xlink="http://www.w3.org/1999/xlink"
   xmlns:sodipodi="http://sodipodi.sourceforge.net/DTD/sodipodi-0.dtd"
   xmlns:inkscape="http://www.inkscape.org/namespaces/inkscape"
   inkscape:version="1.0.1 (3bc2e813f5, 2020-09-07)"
   sodipodi:docname="geany.svg"
   id="svg29"
   version="1.1"
   xml:space="preserve"
   width="32"
   viewBox="0 0 0.33333333 0.33333333"
   style="clip-rule:evenodd;fill-rule:evenodd;image-rendering:optimizeQuality;shape-rendering:geometricPrecision;text-rendering:geometricPrecision"
   height="32"><metadata
     id="metadata33"><rdf:RDF><cc:Work
         rdf:about=""><dc:format>image/svg+xml</dc:format><dc:type
           rdf:resource="http://purl.org/dc/dcmitype/StillImage" /><dc:title /></cc:Work></rdf:RDF></metadata><sodipodi:namedview
     inkscape:current-layer="Layer_x0020_1"
     inkscape:window-maximized="1"
     inkscape:window-y="0"
     inkscape:window-x="0"
     inkscape:cy="6.3403076"
     inkscape:cx="-1.4610042"
     inkscape:zoom="9.02666"
     units="px"
     showgrid="false"
     id="namedview31"
     inkscape:window-height="1000"
     inkscape:window-width="1920"
     inkscape:pageshadow="2"
     inkscape:pageopacity="0"
     guidetolerance="10"
     gridtolerance="10"
     objecttolerance="10"
     borderopacity="1"
     bordercolor="#666666"
     pagecolor="#ffffff"
     inkscape:document-rotation="0" /><defs
     id="defs4"><linearGradient
       id="linearGradient1018"
       inkscape:collect="always"><stop
         id="stop1014"
         offset="0"
         style="stop-color:#fec006;stop-opacity:1;" /><stop
         id="stop1016"
         offset="1"
         style="stop-color:#fedf82;stop-opacity:1" /></linearGradient><linearGradient
       id="linearGradient1002"
       inkscape:collect="always"><stop
         id="stop998"
         offset="0"
         style="stop-color:#f8cd42;stop-opacity:1" /><stop
         id="stop1000"
         offset="1"
         style="stop-color:#fedf81;stop-opacity:1" /></linearGradient><style
       id="style2"
       type="text/css">
   <![CDATA[
    .fil4 {fill:none}
    .fil3 {fill:#E0E0E0}
    .fil1 {fill:#F6E28A}
    .fil2 {fill:#F8E8A2}
    .fil0 {fill:black;fill-rule:nonzero}
   ]]>
  </style><linearGradient
       id="linearGradient8285"><stop
         style="stop-color:#ff6c6c;stop-opacity:1;"
         offset="0"
         id="stop8287" /><stop
         style="stop-color:#cc0000;stop-opacity:1;"
         offset="1"
         id="stop8289" /></linearGradient><linearGradient
       inkscape:collect="always"
       id="linearGradient855"><stop
         style="stop-color:#fec006;stop-opacity:1;"
         offset="0"
         id="stop851" /><stop
         style="stop-color:#fed762;stop-opacity:1"
         offset="1"
         id="stop853" /></linearGradient><radialGradient
       inkscape:collect="always"
       xlink:href="#linearGradient8285"
       id="radialGradient17172"
       gradientUnits="userSpaceOnUse"
       gradientTransform="matrix(0.00470953,0,0,0.00732593,0.0938338,-0.03181814)"
       cx="22.999998"
       cy="28.5"
       fx="22.999998"
       fy="28.5"
       r="3" /><linearGradient
       inkscape:collect="always"
       xlink:href="#linearGradient11853"
       id="linearGradient17174"
       gradientUnits="userSpaceOnUse"
       gradientTransform="matrix(0.00261641,0,0,0.00523281,0.14197562,0.03045232)"
       x1="21"
       y1="26"
       x2="25"
       y2="31" /><linearGradient
       inkscape:collect="always"
       id="linearGradient11853"><stop
         style="stop-color:#ffffff;stop-opacity:1;"
         offset="0"
         id="stop11855" /><stop
         style="stop-color:#ffffff;stop-opacity:0;"
         offset="1"
         id="stop11857" /></linearGradient><radialGradient
       inkscape:collect="always"
       xlink:href="#linearGradient8285"
       id="radialGradient11865"
       gradientUnits="userSpaceOnUse"
       gradientTransform="matrix(0.00282572,0,0,0.00549445,0.09477568,0.00581876)"
       cx="22.999998"
       cy="28.5"
       fx="22.999998"
       fy="28.5"
       r="3" /><linearGradient
       inkscape:collect="always"
       xlink:href="#linearGradient11853"
       id="linearGradient11867"
       gradientUnits="userSpaceOnUse"
       gradientTransform="matrix(0.00156984,0,0,0.00392461,0.12366077,0.05252161)"
       x1="21"
       y1="26"
       x2="25"
       y2="31" /><radialGradient
       inkscape:collect="always"
       xlink:href="#linearGradient8285"
       id="radialGradient14259"
       gradientUnits="userSpaceOnUse"
       gradientTransform="matrix(0.00282572,0,0,0.00549445,0.17954722,0.00625051)"
       cx="22.999998"
       cy="28.5"
       fx="22.999998"
       fy="28.5"
       r="3" /><linearGradient
       inkscape:collect="always"
       xlink:href="#linearGradient11853"
       id="linearGradient14261"
       gradientUnits="userSpaceOnUse"
       gradientTransform="matrix(0.00156984,0,0,0.00392461,0.20843233,0.05295336)"
       x1="21"
       y1="26"
       x2="25"
       y2="31" /><linearGradient
       gradientUnits="userSpaceOnUse"
       y2="13.927422"
       x2="24.665993"
       y1="20.388023"
       x1="18.405018"
       id="linearGradient988"
       xlink:href="#linearGradient855"
       inkscape:collect="always" /><linearGradient
       gradientUnits="userSpaceOnUse"
       y2="9.5722656"
       x2="17.992188"
       y1="11.663706"
       x1="23.172638"
       id="linearGradient1004"
       xlink:href="#linearGradient1002"
       inkscape:collect="always" /><linearGradient
       gradientUnits="userSpaceOnUse"
       y2="8.2070312"
       x2="19.396484"
       y1="10.891618"
       x1="19.432137"
       id="linearGradient1012"
       xlink:href="#linearGradient1018"
       inkscape:collect="always" /><filter
       inkscape:collect="always"
       style="color-interpolation-filters:sRGB"
       id="filter59502"
       x="-0.058374863"
       width="1.1167497"
       y="-0.10486571"
       height="1.2097314"><feGaussianBlur
         inkscape:collect="always"
         stdDeviation="0.0070939312"
         id="feGaussianBlur59504" /></filter></defs><g
     style="stroke:none"
     id="Layer_x0020_1"><path
       d="m 0.20204494,0.08548935 c -0.004042,0 -0.007685,0.001643 -0.0103353,0.004293 -0.00264,0.002642 -0.004293,0.006295 -0.004293,0.0103353 -10e-9,-1.362e-4 -3.87e-6,-2.7208e-4 0,-4.0689e-4 -0.008725,9.6e-4 -0.0164461,0.002767 -0.0224203,0.005147 -0.00908,0.003613 -0.0145874,0.008856 -0.0145874,0.0150757 8.4e-7,-3.5343e-4 2.322e-5,-7.0698e-4 6.103e-5,-0.001058 -8.6698e-4,1.4885e-4 -0.00165,5.311e-4 -0.002279,0.001099 -0.002269,0.001706 -0.0240403,0.0163792 -0.08109541,-8.7483e-4 -9.7225e-4,-3.95e-4 -0.0072504,-0.002794 -0.01570639,-0.003174 -0.008456,-3.7979e-4 -0.01909923,0.001259 -0.02882894,0.008993 -0.001971,0.00157 -0.002299,0.004439 -7.3242e-4,0.006409 5.8301e-4,7.2875e-4 0.0013469,0.001241 0.0021769,0.001506 0.002771,9.9605e-4 0.04549399,0.0152447 0.07676191,0.0475667 0.0110006,0.0113763 0.035258,0.0219043 0.06073,0.0282389 -4.3937e-4,-1.0949e-4 -8.8373e-4,-1.727e-4 -0.001322,-2.8484e-4 -0.001019,5.8e-4 -0.001982,0.001185 -0.002869,0.001811 -0.005386,0.003797 -0.008484,0.008494 -0.008484,0.0137736 0,0.00734 0.006085,0.013633 0.0159302,0.017863 0.008677,0.00373 0.02057,0.006042 0.03361,0.006042 0.01304,0 0.0249097,-0.002312 0.0335897,-0.006042 0.009845,-0.004234 0.0159505,-0.010523 0.0159505,-0.017863 0,-0.005062 -0.002874,-0.009606 -0.007874,-0.013326 -9.3e-4,-6.9e-4 -0.001951,-0.001357 -0.003031,-0.001994 -0.00137,6e-4 -0.002516,0.001077 -0.003377,0.001404 0.0132365,-0.005033 0.0234015,-0.0128196 0.0300903,-0.021932 5.63e-6,-7.68e-6 1.471e-5,-1.268e-5 2.034e-5,-2.034e-5 0.009146,-0.004614 0.0290779,-0.0201407 0.0402222,-0.0359497 0.00349,-0.004955 0.006178,-0.0100129 0.007548,-0.0149129 0.001501,-0.005395 0.001394,-0.0105788 -9.5622e-4,-0.0152588 -0.00137,-0.00272 -0.003438,-0.005163 -0.006348,-0.007263 -4.333e-5,-3.53e-5 -3.8191e-4,-3.2466e-4 -4.0691e-4,-3.0518e-4 -0.021242,-0.013655 -0.0393126,0.0110912 -0.0426025,0.0159912 l -3.8656e-4,2.8483e-4 c 3.4577e-4,3.8528e-4 5.6456e-4,8.1032e-4 8.9519e-4,0.0012 -0.002485,-0.002932 -0.005273,-0.005767 -0.008626,-0.008402 -4.327e-5,1.2107e-4 -1.5562e-4,2.2568e-4 -2.0345e-4,3.4587e-4 4.9854e-4,-0.001246 8.138e-4,-0.002525 8.138e-4,-0.003866 0,-0.006224 -0.005507,-0.011486 -0.0145874,-0.015096 -0.005973,-0.00238 -0.0137206,-0.004165 -0.0224406,-0.005127 3.8e-6,1.351e-4 2.034e-5,2.706e-4 2.034e-5,4.0689e-4 0,-0.004042 -0.001643,-0.007685 -0.004293,-0.0103353 -0.002642,-0.00264 -0.006295,-0.004293 -0.0103353,-0.004293 z m 0,0.009115 c 7.6e-4,0 0.001478,1.6958e-4 0.002136,4.4758e-4 -6.5802e-4,-2.78e-4 -0.001376,-4.2724e-4 -0.002136,-4.2724e-4 -6.3031e-4,0 -0.001226,1.5093e-4 -0.00179,3.4587e-4 5.6885e-4,-1.9849e-4 0.001154,-3.6621e-4 0.00179,-3.6621e-4 z m -0.0139974,0.009481 c 9.611e-5,3.3735e-4 1.8583e-4,6.7005e-4 3.0517e-4,9.9691e-4 -1.1914e-4,-3.2912e-4 -2.0941e-4,-6.5732e-4 -3.0517e-4,-9.9691e-4 z m 0.0279948,0 c -9.697e-5,3.3926e-4 -1.8494e-4,6.681e-4 -3.0518e-4,9.9691e-4 1.1962e-4,-3.2711e-4 2.0876e-4,-6.593e-4 3.0518e-4,-9.9691e-4 z m -0.0260417,0.004293 c 5.0875e-4,7.3679e-4 0.001077,0.001443 0.001709,0.002075 0.001321,0.00132 0.00289,0.00239 0.004639,0.003133 -0.001749,-7.38e-4 -0.003318,-0.001793 -0.004639,-0.003113 0,0 0,-2.034e-5 0,-2.034e-5 -5.7831e-4,-5.7935e-4 -0.00114,-0.001196 -0.001607,-0.001872 -4.366e-5,-6.16e-5 -5.901e-5,-1.4115e-4 -1.02e-4,-2.0266e-4 z m 0.0240479,6.103e-5 c -3.084e-5,4.464e-5 -5.008e-5,9.816e-5 -8.138e-5,1.4242e-4 -4.7531e-4,6.6929e-4 -0.001011,0.001285 -0.001587,0.001872 0,0 0,2.034e-5 0,2.034e-5 -6.625e-4,6.625e-4 -0.001379,0.001245 -0.002157,0.00177 -0.001555,0.001049 -0.003326,0.00181 -0.005229,0.002197 0.001903,-3.9087e-4 0.003674,-0.001144 0.005229,-0.002197 7.7739e-4,-5.2669e-4 0.001494,-0.001128 0.002157,-0.00179 6.124e-4,-6.1288e-4 0.00117,-0.0013 0.001668,-0.002015 z m 0.0764974,0.0111288 c 0.002674,-6.078e-5 0.005447,6.5141e-4 0.00826,0.002441 l 6.104e-5,4.069e-5 c 0.00133,8.3e-4 0.00287,0.002557 0.003581,0.003967 0.001246,0.00248 0.001224,0.005479 3.0518e-4,0.008769 -0.00106,0.003791 -0.003306,0.007915 -0.006246,0.012085 -0.006538,0.009274 -0.0162575,0.0184127 -0.0246175,0.0249227 2.4844e-4,-0.00117 4.4688e-4,-0.002371 5.9001e-4,-0.003601 7.229e-5,-6.1e-4 1.3935e-4,-0.00124 1.831e-4,-0.001872 -1.0881e-4,8.4554e-4 -3.2912e-4,0.001682 -4.8828e-4,0.002523 0.00204,-0.0107836 -9.167e-5,-0.0220095 -0.006816,-0.0321452 2.7531e-4,4.1426e-4 6.5546e-4,8.0292e-4 9.1553e-4,0.001221 0.00208,-0.00157 0.00367,-0.004318 0.00531,-0.006348 0.003893,-0.004808 0.0109385,-0.0118212 0.0189619,-0.0120032 z m -0.13936365,0.004069 c 9.505e-5,2.4945e-4 1.7089e-4,5.074e-4 2.8483e-4,7.5277e-4 -1.1502e-4,-2.48e-4 -1.8916e-4,-5.0055e-4 -2.8483e-4,-7.5277e-4 z m 0.001078,0.001973 c 6.7094e-4,0.001096 0.001421,0.002155 0.002462,0.003153 -2.9379e-4,-2.8255e-4 -6.5038e-4,-5.432e-4 -9.1553e-4,-8.3414e-4 -6.7077e-4,-7.358e-4 -0.001067,-0.001536 -0.001546,-0.002319 z m 0.099467,1.2208e-4 c -5.4778e-4,8.6825e-4 -0.001169,0.001715 -0.001953,0.002523 7.837e-4,-8.0768e-4 0.001405,-0.001654 0.001953,-0.002523 z m -0.1875611,0.001953 c 0.007029,0.002135 0.01358841,0.003813 0.01969402,0.005086 -0.006106,-0.001274 -0.01266521,-0.002931 -0.01969402,-0.005066 z m 0.09114587,0.001607 c 0.001292,0.001145 0.002813,0.002241 0.004557,0.003235 -0.001752,-9.963e-4 -0.003262,-0.002084 -0.004557,-0.003235 z m 0.0929566,3.6621e-4 c -3.7515e-4,3.1547e-4 -6.2678e-4,6.7273e-4 -0.001038,9.7657e-4 -7.3142e-4,5.4119e-4 -0.001661,0.001003 -0.002502,0.001506 0.001313,-7.834e-4 0.002498,-0.001608 0.00354,-0.002483 z m -0.004923,0.003337 c -0.001958,0.001046 -0.004089,0.002023 -0.00651,0.002869 0.002407,-8.428e-4 0.004558,-0.001827 0.00651,-0.002869 z m 0.0283407,0.0382487 c -3.2074e-4,0.001294 -7.4034e-4,0.002571 -0.00118,0.003845 4.3982e-4,-0.001273 8.5922e-4,-0.002551 0.00118,-0.003845 z m -0.001851,0.005819 c -4.2646e-4,0.001075 -9.5363e-4,0.00212 -0.001465,0.003174 5.1026e-4,-0.001052 0.001039,-0.002101 0.001465,-0.003174 z m -0.10408532,0.0325114 c 0.004574,0.001046 0.009151,0.001983 0.0136922,0.002726 -0.001128,-1.8448e-4 -0.002224,-2.8423e-4 -0.003357,-4.8828e-4 -0.00344,-6.1703e-4 -0.006889,-0.00145 -0.0103352,-0.002238 z m 0.0649007,0.001567 c -0.00189,7.2e-4 -0.003924,0.001332 -0.006124,0.001831 -6.204e-5,1.41e-5 -1.4119e-4,6.42e-6 -2.0345e-4,2.034e-5 0.002265,-5.0701e-4 0.004387,-0.001107 0.006327,-0.001851 z m -0.046285,0.001872 c 0.004624,6.396e-4 0.009161,0.001102 0.0135498,0.001363 -0.004401,-2.6221e-4 -0.008913,-7.2095e-4 -0.0135498,-0.001363 z m 0.0307414,0.001302 c -8.6534e-4,7.568e-5 -0.001754,1.308e-4 -0.002645,1.831e-4 8.8613e-4,-5.238e-5 0.001784,-1.0758e-4 0.002645,-1.831e-4 z m -0.0137329,3.2552e-4 c 9.2974e-4,3.351e-5 0.001814,6.25e-6 0.002726,2.034e-5 -9.1445e-4,-1.43e-5 -0.001795,1.344e-5 -0.002726,-2.034e-5 z"
       style="clip-rule:evenodd;fill:#000000;fill-opacity:1;fill-rule:evenodd;stroke:none;stroke-width:0.0570049;image-rendering:optimizeQuality;shape-rendering:geometricPrecision;text-rendering:geometricPrecision;opacity:0.5;filter:url(#filter59502)"
       id="path6-8" /><path
       d="M 4.9335938 11.128906 C 4.1217913 11.09245 3.1000716 11.249723 2.1660156 11.992188 C 1.9767689 12.142908 1.9452711 12.418302 2.0957031 12.607422 C 2.1516711 12.677387 2.2250133 12.726456 2.3046875 12.751953 C 2.5707131 12.847569 6.6721097 14.215447 9.6738281 17.318359 C 11.80946 19.526935 19.14133 21.421243 22.142578 20.269531 C 22.237618 20.232841 22.332762 20.198225 22.427734 20.162109 C 26.482966 18.620157 27.542986 14.404683 24.294922 11.851562 C 24.204682 12.104043 24.010855 12.336536 23.734375 12.541016 C 23.472295 12.734936 23.135016 12.903769 22.736328 13.042969 C 21.873288 13.344409 20.691236 13.53125 19.396484 13.53125 C 18.101732 13.53125 16.919777 13.345369 16.056641 13.042969 C 15.488225 12.844249 15.043852 12.58653 14.765625 12.28125 C 14.554713 12.04989 14.439453 11.793065 14.439453 11.515625 C 14.439453 11.481047 14.441693 11.446477 14.445312 11.412109 C 14.36208 11.426394 14.286891 11.463127 14.226562 11.517578 C 14.008758 11.681345 11.918696 13.089978 6.4414062 11.433594 C 6.3480702 11.395674 5.7453962 11.165362 4.9335938 11.128906 z M 6.1601562 12.257812 C 6.8349175 12.462731 7.4646451 12.623824 8.0507812 12.746094 C 7.4646451 12.623821 6.8349175 12.464687 6.1601562 12.259766 L 6.1601562 12.257812 z M 13.126953 12.873047 C 12.586305 12.997471 11.903485 13.087554 11.0625 13.085938 C 11.903485 13.087551 12.586305 12.997472 13.126953 12.873047 z "
       style="stroke:none;stroke-width:5.47247;fill:url(#linearGradient988);fill-opacity:1"
       id="path6"
       transform="scale(0.01041667)" /><path
       transform="scale(0.01041667)"
       d="M 17.992188 9.5722656 C 17.154597 9.6644256 16.413348 9.8379262 15.839844 10.066406 C 14.968145 10.413254 14.439453 10.916552 14.439453 11.513672 C 14.439453 12.1562 15.057137 12.693529 16.056641 13.042969 C 16.919777 13.345369 18.101732 13.53125 19.396484 13.53125 C 20.691236 13.53125 21.871335 13.344409 22.734375 13.042969 C 23.733927 12.693433 24.353516 12.155912 24.353516 11.513672 C 24.353516 10.916168 23.824805 10.411013 22.953125 10.064453 C 22.379717 9.8359731 21.635948 9.664608 20.798828 9.5722656 C 20.799193 9.5852352 20.800781 9.5982433 20.800781 9.6113281 C 20.800781 9.9137281 20.703256 10.194388 20.541016 10.423828 C 20.495099 10.488484 20.444352 10.548829 20.388672 10.605469 C 20.134272 10.859869 19.784516 11.015625 19.396484 11.015625 C 19.008644 11.015625 18.657929 10.858909 18.404297 10.605469 C 18.348396 10.549558 18.29512 10.489108 18.25 10.423828 C 18.087376 10.194388 17.992188 9.9137281 17.992188 9.6113281 C 17.992187 9.5982529 17.991823 9.5852352 17.992188 9.5722656 z M 16.345703 12.21875 C 16.73177 12.353365 17.193466 12.46369 17.708984 12.539062 C 17.193465 12.46369 16.731771 12.353366 16.345703 12.21875 z M 22.449219 12.21875 C 22.062963 12.35363 21.600272 12.463582 21.083984 12.539062 C 21.600272 12.463582 22.062963 12.35363 22.449219 12.21875 z "
       style="stroke:none;stroke-width:5.47247;fill:url(#linearGradient1004);fill-opacity:1"
       id="path8" /><path
       transform="scale(0.01041667)"
       d="M 19.396484 8.2070312 C 19.008452 8.2070312 18.658697 8.3647406 18.404297 8.6191406 C 18.150857 8.8727726 17.992188 9.2234881 17.992188 9.6113281 C 17.992188 9.9993601 18.149897 10.349116 18.404297 10.603516 C 18.657929 10.856956 19.008644 11.015625 19.396484 11.015625 C 19.784516 11.015625 20.134272 10.857916 20.388672 10.603516 C 20.642112 10.349884 20.800781 9.9991681 20.800781 9.6113281 C 20.800781 9.2232961 20.643072 8.8735406 20.388672 8.6191406 C 20.13504 8.3657006 19.784324 8.2070312 19.396484 8.2070312 z M 19.396484 9.0820312 C 19.469444 9.0820312 19.538394 9.098312 19.601562 9.125 C 19.538393 9.098312 19.469444 9.0839844 19.396484 9.0839844 C 19.335971 9.0839844 19.278788 9.0984729 19.224609 9.1171875 C 19.279224 9.0981328 19.335398 9.0820312 19.396484 9.0820312 z "
       style="stroke:none;stroke-width:5.47247;fill:url(#linearGradient1012);fill-opacity:1"
       id="path10" /><path
       style="stroke:none;stroke-width:0.0570049;fill:#fec109;fill-opacity:1"
       id="path12"
       d="m 0.26079352,0.13065221 3.939e-4,-2.753e-4 c 0.00329,-0.0049 0.021352,-0.029641 0.042594,-0.015986 2.47e-5,-1.95e-5 3.768e-4,2.577e-4 4.201e-4,2.93e-4 0.00291,0.0021 0.00498,0.00455 0.00635,0.00727 0.00235,0.00468 0.00245,0.00987 9.493e-4,0.015265 -0.00137,0.0049 -0.00406,0.00995 -0.00755,0.014905 -0.011152,0.01582 -0.031098,0.031366 -0.040235,0.035968 0.00493,-0.00671 0.00796,-0.014152 0.00894,-0.021767 -4.36e-5,6.318e-4 -1.015e-4,0.00126 -1.733e-4,0.00187 -1.431e-4,0.00123 -3.409e-4,0.00243 -5.894e-4,0.0036 0.00836,-0.00651 0.018076,-0.015636 0.024614,-0.02491 0.00294,-0.00417 0.00518,-0.0083 0.00624,-0.012091 9.188e-4,-0.00329 9.374e-4,-0.0063 -3.084e-4,-0.00878 -7.104e-4,-0.00141 -0.00224,-0.00313 -0.00357,-0.00396 l -5.93e-5,-4.69e-5 c -0.011251,-0.00716 -0.022036,0.00316 -0.027227,0.00957 -0.00164,0.00203 -0.00323,0.00477 -0.00531,0.00634 -0.00155,-0.00249 -0.00337,-0.00492 -0.00547,-0.00726 z"
       class="fil0" /><path
       transform="scale(0.01041667)"
       d="M 15.376953 20.001953 C 15.279129 20.057633 15.186687 20.115733 15.101562 20.175781 C 14.584506 20.540293 14.287109 20.991167 14.287109 21.498047 C 14.287109 22.202687 14.871286 22.806811 15.816406 23.212891 C 16.649417 23.570971 17.791129 23.792969 19.042969 23.792969 C 20.294809 23.792969 21.434298 23.570971 22.267578 23.212891 C 23.212698 22.806427 23.798828 22.202687 23.798828 21.498047 C 23.798828 21.012095 23.522969 20.57587 23.042969 20.21875 C 22.953689 20.15251 22.855633 20.088486 22.751953 20.027344 C 22.620433 20.084945 22.510381 20.130698 22.427734 20.162109 C 22.332694 20.198436 22.237551 20.233032 22.142578 20.269531 C 21.961138 20.338651 21.765888 20.39737 21.554688 20.445312 C 20.330015 20.723713 18.642185 20.646944 16.904297 20.333984 C 16.395814 20.242784 15.883833 20.131553 15.376953 20.001953 z "
       style="stroke:none;stroke-width:5.47247;fill:#f4b701;fill-opacity:1"
       id="path14" /><path
       id="path17168"
       d="m 0.20215292,0.15813278 -0.0117738,0.0188381 0.0117738,0.0188381 0.0117738,-0.0188381 z"
       style="display:inline;fill:url(#radialGradient17172);fill-opacity:1;stroke:#a40000;stroke-width:0.00470953;stroke-linecap:round;stroke-linejoin:miter;stroke-miterlimit:4;stroke-dashoffset:0;stroke-opacity:1"
       inkscape:connector-curvature="0" /><path
       id="path17170"
       d="m 0.20215292,0.16127245 -0.007849,0.0156984 0.007849,0.0156985 z"
       style="display:inline;fill:url(#linearGradient17174);fill-opacity:1;stroke:none;stroke-width:0.00470953"
       inkscape:connector-curvature="0" /><path
       style="display:inline;fill:url(#radialGradient11865);fill-opacity:1;stroke:#a40000;stroke-width:0.00470953;stroke-linecap:round;stroke-linejoin:miter;stroke-miterlimit:4;stroke-dashoffset:0;stroke-opacity:1"
       d="m 0.15976717,0.14828196 -0.007065,0.0141286 0.007065,0.0141286 0.007065,-0.0141286 z"
       id="path11861"
       inkscape:connector-curvature="0" /><path
       style="display:inline;fill:url(#linearGradient11867);fill-opacity:1;stroke:none;stroke-width:0.00470953"
       d="m 0.15976718,0.15063672 -0.004709,0.0117739 0.004709,0.0117738 z"
       id="path11863"
       inkscape:connector-curvature="0" /><path
       style="display:inline;fill:url(#radialGradient14259);fill-opacity:1;stroke:#a40000;stroke-width:0.00470953;stroke-linecap:round;stroke-linejoin:miter;stroke-miterlimit:4;stroke-dashoffset:0;stroke-opacity:1"
       d="m 0.24453867,0.14871371 -0.007065,0.0141285 0.007065,0.0141286 0.007065,-0.0141286 z"
       id="path14255"
       inkscape:connector-curvature="0" /><path
       style="display:inline;fill:url(#linearGradient14261);fill-opacity:1;stroke:none;stroke-width:0.00470953"
       d="m 0.24453867,0.15106847 -0.004709,0.0117739 0.004709,0.0117738 z"
       id="path14257"
       inkscape:connector-curvature="0" /></g><rect
     y="0"
     x="0"
     id="rect27"
     width="6.8266602"
     height="6.8266602"
     class="fil4" /></svg>
