<?xml version="1.0" encoding="UTF-8" standalone="no"?>
<svg
   xmlns:dc="http://purl.org/dc/elements/1.1/"
   xmlns:cc="http://creativecommons.org/ns#"
   xmlns:rdf="http://www.w3.org/1999/02/22-rdf-syntax-ns#"
   xmlns:svg="http://www.w3.org/2000/svg"
   xmlns="http://www.w3.org/2000/svg"
   xmlns:sodipodi="http://sodipodi.sourceforge.net/DTD/sodipodi-0.dtd"
   xmlns:inkscape="http://www.inkscape.org/namespaces/inkscape"
   width="32"
   height="32"
   version="1.1"
   id="svg20"
   sodipodi:docname="gerbera.svg"
   inkscape:version="1.0.1 (3bc2e813f5, 2020-09-07)">
  <metadata
     id="metadata26">
    <rdf:RDF>
      <cc:Work
         rdf:about="">
        <dc:format>image/svg+xml</dc:format>
        <dc:type
           rdf:resource="http://purl.org/dc/dcmitype/StillImage" />
        <dc:title></dc:title>
      </cc:Work>
    </rdf:RDF>
  </metadata>
  <defs
     id="defs24">
    <filter
       inkscape:collect="always"
       style="color-interpolation-filters:sRGB"
       id="filter868"
       x="-0.075"
       width="1.15"
       y="-0.075"
       height="1.15">
      <feGaussianBlur
         inkscape:collect="always"
         stdDeviation="0.875"
         id="feGaussianBlur870" />
    </filter>
  </defs>
  <sodipodi:namedview
     pagecolor="#ffffff"
     bordercolor="#666666"
     borderopacity="1"
     objecttolerance="10"
     gridtolerance="10"
     guidetolerance="10"
     inkscape:pageopacity="0"
     inkscape:pageshadow="2"
     inkscape:window-width="1920"
     inkscape:window-height="1000"
     id="namedview22"
     showgrid="false"
     inkscape:zoom="10.421875"
     inkscape:cx="9.6856645"
     inkscape:cy="17.948151"
     inkscape:window-x="0"
     inkscape:window-y="0"
     inkscape:window-maximized="1"
     inkscape:current-layer="svg20" />
  <rect
     style="opacity:0.5;fill:#000000;fill-opacity:1;stroke-width:0.324222;filter:url(#filter868)"
     id="rect851-3"
     width="28"
     height="28"
     x="2"
     y="2"
     rx="14"
     ry="14" />
  <rect
     style="opacity:1;fill:#ffffff;stroke-width:0.324222;fill-opacity:1"
     id="rect851"
     width="28"
     height="28"
     x="2"
     y="2"
     rx="14"
     ry="14" />
  <path
     style="fill:#ff731a;stroke-width:0.857144"
     d="M 15.711804,3.9999998 A 1.2372752,4.6020683 0 0 0 14.474731,8.60214 1.2372752,4.6020683 0 0 0 15.711804,13.204283 1.2372752,4.6020683 0 0 0 16.949197,8.60214 1.2372752,4.6020683 0 0 0 15.711804,3.9999998 Z M 9.6340722,5.6548882 a 4.6362434,1.2281547 58.138866 0 0 -0.25908,0.044845 4.6362434,1.2281547 58.138866 0 0 1.3801458,4.5635678 4.6362434,1.2281547 58.138866 0 0 0.756937,1.11894 4.6975657,1.2121226 29.203967 0 0 -0.903878,-0.544104 4.6975657,1.2121226 29.203967 0 0 -4.7146642,-1.25567 4.6975657,1.2121226 29.203967 0 0 3.4785604,3.34208 4.6975657,1.2121226 29.203967 0 0 4.7143418,1.255672 4.6975657,1.2121226 29.203967 0 0 -0.06509,-0.551944 4.6362434,1.2281547 58.138866 0 0 0.233946,-0.04453 A 4.6362434,1.2281547 58.138866 0 0 12.874818,9.02049 4.6362434,1.2281547 58.138866 0 0 9.6340712,5.654889 Z m 14.4101628,2.18833 a 1.2228044,4.6565296 41.602486 0 0 -3.659012,2.7857458 1.2228044,4.6565296 41.602486 0 0 -2.147072,4.273486 1.2228044,4.6565296 41.602486 0 0 0.40022,0.07589 1.2047481,4.7263197 82.183419 0 0 -0.0055,0.11196 1.2047481,4.7263197 82.183419 0 0 4.855484,0.546925 1.2047481,4.7263197 82.183419 0 0 4.508432,-1.837408 1.2047481,4.7263197 82.183419 0 0 -4.855481,-0.546925 1.2047481,4.7263197 82.183419 0 0 -2.486391,0.532812 1.2228044,4.6565296 41.602486 0 0 1.605711,-1.585897 1.2228044,4.6565296 41.602486 0 0 2.147076,-4.2734842 1.2228044,4.6565296 41.602486 0 0 -0.363486,-0.083105 z M 10.960727,16.122371 a 1.2047481,4.7263197 82.183419 0 0 -2.2656568,0.163388 1.2047481,4.7263197 82.183419 0 0 -4.5087548,1.837407 1.2047481,4.7263197 82.183419 0 0 4.8554838,0.546925 1.2047481,4.7263197 82.183419 0 0 2.4863868,-0.533128 1.2228044,4.6565293 41.602484 0 0 -1.6057098,1.58621 1.2228044,4.6565293 41.602484 0 0 -2.1467511,4.273485 1.2228044,4.6565293 41.602484 0 0 4.0224969,-2.702641 1.2228044,4.6565293 41.602484 0 0 2.14675,-4.273485 1.2228044,4.6565293 41.602484 0 0 -0.399896,-0.07621 1.2047481,4.7263197 82.183419 0 0 0.0055,-0.111648 1.2047481,4.7263197 82.183419 0 0 -2.589827,-0.710313 z m 8.245104,1.535719 a 4.6937383,1.2131108 31.152893 0 0 -0.57165,0.205723 4.6937383,1.2131108 31.152893 0 0 3.357722,3.45686 4.6937383,1.2131108 31.152893 0 0 4.667294,1.413416 4.6937383,1.2131108 31.152893 0 0 -3.35772,-3.456861 4.6937383,1.2131108 31.152893 0 0 -4.095646,-1.619138 z m -1.532242,0.687106 a 4.6435471,1.2262232 54.494602 0 0 -0.255858,0.06084 4.6435471,1.2262232 54.494602 0 0 1.672093,4.469799 4.6435471,1.2262232 54.494602 0 0 3.707026,3.10029 4.6435471,1.2262232 54.494602 0 0 -1.671768,-4.469801 4.6435471,1.2262232 54.494602 0 0 -3.451493,-3.16113 z m -1.368222,0.456295 a 4.6022236,1.2372334 87.948299 0 0 -1.07241,4.64103 4.6022236,1.2372334 87.948299 0 0 1.400447,4.557295 4.6022236,1.2372334 87.948299 0 0 1.072407,-4.641029 4.6022236,1.2372334 87.948299 0 0 -1.400444,-4.557296 z"
     id="path4" />
  <path
     style="fill:#ff9522;stroke-width:0.857144"
     d="m 18.191102,4.1263815 a 1.2366007,4.6045784 8.2720072 0 0 -1.796477,4.3895175 1.2366007,4.6045784 8.2720072 0 0 0.565205,4.725076 1.2366007,4.6045784 8.2720072 0 0 0.727614,-0.572014 1.2323098,4.6206113 22.949156 0 0 0.297105,1.446656 1.2323098,4.6206113 22.949156 0 0 0.46209,-0.08279 1.2073482,4.7161415 71.977936 0 0 -0.0077,0.238339 1.2073482,4.7161415 71.977936 0 0 4.87675,-0.322698 1.2073482,4.7161415 71.977936 0 0 4.089522,-2.605739 1.2073482,4.7161415 71.977936 0 0 -4.876751,0.322701 1.2073482,4.7161415 71.977936 0 0 -3.132153,1.422193 1.2323098,4.6206113 22.949156 0 0 1.528376,-2.77226 1.2323098,4.6206113 22.949156 0 0 0.650599,-4.7147265 1.2323098,4.6206113 22.949156 0 0 -2.748046,3.3621505 1.2366007,4.6045784 8.2720072 0 0 0.01774,-0.1107 1.2366007,4.6045784 8.2720072 0 0 -0.565528,-4.7250739 1.2366007,4.6045784 8.2720072 0 0 -0.08828,-6.84e-4 z m -6.356787,0.6453973 a 4.6151464,1.233769 70.866126 0 0 -0.124708,0.016613 4.6151464,1.233769 70.866126 0 0 0.334482,4.7457712 4.6151464,1.233769 70.866126 0 0 0.784972,1.882568 4.6561949,1.2228921 48.550724 0 0 -1.281217,-1.657085 4.6561949,1.2228921 48.550724 0 0 -4.0150865,-2.7129909 4.6561949,1.2228921 48.550724 0 0 2.1351487,4.2791289 4.6561949,1.2228921 48.550724 0 0 1.6047458,1.59123 4.7134928,1.2080266 19.904002 0 0 -1.5786438,-0.662646 4.7134928,1.2080266 19.904002 0 0 -4.8625722,-0.482325 4.7134928,1.2080266 19.904002 0 0 3.4002552,2.507893 4.7287249,1.2041354 1.038034 0 0 -4.2316294,1.118939 4.7287249,1.2041354 1.038034 0 0 4.7049974,1.289855 4.7287249,1.2041354 1.038034 0 0 4.7510768,-1.117998 4.7287249,1.2041354 1.038034 0 0 -0.146617,-0.302 4.7134928,1.2080266 19.904002 0 0 0.381529,-0.276286 4.7134928,1.2080266 19.904002 0 0 -0.509456,-0.899104 4.6561949,1.2228921 48.550724 0 0 0.501402,-0.05456 4.6561949,1.2228921 48.550724 0 0 -0.187223,-1.473939 4.6151464,1.233769 70.866126 0 0 1.228373,0.947399 A 4.6151464,1.233769 70.866126 0 0 14.389661,8.766469 4.6151464,1.233769 70.866126 0 0 11.834315,4.7717776 Z M 22.945404,14.84506 a 4.7287249,1.2041354 1.038034 0 0 -4.416594,1.121134 4.7287249,1.2041354 1.038034 0 0 0.659621,0.627837 4.7134925,1.2080266 19.904 0 0 -0.696358,0.336495 4.7134925,1.2080266 19.904 0 0 0.509783,0.899105 4.6561949,1.2228921 48.550728 0 0 -0.501727,0.05458 4.6561949,1.2228921 48.550728 0 0 0.186576,1.472688 4.6151461,1.233769 70.866123 0 0 -1.227725,-0.946146 4.6151461,1.233769 70.866123 0 0 0.334481,4.745774 4.6151461,1.233769 70.866123 0 0 2.680054,3.97807 4.6151461,1.233769 70.866123 0 0 -0.334483,-4.745772 4.6151461,1.233769 70.866123 0 0 -0.785616,-1.884137 4.6561949,1.2228921 48.550728 0 0 1.282185,1.658653 4.6561949,1.2228921 48.550728 0 0 4.015085,2.71299 4.6561949,1.2228921 48.550728 0 0 -2.135472,-4.27913 4.6561949,1.2228921 48.550728 0 0 -1.605064,-1.591541 4.7134925,1.2080266 19.904 0 0 1.578964,0.662961 4.7134925,1.2080266 19.904 0 0 4.862895,0.482324 4.7134925,1.2080266 19.904 0 0 -3.997039,-2.738393 4.7134925,1.2080266 19.904 0 0 -0.487547,-0.167779 4.7287249,1.2041354 1.038034 0 0 0.366061,0.01128 4.7287249,1.2041354 1.038034 0 0 4.751078,-1.117999 4.7287249,1.2041354 1.038034 0 0 -4.704675,-1.289854 4.7287249,1.2041354 1.038034 0 0 -0.334483,-0.0031 z m -10.417312,2.414439 a 1.2073482,4.7161415 71.977942 0 0 -3.6606248,0.715018 1.2073482,4.7161415 71.977942 0 0 -4.0892005,2.605736 1.2073482,4.7161415 71.977942 0 0 4.8764285,-0.322697 1.2073482,4.7161415 71.977942 0 0 3.1324748,-1.422195 1.2323098,4.6206109 22.949152 0 0 -1.528373,2.77226 1.2323098,4.6206109 22.949152 0 0 -0.650923,4.714724 1.2323098,4.6206109 22.949152 0 0 2.74837,-3.363091 1.2366007,4.6045784 8.2720069 0 0 -0.01772,0.111648 1.2366007,4.6045784 8.2720069 0 0 0.565204,4.725077 1.2366007,4.6045784 8.2720069 0 0 1.885094,-4.388892 1.2366007,4.6045784 8.2720069 0 0 -0.565529,-4.725072 1.2366007,4.6045784 8.2720069 0 0 -0.72729,0.572012 1.2323098,4.6206109 22.949152 0 0 -0.297103,-1.446656 1.2323098,4.6206109 22.949152 0 0 -0.462413,0.08279 1.2073482,4.7161415 71.977942 0 0 0.0077,-0.238339 1.2073482,4.7161415 71.977942 0 0 -1.216127,-0.392318 z"
     id="path10" />
  <circle
     style="fill:#ff5600;stroke-width:0.857144"
     cx="16.000019"
     cy="16"
     r="4.2857184"
     id="circle16" />
  <circle
     style="fill:#434343;stroke-width:0.857144"
     cx="16.000019"
     cy="16"
     r="2.5714312"
     id="circle18" />
</svg>
