<?xml version="1.0" encoding="UTF-8" standalone="no"?>
<svg
   xmlns:dc="http://purl.org/dc/elements/1.1/"
   xmlns:cc="http://creativecommons.org/ns#"
   xmlns:rdf="http://www.w3.org/1999/02/22-rdf-syntax-ns#"
   xmlns:svg="http://www.w3.org/2000/svg"
   xmlns="http://www.w3.org/2000/svg"
   xmlns:sodipodi="http://sodipodi.sourceforge.net/DTD/sodipodi-0.dtd"
   xmlns:inkscape="http://www.inkscape.org/namespaces/inkscape"
   sodipodi:docname="gnumeric.svg"
   inkscape:version="1.0.1 (3bc2e813f5, 2020-09-07)"
   id="svg8"
   version="1.1"
   viewBox="0 0 8.4666665 8.4666669"
   height="32"
   width="32">
  <defs
     id="defs2">
    <filter
       inkscape:collect="always"
       style="color-interpolation-filters:sRGB"
       id="filter61694"
       x="-0.081249999"
       width="1.1625"
       y="-0.069642858"
       height="1.1392857">
      <feGaussianBlur
         inkscape:collect="always"
         stdDeviation="0.21497395"
         id="feGaussianBlur61696" />
    </filter>
  </defs>
  <sodipodi:namedview
     inkscape:window-maximized="1"
     inkscape:window-y="0"
     inkscape:window-x="0"
     inkscape:window-height="1000"
     inkscape:window-width="1920"
     units="px"
     showgrid="false"
     inkscape:document-rotation="0"
     inkscape:current-layer="layer1"
     inkscape:document-units="px"
     inkscape:cy="28.031635"
     inkscape:cx="32.024029"
     inkscape:zoom="12.734375"
     inkscape:pageshadow="2"
     inkscape:pageopacity="0.0"
     borderopacity="1.0"
     bordercolor="#666666"
     pagecolor="#ffffff"
     id="base" />
  <metadata
     id="metadata5">
    <rdf:RDF>
      <cc:Work
         rdf:about="">
        <dc:format>image/svg+xml</dc:format>
        <dc:type
           rdf:resource="http://purl.org/dc/dcmitype/StillImage" />
        <dc:title />
      </cc:Work>
    </rdf:RDF>
  </metadata>
  <g
     id="layer1"
     inkscape:groupmode="layer"
     inkscape:label="Capa 1">
    <path
       style="opacity:0.5;fill:#000000;fill-opacity:1;stroke:none;stroke-width:2.29352999;filter:url(#filter61694)"
       d="M 1.0583334,0.5291668 V 7.9374999 H 7.4083333 V 2.1166666 l -1.5875,-1.5874998 z"
       id="path926-2"
       inkscape:connector-curvature="0" />
    <path
       style="opacity:1;fill:#f5f5f5;fill-opacity:1;stroke:none;stroke-width:2.29352999"
       d="M 1.0583334,0.52916675 V 7.9374999 H 7.4083333 V 2.1166666 l -1.5875,-1.58749985 z"
       id="path926"
       inkscape:connector-curvature="0" />
    <path
       inkscape:connector-curvature="0"
       style="opacity:0.2;fill:#000000;fill-opacity:1;stroke:none;stroke-width:2.29352999"
       d="M 5.8208333,0.52916675 V 2.1166669 h 1.5875 z"
       id="path926-1" />
    <path
       inkscape:connector-curvature="0"
       id="rect2862-0"
       d="M 1.8520833,2.38125 V 3.1220834 3.8629167 4.60375 5.3445833 h 1.190625 1.190625 1.190625 1.190625 V 4.60375 3.8629167 3.1220834 2.38125 H 5.4239583 4.2333333 3.0427083 Z M 1.9710684,2.5049634 H 2.9237233 V 2.9987317 H 1.9710684 Z m 1.1906249,0 h 0.952655 v 0.4937683 h -0.952655 z m 1.190625,0 H 5.3049731 V 2.9987317 H 4.3523183 Z m 1.190625,0 H 6.4955981 V 2.9987317 H 5.5429433 Z M 1.9710684,3.2457967 H 2.9237233 V 3.739565 H 1.9710684 Z m 1.1906249,0 H 4.1143481 V 3.739565 H 3.1616933 Z m 1.190625,0 H 5.3049731 V 3.739565 H 4.3523183 Z m 1.190625,0 H 6.4955981 V 3.739565 H 5.5429433 Z M 1.9710684,3.98663 H 2.9237231 V 4.4803986 H 1.9710684 Z m 1.1906249,0 H 4.1143481 V 4.4803986 H 3.1616933 Z m 1.190625,0 H 5.3049731 V 4.4803986 H 4.3523183 Z m 1.190625,0 H 6.4955981 V 4.4803986 H 5.5429433 Z M 1.9710684,4.7274634 H 2.9237231 V 5.2212317 H 1.9710684 Z m 1.1906249,0 H 4.1143481 V 5.2212317 H 3.1616933 Z m 1.190625,0 H 5.3049731 V 5.2212317 H 4.3523183 Z m 1.190625,0 H 6.4955981 V 5.2212317 H 5.5429433 Z"
       style="opacity:0.2;fill:#000000;fill-opacity:1;stroke:none;stroke-width:0.0273103;stroke-miterlimit:4;stroke-dasharray:none;stroke-opacity:1" />
    <path
       d="M 8.0994592,6.3499999 A 2.1166668,2.1166668 0 0 1 6.7928057,8.305545 2.1166668,2.1166668 0 0 1 4.4860829,7.8467093 2.1166668,2.1166668 0 0 1 4.0272473,5.5399866 2.1166668,2.1166668 0 0 1 5.9827924,4.2333331 v 2.1166668 z"
       sodipodi:arc-type="slice"
       sodipodi:end="4.712389"
       sodipodi:start="0"
       sodipodi:ry="2.1166668"
       sodipodi:rx="2.1166668"
       sodipodi:cy="6.3499999"
       sodipodi:cx="5.9827924"
       sodipodi:type="arc"
       id="path836"
       style="opacity:1;fill:#ff4141;fill-opacity:1;stroke-width:0.204165" />
    <path
       transform="scale(-1,1)"
       style="opacity:1;fill:#0099ff;stroke-width:0.204165"
       id="path836-8"
       sodipodi:type="arc"
       sodipodi:cx="-6.3499999"
       sodipodi:cy="6.020277"
       sodipodi:rx="2.1166668"
       sodipodi:ry="2.1166668"
       sodipodi:start="3.1415927"
       sodipodi:end="4.712389"
       sodipodi:arc-type="slice"
       d="M -8.4666667,6.020277 A 2.1166668,2.1166668 0 0 1 -6.3499999,3.9036102 V 6.020277 Z" />
  </g>
</svg>
