<?xml version="1.0" encoding="UTF-8" standalone="no"?>
<svg
   xmlns:dc="http://purl.org/dc/elements/1.1/"
   xmlns:cc="http://creativecommons.org/ns#"
   xmlns:rdf="http://www.w3.org/1999/02/22-rdf-syntax-ns#"
   xmlns:svg="http://www.w3.org/2000/svg"
   xmlns="http://www.w3.org/2000/svg"
   xmlns:xlink="http://www.w3.org/1999/xlink"
   xmlns:sodipodi="http://sodipodi.sourceforge.net/DTD/sodipodi-0.dtd"
   xmlns:inkscape="http://www.inkscape.org/namespaces/inkscape"
   viewBox="1 1 32 32"
   version="1.1"
   id="svg125"
   sodipodi:docname="google-chrome.svg"
   width="32"
   height="32"
   inkscape:version="1.0.1 (3bc2e813f5, 2020-09-07)">
  <metadata
     id="metadata129">
    <rdf:RDF>
      <cc:Work
         rdf:about="">
        <dc:format>image/svg+xml</dc:format>
        <dc:type
           rdf:resource="http://purl.org/dc/dcmitype/StillImage" />
        <dc:title></dc:title>
      </cc:Work>
    </rdf:RDF>
  </metadata>
  <sodipodi:namedview
     pagecolor="#ffffff"
     bordercolor="#666666"
     borderopacity="1"
     objecttolerance="10"
     gridtolerance="10"
     guidetolerance="10"
     inkscape:pageopacity="0"
     inkscape:pageshadow="2"
     inkscape:window-width="1920"
     inkscape:window-height="1020"
     id="namedview127"
     showgrid="false"
     inkscape:zoom="7.5681818"
     inkscape:cx="-8.4477532"
     inkscape:cy="16.961004"
     inkscape:window-x="0"
     inkscape:window-y="25"
     inkscape:window-maximized="1"
     inkscape:current-layer="svg125" />
  <style
     id="style2"><![CDATA[.B{clip-path:url(#C)}.C{fill:#3e2723}.D{fill-opacity:.15}.E{fill-opacity:.2}]]></style>
  <defs
     id="defs6">
    <circle
       id="A"
       cx="96"
       cy="96"
       r="88" />
    <path
       id="B"
       d="m 8,184 h 83.77 l 38.88,-38.88 V 116 H 61.35 L 8,24.48 Z" />
    <linearGradient
       inkscape:collect="always"
       xlink:href="#D"
       id="linearGradient1377"
       gradientUnits="userSpaceOnUse"
       x1="29.34"
       y1="75.019997"
       x2="81.839996"
       y2="44.349998" />
    <linearGradient
       inkscape:collect="always"
       xlink:href="#E"
       id="linearGradient1379"
       gradientUnits="userSpaceOnUse"
       x1="110.9"
       y1="164.5"
       x2="52.540001"
       y2="130.3" />
    <linearGradient
       inkscape:collect="always"
       xlink:href="#H"
       id="linearGradient1381"
       gradientUnits="userSpaceOnUse"
       x1="121.9"
       y1="49.799999"
       x2="136.60001"
       y2="114.1" />
    <linearGradient
       inkscape:collect="always"
       xlink:href="#H"
       id="linearGradient1383"
       gradientUnits="userSpaceOnUse"
       x1="121.9"
       y1="49.799999"
       x2="136.60001"
       y2="114.1" />
    <linearGradient
       inkscape:collect="always"
       xlink:href="#D"
       id="linearGradient1385"
       gradientUnits="userSpaceOnUse"
       x1="29.34"
       y1="75.019997"
       x2="81.839996"
       y2="44.349998" />
    <linearGradient
       inkscape:collect="always"
       xlink:href="#E"
       id="linearGradient1387"
       gradientUnits="userSpaceOnUse"
       x1="110.9"
       y1="164.5"
       x2="52.540001"
       y2="130.3" />
    <filter
       inkscape:collect="always"
       style="color-interpolation-filters:sRGB"
       id="filter1391"
       x="-0.075"
       width="1.15"
       y="-0.075"
       height="1.15">
      <feGaussianBlur
         inkscape:collect="always"
         stdDeviation="0.875"
         id="feGaussianBlur1393" />
    </filter>
  </defs>
  <clipPath
     id="C">
    <use
       xlink:href="#A"
       id="use8"
       x="0"
       y="0"
       width="100%"
       height="100%" />
  </clipPath>
  <circle
     style="opacity:0.5;fill:#000000;fill-opacity:1;stroke-width:0.733392;filter:url(#filter1391)"
     id="path1389"
     cx="17"
     cy="17"
     r="14" />
  <g
     class="B"
     transform="matrix(0.15909091,0,0,0.15909091,1.7272726,1.7272726)"
     clip-path="url(#C)"
     id="g66">
    <path
       d="m 21.97,8 v 108 h 39.4 L 96,56 h 88 V 8 Z"
       fill="#db4437"
       id="path11" />
    <linearGradient
       id="D"
       x1="29.34"
       x2="81.839996"
       y1="75.019997"
       y2="44.349998"
       gradientUnits="userSpaceOnUse">
      <stop
         stop-color="#a52714"
         stop-opacity=".6"
         offset="0"
         id="stop13" />
      <stop
         stop-color="#a52714"
         stop-opacity="0"
         offset=".66"
         id="stop15" />
    </linearGradient>
    <path
       d="m 21.97,8 v 108 h 39.4 L 96,56 h 88 V 8 Z"
       fill="url(#D)"
       id="path18"
       style="fill:url(#linearGradient1377)" />
    <path
       d="m 62.3,115.6 -39.82,-68.3 -0.58,1 39.54,67.8 z"
       class="C D"
       id="path20" />
    <use
       xlink:href="#B"
       fill="#0f9d58"
       id="use22"
       x="0"
       y="0"
       width="100%"
       height="100%" />
    <linearGradient
       id="E"
       x1="110.9"
       x2="52.540001"
       y1="164.5"
       y2="130.3"
       gradientUnits="userSpaceOnUse">
      <stop
         stop-color="#055524"
         stop-opacity=".4"
         offset="0"
         id="stop24" />
      <stop
         stop-color="#055524"
         stop-opacity="0"
         offset=".33"
         id="stop26" />
    </linearGradient>
    <path
       d="m 8,184 h 83.77 l 38.88,-38.88 V 116 H 61.35 L 8,24.48 Z"
       fill="url(#E)"
       id="path29"
       style="fill:url(#linearGradient1379)" />
    <path
       d="m 129.8,117.3 -0.83,-0.48 -38.4,67.15 h 1.15 l 38.1,-66.64 z"
       fill="#263238"
       class="D"
       id="path31" />
    <defs
       id="defs34">
      <path
         id="F"
         d="m 8,184 h 83.77 l 38.88,-38.88 V 116 H 61.35 L 8,24.48 Z" />
    </defs>
    <clipPath
       id="G">
      <use
         xlink:href="#F"
         id="use36"
         x="0"
         y="0"
         width="100%"
         height="100%" />
    </clipPath>
    <g
       clip-path="url(#G)"
       id="g48">
      <path
         d="m 96,56 34.65,60 -38.88,68 H 184 V 56 Z"
         fill="#ffcd40"
         id="path39" />
      <linearGradient
         id="H"
         x1="121.9"
         x2="136.60001"
         y1="49.799999"
         y2="114.1"
         gradientUnits="userSpaceOnUse">
        <stop
           stop-color="#ea6100"
           stop-opacity=".3"
           offset="0"
           id="stop41" />
        <stop
           stop-color="#ea6100"
           stop-opacity="0"
           offset=".66"
           id="stop43" />
      </linearGradient>
      <path
         d="m 96,56 34.65,60 -38.88,68 H 184 V 56 Z"
         fill="url(#H)"
         id="path46"
         style="fill:url(#linearGradient1381)" />
    </g>
    <path
       d="m 96,56 34.65,60 -38.88,68 H 184 V 56 Z"
       fill="#ffcd40"
       id="path50" />
    <path
       d="m 96,56 34.65,60 -38.88,68 H 184 V 56 Z"
       fill="url(#H)"
       id="path52"
       style="fill:url(#linearGradient1383)" />
    <defs
       id="defs55">
      <path
         id="I"
         d="m 96,56 34.65,60 -38.88,68 H 184 V 56 Z" />
    </defs>
    <clipPath
       id="J">
      <use
         xlink:href="#I"
         id="use57"
         x="0"
         y="0"
         width="100%"
         height="100%" />
    </clipPath>
    <g
       clip-path="url(#J)"
       id="g64">
      <path
         d="m 21.97,8 v 108 h 39.4 L 96,56 h 88 V 8 Z"
         fill="#db4437"
         id="path60" />
      <path
         d="m 21.97,8 v 108 h 39.4 L 96,56 h 88 V 8 Z"
         fill="url(#D)"
         id="path62"
         style="fill:url(#linearGradient1385)" />
    </g>
  </g>
  <radialGradient
     id="K"
     cx="668.20001"
     cy="55.950001"
     r="84.080002"
     gradientTransform="translate(-576)"
     gradientUnits="userSpaceOnUse">
    <stop
       stop-color="#3e2723"
       stop-opacity=".2"
       offset="0"
       id="stop68" />
    <stop
       stop-color="#3e2723"
       stop-opacity="0"
       offset="1"
       id="stop70" />
  </radialGradient>
  <g
     transform="matrix(0.15909091,0,0,0.15909091,1.7272726,1.7272726)"
     id="g89">
    <path
       d="M 96,56 V 76.95 L 174.4,56 Z"
       fill="url(#K)"
       class="B"
       clip-path="url(#C)"
       id="path73"
       style="fill:url(#K)" />
    <g
       class="B"
       clip-path="url(#C)"
       id="g87">
      <defs
         id="defs76">
        <path
           id="L"
           d="M 21.97,8 V 48.34 L 61.36,116 96,56 h 88 V 8 Z" />
      </defs>
      <clipPath
         id="M">
        <use
           xlink:href="#L"
           id="use78"
           x="0"
           y="0"
           width="100%"
           height="100%" />
      </clipPath>
      <g
         clip-path="url(#M)"
         id="g85">
        <use
           xlink:href="#B"
           fill="#0f9d58"
           id="use81"
           x="0"
           y="0"
           width="100%"
           height="100%" />
        <path
           d="m 8,184 h 83.77 l 38.88,-38.88 V 116 H 61.35 L 8,24.48 Z"
           fill="url(#E)"
           id="path83"
           style="fill:url(#linearGradient1387)" />
      </g>
    </g>
  </g>
  <radialGradient
     id="N"
     cx="597.90002"
     cy="48.52"
     r="78.040001"
     gradientTransform="translate(-576)"
     gradientUnits="userSpaceOnUse">
    <stop
       stop-color="#3e2723"
       stop-opacity=".2"
       offset="0"
       id="stop91" />
    <stop
       stop-color="#3e2723"
       stop-opacity="0"
       offset="1"
       id="stop93" />
  </radialGradient>
  <path
     transform="matrix(0.15909091,0,0,0.15909091,1.7272726,1.7272726)"
     d="M 21.97,48.45 79.22,105.69 61.36,116 Z"
     fill="url(#N)"
     class="B"
     clip-path="url(#C)"
     id="path96"
     style="fill:url(#N)" />
  <radialGradient
     id="O"
     cx="671.79999"
     cy="96.139999"
     r="87.870003"
     gradientTransform="translate(-576)"
     gradientUnits="userSpaceOnUse">
    <stop
       stop-color="#263238"
       stop-opacity=".2"
       offset="0"
       id="stop98" />
    <stop
       stop-color="#263238"
       stop-opacity="0"
       offset="1"
       id="stop100" />
  </radialGradient>
  <g
     transform="matrix(0.15909091,0,0,0.15909091,1.7272726,1.7272726)"
     id="g123">
    <path
       d="m 91.83,183.9 20.96,-78.2 17.86,10.3 z"
       fill="url(#O)"
       class="B"
       clip-path="url(#C)"
       id="path103"
       style="fill:url(#O)" />
    <g
       class="B"
       clip-path="url(#C)"
       id="g121">
      <circle
         cx="96"
         cy="96"
         r="40"
         fill="#f1f1f1"
         id="circle105" />
      <circle
         cx="96"
         cy="96"
         r="32"
         fill="#4285f4"
         id="circle107" />
      <path
         d="M 96,55 C 73.9,55 56,72.9 56,95 v 1 C 56,73.9 73.9,56 96,56 h 88 v -1 z"
         class="C E"
         id="path109" />
      <path
         d="m 130.6,116 c -6.92,11.94 -19.8,20 -34.6,20 -14.8,0 -27.7,-8.06 -34.6,-20 H 61.36 L 8,24.48 v 1 L 61.4,117 c 6.92,11.94 19.8,20 34.6,20 14.8,0 27.68,-8.05 34.6,-20 h 0.05 v -1 h -0.06 z"
         fill="#ffffff"
         fill-opacity="0.1"
         id="path111" />
      <path
         d="m 97,56 c -0.17,0 -0.33,0.02 -0.5,0.03 21.86,0.27 39.5,18.05 39.5,39.97 0,21.92 -17.64,39.7 -39.5,39.97 0.17,0 0.33,0.03 0.5,0.03 22.1,0 40,-17.9 40,-40 0,-22.1 -17.9,-40 -40,-40 z"
         opacity="0.1"
         class="C"
         id="path113" />
      <path
         d="m 131,117.3 c 3.4,-5.88 5.37,-12.68 5.37,-19.96 A 39.87,39.87 0 0 0 134.5,85.25 c 0.95,3.42 1.5,7 1.5,10.73 0,7.28 -1.97,14.08 -5.37,19.96 l 0.02,0.04 -38.88,68 h 1.16 z"
         fill="#ffffff"
         class="E"
         id="path115" />
      <path
         d="m 96,9 c 48.43,0 87.72,39.13 88,87.5 0,-0.17 0.01,-0.33 0.01,-0.5 0,-48.6 -39.4,-88 -88,-88 C 47.41,8 8,47.4 8,96 8,96.17 8.01,96.33 8.01,96.5 8.28,48.13 47.57,9 96,9 Z"
         fill="#ffffff"
         class="E"
         id="path117" />
      <path
         d="m 96,183 c 48.43,0 87.72,-39.13 88,-87.5 0,0.17 0.01,0.33 0.01,0.5 0,48.6 -39.4,88 -88,88 C 47.41,184 8,144.6 8,96 c 0,-0.17 0.01,-0.33 0.01,-0.5 0.27,48.37 39.56,87.5 88,87.5 z"
         class="C D"
         id="path119" />
    </g>
  </g>
</svg>
