<?xml version="1.0" encoding="UTF-8" standalone="no"?>
<svg
   xmlns:dc="http://purl.org/dc/elements/1.1/"
   xmlns:cc="http://creativecommons.org/ns#"
   xmlns:rdf="http://www.w3.org/1999/02/22-rdf-syntax-ns#"
   xmlns:svg="http://www.w3.org/2000/svg"
   xmlns="http://www.w3.org/2000/svg"
   xmlns:sodipodi="http://sodipodi.sourceforge.net/DTD/sodipodi-0.dtd"
   xmlns:inkscape="http://www.inkscape.org/namespaces/inkscape"
   viewBox="186 38 32 32"
   version="1.1"
   id="svg18"
   sodipodi:docname="google-agenda.svg"
   width="32"
   height="32"
   inkscape:version="1.0.1 (3bc2e813f5, 2020-09-07)">
  <metadata
     id="metadata24">
    <rdf:RDF>
      <cc:Work
         rdf:about="">
        <dc:format>image/svg+xml</dc:format>
        <dc:type
           rdf:resource="http://purl.org/dc/dcmitype/StillImage" />
        <dc:title />
      </cc:Work>
    </rdf:RDF>
  </metadata>
  <defs
     id="defs22">
    <filter
       inkscape:collect="always"
       style="color-interpolation-filters:sRGB"
       id="filter889"
       x="-0.075"
       width="1.15"
       y="-0.075"
       height="1.15">
      <feGaussianBlur
         inkscape:collect="always"
         stdDeviation="0.875"
         id="feGaussianBlur891" />
    </filter>
  </defs>
  <sodipodi:namedview
     pagecolor="#ffffff"
     bordercolor="#666666"
     borderopacity="1"
     objecttolerance="10"
     gridtolerance="10"
     guidetolerance="10"
     inkscape:pageopacity="0"
     inkscape:pageshadow="2"
     inkscape:window-width="1920"
     inkscape:window-height="1000"
     id="namedview20"
     showgrid="false"
     inkscape:zoom="8.7763158"
     inkscape:cx="35.151424"
     inkscape:cy="38"
     inkscape:window-x="0"
     inkscape:window-y="0"
     inkscape:window-maximized="1"
     inkscape:current-layer="svg18"
     inkscape:document-rotation="0" />
  <path
     id="path2-3-9"
     style="fill:#000000;stroke-width:0.368421;filter:url(#filter889);opacity:0.5"
     d="M 190.20898,40 C 188.98766,40 188,40.989622 188,42.210937 v 19.158203 4.419922 c 0,1.221315 0.98766,2.210937 2.20898,2.210938 h 4.42188 14.73633 L 216,61.36914 V 46.632812 42.210937 C 216,40.989622 215.01038,40 213.78906,40 h -4.42187 z" />
  <path
     id="path2-3"
     style="fill:#ffffff;stroke-width:0.368421"
     d="M 190.20898,40 C 188.98766,40 188,40.989622 188,42.210937 v 19.158203 4.419922 c 0,1.221315 0.98766,2.210937 2.20898,2.210938 h 4.42188 14.73633 L 216,61.36914 V 46.632812 42.210937 C 216,40.989622 215.01038,40 213.78906,40 h -4.42187 z" />
  <path
     fill="#ffffff"
     d="m 209.36842,46.631579 h -14.73684 v 14.736842 h 14.73684 z"
     id="path2"
     style="stroke-width:0.368421" />
  <path
     fill="#ea4335"
     d="M 209.36842,68 216,61.368421 h -6.63158 z"
     id="path4"
     style="stroke-width:0.368421" />
  <path
     fill="#fbbc04"
     d="m 216,46.631579 h -6.63158 V 61.368421 H 216 Z"
     id="path6"
     style="stroke-width:0.368421" />
  <path
     fill="#34a853"
     d="M 209.36842,61.368421 H 194.63158 V 68 h 14.73684 z"
     id="path8"
     style="stroke-width:0.368421" />
  <path
     fill="#188038"
     d="m 188,61.368421 v 4.421053 C 188,67.010789 188.98921,68 190.21053,68 h 4.42105 v -6.631579 z"
     id="path10"
     style="stroke-width:0.368421" />
  <path
     fill="#1967d2"
     d="M 216,46.631579 V 42.210526 C 216,40.989211 215.01079,40 213.78947,40 h -4.42105 v 6.631579 z"
     id="path12"
     style="stroke-width:0.368421" />
  <path
     fill="#4285f4"
     d="M 209.36842,40 H 190.21053 C 188.98921,40 188,40.989211 188,42.210526 v 19.157895 h 6.63158 V 46.631579 h 14.73684 z"
     id="path14"
     style="stroke-width:0.368421" />
  <path
     fill="#4285f4"
     d="m 197.65447,58.063684 c -0.55079,-0.372105 -0.9321,-0.915526 -1.14026,-1.633947 l 1.27842,-0.526842 c 0.11605,0.442105 0.31869,0.784737 0.6079,1.027894 0.28736,0.243158 0.63736,0.362895 1.04631,0.362895 0.41816,0 0.77737,-0.127105 1.07763,-0.381316 0.30027,-0.25421 0.45132,-0.578421 0.45132,-0.970789 0,-0.401579 -0.15842,-0.729474 -0.47526,-0.983684 -0.31685,-0.254211 -0.71474,-0.381316 -1.19,-0.381316 h -0.73869 v -1.265526 h 0.66316 c 0.40895,0 0.75342,-0.110527 1.03342,-0.331579 0.28,-0.221053 0.42,-0.523158 0.42,-0.908158 0,-0.342632 -0.12526,-0.615263 -0.37579,-0.819737 -0.25052,-0.204474 -0.56737,-0.307632 -0.95237,-0.307632 -0.37579,0 -0.67421,0.09947 -0.89526,0.300264 a 1.7625263,1.7625263 0 0 0 -0.48263,0.738684 l -1.26553,-0.526842 c 0.16763,-0.475264 0.47527,-0.895264 0.92658,-1.258158 0.45132,-0.362895 1.0279,-0.545263 1.7279,-0.545263 0.51763,0 0.98368,0.09947 1.39631,0.300263 0.41263,0.200789 0.73684,0.478947 0.97079,0.832631 0.23395,0.355527 0.35,0.753421 0.35,1.195527 0,0.451315 -0.10868,0.832631 -0.32605,1.145789 -0.21737,0.313158 -0.48448,0.552632 -0.80132,0.720263 v 0.07553 a 2.4334211,2.4334211 0 0 1 1.0279,0.801315 c 0.2671,0.359211 0.40158,0.788421 0.40158,1.289474 0,0.501053 -0.12711,0.948684 -0.38132,1.341053 -0.25421,0.392368 -0.60605,0.701842 -1.05184,0.926579 -0.44763,0.224736 -0.95053,0.338947 -1.50869,0.338947 -0.64657,0.0018 -1.24342,-0.184211 -1.79421,-0.556316 z m 7.8529,-6.34421 -1.40369,1.015 -0.70184,-1.064737 2.51816,-1.816316 h 0.96526 v 8.567632 h -1.37789 z"
     id="path16"
     style="stroke-width:0.368421" />
</svg>
