<?xml version="1.0" encoding="UTF-8" standalone="no"?>
<svg
   xmlns:dc="http://purl.org/dc/elements/1.1/"
   xmlns:cc="http://creativecommons.org/ns#"
   xmlns:rdf="http://www.w3.org/1999/02/22-rdf-syntax-ns#"
   xmlns:svg="http://www.w3.org/2000/svg"
   xmlns="http://www.w3.org/2000/svg"
   xmlns:sodipodi="http://sodipodi.sourceforge.net/DTD/sodipodi-0.dtd"
   xmlns:inkscape="http://www.inkscape.org/namespaces/inkscape"
   inkscape:version="1.0.1 (3bc2e813f5, 2020-09-07)"
   sodipodi:docname="google-chrome-beta.svg"
   id="svg78"
   version="1"
   height="32"
   width="32">
  <metadata
     id="metadata84">
    <rdf:RDF>
      <cc:Work
         rdf:about="">
        <dc:format>image/svg+xml</dc:format>
        <dc:type
           rdf:resource="http://purl.org/dc/dcmitype/StillImage" />
      </cc:Work>
    </rdf:RDF>
  </metadata>
  <defs
     id="defs82">
    <filter
       inkscape:collect="always"
       style="color-interpolation-filters:sRGB"
       id="filter61674"
       x="-0.075"
       width="1.15"
       y="-0.075"
       height="1.15">
      <feGaussianBlur
         inkscape:collect="always"
         stdDeviation="0.875"
         id="feGaussianBlur61676" />
    </filter>
  </defs>
  <sodipodi:namedview
     inkscape:current-layer="svg78"
     inkscape:window-maximized="1"
     inkscape:window-y="0"
     inkscape:window-x="0"
     inkscape:cy="16"
     inkscape:cx="14.950131"
     inkscape:zoom="23.8125"
     showgrid="false"
     id="namedview80"
     inkscape:window-height="1000"
     inkscape:window-width="1920"
     inkscape:pageshadow="2"
     inkscape:pageopacity="0"
     guidetolerance="10"
     gridtolerance="10"
     objecttolerance="10"
     borderopacity="1"
     bordercolor="#666666"
     pagecolor="#ffffff"
     inkscape:document-rotation="0" />
  <circle
     id="circle54"
     r="14"
     cy="16"
     cx="16"
     style="opacity:0.5;filter:url(#filter61674)" />
  <path
     id="path56"
     d="m15.994 29.985c-7.752 0-13.993-6.2408-13.993-13.993 0-0.11734-0.003-0.23319 0-0.34982 0.18501 7.5885 6.3581 13.643 13.993 13.643 7.6346 0 13.808-6.0544 13.993-13.643 0.003 0.11663 0 0.23248 0 0.34982 0 7.752-6.2408 13.993-13.993 13.993z"
     style="opacity:.1" />
  <path
     id="path58"
     d="M 4.3496094,8.2519531 C 4.1087319,8.6179297 3.8859324,9.0101305 3.6601562,9.3984375 2.5720803,11.428863 2.0018396,13.696408 2,16 c 0,0.730032 0.055877,1.447013 0.1635869,2.146901 1.0330797,6.712825 9.0809351,5.186432 16.0828891,5.186432 C 18.318106,23.331233 16.928406,27.0031 17,27 l 5.84375,-8.03125 c -0.53102,0.86495 -2.7434,1.972478 -3.6875,2.517578 -3.021,1.7442 -6.857363,0.616783 -8.601562,-2.404297 z"
     style="fill:#109f5b" />
  <path
     id="path60"
     d="m 16.015625,9 c -0.01547,0 2.222016,0.9979485 3.166016,1.542969 2.412436,1.39284 2.664231,6.367355 2.669921,8.380859 l 0.404297,0.234375 -0.412109,0.712891 c -3.2e-5,7.04e-4 0,0.0332 0,0.0332 l -0.15625,0.236328 -5.117188,8.066407 c 0.03711,9.6e-4 0.07426,0.0041 0.111328,0.0039 0.193487,-0.0032 0.386888,-0.01031 0.580078,-0.02148 0.112132,-0.0052 0.224086,-0.0058 0.335938,-0.01367 0.441085,-0.03256 0.88038,-0.08601 1.316406,-0.160157 C 19.570312,26.214844 20.189312,19.715729 20,22 25.956277,20.950365 28.906073,24.013854 29.827393,18.196752 29.940986,17.479543 29.999872,16.745683 30,16 29.993667,13.540591 29.339558,11.126248 28.103516,9 Z"
     style="fill:#ffce41" />
  <path
     id="path62"
     d="m15.994141 2a14 14 0 0 0 -0.242188 0.0078125 14 14 0 0 0 -0.742187 0.0273437 14 14 0 0 0 -0.041016 0.0058594 14 14 0 0 0 -1.265625 0.1523438c-0.042854 0.007037-0.086138 0.012266-0.128906 0.0195312-0.002631 0.000447-0.005185 0.0014946-0.007813 0.0019532a14 14 0 0 0 -1.310547 0.2949218 14 14 0 0 0 -2.6054684 1.0136719 14 14 0 0 0 -0.3105468 0.1777344 14 14 0 0 0 -5.4570313 5.3085937l5.6894531 9.8554684 0.1191406 0.238282 0.0292969 0.017578 0.2675781 0.464844 2.4550778 1.972656 0.681641-0.291016 0.78125 0.492188c-0.09245-0.170384-0.185116-0.424514-0.275391-0.708985l4.591797-1.96289-4.751953-8.232422c0.434712-1.0028562 1.194822-1.7061504 2.529297-1.855469h12.103516a14 14 0 0 0 -0.759766 -1.1757812 14 14 0 0 0 -0.855469 -1.0703126 14 14 0 0 0 -0.037109 -0.0429687 14 14 0 0 0 -0.908203 -0.9316406 14 14 0 0 0 -0.095703 -0.0878907 14 14 0 0 0 -0.958985 -0.8027343 14 14 0 0 0 -0.134765 -0.1015625 14 14 0 0 0 -0.990235 -0.6738282 14 14 0 0 0 -0.191406 -0.1171874 14 14 0 0 0 -0.996094 -0.5429688 14 14 0 0 0 -0.283203 -0.1347656 14 14 0 0 0 -0.957031 -0.4003906 14 14 0 0 0 -0.369141 -0.1367188 14 14 0 0 0 -0.921875 -0.28125 14 14 0 0 0 -0.46289 -0.1191406 14 14 0 0 0 -0.861329 -0.171875 14 14 0 0 0 -0.548828 -0.0820313 14 14 0 0 0 -0.785156 -0.078125 14 14 0 0 0 -0.986328 -0.0488281 14 14 0 0 0 -0.005859 0z"
     style="fill:#dd4d3e" />
  <rect
     id="rect66"
     transform="matrix(0,-1,-1,0,0,0)"
     ry="7"
     rx="7"
     y="-23"
     x="-24"
     height="14"
     width="14"
     style="opacity:.2" />
  <rect
     id="rect68"
     transform="matrix(0,-1,-1,0,0,0)"
     ry="7"
     rx="7"
     y="-23"
     x="-23"
     height="14"
     width="14"
     style="fill:#ffffff" />
  <rect
     id="rect70"
     transform="matrix(0,-1,-1,0,0,0)"
     ry="5"
     rx="5"
     y="-21"
     x="-21"
     height="10"
     width="10"
     style="fill:#4587f3" />
  <path
     id="path72"
     d="M 2.1582031 18 A 14 14 0 0 0 9.1894531 28.226562 C 9.2651875 28.268396 9.3414204 28.30913 9.4179688 28.349609 A 14 14 0 0 0 10.357422 28.802734 C 10.471779 28.852833 10.585322 28.904033 10.701172 28.951172 A 14 14 0 0 0 11.572266 29.269531 C 11.713898 29.316592 11.854567 29.367499 11.998047 29.410156 A 14 14 0 0 0 12.898438 29.638672 C 13.034361 29.669487 13.167405 29.707524 13.304688 29.734375 A 14 14 0 0 0 14.261719 29.878906 C 14.391757 29.895165 14.519371 29.918967 14.650391 29.931641 A 14 14 0 0 0 15.951172 29.998047 C 15.967585 29.998121 15.983575 29.999983 16 30 A 14 14 0 0 0 16.003906 30 C 16.007845 29.999995 16.011686 30.000008 16.015625 30 C 16.393238 29.999209 16.765862 29.977512 17.136719 29.947266 A 14 14 0 0 0 17.955078 29.847656 C 18.128128 29.823275 18.303479 29.806026 18.474609 29.775391 A 14 14 0 0 0 19.5625 29.53125 C 19.627724 29.51414 19.694892 29.502393 19.759766 29.484375 A 14 14 0 0 0 21.072266 29.048828 A 14 14 0 0 0 22.332031 28.484375 C 22.35442 28.473102 22.376115 28.460607 22.398438 28.449219 A 14 14 0 0 0 23.546875 27.791016 C 23.552535 27.78743 23.558798 27.784843 23.564453 27.78125 A 14 14 0 0 0 23.587891 27.763672 A 14 14 0 0 0 29.837891 18 L 2.1582031 18 z"
     style="fill:#4f4f4f" />
  <path
     id="path76"
     d="M 9 20 L 9 20.667969 L 9 22.367188 L 9 23.033203 L 9 25.332031 L 9 26 L 11.667969 26 C 12.406544 26 12.998047 25.072502 12.998047 24.333984 C 12.998047 23.872978 12.765885 23.036022 12.412109 22.699219 C 12.765885 22.362416 12.998047 22.127022 12.998047 21.666016 C 12.998047 20.927498 12.406544 20 11.667969 20 L 9.6660156 20 L 9 20 z M 9.6660156 20.667969 L 11.667969 20.667969 C 12.048786 20.667969 12.332031 21.285228 12.332031 21.666016 C 12.332031 22.046804 12.048311 22.348183 11.667969 22.367188 L 9.6660156 22.367188 L 9.6660156 20.667969 z M 17.964844 21 C 17.964844 21.431926 17.970503 21.64484 17.970703 22 L 17.298828 22 L 17.298828 22.666016 L 17.974609 22.666016 C 17.982009 23.820679 18.006999 24.692549 18.144531 25.173828 C 18.243981 25.521866 18.46144 25.793172 18.742188 25.902344 C 19.022938 26.011515 19.29952 26 19.632812 26 L 19.632812 25.332031 C 19.29952 25.332031 19.076625 25.319833 18.982422 25.283203 C 18.888212 25.246573 18.854308 25.225412 18.787109 24.990234 C 18.694279 24.665371 18.663378 23.81597 18.648438 22.666016 L 19.298828 22.666016 L 19.298828 22 L 18.642578 22 C 18.640578 21.643231 18.632812 21.432973 18.632812 21 L 17.964844 21 z M 15.724609 22.001953 C 15.380159 22.001953 15.076429 22.081105 14.814453 22.244141 C 14.557329 22.407177 14.356479 22.63931 14.210938 22.941406 C 14.070246 23.243503 14 23.607319 14 24.029297 C 14 24.460864 14.077177 24.822726 14.232422 25.115234 C 14.392519 25.40774 14.613149 25.628693 14.894531 25.777344 C 15.175912 25.925995 15.503394 26 15.876953 26 C 16.143781 26 16.374302 25.978707 16.568359 25.935547 C 16.762415 25.897187 16.959294 25.834356 17.158203 25.748047 L 17.158203 25.193359 C 16.954443 25.279669 16.754604 25.348534 16.560547 25.396484 C 16.371342 25.439644 16.153673 25.460938 15.90625 25.460938 C 15.518138 25.460938 15.214407 25.348421 14.996094 25.123047 C 14.78263 24.892877 14.671808 24.424644 14.662109 23.988281 L 14.666016 23.988281 L 14.666016 24 L 17.332031 24 L 17.332031 23.740234 C 17.332031 23.390184 17.267708 23.085112 17.136719 22.826172 C 17.010581 22.562443 16.826555 22.360653 16.583984 22.216797 C 16.341413 22.072942 16.054505 22.001954 15.724609 22.001953 z M 21.822266 22.001953 C 21.555438 22.001953 21.322961 22.023256 21.128906 22.066406 C 20.93485 22.104776 20.737971 22.165644 20.539062 22.251953 L 20.539062 22.806641 C 20.742822 22.720331 20.942662 22.651465 21.136719 22.603516 C 21.325924 22.560356 21.545547 22.539062 21.792969 22.539062 C 22.181082 22.539062 22.482858 22.651579 22.701172 22.876953 C 22.802704 22.98643 22.880393 23.151916 22.935547 23.339844 L 22.519531 23.353516 C 21.787554 23.374906 21.246551 23.503027 20.894531 23.738281 C 20.542512 23.968189 20.365234 24.296876 20.365234 24.724609 C 20.365234 25.163033 20.501327 25.486793 20.769531 25.695312 C 21.037736 25.898487 21.375307 26 21.783203 26 C 22.157572 26 22.452005 25.942368 22.669922 25.830078 C 22.79448 25.765908 22.913772 25.676824 23.03125 25.572266 L 23.03125 25.644531 L 23.03125 26 L 23.697266 26 L 23.697266 24 L 23.695312 24 C 23.695391 23.9898 23.697266 23.980983 23.697266 23.970703 C 23.697266 23.539135 23.620081 23.177274 23.464844 22.884766 C 23.304747 22.592259 23.084115 22.371306 22.802734 22.222656 C 22.521351 22.074005 22.195824 22.001953 21.822266 22.001953 z M 15.716797 22.517578 C 16.041841 22.517578 16.281246 22.619979 16.431641 22.826172 C 16.533598 22.962706 16.587981 23.138201 16.623047 23.332031 L 14.740234 23.332031 C 14.793764 23.126707 14.86976 22.94481 14.990234 22.8125 C 15.169737 22.615897 15.411158 22.517578 15.716797 22.517578 z M 9.6660156 23.033203 L 11.667969 23.033203 C 12.048786 23.033203 12.332031 23.953196 12.332031 24.333984 C 12.332031 24.714772 12.048786 25.332031 11.667969 25.332031 L 9.6660156 25.332031 L 9.6660156 23.033203 z M 23.021484 23.828125 C 23.026484 23.886085 23.031683 23.942418 23.033203 24 L 23.03125 24 L 23.03125 24.011719 L 23.03125 24.986328 C 22.98833 25.039048 22.943164 25.089744 22.888672 25.132812 C 22.63723 25.33064 22.323589 25.431641 21.949219 25.431641 C 21.708953 25.431641 21.50997 25.373999 21.353516 25.261719 C 21.202651 25.149438 21.128906 24.974976 21.128906 24.734375 C 21.128906 24.461695 21.232984 24.249315 21.445312 24.099609 C 21.663228 23.949901 22.052567 23.863183 22.611328 23.841797 L 23.021484 23.828125 z"
     style="fill:#ffffff" />
</svg>
