<?xml version="1.0" encoding="UTF-8" standalone="no"?>
<svg
   xmlns:dc="http://purl.org/dc/elements/1.1/"
   xmlns:cc="http://creativecommons.org/ns#"
   xmlns:rdf="http://www.w3.org/1999/02/22-rdf-syntax-ns#"
   xmlns:svg="http://www.w3.org/2000/svg"
   xmlns="http://www.w3.org/2000/svg"
   xmlns:xlink="http://www.w3.org/1999/xlink"
   xmlns:sodipodi="http://sodipodi.sourceforge.net/DTD/sodipodi-0.dtd"
   xmlns:inkscape="http://www.inkscape.org/namespaces/inkscape"
   inkscape:version="1.0.1 (3bc2e813f5, 2020-09-07)"
   sodipodi:docname="grsync.svg"
   id="svg12"
   version="1"
   height="32"
   width="32">
  <metadata
     id="metadata18">
    <rdf:RDF>
      <cc:Work
         rdf:about="">
        <dc:format>image/svg+xml</dc:format>
        <dc:type
           rdf:resource="http://purl.org/dc/dcmitype/StillImage" />
      </cc:Work>
    </rdf:RDF>
  </metadata>
  <defs
     id="defs16">
    <linearGradient
       id="linearGradient851"
       inkscape:collect="always">
      <stop
         id="stop847"
         offset="0"
         style="stop-color:#d54747;stop-opacity:1;" />
      <stop
         id="stop849"
         offset="1"
         style="stop-color:#e17a7a;stop-opacity:1" />
    </linearGradient>
    <linearGradient
       gradientUnits="userSpaceOnUse"
       y2="5.1328139"
       x2="16.86146"
       y1="27.183764"
       x1="16.370115"
       id="linearGradient853"
       xlink:href="#linearGradient851"
       inkscape:collect="always" />
    <filter
       inkscape:collect="always"
       style="color-interpolation-filters:sRGB"
       id="filter61658"
       x="-0.069642883"
       width="1.1392858"
       y="-0.081249965"
       height="1.1624999">
      <feGaussianBlur
         inkscape:collect="always"
         stdDeviation="0.81249967"
         id="feGaussianBlur61660" />
    </filter>
  </defs>
  <sodipodi:namedview
     inkscape:current-layer="svg12"
     inkscape:window-maximized="1"
     inkscape:window-y="0"
     inkscape:window-x="0"
     inkscape:cy="16"
     inkscape:cx="14.950131"
     inkscape:zoom="23.8125"
     showgrid="false"
     id="namedview14"
     inkscape:window-height="1000"
     inkscape:window-width="1920"
     inkscape:pageshadow="2"
     inkscape:pageopacity="0"
     guidetolerance="10"
     gridtolerance="10"
     objecttolerance="10"
     borderopacity="1"
     bordercolor="#666666"
     pagecolor="#ffffff"
     inkscape:document-rotation="0" />
  <path
     id="path2"
     d="M 16.039099,4.0004009 C 14.863656,3.9906909 13.742902,4.157878 12.702403,4.4300788 8.6220209,5.4817008 5.7748276,8.6405432 4.6250166,12.355685 2.2291911,13.266916 1.1587747,16.242671 2.7628116,18.388754 l 3.0077254,4.015535 c 6.517e-4,6.52e-4 0.0013,0.0013 0.00195,0.002 0.3985639,0.529669 1.0015781,0.821116 1.5978541,1.097632 0.2167644,0.617186 0.4709766,1.226028 0.9066255,1.706993 0.1732743,0.191701 0.3648073,0.366565 0.5717811,0.521473 2.1446153,1.600876 4.6893523,2.256744 7.1041843,2.265575 -0.02815,-9.7e-5 -0.115606,-1.73e-4 0.0059,0.002 0.0059,5.1e-5 0.01175,5.1e-5 0.01762,0 1.649678,0 2.409142,-0.267427 3.244662,-0.414054 0.02568,-0.0049 0.05115,-0.01073 0.07637,-0.01758 4.080384,-1.051623 6.927576,-4.210467 8.077387,-7.925605 2.396089,-0.91106 3.466366,-3.886821 1.862205,-6.033069 L 26.229372,9.594119 c -6.52e-4,-6.52e-4 -0.0013,-0.0013 -0.002,-0.0019 C 25.828854,9.062378 25.22582,8.7709681 24.629523,8.4944416 24.413022,7.8766523 24.15937,7.2673734 23.722897,6.7854952 23.549625,6.5937989 23.358095,6.4189341 23.151116,6.2640225 21.003784,4.6611192 18.457663,4.0087522 16.044973,4.0004009 Z"
     style="opacity:0.5;filter:url(#filter61658)" />
  <path
     id="path4"
     d="m 16.039099,4.0004012 c -1.175443,-0.00971 -2.296197,0.1574771 -3.336696,0.4296779 -4.0803821,1.051622 -6.9275754,4.2104644 -8.0773864,7.9256059 -2.3958255,0.911231 -3.4662419,3.886986 -1.862205,6.033069 l 3.0077254,4.015535 c 6.517e-4,6.52e-4 0.0013,0.0013 0.00195,0.002 0.3985639,0.529669 1.0015781,0.821116 1.5978541,1.097632 0.2167644,0.617186 0.4709766,1.226028 0.9066255,1.706993 0.1732743,0.191701 0.3648073,0.366565 0.5717811,0.521473 2.1446153,1.600876 4.6893523,2.256744 7.1041843,2.265575 -0.02815,-9.7e-5 -0.115606,-1.73e-4 0.0059,0.002 0.0059,5.1e-5 0.01175,5.1e-5 0.01762,0 1.649678,0 2.409142,-0.267427 3.244662,-0.414054 0.02568,-0.0049 0.05115,-0.01073 0.07637,-0.01758 4.080384,-1.051623 6.927576,-4.210467 8.077387,-7.925605 2.396089,-0.91106 3.466366,-3.886821 1.862205,-6.033069 L 26.229372,9.5941188 c -6.52e-4,-6.519e-4 -0.0013,-0.0013 -0.002,-0.00195 C 25.828854,9.0623781 25.22582,8.7709684 24.629523,8.4944419 24.413022,7.8766526 24.15937,7.2673737 23.722897,6.7854955 23.549625,6.5937992 23.358095,6.4189344 23.151116,6.2640228 21.003784,4.6611195 18.457663,4.0087525 16.044973,4.0004012 Z"
     style="fill:url(#linearGradient853);fill-opacity:1" />
  <path
     id="path8"
     d="M 16.017578 8 C 15.238678 7.99225 14.465044 8.1033613 13.714844 8.3007812 C 10.218244 9.2013812 7.946987 12.509128 8 15.986328 L 6 15.986328 L 9 20 L 12 15.986328 L 10 15.986328 C 9.9933 14.530028 10.228781 13.079287 11.238281 11.992188 C 12.999681 10.000388 16.493625 9.1851906 19.015625 10.650391 C 19.853435 11.703291 21.712568 10.546597 20.736328 9.4667969 C 19.347728 8.4283269 17.770778 8.0037 16.017578 8 z M 23 11.986328 L 20 16 L 22 16 C 22.0067 17.4563 21.771219 18.907041 20.761719 19.994141 C 18.864219 22.184781 15.506375 22.801137 12.984375 21.335938 C 12.146565 20.283037 10.287432 21.437778 11.263672 22.517578 C 12.652272 23.556048 14.229222 23.982628 15.982422 23.986328 L 15.984375 23.984375 C 16.763275 23.992125 17.534956 23.882967 18.285156 23.685547 C 21.781756 22.784947 24.05301 19.4772 24 16 L 26 16 L 23 11.986328 z"
     style="fill:#0e0400;fill-opacity:1;opacity:0.3" />
</svg>
