<?xml version="1.0" encoding="UTF-8" standalone="no"?>
<svg
   xmlns:dc="http://purl.org/dc/elements/1.1/"
   xmlns:cc="http://creativecommons.org/ns#"
   xmlns:rdf="http://www.w3.org/1999/02/22-rdf-syntax-ns#"
   xmlns:svg="http://www.w3.org/2000/svg"
   xmlns="http://www.w3.org/2000/svg"
   xmlns:xlink="http://www.w3.org/1999/xlink"
   xmlns:sodipodi="http://sodipodi.sourceforge.net/DTD/sodipodi-0.dtd"
   xmlns:inkscape="http://www.inkscape.org/namespaces/inkscape"
   width="32"
   height="32"
   version="1"
   id="svg12"
   sodipodi:docname="help-browser.svg"
   inkscape:version="1.0.1 (3bc2e813f5, 2020-09-07)">
  <metadata
     id="metadata18">
    <rdf:RDF>
      <cc:Work
         rdf:about="">
        <dc:format>image/svg+xml</dc:format>
        <dc:type
           rdf:resource="http://purl.org/dc/dcmitype/StillImage" />
        <dc:title />
      </cc:Work>
    </rdf:RDF>
  </metadata>
  <defs
     id="defs16">
    <linearGradient
       inkscape:collect="always"
       id="linearGradient847">
      <stop
         style="stop-color:#435ece;stop-opacity:1;"
         offset="0"
         id="stop843" />
      <stop
         style="stop-color:#6d82d9;stop-opacity:1"
         offset="1"
         id="stop845" />
    </linearGradient>
    <linearGradient
       gradientTransform="translate(-0.5,-0.5)"
       inkscape:collect="always"
       xlink:href="#linearGradient847"
       id="linearGradient849"
       x1="-30"
       y1="-15.5"
       x2="-1"
       y2="-15.5"
       gradientUnits="userSpaceOnUse" />
    <filter
       inkscape:collect="always"
       style="color-interpolation-filters:sRGB"
       id="filter61646"
       x="-0.075"
       width="1.15"
       y="-0.075"
       height="1.15">
      <feGaussianBlur
         inkscape:collect="always"
         stdDeviation="0.90625"
         id="feGaussianBlur61648" />
    </filter>
  </defs>
  <sodipodi:namedview
     inkscape:document-rotation="0"
     pagecolor="#ffffff"
     bordercolor="#666666"
     borderopacity="1"
     objecttolerance="10"
     gridtolerance="10"
     guidetolerance="10"
     inkscape:pageopacity="0"
     inkscape:pageshadow="2"
     inkscape:window-width="1920"
     inkscape:window-height="1000"
     id="namedview14"
     showgrid="false"
     inkscape:zoom="20.8125"
     inkscape:cx="13.597598"
     inkscape:cy="16"
     inkscape:window-x="0"
     inkscape:window-y="0"
     inkscape:window-maximized="1"
     inkscape:current-layer="svg12" />
  <rect
     style="opacity:0.5;filter:url(#filter61646)"
     width="29"
     height="29"
     x="-30.5"
     y="-30.5"
     rx="14.5"
     ry="14.5"
     transform="matrix(0,-1,-1,0,0,0)"
     id="rect2" />
  <rect
     style="fill:url(#linearGradient849);fill-opacity:1"
     width="29"
     height="29"
     x="-30.5"
     y="-30.5"
     rx="14.5"
     ry="14.5"
     transform="matrix(0,-1,-1,0,0,0)"
     id="rect4" />
  <path
     style="fill:#ffffff"
     d="m 16,5.5 c -3.2045,0 -5.800781,2.7955 -5.800781,6 h 2.90039 C 13.099609,9.905 14.405,8.4003906 16,8.4003906 c 1.595,0 2.900391,1.3053904 2.900391,2.9003904 0,0.7975 -0.318969,1.520969 -0.855469,2.042969 l -1.798828,1.828125 c -1.044,1.0585 -1.695313,2.508516 -1.695313,4.103516 V 19.5 h 2.919922 c 0.09713,-1.807411 0.717891,-2.632321 1.675781,-3.603516 L 20.451172,14.5625 c 0.8265,-0.8265 1.349609,-1.985719 1.349609,-3.261719 C 21.800781,8.0962814 19.2045,5.5 16,5.5 Z m -1.5,17 v 3 h 3 v -3 z"
     id="path10" />
</svg>
