<?xml version="1.0" encoding="UTF-8" standalone="no"?>
<svg
   xmlns:dc="http://purl.org/dc/elements/1.1/"
   xmlns:cc="http://creativecommons.org/ns#"
   xmlns:rdf="http://www.w3.org/1999/02/22-rdf-syntax-ns#"
   xmlns:svg="http://www.w3.org/2000/svg"
   xmlns="http://www.w3.org/2000/svg"
   xmlns:xlink="http://www.w3.org/1999/xlink"
   xmlns:sodipodi="http://sodipodi.sourceforge.net/DTD/sodipodi-0.dtd"
   xmlns:inkscape="http://www.inkscape.org/namespaces/inkscape"
   inkscape:version="1.0.1 (3bc2e813f5, 2020-09-07)"
   sodipodi:docname="Instagram.svg"
   id="svg28"
   version="1.1"
   height="32"
   width="32">
  <metadata
     id="metadata32">
    <rdf:RDF>
      <cc:Work
         rdf:about="">
        <dc:format>image/svg+xml</dc:format>
        <dc:type
           rdf:resource="http://purl.org/dc/dcmitype/StillImage" />
        <dc:title />
      </cc:Work>
    </rdf:RDF>
  </metadata>
  <sodipodi:namedview
     inkscape:current-layer="svg28"
     inkscape:window-maximized="1"
     inkscape:window-y="0"
     inkscape:window-x="0"
     inkscape:cy="25.486638"
     inkscape:cx="24.751838"
     inkscape:zoom="13.075758"
     showgrid="false"
     id="namedview30"
     inkscape:window-height="1000"
     inkscape:window-width="1920"
     inkscape:pageshadow="2"
     inkscape:pageopacity="0"
     guidetolerance="10"
     gridtolerance="10"
     objecttolerance="10"
     borderopacity="1"
     bordercolor="#666666"
     pagecolor="#ffffff"
     inkscape:document-rotation="0" />
  <defs
     id="defs20">
    <linearGradient
       id="b">
      <stop
         id="stop2"
         stop-color="#3771c8"
         offset="0" />
      <stop
         id="stop4"
         offset=".128"
         stop-color="#3771c8" />
      <stop
         id="stop6"
         stop-opacity="0"
         stop-color="#60f"
         offset="1" />
    </linearGradient>
    <linearGradient
       id="a">
      <stop
         id="stop9"
         stop-color="#fd5"
         offset="0" />
      <stop
         id="stop11"
         stop-color="#fd5"
         offset=".1" />
      <stop
         id="stop13"
         stop-color="#ff543e"
         offset=".5" />
      <stop
         id="stop15"
         stop-color="#c837ab"
         offset="1" />
    </linearGradient>
    <radialGradient
       fy="578.08801"
       fx="158.429"
       gradientTransform="matrix(0,-0.42680774,0.39707302,0,-220.10562,99.770909)"
       gradientUnits="userSpaceOnUse"
       xlink:href="#a"
       r="65"
       cy="578.08801"
       cx="158.429"
       id="c" />
    <radialGradient
       fy="473.45499"
       fx="147.694"
       gradientTransform="matrix(0.03745696,0.18707374,-0.77131957,0.1544405,356.96279,-96.729955)"
       gradientUnits="userSpaceOnUse"
       xlink:href="#b"
       r="65"
       cy="473.45499"
       cx="147.694"
       id="d" />
    <radialGradient
       id="d-3"
       cx="147.694"
       cy="473.45499"
       r="65"
       xlink:href="#b"
       gradientUnits="userSpaceOnUse"
       gradientTransform="matrix(0.03745696,0.18707374,-0.77131957,0.1544405,386.46685,-98.505158)"
       fx="147.694"
       fy="473.45499" />
    <filter
       inkscape:collect="always"
       style="color-interpolation-filters:sRGB"
       id="filter61630"
       x="-0.074989738"
       width="1.1499795"
       y="-0.075010264"
       height="1.1500205">
      <feGaussianBlur
         inkscape:collect="always"
         stdDeviation="0.87488115"
         id="feGaussianBlur61632" />
    </filter>
  </defs>
  <path
     fill="url(#d)"
     d="m 16.004577,2.0038171 c -5.84487,0 -7.5542721,0.00603 -7.8865481,0.033594 -1.199467,0.099704 -1.94585,0.2885608 -2.758989,0.6934078 -0.626651,0.3111722 -1.120866,0.6718736 -1.608621,1.1775016 -0.888294,0.9221036 -1.426654,2.0565364 -1.621541,3.4050213 -0.094751,0.6546461 -0.122315,0.7881595 -0.127914,4.1320232 -0.0022,1.114621 0,2.581545 0,4.549144 0,5.840133 0.0065,7.547812 0.03446,7.879442 0.0969,1.167165 0.279947,1.901488 0.667567,2.704722 0.740783,1.537557 2.155594,2.691802 3.822358,3.12249 0.577122,0.148587 1.214541,0.230418 2.032848,0.26918 0.346704,0.01507 3.8805011,0.02584 7.4164521,0.02584 3.53595,0 7.071901,-0.0043 7.409991,-0.02153 0.947514,-0.04458 1.497718,-0.118439 2.106066,-0.275641 1.67753,-0.432841 3.0665,-1.569858 3.822358,-3.12895 0.380082,-0.783852 0.572815,-1.546171 0.66003,-2.652393 0.01895,-0.241186 0.02692,-4.086586 0.02692,-7.926818 0,-3.840877 -0.0086,-7.6791708 -0.02756,-7.9203563 C 29.884151,6.9463954 29.691418,6.1905375 29.299061,5.3916108 28.977122,4.7376107 28.619651,4.2492103 28.100671,3.7498273 27.174476,2.8651936 26.041766,2.3268333 24.691989,2.1321622 24.037989,2.0376261 23.907706,2.0096314 20.561258,2.0038171 Z"
     id="path24-3"
     style="fill:#000000;fill-opacity:1;stroke-width:0.215344;opacity:0.5;filter:url(#filter61630)" />
  <path
     style="fill:url(#c);stroke-width:0.215344"
     id="path22"
     d="m 16.004569,2.003817 c -5.84487,0 -7.5542721,0.00603 -7.8865481,0.033594 C 6.9185541,2.137115 6.1721714,2.3259718 5.359032,2.7308188 4.7323806,3.041991 4.2381658,3.4026924 3.7504114,3.9083204 2.8621169,4.830424 2.3237566,5.9648568 2.1288701,7.3133417 2.0341187,7.9679878 2.0065547,8.1015012 2.0009557,11.445365 c -0.00215,1.114621 0,2.581545 0,4.549144 0,5.840133 0.00646,7.547812 0.034455,7.879442 0.096905,1.167165 0.2799474,1.901488 0.6675668,2.704722 0.7407838,1.537557 2.1555947,2.691802 3.8223582,3.12249 0.5771222,0.148587 1.2145408,0.230418 2.0328485,0.26918 0.346704,0.01507 3.8805008,0.02584 7.4164518,0.02584 3.53595,0 7.071901,-0.0043 7.409991,-0.02153 0.947514,-0.04458 1.497718,-0.118439 2.106066,-0.275641 1.67753,-0.432841 3.0665,-1.569858 3.822358,-3.12895 0.380082,-0.783852 0.572815,-1.546171 0.66003,-2.652393 0.01895,-0.241186 0.02692,-4.086586 0.02692,-7.926818 0,-3.840877 -0.0086,-7.6791709 -0.02756,-7.9203564 C 29.884143,6.9463953 29.69141,6.1905374 29.299053,5.3916107 28.977114,4.7376106 28.619643,4.2492102 28.100663,3.7498272 27.174468,2.8651935 26.041758,2.3268332 24.691981,2.1321621 24.037981,2.037626 23.907698,2.0096313 20.56125,2.003817 Z"
     fill="url(#c)" />
  <path
     style="fill:url(#d);stroke-width:0.215344"
     id="path24"
     d="m 16.004569,2.003817 c -5.84487,0 -7.5542721,0.00603 -7.8865481,0.033594 C 6.9185541,2.137115 6.1721714,2.3259718 5.359032,2.7308188 4.7323806,3.041991 4.2381658,3.4026924 3.7504114,3.9083204 2.8621169,4.830424 2.3237566,5.9648568 2.1288701,7.3133417 2.0341187,7.9679878 2.0065547,8.1015012 2.0009557,11.445365 c -0.00215,1.114621 0,2.581545 0,4.549144 0,5.840133 0.00646,7.547812 0.034455,7.879442 0.096905,1.167165 0.2799474,1.901488 0.6675668,2.704722 0.7407838,1.537557 2.1555947,2.691802 3.8223582,3.12249 0.5771222,0.148587 1.2145408,0.230418 2.0328485,0.26918 0.346704,0.01507 3.8805008,0.02584 7.4164518,0.02584 3.53595,0 7.071901,-0.0043 7.409991,-0.02153 0.947514,-0.04458 1.497718,-0.118439 2.106066,-0.275641 1.67753,-0.432841 3.0665,-1.569858 3.822358,-3.12895 0.380082,-0.783852 0.572815,-1.546171 0.66003,-2.652393 0.01895,-0.241186 0.02692,-4.086586 0.02692,-7.926818 0,-3.840877 -0.0086,-7.6791709 -0.02756,-7.9203564 C 29.884143,6.9463953 29.69141,6.1905374 29.299053,5.3916107 28.977114,4.7376106 28.619643,4.2492102 28.100663,3.7498272 27.174468,2.8651935 26.041758,2.3268332 24.691981,2.1321621 24.037981,2.037626 23.907698,2.0096313 20.56125,2.003817 Z"
     fill="url(#d)" />
  <path
     style="stroke-width:0.215344"
     id="path26"
     d="m 15.998108,5.6646671 c -2.807226,0 -3.159529,0.012275 -4.262091,0.06245 C 10.635609,5.7775074 9.8844888,5.9517208 9.2272585,6.2073343 8.5474171,6.4713462 7.9707255,6.8245105 7.3961874,7.399264 6.8212186,7.9738021 6.4680542,8.5504937 6.203181,9.2301197 5.9469215,9.8875654 5.7724927,10.638901 5.7229636,11.738879 c -0.049314,1.102562 -0.062235,1.45508 -0.062235,4.262306 0,2.807226 0.01249,3.158452 0.06245,4.261014 0.050606,1.100409 0.2248193,1.851529 0.4802174,2.508759 0.2642272,0.679842 0.6173916,1.256533 1.1921451,1.831071 0.5743228,0.574969 1.1510143,0.928995 1.830425,1.193007 0.657661,0.255613 1.4089969,0.429827 2.5091899,0.480217 1.102562,0.05017 1.45465,0.06245 4.26166,0.06245 2.807442,0 3.158668,-0.01227 4.26123,-0.06245 1.100408,-0.05039 1.85239,-0.224604 2.510051,-0.480217 0.679626,-0.264012 1.255456,-0.618038 1.829779,-1.193007 0.574969,-0.574538 0.928133,-1.151229 1.193006,-1.830855 0.254106,-0.657446 0.428535,-1.408782 0.480218,-2.508759 0.04953,-1.102562 0.06245,-1.454004 0.06245,-4.26123 0,-2.807226 -0.01292,-3.159529 -0.06245,-4.262091 C 26.219417,10.638686 26.044988,9.8875654 25.790882,9.2303351 25.526009,8.5504937 25.172845,7.9738021 24.597876,7.399264 24.022907,6.8242952 23.447938,6.4711308 22.767451,6.2073343 22.108498,5.9517208 21.356947,5.7775074 20.256538,5.7271169 c -1.102562,-0.050175 -1.453572,-0.06245 -4.26166,-0.06245 z m -0.927271,1.8627267 c 0.275209,-4.307e-4 0.58229,0 0.927271,0 2.759851,0 3.086958,0.00991 4.176815,0.059435 1.00781,0.046084 1.554784,0.2144828 1.919147,0.3559639 0.482371,0.1873494 0.826275,0.4113073 1.187838,0.7730854 0.361778,0.3617781 0.585736,0.7063287 0.773516,1.1886995 0.141481,0.3639314 0.310096,0.9109054 0.355964,1.9187164 0.04953,1.089641 0.0603,1.416964 0.0603,4.175522 0,2.758558 -0.01077,3.085882 -0.0603,4.175523 -0.04608,1.00781 -0.214483,1.554784 -0.355964,1.918716 -0.187349,0.482371 -0.411738,0.825845 -0.773516,1.187407 -0.361778,0.361779 -0.705252,0.585736 -1.187838,0.773086 -0.363932,0.142127 -0.911337,0.310095 -1.919147,0.356179 -1.089641,0.04953 -1.416964,0.0603 -4.176815,0.0603 -2.760065,0 -3.087173,-0.01077 -4.176814,-0.0603 C 10.813483,24.363213 10.266509,24.194814 9.9019316,24.053332 9.4195608,23.865983 9.0750102,23.642025 8.7132321,23.280247 8.3514539,22.918469 8.127496,22.57478 7.939716,22.092194 7.7982349,21.728262 7.6296204,21.181288 7.5837521,20.173477 c -0.049529,-1.089641 -0.059435,-1.416964 -0.059435,-4.177245 0,-2.760281 0.00991,-3.085881 0.059435,-4.175522 C 7.6298358,10.812899 7.7982349,10.265925 7.939716,9.9015627 8.1270654,9.4191919 8.3514539,9.0746413 8.7132321,8.7128632 9.0750102,8.351085 9.4195608,8.1271271 9.9019316,7.9393471 10.266294,7.7972199 10.813483,7.6292515 11.821294,7.5829525 c 0.953543,-0.043069 1.323074,-0.055989 3.249543,-0.058143 z m 6.444818,1.7162926 c -0.684794,0 -1.240382,0.5549418 -1.240382,1.2399516 0,0.684794 0.555588,1.240382 1.240382,1.240382 0.684795,0 1.240383,-0.555588 1.240383,-1.240382 0,-0.6847944 -0.555588,-1.2403823 -1.240383,-1.2403823 z m -5.517547,1.4492656 c -2.931479,0 -5.308232,2.376753 -5.308232,5.308233 0,2.93148 2.376753,5.307156 5.308232,5.307156 2.93148,0 5.307372,-2.375676 5.307372,-5.307156 0,-2.93148 -2.376107,-5.308233 -5.307587,-5.308233 z m 0,1.862727 c 1.902781,0 3.445506,1.54251 3.445506,3.445506 0,1.902781 -1.542725,3.445506 -3.445506,3.445506 -1.902996,0 -3.445506,-1.542725 -3.445506,-3.445506 0,-1.902996 1.54251,-3.445506 3.445506,-3.445506 z"
     fill="#ffffff" />
</svg>
