<?xml version="1.0" encoding="UTF-8" standalone="no"?>
<svg
   xmlns:dc="http://purl.org/dc/elements/1.1/"
   xmlns:cc="http://creativecommons.org/ns#"
   xmlns:rdf="http://www.w3.org/1999/02/22-rdf-syntax-ns#"
   xmlns:svg="http://www.w3.org/2000/svg"
   xmlns="http://www.w3.org/2000/svg"
   xmlns:sodipodi="http://sodipodi.sourceforge.net/DTD/sodipodi-0.dtd"
   xmlns:inkscape="http://www.inkscape.org/namespaces/inkscape"
   inkscape:version="1.0.2 (e86c870879, 2021-01-15)"
   height="32"
   width="32"
   sodipodi:docname="libreoffice-draw.svg"
   id="svg16"
   version="1.1"
   viewBox="0 0 32 32">
  <metadata
     id="metadata22">
    <rdf:RDF>
      <cc:Work
         rdf:about="">
        <dc:format>image/svg+xml</dc:format>
        <dc:type
           rdf:resource="http://purl.org/dc/dcmitype/StillImage" />
        <dc:title />
      </cc:Work>
    </rdf:RDF>
  </metadata>
  <defs
     id="defs20">
    <linearGradient
       id="b-7"
       gradientTransform="matrix(1.6922304,0,0,1.7495143,-162.38222,-1712.9291)"
       gradientUnits="userSpaceOnUse"
       x1="122.75008"
       x2="111.74973"
       y1="991.62115"
       y2="977.11713">
      <stop
         offset="0"
         stop-color="#535353"
         id="stop7-4" />
      <stop
         offset="1"
         stop-color="#7e7e7e"
         id="stop9-2" />
    </linearGradient>
    <filter
       inkscape:collect="always"
       style="color-interpolation-filters:sRGB"
       id="filter61538"
       x="-0.085227273"
       width="1.1704545"
       y="-0.066964286"
       height="1.1339286">
      <feGaussianBlur
         inkscape:collect="always"
         stdDeviation="0.78125"
         id="feGaussianBlur61540" />
    </filter>
  </defs>
  <sodipodi:namedview
     inkscape:current-layer="svg16"
     inkscape:window-maximized="1"
     inkscape:window-y="0"
     inkscape:window-x="0"
     inkscape:cy="17.68954"
     inkscape:cx="7.0966744"
     inkscape:zoom="23.8125"
     showgrid="false"
     id="namedview18"
     inkscape:window-height="999"
     inkscape:window-width="1920"
     inkscape:pageshadow="2"
     inkscape:pageopacity="0"
     guidetolerance="10"
     gridtolerance="10"
     objecttolerance="10"
     borderopacity="1"
     bordercolor="#666666"
     pagecolor="#ffffff"
     inkscape:document-rotation="0" />
  <linearGradient
     gradientTransform="matrix(0.19565214,0,0,0.20689655,4.4779966,2.7586207)"
     y2="6"
     y1="122"
     x2="20.001341"
     x1="108.00134"
     gradientUnits="userSpaceOnUse"
     id="a">
    <stop
       id="stop2"
       stop-color="#e6e6e6"
       offset="0" />
    <stop
       id="stop4"
       stop-color="#fff"
       offset="1" />
  </linearGradient>
  <linearGradient
     y2="977.11713"
     y1="991.62115"
     x2="111.74973"
     x1="122.75008"
     gradientUnits="userSpaceOnUse"
     gradientTransform="matrix(1.6922304,0,0,1.7495143,-181.41372,-1706.1679)"
     id="b">
    <stop
       id="stop7"
       stop-color="#535353"
       offset="0" />
    <stop
       id="stop9"
       stop-color="#7e7e7e"
       offset="1" />
  </linearGradient>
  <path
     d="M 7.11126,2 C 7.0583,2 7.005339,2.00244 6.952608,2.0076901 6.176889,2.1607712 5.986786,2.5034316 6.000697,3.3197627 V 28.687927 C 6.000782,29.603942 6.383892,29.999912 7.269911,30 h 19.460872 c 0.886017,-8.8e-5 1.268714,-0.396058 1.268799,-1.312073 V 12.977661 c 0.01015,-0.461978 -0.165006,-0.925366 -0.475956,-1.257385 L 18.605252,2.499878 C 18.284101,2.1784905 17.835772,1.9969937 17.388921,2.0076905 H 7.269911 C 7.217201,2.0024405 7.164223,2.0000005 7.11126,2 Z m 14.809566,0.00299 c -0.04442,0 -0.08873,0.00368 -0.132622,0.010681 -0.563208,0.18655 -0.752735,1.0728696 -0.318543,1.4898071 L 26.56676,8.801757 c 0.470863,0.4641219 1.408425,0.066983 1.433234,-0.6071168 V 2.8963623 c -5e-5,-0.4623719 -0.404663,-0.8826248 -0.849444,-0.8826904 h -5.096689 c -0.04391,-0.007 -0.08862,-0.010681 -0.133035,-0.010682 z"
     fill="url(#b)"
     id="path12-3"
     style="fill:#000000;fill-opacity:1;stroke-width:0.215113;opacity:0.5;filter:url(#filter61538)" />
  <path
     style="fill:#ffcc00;stroke-width:0.215113;fill-opacity:1"
     id="path12"
     fill="url(#b)"
     d="M 7.1112597,2 C 7.058297,2 7.0053391,2.00244 6.9526075,2.00769 6.176889,2.1607712 5.9867863,2.5034315 6.0006969,3.3197627 V 28.687927 C 6.000782,29.603942 6.3838922,29.999912 7.269911,30 h 19.460872 c 0.886017,-8.8e-5 1.268714,-0.396058 1.268799,-1.312073 V 12.977661 c 0.01015,-0.461978 -0.165006,-0.925366 -0.475956,-1.257385 L 18.605252,2.4998779 C 18.284101,2.1784904 17.835772,1.9969936 17.388921,2.0076904 H 7.269911 C 7.2171987,2.0024404 7.1642234,2 7.1112597,2 Z M 21.920826,2.00299 c -0.04442,0 -0.08873,0.00368 -0.132622,0.010681 -0.563208,0.18655 -0.752735,1.0728696 -0.318543,1.4898071 l 5.097099,5.2982788 c 0.470863,0.4641219 1.408425,0.066983 1.433234,-0.6071168 V 2.8963623 c -5e-5,-0.4623719 -0.404663,-0.8826248 -0.849444,-0.8826904 h -5.096689 c -0.04391,-0.007 -0.08862,-0.010681 -0.133035,-0.010682 z" />
  <path
     style="fill:#ffffff;stroke-width:0.201196"
     id="path14"
     fill="url(#a)"
     d="M 8,4 V 28 H 26 V 13.103448 L 17.391307,4 Z" />
  <rect
     style="opacity:1;fill:#cca300;fill-opacity:1;stroke-width:1.16488"
     id="rect3161"
     width="7.1999998"
     height="7.1999998"
     x="15.799999"
     y="15.2" />
  <circle
     style="opacity:1;fill:#997a00;fill-opacity:1;stroke-width:0.499229"
     id="path3159"
     cx="14.6"
     cy="17.6"
     r="3.5999999" />
  <path
     style="fill:#ffcc00;fill-opacity:1;stroke:none;stroke-width:1.00623px;stroke-linecap:butt;stroke-linejoin:miter;stroke-opacity:1"
     d="M 15.499999,16.4 11,23.599999 19.999999,23.6 Z"
     id="path3185" />
</svg>
