<?xml version="1.0" encoding="UTF-8" standalone="no"?>
<svg
   xmlns:dc="http://purl.org/dc/elements/1.1/"
   xmlns:cc="http://creativecommons.org/ns#"
   xmlns:rdf="http://www.w3.org/1999/02/22-rdf-syntax-ns#"
   xmlns:svg="http://www.w3.org/2000/svg"
   xmlns="http://www.w3.org/2000/svg"
   xmlns:sodipodi="http://sodipodi.sourceforge.net/DTD/sodipodi-0.dtd"
   xmlns:inkscape="http://www.inkscape.org/namespaces/inkscape"
   inkscape:version="1.0.2 (e86c870879, 2021-01-15)"
   height="32"
   width="32"
   sodipodi:docname="libreoffice-base.svg"
   id="svg16"
   version="1.1"
   viewBox="0 0 32 32">
  <metadata
     id="metadata22">
    <rdf:RDF>
      <cc:Work
         rdf:about="">
        <dc:format>image/svg+xml</dc:format>
        <dc:type
           rdf:resource="http://purl.org/dc/dcmitype/StillImage" />
        <dc:title />
      </cc:Work>
    </rdf:RDF>
  </metadata>
  <defs
     id="defs20">
    <linearGradient
       id="b-7"
       gradientTransform="matrix(1.6922304,0,0,1.7495143,-162.38222,-1712.9291)"
       gradientUnits="userSpaceOnUse"
       x1="122.75008"
       x2="111.74973"
       y1="991.62115"
       y2="977.11713">
      <stop
         offset="0"
         stop-color="#535353"
         id="stop7-4" />
      <stop
         offset="1"
         stop-color="#7e7e7e"
         id="stop9-2" />
    </linearGradient>
    <filter
       inkscape:collect="always"
       style="color-interpolation-filters:sRGB"
       id="filter61550"
       x="-0.085227273"
       width="1.1704545"
       y="-0.066964286"
       height="1.1339286">
      <feGaussianBlur
         inkscape:collect="always"
         stdDeviation="0.78125"
         id="feGaussianBlur61552" />
    </filter>
  </defs>
  <sodipodi:namedview
     inkscape:current-layer="svg16"
     inkscape:window-maximized="1"
     inkscape:window-y="0"
     inkscape:window-x="0"
     inkscape:cy="22.18762"
     inkscape:cx="4.1300431"
     inkscape:zoom="11.90625"
     showgrid="false"
     id="namedview18"
     inkscape:window-height="999"
     inkscape:window-width="1920"
     inkscape:pageshadow="2"
     inkscape:pageopacity="0"
     guidetolerance="10"
     gridtolerance="10"
     objecttolerance="10"
     borderopacity="1"
     bordercolor="#666666"
     pagecolor="#ffffff"
     inkscape:document-rotation="0" />
  <linearGradient
     gradientTransform="matrix(0.19565214,0,0,0.20689655,4.4779966,2.7586207)"
     y2="6"
     y1="122"
     x2="20.001341"
     x1="108.00134"
     gradientUnits="userSpaceOnUse"
     id="a">
    <stop
       id="stop2"
       stop-color="#e6e6e6"
       offset="0" />
    <stop
       id="stop4"
       stop-color="#fff"
       offset="1" />
  </linearGradient>
  <linearGradient
     y2="977.11713"
     y1="991.62115"
     x2="111.74973"
     x1="122.75008"
     gradientUnits="userSpaceOnUse"
     gradientTransform="matrix(1.6922304,0,0,1.7495143,-181.41372,-1706.1679)"
     id="b">
    <stop
       id="stop7"
       stop-color="#535353"
       offset="0" />
    <stop
       id="stop9"
       stop-color="#7e7e7e"
       offset="1" />
  </linearGradient>
  <path
     d="M 7.11126,2 C 7.0583,2 7.005339,2.00244 6.952608,2.0076901 6.176889,2.1607712 5.986786,2.5034316 6.000697,3.3197627 V 28.687927 C 6.000782,29.603942 6.383892,29.999912 7.269911,30 h 19.460872 c 0.886017,-8.8e-5 1.268714,-0.396058 1.268799,-1.312073 V 12.977661 c 0.01015,-0.461978 -0.165006,-0.925366 -0.475956,-1.257385 L 18.605252,2.499878 C 18.284101,2.1784905 17.835772,1.9969937 17.388921,2.0076905 H 7.269911 C 7.217201,2.0024405 7.164223,2.0000005 7.11126,2 Z m 14.809566,0.00299 c -0.04442,0 -0.08873,0.00368 -0.132622,0.010681 -0.563208,0.18655 -0.752735,1.0728696 -0.318543,1.4898071 L 26.56676,8.801757 c 0.470863,0.4641219 1.408425,0.066983 1.433234,-0.6071168 V 2.8963623 c -5e-5,-0.4623719 -0.404663,-0.8826248 -0.849444,-0.8826904 h -5.096689 c -0.04391,-0.007 -0.08862,-0.010681 -0.133035,-0.010682 z"
     fill="url(#b)"
     id="path12-3"
     style="fill:#000000;fill-opacity:1;stroke-width:0.215113;opacity:0.5;filter:url(#filter61550)" />
  <path
     style="fill:#ff208b;stroke-width:0.215113;fill-opacity:1"
     id="path12"
     fill="url(#b)"
     d="M 7.1112597,2 C 7.058297,2 7.0053391,2.00244 6.9526075,2.00769 6.176889,2.1607712 5.9867863,2.5034315 6.0006969,3.3197627 V 28.687927 C 6.000782,29.603942 6.3838922,29.999912 7.269911,30 h 19.460872 c 0.886017,-8.8e-5 1.268714,-0.396058 1.268799,-1.312073 V 12.977661 c 0.01015,-0.461978 -0.165006,-0.925366 -0.475956,-1.257385 L 18.605252,2.4998779 C 18.284101,2.1784904 17.835772,1.9969936 17.388921,2.0076904 H 7.269911 C 7.2171987,2.0024404 7.1642234,2 7.1112597,2 Z M 21.920826,2.00299 c -0.04442,0 -0.08873,0.00368 -0.132622,0.010681 -0.563208,0.18655 -0.752735,1.0728696 -0.318543,1.4898071 l 5.097099,5.2982788 c 0.470863,0.4641219 1.408425,0.066983 1.433234,-0.6071168 V 2.8963623 c -5e-5,-0.4623719 -0.404663,-0.8826248 -0.849444,-0.8826904 h -5.096689 c -0.04391,-0.007 -0.08862,-0.010681 -0.133035,-0.010682 z" />
  <path
     style="fill:#ffffff;stroke-width:0.201196"
     id="path14"
     fill="url(#a)"
     d="M 8,4 V 28 H 26 V 13.103448 L 17.391307,4 Z" />
  <path
     inkscape:connector-curvature="0"
     style="fill:#ff208b;fill-opacity:1;stroke-width:1.2"
     d="m 16.799998,14 c -2.013479,0 -3.733413,0.621084 -4.446094,1.5 -0.05984,0.07379 -0.114216,0.14777 -0.159375,0.224997 -0.04291,0.07339 -0.07891,0.148884 -0.107807,0.224997 a 4.8000002,2.4000002 0 0 0 -0.02109,0.07031 c -0.01647,0.05158 -0.03479,0.102062 -0.04454,0.154687 a 4.8000002,2.4000002 0 0 0 -0.02109,0.225008 c 2.64e-4,0.07799 0.01043,0.157048 0.02577,0.234374 a 4.8000002,2.4000002 0 0 0 0.06563,0.224997 4.8000002,2.4000002 0 0 0 0.11016,0.222659 4.8000002,2.4000002 0 0 0 0.152339,0.217967 4.8000002,2.4000002 0 0 0 4.446095,1.5 4.8000002,2.4000002 0 0 0 4.446094,-1.5 4.8000002,2.4000002 0 0 0 0.0024,0 4.8000002,2.4000002 0 0 0 0.128905,-0.1875 c 0.0077,-0.01216 0.01854,-0.02297 0.02577,-0.03515 a 4.8000002,2.4000002 0 0 0 0.07734,-0.159375 c 0.01117,-0.02512 0.02557,-0.04972 0.03515,-0.075 a 4.8000002,2.4000002 0 0 0 0.03982,-0.133598 c 0.0092,-0.0352 0.01967,-0.07008 0.02577,-0.105466 a 4.8000002,2.4000002 0 0 0 0.02109,-0.201563 4.8000002,2.4000002 0 0 0 -0.02577,-0.241406 c -0.04675,-0.231604 -0.160072,-0.450998 -0.328072,-0.658598 -0.7128,-0.8784 -2.432494,-1.5 -4.446094,-1.5 z m -4.446094,4.8 C 12.121106,19.112002 12.001197,19.446032 12,19.782031 12,21.228031 14.149199,22.4 16.8,22.4 c 2.6508,0 4.800001,-1.171969 4.800001,-2.617969 C 21.598801,19.446032 21.478893,19.112 21.246092,18.8 c -0.7332,0.9888 -2.491293,1.7988 -4.446094,1.8 -1.9548,-0.0012 -3.712893,-0.8112 -4.446094,-1.8 z m 0,3.6 C 12.121106,22.712001 12.001197,23.046032 12,23.382031 12,24.828031 14.149199,26 16.8,26 c 2.6508,0 4.800001,-1.171969 4.800001,-2.617969 -0.0012,-0.335999 -0.121108,-0.67003 -0.353909,-0.982031 -0.7332,0.988801 -2.491293,1.798801 -4.446094,1.8 -1.9548,-0.0012 -3.712893,-0.811199 -4.446094,-1.8 z"
     id="path12-36" />
</svg>
