<?xml version="1.0" encoding="UTF-8" standalone="no"?>
<svg
   xmlns:dc="http://purl.org/dc/elements/1.1/"
   xmlns:cc="http://creativecommons.org/ns#"
   xmlns:rdf="http://www.w3.org/1999/02/22-rdf-syntax-ns#"
   xmlns:svg="http://www.w3.org/2000/svg"
   xmlns="http://www.w3.org/2000/svg"
   xmlns:sodipodi="http://sodipodi.sourceforge.net/DTD/sodipodi-0.dtd"
   xmlns:inkscape="http://www.inkscape.org/namespaces/inkscape"
   inkscape:version="1.0.1 (3bc2e813f5, 2020-09-07)"
   sodipodi:docname="kmenuedit.svg"
   id="svg14"
   version="1"
   height="32"
   width="32">
  <metadata
     id="metadata20">
    <rdf:RDF>
      <cc:Work
         rdf:about="">
        <dc:format>image/svg+xml</dc:format>
        <dc:type
           rdf:resource="http://purl.org/dc/dcmitype/StillImage" />
        <dc:title></dc:title>
      </cc:Work>
    </rdf:RDF>
  </metadata>
  <defs
     id="defs18">
    <filter
       inkscape:collect="always"
       style="color-interpolation-filters:sRGB"
       id="filter17626"
       x="-0.075641252"
       width="1.1512825"
       y="-0.074369527"
       height="1.1487391">
      <feGaussianBlur
         inkscape:collect="always"
         stdDeviation="0.11018649"
         id="feGaussianBlur17628" />
    </filter>
    <filter
       inkscape:collect="always"
       style="color-interpolation-filters:sRGB"
       id="filter943"
       x="-0.068303571"
       width="1.1366071"
       y="-0.083152174"
       height="1.1663043">
      <feGaussianBlur
         inkscape:collect="always"
         stdDeviation="0.796875"
         id="feGaussianBlur945" />
    </filter>
  </defs>
  <sodipodi:namedview
     inkscape:current-layer="svg14"
     inkscape:window-maximized="1"
     inkscape:window-y="0"
     inkscape:window-x="0"
     inkscape:cy="19.31093"
     inkscape:cx="-2.7023653"
     inkscape:zoom="11.90625"
     showgrid="false"
     id="namedview16"
     inkscape:window-height="1000"
     inkscape:window-width="1920"
     inkscape:pageshadow="2"
     inkscape:pageopacity="0"
     guidetolerance="10"
     gridtolerance="10"
     objecttolerance="10"
     borderopacity="1"
     bordercolor="#666666"
     pagecolor="#ffffff"
     inkscape:document-rotation="0" />
  <path
     id="rect892-7"
     style="opacity:0.5;fill:#000000;fill-opacity:1;stroke:none;stroke-width:0.554753;filter:url(#filter943)"
     d="M 3.484375,4 C 2.662009,4 2,4.66201 2,5.484375 v 17.03125 C 2,23.337991 2.662009,24 3.484375,24 H 22 l 3,3 3,-3 h 0.515625 C 29.337991,24 30,23.337991 30,22.515625 V 5.484375 C 30,4.66201 29.337991,4 28.515625,4 Z" />
  <path
     id="rect892"
     style="opacity:1;fill:#ffffff;fill-opacity:1;stroke:none;stroke-width:0.554753"
     d="M 3.484375 4 C 2.6620093 4 2 4.6620093 2 5.484375 L 2 22.515625 C 2 23.337991 2.6620093 24 3.484375 24 L 22 24 L 25 27 L 28 24 L 28.515625 24 C 29.337991 24 30 23.337991 30 22.515625 L 30 5.484375 C 30 4.6620093 29.337991 4 28.515625 4 L 3.484375 4 z " />
  <path
     id="path18-6-2"
     style="opacity:0.3;fill:#000000;fill-opacity:1;stroke-width:0.0367048;filter:url(#filter17626)"
     d="m 7.5903562,3.8213405 c -0.052959,0 -0.1056311,0.021158 -0.1467611,0.063045 L 7.0374185,4.3008977 6.7578489,4.5851182 4.793628,6.5855128 v 0.4687051 l -0.0041,-0.00413 0.0041,0.3271118 H 5.106787 5.571358 L 7.5355793,5.376801 7.8151486,5.0925806 8.2239092,4.6786524 c 0.08226,-0.083774 0.08226,-0.2154283 0,-0.2992066 L 7.7376339,3.8843857 c -0.04113,-0.041887 -0.094319,-0.063045 -0.1472777,-0.063045 z"
     transform="matrix(3.7795275,0,0,3.7795275,-8.7089112,-7.2974018)" />
  <path
     style="fill:#f3d86a;fill-opacity:1;stroke-width:0.138727"
     inkscape:connector-curvature="0"
     id="path18-6"
     d="m 9.4086628,16.446361 v 2.993638 H 12.34819 l 7.423827,-7.560477 -2.93953,-2.9936386 z M 22.372533,9.2408444 c 0.310904,-0.316626 0.310904,-0.815915 0,-1.132557 L 20.534942,6.2374696 c -0.310904,-0.3166261 -0.800639,-0.3166261 -1.111543,0 l -1.535823,1.5737988 2.93953,2.9940856 z" />
  <path
     inkscape:connector-curvature="0"
     id="path6543-7"
     d="M 9.4086628,19.439999 V 16.446361 L 12.34819,19.439999 Z"
     style="fill:#f7ecc1;fill-opacity:1;stroke:none;stroke-width:0.554918px;stroke-linecap:butt;stroke-linejoin:miter;stroke-opacity:1" />
  <path
     sodipodi:nodetypes="cccc"
     inkscape:connector-curvature="0"
     id="path6543-4-9"
     d="m 9.4086628,19.439999 -0.01701,-1.237075 1.2009452,1.237075 z"
     style="fill:#3b3b3b;fill-opacity:1;stroke:none;stroke-width:0.554918px;stroke-linecap:butt;stroke-linejoin:miter;stroke-opacity:1" />
  <path
     inkscape:connector-curvature="0"
     id="path6562-1"
     d="m 17.887576,7.8112684 2.93953,2.9940856 -1.055089,1.074168 -2.93953,-2.9936386 z"
     style="fill:#f0f0f0;fill-opacity:1;stroke:none;stroke-width:0.554918px;stroke-linecap:butt;stroke-linejoin:miter;stroke-opacity:1" />
  <path
     sodipodi:nodetypes="ccccccc"
     style="fill:#ea6464;fill-opacity:1;stroke-width:0.138727"
     inkscape:connector-curvature="0"
     id="path18-5-8"
     d="m 22.372533,9.2408444 c 0.310904,-0.316626 0.310904,-0.815915 0,-1.132557 L 20.534942,6.2374696 c -0.310904,-0.3166261 -0.800639,-0.3166261 -1.111543,0 l -1.535823,1.5737988 2.93953,2.9940856 z" />
</svg>
