<?xml version="1.0" encoding="UTF-8" standalone="no"?>
<svg
   xmlns:dc="http://purl.org/dc/elements/1.1/"
   xmlns:cc="http://creativecommons.org/ns#"
   xmlns:rdf="http://www.w3.org/1999/02/22-rdf-syntax-ns#"
   xmlns:svg="http://www.w3.org/2000/svg"
   xmlns="http://www.w3.org/2000/svg"
   xmlns:sodipodi="http://sodipodi.sourceforge.net/DTD/sodipodi-0.dtd"
   xmlns:inkscape="http://www.inkscape.org/namespaces/inkscape"
   width="32"
   height="32"
   version="1.1"
   id="svg16"
   sodipodi:docname="microsoft-edge.svg"
   inkscape:version="1.0.2 (e86c870879, 2021-01-15)">
  <metadata
     id="metadata22">
    <rdf:RDF>
      <cc:Work
         rdf:about="">
        <dc:format>image/svg+xml</dc:format>
        <dc:type
           rdf:resource="http://purl.org/dc/dcmitype/StillImage" />
      </cc:Work>
    </rdf:RDF>
  </metadata>
  <defs
     id="defs20">
    <linearGradient
       gradientUnits="userSpaceOnUse"
       gradientTransform="matrix(0.10936266,0,0,-0.10936266,1.4965477,30.552399)"
       y2="84.029999"
       x2="241.67"
       y1="84.029999"
       x1="63.330002"
       id="a">
      <stop
         stop-color="#0c59a4"
         offset="0"
         id="stop32" />
      <stop
         stop-color="#114a8b"
         offset="1"
         id="stop34" />
    </linearGradient>
    <radialGradient
       gradientUnits="userSpaceOnUse"
       gradientTransform="matrix(0.10936266,0,0,-0.10389452,1.4965477,28.675739)"
       r="95.379997"
       cy="68.910004"
       cx="161.83"
       id="b">
      <stop
         stop-opacity="0"
         offset=".72"
         id="stop2" />
      <stop
         stop-opacity=".53"
         offset=".95"
         id="stop4" />
      <stop
         offset="1"
         id="stop6" />
    </radialGradient>
    <linearGradient
       gradientUnits="userSpaceOnUse"
       gradientTransform="matrix(0.10936266,0,0,-0.10936266,1.4965477,30.552399)"
       y2="40.060001"
       x2="45.959999"
       y1="161.39"
       x1="157.35001"
       id="c">
      <stop
         stop-color="#1b9de2"
         offset="0"
         id="stop37" />
      <stop
         stop-color="#1595df"
         offset=".16"
         id="stop39" />
      <stop
         stop-color="#0680d7"
         offset=".67"
         id="stop41" />
      <stop
         stop-color="#0078d4"
         offset="1"
         id="stop43" />
    </linearGradient>
    <radialGradient
       gradientUnits="userSpaceOnUse"
       gradientTransform="matrix(0.0164044,-0.10826903,-0.08749012,-0.01312352,20.814368,-12.252141)"
       r="143.24001"
       cy="62.990002"
       cx="-340.29001"
       id="d">
      <stop
         stop-opacity="0"
         offset=".76"
         id="stop9" />
      <stop
         stop-opacity=".5"
         offset=".95"
         id="stop11" />
      <stop
         offset="1"
         id="stop13" />
    </radialGradient>
    <radialGradient
       gradientUnits="userSpaceOnUse"
       gradientTransform="matrix(-0.00437451,0.10936266,0.23294246,0.00874901,-127.50108,-10.205971)"
       r="202.42999"
       cy="570.21002"
       cx="113.37"
       id="e">
      <stop
         stop-color="#35c1f1"
         offset="0"
         id="stop16" />
      <stop
         stop-color="#34c1ed"
         offset=".11"
         id="stop18" />
      <stop
         stop-color="#2fc2df"
         offset=".23"
         id="stop20" />
      <stop
         stop-color="#2bc3d2"
         offset=".31"
         id="stop22" />
      <stop
         stop-color="#36c752"
         offset=".67"
         id="stop24" />
    </radialGradient>
    <radialGradient
       gradientUnits="userSpaceOnUse"
       gradientTransform="matrix(0.03062154,0.10498815,0.08530287,-0.02515341,-31.723452,-14.778421)"
       r="97.339996"
       cy="567.96997"
       cx="376.51999"
       id="f">
      <stop
         stop-color="#66eb6e"
         offset="0"
         id="stop27" />
      <stop
         stop-opacity="0"
         stop-color="#66eb6e"
         offset="1"
         id="stop29" />
    </radialGradient>
    <radialGradient
       gradientUnits="userSpaceOnUse"
       gradientTransform="matrix(0.10936266,0,0,-0.10389452,-35.050912,-2.955457)"
       r="95.379997"
       cy="68.910004"
       cx="161.83"
       id="b-7">
      <stop
         stop-opacity="0"
         offset=".72"
         id="stop2-5" />
      <stop
         stop-opacity=".53"
         offset=".95"
         id="stop4-3" />
      <stop
         offset="1"
         id="stop6-5" />
    </radialGradient>
    <radialGradient
       gradientUnits="userSpaceOnUse"
       gradientTransform="matrix(0.0164044,-0.10826903,-0.08749012,-0.01312352,-15.733092,-43.883337)"
       r="143.24001"
       cy="62.990002"
       cx="-340.29001"
       id="d-2">
      <stop
         stop-opacity="0"
         offset=".76"
         id="stop9-7" />
      <stop
         stop-opacity=".5"
         offset=".95"
         id="stop11-0" />
      <stop
         offset="1"
         id="stop13-9" />
    </radialGradient>
    <radialGradient
       gradientUnits="userSpaceOnUse"
       gradientTransform="matrix(-0.00437451,0.10936266,0.23294246,0.00874901,-164.04854,-41.837167)"
       r="202.42999"
       cy="570.21002"
       cx="113.37"
       id="e-3">
      <stop
         stop-color="#35c1f1"
         offset="0"
         id="stop16-6" />
      <stop
         stop-color="#34c1ed"
         offset=".11"
         id="stop18-0" />
      <stop
         stop-color="#2fc2df"
         offset=".23"
         id="stop20-6" />
      <stop
         stop-color="#2bc3d2"
         offset=".31"
         id="stop22-2" />
      <stop
         stop-color="#36c752"
         offset=".67"
         id="stop24-6" />
    </radialGradient>
    <radialGradient
       gradientUnits="userSpaceOnUse"
       gradientTransform="matrix(0.03062154,0.10498815,0.08530287,-0.02515341,-68.270912,-46.409617)"
       r="97.339996"
       cy="567.96997"
       cx="376.51999"
       id="f-1">
      <stop
         stop-color="#66eb6e"
         offset="0"
         id="stop27-8" />
      <stop
         stop-opacity="0"
         stop-color="#66eb6e"
         offset="1"
         id="stop29-7" />
    </radialGradient>
    <filter
       inkscape:collect="always"
       style="color-interpolation-filters:sRGB"
       id="filter2221"
       x="-0.075001719"
       width="1.1500034"
       y="-0.074998281"
       height="1.1499966">
      <feGaussianBlur
         inkscape:collect="always"
         stdDeviation="0.87497953"
         id="feGaussianBlur2223" />
    </filter>
  </defs>
  <sodipodi:namedview
     pagecolor="#ffffff"
     bordercolor="#666666"
     borderopacity="1"
     objecttolerance="10"
     gridtolerance="10"
     guidetolerance="10"
     inkscape:pageopacity="0"
     inkscape:pageshadow="2"
     inkscape:window-width="1920"
     inkscape:window-height="999"
     id="namedview18"
     showgrid="false"
     inkscape:zoom="7.9328542"
     inkscape:cx="2.0935501"
     inkscape:cy="3.718098"
     inkscape:window-x="0"
     inkscape:window-y="0"
     inkscape:window-maximized="1"
     inkscape:current-layer="svg16" />
  <path
     id="path48-9"
     style="fill:#000000;stroke-width:0.109363;filter:url(#filter2221);opacity:0.5"
     d="M 15.998696,2.0000159 A 13.99842,13.99842 0 0 0 2.0006493,15.800797 c 0.00328,-0.249758 0.021558,-0.495131 0.054687,-0.738281 0.00766,-0.05618 0.024006,-0.110228 0.033204,-0.166016 -0.044433,0.308653 -0.076172,0.617446 -0.076172,0.921875 a 14.23355,14.23355 0 0 0 1.324218,6.123047 13.99842,13.99842 0 0 0 17.1035157,7.339844 8.2623486,8.2623486 0 0 1 -1.248047,0.287109 c 0.449693,-0.08721 0.90005,-0.185489 1.234375,-0.291016 l 0.142578,-0.04883 a 14.035603,14.035603 0 0 0 7.283204,-5.773437 0.43745061,0.43745061 0 0 0 -0.580078,-0.617188 10.250562,10.250562 0 0 1 -1.154298,0.515625 11.140773,11.140773 0 0 1 -3.5625,0.701172 11.140773,11.140773 0 0 1 -0.28125,0.0039 11.140773,11.140773 0 0 1 -0.08203,0 c -5.17504,0 -9.683594,-3.558873 -9.683593,-8.126953 a 3.4427363,3.4427363 0 0 1 1.796874,-2.986328 c 0.341211,-0.16076 0.925792,-0.45171 1.701172,-0.4375 a 3.5378819,3.5378819 0 0 1 2.808594,1.421875 3.4864814,3.4864814 0 0 1 0.673827,1.701168 c 0.01313,0.179046 0.02344,0.353152 0.02344,0.470703 0,0.58728 -0.298183,1.458134 -0.851563,2.177735 -0.0886,0.114829 -0.361328,0.27355 -0.361328,0.61914 0,0.28543 0.185345,0.560256 0.515625,0.791016 1.57263,1.09362 4.537262,0.949219 4.544922,0.949218 a 6.5136396,6.5136396 0 0 0 2.705078,-0.595703 6.5136396,6.5136396 0 0 0 0.19336,-0.0918 6.5136396,6.5136396 0 0 0 0.412109,-0.226562 6.7126798,6.7126798 0 0 0 3.328125,-5.783203 c 0.0284,-2.45082 -0.874964,-4.0789911 -1.240234,-4.8007811 -2.31739,-4.53309 -7.320066,-7.140625 -12.759766,-7.140625 z" />
  <path
     d="m 27.271138,22.837959 a 10.250562,10.250562 0 0 1 -1.15268,0.5151 11.140773,11.140773 0 0 1 -3.92612,0.70648 c -5.17504,0 -9.68297,-3.55975 -9.68297,-8.12783 a 3.4427363,3.4427363 0 0 1 1.79683,-2.9867 c -4.6807303,0.19686 -5.8837103,5.07443 -5.8837103,7.93208 0,8.07971 7.4465003,8.89884 9.0508503,8.89884 0.86506,0 2.16975,-0.25154 2.95279,-0.4987 l 0.14327,-0.0481 a 14.035603,14.035603 0 0 0 7.28355,-5.77435 0.43745061,0.43745061 0 0 0 -0.58181,-0.6168 z"
     fill="url(#a)"
     id="path48"
     style="fill:url(#a);stroke-width:0.109363" />
  <path
     style="isolation:isolate;fill:url(#b);stroke-width:0.109363"
     d="m 27.271138,22.837959 a 10.250562,10.250562 0 0 1 -1.15268,0.5151 11.140773,11.140773 0 0 1 -3.92612,0.70648 c -5.17504,0 -9.68297,-3.55975 -9.68297,-8.12783 a 3.4427363,3.4427363 0 0 1 1.79683,-2.9867 c -4.6807303,0.19686 -5.8837103,5.07443 -5.8837103,7.93208 0,8.07971 7.4465003,8.89884 9.0508503,8.89884 0.86506,0 2.16975,-0.25154 2.95279,-0.4987 l 0.14327,-0.0481 a 14.035603,14.035603 0 0 0 7.28355,-5.77435 0.43745061,0.43745061 0 0 0 -0.58181,-0.6168 z"
     fill="url(#b)"
     opacity="0.35"
     id="path50" />
  <path
     d="m 13.563618,28.402329 a 8.661522,8.661522 0 0 1 -2.4869,-2.3338 8.8277533,8.8277533 0 0 1 3.22948,-13.12352 c 0.34121,-0.16076 0.92411,-0.45166 1.69949,-0.43745 a 3.5378819,3.5378819 0 0 1 2.80953,1.42172 3.4864814,3.4864814 0 0 1 0.69554,2.0407 c 0,-0.023 2.67502,-8.7052597 -8.74901,-8.7052597 -4.8010203,0 -8.7490103,4.5560497 -8.7490103,8.5532497 a 14.23355,14.23355 0 0 0 1.32438,6.12431 13.99842,13.99842 0 0 0 17.1021303,7.33933 8.2623486,8.2623486 0 0 1 -6.86578,-0.8749 z"
     fill="url(#c)"
     id="path52"
     style="fill:url(#c);stroke-width:0.109363" />
  <path
     style="isolation:isolate;fill:url(#d);stroke-width:0.109363"
     d="m 13.563618,28.402329 a 8.661522,8.661522 0 0 1 -2.4869,-2.3338 8.8277533,8.8277533 0 0 1 3.22948,-13.12352 c 0.34121,-0.16076 0.92411,-0.45166 1.69949,-0.43745 a 3.5378819,3.5378819 0 0 1 2.80953,1.42172 3.4864814,3.4864814 0 0 1 0.69554,2.0407 c 0,-0.023 2.67502,-8.7052597 -8.74901,-8.7052597 -4.8010203,0 -8.7490103,4.5560497 -8.7490103,8.5532497 a 14.23355,14.23355 0 0 0 1.32438,6.12431 13.99842,13.99842 0 0 0 17.1021303,7.33933 8.2623486,8.2623486 0 0 1 -6.86578,-0.8749 z"
     fill="url(#d)"
     opacity="0.41"
     id="path54" />
  <path
     d="m 18.659918,18.279719 c -0.0886,0.11483 -0.36089,0.27341 -0.36089,0.619 0,0.28543 0.18591,0.55993 0.51619,0.79069 1.57263,1.09362 4.53745,0.94927 4.54511,0.94927 a 6.5136396,6.5136396 0 0 0 3.31041,-0.91318 6.7126798,6.7126798 0 0 0 3.3279,-5.7831 c 0.0284,-2.45082 -0.8749,-4.0803197 -1.24017,-4.8021097 -2.31739,-4.53309 -7.31964,-7.14029 -12.75934,-7.14029 A 13.99842,13.99842 0 0 0 2.0007077,15.801569 c 0.0525,-3.99612 4.02455,-7.2234097 8.7490103,-7.2234097 0.38277,0 2.56565,0.0372 4.59323,1.10128 1.78699,0.9383397 2.72313,2.0713297 3.37384,3.1944897 0.67586,1.1669 0.79616,2.64111 0.79616,3.22838 0,0.58728 -0.29965,1.45781 -0.85303,2.17741 z"
     fill="url(#e)"
     id="path56"
     style="fill:url(#e);stroke-width:0.109363" />
  <path
     d="m 18.659918,18.279719 c -0.0886,0.11483 -0.36089,0.27341 -0.36089,0.619 0,0.28543 0.18591,0.55993 0.51619,0.79069 1.57263,1.09362 4.53745,0.94927 4.54511,0.94927 a 6.5136396,6.5136396 0 0 0 3.31041,-0.91318 6.7126798,6.7126798 0 0 0 3.3279,-5.7831 c 0.0284,-2.45082 -0.8749,-4.0803197 -1.24017,-4.8021097 -2.31739,-4.53309 -7.31964,-7.14029 -12.75934,-7.14029 A 13.99842,13.99842 0 0 0 2.0007077,15.801569 c 0.0525,-3.99612 4.02455,-7.2234097 8.7490103,-7.2234097 0.38277,0 2.56565,0.0372 4.59323,1.10128 1.78699,0.9383397 2.72313,2.0713297 3.37384,3.1944897 0.67586,1.1669 0.79616,2.64111 0.79616,3.22838 0,0.58728 -0.29965,1.45781 -0.85303,2.17741 z"
     fill="url(#f)"
     id="path58"
     style="fill:url(#f);stroke-width:0.109363" />
</svg>
