<?xml version="1.0" encoding="UTF-8" standalone="no"?>
<svg
   xmlns:dc="http://purl.org/dc/elements/1.1/"
   xmlns:cc="http://creativecommons.org/ns#"
   xmlns:rdf="http://www.w3.org/1999/02/22-rdf-syntax-ns#"
   xmlns:svg="http://www.w3.org/2000/svg"
   xmlns="http://www.w3.org/2000/svg"
   xmlns:sodipodi="http://sodipodi.sourceforge.net/DTD/sodipodi-0.dtd"
   xmlns:inkscape="http://www.inkscape.org/namespaces/inkscape"
   width="32"
   height="32"
   version="1"
   id="svg23406"
   sodipodi:docname="mps.svg"
   inkscape:version="1.0.1 (3bc2e813f5, 2020-09-07)">
  <metadata
     id="metadata23412">
    <rdf:RDF>
      <cc:Work
         rdf:about="">
        <dc:format>image/svg+xml</dc:format>
        <dc:type
           rdf:resource="http://purl.org/dc/dcmitype/StillImage" />
      </cc:Work>
    </rdf:RDF>
  </metadata>
  <defs
     id="defs23410">
    <filter
       inkscape:collect="always"
       style="color-interpolation-filters:sRGB"
       id="filter60049"
       x="-0.075"
       width="1.15"
       y="-0.075"
       height="1.15">
      <feGaussianBlur
         inkscape:collect="always"
         stdDeviation="0.875"
         id="feGaussianBlur60051" />
    </filter>
  </defs>
  <sodipodi:namedview
     pagecolor="#ffffff"
     bordercolor="#666666"
     borderopacity="1"
     objecttolerance="10"
     gridtolerance="10"
     guidetolerance="10"
     inkscape:pageopacity="0"
     inkscape:pageshadow="2"
     inkscape:window-width="1920"
     inkscape:window-height="1000"
     id="namedview23408"
     showgrid="false"
     inkscape:zoom="23.8125"
     inkscape:cx="16"
     inkscape:cy="16"
     inkscape:window-x="0"
     inkscape:window-y="0"
     inkscape:window-maximized="1"
     inkscape:current-layer="svg23406" />
  <rect
     style="fill:#000000;stroke-width:1.4;fill-opacity:1;filter:url(#filter60049);opacity:0.5"
     width="28"
     height="28"
     x="2"
     y="2"
     id="rect23388-3"
     rx="1.4776063"
     ry="1.4776063" />
  <path
     style="fill:#f7c73c"
     d="M 16,2 H 3.4 C 2.6244,2 2,2.6244 2,3.4 V 16 h 14 z"
     id="path23378" />
  <path
     style="fill:#21d789"
     d="M 16,2 H 28.6 C 29.3756,2 30,2.6244 30,3.4 V 16 H 16 Z"
     id="path23380" />
  <path
     style="fill:#21d789"
     d="M 16,30 H 3.4 C 2.6244,30 2,29.3756 2,28.6 V 16 h 14 z"
     id="path23382" />
  <path
     style="fill:#2086e7"
     d="M 16,30 H 28.6 C 29.3756,30 30,29.3756 30,28.6 V 16 H 16 Z"
     id="path23384" />
  <rect
     style="fill:#3f3f3f"
     width="20"
     height="20"
     x="6"
     y="6"
     id="rect23388" />
  <path
     style="fill:none;stroke:#ffffff;stroke-linecap:round"
     d="M 7.5071212,22.49995 H 15.507121"
     id="path23392" />
  <path
     style="fill:none;stroke:#ffffff;stroke-width:0.99999994;stroke-linecap:round;stroke-linejoin:round"
     d="M 12.504,16.492879 V 8.49288 m -4.9997073,0 2.4957073,4 2.504,-4 M 7.5042927,16.492879 V 8.49288"
     id="path23396" />
  <path
     style="fill:none;stroke:#ffffff;stroke-width:0.99999994;stroke-linecap:round;stroke-linejoin:bevel"
     d="m 14.507074,12.525957 c 0,0 4.000002,0.4645 4.000002,-2.000002 0,-2.464498 -4.000002,-1.9999978 -4.000002,-1.9999978 m 9.8e-5,8.0001008 V 8.5260555"
     id="path23400" />
  <path
     style="fill:none;stroke:#ffffff;stroke-width:0.99999994;stroke-linecap:round;stroke-linejoin:round"
     d="m 20.503232,15.499518 c 0,0 0.504385,1.000962 2.000001,1.000482 1.495612,-4.84e-4 1.999998,-1.000482 1.999998,-2.000481 0,-4.214389 -3.999999,0.211162 -3.988018,-3.990705 -0.01209,-1.0092961 0.471866,-2.0092953 1.98802,-2.0092953 1.51615,0 1.999884,0.9999992 1.999884,0.9999992"
     id="path23404" />
</svg>
