<?xml version="1.0" encoding="UTF-8" standalone="no"?>
<svg
   xmlns:dc="http://purl.org/dc/elements/1.1/"
   xmlns:cc="http://creativecommons.org/ns#"
   xmlns:rdf="http://www.w3.org/1999/02/22-rdf-syntax-ns#"
   xmlns:svg="http://www.w3.org/2000/svg"
   xmlns="http://www.w3.org/2000/svg"
   xmlns:sodipodi="http://sodipodi.sourceforge.net/DTD/sodipodi-0.dtd"
   xmlns:inkscape="http://www.inkscape.org/namespaces/inkscape"
   inkscape:version="1.0.1 (3bc2e813f5, 2020-09-07)"
   sodipodi:docname="ms-excel.svg"
   id="svg22"
   version="1.1"
   height="32"
   width="32">
  <metadata
     id="metadata28">
    <rdf:RDF>
      <cc:Work
         rdf:about="">
        <dc:format>image/svg+xml</dc:format>
        <dc:type
           rdf:resource="http://purl.org/dc/dcmitype/StillImage" />
      </cc:Work>
    </rdf:RDF>
  </metadata>
  <defs
     id="defs26">
    <filter
       inkscape:collect="always"
       style="color-interpolation-filters:sRGB"
       id="filter60517"
       x="-0.075"
       width="1.15"
       y="-0.075"
       height="1.15">
      <feGaussianBlur
         inkscape:collect="always"
         stdDeviation="0.5"
         id="feGaussianBlur60519" />
    </filter>
    <filter
       inkscape:collect="always"
       style="color-interpolation-filters:sRGB"
       id="filter60536"
       x="-0.08125"
       width="1.1625"
       y="-0.069642857"
       height="1.1392857">
      <feGaussianBlur
         inkscape:collect="always"
         stdDeviation="0.8125"
         id="feGaussianBlur60538" />
    </filter>
  </defs>
  <sodipodi:namedview
     inkscape:current-layer="svg22"
     inkscape:window-maximized="1"
     inkscape:window-y="0"
     inkscape:window-x="0"
     inkscape:cy="8.9990417"
     inkscape:cx="-4.1351696"
     inkscape:zoom="11.90625"
     showgrid="false"
     id="namedview24"
     inkscape:window-height="1000"
     inkscape:window-width="1920"
     inkscape:pageshadow="2"
     inkscape:pageopacity="0"
     guidetolerance="10"
     gridtolerance="10"
     objecttolerance="10"
     borderopacity="1"
     bordercolor="#666666"
     pagecolor="#ffffff"
     inkscape:document-rotation="0" />
  <rect
     id="rect18-6"
     ry="2.45"
     rx="2.0999999"
     y="2"
     x="7"
     height="28"
     width="24"
     style="fill:#000000;fill-opacity:1;stroke-width:1.62018;filter:url(#filter60536);opacity:0.5" />
  <path
     id="path4"
     d="M 31,23 V 28.6 C 31,29.376 30.376,30 29.6,30 H 8.4 C 7.624,30 7,29.376 7,28.6 V 15 H 18 L 19,16 Z"
     style="fill:#185c37" />
  <rect
     style="fill:#030806;fill-opacity:1;opacity:0.5;filter:url(#filter60517)"
     width="16"
     height="16"
     x="0.99999958"
     y="8"
     rx="1.4"
     ry="1.4"
     id="rect18-3" />
  <path
     id="path6"
     d="M 8.4,2 H 19 L 31,9 V 17 H 20 L 19,16 7,9 V 3.4 C 7,2.6244 7.624,2 8.4,2 Z"
     style="fill:#21a366" />
  <path
     id="path8"
     d="M 19,2 H 29.6 C 30.376,2 31,2.6244 31,3.4 V 9 H 19 Z"
     style="fill:#33c481" />
  <path
     id="path10"
     d="M 19,16 H 31 V 23 H 19 Z M 7,9 H 19 V 16 H 7 Z"
     style="fill:#107c41" />
  <rect
     id="rect18"
     ry="1.4"
     rx="1.4"
     y="8"
     x="1"
     height="16"
     width="16"
     style="fill:#0e6f3a" />
  <path
     id="path20"
     d="M 4.5335,21 7.7692,15.986 4.8054,11 H 7.1904 L 9.136,14.863 11.2,11 H 13.39 L 10.349,15.958 13.467,21 H 11.137 L 9.0174,17.032 6.8766,21 Z"
     style="fill:#ffffff" />
</svg>
