<?xml version="1.0" encoding="UTF-8" standalone="no"?>
<svg
   xmlns:dc="http://purl.org/dc/elements/1.1/"
   xmlns:cc="http://creativecommons.org/ns#"
   xmlns:rdf="http://www.w3.org/1999/02/22-rdf-syntax-ns#"
   xmlns:svg="http://www.w3.org/2000/svg"
   xmlns="http://www.w3.org/2000/svg"
   xmlns:sodipodi="http://sodipodi.sourceforge.net/DTD/sodipodi-0.dtd"
   xmlns:inkscape="http://www.inkscape.org/namespaces/inkscape"
   inkscape:version="1.0.1 (3bc2e813f5, 2020-09-07)"
   sodipodi:docname="ms-outlook.svg"
   id="svg42"
   version="1.1"
   height="32"
   width="32">
  <metadata
     id="metadata48">
    <rdf:RDF>
      <cc:Work
         rdf:about="">
        <dc:format>image/svg+xml</dc:format>
        <dc:type
           rdf:resource="http://purl.org/dc/dcmitype/StillImage" />
      </cc:Work>
    </rdf:RDF>
  </metadata>
  <defs
     id="defs46">
    <filter
       inkscape:collect="always"
       style="color-interpolation-filters:sRGB"
       id="filter60477"
       x="-0.075000352"
       width="1.1500007"
       y="-0.074999648"
       height="1.1499993">
      <feGaussianBlur
         inkscape:collect="always"
         stdDeviation="0.50000234"
         id="feGaussianBlur60479" />
    </filter>
    <filter
       inkscape:collect="always"
       style="color-interpolation-filters:sRGB"
       id="filter60481"
       x="-0.059375"
       width="1.11875"
       y="-0.10178572"
       height="1.2035714">
      <feGaussianBlur
         inkscape:collect="always"
         stdDeviation="0.59375006"
         id="feGaussianBlur60483" />
    </filter>
  </defs>
  <sodipodi:namedview
     inkscape:current-layer="svg42"
     inkscape:window-maximized="1"
     inkscape:window-y="0"
     inkscape:window-x="0"
     inkscape:cy="16"
     inkscape:cx="14.950131"
     inkscape:zoom="23.8125"
     showgrid="false"
     id="namedview44"
     inkscape:window-height="1000"
     inkscape:window-width="1920"
     inkscape:pageshadow="2"
     inkscape:pageopacity="0"
     guidetolerance="10"
     gridtolerance="10"
     objecttolerance="10"
     borderopacity="1"
     bordercolor="#666666"
     pagecolor="#ffffff"
     inkscape:document-rotation="0" />
  <path
     id="path2"
     d="m 32,16 a 0.6659995,0.66600001 0 0 1 -0.333984,0.576172 v 0.002 l -0.01172,0.0059 -0.0039,0.002 -10.837891,6.175781 a 1.4967189,1.49672 0 0 1 -1.460938,0.08984 l 0.0078,0.01172 -11.0097656,-6.273437 v -0.0098 h -0.00977 l -0.029297,-0.01953 A 0.65067951,0.65068002 0 0 1 8,16.017578 V 28.5 A 1.497999,1.4980001 0 0 0 9.5,30 h 21 a 1.5026388,1.50264 0 0 0 0.369141,-0.05078 0.63692952,0.63693001 0 0 0 0.18164,-0.05859 0.14176989,0.14177001 0 0 0 0.05859,-0.02148 1.0475192,1.04752 0 0 0 0.230469,-0.128907 c 0.02,-0.01 0.03102,-0.0093 0.04102,-0.0293 v 0.0039 A 1.4975589,1.49756 0 0 0 32,28.5 Z"
     style="opacity:0.5;filter:url(#filter60481)" />
  <path
     id="path4"
     d="M 28.595539,1.9999999 H 11.404 c -0.775436,4e-7 -1.404038,0.6286351 -1.404,1.40407 V 5 l 0.714286,13.800001 H 20 l 9.285714,-0.7 L 29.999608,5 V 3.4039999 c -2.7e-5,-0.7754234 -0.628644,-1.4040106 -1.404069,-1.404 z"
     style="fill:#0364b8" />
  <path
     id="path6"
     d="m 31.649902,17.405481 c 0.146509,-0.460415 0.263448,-0.929721 0.3501,-1.405051 -4.2e-5,-0.238013 -0.127113,-0.457908 -0.33331,-0.576789 v -4.81e-4 l -0.01282,-0.0073 -0.004,-0.0023 -10.837731,-6.1740601 c -0.04686,-0.03027 -0.09538,-0.057899 -0.14532,-0.08276 v -5.95e-5 c -0.420022,-0.2083329 -0.913287,-0.2083329 -1.333309,0 l -6e-5,5.95e-5 c -0.04993,0.024848 -0.09843,0.052478 -0.145271,0.08276 L 8.3503902,15.41364 l -0.00402,0.0023 -0.012748,0.0073 v 4.8e-4 c -0.2061859,0.118894 -0.3332524,0.338782 -0.3333099,0.576791 0.086657,0.475311 0.2035916,0.944599 0.3500901,1.404999 l 11.4917016,8.405 z"
     style="fill:#0a2767" />
  <path
     id="path8"
     d="m 10,5 h 7 v 6 h -7 z"
     style="fill:#0078d4" />
  <path
     id="path10"
     d="m 17,5 h 6 v 6 h -6 z"
     style="fill:#28a8ea" />
  <path
     id="path12"
     d="m 23,5 h 7 v 6 h -7 z"
     style="fill:#50d9ff" />
  <path
     id="path14"
     d="m 10,11 h 7 v 6 h -7 z"
     style="fill:#0364b8" />
  <path
     id="path16"
     d="m 17,11 h 6 v 6 h -6 z"
     style="fill:#0078d4" />
  <path
     id="path18"
     d="m 23,11 h 7 v 6 h -7 z"
     style="fill:#28a8ea" />
  <path
     id="path20"
     d="m 10,17.000001 h 7 v 6.700001 h -7 z"
     style="fill:#064a8c" />
  <path
     id="path22"
     d="m 17,17.000001 h 6 v 6.700001 h -6 z"
     style="fill:#0364b8" />
  <path
     id="path24"
     d="m 23,17.000001 h 7 v 6.700001 h -7 z"
     style="fill:#0078d4" />
  <path
     id="path28"
     d="m 31.666692,16.57678 v 4.9e-4 l -0.01325,0.0076 -0.0034,0.0019 -10.837991,6.1742 a 1.4967189,1.49672 0 0 1 -1.460449,0.09118 l 3.774678,5.06089 8.254044,1.797 -3.01e-4,0.0045 A 1.4975589,1.49756 0 0 0 31.999974,28.5 V 16.00006 a 0.6659995,0.66600001 0 0 1 -0.33331,0.57672 z"
     style="fill:#1490df" />
  <path
     id="path30"
     d="m 8.3500199,16.59 v -0.01 h -0.00999 l -0.03,-0.02 A 0.65067951,0.65068002 0 0 1 8.0000263,16 v 12.500001 a 1.497999,1.4980001 0 0 0 1.4999997,1.5 h 20.999981 a 1.5026388,1.50264 0 0 0 0.37,-0.05 0.63692952,0.63693001 0 0 0 0.18,-0.06 0.14176989,0.14177001 0 0 0 0.06,-0.02 1.0475192,1.04752 0 0 0 0.23,-0.13 c 0.02,-0.01 0.03,-0.01 0.03999,-0.03 z"
     style="fill:#28a8ea" />
  <path
     id="path32"
     d="M 2.3333426,8 H 15.666667 A 1.3333324,1.3333324 0 0 1 17,9.333333 V 22.666797 A 1.3333425,1.3333425 0 0 1 15.666657,24.00015 H 2.3333324 A 1.3333324,1.3333324 0 0 1 1,22.666807 V 9.333343 A 1.3333425,1.3333425 0 0 1 2.3333426,8 Z"
     style="opacity:0.5;filter:url(#filter60477)" />
  <path
     id="path36"
     d="M 2.3333426,7.9999252 H 15.666667 A 1.3333324,1.3333324 0 0 1 17,9.3332584 V 22.666722 a 1.3333425,1.3333425 0 0 1 -1.333343,1.333353 H 2.3333324 A 1.3333324,1.3333324 0 0 1 1,22.666732 V 9.3332678 A 1.3333425,1.3333425 0 0 1 2.3333426,7.9999252 Z"
     style="fill:#0087f0" />
  <path
     id="path38"
     d="m 4.5940702,13.469215 a 4.4569486,4.1800045 0 0 1 1.750112,-1.813286 5.2923747,4.9635191 0 0 1 2.781502,-0.653878 4.9211346,4.6153471 0 0 1 2.5730668,0.62015 4.4117974,4.1376588 0 0 1 1.703394,1.732413 5.9657421,5.5950453 0 0 1 0.596549,2.548027 6.2902215,5.8993621 0 0 1 -0.614521,2.665988 4.5183228,4.237565 0 0 1 -1.753724,1.793021 5.1154044,4.7975453 0 0 1 -2.6700628,0.637014 5.0402269,4.7270392 0 0 1 -2.630561,-0.626897 4.4812511,4.2027969 0 0 1 -1.724969,-1.73576 5.8186063,5.4570519 0 0 1 -0.603742,-2.517689 6.4542199,6.0531701 0 0 1 0.592956,-2.649103 z m 1.865111,4.256818 a 2.8952547,2.7153504 0 0 0 0.984661,1.193117 2.5703171,2.4106036 0 0 0 1.538085,0.434782 2.6999084,2.5321425 0 0 0 1.6423178,-0.448288 2.7743504,2.6019589 0 0 0 0.955916,-1.196494 4.9304932,4.6241241 0 0 0 0.305464,-1.664976 5.3963099,5.060996 0 0 0 -0.287494,-1.68521 2.8445501,2.6677965 0 0 0 -0.923576,-1.24031 2.5446076,2.3864917 0 0 0 -1.6279268,-0.47184 2.6572726,2.492156 0 0 0 -1.574027,0.438152 2.9216142,2.740072 0 0 0 -1.006204,1.203232 5.0905158,4.7742032 0 0 0 -0.0073,3.437835 z"
     style="fill:#ffffff" />
</svg>
