<?xml version="1.0" encoding="UTF-8" standalone="no"?>
<svg
   xmlns:dc="http://purl.org/dc/elements/1.1/"
   xmlns:cc="http://creativecommons.org/ns#"
   xmlns:rdf="http://www.w3.org/1999/02/22-rdf-syntax-ns#"
   xmlns:svg="http://www.w3.org/2000/svg"
   xmlns="http://www.w3.org/2000/svg"
   xmlns:sodipodi="http://sodipodi.sourceforge.net/DTD/sodipodi-0.dtd"
   xmlns:inkscape="http://www.inkscape.org/namespaces/inkscape"
   inkscape:version="1.0.1 (3bc2e813f5, 2020-09-07)"
   sodipodi:docname="ms-onedrive.svg"
   id="svg18"
   version="1.1"
   height="32"
   width="32">
  <metadata
     id="metadata24">
    <rdf:RDF>
      <cc:Work
         rdf:about="">
        <dc:format>image/svg+xml</dc:format>
        <dc:type
           rdf:resource="http://purl.org/dc/dcmitype/StillImage" />
      </cc:Work>
    </rdf:RDF>
  </metadata>
  <defs
     id="defs22">
    <filter
       inkscape:collect="always"
       style="color-interpolation-filters:sRGB"
       id="filter60497"
       x="-0.06125"
       width="1.1225"
       y="-0.096710526"
       height="1.1934211">
      <feGaussianBlur
         inkscape:collect="always"
         stdDeviation="0.765625"
         id="feGaussianBlur60499" />
    </filter>
  </defs>
  <sodipodi:namedview
     inkscape:current-layer="svg18"
     inkscape:window-maximized="1"
     inkscape:window-y="0"
     inkscape:window-x="0"
     inkscape:cy="16"
     inkscape:cx="14.950131"
     inkscape:zoom="23.8125"
     showgrid="false"
     id="namedview20"
     inkscape:window-height="1000"
     inkscape:window-width="1920"
     inkscape:pageshadow="2"
     inkscape:pageopacity="0"
     guidetolerance="10"
     gridtolerance="10"
     objecttolerance="10"
     borderopacity="1"
     bordercolor="#666666"
     pagecolor="#ffffff"
     inkscape:document-rotation="0" />
  <path
     id="path2"
     d="M 16,5.8995003 A 9.5,9.5 0 0 0 8.2539062,9.913173 7.5,7.5 0 0 0 1.9160156,13.823329 l -0.013672,0.0039 C 1.3264549,14.888947 1,16.106774 1,17.399501 c 7.787e-4,1.640496 0.5359659,3.163139 1.4394531,4.404297 0.2275995,0.312663 0.4794061,0.605095 0.7519531,0.878906 0.00458,0.0046 0.00908,0.0091 0.013672,0.01367 0.2733844,0.273244 0.5655865,0.527037 0.8789063,0.755859 0.015169,0.01111 0.031619,0.02025 0.046875,0.03125 0.1859748,0.133697 0.3777482,0.260328 0.5761718,0.376954 0.044166,0.02603 0.090012,0.04907 0.1347657,0.07422 0.168424,0.09438 0.3392842,0.184119 0.515625,0.265625 0.066637,0.03089 0.1334576,0.06086 0.2011719,0.08984 0.1707327,0.07287 0.3443019,0.138849 0.5214843,0.199219 0.065767,0.02247 0.1306519,0.04572 0.1972657,0.06641 0.1872116,0.05799 0.378822,0.104917 0.5722656,0.148438 0.064087,0.01445 0.1266704,0.03211 0.1914062,0.04492 0.2547677,0.05032 0.513468,0.09115 0.7773438,0.115235 v 0.03516 H 16 24.863281 25 c 3.313709,0 6,-2.686291 6,-6 0,-3.257656 -2.597774,-5.903424 -5.833984,-5.992188 A 9.5,9.5 0 0 0 16,5.8995003 Z"
     style="opacity:0.5;filter:url(#filter60497)" />
  <circle
     id="circle4"
     r="9.5"
     cy="15.5"
     cx="16"
     style="fill:#056ab6" />
  <path
     id="path8"
     d="M 25 13 C 24.151055 13.04206 23.41427 13.199479 22.720703 13.453125 L 22.71875 13.455078 C 20.496368 14.381851 18.187758 15.345983 16.181641 16.183594 L 2.4394531 21.904297 C 3.6709537 23.59606 5.5915363 24.761564 7.8183594 24.964844 L 7.8183594 25 L 24.863281 25 L 25 25 C 28.313709 25 31 22.313709 31 19 C 31 15.686291 28.313709 13 25 13 z"
     style="fill:#138fe6" />
  <path
     id="path10"
     d="m 8.5,10 a 7.5,7.5 0 0 0 -6.5838068,3.924449 l -0.013317,0.004 C 1.3269874,14.990161 1,16.207273 1,17.5 c 0.00184,3.876578 2.9576557,7.112961 6.8181818,7.465377 V 25 H 8.5 24.863636 c 2.268146,-0.0016 4.350418,-1.254279 5.414595,-3.25728 l -10.522905,-6.272194 -7.558593,-4.505061 -0.02397,0.0067 A 7.5,7.5 0 0 0 8.5,10 Z"
     style="fill:#1581d9" />
  <path
     id="path12"
     d="M 18.986328 15.011719 C 18.044803 15.404789 17.042481 15.824168 16.181641 16.183594 L 2.4394531 21.904297 C 2.898273 22.534597 3.4536629 23.091079 4.0839844 23.552734 C 4.0991532 23.563844 4.115603 23.572986 4.1308594 23.583984 C 4.316783 23.718022 4.5086411 23.844006 4.7070312 23.960938 C 4.7512424 23.986923 4.7969987 24.010052 4.8417969 24.035156 C 5.0097958 24.129563 5.1815122 24.219227 5.3574219 24.300781 C 5.4240188 24.331563 5.4909267 24.361745 5.5585938 24.390625 C 5.7292298 24.463663 5.9029538 24.529338 6.0800781 24.589844 C 6.1458665 24.612259 6.2107153 24.635612 6.2773438 24.65625 C 6.4643436 24.714314 6.6563274 24.761113 6.8496094 24.804688 C 6.9136364 24.819092 6.9763489 24.836837 7.0410156 24.849609 C 7.2955801 24.899972 7.5545632 24.940763 7.8183594 24.964844 L 7.8183594 25 L 8.5 25 L 24.863281 25 C 27.131427 24.9984 29.213167 23.745188 30.277344 21.742188 L 19.755859 15.470703 L 18.986328 15.011719 z"
     style="fill:#38afec" />
</svg>
