<?xml version="1.0" encoding="UTF-8" standalone="no"?>
<svg
   xmlns:dc="http://purl.org/dc/elements/1.1/"
   xmlns:cc="http://creativecommons.org/ns#"
   xmlns:rdf="http://www.w3.org/1999/02/22-rdf-syntax-ns#"
   xmlns:svg="http://www.w3.org/2000/svg"
   xmlns="http://www.w3.org/2000/svg"
   xmlns:sodipodi="http://sodipodi.sourceforge.net/DTD/sodipodi-0.dtd"
   xmlns:inkscape="http://www.inkscape.org/namespaces/inkscape"
   width="32"
   height="32"
   version="1.1"
   id="svg26"
   sodipodi:docname="ms-onenote.svg"
   inkscape:version="1.0.1 (3bc2e813f5, 2020-09-07)">
  <metadata
     id="metadata32">
    <rdf:RDF>
      <cc:Work
         rdf:about="">
        <dc:format>image/svg+xml</dc:format>
        <dc:type
           rdf:resource="http://purl.org/dc/dcmitype/StillImage" />
      </cc:Work>
    </rdf:RDF>
  </metadata>
  <defs
     id="defs30">
    <filter
       inkscape:collect="always"
       style="color-interpolation-filters:sRGB"
       id="filter60485"
       x="-0.08125"
       width="1.1625"
       y="-0.069642857"
       height="1.1392857">
      <feGaussianBlur
         inkscape:collect="always"
         stdDeviation="0.81250001"
         id="feGaussianBlur60487" />
    </filter>
    <filter
       inkscape:collect="always"
       style="color-interpolation-filters:sRGB"
       id="filter60489"
       x="-0.075"
       width="1.15"
       y="-0.075"
       height="1.15">
      <feGaussianBlur
         inkscape:collect="always"
         stdDeviation="0.5"
         id="feGaussianBlur60491" />
    </filter>
  </defs>
  <sodipodi:namedview
     inkscape:document-rotation="0"
     pagecolor="#ffffff"
     bordercolor="#666666"
     borderopacity="1"
     objecttolerance="10"
     gridtolerance="10"
     guidetolerance="10"
     inkscape:pageopacity="0"
     inkscape:pageshadow="2"
     inkscape:window-width="1920"
     inkscape:window-height="1000"
     id="namedview28"
     showgrid="false"
     inkscape:zoom="23.8125"
     inkscape:cx="13.900262"
     inkscape:cy="16"
     inkscape:window-x="0"
     inkscape:window-y="0"
     inkscape:window-maximized="1"
     inkscape:current-layer="svg26" />
  <path
     style="opacity:0.5;filter:url(#filter60485)"
     d="M 8.3339844,1.9999998 C 7.5976214,1.9999996 7,2.5976173 7,3.3339842 V 28.666016 C 6.9999838,29.402427 7.5975769,30 8.3339844,30 H 24 24.203125 29.666016 A 1.3333232,1.33333 0 0 0 31,28.666016 V 23 H 29.769531 L 31,9.199219 V 3.3339842 C 31,2.5976176 30.402379,2 29.666016,1.9999998 Z"
     id="path2" />
  <path
     style="fill:#ca64ea"
     d="M 8.3333038,2 H 29.666567 c 0.736363,2e-7 1.333302,0.5969434 1.333302,1.33331 V 9.1988523 L 29.430117,26.808698 c 1.6e-5,0.736378 -0.66973,1.016754 -1.333303,1.333339 L 24.202465,30 H 8.3333631 C 7.5969556,30 6.9999838,29.403011 7,28.6666 V 3.33331 C 7,2.5969431 7.5969408,1.9999998 8.3333038,2 Z"
     id="path4" />
  <path
     style="fill:#ae4bd5"
     d="m 24.000035,9 v 7 L 27.500018,19.195 31,16 V 9 Z"
     id="path6" />
  <path
     style="fill:#9332bf"
     d="m 24.000035,16 v 7 L 27.500018,26.395 31,23 v -7 z"
     id="path8" />
  <path
     style="fill:#7719aa"
     d="m 23.999885,23 h 6.999964 v 5.66667 A 1.3333232,1.33333 0 0 1 29.666526,30 h -5.666641 z"
     id="path10" />
  <path
     id="path14-3"
     d="M 2.3333302,8.0000001 H 15.666689 A 1.33334,1.33334 0 0 1 17,9.3333398 V 22.666661 A 1.33333,1.33333 0 0 1 15.6667,24 H 2.3333404 A 1.33334,1.33334 0 0 1 0.99999998,22.666661 V 9.3333311 A 1.33333,1.33333 0 0 1 2.3333302,8.0000001 Z"
     style="fill:#000000;fill-opacity:1;opacity:0.5;filter:url(#filter60489)" />
  <path
     style="fill:#7719aa"
     d="M 2.3333302,8.0000001 H 15.666689 A 1.33334,1.33334 0 0 1 17,9.3333398 V 22.666661 A 1.33333,1.33333 0 0 1 15.6667,24 H 2.3333404 A 1.33334,1.33334 0 0 1 1,22.666661 V 9.3333311 a 1.33333,1.33333 0 0 1 1.3333302,-1.333331 z"
     id="path14" />
  <path
     style="fill:#ffffff"
     d="m 5.0000041,11 h 2.130287 l 3.5243769,6.73163 c 0.19057,0.29036 0.333495,0.523947 0.428777,0.70076 h 0.02722 c -0.05137,-0.440251 -0.121251,-0.88356 -0.11066,-1.326669 V 11 h 1.999999 V 21 H 10.872431 L 7.3916511,14.37073 c -0.146762,-0.218759 -0.276458,-0.448484 -0.387946,-0.687141 h -0.03402 c 0.0441,0.483993 0.03815,0.969998 0.03031,1.455932 V 21 h -1.999999 z"
     id="path16" />
</svg>
