<?xml version="1.0" encoding="UTF-8" standalone="no"?>
<svg
   xmlns:dc="http://purl.org/dc/elements/1.1/"
   xmlns:cc="http://creativecommons.org/ns#"
   xmlns:rdf="http://www.w3.org/1999/02/22-rdf-syntax-ns#"
   xmlns:svg="http://www.w3.org/2000/svg"
   xmlns="http://www.w3.org/2000/svg"
   xmlns:sodipodi="http://sodipodi.sourceforge.net/DTD/sodipodi-0.dtd"
   xmlns:inkscape="http://www.inkscape.org/namespaces/inkscape"
   inkscape:version="1.0.1 (3bc2e813f5, 2020-09-07)"
   sodipodi:docname="ms-powerpoint.svg"
   id="svg20"
   version="1.1"
   height="32"
   width="32">
  <metadata
     id="metadata26">
    <rdf:RDF>
      <cc:Work
         rdf:about="">
        <dc:format>image/svg+xml</dc:format>
        <dc:type
           rdf:resource="http://purl.org/dc/dcmitype/StillImage" />
      </cc:Work>
    </rdf:RDF>
  </metadata>
  <defs
     id="defs24">
    <filter
       height="1.15"
       y="-0.074999995"
       width="1.15"
       x="-0.075000005"
       id="filter840"
       style="color-interpolation-filters:sRGB"
       inkscape:collect="always">
      <feGaussianBlur
         id="feGaussianBlur842"
         stdDeviation="0.50000003"
         inkscape:collect="always" />
    </filter>
    <filter
       inkscape:collect="always"
       style="color-interpolation-filters:sRGB"
       id="filter60473"
       x="-0.075"
       width="1.15"
       y="-0.075"
       height="1.15">
      <feGaussianBlur
         inkscape:collect="always"
         stdDeviation="0.875"
         id="feGaussianBlur60475" />
    </filter>
  </defs>
  <sodipodi:namedview
     inkscape:current-layer="svg20"
     inkscape:window-maximized="1"
     inkscape:window-y="0"
     inkscape:window-x="0"
     inkscape:cy="16"
     inkscape:cx="12.850393"
     inkscape:zoom="23.8125"
     showgrid="false"
     id="namedview22"
     inkscape:window-height="1000"
     inkscape:window-width="1920"
     inkscape:pageshadow="2"
     inkscape:pageopacity="0"
     guidetolerance="10"
     gridtolerance="10"
     objecttolerance="10"
     borderopacity="1"
     bordercolor="#666666"
     pagecolor="#ffffff"
     inkscape:document-rotation="0" />
  <circle
     r="14"
     cy="16"
     cx="17"
     id="path855"
     style="opacity:0.5;fill:#000000;stroke-width:1.53378;filter:url(#filter60473)" />
  <path
     id="path4"
     d="M 17.00001,1.9999999 A 14.04114,14.04114 0 0 0 3.00001,16 l 17.737,3.737 z"
     style="fill:#ed6c47" />
  <path
     id="path6"
     d="M 17.00001,1.9999999 A 14.04114,14.04114 0 0 1 31.00001,16 l -7,4.75791 -7,-4.75791 z"
     style="fill:#ff8f6b" />
  <path
     id="path8"
     d="M 17,30 A 14.04114,14.04114 0 0 0 31,16 H 3 a 14.04115,14.04115 0 0 0 14,14 z"
     style="fill:#d35230" />
  <path
     id="path10"
     d="M 1.3333302,8 H 14.666691 A 1.3333401,1.3333401 0 0 1 16,9.33334 v 13.333322 a 1.3333301,1.3333301 0 0 1 -1.333298,1.33334 H 1.3333404 A 1.3333401,1.3333401 0 0 1 0,22.666662 V 9.333331 A 1.3333301,1.3333301 0 0 1 1.3333302,8 Z"
     style="opacity:0.5;mix-blend-mode:normal;filter:url(#filter840)" />
  <path
     id="path16"
     d="M 1.3333302,7.9999994 H 14.666691 A 1.3333401,1.3333401 0 0 1 16,9.3333391 V 22.666661 a 1.3333301,1.3333301 0 0 1 -1.333298,1.33334 H 1.3333404 A 1.3333401,1.3333401 0 0 1 0,22.666661 V 9.3333297 A 1.3333301,1.3333301 0 0 1 1.3333302,7.9999994 Z"
     style="fill:#c43e1c" />
  <path
     id="path18"
     d="M 5.0000004,11.009766 V 21 h 2 v -2.970703 h 1.015625 c 0.722586,0.01469 1.4381346,-0.07805 2.0937496,-0.371094 0.573653,-0.257447 1.058268,-0.671028 1.394531,-1.1875 0.330112,-0.466851 0.50153,-1.462574 0.490235,-2.027344 0.05878,-0.881867 -0.305853,-2.042458 -0.990235,-2.630859 -0.823462,-0.585529 -1.838201,-0.86893 -2.8593746,-0.802734 z m 2,1.990234 h 1.060547 c 1.2898136,0 1.9355466,0.52916 1.9355466,1.587891 0.03541,0.391319 -0.158422,0.769799 -0.503906,0.982421 -0.427033,0.311449 -0.9584716,0.46167 -1.4941406,0.423829 h -0.998047 z"
     style="fill:#f9f7f7" />
</svg>
