<?xml version="1.0" encoding="UTF-8" standalone="no"?>
<svg
   xmlns:dc="http://purl.org/dc/elements/1.1/"
   xmlns:cc="http://creativecommons.org/ns#"
   xmlns:rdf="http://www.w3.org/1999/02/22-rdf-syntax-ns#"
   xmlns:svg="http://www.w3.org/2000/svg"
   xmlns="http://www.w3.org/2000/svg"
   xmlns:xlink="http://www.w3.org/1999/xlink"
   xmlns:sodipodi="http://sodipodi.sourceforge.net/DTD/sodipodi-0.dtd"
   xmlns:inkscape="http://www.inkscape.org/namespaces/inkscape"
   sodipodi:docname="applications-multimedia.svg"
   inkscape:version="1.0.1 (3bc2e813f5, 2020-09-07)"
   id="svg8"
   version="1.1"
   viewBox="0 0 8.4666665 8.4666669"
   height="32"
   width="32">
  <defs
     id="defs2">
    <linearGradient
       inkscape:collect="always"
       id="linearGradient858">
      <stop
         style="stop-color:#634a99;stop-opacity:1"
         offset="0"
         id="stop854" />
      <stop
         style="stop-color:#cc81bb;stop-opacity:1"
         offset="1"
         id="stop856" />
    </linearGradient>
    <filter
       inkscape:collect="always"
       style="color-interpolation-filters:sRGB"
       id="filter1158"
       x="-0.075"
       width="1.15"
       y="-0.075"
       height="1.15">
      <feGaussianBlur
         inkscape:collect="always"
         stdDeviation="0.23151042"
         id="feGaussianBlur1160" />
    </filter>
    <linearGradient
       inkscape:collect="always"
       xlink:href="#linearGradient858"
       id="linearGradient860"
       x1="-3.4895196"
       y1="34.637814"
       x2="28.666807"
       y2="9.7956247"
       gradientUnits="userSpaceOnUse" />
  </defs>
  <sodipodi:namedview
     inkscape:window-maximized="1"
     inkscape:window-y="0"
     inkscape:window-x="0"
     inkscape:window-height="1001"
     inkscape:window-width="1920"
     units="px"
     showgrid="false"
     inkscape:document-rotation="0"
     inkscape:current-layer="layer1"
     inkscape:document-units="px"
     inkscape:cy="14.771022"
     inkscape:cx="12.877721"
     inkscape:zoom="17.919228"
     inkscape:pageshadow="2"
     inkscape:pageopacity="0.0"
     borderopacity="1.0"
     bordercolor="#666666"
     pagecolor="#ffffff"
     id="base" />
  <metadata
     id="metadata5">
    <rdf:RDF>
      <cc:Work
         rdf:about="">
        <dc:format>image/svg+xml</dc:format>
        <dc:type
           rdf:resource="http://purl.org/dc/dcmitype/StillImage" />
        <dc:title />
      </cc:Work>
    </rdf:RDF>
  </metadata>
  <g
     id="layer1"
     inkscape:groupmode="layer"
     inkscape:label="Capa 1">
    <path
       id="rect849-0"
       style="fill:#000000;fill-opacity:1;stroke-width:0.129564;filter:url(#filter1158);opacity:0.5"
       d="m 1.4185181,0.5291667 c -0.49262004,0 -0.88935137,0.3967312 -0.88935137,0.8893514 v 0.6981486 4.9314819 c 0,0.4926201 0.39673133,0.8893514 0.88935137,0.8893514 H 7.0481486 C 7.5407686,7.9375 7.9375,7.5407687 7.9375,7.0481486 V 2.1166667 1.4185181 c 0,-0.4926202 -0.3967314,-0.8893514 -0.8893514,-0.8893514 z" />
    <path
       id="rect849"
       style="fill:url(#linearGradient860);stroke-width:0.489691;fill-opacity:1"
       d="M 30 8 L 2 8 L 2 26.638672 C 2 28.500543 3.4994566 30 5.3613281 30 L 26.638672 30 C 28.500543 30 30 28.500543 30 26.638672 L 30 8 z "
       transform="scale(0.26458333)" />
    <path
       id="path868"
       style="fill:#4d4d4d;stroke-width:0.489691;fill-opacity:1"
       d="M 2 5.3613281 L 2 8 L 30 8 L 30 5.3613281 C 30 3.4994566 28.500543 2 26.638672 2 L 5.3613281 2 C 3.4994566 2 2 3.4994566 2 5.3613281 z "
       transform="scale(0.26458333)" />
    <path
       id="path941"
       style="fill:#ffffff;fill-opacity:1;stroke-width:0.129564"
       d="m 5.8629495,0.52916665 0.7932333,0.79374995 -0.79375,0.79375 H 6.6107076 L 7.0303201,1.697054 7.4049743,1.3229166 7.0303201,0.94826245 6.6112243,0.52916665 Z" />
    <path
       id="path937"
       style="fill:#ffffff;fill-opacity:1;stroke-width:0.129564"
       d="M 3.4625793,0.52916665 4.2558127,1.3229166 3.4620626,2.1166666 H 4.2103374 L 4.6299499,1.697054 5.0046042,1.3229166 4.6299499,0.94826245 4.2108542,0.52916665 Z" />
    <path
       id="path931"
       style="fill:#ffffff;fill-opacity:1;stroke-width:0.129564"
       d="m 1.0942485,0.56120605 0.7611938,0.76171055 -0.79375,0.79375 H 1.8099671 L 2.2295797,1.697054 2.6042339,1.3229166 2.2295797,0.94826245 1.8104838,0.52916665 H 1.2544454 c -0.056884,0 -0.1063331,0.021923 -0.1601969,0.0320394 z" />
  </g>
</svg>
