<?xml version="1.0" encoding="UTF-8" standalone="no"?>
<svg
   xmlns:dc="http://purl.org/dc/elements/1.1/"
   xmlns:cc="http://creativecommons.org/ns#"
   xmlns:rdf="http://www.w3.org/1999/02/22-rdf-syntax-ns#"
   xmlns:svg="http://www.w3.org/2000/svg"
   xmlns="http://www.w3.org/2000/svg"
   xmlns:xlink="http://www.w3.org/1999/xlink"
   xmlns:sodipodi="http://sodipodi.sourceforge.net/DTD/sodipodi-0.dtd"
   xmlns:inkscape="http://www.inkscape.org/namespaces/inkscape"
   inkscape:version="1.0.2 (e86c870879, 2021-01-15)"
   sodipodi:docname="octopi.svg"
   id="svg32"
   version="1"
   height="32"
   width="32">
  <metadata
     id="metadata38">
    <rdf:RDF>
      <cc:Work
         rdf:about="">
        <dc:format>image/svg+xml</dc:format>
        <dc:type
           rdf:resource="http://purl.org/dc/dcmitype/StillImage" />
      </cc:Work>
    </rdf:RDF>
  </metadata>
  <defs
     id="defs36">
    <linearGradient
       id="linearGradient879"
       inkscape:collect="always">
      <stop
         id="stop875"
         offset="0"
         style="stop-color:#3fc778;stop-opacity:1;" />
      <stop
         id="stop877"
         offset="1"
         style="stop-color:#26e074;stop-opacity:1" />
    </linearGradient>
    <linearGradient
       gradientTransform="matrix(1,0,0,0.93333238,1.2e-4,1.0666675)"
       gradientUnits="userSpaceOnUse"
       y2="0.94799888"
       x2="15.708451"
       y1="29"
       x1="15.99988"
       id="linearGradient881"
       xlink:href="#linearGradient879"
       inkscape:collect="always" />
    <filter
       height="1.1392857"
       y="-0.069642857"
       width="1.1625"
       x="-0.08125"
       id="filter931"
       style="color-interpolation-filters:sRGB"
       inkscape:collect="always">
      <feGaussianBlur
         id="feGaussianBlur933"
         stdDeviation="0.8125"
         inkscape:collect="always" />
    </filter>
  </defs>
  <sodipodi:namedview
     inkscape:current-layer="svg32"
     inkscape:window-maximized="1"
     inkscape:window-y="0"
     inkscape:window-x="0"
     inkscape:cy="16"
     inkscape:cx="13.948718"
     inkscape:zoom="24.375"
     showgrid="false"
     id="namedview34"
     inkscape:window-height="999"
     inkscape:window-width="1920"
     inkscape:pageshadow="2"
     inkscape:pageopacity="0"
     guidetolerance="10"
     gridtolerance="10"
     objecttolerance="10"
     borderopacity="1"
     bordercolor="#666666"
     pagecolor="#ffffff"
     inkscape:document-rotation="0" />
  <path
     fill="#3fc778"
     d="m 14.23088,1.9999999 c -5.6466,0 -10.193,4.4898887 -10.231,10.0799891 h -0.0041 v 16.053317 c 0,1.551198 1.6984,1.849678 3,1.866198 1.2016,0.01525 3,-0.315028 3,-1.866198 0,1.551198 1.7982,1.866198 3,1.866198 1.2018,0 2.9599,-0.566421 3,-1.866198 0,1.551198 1.7982,1.866198 3,1.866198 1.2018,0 2.9599,-0.566421 3,-1.866198 0,1.551198 1.7982,1.866198 3,1.866198 1.2018,0 3,-0.315028 3,-1.866198 V 12.079989 h -0.0041 c -0.038,-5.5901004 -4.585,-10.0799891 -10.231,-10.0799891 z"
     id="path2-1"
     style="opacity:0.5;mix-blend-mode:normal;fill:#000000;fill-opacity:1;stroke-width:0.966091;filter:url(#filter931)" />
  <path
     style="fill:url(#linearGradient881);fill-opacity:1;stroke-width:0.966091"
     id="path2"
     d="m 14.23512,1.9999999 c -5.6466,0 -10.193,4.4898887 -10.231,10.0799891 H 4 v 16.053317 c 0,1.551198 1.6984,1.849678 3,1.866198 1.2016,0.01525 3,-0.315028 3,-1.866198 0,1.551198 1.7982,1.866198 3,1.866198 1.2018,0 2.9599,-0.566421 3,-1.866198 0,1.551198 1.7982,1.866198 3,1.866198 1.2018,0 2.9599,-0.566421 3,-1.866198 0,1.551198 1.7982,1.866198 3,1.866198 1.2018,0 3,-0.315028 3,-1.866198 V 12.079989 H 27.9959 C 27.9579,6.4898886 23.4109,1.9999999 17.7649,1.9999999 Z"
     fill="#3fc778" />
  <rect
     fill="#ecf0f1"
     width="6"
     height="6"
     x="9"
     y="9"
     ry="3"
     id="rect10"
     style="fill:#ffffff;fill-opacity:1" />
  <rect
     fill="#494949"
     width="2"
     height="2"
     x="13"
     y="11"
     ry="1"
     id="rect12" />
  <rect
     fill="#ecf0f1"
     width="6"
     height="6"
     x="20"
     y="9"
     ry="3"
     id="rect22"
     style="fill:#ffffff;fill-opacity:1" />
  <rect
     fill="#494949"
     width="2"
     height="2"
     x="24"
     y="11"
     ry="1"
     id="rect24" />
</svg>
