<?xml version="1.0" encoding="UTF-8" standalone="no"?>
<svg
   xmlns:dc="http://purl.org/dc/elements/1.1/"
   xmlns:cc="http://creativecommons.org/ns#"
   xmlns:rdf="http://www.w3.org/1999/02/22-rdf-syntax-ns#"
   xmlns:svg="http://www.w3.org/2000/svg"
   xmlns="http://www.w3.org/2000/svg"
   xmlns:xlink="http://www.w3.org/1999/xlink"
   xmlns:sodipodi="http://sodipodi.sourceforge.net/DTD/sodipodi-0.dtd"
   xmlns:inkscape="http://www.inkscape.org/namespaces/inkscape"
   width="32"
   height="32"
   version="1.1"
   id="svg8"
   sodipodi:docname="org.gnome.Extensions.svg"
   inkscape:version="1.0.1 (3bc2e813f5, 2020-09-07)">
  <metadata
     id="metadata14">
    <rdf:RDF>
      <cc:Work
         rdf:about="">
        <dc:format>image/svg+xml</dc:format>
        <dc:type
           rdf:resource="http://purl.org/dc/dcmitype/StillImage" />
        <dc:title />
      </cc:Work>
    </rdf:RDF>
  </metadata>
  <defs
     id="defs12">
    <linearGradient
       inkscape:collect="always"
       id="linearGradient1289">
      <stop
         style="stop-color:#67b849;stop-opacity:1;"
         offset="0"
         id="stop1285" />
      <stop
         style="stop-color:#74d052;stop-opacity:1"
         offset="1"
         id="stop1287" />
    </linearGradient>
    <filter
       inkscape:collect="always"
       style="color-interpolation-filters:sRGB"
       id="filter1281"
       x="-0.075"
       width="1.15"
       y="-0.075"
       height="1.15">
      <feGaussianBlur
         inkscape:collect="always"
         stdDeviation="0.875"
         id="feGaussianBlur1283" />
    </filter>
    <linearGradient
       inkscape:collect="always"
       xlink:href="#linearGradient1289"
       id="linearGradient1291"
       x1="2.1230056"
       y1="29.977175"
       x2="28.985052"
       y2="2.8699741"
       gradientUnits="userSpaceOnUse" />
  </defs>
  <sodipodi:namedview
     inkscape:document-rotation="0"
     pagecolor="#ffffff"
     bordercolor="#666666"
     borderopacity="1"
     objecttolerance="10"
     gridtolerance="10"
     guidetolerance="10"
     inkscape:pageopacity="0"
     inkscape:pageshadow="2"
     inkscape:window-width="1920"
     inkscape:window-height="1000"
     id="namedview10"
     showgrid="false"
     inkscape:zoom="16.83798"
     inkscape:cx="13.756569"
     inkscape:cy="24.497002"
     inkscape:window-x="0"
     inkscape:window-y="0"
     inkscape:window-maximized="1"
     inkscape:current-layer="svg8"
     showguides="false" />
  <path
     id="path1260-0"
     style="opacity:0.5;fill:#000000;fill-opacity:1;stroke-width:0.77957;filter:url(#filter1281)"
     d="m 18,1.9999998 c -2.216,0 -4,1.784 -4,4 H 6 V 14 c -2.216,0 -4,1.784 -4,4 0,2.216 1.784,4 4,4 v 8 h 8.609375 C 14.518705,29.846634 14.382385,29.726324 14.3125,29.560547 14.110625,29.081672 14,28.554 14,28 c 0,-0.554 0.110625,-1.081672 0.3125,-1.560547 0.201875,-0.478875 0.495922,-0.908031 0.857422,-1.269531 0.3615,-0.3615 0.790656,-0.655547 1.269531,-0.857422 C 16.918328,24.110625 17.446,24 18,24 c 0.554,0 1.081672,0.110625 1.560547,0.3125 0.478875,0.201875 0.908031,0.495922 1.269531,0.857422 0.3615,0.3615 0.655547,0.790656 0.857422,1.269531 C 21.889375,26.918328 22,27.446 22,28 22,28.554 21.889375,29.081672 21.6875,29.560547 21.61762,29.726324 21.481295,29.846634 21.390625,30 H 30 v -8.609375 c -0.153366,0.09067 -0.273676,0.22699 -0.439453,0.296875 C 29.081672,21.889375 28.554,22 28,22 27.446,22 26.918328,21.889375 26.439453,21.6875 25.960578,21.485625 25.531422,21.191578 25.169922,20.830078 24.808422,20.468578 24.514375,20.039422 24.3125,19.560547 24.110625,19.081672 24,18.554 24,18 c 0,-0.554 0.110625,-1.081672 0.3125,-1.560547 0.201875,-0.478875 0.495922,-0.908031 0.857422,-1.269531 0.3615,-0.3615 0.790656,-0.655547 1.269531,-0.857422 C 26.918328,14.110625 27.446,14 28,14 c 0.554,0 1.081672,0.110625 1.560547,0.3125 0.165777,0.06988 0.286087,0.206205 0.439453,0.296875 V 5.9999998 h -8 c 0,-2.216 -1.784,-4 -4,-4 z" />
  <path
     id="path1260"
     style="opacity:1;fill:url(#linearGradient1291);fill-opacity:1;stroke-width:0.77957"
     d="M 18,2 C 15.784,2 14,3.784 14,6 H 6 v 8 c -2.216,0 -4,1.784 -4,4 0,2.216 1.784,4 4,4 v 8 h 8.609375 C 14.518705,29.846634 14.382385,29.726324 14.3125,29.560547 14.110625,29.081672 14,28.554 14,28 c 0,-0.554 0.110625,-1.081672 0.3125,-1.560547 0.201875,-0.478875 0.495922,-0.908031 0.857422,-1.269531 0.3615,-0.3615 0.790656,-0.655547 1.269531,-0.857422 C 16.918328,24.110625 17.446,24 18,24 c 0.554,0 1.081672,0.110625 1.560547,0.3125 0.478875,0.201875 0.908031,0.495922 1.269531,0.857422 0.3615,0.3615 0.655547,0.790656 0.857422,1.269531 C 21.889375,26.918328 22,27.446 22,28 22,28.554 21.889375,29.081672 21.6875,29.560547 21.617615,29.726324 21.481295,29.846634 21.390625,30 H 30 v -8.609375 c -0.153366,0.09067 -0.273676,0.22699 -0.439453,0.296875 C 29.081672,21.889375 28.554,22 28,22 27.446,22 26.918328,21.889375 26.439453,21.6875 25.960578,21.485625 25.531422,21.191578 25.169922,20.830078 24.808422,20.468578 24.514375,20.039422 24.3125,19.560547 24.110625,19.081672 24,18.554 24,18 c 0,-0.554 0.110625,-1.081672 0.3125,-1.560547 0.201875,-0.478875 0.495922,-0.908031 0.857422,-1.269531 0.3615,-0.3615 0.790656,-0.655547 1.269531,-0.857422 C 26.918328,14.110625 27.446,14 28,14 c 0.554,0 1.081672,0.110625 1.560547,0.3125 0.165777,0.06988 0.286087,0.206205 0.439453,0.296875 V 6 H 22 C 22,3.784 20.216,2 18,2 Z" />
</svg>
