<?xml version="1.0" encoding="UTF-8" standalone="no"?>
<svg
   xmlns:dc="http://purl.org/dc/elements/1.1/"
   xmlns:cc="http://creativecommons.org/ns#"
   xmlns:rdf="http://www.w3.org/1999/02/22-rdf-syntax-ns#"
   xmlns:svg="http://www.w3.org/2000/svg"
   xmlns="http://www.w3.org/2000/svg"
   xmlns:xlink="http://www.w3.org/1999/xlink"
   xmlns:sodipodi="http://sodipodi.sourceforge.net/DTD/sodipodi-0.dtd"
   xmlns:inkscape="http://www.inkscape.org/namespaces/inkscape"
   inkscape:version="1.0.1 (3bc2e813f5, 2020-09-07)"
   sodipodi:docname="gparted.svg"
   id="svg32"
   version="1"
   height="32"
   width="32">
  <metadata
     id="metadata38">
    <rdf:RDF>
      <cc:Work
         rdf:about="">
        <dc:format>image/svg+xml</dc:format>
        <dc:type
           rdf:resource="http://purl.org/dc/dcmitype/StillImage" />
        <dc:title />
      </cc:Work>
    </rdf:RDF>
  </metadata>
  <defs
     id="defs36">
    <linearGradient
       inkscape:collect="always"
       id="linearGradient861">
      <stop
         style="stop-color:#f5f5f5;stop-opacity:1;"
         offset="0"
         id="stop857" />
      <stop
         style="stop-color:#ededed;stop-opacity:1"
         offset="1"
         id="stop859" />
    </linearGradient>
    <filter
       inkscape:collect="always"
       style="color-interpolation-filters:sRGB"
       id="filter853"
       x="-0.075"
       width="1.15"
       y="-0.075"
       height="1.15">
      <feGaussianBlur
         inkscape:collect="always"
         stdDeviation="0.875"
         id="feGaussianBlur855" />
    </filter>
    <linearGradient
       inkscape:collect="always"
       xlink:href="#linearGradient861"
       id="linearGradient863"
       x1="2"
       y1="16"
       x2="30"
       y2="16"
       gradientUnits="userSpaceOnUse"
       gradientTransform="translate(0,-32)" />
  </defs>
  <sodipodi:namedview
     inkscape:current-layer="svg32"
     inkscape:window-maximized="1"
     inkscape:window-y="0"
     inkscape:window-x="0"
     inkscape:cy="16"
     inkscape:cx="13.900262"
     inkscape:zoom="23.8125"
     showgrid="false"
     id="namedview34"
     inkscape:window-height="1000"
     inkscape:window-width="1920"
     inkscape:pageshadow="2"
     inkscape:pageopacity="0"
     guidetolerance="10"
     gridtolerance="10"
     objecttolerance="10"
     borderopacity="1"
     bordercolor="#666666"
     pagecolor="#ffffff"
     inkscape:document-rotation="0" />
  <rect
     style="opacity:0.5;fill:#000000;fill-opacity:1;stroke-width:0.481837;filter:url(#filter853)"
     id="rect836-3"
     width="28"
     height="28"
     x="2"
     y="2"
     rx="3.3149395"
     ry="3.3149395" />
  <rect
     style="opacity:1;fill:url(#linearGradient863);fill-opacity:1;stroke-width:0.481837"
     id="rect836"
     width="28"
     height="28"
     x="2"
     y="-30"
     rx="3.3149395"
     ry="3.3149395"
     transform="rotate(90)" />
  <path
     id="path8"
     d="M 6,16 A 10,10 0 0 0 16,26 V 19.913043 A 3.9130435,3.9130435 0 0 1 12.086957,16 Z m 19.969429,0 a 10,10 0 0 1 0.01698,0.361753 A 10,10 0 0 0 26,16 Z"
     style="fill:#797979;stroke-width:0.869567" />
  <path
     id="path12"
     d="M 8.8617528,9.0078125 C 7.0297708,10.874464 6.0032142,13.384558 6,16 h 6.086957 a 3.9130435,3.9130435 0 0 1 1.078464,-2.690217 z"
     style="fill:#ffc310;fill-opacity:1;stroke-width:0.869567" />
  <path
     id="path16"
     d="M 18.691916,18.837976 A 3.9130435,3.9130435 0 0 1 16,19.913043 V 26 c 2.678343,-0.0018 5.16594,-1.072396 6.992188,-2.861752 z"
     style="fill:#f43426;fill-opacity:1;stroke-width:0.869567" />
  <path
     id="path20"
     d="M 16,6 A 10,10 0 0 0 8.8617528,9.0078125 L 13.165421,13.309783 A 3.9130435,3.9130435 0 0 1 16,12.086957 3.9130435,3.9130435 0 0 1 19.913043,16 3.9130435,3.9130435 0 0 1 18.691916,18.837976 l 4.305366,4.303668 A 10,10 0 0 0 26,16 10,10 0 0 0 16,6 Z"
     style="fill:#22ad5b;fill-opacity:1;stroke-width:0.869567" />
</svg>
