<?xml version="1.0" encoding="UTF-8" standalone="no"?>
<svg
   xmlns:dc="http://purl.org/dc/elements/1.1/"
   xmlns:cc="http://creativecommons.org/ns#"
   xmlns:rdf="http://www.w3.org/1999/02/22-rdf-syntax-ns#"
   xmlns:svg="http://www.w3.org/2000/svg"
   xmlns="http://www.w3.org/2000/svg"
   xmlns:xlink="http://www.w3.org/1999/xlink"
   xmlns:sodipodi="http://sodipodi.sourceforge.net/DTD/sodipodi-0.dtd"
   xmlns:inkscape="http://www.inkscape.org/namespaces/inkscape"
   inkscape:version="1.0.1 (3bc2e813f5, 2020-09-07)"
   sodipodi:docname="pinta.svg"
   id="svg26"
   version="1"
   height="32"
   width="32">
  <metadata
     id="metadata32">
    <rdf:RDF>
      <cc:Work
         rdf:about="">
        <dc:format>image/svg+xml</dc:format>
        <dc:type
           rdf:resource="http://purl.org/dc/dcmitype/StillImage" />
        <dc:title />
      </cc:Work>
    </rdf:RDF>
  </metadata>
  <defs
     id="defs30">
    <linearGradient
       id="linearGradient845"
       inkscape:collect="always">
      <stop
         id="stop841"
         offset="0"
         style="stop-color:#2666a7;stop-opacity:1;" />
      <stop
         id="stop843"
         offset="1"
         style="stop-color:#428ad4;stop-opacity:1" />
    </linearGradient>
    <filter
       inkscape:collect="always"
       style="color-interpolation-filters:sRGB"
       id="filter955"
       x="-0.12904041"
       width="1.2580808"
       y="-0.092859061"
       height="1.1857181">
      <feGaussianBlur
         inkscape:collect="always"
         stdDeviation="0.69645858"
         id="feGaussianBlur957" />
    </filter>
    <linearGradient
       gradientUnits="userSpaceOnUse"
       y2="16"
       x2="30"
       y1="16"
       x1="2"
       id="linearGradient847"
       xlink:href="#linearGradient845"
       inkscape:collect="always" />
    <filter
       inkscape:collect="always"
       style="color-interpolation-filters:sRGB"
       id="filter60397"
       x="-0.075"
       width="1.15"
       y="-0.075"
       height="1.15">
      <feGaussianBlur
         inkscape:collect="always"
         stdDeviation="0.875"
         id="feGaussianBlur60399" />
    </filter>
  </defs>
  <sodipodi:namedview
     inkscape:current-layer="svg26"
     inkscape:window-maximized="1"
     inkscape:window-y="0"
     inkscape:window-x="0"
     inkscape:cy="9.585025"
     inkscape:cx="13.62595"
     inkscape:zoom="11.313709"
     showgrid="false"
     id="namedview28"
     inkscape:window-height="1000"
     inkscape:window-width="1920"
     inkscape:pageshadow="2"
     inkscape:pageopacity="0"
     guidetolerance="10"
     gridtolerance="10"
     objecttolerance="10"
     borderopacity="1"
     bordercolor="#666666"
     pagecolor="#ffffff"
     inkscape:document-rotation="0" />
  <circle
     style="opacity:0.5;fill:#000000;fill-opacity:1;stroke:none;stroke-width:1.32197;stroke-opacity:1;filter:url(#filter60397)"
     id="path872-3"
     cx="16"
     cy="16"
     r="14" />
  <circle
     r="14"
     cy="16"
     cx="16"
     id="path872"
     style="opacity:1;fill:url(#linearGradient847);fill-opacity:1;stroke:none;stroke-width:1.32197;stroke-opacity:1" />
  <path
     d="m 22.477321,4.4867206 -2.498047,4.7187403 c -0.06986,-0.0352 -0.144377,-0.0584 -0.21875,-0.0683 -0.22312,-0.03 -0.452353,0.051 -0.607422,0.22656 l -1.148437,1.3007841 c -0.03783,0.0428 -0.07165,0.0898 -0.09766,0.14062 -0.147105,0.28736 -0.06039,0.62161 0.175781,0.82227 -0.619109,0.09607 -1.33381,0.43118 -1.970703,0.95898 -0.636893,0.52781 -1.195977,1.24832 -1.50586,2.11133 -0.284365,0.79196 -0.373565,1.64146 -0.404296,2.47071 -0.03073,0.82924 -0.0021,1.63687 -0.05078,2.34179 -0.04873,0.70492 -0.175312,1.3076 -0.513672,1.72657 -0.33836,0.41896 -0.889439,0.65556 -1.789062,0.62695 0.230539,0.11788 0.462301,0.21191 0.693359,0.29492 0.0071,0.004 0.01439,0.009 0.02149,0.01367 0.04649,0.0165 0.09218,0.02777 0.138672,0.04297 0.06933,0.0226 0.137736,0.04485 0.207031,0.06445 0.0923,0.0261 0.185181,0.04932 0.277343,0.07032 0.06625,0.0151 0.133065,0.03046 0.199219,0.04296 0.09331,0.01761 0.184302,0.03037 0.277344,0.04297 0.06355,0.009 0.128015,0.01724 0.191406,0.02344 0.09189,0.009 0.183882,0.01513 0.275391,0.01953 0.06812,0.003 0.135251,0.0068 0.203125,0.0078 0.0871,9.6e-4 0.173118,-0.0029 0.259765,-0.0059 0.0018,-7e-5 0.004,7e-5 0.0059,0 0.003,0.001 0.0067,0.0029 0.0098,0.0039 0.01758,-6.9e-4 0.03517,-0.0049 0.05273,-0.0059 0.04292,-0.002 0.08611,-0.0029 0.128906,-0.0059 0.09882,-0.007 0.196857,-0.01915 0.294922,-0.03125 0.05364,-0.007 0.106757,-0.01143 0.160156,-0.01953 0.03187,-0.005 0.06393,-0.01032 0.0957,-0.01562 0.04369,-0.007 0.08735,-0.01709 0.13086,-0.02539 0.218346,-0.0418 0.435286,-0.0915 0.648437,-0.15625 0.0095,-0.003 0.01789,-0.0087 0.02734,-0.01172 0.005,-0.002 0.0087,-0.0039 0.01367,-0.0059 0.0014,-4.2e-4 0.0045,-9.5e-4 0.0059,-0.002 0.01756,-0.005 0.03326,-0.01187 0.05078,-0.01757 0.162518,-0.0522 0.321649,-0.11523 0.480469,-0.17969 0.08397,-0.0341 0.169117,-0.06621 0.251953,-0.10352 0.09474,-0.0426 0.186142,-0.09199 0.279297,-0.13867 0.01109,-0.006 0.02214,-0.01198 0.0332,-0.01758 0.07971,-0.0404 0.159818,-0.0759 0.238282,-0.11914 0.07398,-0.0407 0.145932,-0.0858 0.21875,-0.1289 0.09039,-0.0535 0.17908,-0.10903 0.267578,-0.16602 0.08785,-0.0566 0.177785,-0.10819 0.263672,-0.16797 0.0265,-0.0184 0.05182,-0.03989 0.07813,-0.05859 0.0371,-0.0264 0.07071,-0.05503 0.107421,-0.08203 0.09028,-0.0664 0.179768,-0.13348 0.267579,-0.20313 0.08822,-0.07 0.176129,-0.13988 0.261718,-0.21289 0.05842,-0.0498 0.112773,-0.10119 0.169922,-0.15234 0.0019,-0.002 0.004,-0.0039 0.0059,-0.0059 0.07198,-0.0645 0.14496,-0.12689 0.214843,-0.19336 0.01966,-0.0187 0.04107,-0.03579 0.06055,-0.05469 0.0043,-0.004 0.0092,-0.007 0.01367,-0.01172 0.06216,-0.0603 0.119319,-0.12383 0.179688,-0.18554 0.06634,-0.0678 0.131195,-0.13572 0.195312,-0.20508 0.05215,-0.0564 0.105624,-0.11063 0.15625,-0.16797 0.01296,-0.0147 0.0262,-0.03022 0.03906,-0.04492 0.05686,-0.0652 0.109221,-0.133 0.164062,-0.19922 0.02027,-0.0245 0.0386,-0.04757 0.05859,-0.07227 0.05322,-0.0655 0.10897,-0.13088 0.160156,-0.19726 0.03499,-0.0454 0.07146,-0.089 0.105469,-0.13477 0.01501,-0.0202 0.02816,-0.04025 0.04297,-0.06054 0.05071,-0.0693 0.09417,-0.14099 0.142578,-0.21094 0.02982,-0.0431 0.06091,-0.08561 0.08984,-0.12891 0.0396,-0.0593 0.0832,-0.11617 0.121093,-0.17578 0.01921,-0.0302 0.03593,-0.0615 0.05469,-0.0918 0.02022,-0.0326 0.04085,-0.06485 0.06055,-0.09765 0.04226,-0.0702 0.07934,-0.14052 0.11914,-0.21094 0.05871,-0.10388 0.118679,-0.20648 0.171875,-0.31055 0.01299,-0.0254 0.02446,-0.05077 0.03711,-0.07617 0.0015,-0.003 0.0024,-0.0068 0.0039,-0.0098 0.01931,-0.0389 0.04008,-0.07641 0.05859,-0.11524 0.02726,-0.0572 0.04872,-0.11475 0.07422,-0.17187 0.04914,-0.11009 0.09624,-0.21881 0.138672,-0.32813 0.01801,-0.0464 0.03792,-0.0925 0.05469,-0.13867 0.01018,-0.0281 0.02154,-0.05599 0.03125,-0.08399 0.01477,-0.0425 0.02342,-0.0827 0.03711,-0.125 0.03228,-0.0997 0.0598,-0.19865 0.08594,-0.29687 0.0011,0.003 0.0047,0.0068 0.0059,0.0098 0.0133,-0.0496 0.0215,-0.09741 0.0332,-0.14649 0.0069,-0.029 0.01513,-0.05909 0.02148,-0.08789 0.004,-0.0182 0.0099,-0.03659 0.01367,-0.05469 0.003,-0.0149 0.0049,-0.02807 0.0078,-0.04297 0.0079,-0.0401 0.0166,-0.08139 0.02344,-0.12109 0.002,-0.0117 0.0021,-0.02336 0.0039,-0.03516 0.02202,-0.13396 0.03619,-0.26363 0.04492,-0.39257 0.0013,-0.0182 0.0049,-0.03669 0.0059,-0.05469 2.34e-4,-0.005 0.0016,-0.009 0.002,-0.01367 7.54e-4,-0.0155 -5.7e-4,-0.03148 0,-0.04688 0.0013,-0.0334 0.0014,-0.06466 0.0019,-0.09766 3.67e-4,-0.04349 0.0012,-0.08809 0,-0.13085 -0.0036,-0.11847 -0.01252,-0.23561 -0.0293,-0.34766 -0.08598,-0.57415 -0.266172,-1.04895 -0.503906,-1.44727 0.01072,0.003 0.02035,0.009 0.03125,0.01172 0.371789,0.0751 0.733145,-0.16511 0.808594,-0.53515 l 0.351562,-1.7168 c 0.04747,-0.23284 -0.03235,-0.46623 -0.197265,-0.625 l 2.363281,-4.5136744 a 14,14 0 0 0 -2.324326,-1.47656 z"
     style="opacity:0.5;fill:#000000;fill-opacity:1;stroke:none;stroke-width:1.32197;stroke-opacity:1;filter:url(#filter955)"
     id="path872-9-9" />
  <path
     id="path872-9"
     style="opacity:1;fill:#ffffff;fill-opacity:1;stroke:none;stroke-width:1.32197;stroke-opacity:1"
     d="m 22.477321,3.5866687 -2.498047,4.71874 c -0.06986,-0.0352 -0.144377,-0.0584 -0.21875,-0.0683 -0.22312,-0.03 -0.452353,0.051 -0.607422,0.22656 l -1.148437,1.300784 c -0.03783,0.0428 -0.07165,0.0898 -0.09766,0.14062 -0.147105,0.2873603 -0.06039,0.6216103 0.175781,0.8222703 -0.619109,0.09607 -1.33381,0.43118 -1.970703,0.95898 -0.636893,0.52781 -1.195977,1.24832 -1.50586,2.11133 -0.284365,0.79196 -0.373565,1.64146 -0.404296,2.47071 -0.03073,0.82924 -0.0021,1.63687 -0.05078,2.34179 -0.04873,0.70492 -0.175312,1.3076 -0.513672,1.72657 -0.33836,0.41896 -0.889439,0.65556 -1.789062,0.62695 0.230539,0.11788 0.462301,0.21191 0.693359,0.29492 0.0071,0.004 0.01439,0.009 0.02149,0.01367 0.04649,0.0165 0.09218,0.02777 0.138672,0.04297 0.06933,0.0226 0.137736,0.04485 0.207031,0.06445 0.0923,0.0261 0.185181,0.04932 0.277343,0.07032 0.06625,0.0151 0.133065,0.03046 0.199219,0.04296 0.09331,0.01761 0.184302,0.03037 0.277344,0.04297 0.06355,0.009 0.128015,0.01724 0.191406,0.02344 0.09189,0.009 0.183882,0.01513 0.275391,0.01953 0.06812,0.003 0.135251,0.0068 0.203125,0.0078 0.0871,9.6e-4 0.173118,-0.0029 0.259765,-0.0059 0.0018,-7e-5 0.004,7e-5 0.0059,0 0.003,0.001 0.0067,0.0029 0.0098,0.0039 0.01758,-6.9e-4 0.03517,-0.0049 0.05273,-0.0059 0.04292,-0.002 0.08611,-0.0029 0.128906,-0.0059 0.09882,-0.007 0.196857,-0.01915 0.294922,-0.03125 0.05364,-0.007 0.106757,-0.01143 0.160156,-0.01953 0.03187,-0.005 0.06393,-0.01032 0.0957,-0.01562 0.04369,-0.007 0.08735,-0.01709 0.13086,-0.02539 0.218346,-0.0418 0.435286,-0.0915 0.648437,-0.15625 0.0095,-0.003 0.01789,-0.0087 0.02734,-0.01172 0.005,-0.002 0.0087,-0.0039 0.01367,-0.0059 0.0014,-4.2e-4 0.0045,-9.5e-4 0.0059,-0.002 0.01756,-0.005 0.03326,-0.01187 0.05078,-0.01757 0.162518,-0.0522 0.321649,-0.11523 0.480469,-0.17969 0.08397,-0.0341 0.169117,-0.06621 0.251953,-0.10352 0.09474,-0.0426 0.186142,-0.09199 0.279297,-0.13867 0.01109,-0.006 0.02214,-0.01198 0.0332,-0.01758 0.07971,-0.0404 0.159818,-0.0759 0.238282,-0.11914 0.07398,-0.0407 0.145932,-0.0858 0.21875,-0.1289 0.09039,-0.0535 0.17908,-0.10903 0.267578,-0.16602 0.08785,-0.0566 0.177785,-0.10819 0.263672,-0.16797 0.0265,-0.0184 0.05182,-0.03989 0.07813,-0.05859 0.0371,-0.0264 0.07071,-0.05503 0.107421,-0.08203 0.09028,-0.0664 0.179768,-0.13348 0.267579,-0.20313 0.08822,-0.07 0.176129,-0.13988 0.261718,-0.21289 0.05842,-0.0498 0.112773,-0.10119 0.169922,-0.15234 0.0019,-0.002 0.004,-0.0039 0.0059,-0.0059 0.07198,-0.0645 0.14496,-0.12689 0.214843,-0.19336 0.01966,-0.0187 0.04107,-0.03579 0.06055,-0.05469 0.0043,-0.004 0.0092,-0.007 0.01367,-0.01172 0.06216,-0.0603 0.119319,-0.12383 0.179688,-0.18554 0.06634,-0.0678 0.131195,-0.13572 0.195312,-0.20508 0.05215,-0.0564 0.105624,-0.11063 0.15625,-0.16797 0.01296,-0.0147 0.0262,-0.03022 0.03906,-0.04492 0.05686,-0.0652 0.109221,-0.133 0.164062,-0.19922 0.02027,-0.0245 0.0386,-0.04757 0.05859,-0.07227 0.05322,-0.0655 0.10897,-0.13088 0.160156,-0.19726 0.03499,-0.0454 0.07146,-0.089 0.105469,-0.13477 0.01501,-0.0202 0.02816,-0.04025 0.04297,-0.06054 0.05071,-0.0693 0.09417,-0.14099 0.142578,-0.21094 0.02982,-0.0431 0.06091,-0.08561 0.08984,-0.12891 0.0396,-0.0593 0.0832,-0.11617 0.121093,-0.17578 0.01921,-0.0302 0.03593,-0.0615 0.05469,-0.0918 0.02022,-0.0326 0.04085,-0.06485 0.06055,-0.09765 0.04226,-0.0702 0.07934,-0.14052 0.11914,-0.21094 0.05871,-0.10388 0.118679,-0.20648 0.171875,-0.31055 0.01299,-0.0254 0.02446,-0.05077 0.03711,-0.07617 0.0015,-0.003 0.0024,-0.0068 0.0039,-0.0098 0.01931,-0.0389 0.04008,-0.07641 0.05859,-0.11524 0.02726,-0.0572 0.04872,-0.11475 0.07422,-0.17187 0.04914,-0.11009 0.09624,-0.21881 0.138672,-0.32813 0.01801,-0.0464 0.03792,-0.0925 0.05469,-0.13867 0.01018,-0.0281 0.02154,-0.05599 0.03125,-0.08399 0.01477,-0.0425 0.02342,-0.0827 0.03711,-0.125 0.03228,-0.0997 0.0598,-0.19865 0.08594,-0.29687 0.0011,0.003 0.0047,0.0068 0.0059,0.0098 0.0133,-0.0496 0.0215,-0.09741 0.0332,-0.14649 0.0069,-0.029 0.01513,-0.05909 0.02148,-0.08789 0.004,-0.0182 0.0099,-0.03659 0.01367,-0.05469 0.003,-0.0149 0.0049,-0.02807 0.0078,-0.04297 0.0079,-0.0401 0.0166,-0.08139 0.02344,-0.12109 0.002,-0.0117 0.0021,-0.02336 0.0039,-0.03516 0.02202,-0.13396 0.03619,-0.26363 0.04492,-0.39257 0.0013,-0.0182 0.0049,-0.03669 0.0059,-0.05469 2.34e-4,-0.005 0.0016,-0.009 0.002,-0.01367 7.54e-4,-0.0155 -5.7e-4,-0.03148 0,-0.04688 0.0013,-0.0334 0.0014,-0.06466 0.0019,-0.09766 3.67e-4,-0.04349 0.0012,-0.08809 0,-0.13085 -0.0036,-0.11847 -0.01252,-0.23561 -0.0293,-0.34766 -0.08598,-0.57415 -0.266172,-1.04895 -0.503906,-1.44727 0.01072,0.003 0.02035,0.009 0.03125,0.01172 0.371789,0.0751 0.733145,-0.16511 0.808594,-0.53515 l 0.351562,-1.7168 c 0.04747,-0.2328403 -0.03235,-0.4662303 -0.197265,-0.6250003 l 2.363281,-4.513674 a 14,14 0 0 0 -2.324326,-1.47656 z" />
</svg>
