<?xml version="1.0" encoding="UTF-8" standalone="no"?>
<svg
   xmlns:dc="http://purl.org/dc/elements/1.1/"
   xmlns:cc="http://creativecommons.org/ns#"
   xmlns:rdf="http://www.w3.org/1999/02/22-rdf-syntax-ns#"
   xmlns:svg="http://www.w3.org/2000/svg"
   xmlns="http://www.w3.org/2000/svg"
   xmlns:xlink="http://www.w3.org/1999/xlink"
   xmlns:sodipodi="http://sodipodi.sourceforge.net/DTD/sodipodi-0.dtd"
   xmlns:inkscape="http://www.inkscape.org/namespaces/inkscape"
   inkscape:version="1.0.1 (3bc2e813f5, 2020-09-07)"
   sodipodi:docname="pocket.svg"
   id="svg14"
   version="1.1"
   height="32"
   width="32">
  <metadata
     id="metadata20">
    <rdf:RDF>
      <cc:Work
         rdf:about="">
        <dc:format>image/svg+xml</dc:format>
        <dc:type
           rdf:resource="http://purl.org/dc/dcmitype/StillImage" />
      </cc:Work>
    </rdf:RDF>
  </metadata>
  <defs
     id="defs18">
    <linearGradient
       id="linearGradient849"
       inkscape:collect="always">
      <stop
         id="stop845"
         offset="0"
         style="stop-color:#ee4056;stop-opacity:1;" />
      <stop
         id="stop847"
         offset="1"
         style="stop-color:#ff5a6e;stop-opacity:1" />
    </linearGradient>
    <linearGradient
       gradientUnits="userSpaceOnUse"
       y2="-16"
       x2="-1022.4"
       y1="-16"
       x1="-1050.4"
       id="linearGradient851"
       xlink:href="#linearGradient849"
       inkscape:collect="always" />
    <filter
       inkscape:collect="always"
       style="color-interpolation-filters:sRGB"
       id="filter60385"
       x="-0.075"
       width="1.15"
       y="-0.075"
       height="1.15">
      <feGaussianBlur
         inkscape:collect="always"
         stdDeviation="0.875"
         id="feGaussianBlur60387" />
    </filter>
  </defs>
  <sodipodi:namedview
     inkscape:current-layer="g12"
     inkscape:window-maximized="1"
     inkscape:window-y="0"
     inkscape:window-x="0"
     inkscape:cy="16"
     inkscape:cx="14.950131"
     inkscape:zoom="23.8125"
     showgrid="false"
     id="namedview16"
     inkscape:window-height="1000"
     inkscape:window-width="1920"
     inkscape:pageshadow="2"
     inkscape:pageopacity="0"
     guidetolerance="10"
     gridtolerance="10"
     objecttolerance="10"
     borderopacity="1"
     bordercolor="#666666"
     pagecolor="#ffffff"
     inkscape:document-rotation="0" />
  <g
     id="g12"
     transform="translate(0 -1020.4)">
    <rect
       fill="#ee4056"
       width="28"
       height="28"
       x="-1050.4"
       y="-30"
       rx="2.0999999"
       ry="2.0999999"
       transform="matrix(0,-1,-1,0,0,0)"
       id="rect2-7"
       style="fill:#000000;fill-opacity:1;opacity:0.5;filter:url(#filter60385)" />
    <rect
       style="fill-opacity:1;fill:url(#linearGradient851)"
       id="rect2"
       transform="matrix(0,-1,-1,0,0,0)"
       ry="2.1"
       rx="2.1"
       y="-30"
       x="-1050.4"
       height="28"
       width="28"
       fill="#ee4056" />
    <path
       id="path6"
       d="m8.9629 1028.4c-1.0874 0-1.9629 0.9021-1.9629 2.0215 0 8.2989 1.4737 14.009 9 13.978 7.5263-0.03 9-5.6866 9-13.978 0-1.1194-0.87552-2.0215-1.9629-2.0215h-14.074zm2.8281 4.5508c0.31376 0 0.62824 0.1231 0.86914 0.3672l3.34 3.3 3.34-3.4c0.24089-0.2441 0.55085-0.3633 0.86524-0.3633 0.31438 0 0.63216 0.1192 0.87304 0.3633 0.48181 0.4881 0.48181 1.2814 0 1.7695l-4.1152 4.168c-0.26459 0.268-0.61837 0.3779-0.96289 0.3515-0.34453 0.026-0.6983-0.083-0.96289-0.3515l-4.1152-4.168c-0.4818-0.4881-0.4818-1.2814 0-1.7695 0.2409-0.2441 0.55539-0.3672 0.86914-0.3672z"
       fill="#fff" />
  </g>
</svg>
