<?xml version="1.0" encoding="UTF-8" standalone="no"?>
<svg
   xmlns:dc="http://purl.org/dc/elements/1.1/"
   xmlns:cc="http://creativecommons.org/ns#"
   xmlns:rdf="http://www.w3.org/1999/02/22-rdf-syntax-ns#"
   xmlns:svg="http://www.w3.org/2000/svg"
   xmlns="http://www.w3.org/2000/svg"
   xmlns:xlink="http://www.w3.org/1999/xlink"
   xmlns:sodipodi="http://sodipodi.sourceforge.net/DTD/sodipodi-0.dtd"
   xmlns:inkscape="http://www.inkscape.org/namespaces/inkscape"
   inkscape:version="1.0.1 (3bc2e813f5, 2020-09-07)"
   sodipodi:docname="popcorn-time.svg"
   id="svg84"
   version="1.1"
   width="32"
   height="32">
  <metadata
     id="metadata90">
    <rdf:RDF>
      <cc:Work
         rdf:about="">
        <dc:format>image/svg+xml</dc:format>
        <dc:type
           rdf:resource="http://purl.org/dc/dcmitype/StillImage" />
        <dc:title />
      </cc:Work>
    </rdf:RDF>
  </metadata>
  <defs
     id="defs88">
    <linearGradient
       id="m-9"
       gradientUnits="userSpaceOnUse"
       x1="-412.10229"
       x2="-408.3233"
       y1="535.99384"
       y2="462.85916"
       gradientTransform="matrix(0.23093032,0,0,0.22356177,77.856234,-97.613097)">
      <stop
         offset="0"
         stop-color="#e7ddd5"
         id="stop42-3" />
      <stop
         offset="1"
         stop-color="#f1e9e0"
         id="stop44-6" />
    </linearGradient>
    <linearGradient
       id="m-0"
       gradientUnits="userSpaceOnUse"
       x1="-412.10229"
       x2="-408.3233"
       y1="535.99384"
       y2="462.85916"
       gradientTransform="matrix(0.23093032,0,0,0.22356177,78.462665,-110.60806)">
      <stop
         offset="0"
         stop-color="#e7ddd5"
         id="stop42-6" />
      <stop
         offset="1"
         stop-color="#f1e9e0"
         id="stop44-1" />
    </linearGradient>
    <linearGradient
       id="m-5"
       gradientUnits="userSpaceOnUse"
       x1="-412.10229"
       x2="-408.3233"
       y1="535.99384"
       y2="462.85916"
       gradientTransform="matrix(0.23093032,0,0,0.22356177,73.178046,-109.1353)">
      <stop
         offset="0"
         stop-color="#e7ddd5"
         id="stop42-4" />
      <stop
         offset="1"
         stop-color="#f1e9e0"
         id="stop44-7" />
    </linearGradient>
    <filter
       inkscape:collect="always"
       style="color-interpolation-filters:sRGB"
       id="filter60381"
       x="-0.090000299"
       width="1.1800006"
       y="-0.064285562"
       height="1.1285711">
      <feGaussianBlur
         inkscape:collect="always"
         stdDeviation="0.75001251"
         id="feGaussianBlur60383" />
    </filter>
  </defs>
  <sodipodi:namedview
     inkscape:current-layer="svg84"
     inkscape:window-maximized="1"
     inkscape:window-y="0"
     inkscape:window-x="0"
     inkscape:cy="17.930195"
     inkscape:cx="-5.015359"
     inkscape:zoom="11.542933"
     showgrid="false"
     id="namedview86"
     inkscape:window-height="1000"
     inkscape:window-width="1920"
     inkscape:pageshadow="2"
     inkscape:pageopacity="0"
     guidetolerance="10"
     gridtolerance="10"
     objecttolerance="10"
     borderopacity="1"
     bordercolor="#666666"
     pagecolor="#ffffff"
     inkscape:document-rotation="0" />
  <linearGradient
     id="a">
    <stop
       id="stop2"
       stop-color="#d22900"
       offset="0" />
    <stop
       id="stop4"
       stop-color="#ff6443"
       offset="1" />
  </linearGradient>
  <linearGradient
     id="b">
    <stop
       id="stop7"
       stop-color="#2c2e31"
       offset="0" />
    <stop
       id="stop9"
       stop-color="#40464d"
       offset="1" />
  </linearGradient>
  <linearGradient
     gradientTransform="translate(12.963687,6.479268)"
     y2="463.4487"
     y1="584.39484"
     x2="-633.62726"
     x1="-631.89374"
     gradientUnits="userSpaceOnUse"
     id="c">
    <stop
       id="stop12"
       stop-color="#1584d8"
       offset="0" />
    <stop
       id="stop14"
       stop-color="#1cb2ff"
       offset="1" />
  </linearGradient>
  <linearGradient
     y2="0"
     y1="0"
     x2="1"
     x1="0"
     spreadMethod="pad"
     gradientUnits="userSpaceOnUse"
     gradientTransform="matrix(0,-100,-100,0,96,146)"
     id="d">
    <stop
       id="stop17"
       stop-color="#fafafa"
       offset="0" />
    <stop
       id="stop19"
       stop-color="#e0e0e0"
       offset="1" />
  </linearGradient>
  <linearGradient
     y2="530.08228"
     y1="569.61719"
     xlink:href="#a"
     x2="-411.40463"
     x1="-411.01224"
     gradientUnits="userSpaceOnUse"
     id="e" />
  <linearGradient
     y2="529.75482"
     y1="568.70831"
     xlink:href="#a"
     x2="-388.25281"
     x1="-391.23114"
     gradientUnits="userSpaceOnUse"
     id="f" />
  <linearGradient
     y2="529.74963"
     y1="569.86591"
     xlink:href="#a"
     x2="-435.26627"
     x1="-433.01196"
     gradientUnits="userSpaceOnUse"
     id="g" />
  <linearGradient
     gradientTransform="matrix(0.65435255,0,0,0.63347339,-279.77781,147.36125)"
     y2="541.88757"
     y1="551.27698"
     x2="-567.01282"
     x1="-567.92572"
     gradientUnits="userSpaceOnUse"
     id="h">
    <stop
       id="stop25"
       stop-color="#d81d00"
       offset="0" />
    <stop
       id="stop27"
       stop-color="#da4831"
       offset="1" />
  </linearGradient>
  <linearGradient
     y2="569.36975"
     y1="526.34644"
     xlink:href="#d"
     x2="-381.87454"
     x1="-377.21274"
     gradientUnits="userSpaceOnUse"
     id="i" />
  <linearGradient
     y2="569.22699"
     y1="529.98279"
     xlink:href="#d"
     x2="-401.11365"
     x1="-398.51883"
     gradientUnits="userSpaceOnUse"
     gradientTransform="translate(-0.20021)"
     id="j" />
  <linearGradient
     y2="530.84967"
     y1="568.34967"
     x2="-423.43454"
     x1="-421.42114"
     gradientUnits="userSpaceOnUse"
     id="k">
    <stop
       id="stop32"
       stop-color="#e1e1e1"
       offset="0" />
    <stop
       id="stop34"
       stop-color="#f9f9f9"
       offset="1" />
  </linearGradient>
  <linearGradient
     y2="526.63196"
     y1="567.62036"
     x2="-446.66837"
     x1="-442.87866"
     gradientUnits="userSpaceOnUse"
     id="l">
    <stop
       id="stop37"
       stop-color="#e3e3e3"
       offset="0" />
    <stop
       id="stop39"
       stop-color="#f8f8f8"
       offset="1" />
  </linearGradient>
  <linearGradient
     xlink:href="#p"
     gradientTransform="matrix(0.23093032,0,0,0.22356177,111.44275,-102.14514)"
     y2="462.85916"
     y1="535.99384"
     x2="-408.3233"
     x1="-412.10229"
     gradientUnits="userSpaceOnUse"
     id="m">
    <stop
       id="stop42"
       stop-color="#e7ddd5"
       offset="0" />
    <stop
       id="stop44"
       stop-color="#f1e9e0"
       offset="1" />
  </linearGradient>
  <linearGradient
     gradientTransform="matrix(0.65435255,0,0,0.63347339,-279.77781,147.36125)"
     y2="522.82245"
     y1="535.05603"
     xlink:href="#b"
     x2="-580.18695"
     x1="-591.3689"
     gradientUnits="userSpaceOnUse"
     id="n" />
  <linearGradient
     gradientTransform="matrix(0.65435255,0,0,0.63347339,-279.77781,147.36125)"
     y2="525.5705"
     y1="535.69482"
     xlink:href="#b"
     x2="-538.45752"
     x1="-553.4361"
     gradientUnits="userSpaceOnUse"
     id="o" />
  <linearGradient
     y2="442.42401"
     y1="589.77954"
     x2="-634.27649"
     x1="-632.53174"
     gradientUnits="userSpaceOnUse"
     id="p">
    <stop
       id="stop49"
       stop-color="#eaeaea"
       offset="0" />
    <stop
       id="stop51"
       stop-color="#fff"
       offset="1" />
  </linearGradient>
  <path
     d="M 18.300047,2.0002662 C 15.636485,2.0331622 12.993006,3.5924067 11.89575,7.3147194 10.176848,4.2130662 3.6844388,7.2856874 7.7414528,11.34011 c -2.008169,0.312129 -2.588636,3.291733 -0.072265,4.109375 0.455577,0.413713 0.975713,0.757866 1.525391,1.0625 -0.113911,0.1899 -0.195313,0.409391 -0.195313,0.660157 0,-0.324435 -0.112219,-0.616426 -0.292969,-0.828126 -0.18075,-0.211702 -0.430028,-0.34375 -0.707031,-0.34375 -0.276999,0 -0.526281,0.132048 -0.707031,0.34375 -0.18075,0.2117 -0.292969,0.503691 -0.292969,0.828126 v 12.828125 h 2 2.0000002 2 2 2 2 2 2 2 V 17.172142 c 0,-0.324435 -0.112219,-0.616426 -0.292969,-0.828126 -0.110223,-0.129098 -0.250406,-0.213687 -0.402344,-0.271484 0.279133,-0.155234 0.536984,-0.317794 0.767579,-0.484375 1.530584,-1.433567 1.003838,-3.498179 -0.382813,-3.996094 2.541823,-5.4641147 -1.949401,-9.6466241 -6.388672,-9.5917968 z m 4.832032,14.6249998 c -0.07626,0.165127 -0.132813,0.34516 -0.132813,0.546876 0,-0.163866 -0.02845,-0.319796 -0.08008,-0.460938 0.07178,-0.02836 0.142758,-0.05687 0.212891,-0.08594 z"
     style="fill:#000000;fill-opacity:1;stroke-width:0.227216;opacity:0.5;filter:url(#filter60381)"
     id="path56-4" />
  <path
     d="M 7.6696186,15.450088 C 12.106256,19.479037 21.56918,18.118906 25.071632,15.588743 26.602216,14.155176 26.074866,12.090327 24.688215,11.592412 28.755132,2.8498282 14.820693,-2.6120586 11.894678,7.3141086 10.175776,4.2124555 3.6842051,7.2851384 7.7412184,11.339561 c -2.0081685,0.312129 -2.5879703,3.292885 -0.0716,4.110527 z"
     fill="url(#m)"
     fill-rule="evenodd"
     id="path56"
     style="fill:url(#m);stroke-width:0.227216;fill-opacity:1.0" />
  <ellipse
     cx="11.811524"
     cy="11.452774"
     fill="url(#n)"
     id="circle62"
     style="opacity:0.7;fill:#000000;fill-opacity:1;stroke-width:0.2373"
     rx="1.5010471"
     ry="1.4531515" />
  <ellipse
     cx="20.960136"
     cy="11.601924"
     fill="url(#o)"
     id="circle64"
     style="opacity:0.7;fill:#000000;fill-opacity:1;stroke-width:0.2373"
     rx="1.5010471"
     ry="1.4531515" />
  <path
     style="fill:#d81d00;fill-opacity:1;fill-rule:evenodd;stroke-width:0.2373"
     id="path66"
     opacity="0.848"
     fill="url(#h)"
     d="m 18.64485,13.2692 c -0.355626,2.640677 -4.306695,2.488462 -4.482418,-0.03266 -0.031,-0.248038 0.02267,-0.226557 0.271309,-0.22788 l 3.890638,-0.02068 c 0.340952,-0.03063 0.346927,0.0051 0.320471,0.28122 z" />
  <path
     d="M 9,30 V 17.171242 C 9,16.846808 8.887781,16.554838 8.707031,16.343138 8.526281,16.131436 8.277003,16 8,16 7.723001,16 7.473719,16.131436 7.292969,16.343138 7.112219,16.554838 7,16.846808 7,17.171242 V 30 Z"
     style="opacity:1;fill:#db3a20;fill-opacity:1;stroke:none;stroke-width:1.08544"
     id="rect1196" />
  <path
     d="M 13,30 V 17.171242 C 13,16.846808 12.887781,16.554838 12.707031,16.343138 12.526282,16.131436 12.277,16 12,16 11.722999,16 11.473718,16.131436 11.292969,16.343138 11.112219,16.554838 11,16.846808 11,17.171242 V 30 Z"
     style="opacity:1;fill:#db3a20;fill-opacity:1;stroke:none;stroke-width:1.08544"
     id="path1476" />
  <path
     d="M 17,30 V 17.171242 C 17,16.846808 16.887782,16.554838 16.707031,16.343138 16.526281,16.131436 16.277,16 16,16 15.723001,16 15.473719,16.131436 15.292969,16.343138 15.112219,16.554838 15,16.846808 15,17.171242 V 30 Z"
     style="opacity:1;fill:#db3a20;fill-opacity:1;stroke:none;stroke-width:1.08544"
     id="path1474" />
  <path
     d="M 21,30 V 17.171242 C 21,16.846808 20.887781,16.554838 20.707031,16.343138 20.526281,16.131436 20.276998,16 20,16 19.722999,16 19.473718,16.131436 19.292969,16.343138 19.112219,16.554838 19,16.846808 19,17.171242 V 30 Z"
     style="opacity:1;fill:#db3a20;fill-opacity:1;stroke:none;stroke-width:1.08544"
     id="path1472" />
  <path
     id="rect1196-0"
     style="opacity:1;fill:#ffffff;fill-opacity:1;stroke:none;stroke-width:1.08544"
     d="M 11,30 V 17.171242 C 11,16.846808 10.887781,16.554838 10.707031,16.343138 10.526281,16.131436 10.277003,16 10,16 9.723001,16 9.473719,16.131436 9.292969,16.343138 9.112219,16.554838 9,16.846808 9,17.171242 V 30 Z" />
  <path
     id="path1476-6"
     style="opacity:1;fill:#ffffff;fill-opacity:1;stroke:none;stroke-width:1.08544"
     d="M 15,30 V 17.171242 C 15,16.846808 14.887781,16.554838 14.707031,16.343138 14.526282,16.131436 14.277,16 14,16 13.722999,16 13.473718,16.131436 13.292969,16.343138 13.112219,16.554838 13,16.846808 13,17.171242 V 30 Z" />
  <path
     id="path1474-3"
     style="opacity:1;fill:#ffffff;fill-opacity:1;stroke:none;stroke-width:1.08544"
     d="M 19,30 V 17.171242 C 19,16.846808 18.887782,16.554838 18.707031,16.343138 18.526281,16.131436 18.277,16 18,16 17.723001,16 17.473719,16.131436 17.292969,16.343138 17.112219,16.554838 17,16.846808 17,17.171242 V 30 Z" />
  <path
     id="path1472-2"
     style="opacity:1;fill:#ffffff;fill-opacity:1;stroke:none;stroke-width:1.08544"
     d="M 23,30 V 17.171242 C 23,16.846808 22.887781,16.554838 22.707031,16.343138 22.526281,16.131436 22.276998,16 22,16 21.722999,16 21.473718,16.131436 21.292969,16.343138 21.112219,16.554838 21,16.846808 21,17.171242 V 30 Z" />
  <path
     id="rect1196-2"
     style="opacity:1;fill:#db3a20;fill-opacity:1;stroke:none;stroke-width:1.08544"
     d="M 25,30 V 17.171242 C 25,16.846808 24.887781,16.554838 24.707031,16.343138 24.526281,16.131436 24.277003,16 24,16 23.723001,16 23.473719,16.131436 23.292969,16.343138 23.112219,16.554838 23,16.846808 23,17.171242 V 30 Z" />
</svg>
