<?xml version="1.0" encoding="UTF-8" standalone="no"?>
<svg
   xmlns:dc="http://purl.org/dc/elements/1.1/"
   xmlns:cc="http://creativecommons.org/ns#"
   xmlns:rdf="http://www.w3.org/1999/02/22-rdf-syntax-ns#"
   xmlns:svg="http://www.w3.org/2000/svg"
   xmlns="http://www.w3.org/2000/svg"
   xmlns:sodipodi="http://sodipodi.sourceforge.net/DTD/sodipodi-0.dtd"
   xmlns:inkscape="http://www.inkscape.org/namespaces/inkscape"
   inkscape:version="1.0.1 (3bc2e813f5, 2020-09-07)"
   sodipodi:docname="preferences-system-notifications.svg"
   id="svg14"
   version="1"
   height="32"
   width="32">
  <metadata
     id="metadata20">
    <rdf:RDF>
      <cc:Work
         rdf:about="">
        <dc:format>image/svg+xml</dc:format>
        <dc:type
           rdf:resource="http://purl.org/dc/dcmitype/StillImage" />
        <dc:title></dc:title>
      </cc:Work>
    </rdf:RDF>
  </metadata>
  <defs
     id="defs18">
    <filter
       inkscape:collect="always"
       style="color-interpolation-filters:sRGB"
       id="filter943"
       x="-0.068303571"
       width="1.1366071"
       y="-0.083152174"
       height="1.1663043">
      <feGaussianBlur
         inkscape:collect="always"
         stdDeviation="0.796875"
         id="feGaussianBlur945" />
    </filter>
  </defs>
  <sodipodi:namedview
     inkscape:current-layer="svg14"
     inkscape:window-maximized="1"
     inkscape:window-y="0"
     inkscape:window-x="0"
     inkscape:cy="19.31093"
     inkscape:cx="-2.7023653"
     inkscape:zoom="11.90625"
     showgrid="false"
     id="namedview16"
     inkscape:window-height="1000"
     inkscape:window-width="1920"
     inkscape:pageshadow="2"
     inkscape:pageopacity="0"
     guidetolerance="10"
     gridtolerance="10"
     objecttolerance="10"
     borderopacity="1"
     bordercolor="#666666"
     pagecolor="#ffffff"
     inkscape:document-rotation="0" />
  <path
     id="rect892-7"
     style="opacity:0.5;fill:#000000;fill-opacity:1;stroke:none;stroke-width:0.554753;filter:url(#filter943)"
     d="M 3.484375,4 C 2.662009,4 2,4.66201 2,5.484375 v 17.03125 C 2,23.337991 2.662009,24 3.484375,24 H 22 l 3,3 3,-3 h 0.515625 C 29.337991,24 30,23.337991 30,22.515625 V 5.484375 C 30,4.66201 29.337991,4 28.515625,4 Z" />
  <path
     id="rect892"
     style="opacity:1;fill:#ffffff;fill-opacity:1;stroke:none;stroke-width:0.554753"
     d="M 3.484375 4 C 2.6620093 4 2 4.6620093 2 5.484375 L 2 22.515625 C 2 23.337991 2.6620093 24 3.484375 24 L 22 24 L 25 27 L 28 24 L 28.515625 24 C 29.337991 24 30 23.337991 30 22.515625 L 30 5.484375 C 30 4.6620093 29.337991 4 28.515625 4 L 3.484375 4 z " />
  <circle
     style="fill:#f32222;fill-opacity:1"
     id="circle8"
     r="8"
     cy="8"
     cx="8"
     fill="#4daaf5" />
  <path
     id="path10"
     d="M 6.9999995,2.9999999 V 10 H 8.9999994 V 2.9999999 Z m 0,8.0000001 v 2 h 1.9999999 v -2 z"
     style="fill:#ffffff" />
</svg>
