<?xml version="1.0" encoding="UTF-8" standalone="no"?>
<svg
   xmlns:dc="http://purl.org/dc/elements/1.1/"
   xmlns:cc="http://creativecommons.org/ns#"
   xmlns:rdf="http://www.w3.org/1999/02/22-rdf-syntax-ns#"
   xmlns:svg="http://www.w3.org/2000/svg"
   xmlns="http://www.w3.org/2000/svg"
   xmlns:xlink="http://www.w3.org/1999/xlink"
   xmlns:sodipodi="http://sodipodi.sourceforge.net/DTD/sodipodi-0.dtd"
   xmlns:inkscape="http://www.inkscape.org/namespaces/inkscape"
   inkscape:version="1.0.1 (3bc2e813f5, 2020-09-07)"
   sodipodi:docname="rhythmbox.svg"
   id="svg20"
   version="1"
   height="32"
   width="32">
  <metadata
     id="metadata26">
    <rdf:RDF>
      <cc:Work
         rdf:about="">
        <dc:format>image/svg+xml</dc:format>
        <dc:type
           rdf:resource="http://purl.org/dc/dcmitype/StillImage" />
        <dc:title />
      </cc:Work>
    </rdf:RDF>
  </metadata>
  <defs
     id="defs24">
    <linearGradient
       inkscape:collect="always"
       id="linearGradient935">
      <stop
         style="stop-color:#000000;stop-opacity:1;"
         offset="0"
         id="stop931" />
      <stop
         style="stop-color:#000000;stop-opacity:0;"
         offset="1"
         id="stop933" />
    </linearGradient>
    <linearGradient
       inkscape:collect="always"
       id="linearGradient861">
      <stop
         style="stop-color:#737373;stop-opacity:1"
         offset="0"
         id="stop857" />
      <stop
         style="stop-color:#3f3f3f;stop-opacity:1"
         offset="1"
         id="stop859" />
    </linearGradient>
    <filter
       inkscape:collect="always"
       style="color-interpolation-filters:sRGB"
       id="filter60149"
       x="-0.08625"
       width="1.1725"
       y="-0.066346154"
       height="1.1326923">
      <feGaussianBlur
         inkscape:collect="always"
         stdDeviation="0.71875"
         id="feGaussianBlur60151" />
    </filter>
    <radialGradient
       inkscape:collect="always"
       xlink:href="#linearGradient861"
       id="radialGradient863"
       cx="-16.123707"
       cy="-15.48287"
       fx="-16.123707"
       fy="-15.48287"
       r="2"
       gradientUnits="userSpaceOnUse"
       gradientTransform="translate(-2)" />
    <radialGradient
       inkscape:collect="always"
       xlink:href="#linearGradient861"
       id="radialGradient863-6"
       cx="-16.123707"
       cy="-15.48287"
       fx="-16.123707"
       fy="-15.48287"
       r="2"
       gradientUnits="userSpaceOnUse"
       gradientTransform="matrix(0.75,0,0,0.75,5.75,-4)" />
    <linearGradient
       inkscape:collect="always"
       xlink:href="#linearGradient935"
       id="linearGradient937"
       x1="3.7687125"
       y1="-13.828648"
       x2="10.057828"
       y2="-18.79151"
       gradientUnits="userSpaceOnUse" />
  </defs>
  <sodipodi:namedview
     inkscape:current-layer="svg20"
     inkscape:window-maximized="1"
     inkscape:window-y="0"
     inkscape:window-x="0"
     inkscape:cy="12.795386"
     inkscape:cx="22.737526"
     inkscape:zoom="32"
     showgrid="false"
     id="namedview22"
     inkscape:window-height="1000"
     inkscape:window-width="1920"
     inkscape:pageshadow="2"
     inkscape:pageopacity="0"
     guidetolerance="10"
     gridtolerance="10"
     objecttolerance="10"
     borderopacity="1"
     bordercolor="#666666"
     pagecolor="#ffffff"
     inkscape:document-rotation="0" />
  <rect
     fill="#4f4f4f"
     width="20"
     height="26"
     x="-26"
     y="3"
     rx="1.25"
     ry="1.3"
     transform="scale(-1,1)"
     id="rect2-9"
     style="fill:#000000;fill-opacity:1;opacity:0.5;filter:url(#filter60149)" />
  <rect
     style="fill:#e5e5e5;fill-opacity:1"
     id="rect2"
     transform="scale(-1,1)"
     ry="1.3"
     rx="1.25"
     y="3"
     x="-26"
     height="26"
     width="20"
     fill="#4f4f4f" />
  <circle
     id="circle4"
     transform="rotate(-90)"
     r="8"
     cy="16"
     cx="-19"
     style="opacity:0.4;stroke-width:0.888889" />
  <circle
     id="circle8-6"
     transform="matrix(0,-1,-1,0,0,0)"
     r="7"
     cy="-16"
     cx="-19"
     fill="#fec006"
     style="fill:#000000;fill-opacity:1;stroke-width:0.999996" />
  <circle
     id="circle8"
     transform="matrix(0,-1,-1,0,0,0)"
     r="6"
     cy="-16"
     cx="-19"
     fill="#fec006"
     style="stroke-width:0.857143" />
  <circle
     id="circle10"
     transform="matrix(0,-1,-1,0,0,0)"
     cy="-16"
     cx="-19"
     style="fill:#000000;fill-opacity:1;stroke-width:1"
     r="3" />
  <circle
     id="circle14-7"
     transform="rotate(90)"
     r="3"
     cy="-16"
     cx="7"
     style="opacity:0.3;mix-blend-mode:normal;fill:url(#linearGradient937);fill-opacity:1;stroke-width:3" />
  <circle
     id="circle10-3"
     transform="matrix(0,-1,-1,0,0,0)"
     r="2"
     cy="-16"
     cx="-19"
     style="fill:url(#radialGradient863);fill-opacity:1;stroke-width:0.666667" />
  <circle
     id="circle10-7"
     transform="matrix(0,-1,-1,0,0,0)"
     cy="-8"
     cx="-5"
     style="fill:#000000;fill-opacity:1;stroke-width:0.333333;opacity:0.2"
     r="1" />
  <circle
     id="circle10-7-0"
     transform="matrix(0,-1,-1,0,0,0)"
     cy="-24"
     cx="-5"
     style="fill:#000000;fill-opacity:1;stroke-width:0.333333;opacity:0.2"
     r="1" />
  <path
     id="rect999"
     style="opacity:0.3;fill:#000000;fill-opacity:1;stroke-width:0.0706026"
     d="M 23.75,4.5 23.5,4.75 23.75,5 23.5,5.25 23.75,5.5 24,5.25 24.25,5.5 24.5,5.25 24.25,5 24.5,4.75 24.25,4.5 24,4.75 Z" />
  <path
     id="rect999-3"
     style="opacity:0.3;fill:#000000;fill-opacity:1;stroke-width:0.0706026"
     d="M 7.75,4.5 7.5,4.75 7.75,5 7.5,5.25 7.75,5.5 8,5.25 8.25,5.5 8.5,5.25 8.25,5 8.5,4.75 8.25,4.5 8,4.75 Z" />
  <circle
     id="circle10-7-6"
     transform="matrix(0,-1,-1,0,0,0)"
     cy="-8"
     cx="-27"
     style="opacity:0.2;fill:#000000;fill-opacity:1;stroke-width:0.333333"
     r="1" />
  <circle
     id="circle10-7-0-0"
     transform="matrix(0,-1,-1,0,0,0)"
     cy="-24"
     cx="-27"
     style="opacity:0.2;fill:#000000;fill-opacity:1;stroke-width:0.333333"
     r="1" />
  <path
     id="rect999-6"
     style="opacity:0.3;fill:#000000;fill-opacity:1;stroke-width:0.0706026"
     d="M 23.75,26.5 23.5,26.75 23.75,27 23.5,27.25 23.75,27.5 24,27.25 24.25,27.5 24.5,27.25 24.25,27 24.5,26.75 24.25,26.5 24,26.75 Z" />
  <path
     id="rect999-3-2"
     style="opacity:0.3;fill:#000000;fill-opacity:1;stroke-width:0.0706026"
     d="M 7.75,26.5 7.5,26.75 7.75,27 7.5,27.25 7.75,27.5 8,27.25 8.25,27.5 8.5,27.25 8.25,27 8.5,26.75 8.25,26.5 8,26.75 Z" />
  <circle
     id="circle10-3-1"
     transform="matrix(0,-1,-1,0,0,0)"
     r="1.5"
     cy="-16"
     cx="-7"
     style="fill:url(#radialGradient863-6);fill-opacity:1;stroke-width:0.5" />
</svg>
