<?xml version="1.0" encoding="UTF-8" standalone="no"?>
<svg
   xmlns:dc="http://purl.org/dc/elements/1.1/"
   xmlns:cc="http://creativecommons.org/ns#"
   xmlns:rdf="http://www.w3.org/1999/02/22-rdf-syntax-ns#"
   xmlns:svg="http://www.w3.org/2000/svg"
   xmlns="http://www.w3.org/2000/svg"
   xmlns:sodipodi="http://sodipodi.sourceforge.net/DTD/sodipodi-0.dtd"
   xmlns:inkscape="http://www.inkscape.org/namespaces/inkscape"
   inkscape:version="1.0.1 (3bc2e813f5, 2020-09-07)"
   sodipodi:docname="preferences-desktop-locale.svg"
   id="svg22"
   version="1"
   height="32"
   width="32">
  <metadata
     id="metadata28">
    <rdf:RDF>
      <cc:Work
         rdf:about="">
        <dc:format>image/svg+xml</dc:format>
        <dc:type
           rdf:resource="http://purl.org/dc/dcmitype/StillImage" />
      </cc:Work>
    </rdf:RDF>
  </metadata>
  <defs
     id="defs26">
    <filter
       inkscape:collect="always"
       style="color-interpolation-filters:sRGB"
       id="filter60177"
       x="-0.075"
       width="1.15"
       y="-0.075"
       height="1.15">
      <feGaussianBlur
         inkscape:collect="always"
         stdDeviation="0.59375"
         id="feGaussianBlur60179" />
    </filter>
    <filter
       inkscape:collect="always"
       style="color-interpolation-filters:sRGB"
       id="filter60181"
       x="-0.075"
       width="1.15"
       y="-0.075"
       height="1.15">
      <feGaussianBlur
         inkscape:collect="always"
         stdDeviation="0.59375"
         id="feGaussianBlur60183" />
    </filter>
  </defs>
  <sodipodi:namedview
     inkscape:current-layer="svg22"
     inkscape:window-maximized="1"
     inkscape:window-y="0"
     inkscape:window-x="0"
     inkscape:cy="16"
     inkscape:cx="14.950131"
     inkscape:zoom="23.8125"
     showgrid="false"
     id="namedview24"
     inkscape:window-height="1000"
     inkscape:window-width="1920"
     inkscape:pageshadow="2"
     inkscape:pageopacity="0"
     guidetolerance="10"
     gridtolerance="10"
     objecttolerance="10"
     borderopacity="1"
     bordercolor="#666666"
     pagecolor="#ffffff"
     inkscape:document-rotation="0" />
  <path
     id="path2"
     d="M 21,10 V 29 H 3.5 C 2.669,29 2,28.331 2,27.5 v -16 C 2,10.669 2.669,10 3.5,10 Z"
     style="opacity:0.5;filter:url(#filter60177)" />
  <path
     id="path4"
     d="M 21,10 V 29 H 3.5 C 2.669,29 2,28.331 2,27.5 V 11.5 C 2,10.669 2.669,10 3.5,10 Z"
     style="fill:#e4e4e4" />
  <path
     id="path8"
     d="M 9.6677,14.381 C 10.08,14.667 10.461,15.016 10.811,15.429 L 10.192,16.19 C 9.8102,15.714 9.4133,15.317 9.0006,15 L 9.6673,14.381 M 9.6673,17.381 C 10.048,17.666 10.413,17.984 10.763,18.333 L 10.143,19.143 C 9.7942,18.698 9.4132,18.317 9.0005,18 L 9.6672,17.381 M 9.8576,20.666 10.62,21.19 C 10.239,22.491 9.6832,23.745 8.953,24.951 L 8.1435,24.332 C 8.8736,23.157 9.4451,21.935 9.8578,20.665 M 12.096,13.999 13,14.19 C 12.937,14.507 12.842,14.809 12.715,15.095 H 16.429 V 15.952 H 12.334 L 11.905,16.666 C 11.778,16.92 11.572,17.19 11.286,17.475 L 10.715,16.809 C 11.318,16.079 11.778,15.142 12.096,13.999 M 11.858,16.952 H 16.239 C 16.239,17.936 16.223,18.857 16.191,19.714 H 16.81 V 20.571 H 16.143 C 16.08,21.237 16.032,21.888 16,22.523 H 16.715 V 23.333 H 15.905 C 15.778,24.444 15.333,25 14.571,25 14.381,25 14.111,24.968 13.762,24.905 L 13.619,24.095 C 14.031,24.158 14.349,24.19 14.571,24.19 14.793,24.19 14.936,23.904 15,23.333 H 11.285 C 11.412,22.476 11.524,21.555 11.619,20.571 H 10.952 V 19.714 H 11.714 C 11.778,18.825 11.825,17.905 11.857,16.952 M 12.571,19.714 H 15.285 C 15.317,19.047 15.333,18.397 15.333,17.762 H 12.714 C 12.682,18.46 12.635,19.111 12.571,19.714 M 13.763,18 C 14.112,18.222 14.43,18.476 14.716,18.762 L 14.144,19.476 C 13.859,19.159 13.541,18.873 13.192,18.619 L 13.763,18 M 15.096,22.524 C 15.16,21.857 15.207,21.206 15.239,20.571 H 12.525 C 12.461,21.27 12.382,21.921 12.287,22.524 H 15.096 M 13.62,20.81 C 14.001,21.032 14.35,21.286 14.668,21.571 L 14.048,22.286 C 13.731,21.937 13.398,21.635 13.048,21.381 L 13.62,20.81 M 8.6199,15.143 V 22.619 H 7.7628 V 21.81 H 6.9533 V 23.048 H 6.0961 V 15.143 H 8.6199 M 6.9532,21 H 7.7627 V 15.952 H 6.9532 V 21"
     style="opacity:0.2" />
  <path
     id="path10"
     d="M 21,10 11,1 V 20 L 21,29 Z"
     style="fill:#a3a3a3" />
  <path
     id="path12"
     d="M 11,1 V 20 H 28.5 C 29.331,20 30,19.331 30,18.5 V 2.5 C 30,1.669 29.331,1 28.5,1 Z"
     style="opacity:0.5;filter:url(#filter60181)" />
  <path
     id="path14"
     d="M 11,1 V 20 H 28.5 C 29.331,20 30,19.331 30,18.5 V 2.5 C 30,1.669 29.331,1 28.5,1 Z"
     style="fill:#2095f2" />
  <path
     id="path18"
     d="M 19.277,11.445 19.547,10.433 C 19.851,9.3361 20.137,8.0539 20.407,6.8897 H 20.475 C 20.762,8.0369 21.065,9.336 21.369,10.433 L 21.622,11.445 H 19.277 M 22.804,16 H 25.436 L 21.994,5 H 19.008 L 15.566,16 H 18.097 L 18.772,13.385 H 22.129 L 22.804,16"
     style="fill:#ffffff" />
</svg>
