<?xml version="1.0" encoding="UTF-8" standalone="no"?>
<svg
   xmlns:dc="http://purl.org/dc/elements/1.1/"
   xmlns:cc="http://creativecommons.org/ns#"
   xmlns:rdf="http://www.w3.org/1999/02/22-rdf-syntax-ns#"
   xmlns:svg="http://www.w3.org/2000/svg"
   xmlns="http://www.w3.org/2000/svg"
   xmlns:xlink="http://www.w3.org/1999/xlink"
   xmlns:sodipodi="http://sodipodi.sourceforge.net/DTD/sodipodi-0.dtd"
   xmlns:inkscape="http://www.inkscape.org/namespaces/inkscape"
   inkscape:version="1.0.2 (e86c870879, 2021-01-15)"
   sodipodi:docname="preferences-desktop-theme.svg"
   id="svg24"
   version="1"
   height="32"
   width="32">
  <metadata
     id="metadata30">
    <rdf:RDF>
      <cc:Work
         rdf:about="">
        <dc:format>image/svg+xml</dc:format>
        <dc:type
           rdf:resource="http://purl.org/dc/dcmitype/StillImage" />
        <dc:title></dc:title>
      </cc:Work>
    </rdf:RDF>
  </metadata>
  <defs
     id="defs28">
    <filter
       inkscape:collect="always"
       style="color-interpolation-filters:sRGB"
       id="filter1753"
       x="-0.075"
       width="1.15"
       y="-0.075"
       height="1.15">
      <feGaussianBlur
         inkscape:collect="always"
         stdDeviation="0.875"
         id="feGaussianBlur1755" />
    </filter>
    <linearGradient
       inkscape:collect="always"
       xlink:href="#linearGradient1275"
       id="linearGradient2127"
       x1="5.1018734"
       y1="28.931631"
       x2="26.093098"
       y2="8.7072134"
       gradientUnits="userSpaceOnUse" />
    <linearGradient
       inkscape:collect="always"
       id="linearGradient1275">
      <stop
         style="stop-color:#7348ff;stop-opacity:1"
         offset="0"
         id="stop1271" />
      <stop
         style="stop-color:#b95bdc;stop-opacity:1"
         offset="1"
         id="stop1273" />
    </linearGradient>
  </defs>
  <sodipodi:namedview
     inkscape:document-rotation="0"
     inkscape:current-layer="svg24"
     inkscape:window-maximized="1"
     inkscape:window-y="0"
     inkscape:window-x="0"
     inkscape:cy="16.056706"
     inkscape:cx="-14.513757"
     inkscape:zoom="12.291667"
     showgrid="false"
     id="namedview26"
     inkscape:window-height="1000"
     inkscape:window-width="1920"
     inkscape:pageshadow="2"
     inkscape:pageopacity="0"
     guidetolerance="10"
     gridtolerance="10"
     objecttolerance="10"
     borderopacity="1"
     bordercolor="#666666"
     pagecolor="#ffffff"
     showguides="false" />
  <rect
     id="rect4"
     ry="1.735382"
     rx="1.735382"
     y="2"
     x="2"
     height="28"
     width="28"
     style="fill:#000000;fill-opacity:1;stroke-width:0.5;filter:url(#filter1753);opacity:0.5" />
  <path
     id="rect4-6-4"
     style="fill:url(#linearGradient2127);fill-opacity:1.0;stroke-width:0.5"
     d="M 3.736328,2 C 2.774926,2 2,2.7729741 2,3.7343751 V 6.0000001 28.263672 C 2,29.225074 2.774926,30 3.736328,30 H 28.265625 C 29.227026,30 30,29.225074 30,28.263672 V 6.0000001 3.7343751 C 30,2.7729741 29.227026,2 28.265625,2 Z" />
  <path
     id="path1714"
     style="fill:#000000;fill-opacity:1;stroke-width:0.5;opacity:0.2"
     d="M 2,6 H 30 V 3.734375 C 30,2.772974 29.227026,2 28.265625,2 H 3.736328 C 2.774926,2 2,2.772974 2,3.734375 Z" />
  <circle
     r="1"
     id="circle10"
     cy="4"
     cx="4"
     style="opacity:0.3;fill:#fafafa;stroke-width:0.25" />
  <circle
     r="1"
     id="circle14"
     cy="4"
     cx="6.5"
     style="opacity:0.3;fill:#fafafa;stroke-width:0.25" />
  <circle
     r="1"
     id="circle18"
     cy="4"
     cx="9"
     style="opacity:0.3;fill:#fafafa;stroke-width:0.25" />
  <path
     id="path2198-2"
     style="fill:#fafafa;fill-opacity:1;stroke:none;stroke-width:0.67686;stroke-miterlimit:4;stroke-dasharray:none;stroke-opacity:1;opacity:0.5"
     d="M 10.34375,23.65625 A 8,8 0 0 0 16,26 8,8 0 0 0 24,18 8,8 0 0 0 21.65625,12.34375 Z" />
  <path
     id="path2266"
     style="fill:#000000;fill-opacity:1;stroke:none;stroke-width:0.67686;stroke-miterlimit:4;stroke-dasharray:none;stroke-opacity:1;opacity:0.5"
     d="m 8,18 a 8,8 0 0 0 2.34375,5.65625 l 11.3125,-11.3125 A 8,8 0 0 0 16,10 8,8 0 0 0 8,18 Z" />
</svg>
