<?xml version="1.0" encoding="UTF-8" standalone="no"?>
<svg
   xmlns:dc="http://purl.org/dc/elements/1.1/"
   xmlns:cc="http://creativecommons.org/ns#"
   xmlns:rdf="http://www.w3.org/1999/02/22-rdf-syntax-ns#"
   xmlns:svg="http://www.w3.org/2000/svg"
   xmlns="http://www.w3.org/2000/svg"
   xmlns:xlink="http://www.w3.org/1999/xlink"
   xmlns:sodipodi="http://sodipodi.sourceforge.net/DTD/sodipodi-0.dtd"
   xmlns:inkscape="http://www.inkscape.org/namespaces/inkscape"
   width="32"
   height="32"
   version="1"
   id="svg20"
   sodipodi:docname="preferences-system-login.svg"
   inkscape:version="1.0.1 (3bc2e813f5, 2020-09-07)">
  <metadata
     id="metadata26">
    <rdf:RDF>
      <cc:Work
         rdf:about="">
        <dc:format>image/svg+xml</dc:format>
        <dc:type
           rdf:resource="http://purl.org/dc/dcmitype/StillImage" />
      </cc:Work>
    </rdf:RDF>
  </metadata>
  <defs
     id="defs24">
    <linearGradient
       inkscape:collect="always"
       id="linearGradient878">
      <stop
         style="stop-color:#51ffb8;stop-opacity:1"
         offset="0"
         id="stop874" />
      <stop
         style="stop-color:#5b11ff;stop-opacity:1"
         offset="1"
         id="stop876" />
    </linearGradient>
    <linearGradient
       inkscape:collect="always"
       xlink:href="#linearGradient878"
       id="linearGradient880"
       x1="-0.076997213"
       y1="31.762823"
       x2="31.824318"
       y2="0.10444862"
       gradientUnits="userSpaceOnUse"
       gradientTransform="translate(-32,-32)" />
    <filter
       inkscape:collect="always"
       style="color-interpolation-filters:sRGB"
       id="filter60109"
       x="-0.07499992"
       width="1.1499998"
       y="-0.07500008"
       height="1.1500002">
      <feGaussianBlur
         inkscape:collect="always"
         stdDeviation="0.75043421"
         id="feGaussianBlur60111" />
    </filter>
    <filter
       inkscape:collect="always"
       style="color-interpolation-filters:sRGB"
       id="filter60113"
       x="-0.075"
       width="1.15"
       y="-0.075"
       height="1.15">
      <feGaussianBlur
         inkscape:collect="always"
         stdDeviation="0.875"
         id="feGaussianBlur60115" />
    </filter>
  </defs>
  <sodipodi:namedview
     inkscape:document-rotation="0"
     pagecolor="#ffffff"
     bordercolor="#666666"
     borderopacity="1"
     objecttolerance="10"
     gridtolerance="10"
     guidetolerance="10"
     inkscape:pageopacity="0"
     inkscape:pageshadow="2"
     inkscape:window-width="1920"
     inkscape:window-height="1000"
     id="namedview22"
     showgrid="false"
     inkscape:zoom="23.8125"
     inkscape:cx="13.900262"
     inkscape:cy="16"
     inkscape:window-x="0"
     inkscape:window-y="0"
     inkscape:window-maximized="1"
     inkscape:current-layer="svg20" />
  <rect
     id="rect2-5"
     ry="14"
     rx="14"
     y="2"
     x="2"
     height="28"
     width="28"
     fill="#5db43e"
     style="fill:#030602;fill-opacity:1;opacity:0.5;filter:url(#filter60113)" />
  <rect
     fill="#5db43e"
     width="28"
     height="28"
     x="-30"
     y="-30"
     rx="14"
     ry="14"
     id="rect2"
     style="fill:url(#linearGradient880);fill-opacity:1"
     transform="scale(-1)" />
  <g
     opacity=".2"
     transform="matrix(0.66628,0,0,0.66628,7.9999,8.0000373)"
     id="g10"
     style="opacity:0.5;filter:url(#filter60109)">
    <g
       id="g8">
      <path
         d="m 24.013,0.001 c 0,0 -3.601,-0.101 -7.2,1.7 -1.1,0.5 -2.3,1.3 -3.3,2.3 -1.617,1.617 -4.129,4.594 -6.107,7 H 3.013 l -2,3 3.392,0.917 c 0.01,0.121 0.042,0.292 0.136,0.523 L 4.014,16.6 c 0,0 -0.2,0.4 1.3,2 1.6,1.601 2.1,1.4 2.1,1.4 l 1.243,-0.564 c 0.186,0.058 0.324,0.078 0.414,0.078 l 0.943,3.486 3,-2 v -4.527 c 2.423,-1.959 5.396,-4.421 7,-5.973 1,-1 1.8,-2.2 2.399,-3.3 1.699,-3.599 1.6,-7.199 1.6,-7.199 z m -7,9 c -1.101,0 -2,-0.9 -2,-2 0,-1.101 0.899,-2 2,-2 1.1,0 2,0.899 2,2 0,1.1 -0.901,2 -2,2 z m -10.5,12 c 0.2,0.101 0.3,0.2 0.5,0.3 -0.2,0.2 -0.4,0.5 -0.601,0.7 -2.301,2.3 -6.399,2 -6.399,2 0,0 -0.3,-4.101 2,-6.399 0.2,-0.201 0.5,-0.399 0.7,-0.601 0.1,0.2 0.199,0.3 0.3,0.5 -1.5,1.899 -1.3,4.8 -1.3,4.8 0,0 2.899,0.2 4.8,-1.3 z"
         id="path6" />
    </g>
  </g>
  <g
     fill="#fff"
     transform="matrix(.66628 0 0 .66628 7.9999 8)"
     id="g16">
    <g
       id="g14">
      <path
         style="opacity:1"
         d="m24.013 0.001s-3.601-0.101-7.2 1.7c-1.1 0.5-2.3 1.3-3.3 2.3-1.617 1.617-4.129 4.594-6.107 7h-4.393l-2 3 3.392 0.917c0.01 0.121 0.042 0.292 0.136 0.523l-0.527 1.159s-0.2 0.4 1.3 2c1.6 1.601 2.1 1.4 2.1 1.4l1.243-0.564c0.186 0.058 0.324 0.078 0.414 0.078l0.943 3.486 3-2v-4.527c2.423-1.959 5.396-4.421 7-5.973 1-1 1.8-2.2 2.399-3.3 1.699-3.599 1.6-7.199 1.6-7.199zm-7 9c-1.101 0-2-0.9-2-2 0-1.101 0.899-2 2-2 1.1 0 2 0.899 2 2 0 1.1-0.901 2-2 2zm-10.5 12c0.2 0.101 0.3 0.2 0.5 0.3-0.2 0.2-0.4 0.5-0.601 0.7-2.301 2.3-6.399 2-6.399 2s-0.3-4.101 2-6.399c0.2-0.201 0.5-0.399 0.7-0.601 0.1 0.2 0.199 0.3 0.3 0.5-1.5 1.899-1.3 4.8-1.3 4.8s2.899 0.2 4.8-1.3z"
         id="path12" />
    </g>
  </g>
</svg>
