<?xml version="1.0" encoding="UTF-8" standalone="no"?>
<svg
   xmlns:dc="http://purl.org/dc/elements/1.1/"
   xmlns:cc="http://creativecommons.org/ns#"
   xmlns:rdf="http://www.w3.org/1999/02/22-rdf-syntax-ns#"
   xmlns:svg="http://www.w3.org/2000/svg"
   xmlns="http://www.w3.org/2000/svg"
   xmlns:sodipodi="http://sodipodi.sourceforge.net/DTD/sodipodi-0.dtd"
   xmlns:inkscape="http://www.inkscape.org/namespaces/inkscape"
   inkscape:version="1.0.1 (3bc2e813f5, 2020-09-07)"
   sodipodi:docname="preferences-desktop-default-applications.svg"
   id="svg16"
   version="1"
   height="32"
   width="32">
  <metadata
     id="metadata22">
    <rdf:RDF>
      <cc:Work
         rdf:about="">
        <dc:format>image/svg+xml</dc:format>
        <dc:type
           rdf:resource="http://purl.org/dc/dcmitype/StillImage" />
      </cc:Work>
    </rdf:RDF>
  </metadata>
  <defs
     id="defs20">
    <filter
       inkscape:collect="always"
       style="color-interpolation-filters:sRGB"
       id="filter60197"
       x="-0.073706913"
       width="1.1474138"
       y="-0.076339268"
       height="1.1526785">
      <feGaussianBlur
         inkscape:collect="always"
         stdDeviation="0.89062505"
         id="feGaussianBlur60199" />
    </filter>
    <filter
       inkscape:collect="always"
       style="color-interpolation-filters:sRGB"
       id="filter60201"
       x="-0.076453312"
       width="1.1529066"
       y="-0.073574314"
       height="1.1471486">
      <feGaussianBlur
         inkscape:collect="always"
         stdDeviation="0.4375"
         id="feGaussianBlur60203" />
    </filter>
  </defs>
  <sodipodi:namedview
     inkscape:current-layer="svg16"
     inkscape:window-maximized="1"
     inkscape:window-y="0"
     inkscape:window-x="0"
     inkscape:cy="16"
     inkscape:cx="14.950131"
     inkscape:zoom="23.8125"
     showgrid="false"
     id="namedview18"
     inkscape:window-height="1000"
     inkscape:window-width="1920"
     inkscape:pageshadow="2"
     inkscape:pageopacity="0"
     guidetolerance="10"
     gridtolerance="10"
     objecttolerance="10"
     borderopacity="1"
     bordercolor="#666666"
     pagecolor="#ffffff"
     inkscape:document-rotation="0" />
  <path
     id="path2"
     d="m 16.500018,1.9999957 c -1.3072,0.018684 -2.23945,0.8061022 -2.676954,2.1095813 L 13.839254,4.050788 11.78535,9.9999975 H 4.8589765 c -0.015101,-2.43e-4 -0.029402,-2.43e-4 -0.044503,0 -0.8271286,0.02681 -1.5729434,0.5127295 -2.0984081,1.1524645 -1.1364238,1.304495 -0.8955596,3.357028 0.547528,4.329906 l 5.4456121,3.979903 -2.1132428,6.865584 c -0.00235,0.0073 -0.00454,0.01457 -0.00675,0.02188 -0.3229059,1.060759 -0.019256,2.153602 0.792972,2.901188 0.00587,0.0055 0.012871,0.01102 0.018878,0.01641 0.9760436,0.867686 2.3474429,0.977965 3.4496963,0.259767 0.02097,-0.01357 0.04182,-0.02773 0.06203,-0.04239 l 5.587222,-4.034593 5.587214,4.034591 c 0.02021,0.01466 0.04106,0.02882 0.06203,0.04239 1.102254,0.718198 2.473653,0.607919 3.449697,-0.259767 0.006,-0.0054 0.01297,-0.01089 0.01888,-0.01641 0.812227,-0.747586 1.115878,-1.840429 0.792972,-2.901188 -0.0022,-0.0073 -0.0044,-0.01461 -0.0068,-0.02188 l -2.113214,-6.865584 5.445612,-3.979903 c 1.443087,-0.972878 1.683952,-3.025411 0.547528,-4.329906 -0.525464,-0.639735 -1.27128,-1.125655 -2.098408,-1.1524645 -0.0151,-2.43e-4 -0.02941,-2.43e-4 -0.04451,0 h -6.926317 l -2.053904,-5.9492079 0.01619,0.058789 C 18.739468,2.8060979 17.807218,2.0186795 16.500018,1.9999957 Z"
     style="opacity:0.5;filter:url(#filter60197)" />
  <path
     id="path4"
     d="m 16.500018,1.999999 c -1.3072,0.018684 -2.23945,0.8061022 -2.676954,2.1095813 l 0.01619,-0.058789 -2.053904,5.9492097 H 4.8589765 c -0.015101,-2.43e-4 -0.029402,-2.43e-4 -0.044503,0 -0.8271286,0.02681 -1.5729434,0.51273 -2.0984081,1.152465 -1.1364238,1.304495 -0.8955596,3.357028 0.547528,4.329906 l 5.4456121,3.979903 -2.1132428,6.865584 c -0.00235,0.0073 -0.00454,0.01457 -0.00675,0.02188 -0.3229059,1.060759 -0.019256,2.153602 0.792972,2.901188 0.00587,0.0055 0.012871,0.01102 0.018878,0.01641 0.9760436,0.867686 2.3474429,0.977965 3.4496963,0.259767 0.02097,-0.01357 0.04182,-0.02773 0.06203,-0.04239 l 5.587222,-4.034593 5.587214,4.034591 c 0.02021,0.01466 0.04106,0.02882 0.06203,0.04239 1.102254,0.718198 2.473653,0.607919 3.449697,-0.259767 0.006,-0.0054 0.01297,-0.01089 0.01888,-0.01641 0.812227,-0.747586 1.115878,-1.840429 0.792972,-2.901188 -0.0022,-0.0073 -0.0044,-0.01461 -0.0068,-0.02188 L 24.29079,19.462273 29.736402,15.48237 c 1.443087,-0.972878 1.683952,-3.025411 0.547528,-4.329906 -0.525464,-0.639735 -1.27128,-1.125655 -2.098408,-1.152465 -0.0151,-2.43e-4 -0.02941,-2.43e-4 -0.04451,0 H 21.214695 L 19.160791,4.0507909 19.176976,4.10958 C 18.739468,2.8061012 17.807218,2.0186828 16.500018,1.999999 Z"
     style="fill:#ffb609;fill-opacity:1" />
  <g
     id="g8"
     transform="matrix(0.72812678,0,0,0.70070775,-0.64285672,-0.74311367)"
     style="font-size:19.9042px;line-height:1.25;letter-spacing:0px;word-spacing:0px;opacity:0.5;filter:url(#filter60201)">
    <path
       id="path6"
       d="m 27.166338,31.600702 -1.035017,-2.854257 h -5.175082 l -1.035017,2.854257 h -3.244378 l 5.015849,-14.271285 h 3.68227 l 5.035753,14.271285 z m -1.751567,-5.708514 -1.870991,-6.353409 -1.831183,6.353409 z" />
  </g>
  <g
     id="g12"
     transform="matrix(0.72812678,0,0,0.70070775,-0.64285672,-1.1428568)"
     style="font-size:19.90416336px;line-height:1.25;letter-spacing:0px;word-spacing:0px;fill:#ffffff">
    <path
       id="path10"
       d="m 27.166338,31.600702 -1.035017,-2.854257 h -5.175082 l -1.035017,2.854257 h -3.244378 l 5.015849,-14.271285 h 3.68227 l 5.035753,14.271285 z m -1.751567,-5.708514 -1.870991,-6.353409 -1.831183,6.353409 z"
       style="fill:#ffffff" />
  </g>
</svg>
