<?xml version="1.0" encoding="UTF-8" standalone="no"?>
<svg
   xmlns:dc="http://purl.org/dc/elements/1.1/"
   xmlns:cc="http://creativecommons.org/ns#"
   xmlns:rdf="http://www.w3.org/1999/02/22-rdf-syntax-ns#"
   xmlns:svg="http://www.w3.org/2000/svg"
   xmlns="http://www.w3.org/2000/svg"
   xmlns:sodipodi="http://sodipodi.sourceforge.net/DTD/sodipodi-0.dtd"
   xmlns:inkscape="http://www.inkscape.org/namespaces/inkscape"
   width="32"
   height="32"
   version="1"
   id="svg10"
   sodipodi:docname="preferences-system-parental-controls.svg"
   inkscape:version="1.0.1 (3bc2e813f5, 2020-09-07)">
  <metadata
     id="metadata16">
    <rdf:RDF>
      <cc:Work
         rdf:about="">
        <dc:format>image/svg+xml</dc:format>
        <dc:type
           rdf:resource="http://purl.org/dc/dcmitype/StillImage" />
      </cc:Work>
    </rdf:RDF>
  </metadata>
  <defs
     id="defs14">
    <filter
       inkscape:collect="always"
       style="color-interpolation-filters:sRGB"
       id="filter60097"
       x="-0.075"
       width="1.15"
       y="-0.075"
       height="1.15">
      <feGaussianBlur
         inkscape:collect="always"
         stdDeviation="0.875"
         id="feGaussianBlur60099" />
    </filter>
  </defs>
  <sodipodi:namedview
     inkscape:document-rotation="0"
     pagecolor="#ffffff"
     bordercolor="#666666"
     borderopacity="1"
     objecttolerance="10"
     gridtolerance="10"
     guidetolerance="10"
     inkscape:pageopacity="0"
     inkscape:pageshadow="2"
     inkscape:window-width="1920"
     inkscape:window-height="1000"
     id="namedview12"
     showgrid="false"
     inkscape:zoom="23.8125"
     inkscape:cx="13.900262"
     inkscape:cy="16"
     inkscape:window-x="0"
     inkscape:window-y="0"
     inkscape:window-maximized="1"
     inkscape:current-layer="svg10" />
  <rect
     transform="rotate(90)"
     style="opacity:0.5;fill:#080600;fill-opacity:1;filter:url(#filter60097)"
     id="rect2-3"
     ry="3.6819994"
     rx="3.6819994"
     y="-30"
     x="2"
     height="28"
     width="28"
     fill="#fecd38" />
  <rect
     fill="#fecd38"
     width="28"
     height="28"
     x="2"
     y="-30"
     rx="3.5576992"
     ry="3.5576992"
     id="rect2"
     style="fill:#fecd38;fill-opacity:1"
     transform="rotate(90)" />
  <path
     fill="#333"
     d="m13.524 7c-1.3807 0-2.5 1.1193-2.5 2.5s1.1193 2.5 2.5 2.5 2.5-1.1193 2.5-2.5-1.1193-2.5-2.5-2.5zm-2 6c-0.40393-0.0003-0.76839 0.24241-0.92383 0.61523l-2.5 5c-0.55277 1.2466 1.3492 2.0396 1.8457 0.76954l1.1094-2.6602-0.0352 0.27539v7c0 0.554 0.446 1 1 1h0.004c0.554 0 1-0.446 1-1l-0.004-4h1l0.004 4c0.00055 0.554 0.446 1 1 1s1-0.446 1-1l-0.004-7-0.0371-0.29883 1.1172 2.6836c0.22306 0.56903 0.89986 0.80664 1.4297 0.50195l1.5293-0.082c-0.0133 0.0652-0.0391 0.12606-0.0391 0.19531v4.5c0 0.277 0.223 0.5 0.5 0.5s0.5-0.223 0.5-0.5l-0.004-2.5h1.0039l0.004 2.5c0.00043 0.277 0.223 0.5 0.5 0.5s0.5-0.223 0.5-0.5v-3.791l1.1426 1.1445c0.47126 0.49077 1.1978-0.23578 0.70704-0.70704l-1.9961-2c-0.0938-0.0938-0.22091-0.14645-0.35351-0.14648h-1.8652l-1.627 0.0215c0.00009-0.13993-0.0292-0.27833-0.0859-0.40625l-2.5-5c-0.15517-0.37216-0.51865-0.61474-0.92187-0.61523zm9.9961 1.75c-0.96354 0-1.75 0.78646-1.75 1.75s0.78646 1.75 1.75 1.75 1.75-0.78646 1.75-1.75-0.78646-1.75-1.75-1.75z"
     id="path4" />
</svg>
