<?xml version="1.0" encoding="UTF-8" standalone="no"?>
<svg
   xmlns:dc="http://purl.org/dc/elements/1.1/"
   xmlns:cc="http://creativecommons.org/ns#"
   xmlns:rdf="http://www.w3.org/1999/02/22-rdf-syntax-ns#"
   xmlns:svg="http://www.w3.org/2000/svg"
   xmlns="http://www.w3.org/2000/svg"
   xmlns:sodipodi="http://sodipodi.sourceforge.net/DTD/sodipodi-0.dtd"
   xmlns:inkscape="http://www.inkscape.org/namespaces/inkscape"
   inkscape:version="1.0.2 (e86c870879, 2021-01-15)"
   sodipodi:docname="display-brightness.svg"
   id="svg12"
   version="1"
   height="32"
   width="32">
  <metadata
     id="metadata18">
    <rdf:RDF>
      <cc:Work
         rdf:about="">
        <dc:format>image/svg+xml</dc:format>
        <dc:type
           rdf:resource="http://purl.org/dc/dcmitype/StillImage" />
      </cc:Work>
    </rdf:RDF>
  </metadata>
  <defs
     id="defs16">
    <filter
       inkscape:collect="always"
       style="color-interpolation-filters:sRGB"
       id="filter1062"
       x="-0.075"
       width="1.15"
       y="-0.075"
       height="1.15">
      <feGaussianBlur
         inkscape:collect="always"
         stdDeviation="0.875"
         id="feGaussianBlur1064" />
    </filter>
  </defs>
  <sodipodi:namedview
     inkscape:current-layer="svg12"
     inkscape:window-maximized="1"
     inkscape:window-y="0"
     inkscape:window-x="0"
     inkscape:cy="-0.92812325"
     inkscape:cx="9.0927702"
     inkscape:zoom="11.90625"
     showgrid="false"
     id="namedview14"
     inkscape:window-height="999"
     inkscape:window-width="1920"
     inkscape:pageshadow="2"
     inkscape:pageopacity="0"
     guidetolerance="10"
     gridtolerance="10"
     objecttolerance="10"
     borderopacity="1"
     bordercolor="#666666"
     pagecolor="#ffffff"
     inkscape:document-rotation="0" />
  <path
     id="rect836-9"
     style="opacity:0.5;fill:#000000;stroke-width:0.717093;stroke-linecap:round;stroke-linejoin:round;filter:url(#filter1062)"
     d="m 16,2.0000005 c -1.108,0 -2,0.892 -2,2 v 2.203125 a 10,10 0 0 0 -3.513672,1.455078 L 8.9296879,6.1015625 c -0.7834743,-0.783474 -2.0466038,-0.783474 -2.8300781,0 -0.7834743,0.783475 -0.7834743,2.044651 0,2.828125 L 7.6562504,10.486328 A 10,10 0 0 0 6.2031254,14 h -2.203125 c -1.108,0 -2,0.892 -2,2 0,1.108 0.892,2 2,2 h 2.203125 a 10,10 0 0 0 1.4550781,3.513672 l -1.5585937,1.558594 c -0.7834743,0.783474 -0.7834743,2.044651 0,2.828125 0.7834743,0.783474 2.0466038,0.783474 2.8300781,0 L 10.486328,24.34375 A 10,10 0 0 0 14,25.798828 V 28 c 0,1.108 0.892,2 2,2 1.108,0 2,-0.892 2,-2 v -2.203125 a 10,10 0 0 0 3.511719,-1.455078 l 1.558593,1.558594 c 0.783475,0.783474 2.046604,0.783474 2.830079,0 0.783474,-0.783474 0.783474,-2.044651 0,-2.828125 L 24.34375,21.515625 A 10,10 0 0 0 25.798828,18 H 28 c 1.108,0 2,-0.892 2,-2 0,-1.108 -0.892,-2 -2,-2 h -2.203125 a 10,10 0 0 0 -1.455078,-3.511719 l 1.558594,-1.5585935 c 0.783474,-0.783474 0.783474,-2.04465 0,-2.828125 -0.783475,-0.783474 -2.046604,-0.783474 -2.830079,0 l -1.55664,1.556641 A 10,10 0 0 0 18,6.2031255 v -2.203125 c 0,-1.108 -0.892,-2 -2,-2 z" />
  <path
     id="rect836-36"
     style="fill:#4d4d4d;stroke-width:0.717093;stroke-linecap:round;stroke-linejoin:round;fill-opacity:1"
     d="m 16,2.0000001 c -1.108,0 -2,0.892 -2,2 v 2.203125 a 10,10 0 0 0 -3.513672,1.453125 L 8.929687,6.0996091 c -0.783474,-0.783474 -2.046604,-0.783474 -2.830078,0 -0.783474,0.783474 -0.783474,2.044651 0,2.828125 L 7.65625,10.484375 A 10,10 0 0 0 6.201171,14 H 4 c -1.108,0 -2,0.892 -2,2 0,1.108 0.892,2 2,2 h 2.203124 a 10,10 0 0 0 1.455079,3.511719 l -1.558594,1.558593 c -0.783474,0.783475 -0.783474,2.044651 0,2.828125 0.783474,0.783475 2.046604,0.783475 2.830078,0 l 1.556641,-1.55664 A 10,10 0 0 0 14,25.796875 V 28 c 0,1.108 0.892,2 2,2 1.108,0 2,-0.892 2,-2 v -2.205078 a 10,10 0 0 0 3.513671,-1.453125 l 1.556641,1.55664 c 0.783474,0.783475 2.046604,0.783475 2.830078,0 0.783474,-0.783474 0.783474,-2.04465 0,-2.828125 l -1.55664,-1.55664 A 10,10 0 0 0 25.796874,18 H 28 c 1.108,0 2,-0.892 2,-2 0,-1.108 -0.892,-2 -2,-2 H 25.796874 A 10,10 0 0 0 24.341796,10.486328 L 25.90039,8.9277341 c 0.783474,-0.783474 0.783474,-2.044651 0,-2.828125 -0.783474,-0.783474 -2.046604,-0.783474 -2.830078,0 l -1.556641,1.556641 A 10,10 0 0 0 18,6.2011721 v -2.201172 c -1e-6,-1.108 -0.892,-2 -2,-2 z" />
  <path
     id="path834-5"
     style="fill:#ffffff;stroke-width:0.875985;stroke-linecap:round;stroke-linejoin:round"
     d="M 16 10 A 6 6 0 0 0 10 16 A 6 6 0 0 0 16 22 L 16 10 z " />
</svg>
