<?xml version="1.0" encoding="UTF-8" standalone="no"?>
<svg
   xmlns:dc="http://purl.org/dc/elements/1.1/"
   xmlns:cc="http://creativecommons.org/ns#"
   xmlns:rdf="http://www.w3.org/1999/02/22-rdf-syntax-ns#"
   xmlns:svg="http://www.w3.org/2000/svg"
   xmlns="http://www.w3.org/2000/svg"
   xmlns:xlink="http://www.w3.org/1999/xlink"
   xmlns:sodipodi="http://sodipodi.sourceforge.net/DTD/sodipodi-0.dtd"
   xmlns:inkscape="http://www.inkscape.org/namespaces/inkscape"
   inkscape:version="1.0.1 (3bc2e813f5, 2020-09-07)"
   sodipodi:docname="internet-archive.svg"
   id="svg7"
   version="1.1"
   viewBox="0 0 32 32"
   height="32"
   width="32">
  <metadata
     id="metadata11">
    <rdf:RDF>
      <cc:Work
         rdf:about="">
        <dc:format>image/svg+xml</dc:format>
        <dc:type
           rdf:resource="http://purl.org/dc/dcmitype/StillImage" />
        <dc:title />
      </cc:Work>
    </rdf:RDF>
  </metadata>
  <sodipodi:namedview
     inkscape:document-rotation="0"
     inkscape:guide-bbox="true"
     showguides="true"
     inkscape:current-layer="svg7"
     inkscape:window-maximized="1"
     inkscape:window-y="0"
     inkscape:window-x="0"
     inkscape:cy="10.173808"
     inkscape:cx="-5.1152334"
     inkscape:zoom="8"
     showgrid="false"
     id="namedview9"
     inkscape:window-height="1001"
     inkscape:window-width="1920"
     inkscape:pageshadow="2"
     inkscape:pageopacity="0"
     guidetolerance="10"
     gridtolerance="10"
     objecttolerance="10"
     borderopacity="1"
     bordercolor="#666666"
     pagecolor="#ffffff">
    <sodipodi:guide
       inkscape:locked="false"
       id="guide1669"
       orientation="1,0"
       position="-230.10932,158.77543" />
    <sodipodi:guide
       inkscape:locked="false"
       id="guide1671"
       orientation="0,1"
       position="483.22958,554.56347" />
    <inkscape:grid
       id="grid920"
       type="xygrid" />
  </sodipodi:namedview>
  <defs
     id="defs3">
    <linearGradient
       inkscape:collect="always"
       id="linearGradient855">
      <stop
         style="stop-color:#31e377;stop-opacity:1"
         offset="0"
         id="stop851" />
      <stop
         style="stop-color:#39b6ff;stop-opacity:1"
         offset="1"
         id="stop853" />
    </linearGradient>
    <linearGradient
       inkscape:collect="always"
       id="linearGradient1619">
      <stop
         style="stop-color:#ffffff;stop-opacity:1"
         offset="0"
         id="stop1615" />
      <stop
         style="stop-color:#ffffff;stop-opacity:0"
         offset="1"
         id="stop1617" />
    </linearGradient>
    <linearGradient
       inkscape:collect="always"
       id="linearGradient897">
      <stop
         style="stop-color:#000000;stop-opacity:1"
         offset="0"
         id="stop893" />
      <stop
         style="stop-color:#000000;stop-opacity:0"
         offset="1"
         id="stop895" />
    </linearGradient>
    <style
       type="text/css"
       id="current-color-scheme">
   .ColorScheme-Text { color:#444444; } .ColorScheme-Highlight { color:#4285f4; }
  </style>
    <linearGradient
       gradientUnits="userSpaceOnUse"
       y2="168.38544"
       x2="257.93704"
       y1="35.284233"
       x1="256.08066"
       id="linearGradient867-4"
       xlink:href="#linearGradient897"
       inkscape:collect="always"
       gradientTransform="translate(1.5097656e-5,-512)" />
    <linearGradient
       gradientTransform="translate(1.0000016,1.9999974)"
       gradientUnits="userSpaceOnUse"
       y2="249.49153"
       x2="264.83051"
       y1="106.30508"
       x1="307.37286"
       id="linearGradient1589-6"
       xlink:href="#linearGradient1619"
       inkscape:collect="always" />
    <filter
       inkscape:collect="always"
       style="color-interpolation-filters:sRGB"
       id="filter2340"
       x="-0.075"
       width="1.15"
       y="-0.075"
       height="1.15">
      <feGaussianBlur
         inkscape:collect="always"
         stdDeviation="0.875"
         id="feGaussianBlur2342" />
    </filter>
    <linearGradient
       inkscape:collect="always"
       xlink:href="#linearGradient855"
       id="linearGradient857"
       x1="-26.748611"
       y1="-25.017548"
       x2="-5.600769"
       y2="-6.5116234"
       gradientUnits="userSpaceOnUse" />
    <filter
       inkscape:collect="always"
       style="color-interpolation-filters:sRGB"
       id="filter919"
       x="-0.065625"
       width="1.13125"
       y="-0.0875"
       height="1.175">
      <feGaussianBlur
         inkscape:collect="always"
         stdDeviation="0.4375"
         id="feGaussianBlur921" />
    </filter>
  </defs>
  <circle
     style="opacity:0.5;fill:#000000;fill-opacity:1;stroke:none;stroke-width:0.468019;filter:url(#filter2340)"
     id="path2108-3"
     cx="-16"
     cy="-16"
     r="14"
     transform="scale(-1)" />
  <circle
     style="opacity:1;fill:url(#linearGradient857);fill-opacity:1;stroke:none;stroke-width:0.468019"
     id="path2108"
     transform="scale(-1)"
     cy="-16"
     cx="-16"
     r="14" />
  <circle
     style="opacity:0.2;fill:#ffffff;fill-opacity:1;stroke:none;stroke-width:0.267439"
     id="path2108-5-5"
     transform="scale(-1)"
     cy="-16"
     cx="-16"
     r="8" />
  <circle
     style="opacity:0.2;fill:#ffffff;fill-opacity:1;stroke:none;stroke-width:0.334299"
     id="path2108-5-3"
     transform="scale(-1)"
     cy="-16"
     cx="-16"
     r="10" />
  <circle
     style="opacity:0.2;fill:#ffffff;fill-opacity:1;stroke:none;stroke-width:0.401159"
     id="path2108-5"
     transform="scale(-1)"
     cy="-16"
     cx="-16"
     r="12" />
  <path
     style="color:#000000;display:inline;overflow:visible;visibility:visible;fill:#000000;fill-opacity:1;fill-rule:nonzero;stroke:none;stroke-width:1.5;marker:none;enable-background:accumulate;filter:url(#filter919);opacity:0.5"
     d="m 16,10.5 c -3.118784,0 -5.956166,1.328427 -8,3.5 l 1.352942,1.4375 C 11.056136,13.627856 13.401014,12.5 16,12.5 c 2.598986,0 4.943864,1.127856 6.647059,2.9375 L 24,14 c -2.043833,-2.171573 -4.881216,-3.5 -8,-3.5 z m 0,3 c -2.339088,0 -4.467125,0.996321 -6,2.625 l 1.352942,1.4375 C 12.545178,16.29575 14.18071,15.5 16,15.5 c 1.819291,0 3.454823,0.79575 4.647059,2.0625 L 22,16.125 C 20.467125,14.496321 18.339088,13.5 16,13.5 Z m 0,3 c -1.559392,0 -2.978083,0.664214 -4,1.75 l 1.32353,1.40625 C 14.004808,18.932392 14.960406,18.5 16,18.5 c 1.039595,0 1.995193,0.432392 2.676471,1.15625 L 20,18.25 C 18.978084,17.164214 17.559393,16.5 16,16.5 Z m 0,3 c -0.779696,0 -1.489041,0.332107 -2,0.875 l 2,2.125 2,-2.125 C 17.489042,19.832107 16.779696,19.5 16,19.5 Z"
     id="path3909-6"
     inkscape:connector-curvature="0" />
  <path
     style="color:#000000;display:inline;overflow:visible;visibility:visible;fill:#ffffff;fill-opacity:1;fill-rule:nonzero;stroke:none;stroke-width:1.5;marker:none;enable-background:accumulate"
     d="m 16,10 c -3.118784,0 -5.956166,1.328427 -8,3.5 l 1.352942,1.4375 C 11.056136,13.127856 13.401014,12 16,12 c 2.598986,0 4.943864,1.127856 6.647059,2.9375 L 24,13.5 C 21.956167,11.328427 19.118784,10 16,10 Z m 0,3 c -2.339088,0 -4.467125,0.996321 -6,2.625 l 1.352942,1.4375 C 12.545178,15.79575 14.18071,15 16,15 c 1.819291,0 3.454823,0.79575 4.647059,2.0625 L 22,15.625 C 20.467125,13.996321 18.339088,13 16,13 Z m 0,3 c -1.559392,0 -2.978083,0.664214 -4,1.75 l 1.32353,1.40625 C 14.004808,18.432392 14.960406,18 16,18 c 1.039595,0 1.995193,0.432392 2.676471,1.15625 L 20,17.75 C 18.978084,16.664214 17.559393,16 16,16 Z m 0,3 c -0.779696,0 -1.489041,0.332107 -2,0.875 L 16,22 18,19.875 C 17.489042,19.332107 16.779696,19 16,19 Z"
     id="path3909"
     inkscape:connector-curvature="0" />
</svg>
