<?xml version="1.0" encoding="UTF-8" standalone="no"?>
<svg
   xmlns:dc="http://purl.org/dc/elements/1.1/"
   xmlns:cc="http://creativecommons.org/ns#"
   xmlns:rdf="http://www.w3.org/1999/02/22-rdf-syntax-ns#"
   xmlns:svg="http://www.w3.org/2000/svg"
   xmlns="http://www.w3.org/2000/svg"
   xmlns:xlink="http://www.w3.org/1999/xlink"
   xmlns:sodipodi="http://sodipodi.sourceforge.net/DTD/sodipodi-0.dtd"
   xmlns:inkscape="http://www.inkscape.org/namespaces/inkscape"
   inkscape:version="1.0.1 (3bc2e813f5, 2020-09-07)"
   sodipodi:docname="preferences-system-search.svg"
   id="svg12"
   version="1"
   height="32"
   width="32">
  <metadata
     id="metadata18">
    <rdf:RDF>
      <cc:Work
         rdf:about="">
        <dc:format>image/svg+xml</dc:format>
        <dc:type
           rdf:resource="http://purl.org/dc/dcmitype/StillImage" />
      </cc:Work>
    </rdf:RDF>
  </metadata>
  <defs
     id="defs16">
    <linearGradient
       id="linearGradient870"
       inkscape:collect="always">
      <stop
         id="stop866"
         offset="0"
         style="stop-color:#17b5fd;stop-opacity:1" />
      <stop
         id="stop868"
         offset="1"
         style="stop-color:#0186c1;stop-opacity:1" />
    </linearGradient>
    <linearGradient
       gradientTransform="translate(0,-32)"
       gradientUnits="userSpaceOnUse"
       y2="16"
       x2="30"
       y1="16"
       x1="2"
       id="linearGradient872"
       xlink:href="#linearGradient870"
       inkscape:collect="always" />
    <filter
       inkscape:collect="always"
       style="color-interpolation-filters:sRGB"
       id="filter60081"
       x="-0.075"
       width="1.15"
       y="-0.075"
       height="1.15">
      <feGaussianBlur
         inkscape:collect="always"
         stdDeviation="0.875"
         id="feGaussianBlur60083" />
    </filter>
  </defs>
  <sodipodi:namedview
     inkscape:current-layer="svg12"
     inkscape:window-maximized="1"
     inkscape:window-y="0"
     inkscape:window-x="0"
     inkscape:cy="16"
     inkscape:cx="14.950131"
     inkscape:zoom="23.8125"
     showgrid="false"
     id="namedview14"
     inkscape:window-height="1000"
     inkscape:window-width="1920"
     inkscape:pageshadow="2"
     inkscape:pageopacity="0"
     guidetolerance="10"
     gridtolerance="10"
     objecttolerance="10"
     borderopacity="1"
     bordercolor="#666666"
     pagecolor="#ffffff"
     inkscape:document-rotation="0" />
  <rect
     style="fill:#000000;fill-opacity:1;opacity:0.5;filter:url(#filter60081)"
     width="28"
     height="28"
     x="2"
     y="2"
     rx="14"
     ry="14"
     id="rect4-4" />
  <rect
     transform="rotate(90)"
     id="rect4"
     ry="14"
     rx="14"
     y="-30"
     x="2"
     height="28"
     width="28"
     style="fill:url(#linearGradient872);fill-opacity:1" />
  <path
     id="path10"
     d="m17.521 8.9945c-3.0288 0-5.5312 2.4746-5.5312 5.5 0 1.1499 0.38921 2.2078 1 3.0938l-3.6875 3.6875a1.0055 1.0055 0 0 0 1.4063 1.4375l3.6875-3.6875c0.88729 0.61091 1.973 0.96875 3.125 0.96875 3.0289 0 5.5-2.4746 5.5-5.5s-2.4711-5.5-5.5-5.5zm0 2c1.9474 0 3.5 1.5548 3.5 3.5 0 1.9451-1.5526 3.5-3.5 3.5s-3.5-1.5549-3.5-3.5c0-1.9452 1.5526-3.5 3.5-3.5z"
     fill="#fff" />
</svg>
