<?xml version="1.0" encoding="UTF-8" standalone="no"?>
<svg
   xmlns:dc="http://purl.org/dc/elements/1.1/"
   xmlns:cc="http://creativecommons.org/ns#"
   xmlns:rdf="http://www.w3.org/1999/02/22-rdf-syntax-ns#"
   xmlns:svg="http://www.w3.org/2000/svg"
   xmlns="http://www.w3.org/2000/svg"
   xmlns:xlink="http://www.w3.org/1999/xlink"
   xmlns:sodipodi="http://sodipodi.sourceforge.net/DTD/sodipodi-0.dtd"
   xmlns:inkscape="http://www.inkscape.org/namespaces/inkscape"
   width="32"
   height="32"
   version="1"
   id="svg22"
   sodipodi:docname="preferences-desktop-keyboard-shortcuts.svg"
   inkscape:version="1.0.1 (3bc2e813f5, 2020-09-07)">
  <metadata
     id="metadata28">
    <rdf:RDF>
      <cc:Work
         rdf:about="">
        <dc:format>image/svg+xml</dc:format>
        <dc:type
           rdf:resource="http://purl.org/dc/dcmitype/StillImage" />
        <dc:title />
      </cc:Work>
    </rdf:RDF>
  </metadata>
  <defs
     id="defs26">
    <linearGradient
       inkscape:collect="always"
       id="linearGradient874">
      <stop
         style="stop-color:#f0f0f0;stop-opacity:1"
         offset="0"
         id="stop870" />
      <stop
         style="stop-color:#ffffff;stop-opacity:1"
         offset="1"
         id="stop872" />
    </linearGradient>
    <linearGradient
       inkscape:collect="always"
       xlink:href="#linearGradient874"
       id="linearGradient876"
       x1="-26"
       y1="-16"
       x2="-4"
       y2="-16"
       gradientUnits="userSpaceOnUse" />
    <filter
       inkscape:collect="always"
       style="color-interpolation-filters:sRGB"
       id="filter60185"
       x="-0.075"
       width="1.15"
       y="-0.075"
       height="1.15">
      <feGaussianBlur
         inkscape:collect="always"
         stdDeviation="0.875"
         id="feGaussianBlur60187" />
    </filter>
  </defs>
  <sodipodi:namedview
     pagecolor="#ffffff"
     bordercolor="#666666"
     borderopacity="1"
     objecttolerance="10"
     gridtolerance="10"
     guidetolerance="10"
     inkscape:pageopacity="0"
     inkscape:pageshadow="2"
     inkscape:window-width="1920"
     inkscape:window-height="1000"
     id="namedview24"
     showgrid="false"
     inkscape:zoom="8"
     inkscape:cx="-3.7256476"
     inkscape:cy="13.014714"
     inkscape:window-x="0"
     inkscape:window-y="0"
     inkscape:window-maximized="1"
     inkscape:current-layer="svg22"
     inkscape:document-rotation="0" />
  <rect
     id="rect12-2"
     transform="rotate(90)"
     ry="2.2105262"
     rx="2.2105262"
     y="-30"
     x="2"
     height="28"
     width="28"
     style="opacity:0.5;fill:#000000;fill-opacity:1;stroke-width:0.736842;filter:url(#filter60185)" />
  <rect
     style="fill:#838383;fill-opacity:1;stroke-width:0.73684216"
     width="28"
     height="28"
     x="2"
     y="-30"
     rx="2.2105262"
     ry="2.2105262"
     transform="rotate(90)"
     id="rect12" />
  <rect
     style="fill:#c8c8c8;fill-opacity:1;stroke-width:0.63157898;opacity:1"
     width="24"
     height="24"
     x="-28"
     y="-28"
     rx="1.8947368"
     ry="1.8947368"
     transform="matrix(0,-1,-1,0,0,0)"
     id="rect12-3" />
  <rect
     style="opacity:1;fill:url(#linearGradient876);fill-opacity:1;stroke-width:0.60469079"
     width="22"
     height="24"
     x="-26"
     y="-28"
     rx="1.736842"
     ry="1.8947368"
     transform="matrix(0,-1,-1,0,0,0)"
     id="rect12-3-2" />
  <g
     transform="matrix(0.17391304,0,0,0.17391304,17.613227,22.778569)"
     style="font-size:40px;line-height:1.25;font-family:Digital-7;-inkscape-font-specification:Digital-7;opacity:0.5"
     id="text842"
     aria-label="Ctrl">
    <path
       id="path844"
       style="font-style:normal;font-variant:normal;font-weight:normal;font-stretch:normal;font-family:'Liberation Sans';-inkscape-font-specification:'Liberation Sans'"
       d="m 4.2237406,-18.117584 q -4.57031252,0 -7.109375,2.949219 -2.5390625,2.929687 -2.5390625,8.0468745 0,5.0585938 2.6367187,8.1445313 2.65625003,3.0664062 7.1679688,3.0664062 5.7812504,0 8.6914064,-5.7226562 l 3.046875,1.52343747 Q 14.419053,3.4449158 11.333116,5.3003845 8.2667093,7.1558533 4.2042093,7.1558533 q -4.16015622,0 -7.2070312,-1.71875 Q -6.0301657,3.698822 -7.6317282,0.49569702 -9.2137594,-2.7269592 -9.2137594,-7.1214905 q 0,-6.5820315 3.5546875,-10.3124995 3.5546875,-3.730469 9.84375,-3.730469 4.3945312,0 7.3437499,1.71875 2.949219,1.71875 4.335938,5.097656 l -3.535157,1.171875 q -0.957031,-2.402344 -3.0859372,-3.671875 -2.109375,-1.269531 -5.0195312,-1.269531 z" />
    <path
       id="path846"
       style="font-style:normal;font-variant:normal;font-weight:normal;font-stretch:normal;font-family:'Liberation Sans';-inkscape-font-specification:'Liberation Sans'"
       d="m 28.462022,6.6089783 q -1.738281,0.46875 -3.554688,0.46875 -4.21875,0 -4.21875,-4.7851563 V -11.80899 h -2.441406 v -2.558594 h 2.578125 l 1.035156,-4.726563 h 2.34375 v 4.726563 h 3.90625 v 2.558594 h -3.90625 V 1.5308533 q 0,1.5234375 0.488282,2.1484375 0.507812,0.6054687 1.738281,0.6054687 0.703125,0 2.03125,-0.2734375 z" />
    <path
       id="path848"
       style="font-style:normal;font-variant:normal;font-weight:normal;font-stretch:normal;font-family:'Liberation Sans';-inkscape-font-specification:'Liberation Sans'"
       d="M 31.528428,6.7652283 V -9.4457092 q 0,-2.2265628 -0.117187,-4.9218748 h 3.320312 q 0.15625,3.59375 0.15625,4.316406 h 0.07813 q 0.839844,-2.714844 1.933594,-3.710937 1.09375,-0.996094 3.085937,-0.996094 0.703125,0 1.425782,0.195312 v 3.222657 q -0.703125,-0.195313 -1.875,-0.195313 -2.1875,0 -3.339844,1.8945313 -1.152344,1.875 -1.152344,5.390625 v 11.015625 z" />
    <path
       id="path850"
       style="font-style:normal;font-variant:normal;font-weight:normal;font-stretch:normal;font-family:'Liberation Sans';-inkscape-font-specification:'Liberation Sans'"
       d="M 44.770616,6.7652283 V -22.219147 h 3.515625 V 6.7652283 Z" />
  </g>
</svg>
