<?xml version="1.0" encoding="UTF-8" standalone="no"?>
<svg
   xmlns:dc="http://purl.org/dc/elements/1.1/"
   xmlns:cc="http://creativecommons.org/ns#"
   xmlns:rdf="http://www.w3.org/1999/02/22-rdf-syntax-ns#"
   xmlns:svg="http://www.w3.org/2000/svg"
   xmlns="http://www.w3.org/2000/svg"
   xmlns:sodipodi="http://sodipodi.sourceforge.net/DTD/sodipodi-0.dtd"
   xmlns:inkscape="http://www.inkscape.org/namespaces/inkscape"
   width="32"
   height="32"
   version="1"
   id="svg12"
   sodipodi:docname="preferences-system-firewall.svg"
   inkscape:version="1.0.1 (3bc2e813f5, 2020-09-07)">
  <metadata
     id="metadata18">
    <rdf:RDF>
      <cc:Work
         rdf:about="">
        <dc:format>image/svg+xml</dc:format>
        <dc:type
           rdf:resource="http://purl.org/dc/dcmitype/StillImage" />
        <dc:title />
      </cc:Work>
    </rdf:RDF>
  </metadata>
  <defs
     id="defs16">
    <filter
       inkscape:collect="always"
       style="color-interpolation-filters:sRGB"
       id="filter1331"
       x="-0.075"
       width="1.15"
       y="-0.075"
       height="1.15">
      <feGaussianBlur
         inkscape:collect="always"
         stdDeviation="0.875"
         id="feGaussianBlur1333" />
    </filter>
  </defs>
  <sodipodi:namedview
     pagecolor="#ffffff"
     bordercolor="#666666"
     borderopacity="1"
     objecttolerance="10"
     gridtolerance="10"
     guidetolerance="10"
     inkscape:pageopacity="0"
     inkscape:pageshadow="2"
     inkscape:window-width="1920"
     inkscape:window-height="963"
     id="namedview14"
     showgrid="false"
     inkscape:zoom="10.429825"
     inkscape:cx="8.0146166"
     inkscape:cy="21.787924"
     inkscape:window-x="0"
     inkscape:window-y="25"
     inkscape:window-maximized="1"
     inkscape:current-layer="svg12"
     inkscape:document-rotation="0" />
  <path
     id="rect1118-2"
     style="fill:#000000;fill-opacity:1;stroke:none;stroke-width:1.70076;filter:url(#filter1331);opacity:0.5"
     d="M 3.994141,1.9999998 C 2.8893,1.9999998 2,2.8892993 2,3.9941404 V 28.005859 C 2,29.1107 2.8893,30 3.994141,30 H 28.005859 C 29.1107,30 30,29.1107 30,28.005859 V 3.9941404 C 30,2.8892993 29.1107,1.9999998 28.005859,1.9999998 Z" />
  <path
     id="rect1118"
     style="fill:#4d4d4d;fill-opacity:1;stroke:none;stroke-width:1.70076"
     d="M 3.9941406 2 C 2.8892995 2 2 2.8892995 2 3.9941406 L 2 28.005859 C 2 29.1107 2.8892995 30 3.9941406 30 L 28.005859 30 C 29.1107 30 30 29.1107 30 28.005859 L 30 3.9941406 C 30 2.8892995 29.1107 2 28.005859 2 L 3.9941406 2 z " />
  <path
     id="rect837-2"
     style="fill:#d36242;fill-opacity:1;stroke:none;stroke-width:1.96723"
     d="m 3.9941409,2.0000004 c -1.1048421,0 -1.994141,0.889299 -1.994141,1.99414 v 4.00586 H 12 v -6 z m 10.0058591,0 v 6 h 12 v -6 z m 14,0 v 6 h 2 v -4.00586 c 0,-1.104841 -0.8893,-1.99414 -1.994141,-1.99414 z M 1.9999999,10 v 5.999999 h 6 V 10 Z m 8,0 v 5.999999 H 22 V 10 Z M 24,10 v 5.999999 h 6 V 10 Z M 1.9999999,17.999999 V 24 H 12 V 17.999999 Z M 14,17.999999 V 24 h 12 v -6.000001 z m 14,0 V 24 h 2 V 17.999999 Z M 1.9999999,26 v 2.005859 C 1.9999999,29.1107 2.8892989,30 3.9941409,30 h 4.005859 v -4 z m 8,0 v 4 H 22 V 26 Z M 24,26 v 4 h 4.005859 C 29.1107,30 30,29.1107 30,28.005859 V 26 Z" />
</svg>
