<?xml version="1.0" encoding="UTF-8" standalone="no"?>
<svg
   xmlns:dc="http://purl.org/dc/elements/1.1/"
   xmlns:cc="http://creativecommons.org/ns#"
   xmlns:rdf="http://www.w3.org/1999/02/22-rdf-syntax-ns#"
   xmlns:svg="http://www.w3.org/2000/svg"
   xmlns="http://www.w3.org/2000/svg"
   xmlns:sodipodi="http://sodipodi.sourceforge.net/DTD/sodipodi-0.dtd"
   xmlns:inkscape="http://www.inkscape.org/namespaces/inkscape"
   inkscape:version="1.0.1 (3bc2e813f5, 2020-09-07)"
   sodipodi:docname="qemu.svg"
   id="svg16"
   version="1.1"
   height="32"
   width="32">
  <metadata
     id="metadata22">
    <rdf:RDF>
      <cc:Work
         rdf:about="">
        <dc:format>image/svg+xml</dc:format>
        <dc:type
           rdf:resource="http://purl.org/dc/dcmitype/StillImage" />
      </cc:Work>
    </rdf:RDF>
  </metadata>
  <defs
     id="defs20">
    <filter
       inkscape:collect="always"
       style="color-interpolation-filters:sRGB"
       id="filter41541"
       x="-0.073706113"
       width="1.1474122"
       y="-0.076340126"
       height="1.1526803">
      <feGaussianBlur
         inkscape:collect="always"
         stdDeviation="0.89063482"
         id="feGaussianBlur41543" />
    </filter>
  </defs>
  <sodipodi:namedview
     inkscape:current-layer="svg16"
     inkscape:window-maximized="1"
     inkscape:window-y="0"
     inkscape:window-x="0"
     inkscape:cy="16"
     inkscape:cx="14.950131"
     inkscape:zoom="23.8125"
     showgrid="false"
     id="namedview18"
     inkscape:window-height="1000"
     inkscape:window-width="1920"
     inkscape:pageshadow="2"
     inkscape:pageopacity="0"
     guidetolerance="10"
     gridtolerance="10"
     objecttolerance="10"
     borderopacity="1"
     bordercolor="#666666"
     pagecolor="#ffffff"
     inkscape:document-rotation="0" />
  <path
     id="path2"
     d="M 16,1.9999997 A 14,14 0 0 0 2,16 14,14 0 0 0 16,30 14,14 0 0 0 22.847656,28.191406 l 0.472656,1.15625 A 1.050105,1.050105 0 0 0 24.292969,30 h 5.658203 a 1.050105,1.050105 0 0 0 0.974609,-1.439453 L 28.453125,22.367188 A 14,14 0 0 0 30,16 14,14 0 0 0 16,1.9999997 Z"
     style="opacity:0.5;filter:url(#filter41541)" />
  <circle
     id="circle4"
     r="14"
     cy="16"
     cx="16"
     style="fill:#000000;fill-opacity:1" />
  <path
     id="path6"
     d="m 11.923828,5.0258596 c -0.01436,0.5506293 -0.973927,0.073635 -1.015625,0.703125 -1.064282,-0.4738319 0.08108,0.7210089 -0.02539,0.8320313 h -0.0059 l -0.08008,-0.00781 C 10.745505,6.5348604 10.670841,6.5039751 10.560547,6.4360159 10.336226,6.6147369 10.177634,6.8513995 10.044922,7.1137502 9.1577235,8.4939243 8.7253069,9.6459334 8.4335938,11.100078 8.0610929,12.956945 7.9702855,15.126684 8.0078125,16.9575 c 0.039963,0.516159 0.1690319,1.003962 0.5917969,1.330078 1.1911262,0.978404 2.1815156,2.215048 3.1816406,3.392579 1.968895,2.66929 3.693815,4.94638 4.818359,7.339843 C 16.475765,28.215639 16.315225,26.936515 16.238281,25.947735 15.555457,22.463425 14.159946,20.621003 14,16.728985 c -0.03751,-0.962767 1.000634,-2.908483 2.162109,-3.929688 1.752643,-1.540977 3.01951,-1.152992 5.25586,-0.822266 0.01207,0.002 0.02895,0.0058 0.04102,0.0078 0.07422,0.01243 0.154851,0.02659 0.228516,0.04102 0.597508,0.05325 1.798146,0.285487 2.013672,-0.126953 -0.824506,-0.70206 -2.009957,-0.792356 -3.013672,-1.06836 -0.158889,-0.0289 -0.357287,-0.06191 -0.552734,-0.08008 l -0.982422,-0.21875 -0.246094,-0.06445 v 0.0078 L 15.388672,9.7895315 c -0.05597,-0.05096 -0.117599,-0.1020312 -0.173828,-0.140625 l 3.43164,0.4257815 v -0.01758 c 0.120971,0.02696 0.241899,0.05024 0.363282,0.06445 v 0.0078 l 2.425781,0.447266 c 0.418527,0.156099 0.864545,0.274637 1.283203,0.300781 0.691057,0.100553 1.568216,1.132109 1.794922,1.181641 -0.111108,-1.085225 -1.194146,-1.572101 -2.09375,-1.890625 C 21.368911,9.6574378 19.797208,9.6753106 19.630859,8.2621878 19.586609,8.1637287 19.544023,8.0656784 19.490234,7.9711721 l -0.410156,-0.5429687 0.01563,-0.00781 C 18.537025,6.76099 17.751579,6.2796153 16.916016,6.0961721 16.086686,5.8099082 15.154452,5.52638 14.277344,5.4125784 13.979689,6.2889905 13.647396,4.7180823 12.931641,5.1840628 12.30425,5.2583628 12.390942,5.423355 11.923828,5.0258596 Z m 4.585938,1.9746094 c 0.236149,-0.00732 0.506078,0.042754 0.777343,0.1523438 0.723366,0.2922301 1.193532,0.9090065 1.054688,1.3789062 -0.138845,0.469899 -0.839134,0.608635 -1.5625,0.3164062 C 16.05593,8.5558951 15.585767,7.9488849 15.724609,7.4789846 15.811389,7.185299 16.116186,7.0126203 16.509766,7.000469 Z"
     style="opacity:0.2" />
  <path
     id="path8"
     d="M 11.923828 4.0253906 C 11.909468 4.5760199 10.949901 4.0990253 10.908203 4.7285156 C 9.843921 4.2546837 10.989283 5.4495245 10.882812 5.5605469 L 10.876953 5.5605469 L 10.796875 5.5527344 C 10.745505 5.5343914 10.670841 5.5035061 10.560547 5.4355469 C 10.336226 5.6142679 10.177634 5.8509305 10.044922 6.1132812 C 9.1577235 7.4934553 8.7253069 8.6454644 8.4335938 10.099609 C 8.0610929 11.956476 7.9702855 14.126215 8.0078125 15.957031 C 8.0477755 16.47319 8.1768444 16.960993 8.5996094 17.287109 C 9.7907356 18.265513 10.781125 19.502157 11.78125 20.679688 C 13.750145 23.348978 15.475065 25.626068 16.599609 28.019531 C 16.475765 27.21517 16.315225 25.936046 16.238281 24.947266 C 15.555457 21.462956 14.159946 19.620534 14 15.728516 C 13.96249 14.765749 15.000634 12.820033 16.162109 11.798828 C 17.914752 10.257851 19.181619 10.645836 21.417969 10.976562 C 21.430039 10.978563 21.446924 10.982375 21.458984 10.984375 C 21.533204 10.996805 21.613835 11.010961 21.6875 11.025391 C 22.285008 11.078641 23.485646 11.310878 23.701172 10.898438 C 22.876666 10.196378 21.691215 10.106082 20.6875 9.8300781 C 20.528611 9.8011821 20.330213 9.768166 20.134766 9.75 L 19.152344 9.53125 L 18.90625 9.4667969 L 18.90625 9.4746094 L 15.388672 8.7890625 C 15.332707 8.7381025 15.271073 8.6870313 15.214844 8.6484375 L 18.646484 9.0742188 L 18.646484 9.0566406 C 18.767455 9.0835976 18.888383 9.1068837 19.009766 9.1210938 L 19.009766 9.1289062 L 21.435547 9.5761719 C 21.854074 9.7322712 22.300092 9.8508088 22.71875 9.8769531 C 23.409807 9.977506 24.286966 11.009062 24.513672 11.058594 C 24.402564 9.9733688 23.319526 9.4864926 22.419922 9.1679688 C 21.368911 8.6569688 19.797208 8.6748416 19.630859 7.2617188 C 19.586609 7.1632597 19.544023 7.0652094 19.490234 6.9707031 L 19.080078 6.4277344 L 19.095703 6.4199219 C 18.537025 5.760521 17.751579 5.2791463 16.916016 5.0957031 C 16.086686 4.8094392 15.154452 4.525911 14.277344 4.4121094 C 13.979689 5.2885215 13.647396 3.7176133 12.931641 4.1835938 C 12.30425 4.2578938 12.390942 4.422886 11.923828 4.0253906 z M 16.509766 6 C 16.745915 5.99268 17.015844 6.042754 17.287109 6.1523438 C 18.010475 6.4445739 18.480641 7.0613503 18.341797 7.53125 C 18.202952 8.001149 17.502663 8.139885 16.779297 7.8476562 C 16.05593 7.5554261 15.585767 6.9484159 15.724609 6.4785156 C 15.811389 6.18483 16.116186 6.0121513 16.509766 6 z"
     style="fill:#ff7111" />
  <path
     id="path10"
     d="m 20.850312,19.5 a 1.050105,1.050105 0 0 0 -0.97207,1.447851 l 3.442578,8.4 A 1.050105,1.050105 0 0 0 24.292891,30 h 5.657421 a 1.050105,1.050105 0 0 0 0.974805,-1.439649 l -3.352344,-8.4 A 1.050105,1.050105 0 0 0 26.597969,19.5 Z"
     style="fill:#000000;fill-opacity:1" />
</svg>
