<?xml version="1.0" encoding="UTF-8" standalone="no"?>
<svg
   xmlns:dc="http://purl.org/dc/elements/1.1/"
   xmlns:cc="http://creativecommons.org/ns#"
   xmlns:rdf="http://www.w3.org/1999/02/22-rdf-syntax-ns#"
   xmlns:svg="http://www.w3.org/2000/svg"
   xmlns="http://www.w3.org/2000/svg"
   xmlns:sodipodi="http://sodipodi.sourceforge.net/DTD/sodipodi-0.dtd"
   xmlns:inkscape="http://www.inkscape.org/namespaces/inkscape"
   inkscape:version="1.0.1 (3bc2e813f5, 2020-09-07)"
   sodipodi:docname="qt.svg"
   id="svg12"
   version="1.1"
   height="32"
   width="32">
  <metadata
     id="metadata18">
    <rdf:RDF>
      <cc:Work
         rdf:about="">
        <dc:format>image/svg+xml</dc:format>
        <dc:type
           rdf:resource="http://purl.org/dc/dcmitype/StillImage" />
      </cc:Work>
    </rdf:RDF>
  </metadata>
  <defs
     id="defs16">
    <filter
       height="1.1704545"
       y="-0.085227273"
       width="1.1339286"
       x="-0.066964286"
       id="filter875"
       style="color-interpolation-filters:sRGB"
       inkscape:collect="always">
      <feGaussianBlur
         id="feGaussianBlur877"
         stdDeviation="0.78125"
         inkscape:collect="always" />
    </filter>
  </defs>
  <sodipodi:namedview
     inkscape:current-layer="svg12"
     inkscape:window-maximized="1"
     inkscape:window-y="0"
     inkscape:window-x="0"
     inkscape:cy="16"
     inkscape:cx="14.950131"
     inkscape:zoom="23.8125"
     showgrid="false"
     id="namedview14"
     inkscape:window-height="1000"
     inkscape:window-width="1920"
     inkscape:pageshadow="2"
     inkscape:pageopacity="0"
     guidetolerance="10"
     gridtolerance="10"
     objecttolerance="10"
     borderopacity="1"
     bordercolor="#666666"
     pagecolor="#ffffff"
     inkscape:document-rotation="0" />
  <path
     id="path2"
     d="M 5.8181812,5 H 28.666667 C 28.666667,5 30,5 30,6.2941176 V 23.117647 L 26.181818,27 H 3.3333332 c 0,0 -1.3333334,0 -1.3333334,-1.294118 V 8.8823525 Z"
     style="opacity:0.5;mix-blend-mode:normal;stroke-width:0.924963;filter:url(#filter875)" />
  <path
     id="path4"
     d="M 5.8181812,5 H 28.666667 C 28.666667,5 30,5 30,6.2941176 V 23.117647 L 26.181818,27 H 3.3333333 c 0,0 -1.3333334,0 -1.3333334,-1.294117 V 8.8823526 Z"
     style="fill:#00cc5c;stroke-width:0.924962" />
  <path
     id="path8"
     d="m20 9v3h-2v2h2v4.117188c0 2.823529 0.999201 3.882812 2.792969 3.882812h2.207031v-2h-1.984375c-0.964787 0-1.015625-0.670265-1.015625-2.082031v-3.917969h3v-2h-3v-3h-2zm-7.974609 0.0214844c-3.9704432 0-5.025391 2.2432216-5.025391 6.4785156s1.0363906 6.527344 5.025391 6.527344h1.132812l1.650391 2.822265 1.912109-0.705078-1.558594-2.824219c1.484278-0.705882 1.837891-2.996783 1.837891-5.820312 0-4.235294-1.004166-6.4785156-4.974609-6.4785156zm-0.017579 1.9785156c2.422006 0 2.992194 1.75699 2.992188 4.654297 0 2.897306-0.55183 4.345703-2.992188 4.345703-2.4403562 0-3.007812-1.448397-3.007812-4.345703 0-2.897307 0.5858083-4.654297 3.007812-4.654297z"
     style="fill:#ffffff" />
</svg>
