<?xml version="1.0" encoding="UTF-8" standalone="no"?>
<svg
   xmlns:dc="http://purl.org/dc/elements/1.1/"
   xmlns:cc="http://creativecommons.org/ns#"
   xmlns:rdf="http://www.w3.org/1999/02/22-rdf-syntax-ns#"
   xmlns:svg="http://www.w3.org/2000/svg"
   xmlns="http://www.w3.org/2000/svg"
   xmlns:xlink="http://www.w3.org/1999/xlink"
   xmlns:sodipodi="http://sodipodi.sourceforge.net/DTD/sodipodi-0.dtd"
   xmlns:inkscape="http://www.inkscape.org/namespaces/inkscape"
   width="32"
   height="32"
   id="svg7163"
   sodipodi:version="0.32"
   inkscape:version="1.0.1 (3bc2e813f5, 2020-09-07)"
   sodipodi:docname="io.github.quodlibet.QuodLibet.svg"
   inkscape:export-filename="/home/lazka/Desktop/afaf.png"
   inkscape:export-xdpi="90.000000"
   inkscape:export-ydpi="90.000000"
   version="1.1">
  <defs
     id="defs7165">
    <linearGradient
       inkscape:collect="always"
       id="linearGradient954">
      <stop
         style="stop-color:#000000;stop-opacity:1"
         offset="0"
         id="stop950" />
      <stop
         style="stop-color:#333333;stop-opacity:1"
         offset="1"
         id="stop952" />
    </linearGradient>
    <filter
       inkscape:collect="always"
       style="color-interpolation-filters:sRGB"
       id="filter895"
       x="-0.075"
       width="1.15"
       y="-0.075"
       height="1.15">
      <feGaussianBlur
         inkscape:collect="always"
         stdDeviation="0.4375"
         id="feGaussianBlur897" />
    </filter>
    <linearGradient
       inkscape:collect="always"
       xlink:href="#linearGradient954"
       id="linearGradient956"
       x1="-46.25"
       y1="-7.8040919"
       x2="-33.75"
       y2="-7.8040919"
       gradientUnits="userSpaceOnUse"
       gradientTransform="matrix(1.04,0,0,1.04,81.6,0.3121641)" />
  </defs>
  <sodipodi:namedview
     id="base"
     pagecolor="#ffffff"
     bordercolor="#555555"
     borderopacity="1.0000000"
     inkscape:pageopacity="0"
     inkscape:pageshadow="2"
     inkscape:zoom="18.296388"
     inkscape:cx="17.712883"
     inkscape:cy="8.169868"
     inkscape:current-layer="g4136"
     showgrid="false"
     inkscape:document-units="px"
     inkscape:grid-bbox="true"
     inkscape:window-width="1920"
     inkscape:window-height="1000"
     inkscape:window-x="0"
     inkscape:window-y="0"
     showborder="true"
     inkscape:showpageshadow="true"
     borderlayer="false"
     inkscape:window-maximized="1"
     inkscape:document-rotation="0"
     showguides="false">
    <inkscape:grid
       id="GridFromPre046Settings"
       type="xygrid"
       originx="0px"
       originy="0px"
       spacingx="1px"
       spacingy="1px"
       color="#3f3fff"
       empcolor="#3f3fff"
       opacity="1.0000000"
       empopacity="1.0000000"
       empspacing="5"
       visible="true"
       enabled="true"
       snapvisiblegridlinesonly="true" />
  </sodipodi:namedview>
  <metadata
     id="metadata7168">
    <rdf:RDF>
      <cc:Work
         rdf:about="">
        <dc:format>image/svg+xml</dc:format>
        <dc:type
           rdf:resource="http://purl.org/dc/dcmitype/StillImage" />
        <dc:title></dc:title>
      </cc:Work>
    </rdf:RDF>
  </metadata>
  <g
     id="layer1"
     inkscape:label="Layer 1"
     inkscape:groupmode="layer"
     transform="translate(0,112)">
    <g
       id="g4136"
       transform="matrix(2,0,0,2,0.3918161,-16)">
      <circle
         style="opacity:0.5;fill:#000000;fill-opacity:1;stroke:none;stroke-width:0.329201;filter:url(#filter895)"
         id="path833-5"
         cx="-40"
         cy="-7.8040919"
         transform="rotate(90)"
         r="7" />
      <circle
         style="opacity:1;fill:#ffffff;fill-opacity:1;stroke:none;stroke-width:0.329201"
         id="path833"
         cx="-40"
         cy="-7.8040919"
         transform="rotate(90)"
         r="7" />
      <circle
         style="opacity:1;fill:url(#linearGradient956);fill-opacity:1;stroke:none;stroke-width:0.305686"
         id="path833-3"
         cx="40"
         cy="-7.8040919"
         transform="matrix(0,-1,-1,0,0,0)"
         r="6.5" />
      <path
         style="color:#000000;font-style:normal;font-variant:normal;font-weight:normal;font-stretch:normal;font-size:medium;line-height:normal;font-family:sans-serif;font-variant-ligatures:normal;font-variant-position:normal;font-variant-caps:normal;font-variant-numeric:normal;font-variant-alternates:normal;font-feature-settings:normal;text-indent:0;text-align:start;text-decoration:none;text-decoration-line:none;text-decoration-style:solid;text-decoration-color:#000000;letter-spacing:normal;word-spacing:normal;text-transform:none;writing-mode:lr-tb;direction:ltr;text-orientation:mixed;dominant-baseline:auto;baseline-shift:baseline;text-anchor:start;white-space:normal;shape-padding:0;clip-rule:nonzero;display:inline;overflow:visible;visibility:visible;opacity:1;isolation:auto;mix-blend-mode:normal;color-interpolation:sRGB;color-interpolation-filters:linearRGB;solid-color:#000000;solid-opacity:1;vector-effect:none;fill:#ffffff;fill-opacity:1;fill-rule:nonzero;stroke:none;stroke-width:0.45388;stroke-linecap:butt;stroke-linejoin:round;stroke-miterlimit:4;stroke-dasharray:none;stroke-dashoffset:0;stroke-opacity:1;color-rendering:auto;image-rendering:auto;shape-rendering:auto;text-rendering:auto;enable-background:accumulate"
         d="m 5.9822419,-44.999413 c -0.4275423,0.01346 -0.7825532,0.260188 -0.9641412,0.590577 -0.1929479,0.351054 -0.1893579,0.817232 0.1042503,1.171933 0.2745919,0.402114 0.7141768,0.710255 1.203138,0.854926 0.3707084,0.109687 0.7768194,0.122787 1.1488841,-0.0096 9.263e-4,2.317433 0.01025,4.867488 0.01025,7.157125 a 0.22696284,0.22696284 0 0 0 0.1698516,0.219848 c 0.1700267,0.04409 0.3768047,-0.01386 0.4733825,-0.141129 0.096575,-0.127272 0.1105127,-0.259202 0.1209128,-0.38438 0.010375,-0.125176 0.00788,-0.249629 0.01025,-0.354238 0.00237,-0.104613 0.016737,-0.191991 0.021275,-0.203537 a 0.22696284,0.22696284 0 0 0 0.011,-0.03724 c 0.094938,-0.458315 0.3758247,-0.815048 0.7389743,-1.161649 0.3631484,-0.346601 0.8024187,-0.6711 1.1644857,-1.068037 0.629187,-0.687651 0.71307,-1.739226 0.159213,-2.503788 -0.05096,-0.07036 -0.205316,-0.32364 -0.326226,-0.525154 -0.06045,-0.10075 -0.114463,-0.190725 -0.151412,-0.249988 -0.01847,-0.02964 -0.02335,-0.0416 -0.05106,-0.07624 -0.0069,-0.0086 0.0089,-0.01449 -0.06738,-0.05851 -0.0095,-0.0055 -0.03894,-0.0177 -0.039,-0.01773 -7.1e-5,-2.5e-5 -0.07227,-0.01276 -0.07234,-0.01276 -5.9e-5,0 -0.109525,0.02692 -0.109575,0.02695 -4.4e-5,2.4e-5 -0.08436,0.07831 -0.08439,0.07836 -3.1e-5,4.9e-5 -0.02976,0.07014 -0.02979,0.07021 -1.7e-5,7.3e-5 -0.0052,0.0329 -0.0056,0.04433 -7.62e-4,0.02284 0.0012,0.03581 0.0029,0.04574 0.01318,0.07945 0.01789,0.06001 0.02411,0.07375 a 0.22696284,0.22696284 0 0 0 0.0032,0.0067 c 0.305949,0.62094 0.643301,1.253524 0.490404,1.835732 -0.197668,0.70544 -0.9327718,1.186579 -1.7126899,1.316608 -0.00338,-0.03541 -0.00338,-0.0445 -0.010625,-0.152475 v -5.154025 a 0.22696284,0.22696284 0 0 0 -0.017025,-0.08653 c -0.3339846,-0.809986 -1.2479394,-1.317044 -2.1286278,-1.295332 -0.029113,-0.0012 -0.058013,-0.0014 -0.086525,-5.32e-4 z m 0.1865155,0.676034 c 0.3045432,-0.01371 0.6664666,0.102201 0.9222998,0.297504 0.2499456,0.190809 0.3868434,0.432861 0.3613309,0.709188 -0.071313,0.220586 -0.2427356,0.316013 -0.5035238,0.340056 -0.2687382,0.02477 -0.5980252,-0.06236 -0.7910982,-0.191126 a 0.22696284,0.22696284 0 0 0 -0.031563,-0.01773 c -0.2022955,-0.09255 -0.408616,-0.332965 -0.4740924,-0.553521 -0.032738,-0.110276 -0.033025,-0.209431 -0.00537,-0.288995 0.027662,-0.07943 0.079588,-0.149473 0.2017642,-0.213819 2e-4,-1.09e-4 1.363e-4,-2.28e-4 3.538e-4,-3.54e-4 0.090988,-0.04725 0.2028217,-0.07424 0.3198433,-0.0812 z m -0.2631082,1.533264 c 0.00588,0.004 0.0142,0.005 0.020213,0.0089 0.00425,0.002 0.007,0.0065 0.011375,0.0085 z"
         id="path7097" />
    </g>
  </g>
</svg>
