<?xml version="1.0" encoding="UTF-8" standalone="no"?>
<svg
   xmlns:dc="http://purl.org/dc/elements/1.1/"
   xmlns:cc="http://creativecommons.org/ns#"
   xmlns:rdf="http://www.w3.org/1999/02/22-rdf-syntax-ns#"
   xmlns:svg="http://www.w3.org/2000/svg"
   xmlns="http://www.w3.org/2000/svg"
   xmlns:xlink="http://www.w3.org/1999/xlink"
   xmlns:sodipodi="http://sodipodi.sourceforge.net/DTD/sodipodi-0.dtd"
   xmlns:inkscape="http://www.inkscape.org/namespaces/inkscape"
   width="32"
   height="32"
   version="1"
   id="svg12"
   sodipodi:docname="rambox.svg"
   inkscape:version="1.0.1 (3bc2e813f5, 2020-09-07)">
  <metadata
     id="metadata18">
    <rdf:RDF>
      <cc:Work
         rdf:about="">
        <dc:format>image/svg+xml</dc:format>
        <dc:type
           rdf:resource="http://purl.org/dc/dcmitype/StillImage" />
      </cc:Work>
    </rdf:RDF>
  </metadata>
  <defs
     id="defs16">
    <linearGradient
       inkscape:collect="always"
       id="linearGradient889">
      <stop
         style="stop-color:#282556;stop-opacity:1"
         offset="0"
         id="stop885" />
      <stop
         style="stop-color:#05a4bf;stop-opacity:1"
         offset="1"
         id="stop887" />
    </linearGradient>
    <filter
       inkscape:collect="always"
       style="color-interpolation-filters:sRGB"
       id="filter858"
       x="-0.075"
       width="1.15"
       y="-0.075"
       height="1.15">
      <feGaussianBlur
         inkscape:collect="always"
         stdDeviation="0.875"
         id="feGaussianBlur860" />
    </filter>
    <linearGradient
       inkscape:collect="always"
       xlink:href="#linearGradient889"
       id="linearGradient891"
       x1="6.5108919"
       y1="25.731962"
       x2="23.041071"
       y2="9.2525587"
       gradientUnits="userSpaceOnUse" />
  </defs>
  <sodipodi:namedview
     pagecolor="#ffffff"
     bordercolor="#666666"
     borderopacity="1"
     objecttolerance="10"
     gridtolerance="10"
     guidetolerance="10"
     inkscape:pageopacity="0"
     inkscape:pageshadow="2"
     inkscape:window-width="1920"
     inkscape:window-height="1000"
     id="namedview14"
     showgrid="false"
     inkscape:zoom="20.8125"
     inkscape:cx="16"
     inkscape:cy="16"
     inkscape:window-x="0"
     inkscape:window-y="0"
     inkscape:window-maximized="1"
     inkscape:current-layer="svg12" />
  <rect
     fill="#189bc1"
     width="28"
     height="28"
     x="2"
     y="2"
     rx="14"
     ry="14"
     id="rect2-3"
     style="fill:#000000;fill-opacity:1;filter:url(#filter858);opacity:0.5" />
  <rect
     fill="#189bc1"
     width="28"
     height="28"
     x="2"
     y="2"
     rx="14"
     ry="14"
     id="rect2"
     style="fill:#fefefe;fill-opacity:1" />
  <rect
     fill="#189bc1"
     width="26"
     height="26"
     x="3"
     y="3"
     rx="13"
     ry="13"
     id="rect2-6"
     style="stroke-width:0.928572;fill-opacity:1;fill:url(#linearGradient891)" />
  <path
     fill="#ffffff"
     d="m16 7c-1.4822 0.77546-2.3295 2.6786-3 4-0.42617-0.57609-0.3346-1.7839-0.5-2.5-1.3099 1.7245-1.8867 4.6898-2.4141 6.4141-0.74673 2.4513-1.6984 3.9558-3.0566 4.832-0.80705 0.52062-1.5303 0.78843-3.0938 1.1426-0.3581 0.106-0.7527 0.193-0.9594 0.24 2.0397 5.201 7.0824 8.871 13.023 8.871 0.2691 0 0.53161-0.02618 0.79688-0.04102 0.64567-1.2598 0.72315-3.0093 0.47266-4.0762-0.167-0.657-0.599-1.837-0.571-1.883 0.02856-0.04611 0.7335 0.02539 1.332 0.02539 0.70707 0 1.2253 0.02548 1.5996-0.08789 0.31687-0.09597 0.69521-0.25158 0.91992-0.24023 0.9992 0.05042 2.2637-0.4043 2.5977-1.293 0.1037-0.27596 0.53948-0.63256 0.6543-0.79102 0.18795-0.25939 0.28676-0.47303 0.16602-0.88086-0.17-0.576-0.866-0.915-1.603-1.587-0.558-0.51-0.837-0.563-0.865-1.108-0.02054-0.4008 0.08637-0.68005-0.13086-0.88476-0.24624-0.23205-0.86954-0.08344-0.91016-0.08789-0.25869-0.30098-0.50526-0.6146-0.0293-1.0488 0.36-0.329 0.57-0.476 0.57-0.836 0-0.35365-0.20929-0.45689-0.52148-0.73047-0.20622-0.18071-0.42657-0.32812-0.49219-0.32812s-0.39776-0.26362-0.73633-0.58594c-0.656-0.625-1.118-0.536-1.629-0.536-0.413 0-0.621-0.402-0.621-1 0.55-1.991 2.175-3.5402 3-4-2.09-0.2959-3.613 0.7414-5 2-0.065-0.7313 0.922-2.5275 1-3z"
     id="path6" />
</svg>
