<?xml version="1.0" encoding="UTF-8" standalone="no"?>
<svg
   xmlns:dc="http://purl.org/dc/elements/1.1/"
   xmlns:cc="http://creativecommons.org/ns#"
   xmlns:rdf="http://www.w3.org/1999/02/22-rdf-syntax-ns#"
   xmlns:svg="http://www.w3.org/2000/svg"
   xmlns="http://www.w3.org/2000/svg"
   xmlns:xlink="http://www.w3.org/1999/xlink"
   xmlns:sodipodi="http://sodipodi.sourceforge.net/DTD/sodipodi-0.dtd"
   xmlns:inkscape="http://www.inkscape.org/namespaces/inkscape"
   width="32"
   height="32"
   version="1"
   id="svg14"
   sodipodi:docname="redshift.svg"
   inkscape:version="1.0.1 (3bc2e813f5, 2020-09-07)">
  <metadata
     id="metadata20">
    <rdf:RDF>
      <cc:Work
         rdf:about="">
        <dc:format>image/svg+xml</dc:format>
        <dc:type
           rdf:resource="http://purl.org/dc/dcmitype/StillImage" />
      </cc:Work>
    </rdf:RDF>
  </metadata>
  <defs
     id="defs18">
    <linearGradient
       inkscape:collect="always"
       id="linearGradient881">
      <stop
         style="stop-color:#e95c4d;stop-opacity:1"
         offset="0"
         id="stop877" />
      <stop
         style="stop-color:#d72c1a;stop-opacity:1"
         offset="1"
         id="stop879" />
    </linearGradient>
    <linearGradient
       inkscape:collect="always"
       xlink:href="#linearGradient881"
       id="linearGradient883"
       x1="15.4998"
       y1="3.0000999"
       x2="15.457427"
       y2="21.720339"
       gradientUnits="userSpaceOnUse" />
    <filter
       inkscape:collect="always"
       style="color-interpolation-filters:sRGB"
       id="filter41537"
       x="-0.094852604"
       width="1.1897052"
       y="-0.062019375"
       height="1.1240388">
      <feGaussianBlur
         inkscape:collect="always"
         stdDeviation="0.67187656"
         id="feGaussianBlur41539" />
    </filter>
  </defs>
  <sodipodi:namedview
     pagecolor="#ffffff"
     bordercolor="#666666"
     borderopacity="1"
     objecttolerance="10"
     gridtolerance="10"
     guidetolerance="10"
     inkscape:pageopacity="0"
     inkscape:pageshadow="2"
     inkscape:window-width="1920"
     inkscape:window-height="1000"
     id="namedview16"
     showgrid="false"
     inkscape:zoom="14.75"
     inkscape:cx="15.154266"
     inkscape:cy="10.240792"
     inkscape:window-x="0"
     inkscape:window-y="0"
     inkscape:window-maximized="1"
     inkscape:current-layer="svg14"
     inkscape:document-rotation="0" />
  <path
     style="fill:#000000;fill-opacity:1;opacity:0.5;filter:url(#filter41537)"
     d="m 15.5001,3 c -4.694001,0 -8.4999997,3.8119254 -8.4999997,8.515625 -0.017401,2.551 2.233678,4.780032 3.2675777,7.207032 0.461,1.082 1.308593,3.277343 1.308593,3.277343 l 1.308594,5.699219 C 13.036665,28.403439 13.467046,29 14.191506,29 h 2.615234 c 0.723999,0 1.147594,-0.598781 1.308594,-1.300781 L 19.421974,22 c 0,0 0.847674,-2.195743 1.308594,-3.277343 1.034,-2.427 3.224531,-4.684032 3.269532,-7.207032 C 24.0001,6.8119254 20.194099,3 15.5001,3 Z"
     id="path2-3"
     inkscape:connector-curvature="0" />
  <path
     fill="#e74c3c"
     d="m15.5 3c-4.694 0-8.4999 3.8133-8.4999 8.517-0.0174 2.551 2.235 4.78 3.2689 7.207 0.461 1.082 1.308 3.276 1.308 3.276h7.8461s0.84678-2.1943 1.3077-3.2759c1.034-2.427 3.224-4.684 3.269-7.207 0-4.7037-3.806-8.517-8.5-8.517z"
     id="path2"
     style="fill-opacity:1;fill:url(#linearGradient883)" />
  <path
     fill="#4f4f4f"
     d="m19.423 22-1.308 5.7c-0.161 0.702-0.583 1.3-1.307 1.3h-2.6154c-0.72446 0-1.1559-0.59578-1.3077-1.3l-1.308-5.7z"
     id="path4" />
  <path
     fill="#fff"
     opacity=".2"
     d="m11.834 23l0.223 1h6.886l0.223-1h-7.332zm0.447 2l0.223 1h5.992l0.223-1h-6.438zm0.448 2l0.156 0.699c0.023 0.106 0.064 0.202 0.099 0.301h5.03c0.036-0.099 0.078-0.195 0.101-0.301l0.156-0.699h-5.542z"
     id="path6" />
</svg>
