<?xml version="1.0" encoding="UTF-8" standalone="no"?>
<svg
   xmlns:dc="http://purl.org/dc/elements/1.1/"
   xmlns:cc="http://creativecommons.org/ns#"
   xmlns:rdf="http://www.w3.org/1999/02/22-rdf-syntax-ns#"
   xmlns:svg="http://www.w3.org/2000/svg"
   xmlns="http://www.w3.org/2000/svg"
   xmlns:sodipodi="http://sodipodi.sourceforge.net/DTD/sodipodi-0.dtd"
   xmlns:inkscape="http://www.inkscape.org/namespaces/inkscape"
   inkscape:version="1.0.1 (3bc2e813f5, 2020-09-07)"
   sodipodi:docname="spotify-client.svg"
   id="svg12"
   version="1"
   height="32"
   width="32">
  <metadata
     id="metadata18">
    <rdf:RDF>
      <cc:Work
         rdf:about="">
        <dc:format>image/svg+xml</dc:format>
        <dc:type
           rdf:resource="http://purl.org/dc/dcmitype/StillImage" />
      </cc:Work>
    </rdf:RDF>
  </metadata>
  <defs
     id="defs16">
    <filter
       inkscape:collect="always"
       style="color-interpolation-filters:sRGB"
       id="filter41517"
       x="-0.075"
       width="1.15"
       y="-0.075"
       height="1.15">
      <feGaussianBlur
         inkscape:collect="always"
         stdDeviation="0.875"
         id="feGaussianBlur41519" />
    </filter>
  </defs>
  <sodipodi:namedview
     inkscape:current-layer="svg12"
     inkscape:window-maximized="1"
     inkscape:window-y="0"
     inkscape:window-x="0"
     inkscape:cy="11.722625"
     inkscape:cx="6.6689685"
     inkscape:zoom="11.90625"
     showgrid="false"
     id="namedview14"
     inkscape:window-height="1000"
     inkscape:window-width="1920"
     inkscape:pageshadow="2"
     inkscape:pageopacity="0"
     guidetolerance="10"
     gridtolerance="10"
     objecttolerance="10"
     borderopacity="1"
     bordercolor="#666666"
     pagecolor="#ffffff"
     inkscape:document-rotation="0" />
  <path
     id="path871-8"
     d="M 15.999916,2 C 8.2681399,2 2.0000002,8.268123 2.0000002,16.000084 2.0000002,23.732379 8.2681399,30 15.999916,30 23.732528,30 30,23.732379 30,16.000084 30,8.268625 23.732528,2.000669 15.999749,2.000669 Z m 6.420272,20.192139 c -0.250766,0.411265 -0.789076,0.541667 -1.200332,0.289223 C 17.932819,20.473517 13.79485,20.018785 8.9216359,21.132211 8.4520348,21.239207 7.9839388,20.944968 7.8769458,20.475188 c -0.107495,-0.469779 0.1855661,-0.937886 0.656337,-1.044882 5.3329512,-1.218918 9.9074202,-0.693801 13.5976882,1.561473 0.411256,0.252443 0.541654,0.789095 0.289217,1.20036 z m 1.713566,-3.812566 c -0.315965,0.514082 -0.988017,0.676248 -1.501251,0.360275 C 18.869345,16.426229 13.132995,15.756334 8.6819039,17.107492 8.1046408,17.281861 7.4949458,16.956527 7.3197438,16.380254 7.1458798,15.802977 7.4713739,15.194438 8.0476339,15.018898 13.131992,13.47615 19.452793,14.22345 23.774323,16.879123 c 0.513234,0.315972 0.675395,0.98804 0.359431,1.500617 z M 24.28087,14.410024 C 19.768758,11.729942 12.324359,11.483518 8.0163708,12.791042 7.3245918,13.000854 6.5930248,12.610319 6.3833848,11.918523 6.1737451,11.226393 6.5639358,10.49531 7.2562168,10.284996 12.201484,8.783709 20.422421,9.073769 25.617284,12.15776 c 0.623571,0.369303 0.827527,1.172943 0.458065,1.794355 -0.36779,0.622248 -1.173583,0.827379 -1.793811,0.457909 z"
     fill="#1ed760"
     style="stroke-width:0.167179;fill:#000000;fill-opacity:1;opacity:0.5;filter:url(#filter41517)" />
  <rect
     style="fill:#000000;fill-opacity:1;stroke-width:0.857143"
     id="rect2"
     ry="12"
     rx="12"
     y="4"
     x="4"
     height="24"
     width="24"
     fill="#1ed760" />
  <path
     style="stroke-width:0.167179"
     fill="#1ed760"
     d="M 15.999916,2 C 8.26814,2 2,8.268123 2,16.000084 2,23.732379 8.26814,30 15.999916,30 23.732528,30 30,23.732379 30,16.000084 30,8.268625 23.732528,2.000669 15.999749,2.000669 Z m 6.420272,20.192139 c -0.250766,0.411265 -0.789076,0.541667 -1.200332,0.289223 -3.287037,-2.007845 -7.425006,-2.462577 -12.29822,-1.349151 -0.469601,0.106996 -0.937697,-0.187243 -1.04469,-0.657023 -0.107495,-0.469779 0.185566,-0.937886 0.656337,-1.044882 5.332951,-1.218918 9.90742,-0.693801 13.597688,1.561473 0.411256,0.252443 0.541654,0.789095 0.289217,1.20036 z m 1.713566,-3.812566 c -0.315965,0.514082 -0.988017,0.676248 -1.501251,0.360275 -3.763158,-2.313619 -9.499508,-2.983514 -13.950599,-1.632356 -0.577263,0.174369 -1.186958,-0.150965 -1.36216,-0.727238 -0.173864,-0.577277 0.15163,-1.185816 0.72789,-1.361356 5.084358,-1.542748 11.405159,-0.795448 15.726689,1.860225 0.513234,0.315972 0.675395,0.98804 0.359431,1.500617 z M 24.28087,14.410024 C 19.768758,11.729942 12.324359,11.483518 8.016371,12.791042 7.324592,13.000854 6.593025,12.610319 6.383385,11.918523 6.173745,11.226393 6.563936,10.49531 7.256217,10.284996 12.201484,8.783709 20.422421,9.073769 25.617284,12.15776 c 0.623571,0.369303 0.827527,1.172943 0.458065,1.794355 -0.36779,0.622248 -1.173583,0.827379 -1.793811,0.457909 z"
     id="path871" />
</svg>
