<?xml version="1.0" encoding="UTF-8" standalone="no"?>
<svg
   xmlns:dc="http://purl.org/dc/elements/1.1/"
   xmlns:cc="http://creativecommons.org/ns#"
   xmlns:rdf="http://www.w3.org/1999/02/22-rdf-syntax-ns#"
   xmlns:svg="http://www.w3.org/2000/svg"
   xmlns="http://www.w3.org/2000/svg"
   xmlns:xlink="http://www.w3.org/1999/xlink"
   xmlns:sodipodi="http://sodipodi.sourceforge.net/DTD/sodipodi-0.dtd"
   xmlns:inkscape="http://www.inkscape.org/namespaces/inkscape"
   inkscape:output_extension="org.inkscape.output.svg.inkscape"
   sodipodi:docname="start-here-peppermint.svg"
   version="1.0"
   inkscape:version="1.0.1 (3bc2e813f5, 2020-09-07)"
   sodipodi:version="0.32"
   id="svg2"
   height="32"
   width="32">
  <defs
     id="defs4">
    <linearGradient
       id="linearGradient3357">
      <stop
         id="stop3359"
         offset="0"
         style="stop-color:#ffffff;stop-opacity:0;" />
      <stop
         style="stop-color:#ffffff;stop-opacity:0;"
         offset="0.80555558"
         id="stop3365" />
      <stop
         id="stop3361"
         offset="1"
         style="stop-color:#b00000;stop-opacity:0.73451328;" />
    </linearGradient>
    <linearGradient
       id="linearGradient3325">
      <stop
         id="stop3327"
         offset="0"
         style="stop-color:#ff0000;stop-opacity:1;" />
      <stop
         id="stop3329"
         offset="1"
         style="stop-color:#710000;stop-opacity:1;" />
    </linearGradient>
    <linearGradient
       id="linearGradient3313"
       inkscape:collect="always">
      <stop
         id="stop3315"
         offset="0"
         style="stop-color:#864141;stop-opacity:1;" />
      <stop
         id="stop3317"
         offset="1"
         style="stop-color:#864141;stop-opacity:0;" />
    </linearGradient>
    <linearGradient
       id="linearGradient3299">
      <stop
         id="stop3301"
         offset="0"
         style="stop-color:#ff0000;stop-opacity:1;" />
      <stop
         style="stop-color:#f30000;stop-opacity:1;"
         offset="0.8888889"
         id="stop3339" />
      <stop
         id="stop3303"
         offset="1"
         style="stop-color:#e70000;stop-opacity:1;" />
    </linearGradient>
    <linearGradient
       id="linearGradient3195">
      <stop
         id="stop3197"
         offset="0"
         style="stop-color:#ffffff;stop-opacity:1;" />
      <stop
         style="stop-color:#d87f7f;stop-opacity:1;"
         offset="0.94444442"
         id="stop3205" />
      <stop
         id="stop3199"
         offset="1"
         style="stop-color:#b20000;stop-opacity:1;" />
    </linearGradient>
    <inkscape:perspective
       id="perspective10"
       inkscape:persp3d-origin="372.04724 : 182.78739 : 1"
       inkscape:vp_z="744.09448 : 358.18109 : 1"
       inkscape:vp_y="0 : 1000 : 0"
       inkscape:vp_x="0 : 358.18109 : 1"
       sodipodi:type="inkscape:persp3d" />
    <inkscape:perspective
       sodipodi:type="inkscape:persp3d"
       inkscape:vp_x="0 : 358.18109 : 1"
       inkscape:vp_y="0 : 1000 : 0"
       inkscape:vp_z="744.09448 : 358.18109 : 1"
       inkscape:persp3d-origin="372.04724 : 182.78739 : 1"
       id="perspective3162" />
    <linearGradient
       gradientTransform="matrix(0.14,0,0,0.14,-36.91999,-47.61071)"
       gradientUnits="userSpaceOnUse"
       y2="500.36517"
       x2="444.54434"
       y1="500.36517"
       x1="364.95505"
       id="linearGradient3305"
       xlink:href="#linearGradient3299"
       inkscape:collect="always" />
    <radialGradient
       gradientUnits="userSpaceOnUse"
       gradientTransform="matrix(1,0,0,1.1815027,0,-90.762301)"
       r="39.179096"
       fy="500.06021"
       fx="404.74969"
       cy="500.06021"
       cx="404.74969"
       id="radialGradient3319"
       xlink:href="#linearGradient3313"
       inkscape:collect="always" />
    <filter
       inkscape:collect="always"
       style="color-interpolation-filters:sRGB"
       id="filter41513"
       x="-0.075"
       width="1.15"
       y="-0.075"
       height="1.15">
      <feGaussianBlur
         inkscape:collect="always"
         stdDeviation="0.875"
         id="feGaussianBlur41515" />
    </filter>
  </defs>
  <sodipodi:namedview
     inkscape:window-maximized="1"
     inkscape:document-rotation="0"
     inkscape:guide-bbox="true"
     showguides="true"
     inkscape:window-y="0"
     inkscape:window-x="0"
     inkscape:window-height="1000"
     inkscape:window-width="1920"
     inkscape:snap-global="true"
     inkscape:object-nodes="true"
     inkscape:object-paths="true"
     showgrid="true"
     inkscape:current-layer="layer1"
     inkscape:document-units="px"
     inkscape:cy="13.259818"
     inkscape:cx="6.8019841"
     inkscape:zoom="18.384776"
     inkscape:pageshadow="2"
     inkscape:pageopacity="0.0"
     objecttolerance="10"
     guidetolerance="10"
     gridtolerance="10"
     borderopacity="1.0"
     bordercolor="#666666"
     pagecolor="#ffffff"
     id="base">
    <inkscape:grid
       originy="0"
       originx="0"
       empspacing="4"
       spacingy="10"
       spacingx="10"
       enabled="true"
       visible="false"
       id="grid3170"
       type="xygrid" />
  </sodipodi:namedview>
  <metadata
     id="metadata7">
    <rdf:RDF>
      <cc:Work
         rdf:about="">
        <dc:format>image/svg+xml</dc:format>
        <dc:type
           rdf:resource="http://purl.org/dc/dcmitype/StillImage" />
        <dc:title />
      </cc:Work>
    </rdf:RDF>
  </metadata>
  <g
     transform="translate(-278.00001,-354.36221)"
     id="layer1"
     inkscape:groupmode="layer"
     inkscape:label="Layer 1">
    <circle
       style="opacity:0.5;fill:#000000;fill-opacity:1;stroke-width:2.87797;filter:url(#filter41513)"
       id="path884-3"
       cx="294"
       cy="370.36221"
       r="14" />
    <circle
       r="13.5"
       cy="370.36221"
       cx="294"
       id="path884"
       style="opacity:1;fill:#ffffff;fill-opacity:1;stroke-width:2.77518" />
    <path
       d="M 16.013672 2.0488281 C 13.298127 2.0463717 10.603578 2.8339125 8.3066406 4.3671875 C 7.4089606 4.9664175 6.9894675 5.3122881 6.1484375 6.1425781 C 4.4236575 7.8453381 3.1931375 9.9550281 2.5234375 12.361328 C 1.9237575 14.516158 1.9017237 17.136661 2.4648438 19.394531 C 3.8235538 24.842341 8.440935 29.013824 13.984375 29.802734 C 14.412175 29.863594 14.889352 29.927659 15.044922 29.943359 C 15.622302 30.001459 17.404146 29.908147 18.191406 29.779297 C 21.147636 29.295427 23.750188 27.962702 25.861328 25.851562 C 27.337918 24.374973 28.400734 22.706881 29.121094 20.738281 C 30.400654 17.241491 30.181913 13.183798 28.533203 9.8671875 C 26.924553 6.6311875 24.1851 4.1550956 20.84375 2.9160156 C 19.281058 2.3365206 17.642999 2.050302 16.013672 2.0488281 z M 15.816406 2.7617188 L 16.546875 2.7617188 L 16.59375 3.4863281 C 16.70035 5.1341281 16.789699 5.4801981 17.605469 7.4550781 C 18.667409 10.025878 19.001906 11.237351 19.003906 12.519531 C 19.005236 13.251821 18.986792 13.370473 18.820312 13.720703 C 18.478303 14.440183 17.911523 14.992661 17.095703 15.400391 C 16.900021 15.498186 16.750676 15.570432 16.644531 15.615234 C 16.538387 15.660037 16.476083 15.677338 16.453125 15.666016 C 16.40721 15.643371 16.520806 15.504221 16.769531 15.238281 C 17.061051 14.926581 17.311542 14.566243 17.476562 14.220703 C 17.722152 13.706183 17.732422 13.655993 17.732422 12.908203 C 17.732422 12.802805 17.724179 12.768347 17.722656 12.685547 C 17.720431 12.621821 17.732649 12.565425 17.726562 12.5 C 17.72375 12.469769 17.713121 12.436978 17.708984 12.40625 C 17.689142 12.141188 17.651609 11.939636 17.542969 11.681641 C 17.414148 11.375738 17.249488 11.062825 17.050781 10.732422 C 16.294407 9.4398352 15.048523 8.0214178 14.033203 6.8691406 C 13.389186 6.1108536 12.735559 5.3252225 12.619141 5.1523438 C 12.208841 4.5430837 11.709326 3.3984375 11.853516 3.3984375 C 11.867246 3.3984375 12.240354 3.3042831 12.683594 3.1894531 C 13.715544 2.9221031 14.889826 2.7617188 15.816406 2.7617188 z M 21.876953 4.1914062 C 22.177183 4.1319862 24.187351 5.5138763 25.150391 6.4414062 L 25.712891 6.9824219 L 25.222656 7.5410156 C 24.105826 8.8108356 23.923345 9.1201294 23.046875 11.224609 C 21.773395 14.282299 20.75289 15.801072 19.625 16.320312 C 18.87694 16.664693 17.657985 16.595334 16.671875 16.152344 L 16.388672 16.023438 L 17.095703 15.974609 C 18.217303 15.896569 18.812301 15.640694 19.457031 14.958984 C 20.144416 14.232176 20.500425 13.075708 20.751953 10.822266 C 20.771438 10.653286 20.788043 10.494016 20.804688 10.324219 C 20.828662 10.0789 20.856632 9.8904521 20.878906 9.6191406 C 20.953936 8.7052006 21.048391 7.5724725 21.087891 7.1015625 C 21.127361 6.6306425 21.208478 6.015565 21.267578 5.734375 C 21.403148 5.089915 21.747823 4.2170062 21.876953 4.1914062 z M 7.0683594 6.2011719 L 7.8027344 6.8398438 C 8.9928844 7.8716038 9.2786 8.0390175 11.15625 8.8046875 C 14.23345 10.059528 15.874303 11.147709 16.408203 12.287109 C 16.581313 12.656629 16.599703 12.771509 16.595703 13.474609 C 16.591943 14.132009 16.561094 14.338296 16.396484 14.816406 C 16.289364 15.127536 16.177384 15.409806 16.146484 15.441406 C 16.115484 15.473036 16.071881 15.186328 16.050781 14.804688 C 16.050356 14.796979 16.049277 14.790867 16.048828 14.783203 C 16.041794 14.680636 16.031371 14.57923 16.015625 14.46875 C 15.941894 13.822379 15.770625 13.334157 15.451172 12.912109 C 15.290845 12.700292 15.115443 12.52364 14.925781 12.363281 C 14.891742 12.332579 14.870033 12.29749 14.833984 12.267578 C 14.566353 12.045504 14.193756 11.873175 13.78125 11.720703 C 13.760391 11.713161 13.736119 11.706638 13.714844 11.699219 C 12.111709 11.12727 9.7342345 10.987657 7.9199219 10.871094 C 7.0341668 10.793092 6.172601 10.710579 5.9140625 10.662109 C 5.8254022 10.644403 5.7336485 10.630115 5.6484375 10.609375 C 5.0233669 10.444884 4.1914062 10.115142 4.1914062 10.019531 C 4.1914062 9.8826512 4.9675537 8.6470675 5.4648438 7.9921875 C 5.7150838 7.6626575 6.1783006 7.124325 6.4941406 6.796875 L 7.0683594 6.2011719 z M 28.519531 11.671875 L 28.587891 11.849609 C 28.908321 12.692409 29.218703 14.556932 29.220703 15.638672 L 29.222656 16.460938 L 28.498047 16.507812 C 26.769327 16.620673 26.41785 16.708562 24.46875 17.513672 C 22.87863 18.170512 21.955631 18.491737 21.019531 18.716797 C 20.207101 18.912147 19.034806 18.991579 18.597656 18.880859 C 17.768736 18.670909 16.998622 17.980116 16.513672 17.009766 C 16.122492 16.227046 16.141958 16.186154 16.673828 16.683594 C 17.365238 17.330234 18.020878 17.629269 18.830078 17.667969 C 19.779228 17.713349 20.478723 17.461444 21.726562 16.621094 C 22.498182 16.101454 23.227459 15.516616 24.787109 14.166016 C 26.671549 12.534166 27.112912 12.224877 28.164062 11.810547 L 28.519531 11.671875 z M 12.570312 12.916016 C 13.219022 12.911146 13.411978 12.935426 13.736328 13.066406 C 14.483498 13.368116 15.107011 14.023406 15.550781 14.972656 C 15.681401 15.252066 15.787109 15.500844 15.787109 15.527344 C 15.787109 15.541371 15.632029 15.398339 15.537109 15.318359 C 15.280918 15.056464 14.915678 14.763581 14.460938 14.527344 C 14.409276 14.499262 14.357613 14.459889 14.306641 14.435547 C 14.216543 14.392542 14.175308 14.389143 14.107422 14.359375 C 14.077782 14.347926 14.049813 14.334951 14.019531 14.324219 C 13.889225 14.272388 13.7006 14.223714 13.558594 14.208984 C 13.267999 14.150797 12.963592 14.11712 12.626953 14.148438 C 12.358301 14.173431 12.070046 14.251545 11.767578 14.371094 C 11.496986 14.485044 11.228289 14.616651 10.941406 14.783203 C 9.5303306 15.588402 7.9930528 16.956183 6.7753906 18.027344 C 5.4939941 19.116057 5.0182976 19.472075 4.3007812 19.804688 C 3.4468612 20.200517 3.4384625 20.203168 3.3515625 19.929688 C 3.0015425 18.827598 2.7773438 17.387253 2.7773438 16.251953 L 2.7773438 15.369141 L 3.5722656 15.320312 C 4.4871956 15.264873 5.2195812 15.16391 5.6757812 15.03125 C 5.8507912 14.98035 6.74232 14.636918 7.65625 14.267578 C 10.27985 13.207308 11.305372 12.926016 12.570312 12.916016 z M 13.746094 15.296875 C 14.26097 15.322288 14.793338 15.4439 15.242188 15.65625 L 15.595703 15.822266 C 15.298238 15.798637 14.860498 15.803973 14.378906 15.898438 C 14.359276 15.901722 14.339725 15.904638 14.320312 15.908203 C 14.196955 15.934308 14.074393 15.971079 13.947266 16.011719 C 13.824579 16.049176 13.702231 16.089489 13.587891 16.140625 C 13.534377 16.164361 13.482967 16.195615 13.429688 16.222656 C 13.298988 16.290831 13.168387 16.362999 13.046875 16.451172 C 12.94686 16.520525 12.853642 16.606904 12.757812 16.691406 C 12.717098 16.72848 12.672724 16.755223 12.632812 16.794922 C 12.582111 16.845353 12.547843 16.887094 12.503906 16.933594 C 12.468603 16.972264 12.428804 16.997759 12.394531 17.039062 C 12.380871 17.055525 12.368838 17.076645 12.355469 17.09375 C 12.076864 17.422608 11.934587 17.724305 11.732422 18.353516 C 11.533183 18.973605 11.405042 19.70517 11.291016 20.607422 C 11.238823 21.013734 11.201733 21.404062 11.166016 21.814453 C 11.141255 22.088885 11.112841 22.23822 11.087891 22.560547 C 10.822921 25.983797 10.775055 26.289764 10.359375 27.271484 C 10.246055 27.539114 10.107581 27.766244 10.050781 27.777344 C 9.9218012 27.802494 8.6219925 27.027684 8.0078125 26.558594 C 7.4010925 26.095214 6.5702825 25.343414 6.3828125 25.089844 L 6.2324219 24.886719 L 6.6210938 24.466797 C 7.0985237 23.951107 7.8558888 22.975623 8.0742188 22.595703 C 8.1632287 22.440813 8.5224269 21.629789 8.8730469 20.792969 C 9.2236669 19.956149 9.6704744 18.953363 9.8652344 18.564453 C 10.654324 16.988733 11.561025 15.879172 12.359375 15.513672 C 12.73439 15.341982 13.231217 15.271462 13.746094 15.296875 z M 15.617188 16.125 C 15.629653 16.125 15.490871 16.276612 15.417969 16.363281 C 15.417969 16.363281 15.416016 16.365234 15.416016 16.365234 C 15.416016 16.365234 15.414062 16.367188 15.414062 16.367188 C 15.255621 16.525476 15.086044 16.730943 14.923828 16.960938 C 14.497308 17.518699 14.275778 18.082794 14.244141 18.744141 C 14.198761 19.693291 14.452619 20.392785 15.292969 21.640625 C 15.812609 22.412245 16.397447 23.139559 17.748047 24.699219 C 19.182347 26.355529 19.499525 26.785252 19.859375 27.544922 C 20.295705 28.466062 20.306488 28.539059 20.017578 28.630859 C 19.484528 28.800239 18.603686 28.99685 17.941406 29.09375 C 17.055376 29.22336 15.636533 29.302816 15.533203 29.228516 C 15.489343 29.196996 15.431797 28.815265 15.404297 28.359375 C 15.304767 26.710995 15.218411 26.365594 14.394531 24.371094 C 13.332591 21.800294 12.998094 20.588821 12.996094 19.306641 C 12.994684 18.529801 13.003606 18.474236 13.222656 18.035156 C 13.487106 17.505066 13.706441 17.24972 14.244141 16.84375 C 14.570671 16.59722 15.472407 16.125 15.617188 16.125 z M 15.916016 16.302734 L 15.923828 16.835938 C 15.943078 18.577227 16.883834 19.77198 18.615234 20.25 C 19.708144 20.55174 20.683754 20.682431 23.458984 20.900391 C 24.703494 20.998141 25.942387 21.125294 26.210938 21.183594 C 26.764578 21.303824 27.819569 21.712483 27.855469 21.820312 C 27.891949 21.929733 27.180304 23.136965 26.652344 23.859375 C 26.392944 24.214305 25.932669 24.767041 25.630859 25.087891 C 25.329059 25.408741 25.051572 25.669969 25.013672 25.667969 C 24.975742 25.666219 24.752871 25.487994 24.519531 25.271484 C 23.352301 24.188424 22.719059 23.797604 20.980469 23.089844 C 17.832029 21.808154 16.115693 20.676836 15.595703 19.541016 C 15.255183 18.797226 15.316987 17.568662 15.742188 16.669922 L 15.916016 16.302734 z "
       inkscape:transform-center-y="6.5241106"
       inkscape:transform-center-x="-3.7449633"
       style="fill:url(#linearGradient3305);fill-opacity:1;fill-rule:evenodd;stroke:none;stroke-width:0.172357px;stroke-linecap:butt;stroke-linejoin:round;stroke-opacity:1"
       id="path3168"
       transform="translate(278.00001,354.36221)" />
  </g>
</svg>
