<?xml version="1.0" encoding="UTF-8" standalone="no"?>
<svg
   xmlns:dc="http://purl.org/dc/elements/1.1/"
   xmlns:cc="http://creativecommons.org/ns#"
   xmlns:rdf="http://www.w3.org/1999/02/22-rdf-syntax-ns#"
   xmlns:svg="http://www.w3.org/2000/svg"
   xmlns="http://www.w3.org/2000/svg"
   xmlns:sodipodi="http://sodipodi.sourceforge.net/DTD/sodipodi-0.dtd"
   xmlns:inkscape="http://www.inkscape.org/namespaces/inkscape"
   inkscape:version="1.0.1 (3bc2e813f5, 2020-09-07)"
   sodipodi:docname="steam.svg"
   id="svg36"
   version="1.1"
   height="32"
   width="32">
  <metadata
     id="metadata42">
    <rdf:RDF>
      <cc:Work
         rdf:about="">
        <dc:format>image/svg+xml</dc:format>
        <dc:type
           rdf:resource="http://purl.org/dc/dcmitype/StillImage" />
      </cc:Work>
    </rdf:RDF>
  </metadata>
  <defs
     id="defs40">
    <linearGradient
       gradientUnits="userSpaceOnUse"
       y1="0"
       gradientTransform="matrix(0.12018393,0,0,0.12023619,1.9819776,2.000001)"
       id="a"
       x2="116.68872"
       x1="116.68872"
       y2="232.87497">
      <stop
         stop-color="#111D2E"
         offset="0"
         id="stop922" />
      <stop
         stop-color="#051839"
         offset=".21248"
         id="stop924" />
      <stop
         stop-color="#0A1B48"
         offset=".40695"
         id="stop926" />
      <stop
         stop-color="#132E62"
         offset=".58110"
         id="stop928" />
      <stop
         stop-color="#144B7E"
         offset=".73760"
         id="stop930" />
      <stop
         stop-color="#136497"
         offset=".87279"
         id="stop932" />
      <stop
         stop-color="#1387B8"
         offset="1"
         id="stop934" />
    </linearGradient>
    <filter
       inkscape:collect="always"
       style="color-interpolation-filters:sRGB"
       id="filter41509"
       x="-0.075"
       width="1.15"
       y="-0.075"
       height="1.15">
      <feGaussianBlur
         inkscape:collect="always"
         stdDeviation="0.875"
         id="feGaussianBlur41511" />
    </filter>
  </defs>
  <sodipodi:namedview
     inkscape:current-layer="svg36"
     inkscape:window-maximized="1"
     inkscape:window-y="0"
     inkscape:window-x="0"
     inkscape:cy="28.869507"
     inkscape:cx="-15.339857"
     inkscape:zoom="8.4189901"
     showgrid="false"
     id="namedview38"
     inkscape:window-height="1000"
     inkscape:window-width="1920"
     inkscape:pageshadow="2"
     inkscape:pageopacity="0"
     guidetolerance="10"
     gridtolerance="10"
     objecttolerance="10"
     borderopacity="1"
     bordercolor="#666666"
     pagecolor="#ffffff"
     inkscape:document-rotation="0" />
  <circle
     r="14"
     cy="16"
     cx="16"
     id="path1552"
     style="opacity:0.5;fill:#000000;stroke:none;stroke-width:2.45157;filter:url(#filter41509)" />
  <path
     style="fill:url(#a);stroke-width:0.12021"
     fill="url(#a)"
     d="M 2.5701246,20.026953 C 4.3008606,25.796395 9.6546836,30 15.991055,30 23.727841,30 30.000001,23.731845 30.000001,16 30.000001,8.2680337 23.727841,2 15.991055,2 8.5667956,2 2.4919636,7.7717249 2.0121716,15.069871 c 0.906566,1.521373 1.260325,2.462318 0.558086,4.957082 z"
     id="path939" />
  <path
     style="stroke-width:0.12021"
     fill="#ffffff"
     d="m 15.269432,12.493631 c 0,0.02355 0,0.04711 0.0012,0.06921 l -3.428044,4.97655 c -0.555307,-0.02523 -1.112538,0.0721 -1.64091,0.289613 -0.2329204,0.09494 -0.4511714,0.211503 -0.6559544,0.346095 l -7.527434,-3.096824 c 5.9e-5,0 -0.17418,2.863691 0.5517,4.99794 l 5.321475,2.194334 c 0.267193,1.193306 1.086325,2.240001 2.2948214,2.74352 1.977246,0.825579 4.257036,-0.115365 5.079536,-2.092189 0.214042,-0.516738 0.313848,-1.058713 0.299419,-1.599485 l 4.904934,-3.503005 c 0.03968,0.0012 0.08057,0.0024 0.120249,0.0024 2.935265,0 5.320994,-2.391416 5.320994,-5.328171 0,-2.9369957 -2.385729,-5.326249 -5.320994,-5.326249 -2.934063,0 -5.320995,2.3892533 -5.320995,5.326249 z m -0.822499,10.084566 c -0.636596,1.527382 -2.392945,2.252017 -3.919619,1.616309 C 9.8230196,23.901287 9.2912806,23.364119 8.9845266,22.723605 l 1.7321784,0.717424 c 1.125886,0.46867 2.417595,-0.06489 2.885602,-1.189699 0.469451,-1.126008 -0.06313,-2.419056 -1.188415,-2.887725 l -1.79062,-0.74146 c 0.690948,-0.261974 1.476411,-0.271587 2.210287,0.03365 0.739889,0.307639 1.313955,0.886866 1.618184,1.627124 0.304228,0.740257 0.303026,1.557425 -0.0048,2.295279 m 6.143494,-6.534936 c -1.954038,0 -3.544925,-1.592274 -3.544925,-3.54963 0,-1.955795 1.590887,-3.5485499 3.544925,-3.5485499 1.95524,0 3.546127,1.5927549 3.546127,3.5485499 0,1.957356 -1.590887,3.54963 -3.546127,3.54963 m -2.656289,-3.555038 c 0,-1.472463 1.192865,-2.6667299 2.662301,-2.6667299 1.470639,0 2.663504,1.1942669 2.663504,2.6667299 0,1.472584 -1.192865,2.665769 -2.663504,2.665769 -1.469436,0 -2.662301,-1.193185 -2.662301,-2.665769 z"
     id="path941" />
</svg>
