<?xml version="1.0" encoding="UTF-8" standalone="no"?>
<svg
   xmlns:dc="http://purl.org/dc/elements/1.1/"
   xmlns:cc="http://creativecommons.org/ns#"
   xmlns:rdf="http://www.w3.org/1999/02/22-rdf-syntax-ns#"
   xmlns:svg="http://www.w3.org/2000/svg"
   xmlns="http://www.w3.org/2000/svg"
   xmlns:xlink="http://www.w3.org/1999/xlink"
   xmlns:sodipodi="http://sodipodi.sourceforge.net/DTD/sodipodi-0.dtd"
   xmlns:inkscape="http://www.inkscape.org/namespaces/inkscape"
   width="32"
   height="32"
   version="1"
   id="svg10"
   sodipodi:docname="stock_xfburn-audio-cd.svg"
   inkscape:version="1.0.1 (3bc2e813f5, 2020-09-07)">
  <metadata
     id="metadata16">
    <rdf:RDF>
      <cc:Work
         rdf:about="">
        <dc:format>image/svg+xml</dc:format>
        <dc:type
           rdf:resource="http://purl.org/dc/dcmitype/StillImage" />
        <dc:title />
      </cc:Work>
    </rdf:RDF>
  </metadata>
  <defs
     id="defs14">
    <pattern
       inkscape:collect="always"
       xlink:href="#pattern3095"
       id="pattern3100"
       patternTransform="translate(-1.3599061,-1.35891)" />
    <linearGradient
       inkscape:collect="always"
       id="linearGradient841">
      <stop
         style="stop-color:#fd1400;stop-opacity:1"
         offset="0"
         id="stop837" />
      <stop
         id="stop875"
         offset="0.15622605"
         style="stop-color:#ffcc00;stop-opacity:1" />
      <stop
         style="stop-color:#009900;stop-opacity:1"
         offset="0.3660621"
         id="stop877" />
      <stop
         id="stop879"
         offset="0.52901989"
         style="stop-color:#2cf5cf;stop-opacity:1" />
      <stop
         style="stop-color:#0099ff;stop-opacity:1"
         offset="0.77010816"
         id="stop881" />
      <stop
         id="stop883"
         offset="0.89734918"
         style="stop-color:#f800fc;stop-opacity:1" />
      <stop
         style="stop-color:#ff1111;stop-opacity:1"
         offset="1"
         id="stop839" />
    </linearGradient>
    <linearGradient
       inkscape:collect="always"
       xlink:href="#linearGradient841"
       id="linearGradient843"
       x1="2.0009755"
       y1="16"
       x2="29.999024"
       y2="16"
       gradientUnits="userSpaceOnUse"
       gradientTransform="rotate(90,16.000498,17.359408)" />
    <filter
       inkscape:collect="always"
       style="color-interpolation-filters:sRGB"
       id="filter3091"
       x="-0.11999573"
       width="1.2399915"
       y="-0.12000427"
       height="1.2400085">
      <feGaussianBlur
         inkscape:collect="always"
         stdDeviation="1.3999522"
         id="feGaussianBlur3093" />
    </filter>
    <pattern
       patternUnits="userSpaceOnUse"
       width="34.719812"
       height="34.717817"
       patternTransform="translate(-1.3599056,-1.3589098)"
       id="pattern3095">
      <path
         sodipodi:nodetypes="ccccccccccccccccccccccccccccccccc"
         inkscape:connector-curvature="0"
         id="path6-7"
         d="m 31.359885,17.357933 c -0.0044,-0.804987 -0.07826,-1.608094 -0.220703,-2.400391 0.118302,0.710209 0.181641,1.428486 0.189453,2.148438 l -7.974609,0.07422 c 0.0028,0.05921 0.0048,0.118464 0.0059,0.177735 -1e-6,3.313708 -2.686292,5.999999 -6,5.999999 -0.01107,-6.36e-4 0.01107,6.97e-4 0,0 l -0.0332,7.998 c 0.01107,6.8e-4 0.02213,0.0013 0.0332,0.002 7.731986,-1e-6 13.999998,-6.268013 13.999999,-13.999999 z m -0.24414,-2.544922 c -0.04995,-0.260037 -0.107262,-0.518605 -0.171875,-0.775391 0.06461,0.256786 0.121928,0.515354 0.171875,0.775391 z m -0.369141,-1.546875 c -0.01727,-0.05219 -0.03485,-0.104271 -0.05273,-0.15625 0.01788,0.05198 0.03546,0.104064 0.05273,0.15625 z M 17.330589,3.3598853 C 9.6108071,3.3760403 3.3609451,9.6381352 3.3598851,17.357933 c 0.0018,0.04428 0.0037,0.08855 0.0059,0.132812 l 7.9960949,-0.07422 c -7.62e-4,-0.01953 -0.0014,-0.03906 -0.002,-0.05859 -4e-5,-3.302301 2.668441,-5.983875 5.970702,-6.000001 z M 16.982933,31.344261 c -0.24768,-0.0058 -0.495163,-0.01818 -0.742187,-0.03711 0.247024,0.01893 0.494506,0.03131 0.742187,0.03711 z m -1.789062,-0.164063 c -0.10042,-0.01388 -0.200687,-0.02886 -0.300783,-0.04492 0.100095,0.01606 0.200362,0.03104 0.300783,0.04492 z m -1.498047,-0.314453 c -0.03715,-0.009 -0.07426,-0.01807 -0.111328,-0.02734 0.03707,0.0093 0.07418,0.01838 0.111328,0.02734 z"
         style="opacity:1;fill:url(#linearGradient843);fill-opacity:1;filter:url(#filter3091)" />
    </pattern>
    <pattern
       id="pattern3095-3"
       patternTransform="translate(-1.3599056,-1.3589098)"
       height="34.717817"
       width="34.719812"
       patternUnits="userSpaceOnUse">
      <path
         style="opacity:1;fill:url(#linearGradient843);fill-opacity:1;filter:url(#filter3091-7)"
         d="m 31.359885,17.357933 c -0.0044,-0.804987 -0.07826,-1.608094 -0.220703,-2.400391 0.118302,0.710209 0.181641,1.428486 0.189453,2.148438 l -7.974609,0.07422 c 0.0028,0.05921 0.0048,0.118464 0.0059,0.177735 -1e-6,3.313708 -2.686292,5.999999 -6,5.999999 -0.01107,-6.36e-4 0.01107,6.97e-4 0,0 l -0.0332,7.998 c 0.01107,6.8e-4 0.02213,0.0013 0.0332,0.002 7.731986,-1e-6 13.999998,-6.268013 13.999999,-13.999999 z m -0.24414,-2.544922 c -0.04995,-0.260037 -0.107262,-0.518605 -0.171875,-0.775391 0.06461,0.256786 0.121928,0.515354 0.171875,0.775391 z m -0.369141,-1.546875 c -0.01727,-0.05219 -0.03485,-0.104271 -0.05273,-0.15625 0.01788,0.05198 0.03546,0.104064 0.05273,0.15625 z M 17.330589,3.3598853 C 9.6108071,3.3760403 3.3609451,9.6381352 3.3598851,17.357933 c 0.0018,0.04428 0.0037,0.08855 0.0059,0.132812 l 7.9960949,-0.07422 c -7.62e-4,-0.01953 -0.0014,-0.03906 -0.002,-0.05859 -4e-5,-3.302301 2.668441,-5.983875 5.970702,-6.000001 z M 16.982933,31.344261 c -0.24768,-0.0058 -0.495163,-0.01818 -0.742187,-0.03711 0.247024,0.01893 0.494506,0.03131 0.742187,0.03711 z m -1.789062,-0.164063 c -0.10042,-0.01388 -0.200687,-0.02886 -0.300783,-0.04492 0.100095,0.01606 0.200362,0.03104 0.300783,0.04492 z m -1.498047,-0.314453 c -0.03715,-0.009 -0.07426,-0.01807 -0.111328,-0.02734 0.03707,0.0093 0.07418,0.01838 0.111328,0.02734 z"
         id="path6-7-7"
         inkscape:connector-curvature="0"
         sodipodi:nodetypes="ccccccccccccccccccccccccccccccccc" />
    </pattern>
    <filter
       height="1.2400085"
       y="-0.12000427"
       width="1.2399915"
       x="-0.11999573"
       id="filter3091-7"
       style="color-interpolation-filters:sRGB"
       inkscape:collect="always">
      <feGaussianBlur
         id="feGaussianBlur3093-0"
         stdDeviation="1.3999522"
         inkscape:collect="always" />
    </filter>
    <filter
       inkscape:collect="always"
       style="color-interpolation-filters:sRGB"
       id="filter41505"
       x="-0.075"
       width="1.15"
       y="-0.075"
       height="1.15">
      <feGaussianBlur
         inkscape:collect="always"
         stdDeviation="0.87500001"
         id="feGaussianBlur41507" />
    </filter>
  </defs>
  <sodipodi:namedview
     pagecolor="#ffffff"
     bordercolor="#666666"
     borderopacity="1"
     objecttolerance="10"
     gridtolerance="10"
     guidetolerance="10"
     inkscape:pageopacity="0"
     inkscape:pageshadow="2"
     inkscape:window-width="1920"
     inkscape:window-height="1000"
     id="namedview12"
     showgrid="false"
     inkscape:zoom="11.313709"
     inkscape:cx="13.111884"
     inkscape:cy="8.2788759"
     inkscape:window-x="0"
     inkscape:window-y="0"
     inkscape:window-maximized="1"
     inkscape:current-layer="svg10"
     inkscape:document-rotation="0" />
  <path
     inkscape:connector-curvature="0"
     id="path6-3"
     d="M 16.000001,2.0000007 A 14,14 0 0 0 2.0000006,16.000001 a 14,14 0 0 0 14.0000004,14 14,14 0 0 0 14,-14 14,14 0 0 0 -14,-14.0000003 z m 0,8.0000003 a 6,6 0 0 1 6,6 6,6 0 0 1 -6,6 6,6 0 0 1 -6,-6 6,6 0 0 1 6,-6 z"
     style="opacity:0.5;fill:#000000;fill-opacity:1;filter:url(#filter41505)" />
  <path
     style="fill:#848484"
     d="M 16 8 A 8 8 0 0 0 8 16 A 8 8 0 0 0 16 24 A 8 8 0 0 0 24 16 A 8 8 0 0 0 16 8 z M 16 13 A 3 3 0 0 1 19 16 A 3 3 0 0 1 16 19 A 3 3 0 0 1 13 16 A 3 3 0 0 1 16 13 z"
     id="path4" />
  <path
     inkscape:connector-curvature="0"
     style="opacity:1;fill:#e6e6e6;fill-opacity:1"
     d="M 16,2 A 14,14 0 0 0 2,16 14,14 0 0 0 16,30 14,14 0 0 0 30,16 14,14 0 0 0 16,2 Z m 0,8 a 6,6 0 0 1 6,6 6,6 0 0 1 -6,6 6,6 0 0 1 -6,-6 6,6 0 0 1 6,-6 z"
     id="path2-1" />
  <path
     style="fill:url(#pattern3100);fill-opacity:1;opacity:0.2"
     d="M 16,2 A 14,14 0 0 0 1.9999999,16 14,14 0 0 0 16,30 14,14 0 0 0 30,16 14,14 0 0 0 16,2 Z m 0,8 a 6,6 0 0 1 6,6 6,6 0 0 1 -6,6 6,6 0 0 1 -6,-6 6,6 0 0 1 6,-6 z"
     id="path6"
     inkscape:connector-curvature="0" />
  <circle
     id="circle10"
     r="8"
     cy="24"
     cx="24"
     fill="#ff5722"
     style="fill:#ff9933;fill-opacity:1" />
  <path
     inkscape:connector-curvature="0"
     id="path4-8"
     d="m 26.387179,20 -3.688771,0.952885 c -0.277135,0.07419 -0.500724,0.369152 -0.500724,0.655793 v 4.544838 c -0.281022,-0.147011 -0.641966,-0.206431 -1.016144,-0.109298 -0.67521,0.175274 -1.097898,0.741572 -0.95316,1.264884 0.144738,0.523311 0.810167,0.815172 1.485376,0.639894 0.538678,-0.139832 0.909685,-0.534681 0.968906,-0.951892 l 0.01575,-4.295439 3.501918,-0.936988 v 3.389253 c -0.281025,-0.147012 -0.641968,-0.206433 -1.016144,-0.109299 -0.675211,0.175276 -1.098948,0.741569 -0.95421,1.264884 0.144737,0.523311 0.810168,0.815173 1.485376,0.639895 0.538679,-0.139834 0.909686,-0.534679 0.968906,-0.951893 l 0.01574,-5.591125 C 26.700006,20.191412 26.566849,20.030239 26.387185,20 Z"
     class="ColorScheme-Text"
     style="color:#4d4d4d;opacity:1;fill:#ffffff;fill-opacity:1;stroke:none;stroke-width:0.499999" />
</svg>
