<?xml version="1.0" encoding="UTF-8" standalone="no"?>
<svg
   xmlns:dc="http://purl.org/dc/elements/1.1/"
   xmlns:cc="http://creativecommons.org/ns#"
   xmlns:rdf="http://www.w3.org/1999/02/22-rdf-syntax-ns#"
   xmlns:svg="http://www.w3.org/2000/svg"
   xmlns="http://www.w3.org/2000/svg"
   xmlns:xlink="http://www.w3.org/1999/xlink"
   xmlns:sodipodi="http://sodipodi.sourceforge.net/DTD/sodipodi-0.dtd"
   xmlns:inkscape="http://www.inkscape.org/namespaces/inkscape"
   width="32"
   height="32"
   version="1.1"
   viewBox="0 0 8.47 8.47"
   id="svg10"
   sodipodi:docname="synfig_icon.svg"
   inkscape:version="1.0.1 (3bc2e813f5, 2020-09-07)">
  <metadata
     id="metadata16">
    <rdf:RDF>
      <cc:Work
         rdf:about="">
        <dc:format>image/svg+xml</dc:format>
        <dc:type
           rdf:resource="http://purl.org/dc/dcmitype/StillImage" />
      </cc:Work>
    </rdf:RDF>
  </metadata>
  <defs
     id="defs14">
    <linearGradient
       inkscape:collect="always"
       id="linearGradient849">
      <stop
         style="stop-color:#35a1fd;stop-opacity:1"
         offset="0"
         id="stop845" />
      <stop
         style="stop-color:#026eca;stop-opacity:1"
         offset="1"
         id="stop847" />
    </linearGradient>
    <filter
       inkscape:collect="always"
       style="color-interpolation-filters:sRGB"
       id="filter841"
       x="-0.085227629"
       width="1.1704553"
       y="-0.066964066"
       height="1.1339281">
      <feGaussianBlur
         inkscape:collect="always"
         stdDeviation="0.206705"
         id="feGaussianBlur843" />
    </filter>
    <radialGradient
       inkscape:collect="always"
       xlink:href="#linearGradient849"
       id="radialGradient851"
       cx="4.235477"
       cy="5.0559158"
       fx="4.235477"
       fy="5.0559158"
       r="2.910394"
       gradientTransform="matrix(1.0000001,0,0,1.2727368,-3.4696897e-7,-1.1545857)"
       gradientUnits="userSpaceOnUse" />
  </defs>
  <sodipodi:namedview
     pagecolor="#ffffff"
     bordercolor="#666666"
     borderopacity="1"
     objecttolerance="10"
     gridtolerance="10"
     guidetolerance="10"
     inkscape:pageopacity="0"
     inkscape:pageshadow="2"
     inkscape:window-width="1920"
     inkscape:window-height="1000"
     id="namedview12"
     showgrid="false"
     inkscape:zoom="23.8125"
     inkscape:cx="16"
     inkscape:cy="16"
     inkscape:window-x="0"
     inkscape:window-y="0"
     inkscape:window-maximized="1"
     inkscape:current-layer="svg10" />
  <path
     style="opacity:0.5;filter:url(#filter841)"
     d="m 4.2437011,0.53087371 c -0.025688,-7.2801e-4 -0.050503,0.00866 -0.068287,0.0258275 C 3.9188259,0.80446576 3.6580433,1.0824658 3.4223535,1.3470765 c -2.74e-4,3.321e-4 -5.444e-4,6.667e-4 -8.112e-4,10e-4 C 2.8407442,2.0183285 2.3992874,2.7070073 2.0793646,3.4443791 1.7813459,4.1312655 1.6071028,4.725484 1.4485174,5.5910801 1.413789,5.7806315 1.3786961,6.0103199 1.3544856,6.1951455 c -0.012105,0.092413 -0.021505,0.1734892 -0.026828,0.2334514 -0.00266,0.029981 -0.00421,0.054581 -0.00461,0.074471 -1.968e-4,0.0099 -2.28e-4,0.01824 8.112e-4,0.028581 5.207e-4,0.0052 0.00101,0.01069 0.00379,0.02006 0.00279,0.0094 5.122e-4,0.028391 0.041189,0.051651 0.02195,0.01255 0.024904,0.01007 0.03035,0.01128 0.00544,0.0012 0.00966,0.0021 0.014091,0.0028 0.00886,0.0013 0.018259,0.0022 0.028995,0.0033 0.021474,0.0021 0.048063,0.0041 0.076146,0.0055 0.2226836,0.01128 0.5510624,0.063641 0.7687773,0.1226185 0.1469821,0.039811 0.2437506,0.072751 0.387234,0.1316446 0.033149,0.01361 0.063549,0.026051 0.086172,0.035101 0.011313,0.0045 0.020599,0.0081 0.027641,0.01078 0.00331,0.0013 0.00625,0.0022 0.00893,0.0032 1.691e-4,6.5e-5 3.729e-4,1.9e-4 5.42e-4,2.511e-4 4.33e-5,1.6e-5 2.237e-4,-2.4e-5 2.704e-4,0 9.54e-5,3.3e-5 1.76e-4,2.16e-4 2.706e-4,2.5e-4 0.00101,4.85e-4 0.00206,9.1e-4 0.00379,0.0017 -1.032e-4,-2.2e-4 -4.708e-4,-6.29e-4 -8.112e-4,-7.7e-4 5.098e-4,1.75e-4 7.15e-4,2.92e-4 0.00136,5.01e-4 0.00114,3.78e-4 0.00239,9.8e-4 0.00515,0.0017 0.00109,3.01e-4 0.00192,8.4e-4 0.00325,0.0015 -6.39e-4,-1.371e-4 -0.00304,-1.021e-4 -0.00352,-2.491e-4 0.00636,0.0031 0.013907,0.0071 0.024118,0.01229 0.024287,0.01236 0.057656,0.029481 0.094031,0.048401 0.3513838,0.1827367 0.6141647,0.3711776 1.0337984,0.7432341 0.055287,0.049011 0.1068042,0.093482 0.1457885,0.1263806 0.019492,0.01645 0.03568,0.029981 0.048506,0.040121 0.00641,0.005 0.011833,0.0092 0.017613,0.01329 0.00289,0.002 0.00569,0.0041 0.010568,0.007 0.00245,0.0014 0.00544,0.0031 0.010839,0.0055 0.0054,0.0024 0.010781,0.0071 0.035769,0.0083 0.029937,0.0013 0.036149,-0.0047 0.042273,-0.0073 0.00613,-0.0025 0.00927,-0.0043 0.011923,-0.0057 0.0053,-0.003 0.00829,-0.0051 0.011381,-0.0073 0.00618,-0.0043 0.011764,-0.0086 0.018698,-0.01404 0.013868,-0.01079 0.031579,-0.025421 0.052841,-0.043131 0.042513,-0.035379 0.098768,-0.08349 0.1593281,-0.1366243 C 4.8720798,7.4202982 5.0401112,7.2915415 5.2818055,7.1431415 5.8096242,6.8190569 6.2799655,6.675208 7.0020026,6.6188148 l 0.058533,-0.0045 c 0.047052,-0.0036 0.083233,-0.040061 0.083192,-0.083752 V 6.4987318 C 7.1437283,6.4323408 7.1266566,6.295218 7.1036256,6.1253593 7.0806169,5.9555771 7.0511576,5.762245 7.024524,5.615403 6.8661259,4.7420243 6.6860411,4.1268952 6.384192,3.43134 6.112268,2.8047414 5.7229715,2.1717833 5.2577177,1.5988332 c -0.00104,-0.00129 -0.00213,-0.00253 -0.00325,-0.00377 C 4.9412962,1.2520324 4.6383689,0.89198706 4.3079239,0.55820587 4.2913889,0.54143683 4.268221,0.53157653 4.2437011,0.53087371 Z"
     id="path2" />
  <path
     style="fill:url(#radialGradient851);fill-opacity:1"
     d="m 4.2437011,0.52920602 c -0.025688,-7.2801e-4 -0.050503,0.00866 -0.068287,0.0258275 C 3.9188259,0.80279811 3.6580433,1.0807981 3.4223535,1.3454088 c -2.74e-4,3.321e-4 -5.444e-4,6.667e-4 -8.112e-4,0.001 C 2.8407442,2.0166608 2.3992874,2.7053396 2.0793646,3.4427114 1.7813459,4.1295978 1.6071028,4.7238163 1.4485174,5.5894124 1.413789,5.7789638 1.3786961,6.0086522 1.3544856,6.1934778 1.3423808,6.2858906 1.3329811,6.366967 1.327658,6.4269292 c -0.00266,0.029981 -0.00421,0.054581 -0.00461,0.074471 -1.968e-4,0.0099 -2.28e-4,0.01824 8.112e-4,0.028581 5.207e-4,0.0052 0.00101,0.01069 0.00379,0.02006 0.00279,0.0094 5.122e-4,0.028391 0.041189,0.051651 0.02195,0.01255 0.024904,0.01007 0.03035,0.01128 0.00544,0.0012 0.00966,0.0021 0.014091,0.0028 0.00886,0.0013 0.018259,0.0022 0.028995,0.0033 0.021474,0.0021 0.048063,0.0041 0.076146,0.0055 0.2226836,0.01128 0.5510624,0.063641 0.7687773,0.1226185 0.1469821,0.039811 0.2437506,0.072751 0.387234,0.1316446 0.033149,0.01361 0.063549,0.026051 0.086172,0.035101 0.011313,0.0045 0.020599,0.0081 0.027641,0.01078 0.00331,0.0013 0.00625,0.0022 0.00893,0.0032 1.691e-4,6.5e-5 3.729e-4,1.9e-4 5.42e-4,2.511e-4 4.33e-5,1.6e-5 2.237e-4,-2.4e-5 2.704e-4,0 9.54e-5,3.3e-5 1.76e-4,2.16e-4 2.706e-4,2.5e-4 0.00101,4.85e-4 0.00206,9.1e-4 0.00379,0.0017 -1.032e-4,-2.2e-4 -4.708e-4,-6.29e-4 -8.112e-4,-7.7e-4 5.098e-4,1.75e-4 7.15e-4,2.92e-4 0.00136,5.01e-4 0.00114,3.78e-4 0.00239,9.8e-4 0.00515,0.0017 0.00109,3.01e-4 0.00192,8.4e-4 0.00325,0.0015 -6.39e-4,-1.371e-4 -0.00304,-1.021e-4 -0.00352,-2.491e-4 0.00636,0.0031 0.013907,0.0071 0.024118,0.01229 0.024287,0.01236 0.057656,0.029481 0.094031,0.048401 0.3513838,0.1827367 0.6141647,0.3711776 1.0337984,0.7432341 0.055287,0.049011 0.1068042,0.093482 0.1457885,0.1263806 0.019492,0.01645 0.03568,0.029981 0.048506,0.040121 0.00641,0.005 0.011833,0.0092 0.017613,0.01329 0.00289,0.002 0.00569,0.0041 0.010568,0.007 0.00245,0.0014 0.00544,0.0031 0.010839,0.0055 0.0054,0.0024 0.010781,0.0071 0.035769,0.0083 0.029937,0.0013 0.036149,-0.0047 0.042273,-0.0073 0.00613,-0.0025 0.00927,-0.0043 0.011923,-0.0057 0.0053,-0.003 0.00829,-0.0051 0.011381,-0.0073 0.00618,-0.0043 0.011764,-0.0086 0.018698,-0.01404 0.013868,-0.01079 0.031579,-0.025421 0.052841,-0.043131 0.042513,-0.035379 0.098768,-0.08349 0.1593281,-0.1366243 C 4.8720798,7.4186305 5.0401112,7.2898738 5.2818055,7.1414738 5.8096242,6.8173892 6.2799655,6.6735403 7.0020026,6.6171471 l 0.058533,-0.0045 c 0.047052,-0.0036 0.083233,-0.040061 0.083192,-0.083752 v -0.031831 c 7e-7,-0.066391 -0.017071,-0.2035138 -0.040102,-0.3733725 C 7.0806169,5.9539094 7.0511576,5.7605773 7.024524,5.6137353 6.8661259,4.7403566 6.6860411,4.1252275 6.384192,3.4296723 6.112268,2.8030737 5.7229715,2.1701156 5.2577177,1.5971655 c -0.00104,-0.00129 -0.00213,-0.00253 -0.00325,-0.00377 C 4.9412962,1.2503647 4.6383689,0.89031939 4.3079239,0.55653818 4.2913889,0.53976914 4.268221,0.52990884 4.2437011,0.52920602 Z"
     id="path4" />
  <path
     style="fill:#ffffff;fill-rule:evenodd;fill-opacity:1;opacity:0.2"
     d="m 4.2436482,0.53097352 c -0.025688,-7.2801e-4 -0.050429,0.00888 -0.068212,0.0260455 C 3.9581477,0.76683443 3.7407494,0.99774184 3.5352313,1.2244301 l 0.7002456,4.0558346 0.69314,-4.0493233 C 4.7263819,1.0033032 4.5230956,0.77578071 4.3079527,0.55846578 4.2914178,0.54169674 4.268168,0.53167624 4.2436482,0.53097352 Z M 4.2354769,5.2802647 6.3653455,3.4046402 C 6.2192583,3.0751772 6.038983,2.7453579 5.8342106,2.4228764 Z m 0,0 2.6354238,-0.3787423 C 6.8060665,4.6335502 6.7327568,4.3831253 6.6499201,4.139697 Z m 0,0 2.8173241,1.3351841 0.00781,-7.23e-4 c 0.047052,-0.0036 0.083175,-0.040231 0.083134,-0.083922 v -0.02749 C 7.1437458,6.4371328 7.12663,6.3007617 7.103599,6.1314445 7.091999,6.0461895 7.077485,5.9635489 7.063809,5.8753323 L 7.0126569,5.6872269 Z m 0,0 1.0324267,1.8582607 0.055778,-0.01953 C 5.5196704,7.0015786 5.7097453,6.9088068 5.9081071,6.8361143 Z m 0,0 -0.4369873,2.3209272 c 0.052938,0.045111 0.102598,0.085732 0.1609393,0.1374618 0.055286,0.049011 0.106678,0.093352 0.1456624,0.1262466 0.019492,0.01645 0.035848,0.030021 0.048672,0.040151 0.00641,0.005 0.011629,0.0093 0.017409,0.01338 0.00289,0.002 0.00578,0.004 0.010658,0.0069 6.185e-4,3.52e-4 0.00211,0.001 0.00284,0.0014 l 0.050805,0.009 0.1442414,-0.086452 c 0.040881,-0.034231 0.090169,-0.075691 0.145307,-0.1240765 0.05324,-0.046721 0.082528,-0.067931 0.1282541,-0.1070752 z m 0,0 -1.6569988,1.5638047 c 0.031499,0.01197 0.060111,0.02184 0.095924,0.036541 0.033149,0.01361 0.063708,0.026031 0.086332,0.035091 0.011313,0.0045 0.020315,0.0081 0.027356,0.01085 0.00331,0.0013 0.00654,0.0023 0.00923,0.0033 0,0 3.552e-4,3.62e-4 3.552e-4,3.62e-4 0,0 3.554e-4,0 3.554e-4,0 0,0 3.551e-4,0 3.551e-4,0 0.00101,4.85e-4 0.00181,9.69e-4 0.00356,0.0018 -1.031e-4,-2.21e-4 -3.701e-4,-5.83e-4 -7.105e-4,-7.24e-4 5.099e-4,1.75e-4 7.818e-4,1.53e-4 0.00143,3.62e-4 0.00114,3.77e-4 0.00221,0.001 0.00497,0.0018 0.00109,3e-4 0.00223,8.17e-4 0.00356,0.0014 -6.392e-4,-1.38e-4 -0.00307,1.47e-4 -0.00356,0 0.00636,0.0031 0.013948,0.0071 0.024159,0.0123 0.024288,0.01236 0.057418,0.029191 0.093793,0.048111 0.093516,0.048631 0.1808638,0.098412 0.2664556,0.1512081 z m 0,0 -2.7945867,0.3671667 c -0.0319,0.1790822 -0.064084,0.3841578 -0.086332,0.5534629 -0.012105,0.092118 -0.021677,0.1728285 -0.027001,0.2325998 -0.00261,0.029301 -0.00419,0.053081 -0.00462,0.072711 -8.6e-6,3.891e-4 7.6e-6,0.0011 0,0.0014 -1.067e-4,0.0081 1.841e-4,0.01546 0.00107,0.024241 5.206e-4,0.0052 7.683e-4,0.01052 0.00356,0.01989 0.00278,0.0094 5.346e-4,0.028461 0.041212,0.051731 0.021951,0.01255 0.025108,0.01 0.030553,0.01121 0.00544,0.0012 0.00943,0.0022 0.013856,0.0029 0.00886,0.0013 0.018396,0.0022 0.029133,0.0033 0.021474,0.0021 0.047946,0.004 0.076029,0.0054 0.040699,0.0021 0.087854,0.0066 0.1342936,0.01121 z m 0,0 L 1.8181913,4.139697 C 1.7386666,4.3727836 1.6681106,4.6129447 1.6053821,4.8693276 Z m 0,0 -1.59376,-2.8736666 C 2.4482116,2.7095246 2.2805171,3.0194658 2.135096,3.3377182 Z"
     id="path6" />
</svg>
