<?xml version="1.0" encoding="UTF-8" standalone="no"?>
<svg
   xmlns:dc="http://purl.org/dc/elements/1.1/"
   xmlns:cc="http://creativecommons.org/ns#"
   xmlns:rdf="http://www.w3.org/1999/02/22-rdf-syntax-ns#"
   xmlns:svg="http://www.w3.org/2000/svg"
   xmlns="http://www.w3.org/2000/svg"
   xmlns:xlink="http://www.w3.org/1999/xlink"
   xmlns:sodipodi="http://sodipodi.sourceforge.net/DTD/sodipodi-0.dtd"
   xmlns:inkscape="http://www.inkscape.org/namespaces/inkscape"
   inkscape:version="1.0.1 (3bc2e813f5, 2020-09-07)"
   sodipodi:docname="system-os-installer.svg"
   id="svg10"
   version="1"
   height="32"
   width="32">
  <metadata
     id="metadata16">
    <rdf:RDF>
      <cc:Work
         rdf:about="">
        <dc:format>image/svg+xml</dc:format>
        <dc:type
           rdf:resource="http://purl.org/dc/dcmitype/StillImage" />
        <dc:title />
      </cc:Work>
    </rdf:RDF>
  </metadata>
  <defs
     id="defs14">
    <pattern
       patternTransform="translate(-1.3599061,-1.35891)"
       id="pattern3100"
       xlink:href="#pattern3095"
       inkscape:collect="always" />
    <linearGradient
       id="linearGradient841"
       inkscape:collect="always">
      <stop
         id="stop837"
         offset="0"
         style="stop-color:#fd1400;stop-opacity:1" />
      <stop
         style="stop-color:#ffcc00;stop-opacity:1"
         offset="0.15622605"
         id="stop875" />
      <stop
         id="stop877"
         offset="0.3660621"
         style="stop-color:#009900;stop-opacity:1" />
      <stop
         style="stop-color:#2cf5cf;stop-opacity:1"
         offset="0.52901989"
         id="stop879" />
      <stop
         id="stop881"
         offset="0.77010816"
         style="stop-color:#0099ff;stop-opacity:1" />
      <stop
         style="stop-color:#f800fc;stop-opacity:1"
         offset="0.89734918"
         id="stop883" />
      <stop
         id="stop839"
         offset="1"
         style="stop-color:#ff1111;stop-opacity:1" />
    </linearGradient>
    <linearGradient
       gradientTransform="rotate(90,16.000498,17.359408)"
       gradientUnits="userSpaceOnUse"
       y2="16"
       x2="29.999024"
       y1="16"
       x1="2.0009755"
       id="linearGradient843"
       xlink:href="#linearGradient841"
       inkscape:collect="always" />
    <filter
       height="1.2400085"
       y="-0.12000427"
       width="1.2399915"
       x="-0.11999573"
       id="filter3091"
       style="color-interpolation-filters:sRGB"
       inkscape:collect="always">
      <feGaussianBlur
         id="feGaussianBlur3093"
         stdDeviation="1.3999522"
         inkscape:collect="always" />
    </filter>
    <pattern
       id="pattern3095"
       patternTransform="translate(-1.3599056,-1.3589098)"
       height="34.717817"
       width="34.719812"
       patternUnits="userSpaceOnUse">
      <path
         style="opacity:1;fill:url(#linearGradient843);fill-opacity:1;filter:url(#filter3091)"
         d="m 31.359885,17.357933 c -0.0044,-0.804987 -0.07826,-1.608094 -0.220703,-2.400391 0.118302,0.710209 0.181641,1.428486 0.189453,2.148438 l -7.974609,0.07422 c 0.0028,0.05921 0.0048,0.118464 0.0059,0.177735 -1e-6,3.313708 -2.686292,5.999999 -6,5.999999 -0.01107,-6.36e-4 0.01107,6.97e-4 0,0 l -0.0332,7.998 c 0.01107,6.8e-4 0.02213,0.0013 0.0332,0.002 7.731986,-1e-6 13.999998,-6.268013 13.999999,-13.999999 z m -0.24414,-2.544922 c -0.04995,-0.260037 -0.107262,-0.518605 -0.171875,-0.775391 0.06461,0.256786 0.121928,0.515354 0.171875,0.775391 z m -0.369141,-1.546875 c -0.01727,-0.05219 -0.03485,-0.104271 -0.05273,-0.15625 0.01788,0.05198 0.03546,0.104064 0.05273,0.15625 z M 17.330589,3.3598853 C 9.6108071,3.3760403 3.3609451,9.6381352 3.3598851,17.357933 c 0.0018,0.04428 0.0037,0.08855 0.0059,0.132812 l 7.9960949,-0.07422 c -7.62e-4,-0.01953 -0.0014,-0.03906 -0.002,-0.05859 -4e-5,-3.302301 2.668441,-5.983875 5.970702,-6.000001 z M 16.982933,31.344261 c -0.24768,-0.0058 -0.495163,-0.01818 -0.742187,-0.03711 0.247024,0.01893 0.494506,0.03131 0.742187,0.03711 z m -1.789062,-0.164063 c -0.10042,-0.01388 -0.200687,-0.02886 -0.300783,-0.04492 0.100095,0.01606 0.200362,0.03104 0.300783,0.04492 z m -1.498047,-0.314453 c -0.03715,-0.009 -0.07426,-0.01807 -0.111328,-0.02734 0.03707,0.0093 0.07418,0.01838 0.111328,0.02734 z"
         id="path6-7"
         inkscape:connector-curvature="0"
         sodipodi:nodetypes="ccccccccccccccccccccccccccccccccc" />
    </pattern>
    <pattern
       patternUnits="userSpaceOnUse"
       width="34.719812"
       height="34.717817"
       patternTransform="translate(-1.3599056,-1.3589098)"
       id="pattern3095-3">
      <path
         sodipodi:nodetypes="ccccccccccccccccccccccccccccccccc"
         inkscape:connector-curvature="0"
         id="path6-7-7"
         d="m 31.359885,17.357933 c -0.0044,-0.804987 -0.07826,-1.608094 -0.220703,-2.400391 0.118302,0.710209 0.181641,1.428486 0.189453,2.148438 l -7.974609,0.07422 c 0.0028,0.05921 0.0048,0.118464 0.0059,0.177735 -1e-6,3.313708 -2.686292,5.999999 -6,5.999999 -0.01107,-6.36e-4 0.01107,6.97e-4 0,0 l -0.0332,7.998 c 0.01107,6.8e-4 0.02213,0.0013 0.0332,0.002 7.731986,-1e-6 13.999998,-6.268013 13.999999,-13.999999 z m -0.24414,-2.544922 c -0.04995,-0.260037 -0.107262,-0.518605 -0.171875,-0.775391 0.06461,0.256786 0.121928,0.515354 0.171875,0.775391 z m -0.369141,-1.546875 c -0.01727,-0.05219 -0.03485,-0.104271 -0.05273,-0.15625 0.01788,0.05198 0.03546,0.104064 0.05273,0.15625 z M 17.330589,3.3598853 C 9.6108071,3.3760403 3.3609451,9.6381352 3.3598851,17.357933 c 0.0018,0.04428 0.0037,0.08855 0.0059,0.132812 l 7.9960949,-0.07422 c -7.62e-4,-0.01953 -0.0014,-0.03906 -0.002,-0.05859 -4e-5,-3.302301 2.668441,-5.983875 5.970702,-6.000001 z M 16.982933,31.344261 c -0.24768,-0.0058 -0.495163,-0.01818 -0.742187,-0.03711 0.247024,0.01893 0.494506,0.03131 0.742187,0.03711 z m -1.789062,-0.164063 c -0.10042,-0.01388 -0.200687,-0.02886 -0.300783,-0.04492 0.100095,0.01606 0.200362,0.03104 0.300783,0.04492 z m -1.498047,-0.314453 c -0.03715,-0.009 -0.07426,-0.01807 -0.111328,-0.02734 0.03707,0.0093 0.07418,0.01838 0.111328,0.02734 z"
         style="opacity:1;fill:url(#linearGradient843);fill-opacity:1;filter:url(#filter3091-7)" />
    </pattern>
    <filter
       inkscape:collect="always"
       style="color-interpolation-filters:sRGB"
       id="filter3091-7"
       x="-0.11999573"
       width="1.2399915"
       y="-0.12000427"
       height="1.2400085">
      <feGaussianBlur
         inkscape:collect="always"
         stdDeviation="1.3999522"
         id="feGaussianBlur3093-0" />
    </filter>
    <filter
       inkscape:collect="always"
       style="color-interpolation-filters:sRGB"
       id="filter41481"
       x="-0.075"
       width="1.15"
       y="-0.075"
       height="1.15">
      <feGaussianBlur
         inkscape:collect="always"
         stdDeviation="0.87500001"
         id="feGaussianBlur41483" />
    </filter>
  </defs>
  <sodipodi:namedview
     inkscape:document-rotation="0"
     inkscape:current-layer="svg10"
     inkscape:window-maximized="1"
     inkscape:window-y="0"
     inkscape:window-x="0"
     inkscape:cy="8.2788759"
     inkscape:cx="12.846718"
     inkscape:zoom="11.313709"
     showgrid="false"
     id="namedview12"
     inkscape:window-height="1000"
     inkscape:window-width="1920"
     inkscape:pageshadow="2"
     inkscape:pageopacity="0"
     guidetolerance="10"
     gridtolerance="10"
     objecttolerance="10"
     borderopacity="1"
     bordercolor="#666666"
     pagecolor="#ffffff" />
  <path
     style="opacity:0.5;fill:#000000;fill-opacity:1;filter:url(#filter41481)"
     d="M 16.000001,2.0000007 A 14,14 0 0 0 2.0000006,16.000001 a 14,14 0 0 0 14.0000004,14 14,14 0 0 0 14,-14 14,14 0 0 0 -14,-14.0000003 z m 0,8.0000003 a 6,6 0 0 1 6,6 6,6 0 0 1 -6,6 6,6 0 0 1 -6,-6 6,6 0 0 1 6,-6 z"
     id="path6-3"
     inkscape:connector-curvature="0" />
  <path
     id="path4"
     d="M 16 8 A 8 8 0 0 0 8 16 A 8 8 0 0 0 16 24 A 8 8 0 0 0 24 16 A 8 8 0 0 0 16 8 z M 16 13 A 3 3 0 0 1 19 16 A 3 3 0 0 1 16 19 A 3 3 0 0 1 13 16 A 3 3 0 0 1 16 13 z"
     style="fill:#848484" />
  <path
     id="path2-1"
     d="M 16,2 A 14,14 0 0 0 2,16 14,14 0 0 0 16,30 14,14 0 0 0 30,16 14,14 0 0 0 16,2 Z m 0,8 a 6,6 0 0 1 6,6 6,6 0 0 1 -6,6 6,6 0 0 1 -6,-6 6,6 0 0 1 6,-6 z"
     style="opacity:1;fill:#e6e6e6;fill-opacity:1"
     inkscape:connector-curvature="0" />
  <path
     inkscape:connector-curvature="0"
     id="path6"
     d="M 16,2 A 14,14 0 0 0 1.9999999,16 14,14 0 0 0 16,30 14,14 0 0 0 30,16 14,14 0 0 0 16,2 Z m 0,8 a 6,6 0 0 1 6,6 6,6 0 0 1 -6,6 6,6 0 0 1 -6,-6 6,6 0 0 1 6,-6 z"
     style="fill:url(#pattern3100);fill-opacity:1;opacity:0.2" />
  <circle
     transform="rotate(90)"
     style="fill:#1caff3;fill-opacity:1"
     fill="#1caff3"
     cx="24"
     cy="-24"
     r="8"
     id="circle10" />
  <path
     fill="#ffffff"
     d="M 23.9828,28 21,24 h 2 v -4 h 2 v 4 h 2 z"
     id="path12" />
</svg>
