<?xml version="1.0" encoding="UTF-8" standalone="no"?>
<svg
   xmlns:dc="http://purl.org/dc/elements/1.1/"
   xmlns:cc="http://creativecommons.org/ns#"
   xmlns:rdf="http://www.w3.org/1999/02/22-rdf-syntax-ns#"
   xmlns:svg="http://www.w3.org/2000/svg"
   xmlns="http://www.w3.org/2000/svg"
   xmlns:xlink="http://www.w3.org/1999/xlink"
   xmlns:sodipodi="http://sodipodi.sourceforge.net/DTD/sodipodi-0.dtd"
   xmlns:inkscape="http://www.inkscape.org/namespaces/inkscape"
   sodipodi:docname="system-software-install.svg"
   inkscape:version="1.0.2 (e86c870879, 2021-01-15)"
   id="svg8"
   version="1.1"
   viewBox="0 0 8.4666665 8.4666669"
   height="32"
   width="32">
  <defs
     id="defs2">
    <inkscape:path-effect
       effect="fillet_chamfer"
       id="path-effect1322"
       is_visible="true"
       lpeversion="1"
       satellites_param="IC,1,0,1,0,0.14,0,1 @ IC,1,0,1,0,0.14,0,1 @ IC,1,0,1,0,0.14,0,1 @ IC,1,0,1,0,0.14,0,1 @ IC,1,0,1,0,0.14,0,1 @ IC,1,0,1,0,0.14,0,1 @ IC,1,0,1,0,0.14,0,1 @ IC,1,0,1,0,0.14,0,1 @ IC,1,0,1,0,0.14,0,1 @ IC,1,0,1,0,0.14,0,1 @ IC,1,0,1,0,0.14,0,1 @ IC,1,0,1,0,0.14,0,1"
       unit="px"
       method="auto"
       mode="F"
       radius="14"
       chamfer_steps="1"
       flexible="true"
       use_knot_distance="true"
       apply_no_radius="true"
       apply_with_radius="true"
       only_selected="false"
       hide_knots="false" />
    <linearGradient
       id="linearGradient934"
       x1="0"
       y1="1"
       x2="0"
       y2="0">
      <stop
         style="stop-color:#dedede;stop-opacity:0"
         stop-color="#ECECEC"
         offset="0"
         id="stop930" />
      <stop
         style="stop-color:#f2f2f2;stop-opacity:1"
         stop-color="#FFF"
         offset="1"
         id="stop932" />
    </linearGradient>
    <linearGradient
       id="linearGradient867"
       inkscape:collect="always">
      <stop
         id="stop863"
         offset="0"
         style="stop-color:#c57ef4;stop-opacity:1" />
      <stop
         id="stop865"
         offset="1"
         style="stop-color:#695eee;stop-opacity:1" />
    </linearGradient>
    <linearGradient
       y2="0"
       x2="1"
       y1="0"
       x1="0"
       id="backGrad">
      <stop
         id="stop7"
         offset="0"
         stop-color="#D9D9D9" />
      <stop
         id="stop9"
         offset="1"
         stop-color="#EEE" />
    </linearGradient>
    <linearGradient
       y2="2.5099801"
       x2="48.406759"
       y1="2.5099801"
       x1="52.590059"
       xlink:href="#backGrad"
       id="rightbackfoldGrad"
       gradientTransform="scale(0.83666003,1.1952286)"
       gradientUnits="userSpaceOnUse" />
    <linearGradient
       y2="6.8946149"
       x2="5.9829303"
       y1="6.8946149"
       x1="1.5954481"
       xlink:href="#frontGrad"
       id="leftfrontfoldGrad"
       gradientTransform="scale(1.2535663,0.79772404)"
       gradientUnits="userSpaceOnUse" />
    <linearGradient
       y2="0"
       x2="0"
       y1="1"
       x1="0"
       id="frontGrad">
      <stop
         id="stop2"
         offset="0"
         stop-color="#ECECEC" />
      <stop
         id="stop4"
         offset="1"
         stop-color="#FFF" />
    </linearGradient>
    <linearGradient
       y2="2.4192836"
       x2="9.5235031"
       y1="19.085414"
       x1="9.5235031"
       id="handleGrad"
       gradientTransform="matrix(0.20743998,0,0,0.11483281,0.52916682,0.25174582)"
       gradientUnits="userSpaceOnUse">
      <stop
         id="stop16"
         offset="0"
         stop-color="#E6E6E6" />
      <stop
         id="stop18"
         offset="1"
         stop-color="#FFF" />
    </linearGradient>
    <filter
       inkscape:collect="always"
       style="color-interpolation-filters:sRGB"
       id="filter1156"
       x="-0.069642855"
       width="1.1392857"
       y="-0.081250002"
       height="1.1625">
      <feGaussianBlur
         inkscape:collect="always"
         stdDeviation="0.21497395"
         id="feGaussianBlur1158" />
    </filter>
    <linearGradient
       inkscape:collect="always"
       xlink:href="#linearGradient867"
       id="linearGradient1313"
       gradientUnits="userSpaceOnUse"
       gradientTransform="matrix(-1.1666666,0,0,-1.0909091,-0.70546066,-0.72175975)"
       x1="-7.4082255"
       y1="-6.9674411"
       x2="-1.0582253"
       y2="-6.9674411" />
  </defs>
  <sodipodi:namedview
     inkscape:window-maximized="1"
     inkscape:window-y="0"
     inkscape:window-x="0"
     inkscape:window-height="1000"
     inkscape:window-width="1920"
     units="px"
     showgrid="false"
     inkscape:document-rotation="0"
     inkscape:current-layer="layer1"
     inkscape:document-units="px"
     inkscape:cy="22.580065"
     inkscape:cx="18.735627"
     inkscape:zoom="90.509668"
     inkscape:pageshadow="2"
     inkscape:pageopacity="0.0"
     borderopacity="1.0"
     bordercolor="#666666"
     pagecolor="#ffffff"
     id="base" />
  <metadata
     id="metadata5">
    <rdf:RDF>
      <cc:Work
         rdf:about="">
        <dc:format>image/svg+xml</dc:format>
        <dc:type
           rdf:resource="http://purl.org/dc/dcmitype/StillImage" />
        <dc:title></dc:title>
      </cc:Work>
    </rdf:RDF>
  </metadata>
  <g
     id="layer1"
     inkscape:groupmode="layer"
     inkscape:label="Capa 1">
    <path
       id="rect850-2-2-3"
       style="opacity:0.5;fill:#000000;fill-opacity:1;stroke-width:0.523708;filter:url(#filter1156)"
       d="m 0.53485104,1.5875 c -0.0015,0.01734 -0.005684,0.033955 -0.005684,0.051676 v 5.2399903 0.4289144 c 0,0.348406 0.30022614,0.6294189 0.67282716,0.6294189 h 6.0626789 c 0.3725992,0 0.6728272,-0.2810129 0.6728272,-0.6294189 V 6.8791663 1.639176 c 0,-0.01772 -0.00367,-0.034336 -0.00517,-0.051676 z" />
    <path
       id="rect850-2-2-8"
       style="fill:url(#linearGradient1313);fill-opacity:1;stroke-width:0.523708"
       d="m 0.53459201,1.5875003 c -0.0015,0.01734 -0.005685,0.033956 -0.005685,0.051676 v 5.2399903 0.4289142 c 0,0.3484057 0.30022614,0.6294191 0.67282719,0.6294191 h 6.0626789 c 0.3725992,0 0.6728272,-0.2810134 0.6728272,-0.6294191 V 6.8791669 1.6391766 c 0,-0.01772 -0.00367,-0.034336 -0.00517,-0.051676 z" />
    <circle
       style="opacity:0.5;fill:#000000;fill-opacity:1;stroke:none;stroke-width:0.0148706;stroke-miterlimit:4;stroke-dasharray:none;stroke-opacity:1"
       id="path2030"
       cx="2.5232801"
       cy="2.9897916"
       r="0.26458335" />
    <circle
       r="0.26458335"
       cy="2.9897916"
       cx="5.9433866"
       id="path2030-0"
       style="opacity:0.5;fill:#000000;fill-opacity:1;stroke:none;stroke-width:0.0148706;stroke-miterlimit:4;stroke-dasharray:none;stroke-opacity:1" />
    <path
       style="color:#000000;font-style:normal;font-variant:normal;font-weight:normal;font-stretch:normal;font-size:medium;line-height:normal;font-family:sans-serif;font-variant-ligatures:normal;font-variant-position:normal;font-variant-caps:normal;font-variant-numeric:normal;font-variant-alternates:normal;font-variant-east-asian:normal;font-feature-settings:normal;font-variation-settings:normal;text-indent:0;text-align:start;text-decoration:none;text-decoration-line:none;text-decoration-style:solid;text-decoration-color:#000000;letter-spacing:normal;word-spacing:normal;text-transform:none;writing-mode:lr-tb;direction:ltr;text-orientation:mixed;dominant-baseline:auto;baseline-shift:baseline;text-anchor:start;white-space:normal;shape-padding:0;shape-margin:0;inline-size:0;clip-rule:nonzero;display:inline;overflow:visible;visibility:visible;opacity:1;isolation:auto;mix-blend-mode:normal;color-interpolation:sRGB;color-interpolation-filters:linearRGB;solid-color:#000000;solid-opacity:1;vector-effect:none;fill:#ffffff;fill-opacity:1;fill-rule:nonzero;stroke:none;stroke-width:0.324792px;stroke-linecap:butt;stroke-linejoin:miter;stroke-miterlimit:4;stroke-dasharray:none;stroke-dashoffset:0;stroke-opacity:1;color-rendering:auto;image-rendering:auto;shape-rendering:auto;text-rendering:auto;enable-background:accumulate;stop-color:#000000;stop-opacity:1"
       d="M 2.7011719,3.1624021 2.3964844,3.0530271 C 2.7432472,2.0811148 3.0694,1.4297137 3.4003906,1.025684 3.5658859,0.82366882 3.7334554,0.68209112 3.9121094,0.60185592 4.0907634,0.52162062 4.2814985,0.50859432 4.4570312,0.55888712 4.8080968,0.65947272 5.094522,0.97279472 5.3671875,1.4006835 5.639853,1.8285726 5.8972176,2.3845803 6.1503906,3.0081053 L 5.8496094,3.129199 C 5.6001743,2.5148801 5.3457279,1.9749541 5.0917969,1.5764646 4.8378659,1.1779755 4.581453,0.93277742 4.3671875,0.87138712 4.2600548,0.84069202 4.163335,0.84642752 4.046875,0.89873092 3.930415,0.95103422 3.7962543,1.057048 3.6523438,1.232715 3.3645226,1.5840492 3.0414478,2.2086713 2.7011719,3.1624021 Z"
       id="path1245" />
    <path
       id="path916"
       style="opacity:1;fill:#ffffff;stroke-width:0.0767991"
       d="m 3.1333409,3.4395833 c -0.269929,0 -0.4875076,0.2175786 -0.4875076,0.4875075 v 0.4908467 c 0,0.269929 0.2175786,0.4870303 0.4875076,0.4870303 h 0.4908466 c 0.2699289,0 0.4870304,-0.2171013 0.4870304,-0.4870303 V 3.9270908 c 0,-0.2699289 -0.2171015,-0.4875075 -0.4870304,-0.4875075 z m 0.08157,0.2442307 H 3.542142 c 0.089976,0 0.1712084,0.036214 0.2299203,0.094926 0.058712,0.058712 0.094926,0.139944 0.094926,0.2299203 v 0.3272311 c 0,0.089976 -0.036213,0.1712085 -0.094926,0.2299204 -0.058712,0.058712 -0.139944,0.094926 -0.2299203,0.094926 H 3.2149101 c -0.089976,0 -0.1712084,-0.036213 -0.2299203,-0.094926 C 2.9262777,4.5070996 2.890064,4.4258675 2.890064,4.3358911 V 4.00866 c 0,-0.089976 0.036214,-0.1712082 0.094926,-0.2299203 0.058712,-0.058712 0.139944,-0.094926 0.2299209,-0.094926 z" />
    <path
       id="path916-3"
       style="fill:#ffffff;stroke-width:0.0767991"
       d="m 3.1333409,5.1491987 c -0.269929,10e-8 -0.4875076,0.2175785 -0.4875076,0.4875076 V 6.127553 c 0,0.2699289 0.2175786,0.4870303 0.4875076,0.4870303 h 0.4908465 c 0.2699289,0 0.4870305,-0.2171014 0.4870305,-0.4870303 V 5.6367063 c 0,-0.2699291 -0.2171016,-0.4875076 -0.4870305,-0.4875076 z m 0.08157,0.2442308 H 3.542142 c 0.089976,0 0.1712083,0.036213 0.2299202,0.094926 0.058712,0.058712 0.094926,0.139944 0.094926,0.2299203 V 6.045507 c 0,0.089976 -0.036214,0.1712084 -0.094926,0.2299202 -0.058712,0.058712 -0.139944,0.094926 -0.2299202,0.094926 H 3.2149101 c -0.089976,0 -0.1712084,-0.036213 -0.2299203,-0.094926 C 2.9262777,6.216715 2.890064,6.1354828 2.890064,6.0455066 V 5.7182754 c 0,-0.089976 0.036214,-0.1712082 0.094926,-0.2299203 0.058712,-0.058712 0.139944,-0.094926 0.2299209,-0.094926 z" />
    <path
       id="path916-5"
       style="fill:#ffffff;stroke-width:0.0767991"
       d="m 4.8429563,3.4395833 c -0.269929,0 -0.4875075,0.2175786 -0.4875075,0.4875075 v 0.4908467 c 0,0.269929 0.2175785,0.4870303 0.4875075,0.4870303 h 0.4908466 c 0.2699289,0 0.4870305,-0.2171013 0.4870305,-0.4870303 V 3.9270908 c 0,-0.2699289 -0.2171016,-0.4875075 -0.4870305,-0.4875075 z m 0.081569,0.2442307 h 0.327231 c 0.089976,0 0.1712085,0.036214 0.2299204,0.094926 0.058712,0.058712 0.094926,0.139944 0.094926,0.2299203 v 0.3272311 c 0,0.089976 -0.036213,0.1712084 -0.094926,0.2299203 -0.058712,0.058712 -0.139944,0.094926 -0.2299204,0.094926 H 4.9245255 c -0.089976,0 -0.1712083,-0.036213 -0.2299204,-0.094926 C 4.6358932,4.5070995 4.5996795,4.4258675 4.5996795,4.3358911 V 4.00866 c 0,-0.089976 0.036214,-0.1712082 0.094926,-0.2299203 0.058712,-0.058712 0.1399441,-0.094926 0.2299198,-0.094926 z" />
    <path
       id="path916-6"
       style="fill:#ffffff;stroke-width:0.0767991"
       d="m 4.3966776,5.5371711 c -0.1908687,0.1908686 -0.1908687,0.4985711 0,0.6894397 l 0.347081,0.347081 C 4.9346272,6.7645605 5.2419922,6.764223 5.4328609,6.5733544 l 0.3470809,-0.347081 c 0.1908686,-0.1908685 0.1908688,-0.4978963 2e-7,-0.688765 L 5.4328609,5.1904274 C 5.2419923,4.9995588 4.9346271,4.9992216 4.7437585,5.1900901 Z"
       sodipodi:nodetypes="sssssssss" />
  </g>
</svg>
