<?xml version="1.0" encoding="UTF-8" standalone="no"?>
<svg
   xmlns:dc="http://purl.org/dc/elements/1.1/"
   xmlns:cc="http://creativecommons.org/ns#"
   xmlns:rdf="http://www.w3.org/1999/02/22-rdf-syntax-ns#"
   xmlns:svg="http://www.w3.org/2000/svg"
   xmlns="http://www.w3.org/2000/svg"
   xmlns:xlink="http://www.w3.org/1999/xlink"
   xmlns:sodipodi="http://sodipodi.sourceforge.net/DTD/sodipodi-0.dtd"
   xmlns:inkscape="http://www.inkscape.org/namespaces/inkscape"
   inkscape:version="1.0.1 (3bc2e813f5, 2020-09-07)"
   sodipodi:docname="system-log-out.svg"
   id="svg30"
   version="1"
   height="32"
   width="32">
  <metadata
     id="metadata36">
    <rdf:RDF>
      <cc:Work
         rdf:about="">
        <dc:format>image/svg+xml</dc:format>
        <dc:type
           rdf:resource="http://purl.org/dc/dcmitype/StillImage" />
      </cc:Work>
    </rdf:RDF>
  </metadata>
  <defs
     id="defs34">
    <linearGradient
       inkscape:collect="always"
       xlink:href="#linearGradient4900"
       id="linearGradient4902"
       x1="2"
       y1="16"
       x2="30"
       y2="16"
       gradientUnits="userSpaceOnUse"
       gradientTransform="translate(-1.9233398e-7,-31.999999)" />
    <linearGradient
       inkscape:collect="always"
       id="linearGradient4900">
      <stop
         style="stop-color:#e5e5e5;stop-opacity:1"
         offset="0"
         id="stop4896" />
      <stop
         style="stop-color:#d9d9d9;stop-opacity:1"
         offset="1"
         id="stop4898" />
    </linearGradient>
    <filter
       inkscape:collect="always"
       style="color-interpolation-filters:sRGB"
       id="filter41485"
       x="-0.075"
       width="1.15"
       y="-0.075"
       height="1.15">
      <feGaussianBlur
         inkscape:collect="always"
         stdDeviation="0.875"
         id="feGaussianBlur41487" />
    </filter>
  </defs>
  <sodipodi:namedview
     inkscape:current-layer="svg30"
     inkscape:window-maximized="1"
     inkscape:window-y="0"
     inkscape:window-x="0"
     inkscape:cy="16"
     inkscape:cx="14.950131"
     inkscape:zoom="23.8125"
     showgrid="false"
     id="namedview32"
     inkscape:window-height="1000"
     inkscape:window-width="1920"
     inkscape:pageshadow="2"
     inkscape:pageopacity="0"
     guidetolerance="10"
     gridtolerance="10"
     objecttolerance="10"
     borderopacity="1"
     bordercolor="#666666"
     pagecolor="#ffffff"
     inkscape:document-rotation="0" />
  <circle
     style="fill:#000000;fill-opacity:1;opacity:0.5;filter:url(#filter41485)"
     id="circle20"
     r="14"
     cy="16"
     cx="16"
     fill="#7bbb36" />
  <circle
     fill="#36bb94"
     cx="16"
     cy="-16"
     r="14"
     id="circle128"
     style="fill:url(#linearGradient4902);fill-opacity:1"
     transform="rotate(90)" />
  <path
     style="fill:#000000;fill-opacity:1;opacity:0.3"
     id="path24"
     d="m16 7a9 9 0 0 1 9 9 9 9 0 0 1 -9 9 9 9 0 0 1 -9 -9 9 9 0 0 1 9 -9zm0 2a7 7 0 0 0 -7 7 7 7 0 0 0 7 7 7 7 0 0 0 7 -7 7 7 0 0 0 -7 -7zm0 4 1.9824 1.5391l2.018 1.461-2.017 1.461-1.983 1.539 0.024-2h-3.024c-0.554 0-1-0.446-1-1s0.446-1 1-1h3.0234l-0.02344-2z"
     fill="#fff" />
</svg>
