<?xml version="1.0" encoding="UTF-8" standalone="no"?>
<svg
   xmlns:dc="http://purl.org/dc/elements/1.1/"
   xmlns:cc="http://creativecommons.org/ns#"
   xmlns:rdf="http://www.w3.org/1999/02/22-rdf-syntax-ns#"
   xmlns:svg="http://www.w3.org/2000/svg"
   xmlns="http://www.w3.org/2000/svg"
   xmlns:xlink="http://www.w3.org/1999/xlink"
   xmlns:sodipodi="http://sodipodi.sourceforge.net/DTD/sodipodi-0.dtd"
   xmlns:inkscape="http://www.inkscape.org/namespaces/inkscape"
   width="32"
   height="32"
   version="1"
   id="svg20"
   sodipodi:docname="system-users.svg"
   inkscape:version="1.0.1 (3bc2e813f5, 2020-09-07)">
  <metadata
     id="metadata26">
    <rdf:RDF>
      <cc:Work
         rdf:about="">
        <dc:format>image/svg+xml</dc:format>
        <dc:type
           rdf:resource="http://purl.org/dc/dcmitype/StillImage" />
      </cc:Work>
    </rdf:RDF>
  </metadata>
  <defs
     id="defs24">
    <linearGradient
       inkscape:collect="always"
       id="linearGradient863">
      <stop
         style="stop-color:#ffc152;stop-opacity:1"
         offset="0"
         id="stop859" />
      <stop
         style="stop-color:#ff5f5f;stop-opacity:1"
         offset="1"
         id="stop861" />
    </linearGradient>
    <linearGradient
       inkscape:collect="always"
       xlink:href="#linearGradient863"
       id="linearGradient865"
       x1="2"
       y1="16"
       x2="30"
       y2="16"
       gradientUnits="userSpaceOnUse" />
    <filter
       inkscape:collect="always"
       style="color-interpolation-filters:sRGB"
       id="filter40483"
       x="-0.075"
       width="1.15"
       y="-0.075"
       height="1.15">
      <feGaussianBlur
         inkscape:collect="always"
         stdDeviation="0.875"
         id="feGaussianBlur40485" />
    </filter>
  </defs>
  <sodipodi:namedview
     inkscape:document-rotation="0"
     pagecolor="#ffffff"
     bordercolor="#666666"
     borderopacity="1"
     objecttolerance="10"
     gridtolerance="10"
     guidetolerance="10"
     inkscape:pageopacity="0"
     inkscape:pageshadow="2"
     inkscape:window-width="1920"
     inkscape:window-height="1000"
     id="namedview22"
     showgrid="false"
     inkscape:zoom="23.8125"
     inkscape:cx="10.623248"
     inkscape:cy="16"
     inkscape:window-x="0"
     inkscape:window-y="0"
     inkscape:window-maximized="1"
     inkscape:current-layer="svg20" />
  <circle
     style="opacity:0.5;fill:#000000;fill-opacity:1;filter:url(#filter40483)"
     cx="16"
     cy="16"
     r="14"
     id="circle2" />
  <circle
     style="fill:url(#linearGradient865);fill-opacity:1"
     cx="16"
     cy="16"
     r="14"
     id="circle4" />
  <path
     style="fill:#ffffff;fill-opacity:1;stroke-width:0.71428573;opacity:0.5"
     d="m 21,9.2138675 c -1.578285,0 -2.855468,1.2797055 -2.855468,2.8574205 0,1.577714 1.277183,2.857422 2.855468,2.857422 1.578286,0 2.857422,-1.279708 2.857422,-2.857422 0,-1.577715 -1.279136,-2.8574205 -2.857422,-2.8574205 z m 0,7.1425775 c -4.9995,0.003 -5,3.166015 -5,3.166015 v 1.285157 c 0,0 0.923071,1.978515 5,1.978515 4.07693,0 5,-1.978515 5,-1.978515 V 19.52246 c 0,0 9.17e-4,-3.167992 -4.998046,-3.166015 z"
     id="path12-3"
     inkscape:connector-curvature="0" />
  <path
     style="fill:#fdfdfd;fill-opacity:1;stroke-width:0.71428573;opacity:0.5"
     d="m 11,9.2138675 c -1.578285,0 -2.855468,1.2797055 -2.855468,2.8574205 0,1.577714 1.277183,2.857422 2.855468,2.857422 1.578286,0 2.857422,-1.279708 2.857422,-2.857422 0,-1.577715 -1.279136,-2.8574205 -2.857422,-2.8574205 z m 0,7.1425775 c -4.9995,0.003 -5,3.166015 -5,3.166015 v 1.285157 c 0,0 0.923071,1.978515 5,1.978515 4.07693,0 5,-1.978515 5,-1.978515 V 19.52246 c 0,0 9.17e-4,-3.167992 -4.998046,-3.166015 z"
     id="path12-3-6"
     inkscape:connector-curvature="0" />
  <path
     style="fill:#ffffff;fill-opacity:1"
     d="m 16,6.5000001 c -2.2096,0 -4,1.7912 -4,3.9999999 0,2.2088 1.7904,4 4,4 2.2096,0 4,-1.7912 4,-4 C 20,8.2912001 18.2096,6.5000001 16,6.5000001 Z M 16,16.5 c -6.9993003,0.0042 -7.0000003,4.431641 -7.0000003,4.431641 v 1.798828 c 0,0 1.2922993,2.769531 7.0000003,2.769531 5.707701,0 7,-2.769531 7,-2.769531 v -1.798828 c 0,0 5.53e-4,-4.43441 -6.998047,-4.431641 z"
     id="path12"
     inkscape:connector-curvature="0" />
</svg>
