<?xml version="1.0" encoding="UTF-8" standalone="no"?>
<svg
   xmlns:dc="http://purl.org/dc/elements/1.1/"
   xmlns:cc="http://creativecommons.org/ns#"
   xmlns:rdf="http://www.w3.org/1999/02/22-rdf-syntax-ns#"
   xmlns:svg="http://www.w3.org/2000/svg"
   xmlns="http://www.w3.org/2000/svg"
   xmlns:sodipodi="http://sodipodi.sourceforge.net/DTD/sodipodi-0.dtd"
   xmlns:inkscape="http://www.inkscape.org/namespaces/inkscape"
   inkscape:version="1.0.1 (3bc2e813f5, 2020-09-07)"
   sodipodi:docname="thunderbird.svg"
   id="svg32"
   xml:space="preserve"
   version="1.1"
   y="0"
   x="0"
   height="32"
   width="32"><metadata
   id="metadata38"><rdf:RDF><cc:Work
       rdf:about=""><dc:format>image/svg+xml</dc:format><dc:type
         rdf:resource="http://purl.org/dc/dcmitype/StillImage" /></cc:Work></rdf:RDF></metadata><defs
   id="defs36"><filter
     inkscape:collect="always"
     style="color-interpolation-filters:sRGB"
     id="filter40372"
     x="-0.075045292"
     width="1.1500906"
     y="-0.074954762"
     height="1.1499095"><feGaussianBlur
       inkscape:collect="always"
       stdDeviation="0.8748374"
       id="feGaussianBlur40374" /></filter></defs><sodipodi:namedview
   inkscape:current-layer="svg32"
   inkscape:window-maximized="1"
   inkscape:window-y="0"
   inkscape:window-x="0"
   inkscape:cy="19.601622"
   inkscape:cx="20.10948"
   inkscape:zoom="11.90625"
   showgrid="false"
   id="namedview34"
   inkscape:window-height="1000"
   inkscape:window-width="1920"
   inkscape:pageshadow="2"
   inkscape:pageopacity="0"
   guidetolerance="10"
   gridtolerance="10"
   objecttolerance="10"
   borderopacity="1"
   bordercolor="#666666"
   pagecolor="#ffffff"
   inkscape:document-rotation="0" />
 
 <path
   d="m 13.010453,1.9941538 c -2.192567,0.058519 -3.4781156,2.1313131 -4.4003906,3.9257813 -0.174451,0.092461 -0.349714,0.1810568 -0.523437,0.2773437 -1.740689,1.1702912 -3.166507,2.7893198 -4.267578,4.5625002 -0.968541,1.709584 -1.555274,3.611818 -1.773438,5.560547 -0.129649,1.97574 0.095858,3.98949 0.839844,5.837891 1.408389,3.174877 4.894703,6.875528 8.1249996,6.835937 -0.699845,-0.404632 -2.4515386,-1.99068 -2.9999996,-5 0.582258,1.140374 3.2110446,2.65286 3.9999996,3 -0.386998,-0.36139 -1.853859,-2.502196 -1.990234,-3.796875 l 10.93164,3.460938 c -1.369674,1.787207 -2.889481,2.880997 -3.941406,3.335937 2.824197,0.190066 5,-2 5,-2 0.410709,-0.584957 -0.992748,1.398133 -2,2 1.845469,-0.516751 3.081511,-0.703007 4.246094,-1.552734 -4.36e-4,0 0.946342,-0.51649 1.933593,-1.642579 0.131339,-0.149809 0.356975,-0.356735 0.492188,-0.527343 0.08405,-0.106058 0.161991,-0.215703 0.244141,-0.322266 0.01448,-0.01752 0.031,-0.03301 0.04492,-0.05078 2.077911,-2.541944 3.088698,-5.702434 3.013672,-8.566406 C 29.999651,13.860269 28.590362,10.84497 26.223343,8.3535298 24.51154,6.5517488 22.567899,5.3504647 20.817093,4.7539204 18.54871,4.1025366 15.750717,3.824347 13.748733,4.2031392 c -0.189587,0.063386 0.02773,-1.042627 0.261719,-1.2089844 -0.499483,0.046758 -1.030228,1.0052408 -1.462891,1.4179688 -0.03127,0.00732 -0.07,0.011758 -0.09961,0.019531 0.265738,-0.5345592 0.149733,-0.9002346 0.5625,-1.4375 -1.199726,0.223983 -1.433242,1.0093624 -1.849609,1.7929688 -0.158226,0.053418 -0.311254,0.1186547 -0.466797,0.1777343 0.394001,-1.3065099 1.110733,-1.9734959 2.316406,-2.9707031 z"
   style="fill:#000000;fill-opacity:1;opacity:0.5;filter:url(#filter40372)"
   id="path6-2" /><path
   id="path4"
   d="m 40.403656,-54.31234 a 20.426046,20.426046 0 1 1 40.153647,-7.521834 20.426046,20.426046 0 1 1 -40.153647,7.521834 z"
   style="fill:none" />
 <path
   id="path6"
   d="M 6.4261835,24.917543 C 7.6411617,26.664997 9.2095227,28.723925 11,29 10.300155,28.595368 8.5484613,27.00932 8,24 c 0.5822585,1.140374 3.211045,2.65286 4,3 -0.391947,-0.366012 -1.896881,-2.561219 -2,-3.85 L 4.9556779,21.599245 c 0.031428,0.04782 0.1430917,1.451275 1.4705056,3.318298 z"
   style="fill:#304776" />
 
 <path
   id="path10"
   d="M 24.387733,12.494081 15.292862,9.3046142 5.5460923,9.9540887 3.058517,13.058441 c 0.4426297,2.869627 0.1676173,5.976021 1.709075,8.483118 L 22,27 24.373175,20.375843 Z"
   style="fill:#ebebeb" />
 <path
   id="path12"
   d="M 5.7794092,9.767613 7.4214653,10.002133 7.8722805,7.8045804 6.9706494,8.2440907 Z"
   style="fill:#3f7da7;fill-rule:evenodd" />
 <path
   id="path14"
   d="M 23.647957,15.243162 22.298608,10.810565 5.7943289,10.64492 5.7007531,10.760225 5.5460923,10.954089 11.794835,19.79053 Z"
   style="opacity:0.2" />
 <path
   id="path16"
   d="M 23.647957,14.243162 22.298608,9.8105653 5.7943289,9.6449204 5.7007531,9.7602252 5.5460923,9.9540887 11.794835,18.79053 Z"
   style="fill:#f7f7f7" />
 <path
   id="path18"
   d="m 15.257336,4.1685036 c -0.0017,3.96e-4 -2.075098,0.00999 -2.980156,0.3006117 -1.508106,0.3480266 -2.8611361,0.9895862 -4.2017312,1.7326162 -1.740689,1.1702912 -3.1662484,2.7906523 -4.26732,4.5638325 -0.9685411,1.709584 -1.5554445,3.61122 -1.7736091,5.559949 -0.1296483,1.975741 0.096358,3.988932 0.8403464,5.837333 C 4.2832552,25.337724 7.7697028,29.039591 11,29 10.589682,28.936733 10.277236,28.521214 9.8918278,28.295891 8.5954558,27.537986 7.362729,26.264539 6.4261835,24.917543 5.0987695,23.050521 4.9873466,21.647708 4.955919,21.599883 l 0.017763,0.0055 C 4.5301843,20.202492 4.2662272,18.751685 4.1046413,17.268342 4.0840093,16.936883 4.0426083,16.577398 4.1620313,16.665752 4.6087635,17.373785 5.2244946,17.597999 6,18 5.2645412,16.843263 4.9291013,15.516996 5.05,14.14198 5.1713106,12.762278 5.9497596,11.424696 6.8046813,10.433525 9.0444771,7.8693603 12.312661,5.7949666 15.257336,4.1685036 Z"
   style="fill:#2f67a4" />
 
 <path
   id="path22"
   d="M 12.999992,2.0000033 C 10.630328,2.0632491 9.2995673,4.4899377 8.3657101,6.3628717 8.0293371,6.9581831 7.6806746,7.664597 7.3868613,8.2268881 6.8245255,9.1129915 7.1545912,10.17718 7.2711476,11.146623 c -0.012278,0.265666 0.1504684,0.823433 0.023001,0.879619 -0.2571483,0.776811 -0.5021886,1.779195 0.1127037,2.457473 0.1947603,-0.877979 1.1529417,-1.301021 1.908037,-1.670307 0.8535807,-0.370582 1.5445067,-0.931983 2.3896747,-1.32146 1.113704,-0.63887 2.189087,0.302528 3.619732,0.302528 1.367777,0 2.812717,-0.790601 4.166199,-1.399211 0.315001,0.325857 0.878397,0.855127 1.12472,1.241796 h -0.0035 c 0.705491,1.128284 1.194628,2.439901 1.355285,3.727153 0.200478,1.683718 0.0325,3.35997 -0.96305,4.634936 -1.18e-4,2e-5 -0.0079,0.0017 -0.0079,0.0017 2.3e-5,0 0.0069,-1.8e-5 0.007,0 C 21.02357,20.00355 22.809004,20.130409 24,19 c -0.849742,6.570236 -4.87845,10.082465 -7,11 2.824197,0.190066 5,-2 5,-2 0.410709,-0.584957 -0.992748,1.398133 -2,2 1.845469,-0.516751 3.080933,-0.704546 4.245516,-1.554273 -4.36e-4,0 0.946324,-0.515161 1.933576,-1.64125 0.131339,-0.14981 0.356986,-0.357691 0.492199,-0.528299 0.08405,-0.106058 0.161748,-0.214819 0.243898,-0.321382 0.01448,-0.01752 0.03099,-0.03418 0.04491,-0.05195 2.07791,-2.541944 3.089855,-5.702403 3.014829,-8.566375 0.01459,-3.471777 -1.394493,-6.485542 -3.761512,-8.9769823 C 24.501613,6.5577077 22.557514,5.3554337 20.806708,4.7588894 18.538325,4.1075056 15.739608,3.8298055 13.737624,4.2085977 13.548037,4.2719837 13.766011,3.1663574 14,3 13.438695,3.052545 12.830316,4.296728 12.375493,4.5736653 12.748755,3.9552539 12.551012,3.5844118 13,3 11.330878,3.3116171 11.535838,4.7042094 10.509733,5.67696 10.847793,3.8694193 11.593223,3.1635396 13,2 Z"
   style="fill:#4a96e1" />
 <path
   id="path24"
   d="M 8.310329,12 C 11.643979,11.90405 9.5508374,9.8379792 14,5.9999995 10.375291,7.8767699 6.9252559,7.8741704 8.3146296,12 h -0.0042 z"
   style="fill:#4271a3" />
 <path
   id="path26"
   d="M 10.806094,10.319479 C 10.486456,10.903305 9.7406318,11.13861 9.3280448,10.918843 8.9063938,10.699076 8.9086608,9.9642993 9.2350644,9.3804724 9.5501688,8.7966455 10.94207,9.0585919 10.948871,9.0585919 c 0.0066,0 0.176817,0.6792796 -0.142824,1.2608871 z"
   style="fill:#ffffff" />
 <path
   id="path28"
   d="m 8.9104789,12.984083 c 0,0 0.1795104,-0.173232 0.085935,-0.490002 C 7.8773937,12.864068 7.3279113,11.79293 7.3318158,11.79293 7.3355958,11.79293 6.4934583,14 7.4987041,15 7.5857831,14.176395 8.8688874,13.027164 8.8727919,13.027164"
   style="fill:#5c5f60" />
 
</svg>
