<?xml version="1.0" encoding="UTF-8" standalone="no"?>
<svg
   xmlns:dc="http://purl.org/dc/elements/1.1/"
   xmlns:cc="http://creativecommons.org/ns#"
   xmlns:rdf="http://www.w3.org/1999/02/22-rdf-syntax-ns#"
   xmlns:svg="http://www.w3.org/2000/svg"
   xmlns="http://www.w3.org/2000/svg"
   xmlns:sodipodi="http://sodipodi.sourceforge.net/DTD/sodipodi-0.dtd"
   xmlns:inkscape="http://www.inkscape.org/namespaces/inkscape"
   inkscape:version="1.0.1 (3bc2e813f5, 2020-09-07)"
   sodipodi:docname="todoist.svg"
   id="svg12"
   version="1"
   height="32"
   width="32">
  <metadata
     id="metadata18">
    <rdf:RDF>
      <cc:Work
         rdf:about="">
        <dc:format>image/svg+xml</dc:format>
        <dc:type
           rdf:resource="http://purl.org/dc/dcmitype/StillImage" />
      </cc:Work>
    </rdf:RDF>
  </metadata>
  <defs
     id="defs16">
    <filter
       inkscape:collect="always"
       style="color-interpolation-filters:sRGB"
       id="filter40364"
       x="-0.075"
       width="1.15"
       y="-0.075"
       height="1.15">
      <feGaussianBlur
         inkscape:collect="always"
         stdDeviation="0.875"
         id="feGaussianBlur40366" />
    </filter>
  </defs>
  <sodipodi:namedview
     inkscape:current-layer="svg12"
     inkscape:window-maximized="1"
     inkscape:window-y="0"
     inkscape:window-x="0"
     inkscape:cy="16"
     inkscape:cx="14.950131"
     inkscape:zoom="23.8125"
     showgrid="false"
     id="namedview14"
     inkscape:window-height="1000"
     inkscape:window-width="1920"
     inkscape:pageshadow="2"
     inkscape:pageopacity="0"
     guidetolerance="10"
     gridtolerance="10"
     objecttolerance="10"
     borderopacity="1"
     bordercolor="#666666"
     pagecolor="#ffffff"
     inkscape:document-rotation="0" />
  <rect
     style="fill:#000000;fill-opacity:1;opacity:0.5;filter:url(#filter40364)"
     fill="#c2352a"
     width="28"
     height="28"
     x="2"
     y="2"
     rx="1.4"
     ry="1.4"
     id="rect2-9" />
  <rect
     transform="rotate(90)"
     style="fill:#ee4337;fill-opacity:1"
     id="rect2"
     ry="1.4"
     rx="1.4"
     y="-30"
     x="2"
     height="28"
     width="28"
     fill="#c2352a" />
  <path
     id="path10"
     d="m19.936 4.9902a1.5002 1.5002 0 0 0 -0.668 0.2012l-11.828 6.6226-5.44-2.5601v3.3161l4.8613 2.287a1.5002 1.5002 0 0 0 1.3711 -0.048l12.5-7.0004a1.5002 1.5002 0 0 0 -0.646 -2.8184 1.5002 1.5002 0 0 0 -0.15 0zm0 5a1.5002 1.5002 0 0 0 -0.668 0.2008l-11.828 6.623-5.44-2.56v3.316l4.8613 2.287a1.5002 1.5002 0 0 0 1.3711 -0.048l12.5-7a1.5002 1.5002 0 0 0 -0.646 -2.8188 1.5002 1.5002 0 0 0 -0.15 0zm0 4.9998a1.5002 1.5002 0 0 0 -0.668 0.201l-11.828 6.623-5.44-2.56v3.316l4.8613 2.287a1.5002 1.5002 0 0 0 1.3711 -0.048l12.5-7a1.5002 1.5002 0 0 0 -0.646 -2.819 1.5002 1.5002 0 0 0 -0.15 0z"
     fill-rule="evenodd"
     fill="#fff" />
</svg>
