<?xml version="1.0" encoding="UTF-8" standalone="no"?>
<svg
   xmlns:dc="http://purl.org/dc/elements/1.1/"
   xmlns:cc="http://creativecommons.org/ns#"
   xmlns:rdf="http://www.w3.org/1999/02/22-rdf-syntax-ns#"
   xmlns:svg="http://www.w3.org/2000/svg"
   xmlns="http://www.w3.org/2000/svg"
   xmlns:xlink="http://www.w3.org/1999/xlink"
   xmlns:sodipodi="http://sodipodi.sourceforge.net/DTD/sodipodi-0.dtd"
   xmlns:inkscape="http://www.inkscape.org/namespaces/inkscape"
   inkscape:version="1.0.1 (3bc2e813f5, 2020-09-07)"
   sodipodi:docname="browser-tor.svg"
   id="svg18"
   version="1"
   height="32"
   width="32">
  <metadata
     id="metadata24">
    <rdf:RDF>
      <cc:Work
         rdf:about="">
        <dc:format>image/svg+xml</dc:format>
        <dc:type
           rdf:resource="http://purl.org/dc/dcmitype/StillImage" />
      </cc:Work>
    </rdf:RDF>
  </metadata>
  <defs
     id="defs22">
    <linearGradient
       inkscape:collect="always"
       id="linearGradient977">
      <stop
         style="stop-color:#430e5b;stop-opacity:1"
         offset="0"
         id="stop973" />
      <stop
         style="stop-color:#9721cb;stop-opacity:0.99823534"
         offset="1"
         id="stop975" />
    </linearGradient>
    <filter
       inkscape:collect="always"
       style="color-interpolation-filters:sRGB"
       id="filter40360"
       x="-0.075"
       width="1.15"
       y="-0.075"
       height="1.15">
      <feGaussianBlur
         inkscape:collect="always"
         stdDeviation="0.875"
         id="feGaussianBlur40362" />
    </filter>
    <linearGradient
       inkscape:collect="always"
       xlink:href="#linearGradient977"
       id="linearGradient979"
       x1="2"
       y1="16"
       x2="30"
       y2="16"
       gradientUnits="userSpaceOnUse"
       gradientTransform="translate(-32)" />
  </defs>
  <sodipodi:namedview
     inkscape:current-layer="svg18"
     inkscape:window-maximized="1"
     inkscape:window-y="0"
     inkscape:window-x="0"
     inkscape:cy="12.527838"
     inkscape:cx="15.267867"
     inkscape:zoom="18.296388"
     showgrid="false"
     id="namedview20"
     inkscape:window-height="1000"
     inkscape:window-width="1920"
     inkscape:pageshadow="2"
     inkscape:pageopacity="0"
     guidetolerance="10"
     gridtolerance="10"
     objecttolerance="10"
     borderopacity="1"
     bordercolor="#666666"
     pagecolor="#ffffff"
     inkscape:document-rotation="0" />
  <circle
     id="circle2"
     r="14"
     cy="16"
     cx="16"
     style="opacity:0.5;filter:url(#filter40360)" />
  <circle
     id="circle4"
     r="14"
     cy="16"
     cx="-16"
     style="fill:url(#linearGradient979);fill-opacity:1"
     transform="rotate(-90)" />
  <path
     id="path14-2"
     style="fill:#ffffff;fill-opacity:1;opacity:0.7"
     d="m 16.00001,12 a 4,4 0 0 1 0.06055,0.002 4,4 0 0 1 0.16797,0.0059 4,4 0 0 1 0.16796,0.01172 4,4 0 0 1 0.16797,0.02149 4,4 0 0 1 0.16602,0.02734 4,4 0 0 1 0.16406,0.03321 4,4 0 0 1 0.16211,0.04101 4,4 0 0 1 0.16211,0.04883 4,4 0 0 1 0.1582,0.05469 4,4 0 0 1 0.15821,0.06054 4,4 0 0 1 0.15234,0.06836 4,4 0 0 1 0.15234,0.07422 4,4 0 0 1 0.14649,0.08008 4,4 0 0 1 0.14453,0.08594 4,4 0 0 1 0.14062,0.09179 4,4 0 0 1 0.13672,0.09961 4,4 0 0 1 0.13086,0.10352 4,4 0 0 1 0.12891,0.10937 4,4 0 0 1 0.12305,0.11524 4,4 0 0 1 0.11718,0.11914 4,4 0 0 1 0.11328,0.125 4,4 0 0 1 0.10743,0.1289 4,4 0 0 1 0.10156,0.13477 4,4 0 0 1 0.09765,0.13672 4,4 0 0 1 0.08985,0.14258 4,4 0 0 1 0.08398,0.14453 4,4 0 0 1 0.07813,0.15039 4,4 0 0 1 0.07226,0.15039 4,4 0 0 1 0.06446,0.15625 4,4 0 0 1 0.05859,0.15625 4,4 0 0 1 0.05273,0.16016 4,4 0 0 1 0.04493,0.16211 4,4 0 0 1 0.03906,0.16406 4,4 0 0 1 0.03125,0.16601 4,4 0 0 1 0.02539,0.16602 4,4 0 0 1 0.01758,0.16602 4,4 0 0 1 0.0098,0.16796 4,4 0 0 1 0.0039,0.16797 4,4 0 0 1 0,0.06055 4,4 0 0 1 -0.0059,0.16797 4,4 0 0 1 -0.01367,0.16797 4,4 0 0 1 -0.01953,0.16797 4,4 0 0 1 -0.02735,0.16601 4,4 0 0 1 -0.03515,0.16406 4,4 0 0 1 -0.04102,0.16407 4,4 0 0 1 -0.04687,0.16015 4,4 0 0 1 -0.05469,0.16016 4,4 0 0 1 -0.06055,0.15625 4,4 0 0 1 -0.06836,0.1543 4,4 0 0 1 -0.07422,0.15039 4,4 0 0 1 -0.08007,0.14648 4,4 0 0 1 -0.0879,0.14453 4,4 0 0 1 -0.09179,0.14063 4,4 0 0 1 -0.09766,0.13672 4,4 0 0 1 -0.10547,0.13281 4,4 0 0 1 -0.10937,0.12695 4,4 0 0 1 -0.11328,0.12305 4,4 0 0 1 -0.1211,0.11719 4,4 0 0 1 -0.12304,0.11328 4,4 0 0 1 -0.13086,0.10742 4,4 0 0 1 -0.13282,0.10156 4,4 0 0 1 -0.13867,0.09766 4,4 0 0 1 -0.14062,0.08984 4,4 0 0 1 -0.14649,0.08399 4,4 0 0 1 -0.14843,0.07812 4,4 0 0 1 -0.15235,0.07227 4,4 0 0 1 -0.15429,0.06445 4,4 0 0 1 -0.15821,0.06055 4,4 0 0 1 -0.16015,0.05078 4,4 0 0 1 -0.16211,0.04687 4,4 0 0 1 -0.16211,0.03711 4,4 0 0 1 -0.16602,0.03125 4,4 0 0 1 -0.16601,0.02539 4,4 0 0 1 -0.16797,0.01758 4,4 0 0 1 -0.16797,0.01172 A 4,4 0 0 1 16,20.00004 Z" />
  <path
     id="path960"
     style="fill:#ffffff;fill-opacity:1;opacity:0.7"
     d="m 16,8 c 1.101327,0 2.152876,0.22502 3.109375,0.63086 0.956499,0.40583 1.818301,0.99213 2.542969,1.71679 0.724668,0.72467 1.310961,1.58647 1.716797,2.54297 C 23.774976,13.84712 24,14.89867 24,16 c 0,1.10132 -0.225024,2.15287 -0.630859,3.10937 -0.405836,0.9565 -0.992129,1.8183 -1.716797,2.54297 -0.724668,0.72467 -1.58647,1.31096 -2.542969,1.7168 C 18.152876,23.77497 17.101327,24 16,24 v -2.18164 c 0.806541,0 1.572834,-0.16165 2.269531,-0.45508 0.696698,-0.29343 1.32395,-0.71848 1.84961,-1.24414 0.52566,-0.52566 0.950713,-1.15291 1.24414,-1.84961 0.293428,-0.6967 0.455079,-1.46299 0.455079,-2.26953 0,-0.80654 -0.161651,-1.57302 -0.455079,-2.26953 -0.293427,-0.69652 -0.71848,-1.32224 -1.24414,-1.84766 -0.52566,-0.52542 -1.152912,-0.9509 -1.84961,-1.24414 C 17.572834,10.34543 16.806541,10.18359 16,10.18359 Z" />
  <path
     id="path970"
     style="fill:#ffffff;fill-opacity:1;opacity:0.7"
     d="m 16,4.00098 c 1.653695,0 3.230948,0.33727 4.666016,0.94531 1.435067,0.60803 2.727876,1.48593 3.814453,2.57226 1.086576,1.08634 1.965998,2.37957 2.574218,3.81446 C 27.662908,12.76789 28,14.34533 28,15.99902 c 0,1.6537 -0.337092,3.23095 -0.945313,4.66602 -0.60822,1.43507 -1.487642,2.72787 -2.574218,3.81445 -1.086577,1.08658 -2.379386,1.966 -3.814453,2.57422 C 19.230948,27.66193 17.653695,27.99902 16,27.99902 v -2.11718 c 1.367579,-10e-6 2.668628,-0.27625 3.851563,-0.7754 1.182934,-0.49914 2.247168,-1.22177 3.140624,-2.11523 0.893457,-0.89346 1.61609,-1.95769 2.115235,-3.14063 0.499145,-1.18293 0.775391,-2.48398 0.775391,-3.85156 0,-1.36758 -0.276246,-2.66881 -0.775391,-3.85156 C 24.608277,10.96471 23.885644,9.90005 22.992187,9.00684 22.098731,8.11362 21.034497,7.39252 19.851563,6.89355 18.668628,6.39459 17.367579,6.11816 16,6.11816 Z" />
</svg>
