<?xml version="1.0" encoding="UTF-8" standalone="no"?>
<svg
   xmlns:dc="http://purl.org/dc/elements/1.1/"
   xmlns:cc="http://creativecommons.org/ns#"
   xmlns:rdf="http://www.w3.org/1999/02/22-rdf-syntax-ns#"
   xmlns:svg="http://www.w3.org/2000/svg"
   xmlns="http://www.w3.org/2000/svg"
   xmlns:sodipodi="http://sodipodi.sourceforge.net/DTD/sodipodi-0.dtd"
   xmlns:inkscape="http://www.inkscape.org/namespaces/inkscape"
   inkscape:version="1.0.1 (3bc2e813f5, 2020-09-07)"
   sodipodi:docname="twitter.svg"
   id="svg24"
   version="1"
   height="32"
   width="32">
  <metadata
     id="metadata30">
    <rdf:RDF>
      <cc:Work
         rdf:about="">
        <dc:format>image/svg+xml</dc:format>
        <dc:type
           rdf:resource="http://purl.org/dc/dcmitype/StillImage" />
        <dc:title />
      </cc:Work>
    </rdf:RDF>
  </metadata>
  <defs
     id="defs28">
    <filter
       inkscape:collect="always"
       style="color-interpolation-filters:sRGB"
       id="filter40332"
       x="-0.075"
       width="1.15"
       y="-0.075"
       height="1.15">
      <feGaussianBlur
         inkscape:collect="always"
         stdDeviation="0.875"
         id="feGaussianBlur40334" />
    </filter>
  </defs>
  <sodipodi:namedview
     inkscape:document-rotation="0"
     inkscape:current-layer="svg24"
     inkscape:window-maximized="1"
     inkscape:window-y="0"
     inkscape:window-x="0"
     inkscape:cy="8.3129568"
     inkscape:cx="-3.2376744"
     inkscape:zoom="10.040372"
     showgrid="false"
     id="namedview26"
     inkscape:window-height="1000"
     inkscape:window-width="1920"
     inkscape:pageshadow="2"
     inkscape:pageopacity="0"
     guidetolerance="10"
     gridtolerance="10"
     objecttolerance="10"
     borderopacity="1"
     bordercolor="#666666"
     pagecolor="#ffffff" />
  <rect
     ry="2.8593102"
     rx="2.8593102"
     y="2"
     x="2"
     height="28"
     width="28"
     id="rect825-3"
     style="opacity:0.5;fill:#000000;fill-opacity:1;stroke:none;stroke-width:1.19393;stroke-miterlimit:4;stroke-dasharray:none;stroke-opacity:1;filter:url(#filter40332)" />
  <rect
     transform="rotate(90)"
     ry="2.8593102"
     rx="2.8593102"
     y="-30"
     x="2"
     height="28"
     width="28"
     id="rect825"
     style="opacity:1;fill:#1da1f2;fill-opacity:1;stroke:none;stroke-width:1.19393468;stroke-miterlimit:4;stroke-dasharray:none;stroke-opacity:1" />
  <path
     inkscape:connector-curvature="0"
     id="path4"
     d="m 19.571417,7.6808322 c -2.366931,0 -4.285707,1.9432745 -4.285707,4.3404248 0,0.505906 -0.01483,0.985382 -0.04255,1.444686 -0.0031,-6.9e-5 -0.006,-6.65e-4 -0.0091,-6.65e-4 -4.485406,1e-6 -6.676988,-2.025016 -8.6829953,-4.3375952 C 6.1969431,9.7254707 6,10.823829 6,11.565637 c 0,1.404302 1.5070154,2.591744 2.610908,3.317485 -0.6743626,-0.02103 -2.0416168,-0.327733 -2.5962594,-0.630856 -4.78e-4,0.01687 -6.666e-4,0.03379 -6.666e-4,0.05087 -6e-7,1.961053 2.596717,4.417771 4.063192,4.952207 -1.466475,0 -2.835161,-0.666887 -3.3628596,-0.666887 0.489302,1.502797 2.7257386,2.645356 4.4859046,2.815197 -1.236184,0.840811 -2.680715,1.533701 -4.2278136,1.533701 -0.3292089,0 -0.6532952,-0.02042 -0.9723754,-0.05793 1.8050469,1.152233 3.949255,1.439744 6.252781,1.439744 7.245049,0 11.318158,-5.881841 11.588988,-11.118094 C 24.620498,12.624709 25.47006,11.716167 26,10.936203 c -0.125649,0.05484 -0.26154,0.109313 -0.395508,0.163896 0.141964,-0.177816 0.279937,-0.3555 0.395508,-0.5256 -0.546775,0.238638 -1.183555,0.486398 -1.81431,0.637925 0.543391,-0.483165 0.97302,-1.107885 1.196288,-1.7950863 -0.06126,0.03575 -0.125937,0.06836 -0.189733,0.101725 0.07229,-0.15118 0.138169,-0.304799 0.189712,-0.463441 -0.619536,0.361546 -1.37469,0.594812 -2.118441,0.769321 -0.744944,-1.28161 -2.117432,-2.1440699 -3.6921,-2.1440699 z"
     style="opacity:1;fill:#ffffff;fill-opacity:1;stroke-width:0.359415" />
</svg>
