<?xml version="1.0" encoding="UTF-8" standalone="no"?>
<svg
   xmlns:dc="http://purl.org/dc/elements/1.1/"
   xmlns:cc="http://creativecommons.org/ns#"
   xmlns:rdf="http://www.w3.org/1999/02/22-rdf-syntax-ns#"
   xmlns:svg="http://www.w3.org/2000/svg"
   xmlns="http://www.w3.org/2000/svg"
   xmlns:sodipodi="http://sodipodi.sourceforge.net/DTD/sodipodi-0.dtd"
   xmlns:inkscape="http://www.inkscape.org/namespaces/inkscape"
   inkscape:version="1.0.1 (3bc2e813f5, 2020-09-07)"
   sodipodi:docname="unity-tweak-tool.svg"
   id="svg52"
   version="1"
   height="32"
   width="32">
  <metadata
     id="metadata58">
    <rdf:RDF>
      <cc:Work
         rdf:about="">
        <dc:format>image/svg+xml</dc:format>
        <dc:type
           rdf:resource="http://purl.org/dc/dcmitype/StillImage" />
        <dc:title />
      </cc:Work>
    </rdf:RDF>
  </metadata>
  <defs
     id="defs56">
    <filter
       height="1.15"
       y="-0.075"
       width="1.15"
       x="-0.075"
       id="filter907"
       style="color-interpolation-filters:sRGB"
       inkscape:collect="always">
      <feGaussianBlur
         id="feGaussianBlur909"
         stdDeviation="0.87500001"
         inkscape:collect="always" />
    </filter>
    <filter
       inkscape:collect="always"
       style="color-interpolation-filters:sRGB"
       id="filter40328"
       x="-0.095949311"
       width="1.1918986"
       y="-0.061559308"
       height="1.1231186">
      <feGaussianBlur
         inkscape:collect="always"
         stdDeviation="0.4819971"
         id="feGaussianBlur40330" />
    </filter>
  </defs>
  <sodipodi:namedview
     inkscape:current-layer="svg52"
     inkscape:window-maximized="1"
     inkscape:window-y="0"
     inkscape:window-x="0"
     inkscape:cy="10.140769"
     inkscape:cx="9.585131"
     inkscape:zoom="12.71875"
     showgrid="false"
     id="namedview54"
     inkscape:window-height="1000"
     inkscape:window-width="1920"
     inkscape:pageshadow="2"
     inkscape:pageopacity="0"
     guidetolerance="10"
     gridtolerance="10"
     objecttolerance="10"
     borderopacity="1"
     bordercolor="#666666"
     pagecolor="#ffffff"
     inkscape:document-rotation="0" />
  <rect
     id="rect2"
     transform="rotate(-9.1323019)"
     ry="1.8682625"
     rx="1.8682625"
     y="5.8829913"
     x="0.80412"
     height="24.907272"
     width="24.907272"
     style="opacity:0.5;mix-blend-mode:normal;stroke-width:0.96551;filter:url(#filter907)" />
  <path
     id="path8"
     d="M 3.5720401,5.3843335 C 2.5502632,5.5485864 1.8599099,6.5034049 2.024163,7.525182 L 2.4268893,10.030441 27.018393,6.0772992 26.615667,3.5720401 C 26.451413,2.5502631 25.496596,1.8599098 24.474819,2.0241629 Z"
     style="fill:#bbbbbb;stroke-width:0.965517" />
  <path
     d="m 27.018393,6.0772992 -24.591796,3.9531238 1.085937,6.746094 1.083984,6.748048 0.789063,4.902343 c 0.164253,1.021776 1.118847,1.713081 2.140625,1.548828 L 28.42855,26.614408 c 1.021777,-0.164254 1.713081,-1.118848 1.548828,-2.140625 L 29.188315,19.57144 28.104331,12.823392 Z"
     style="fill:#e5e5e5;fill-opacity:1;stroke-width:0.965517"
     id="path6-0" />
  <path
     id="path10"
     d="M 7.4377041,26.529075 11.58172,25.862915"
     style="fill:none;stroke:#77216f;stroke-width:1;stroke-linecap:round;stroke-opacity:1;stroke-miterlimit:4;stroke-dasharray:none" />
  <path
     id="path14"
     d="m 6.35306,19.781779 9.548379,-1.534925"
     style="fill:none;stroke:#77216f;stroke-width:1;stroke-linecap:round;stroke-opacity:1;stroke-miterlimit:4;stroke-dasharray:none" />
  <path
     id="path18"
     d="M 5.2684167,13.034484 20.023439,10.66258"
     style="fill:#0083d7;stroke:#77216f;stroke-width:1;stroke-linecap:round;stroke-opacity:1;stroke-miterlimit:4;stroke-dasharray:none" />
  <path
     id="path20"
     d="M 11.449905,25.884105 27.430796,23.315139"
     style="opacity:0.5;fill:none;stroke:#0b0e1e;stroke-width:1;stroke-linecap:round;stroke-opacity:1;stroke-miterlimit:4;stroke-dasharray:none" />
  <path
     id="path22"
     d="m 15.835532,18.257449 10.51062,-1.689606"
     style="opacity:0.5;fill:none;stroke:#000000;stroke-width:1;stroke-linecap:round;stroke-opacity:1;stroke-miterlimit:4;stroke-dasharray:none" />
  <path
     id="path24"
     d="m 20.023439,10.66258 5.23807,-0.8420319"
     style="opacity:0.5;fill:none;stroke:#000000;stroke-width:1;stroke-linecap:round;stroke-opacity:1;stroke-miterlimit:4;stroke-dasharray:none" />
  <path
     sodipodi:nodetypes="cccccccccccccsccccss"
     id="path26"
     d="m 20.075162,9.3390328 c -0.119889,-0.00446 -0.239923,0.00312 -0.358298,0.022628 -0.97715,0.1572056 -1.642207,1.0763012 -1.485991,2.0536092 0.157176,0.978009 1.077517,1.643357 2.055496,1.485992 0.97715,-0.157205 1.642207,-1.076302 1.485991,-2.05361 -0.134751,-0.842621 -0.844589,-1.4735876 -1.697198,-1.5086192 z m -4.110991,7.5827042 c -0.119826,-0.0051 -0.23986,0.0019 -0.358298,0.02075 -0.978009,0.157176 -1.643357,1.077516 -1.485992,2.055495 0.157176,0.978009 1.077518,1.643357 2.055497,1.485991 0.978008,-0.157176 1.643356,-1.077517 1.485991,-2.055495 -0.135558,-0.841877 -0.845191,-1.471873 -1.697198,-1.506735 z m -4.359914,7.622307 c -0.119198,-0.005 -0.238594,0.002 -0.356412,0.02074 -0.978009,0.157176 -1.6433564,1.077517 -1.4859918,2.055495 0.1571758,0.97801 1.0775178,1.643358 2.0554968,1.485992 0.978009,-0.157177 1.643356,-1.077518 1.48599,-2.055497 -0.135703,-0.842546 -0.846356,-1.472747 -1.699083,-1.506734 z"
     style="opacity:0.5;stroke-width:0.965517;filter:url(#filter40328)" />
  <circle
     id="circle28"
     transform="rotate(-9.1323022)"
     r="1.7929657"
     cy="20.539625"
     cx="12.792593"
     style="fill:#ffffff;stroke-width:0.965517" />
  <circle
     id="circle32"
     transform="rotate(-9.1323022)"
     r="1.7929657"
     cy="13.705696"
     cx="18.055628"
     style="fill:#ffffff;stroke-width:0.965517" />
  <circle
     id="circle36"
     transform="rotate(-9.1323022)"
     r="1.7929657"
     cy="27.373558"
     cx="7.2804551"
     style="fill:#ffffff;fill-opacity:1;stroke-width:0.965517" />
  <circle
     id="circle40"
     transform="rotate(-9.1323022)"
     r="0.90372413"
     cy="8.1394892"
     cx="3.5786624"
     style="fill:#000000;stroke-width:0.965517;fill-opacity:1;opacity:0.3" />
  <circle
     id="circle42"
     transform="rotate(-9.1323022)"
     r="0.90372413"
     cy="8.1394892"
     cx="6.5070763"
     style="fill:#000000;stroke-width:0.965517;opacity:0.3;fill-opacity:1" />
</svg>
