<?xml version="1.0" encoding="UTF-8" standalone="no"?>
<svg
   xmlns:dc="http://purl.org/dc/elements/1.1/"
   xmlns:cc="http://creativecommons.org/ns#"
   xmlns:rdf="http://www.w3.org/1999/02/22-rdf-syntax-ns#"
   xmlns:svg="http://www.w3.org/2000/svg"
   xmlns="http://www.w3.org/2000/svg"
   xmlns:xlink="http://www.w3.org/1999/xlink"
   xmlns:sodipodi="http://sodipodi.sourceforge.net/DTD/sodipodi-0.dtd"
   xmlns:inkscape="http://www.inkscape.org/namespaces/inkscape"
   sodipodi:docname="utilities-log-viewer.svg"
   inkscape:version="1.0.1 (3bc2e813f5, 2020-09-07)"
   id="svg8"
   version="1.1"
   viewBox="0 0 8.4666665 8.4666669"
   height="32"
   width="32">
  <defs
     id="defs2">
    <linearGradient
       inkscape:collect="always"
       xlink:href="#linearGradient904"
       id="linearGradient906"
       x1="3.6449835"
       y1="-5.8208332"
       x2="7.9966831"
       y2="-5.8208332"
       gradientUnits="userSpaceOnUse" />
    <linearGradient
       inkscape:collect="always"
       id="linearGradient904">
      <stop
         style="stop-color:#fd3d52;stop-opacity:1;"
         offset="0"
         id="stop900" />
      <stop
         style="stop-color:#e6021b;stop-opacity:1"
         offset="1"
         id="stop902" />
    </linearGradient>
    <filter
       inkscape:collect="always"
       style="color-interpolation-filters:sRGB"
       id="filter40308"
       x="-0.081249999"
       width="1.1625"
       y="-0.069642858"
       height="1.1392857">
      <feGaussianBlur
         inkscape:collect="always"
         stdDeviation="0.21497395"
         id="feGaussianBlur40310" />
    </filter>
    <filter
       inkscape:collect="always"
       style="color-interpolation-filters:sRGB"
       id="filter40312"
       x="-0.075"
       width="1.15"
       y="-0.075"
       height="1.15">
      <feGaussianBlur
         inkscape:collect="always"
         stdDeviation="0.875"
         id="feGaussianBlur40314" />
    </filter>
  </defs>
  <sodipodi:namedview
     inkscape:window-maximized="1"
     inkscape:window-y="0"
     inkscape:window-x="0"
     inkscape:window-height="1000"
     inkscape:window-width="1920"
     units="px"
     showgrid="false"
     inkscape:document-rotation="0"
     inkscape:current-layer="layer1"
     inkscape:document-units="px"
     inkscape:cy="2.5809547"
     inkscape:cx="-14.087035"
     inkscape:zoom="9.0045629"
     inkscape:pageshadow="2"
     inkscape:pageopacity="0.0"
     borderopacity="1.0"
     bordercolor="#666666"
     pagecolor="#ffffff"
     id="base" />
  <metadata
     id="metadata5">
    <rdf:RDF>
      <cc:Work
         rdf:about="">
        <dc:format>image/svg+xml</dc:format>
        <dc:type
           rdf:resource="http://purl.org/dc/dcmitype/StillImage" />
        <dc:title />
      </cc:Work>
    </rdf:RDF>
  </metadata>
  <g
     id="layer1"
     inkscape:groupmode="layer"
     inkscape:label="Capa 1">
    <path
       style="opacity:0.5;fill:#000000;fill-opacity:1;stroke:none;stroke-width:2.29352999;filter:url(#filter40308)"
       d="M 1.0583334,0.5291668 V 7.9374999 H 7.4083333 V 2.1166666 l -1.5875,-1.5874998 z"
       id="path926-2"
       inkscape:connector-curvature="0" />
    <path
       style="opacity:1;fill:#f5f5f5;fill-opacity:1;stroke:none;stroke-width:2.29352999"
       d="M 1.0583334,0.52916675 V 7.9374999 H 7.4083333 V 2.1166666 l -1.5875,-1.58749985 z"
       id="path926"
       inkscape:connector-curvature="0" />
    <path
       d="m 1.8520833,1.6569788 h 0.4487284 z m 0.5145416,0 h 0.4188129 z m 0.4846265,0 h 0.3709482 z m 0.4307788,0 h 0.1615422 z m 0.2273558,0 h 0.3589821 z m 0.4307785,0 h 0.9453206 z m 1.0051507,0 H 5.4502661 Z M 1.8520833,2.0632757 H 2.552099 Z m 0.7777958,0 h 0.3350496 z m 0.3948806,0 h 0.1675251 z m 0.2333386,0 h 0.3051349 z m 0.3709479,0 h 0.3111183 z m 0.370949,0 h 0.4965922 z m 0.5624052,0 h 0.6461688 z m 0.7059989,0 h 0.4307792 z m -3.416316,0.4034595 h 0.5923213 z m 0.6521515,0 h 0.9692526 z m 1.0290831,0 h 0.4726603 z m 0.5324906,0 h 0.442745 z m 0.5025756,0 h 0.3769311 z m 0.4367611,0 0.5923218,0.00568 z m 0.6461687,0.00568 H 6.6145833 Z M 1.8520833,2.8758699 h 0.8196771 z m 0.8854908,0 h 0.8854895 z m 0.9453199,0 h 0.3529995 z m 0.4128296,0 h 0.8316426 z m 0.8854899,0 h 0.5683891 z m 0.6342024,0 h 0.2273552 z m 0.2871856,0 h 0.125644 z m 0.1914576,0 H 6.4470586 Z M 1.8520833,3.2821672 h 0.305135 z m 0.4008638,0 H 3.383742 Z M 1.8520833,3.9593291 h 0.4487284 z m 0.5145416,0 h 0.41283 z m 0.4846265,0 h 0.3709482 z m 0.4307788,0 h 0.1615422 z m 0.2273558,0 h 0.3589821 z m 0.4307785,0 h 0.9393371 z m 1.0051507,0 h 0.7179651 z m 0.7777952,0 h 0.227356 z m 0.2871861,0 H 6.5487701 Z M 1.8520833,4.3656255 h 0.7538635 z m 0.8136939,0 h 0.8077102 z m 0.8675407,0 h 0.3111183 z m 0.3709487,0 h 0.7598461 z m 0.8196762,0 h 0.9572867 z m 1.0230997,0 H 6.100042 Z M 1.8520833,4.7719222 h 0.8196771 z m 0.8854908,0 h 0.8854895 z m 0.9453199,0 h 0.3529995 z m 0.4128296,0 h 0.8316426 z m 0.8854899,0 h 0.5683891 z m 0.6342024,0 h 0.2273552 z m 0.2871856,0 h 0.125644 z m 0.1914576,0 H 6.4470586 Z M 1.8520833,5.1782193 H 2.552099 Z m 0.7777958,0 h 0.3350496 z m 0.3948806,0 h 0.1675251 z m 0.2333386,0 h 0.3051349 z m 0.3709479,0 h 0.3111183 z m 0.370949,0 h 0.4965922 z m 0.5624052,0 h 0.6461688 z m 0.7059989,0 h 0.4307792 z m 0.4906096,0 H 5.866704 Z M 1.8520833,5.8525441 h 0.5923213 z m 0.6521515,0 h 0.9692526 z m 1.0290831,0 h 0.4726603 z m 0.5324906,0 h 0.442745 z m 0.5025756,0 h 0.3769311 z m 0.4367611,0 0.5923218,0.00568 z m 0.6461687,0.00568 H 6.6145833 Z M 1.8520833,6.2616773 H 2.552099 Z m 0.7777958,0 h 0.3350496 z m 0.3948806,0 h 0.1675251 z m 0.2333386,0 h 0.3051349 z m 0.3709479,0 h 0.3111183 z m 0.370949,0 h 0.4965922 z m 0.5624052,0 h 0.6461688 z m 0.7059989,0 h 0.4307792 z m 0.4906096,0 H 5.866704 Z m -3.9069256,0.406297 h 0.7418975 z m 0.8077107,0 h 0.2333388 z m 0.2931689,0 h 0.5324906 z m 0.592321,0 h 0.7837784 z m 0.8495914,0 h 0.5324909 z m 0.5863382,0 h 0.1136778 z m 0.1735083,0 h 0.6760836 z m 0.7478797,0 H 6.255601 Z M 1.8520833,7.0742712 h 0.7418975 z m 0.8077107,0 h 0.3350503 z m 0.3948807,0 h 0.5265075 z m 0.5863382,0 h 0.5683886 z m 0.6342019,0 h 0.2273555 z m 0.2871856,0 h 0.1256442 z m 0.1914575,0 H 5.106858 Z"
       id="path3475"
       style="opacity:0.4;fill:none;stroke:#000000;stroke-width:0.13895756px;stroke-linecap:butt;stroke-linejoin:miter;stroke-opacity:1"
       inkscape:connector-curvature="0"
       sodipodi:nodetypes="ccccccccccccccccccccccccccccccccccccccccccccccccccccccccccccccccccccccccccccccccccccccccccccccccccccccccccccccccccccccccccccccccccccccccccccccccccccccccccccccccccccccccccccccccccccccccccccccccccccccccccccccccccccccccccccccccczczccccccccccccccccccccccccccccccccccccccccccccccccccccccccc" />
    <path
       inkscape:connector-curvature="0"
       style="opacity:0.2;fill:#000000;fill-opacity:1;stroke:none;stroke-width:2.29352999"
       d="M 5.8208333,0.52916675 V 2.1166669 h 1.5875 z"
       id="path926-1" />
    <rect
       style="opacity:0.5;fill:#000000;fill-opacity:1;filter:url(#filter40312)"
       width="28"
       height="28"
       x="3.0240002"
       y="3.0240002"
       rx="14"
       ry="14"
       id="rect4-4"
       transform="matrix(0.15541785,0,0,0.15541785,3.1749999,3.1749999)" />
    <rect
       transform="rotate(90)"
       id="rect4"
       ry="2.1758497"
       rx="2.1758497"
       y="-7.9966826"
       x="3.6449833"
       height="4.3516994"
       width="4.3516994"
       style="fill:url(#linearGradient906);fill-opacity:1;stroke-width:0.155418" />
    <path
       inkscape:connector-curvature="0"
       style="fill:#ffffff;stroke-width:0.155418"
       id="path10"
       d="m 6.0572236,4.7320535 c -0.4707294,0 -0.8596472,0.384597 -0.8596472,0.8547981 0,0.178715 0.06049,0.3431315 0.1554184,0.4808315 L 4.7798914,6.6407865 A 0.15627265,0.15627265 0 0 0 4.9984557,6.8641996 L 5.5715589,6.2910963 c 0.1379,0.094946 0.3066395,0.1505619 0.4856809,0.1505619 0.4707451,0 0.8547981,-0.384597 0.8547981,-0.8547984 0,-0.4702008 -0.384053,-0.8547981 -0.8547981,-0.8547981 z m 0,0.3108356 c 0.3026609,0 0.5439625,0.2416436 0.5439625,0.5439625 0,0.3023031 -0.2413016,0.5439622 -0.5439625,0.5439622 -0.3026607,0 -0.5439623,-0.2416591 -0.5439623,-0.5439622 0,-0.3023189 0.2413016,-0.5439625 0.5439623,-0.5439625 z" />
  </g>
</svg>
