<?xml version="1.0" encoding="UTF-8" standalone="no"?>
<svg
   xmlns:dc="http://purl.org/dc/elements/1.1/"
   xmlns:cc="http://creativecommons.org/ns#"
   xmlns:rdf="http://www.w3.org/1999/02/22-rdf-syntax-ns#"
   xmlns:svg="http://www.w3.org/2000/svg"
   xmlns="http://www.w3.org/2000/svg"
   xmlns:xlink="http://www.w3.org/1999/xlink"
   xmlns:sodipodi="http://sodipodi.sourceforge.net/DTD/sodipodi-0.dtd"
   xmlns:inkscape="http://www.inkscape.org/namespaces/inkscape"
   viewBox="0 0 32 32"
   version="1.1"
   id="svg59"
   sodipodi:docname="virtualbox.svg"
   width="32"
   height="32"
   inkscape:version="1.0.1 (3bc2e813f5, 2020-09-07)">
  <path
     id="path2-9"
     style="opacity:0.5;mix-blend-mode:normal;fill:#000000;fill-opacity:1;stroke-width:0.666666;filter:url(#filter888)"
     d="m 16.000007,1 -12.666713,5.999582 0.66755,13.334263 4.683315,3.379604 c -0.0043,0.09587 -0.01675,0.189868 -0.01675,0.286691 0,3.866666 3.432746,6.99986 7.667411,6.99986 4.234667,0 7.665317,-3.133194 7.665318,-6.99986 0,-0.25182 -0.01556,-0.500041 -0.04395,-0.744977 l 4.04506,-2.921318 0.665458,-13.334263 z" />
  <defs
     id="defs63">
    <linearGradient
       inkscape:collect="always"
       id="linearGradient1024">
      <stop
         style="stop-color:#d1ebff;stop-opacity:1"
         offset="0"
         id="stop1020" />
      <stop
         style="stop-color:#113e65;stop-opacity:1"
         offset="1"
         id="stop1022" />
    </linearGradient>
    <linearGradient
       inkscape:collect="always"
       id="linearGradient986">
      <stop
         style="stop-color:#f1f2f5;stop-opacity:1;"
         offset="0"
         id="stop982" />
      <stop
         style="stop-color:#90b2d0;stop-opacity:1"
         offset="1"
         id="stop984" />
    </linearGradient>
    <linearGradient
       inkscape:collect="always"
       id="linearGradient943">
      <stop
         style="stop-color:#395e7c;stop-opacity:1"
         offset="0"
         id="stop939" />
      <stop
         style="stop-color:#08375f;stop-opacity:1"
         offset="1"
         id="stop941" />
    </linearGradient>
    <linearGradient
       inkscape:collect="always"
       id="linearGradient935">
      <stop
         style="stop-color:#fdffff;stop-opacity:1"
         offset="0"
         id="stop931" />
      <stop
         style="stop-color:#c8e5fb;stop-opacity:0.99607843"
         offset="1"
         id="stop933" />
    </linearGradient>
    <linearGradient
       inkscape:collect="always"
       id="linearGradient927">
      <stop
         style="stop-color:#f3e8e3;stop-opacity:1;"
         offset="0"
         id="stop923" />
      <stop
         style="stop-color:#98aeca;stop-opacity:1"
         offset="1"
         id="stop925" />
    </linearGradient>
    <linearGradient
       inkscape:collect="always"
       id="linearGradient919">
      <stop
         style="stop-color:#a1b1c8;stop-opacity:1"
         offset="0"
         id="stop915" />
      <stop
         style="stop-color:#597fb5;stop-opacity:1"
         offset="1"
         id="stop917" />
    </linearGradient>
    <linearGradient
       inkscape:collect="always"
       xlink:href="#linearGradient919"
       id="linearGradient921"
       x1="34.732586"
       y1="35.15947"
       x2="33.71851"
       y2="15.346061"
       gradientUnits="userSpaceOnUse"
       gradientTransform="matrix(0.66666668,0,0,0.66666668,-5e-7,0.33333292)" />
    <linearGradient
       inkscape:collect="always"
       xlink:href="#linearGradient927"
       id="linearGradient929"
       x1="23.827839"
       y1="23.814913"
       x2="5.3712454"
       y2="11.087158"
       gradientUnits="userSpaceOnUse"
       gradientTransform="matrix(0.66666668,0,0,0.66666668,-5e-7,0.33333292)" />
    <linearGradient
       inkscape:collect="always"
       xlink:href="#linearGradient935"
       id="linearGradient937"
       x1="23.978672"
       y1="19.496386"
       x2="24"
       y2="1"
       gradientUnits="userSpaceOnUse"
       gradientTransform="matrix(0.66666668,0,0,0.66666668,-5e-7,0.33333292)" />
    <radialGradient
       inkscape:collect="always"
       xlink:href="#linearGradient943"
       id="radialGradient945"
       cx="33.822498"
       cy="26.246"
       fx="33.822498"
       fy="26.246"
       r="6.8225002"
       gradientTransform="matrix(0.66666668,0,0,1.0889459,-5e-7,-10.749808)"
       gradientUnits="userSpaceOnUse" />
    <radialGradient
       inkscape:collect="always"
       xlink:href="#linearGradient943"
       id="radialGradient953"
       cx="14.1775"
       cy="26.246"
       fx="14.1775"
       fy="26.246"
       r="6.8225002"
       gradientTransform="matrix(0.66666668,0,0,1.0889459,-5e-7,-10.749808)"
       gradientUnits="userSpaceOnUse" />
    <radialGradient
       inkscape:collect="always"
       xlink:href="#linearGradient943"
       id="radialGradient976"
       cx="24"
       cy="10.5"
       fx="24"
       fy="10.5"
       r="12.352"
       gradientTransform="matrix(0.66666668,0,0,0.35082038,-5e-7,3.649719)"
       gradientUnits="userSpaceOnUse" />
    <filter
       inkscape:collect="always"
       style="color-interpolation-filters:sRGB"
       id="filter978"
       x="-0.054326136"
       width="1.1086524"
       y="-0.12107535"
       height="1.2421507">
      <feGaussianBlur
         inkscape:collect="always"
         stdDeviation="0.4968125"
         id="feGaussianBlur980" />
    </filter>
    <linearGradient
       inkscape:collect="always"
       xlink:href="#linearGradient986"
       id="linearGradient988"
       x1="13.512"
       y1="35"
       x2="35.487999"
       y2="35"
       gradientUnits="userSpaceOnUse"
       gradientTransform="matrix(0.66666668,0,0,0.66666668,-5e-7,0.33333292)" />
    <radialGradient
       inkscape:collect="always"
       xlink:href="#linearGradient1024"
       id="radialGradient1026"
       cx="27.795332"
       cy="49.16291"
       fx="27.795332"
       fy="49.16291"
       r="11.5"
       gradientTransform="matrix(-0.00873717,-0.69325915,0.68551735,-0.00863959,-16.788992,45.841487)"
       gradientUnits="userSpaceOnUse" />
    <filter
       inkscape:collect="always"
       style="color-interpolation-filters:sRGB"
       id="filter888"
       x="-0.081907757"
       width="1.1638155"
       y="-0.069166765"
       height="1.1383335">
      <feGaussianBlur
         inkscape:collect="always"
         stdDeviation="0.86458456"
         id="feGaussianBlur890" />
    </filter>
  </defs>
  <sodipodi:namedview
     pagecolor="#ffffff"
     bordercolor="#666666"
     borderopacity="1"
     objecttolerance="10"
     gridtolerance="10"
     guidetolerance="10"
     inkscape:pageopacity="0"
     inkscape:pageshadow="2"
     inkscape:window-width="1920"
     inkscape:window-height="967"
     id="namedview61"
     showgrid="false"
     inkscape:zoom="15.875"
     inkscape:cx="-6.9515198"
     inkscape:cy="7.9563825"
     inkscape:window-x="0"
     inkscape:window-y="25"
     inkscape:window-maximized="1"
     inkscape:current-layer="svg59"
     inkscape:document-rotation="0" />
  <path
     d="m 24,24 c 0,-3.866667 -3.432,-7.000001 -7.666666,-7.000001 -4.234667,0 -7.6666665,3.133334 -7.6666665,7.000001 0,3.866667 3.4319985,7 7.6666655,7 C 20.568,31 24,27.866667 24,24 Z"
     fill="#47667f"
     id="path2"
     style="fill:url(#radialGradient1026);fill-opacity:1;stroke-width:0.666666" />
  <path
     d="m 23.658667,23.666667 c 0,-3.520668 -3.278667,-6.375334 -7.325333,-6.375334 -4.046667,0 -7.3253335,2.854666 -7.3253335,6.375334 0,3.520666 3.2786665,6.375333 7.3253335,6.375333 4.046666,0 7.325333,-2.854667 7.325333,-6.375333 z"
     fill="#c5cad5"
     id="path4"
     style="fill:url(#linearGradient988);fill-opacity:1;stroke-width:0.666666" />
  <path
     d="m 24.5,44.563 c 0.27,0 0.535,-0.02 0.8,-0.036 l 9.813,-7.086 A 8.346,8.346 0 0 0 35.488,35 c 0,-0.098 -0.011,-0.188 -0.015,-0.285 L 24,43 13.54,35.445 a 8.48,8.48 0 0 0 0.71,2.98 l 8.27,5.973 c 0.644,0.102 1.304,0.164 1.98,0.164 z"
     fill="#5a6e91"
     id="path10"
     style="opacity:0.5;fill:#000000;fill-opacity:1;filter:url(#filter978)"
     transform="matrix(0.66666666,0,0,0.66666666,5e-7,0.33333332)" />
  <path
     d="M 3.3333335,6.9999998 16,14.333333 V 28.999999 L 4.0000005,20.333332 Z"
     fill="#c5cad5"
     id="path6"
     style="fill:url(#linearGradient929);fill-opacity:1;stroke-width:0.666666" />
  <path
     d="M 28.666667,6.9999998 16,14.333333 v 14.666666 l 12,-8.666667 z"
     fill="#6d83b3"
     id="path8"
     style="fill:url(#linearGradient921);fill-opacity:1;stroke-width:0.666666" />
  <path
     d="M 3.3333335,6.9999998 16,14.333333 28.666667,6.9999998 16,0.99999992 Z"
     fill="#eaf4f8"
     id="path12"
     style="fill:url(#linearGradient937);fill-opacity:1;stroke-width:0.666666" />
  <path
     d="M 7.7653345,6.9013332 16,11.666667 24.234667,6.9013332 16,2.9999999 Z"
     fill="#34495e"
     id="path14"
     style="fill:url(#radialGradient976);fill-opacity:1;stroke-width:0.666666" />
  <path
     d="m 26.666667,19 0.43,-8.598667 L 18,15.666666 V 25.26 Z"
     fill="#34495e"
     id="path16"
     style="fill:url(#radialGradient945);fill-opacity:1;stroke-width:0.666666" />
  <path
     d="m 5.3333335,19 -0.429999,-8.598667 9.0966665,5.265333 V 25.26 Z"
     fill="#34495e"
     id="path18"
     style="fill:url(#radialGradient953);fill-opacity:1;stroke-width:0.666666" />
  <path
     d="m 19.213333,18.601333 c 0.042,0.326 -0.333333,1.862 -0.353332,2.052 -0.024,0.213333 -0.141335,0.328667 -0.362667,0.416667 -0.06267,-0.58 -0.124667,-1.140001 -0.18,-1.700001 -0.01266,-0.159333 0.138666,-0.18 0.247999,-0.265999 L 18.69,20.494666 c 0.01333,0.0027 0.226667,-1.020666 0.3,-1.5 0.02533,-0.172 0.08,-0.301999 0.223333,-0.393333 z"
     fill="#ecf0f1"
     id="path22"
     style="fill:#fafeff;fill-opacity:1;stroke-width:0.666666" />
  <path
     d="m 25.851334,15.268 c -0.078,0.185333 -0.05466,0.510666 -0.343333,0.640667 -0.01866,-0.172001 0.05466,-0.314667 0.109333,-0.45 0.12,-0.3 0.158666,-0.591334 0.0073,-0.888668 -0.07,-0.139999 0.034,-0.192666 0.122666,-0.246666 0.153334,-0.094 0.08867,0.106671 0.182667,0.126666 0.104004,-0.134666 0.04134,-0.393333 0.286667,-0.447333 0.04667,0.08334 -0.016,0.164 -0.04467,0.232001 -0.148667,0.337999 -0.195333,0.673999 -0.016,1.015333 0.08667,0.164 -0.01533,0.221333 -0.127334,0.289333 -0.02334,0.01334 -0.06,0.03867 -0.104004,-0.06267 -0.02667,-0.068 -0.04666,-0.133334 -0.07333,-0.208668 z"
     fill="#ecf0f1"
     id="path24"
     style="fill:#fafeff;fill-opacity:1;stroke-width:0.666666" />
  <path
     d="m 19.330666,20.315332 c 0.03133,-0.396 0.07067,-0.791999 0.09134,-1.187999 0.008,-0.142667 0.052,-0.234 0.229333,-0.291334 -0.03133,0.486668 -0.06,0.958001 -0.094,1.426667 -0.008,0.112666 -0.03933,0.154 -0.156,0.203334 -0.07067,0.02867 -0.07067,-0.150668 -0.07067,-0.150668 z"
     fill="#ecf0f1"
     id="path26"
     style="fill:#fafeff;fill-opacity:1;stroke-width:0.666666" />
  <path
     d="m 19.672,18.205999 c 0.109334,0.06 0.03133,0.234 -0.03133,0.346667 -0.02867,0.05133 -0.068,0.111334 -0.133334,0.100672 -0.08,-0.01 -0.07266,-0.09066 -0.07533,-0.148 -0.0047,-0.07067 0.110001,-0.367333 0.24,-0.3 z"
     fill="#ecf0f1"
     id="path28"
     style="fill:#fafeff;fill-opacity:1;stroke-width:0.666666" />
  <path
     d="m 13.169334,20.127333 c -0.26,-0.184667 -0.494667,-0.353334 -0.773333,-0.554667 0.05466,0.281334 0.163999,0.48 0.356666,0.628 0.174667,0.135333 0.353999,0.262667 0.538667,0.388001 0.08867,0.06 0.143333,0.08333 0.08667,0.176665 -0.076,0.122667 -0.151332,0.05 -0.208666,0.01867 -0.578,-0.325334 -0.919334,-0.815334 -1.005333,-1.474001 a 1.1826666,1.1826666 0 0 1 -0.018,-0.213333 c 0.0073,-0.148666 0.0073,-0.313333 0.166665,-0.393333 0.148,-0.07333 0.246668,0.05466 0.351334,0.124667 0.161334,0.109333 0.315334,0.231999 0.479333,0.338667 0.096,0.06267 0.117334,0.111999 0.06534,0.195333 -0.07866,0.124666 -0.148667,0.02334 -0.200667,-0.008 -0.114667,-0.06733 -0.216667,-0.153333 -0.326,-0.228667 -0.09066,-0.06267 -0.273334,-0.190667 -0.296667,-0.0027 -0.02067,0.176667 0.02067,0.171334 0.112,0.239334 0.208667,0.151333 0.419333,0.3 0.625333,0.453333 0.140001,0.104003 0.140001,0.106671 0.04667,0.312 z"
     fill="#ecf0f1"
     id="path30"
     style="fill:#fafeff;fill-opacity:1;stroke-width:0.666666" />
  <path
     d="m 12.226667,19.851333 c 0.086,0.07067 -0.052,0.223999 -0.158666,0.140667 -0.237334,-0.184667 -0.486667,-0.356667 -0.729334,-0.533334 -0.104004,-0.07334 -0.140666,-0.182666 -0.151333,-0.3 -0.04667,-0.455333 -0.08867,-0.916667 -0.138,-1.374666 -0.008,-0.07067 0.0027,-0.09933 0.07533,-0.08667 a 0.3,0.3 0 0 1 0.114666,0.222 c 0.02133,0.270666 0.04467,0.520666 0.08067,0.812667 0.06267,0.494667 0.146667,0.577999 0.440001,0.762666 0.177333,0.114667 0.248,0.177333 0.466666,0.356668 z"
     fill="#ecf0f1"
     id="path32"
     style="fill:#fafeff;fill-opacity:1;stroke-width:0.666666" />
  <path
     d="m 19.893334,20.052 c 0.02867,-0.484001 0.052,-0.924667 0.08,-1.366667 0.01134,-0.143334 0.01866,-0.148666 0.208666,-0.130666 0.06534,0.008 0.112,-0.265334 0.253334,-0.328001 0.0073,0.158667 0.02334,0.284 -0.106672,0.403334 -0.11,0.102 -0.148666,0.255333 -0.16,0.409333 -0.01266,0.239333 -0.044,0.476 -0.044,0.716 -0.002,0.150666 -0.07266,0.221334 -0.231333,0.296667 z"
     fill="#ecf0f1"
     id="path34"
     style="fill:#fafeff;fill-opacity:1;stroke-width:0.666666" />
  <path
     d="m 23.518,17.187333 c -0.088,0.02334 -0.104004,-0.026 -0.09867,-0.09867 0.02867,-0.318 0.07533,-1.304666 0.101336,-1.520666 0.01071,-0.06267 0.04467,-0.166668 -0.044,-0.18 -0.09133,-0.01333 -0.133333,0.07533 -0.164,0.164 -0.068,0.182667 -0.226667,1.864666 -0.08067,2.039332 0.192668,0.086 0.306668,-0.187999 0.286667,-0.403999 z"
     fill="#ecf0f1"
     id="path36"
     style="fill:#fafeff;fill-opacity:1;stroke-width:0.666666" />
  <path
     d="M 21.075334,17.763333 C 21.062004,17.768033 20.932,17.896 20.922,17.747333 20.91129,17.645998 20.9193,17.542 20.9166,17.437334 c -0.12,-0.0054 -0.14,0.09333 -0.146,0.171999 -0.01533,0.184667 -0.026,0.364667 -0.169333,0.510668 -0.03133,0.02866 -0.04667,0.116666 -0.026,0.147999 0.156668,0.234667 0.05,0.486667 0.052,0.729334 0.0027,0.156 -0.08533,0.385333 0.06,0.44 0.174667,0.068 0.336,-0.395334 0.330667,-0.395334 -0.138,0.01 -0.156,-0.206666 -0.150667,-0.320666 0.01533,-0.252667 -0.07067,-0.533334 0.192667,-0.729334 0.05733,-0.04134 0.02866,-0.150666 0.01533,-0.228666 z"
     fill="#ecf0f1"
     id="path38"
     style="fill:#fafeff;fill-opacity:1;stroke-width:0.666666" />
  <path
     d="m 25.070001,14.781333 c -0.348668,0.281334 -0.39,0.75 -0.421334,1.176667 -0.01333,0.185333 0.02,0.544667 0.304667,0.409333 0.499999,-0.237334 0.492,-0.841333 0.494667,-1.372667 0,-0.333333 -0.122667,-0.422 -0.378,-0.213333 z m -0.096,1.244667 c -0.09666,0 -0.07334,-0.169334 -0.068,-0.273333 0.01333,-0.276 0.08667,-0.706001 0.253332,-0.706001 0.062,0 0.06467,0.078 0.06667,0.133334 0.0087,0.228666 -0.044,0.846666 -0.252001,0.846666 z"
     fill="#ecf0f1"
     id="path40"
     style="fill:#fafeff;fill-opacity:1;stroke-width:0.666666" />
  <path
     d="m 8.4666665,17.401333 c -0.127999,-0.05467 -0.195999,-0.162 -0.247999,-0.281334 -0.166667,-0.338666 -0.341334,-0.672 -0.508001,-1.013332 0.195334,0.111999 0.448001,0.247333 0.500001,0.213333 0.140666,-0.101334 -0.106661,-0.393333 -0.192667,-0.460001 a 21.366666,21.366666 0 0 1 -0.460667,-0.346666 c 0.02067,0.168667 0.04933,0.833334 0.09333,1.106667 0.01333,0.05466 0.04667,0.139999 -0.03333,0.161333 -0.078,0.018 -0.125333,-0.06267 -0.133333,-0.128 -0.03333,-0.273333 -0.186666,-1.513334 -0.12,-1.614 0.487333,0.346666 1.068,0.614 1.146667,1.32 0.02867,0.294 -0.04667,0.401334 -0.313333,0.375333 0.09467,0.18 0.187999,0.346667 0.266666,0.518001 0.02,0.04134 0.114,0.101336 0.002,0.148666 z"
     fill="#ecf0f1"
     id="path42"
     style="fill:#fafeff;fill-opacity:1;stroke-width:0.666666" />
  <path
     d="m 10.958667,18.898666 a 8.0999999,8.0999999 0 0 1 -0.516,-0.372666 c -0.3,-0.236667 -0.411333,-0.57 -0.411333,-0.937333 0,-0.229334 0.117333,-0.278667 0.304666,-0.153334 0.124667,0.08267 0.242001,0.179333 0.370001,0.26 0.04134,0.02867 0.09333,0.14 0.163999,0.018 0.04134,-0.078 0.05466,-0.14 -0.03666,-0.2 -0.203334,-0.140666 -0.398667,-0.292 -0.601333,-0.43 -0.114667,-0.07533 -0.2426675,-0.122667 -0.3386675,0.03666 -0.138,0.458 -0.018,0.893333 0.2033335,1.278667 0.176667,0.306667 0.468667,0.486667 0.721334,0.710666 0.02866,0.02334 0.150666,0.125334 0.207999,0.02867 0.06267,-0.109333 0.03133,-0.174666 -0.068,-0.24 z"
     fill="#ecf0f1"
     id="path44"
     style="fill:#fafeff;fill-opacity:1;stroke-width:0.666666" />
  <path
     d="M 7.1560005,15.062667 C 6.9346675,14.661333 6.2526665,14.232 6.2266675,14.213333 c -0.268001,-0.182 -0.416667,-0.122 -0.456,0.203333 -0.026,0.24 0.04667,0.468667 0.106671,0.700001 0.136,0.518666 0.544666,0.799999 0.94,1.093999 0.333333,0.177333 0.463999,0.159333 0.49,-0.210666 0.0027,-0.31 -0.068,-0.784 -0.151333,-0.937333 z m -0.07,0.833332 c -0.03333,0.07 -0.078,0.109334 -0.166667,0.08334 -0.482,-0.128 -0.958667,-0.75 -0.960667,-1.255332 0,-0.09333 -0.016,-0.203334 0.08267,-0.263334 0.106671,-0.06467 0.216666,0.01866 0.294666,0.07067 0.400666,0.255334 0.726667,0.552 0.776001,1.078001 0.01071,0.09867 0.01333,0.193333 -0.02667,0.286666 z"
     fill="#ecf0f1"
     id="path46"
     style="fill:#fafeff;fill-opacity:1;stroke-width:0.666666" />
  <path
     d="m 24.505333,15.906666 c -0.102,-0.231999 -0.04933,-0.386 0.0054,-0.581333 0.026,-0.09066 0.104004,-0.476667 -0.18,-0.437334 -0.198,0.02667 -0.437333,0.276 -0.482,0.468668 -0.07533,0.338666 -0.104004,1.846666 -0.104004,1.846666 0.226666,-0.102 0.396,-0.263334 0.526666,-0.442666 0.182001,-0.253334 0.353334,-0.573334 0.233334,-0.854667 z m -0.218666,0.366667 c -0.01866,0.187334 -0.076,0.36 -0.276001,0.453333 0,-0.174666 -0.0054,-0.330666 0,-0.486666 0.0047,-0.117334 0.09333,-0.190667 0.192668,-0.18 0.09333,0.01333 0.09066,0.133333 0.08334,0.213333 z m 0.01333,-0.846667 c -0.024,0.148667 -0.06,0.294667 -0.256,0.412 0.008,-0.177333 0.008,-0.315333 0.02667,-0.453333 a 0.14666667,0.14666667 0 0 1 0.150667,-0.124666 c 0.09666,0.0073 0.08866,0.101336 0.078,0.166666 z"
     fill="#ecf0f1"
     id="path48"
     style="fill:#fafeff;fill-opacity:1;stroke-width:0.666666" />
  <path
     d="m 21.984667,17.057333 c -0.182667,0.0054 -0.166666,0.169333 -0.174667,0.236666 0,0.01333 -0.07067,1.068 -0.09933,1.112001 -0.036,0.05466 -0.07,0.140666 -0.153333,0.109333 -0.068,-0.026 -0.04934,-0.106661 -0.044,-0.166667 0.01,-0.236666 0.03066,-0.473333 0.04134,-0.713333 0.0027,-0.07 0.052,-0.242 -0.07334,-0.224 -0.184666,0.02867 -0.207999,0.166667 -0.213333,0.318 -0.02,0.314666 -0.088,0.63 -0.052,0.948 0.016,0.166667 0.068,0.372 0.286666,0.246667 0.08334,-0.04667 0.2,-0.168667 0.229334,-0.314667 0.291333,0.052 0.218667,-0.18 0.234,-0.315333 0.034,-0.32 0.04933,-0.645333 0.06267,-0.968667 0.0054,-0.08867 0.052,-0.192666 -0.044,-0.268 z"
     fill="#ecf0f1"
     id="path50"
     style="fill:#fafeff;fill-opacity:1;stroke-width:0.666666" />
  <path
     d="m 9.4733335,17.052 a 34.842666,34.842666 0 0 0 -0.257333,-0.664001 c -0.02334,-0.05733 -0.05733,-0.117333 -0.127334,-0.12 -0.08334,-0.0027 -0.08334,0.076 -0.104004,0.130667 l -0.378,1.093333 c 0.016,0.08867 0.13,0.172001 0.24,0.05466 0.036,-0.08867 0.231333,-0.643334 0.317334,-0.900667 l 0.318,0.866667 c -0.190667,0 -0.385334,-0.254667 -0.442667,-0.182 -0.109333,0.140666 0.242,0.401333 0.437333,0.528667 0.112,0.07333 0.210667,0.309999 0.244666,0.406666 0.03133,0.096 0.127334,0.242 0.268001,0.137333 -0.171333,-0.45 -0.340667,-0.900666 -0.515334,-1.351332 z"
     fill="#ecf0f1"
     id="path52"
     style="fill:#fafeff;fill-opacity:1;stroke-width:0.666666" />
  <path
     d="m 22.633333,16.552 c -0.375333,0.258 -0.388666,0.523333 -0.260667,0.544667 0.052,-0.05 0.09867,-0.102 0.153335,-0.143334 0.052,-0.042 0.117333,-0.128 0.174666,-0.06534 0.05733,0.06267 0.05466,0.166667 -0.01866,0.24 -0.044,0.044 -0.09333,0.08 -0.138,0.124667 -0.228667,0.221333 -0.325334,0.5 -0.333334,0.81 -0.0027,0.078 0.0027,0.172 0.09666,0.198 0.07,0.02334 0.143332,-0.02867 0.18,-0.08667 0.096,-0.153333 0.218667,-0.265334 0.397999,-0.309333 0.02067,-0.426667 0.06534,-0.734667 0.06534,-1.276001 0,-0.169332 -0.189999,-0.125333 -0.318,-0.03666 z m -0.09666,1.302 c -0.034,0.02133 -0.078,0.01071 -0.08334,-0.02867 -0.02867,-0.182 0.08334,-0.296666 0.236667,-0.408667 0.02334,0.01333 0,-0.0054 0,0 0.02067,0.172001 0.0027,0.328001 -0.153333,0.437334 z"
     fill="#ecf0f1"
     id="path54"
     style="fill:#fafeff;fill-opacity:1;stroke-width:0.666666" />
  <metadata
     id="metadata57">
    <rdf:RDF>
      <rdf:Description
         about="https://iconscout.com/legal#licenses"
         dc:title="virtualbox"
         dc:description="virtualbox"
         dc:publisher="Iconscout"
         dc:date="2017-12-15"
         dc:format="image/svg+xml"
         dc:language="en">
        <dc:creator>
          <rdf:Bag>
            <rdf:li>Icons8</rdf:li>
          </rdf:Bag>
        </dc:creator>
      </rdf:Description>
      <cc:Work
         rdf:about="">
        <dc:format>image/svg+xml</dc:format>
        <dc:type
           rdf:resource="http://purl.org/dc/dcmitype/StillImage" />
        <dc:title />
      </cc:Work>
    </rdf:RDF>
  </metadata>
  <path
     d="m 14.10096,4.918741 0.611049,0.3573072 -1.210037,1.6598906 3.615214,-1.1792522 -0.791464,1.8311926 2.296439,-0.8068569 -1.023839,2.2189803 0.405463,0.3584059"
     fill="none"
     stroke-width="0.496527"
     stroke-linecap="butt"
     stroke-linejoin="miter"
     stroke="#eaf4f8"
     stroke-opacity="1"
     stroke-miterlimit="10"
     id="path20-6"
     style="stroke:#ffffff;stroke-opacity:1"
     sodipodi:nodetypes="cccccccc" />
  <path
     d="M 9.8668955,6.8470606 16,10.396238 22.133105,6.8470606 16,3.9413832 Z"
     fill="#34495e"
     id="path14-3-2"
     style="fill:none;fill-opacity:1;stroke:#ffffff;stroke-width:0.496527;stroke-opacity:1" />
</svg>
