<?xml version="1.0" encoding="UTF-8" standalone="no"?>
<svg
   xmlns:dc="http://purl.org/dc/elements/1.1/"
   xmlns:cc="http://creativecommons.org/ns#"
   xmlns:rdf="http://www.w3.org/1999/02/22-rdf-syntax-ns#"
   xmlns:svg="http://www.w3.org/2000/svg"
   xmlns="http://www.w3.org/2000/svg"
   xmlns:sodipodi="http://sodipodi.sourceforge.net/DTD/sodipodi-0.dtd"
   xmlns:inkscape="http://www.inkscape.org/namespaces/inkscape"
   inkscape:version="1.0.1 (3bc2e813f5, 2020-09-07)"
   sodipodi:docname="visual-studio-code.svg"
   id="svg20"
   version="1"
   height="32"
   width="32">
  <metadata
     id="metadata26">
    <rdf:RDF>
      <cc:Work
         rdf:about="">
        <dc:format>image/svg+xml</dc:format>
        <dc:type
           rdf:resource="http://purl.org/dc/dcmitype/StillImage" />
      </cc:Work>
    </rdf:RDF>
  </metadata>
  <defs
     id="defs24">
    <filter
       inkscape:collect="always"
       style="color-interpolation-filters:sRGB"
       id="filter40284"
       x="-0.07500051"
       width="1.150001"
       y="-0.10018427"
       height="1.2003685">
      <feGaussianBlur
         inkscape:collect="always"
         stdDeviation="0.87500251"
         id="feGaussianBlur40286" />
    </filter>
    <filter
       inkscape:collect="always"
       style="color-interpolation-filters:sRGB"
       id="filter40288"
       x="-0.099980718"
       width="1.1999614"
       y="-0.096407963"
       height="1.1928159">
      <feGaussianBlur
         inkscape:collect="always"
         stdDeviation="0.87500251"
         id="feGaussianBlur40290" />
    </filter>
    <filter
       inkscape:collect="always"
       style="color-interpolation-filters:sRGB"
       id="filter40292"
       x="-0.07500051"
       width="1.150001"
       y="-0.095487417"
       height="1.1909748">
      <feGaussianBlur
         inkscape:collect="always"
         stdDeviation="0.87500251"
         id="feGaussianBlur40294" />
    </filter>
    <filter
       inkscape:collect="always"
       style="color-interpolation-filters:sRGB"
       id="filter40296"
       x="-0.24014716"
       width="1.4802943"
       y="-0.075000209"
       height="1.1500004">
      <feGaussianBlur
         inkscape:collect="always"
         stdDeviation="0.87500251"
         id="feGaussianBlur40298" />
    </filter>
  </defs>
  <sodipodi:namedview
     inkscape:current-layer="svg20"
     inkscape:window-maximized="1"
     inkscape:window-y="0"
     inkscape:window-x="0"
     inkscape:cy="15.133338"
     inkscape:cx="15.7398"
     inkscape:zoom="17.235728"
     showgrid="false"
     id="namedview22"
     inkscape:window-height="1000"
     inkscape:window-width="1920"
     inkscape:pageshadow="2"
     inkscape:pageopacity="0"
     guidetolerance="10"
     gridtolerance="10"
     objecttolerance="10"
     borderopacity="1"
     bordercolor="#666666"
     pagecolor="#ffffff"
     inkscape:document-rotation="0" />
  <path
     style="fill:#000000;fill-opacity:1;opacity:0.5;filter:url(#filter40284)"
     d="M 29.009746,4.9660661 23.244062,2.1738782 c -0.667328,-0.323197 -1.46495,-0.186865 -1.988755,0.339934 L 2.3804674,19.512676 c -0.5076856,0.465605 -0.5071019,1.269499 0.00126,1.734334 l 1.5417573,1.409674 c 0.415612,0.380072 1.0415222,0.407995 1.4889975,0.06664 L 28.142166,5.6904261 c 0.762534,-0.581833 1.857803,-0.03479 1.857803,0.927892 v -0.06734 c 0,-0.675759 -0.384874,-1.291773 -0.990223,-1.584919 z"
     id="path32" />
  <path
     style="opacity:0.5;fill:#000000;fill-opacity:1;filter:url(#filter40288)"
     d="m 4.6563293,8.0011481 c -0.2643635,0.01182 -0.5246159,0.11468 -0.7324219,0.304688 l -1.5429688,1.410156 c -0.5083619,0.4648209 -0.5076856,1.2688049 0,1.7343749 L 21.255938,29.479664 c 0.07963,0.08007 0.174765,0.133528 0.265625,0.195313 5.79e-4,2.95e-4 0.0014,-2.95e-4 0.002,0 0.64263,0.327044 1.480468,-0.123628 1.480468,-0.923829 v -6.53125 L 5.4121887,8.2394291 C 5.1884511,8.0687171 4.9206928,7.9893301 4.6563293,8.0011481 Z"
     id="path36" />
  <path
     style="fill:#000000;fill-opacity:1;opacity:0.5;filter:url(#filter40292)"
     d="m 29.009746,27.034008 -5.765684,2.792195 c -0.667328,0.32312 -1.46495,0.186788 -1.988755,-0.339941 L 2.3804674,11.45631 C 1.8727818,10.99074 1.8733655,10.186811 2.3817274,9.7219901 l 1.5417573,-1.409731 c 0.415612,-0.380016 1.0415222,-0.407995 1.4889974,-0.06657 L 28.142166,26.309599 c 0.762534,0.581812 1.857803,0.03486 1.857803,-0.927906 v 0.06741 c 0,0.675703 -0.384874,1.29171 -0.990223,1.584926 z"
     id="path38" />
  <path
     style="fill:#000000;fill-opacity:1;opacity:0.5;filter:url(#filter40296)"
     d="m 23.244389,29.826644 c -0.667545,0.322896 -1.465167,0.186459 -1.988973,-0.340382 0.645356,0.649096 1.748932,0.189322 1.748932,-0.728693 V 3.2424283 c 0,-0.918015 -1.103576,-1.3777681 -1.748932,-0.7286301 0.523806,-0.526841 1.321428,-0.663369 1.988973,-0.3404589 l 5.764701,2.7883518 c 0.605786,0.292992 0.990989,0.90923 0.990989,1.585283 V 25.453156 c 0,0.676032 -0.385203,1.292256 -0.990989,1.585248 z"
     id="path42" />
  <path
     id="path6"
     d="m 29.009667,4.9660666 -5.765684,-2.792188 c -0.667328,-0.323197 -1.46495,-0.186865 -1.988755,0.339934 L 2.3803882,19.512676 c -0.5076856,0.465605 -0.5071019,1.269499 0.00126,1.734334 l 1.5417572,1.409674 c 0.415612,0.380072 1.0415222,0.407995 1.4889975,0.06664 L 28.142087,5.6904266 c 0.762534,-0.581833 1.857803,-0.03479 1.857803,0.927892 v -0.06734 c 0,-0.675759 -0.384874,-1.291773 -0.990223,-1.584919 z"
     style="fill:#0072b0" />
  <path
     id="path12"
     d="m 29.009667,27.034008 -5.765684,2.792195 c -0.667328,0.32312 -1.46495,0.186788 -1.988755,-0.339941 L 2.3803882,11.45631 C 1.8727026,10.99074 1.8732863,10.186811 2.3816482,9.7219902 L 3.9234054,8.3122598 c 0.415612,-0.380016 1.0415222,-0.4079949 1.4889974,-0.06657 L 28.142087,26.309599 c 0.762534,0.581812 1.857803,0.03486 1.857803,-0.927906 v 0.06741 c 0,0.675703 -0.384874,1.29171 -0.990223,1.584926 z"
     style="fill:#008eda" />
  <path
     id="path16"
     d="m 23.24431,29.826644 c -0.667545,0.322896 -1.465167,0.186459 -1.988973,-0.340382 0.645356,0.649096 1.748932,0.189322 1.748932,-0.728693 V 3.2424286 c 0,-0.9180149 -1.103576,-1.377768 -1.748932,-0.72863 0.523806,-0.526841 1.321428,-0.663369 1.988973,-0.3404589 l 5.764701,2.788352 C 29.614797,5.2546836 30,5.8709216 30,6.5469746 V 25.453156 c 0,0.676032 -0.385203,1.292256 -0.990989,1.585248 z"
     style="fill:#1eacf8" />
</svg>
