<?xml version="1.0" encoding="UTF-8" standalone="no"?>
<svg
   xmlns:dc="http://purl.org/dc/elements/1.1/"
   xmlns:cc="http://creativecommons.org/ns#"
   xmlns:rdf="http://www.w3.org/1999/02/22-rdf-syntax-ns#"
   xmlns:svg="http://www.w3.org/2000/svg"
   xmlns="http://www.w3.org/2000/svg"
   xmlns:sodipodi="http://sodipodi.sourceforge.net/DTD/sodipodi-0.dtd"
   xmlns:inkscape="http://www.inkscape.org/namespaces/inkscape"
   inkscape:version="1.0.1 (3bc2e813f5, 2020-09-07)"
   sodipodi:docname="vlc.svg"
   id="svg14"
   version="1"
   height="32"
   width="32">
  <metadata
     id="metadata20">
    <rdf:RDF>
      <cc:Work
         rdf:about="">
        <dc:format>image/svg+xml</dc:format>
        <dc:type
           rdf:resource="http://purl.org/dc/dcmitype/StillImage" />
      </cc:Work>
    </rdf:RDF>
  </metadata>
  <defs
     id="defs18">
    <filter
       inkscape:collect="always"
       style="color-interpolation-filters:sRGB"
       id="filter40256"
       x="-0.075016733"
       width="1.1500335"
       y="-0.074983275"
       height="1.1499665">
      <feGaussianBlur
         inkscape:collect="always"
         stdDeviation="0.87518102"
         id="feGaussianBlur40258" />
    </filter>
  </defs>
  <sodipodi:namedview
     inkscape:current-layer="svg14"
     inkscape:window-maximized="1"
     inkscape:window-y="0"
     inkscape:window-x="0"
     inkscape:cy="15.173658"
     inkscape:cx="10.70551"
     inkscape:zoom="11.90625"
     showgrid="false"
     id="namedview16"
     inkscape:window-height="1000"
     inkscape:window-width="1920"
     inkscape:pageshadow="2"
     inkscape:pageopacity="0"
     guidetolerance="10"
     gridtolerance="10"
     objecttolerance="10"
     borderopacity="1"
     bordercolor="#666666"
     pagecolor="#ffffff"
     inkscape:document-rotation="0" />
  <path
     style="opacity:0.5;filter:url(#filter40256)"
     d="m 16.002046,1.9943015 c -0.63588,-0.007 -1.285281,0.100101 -1.925781,0.357421 -0.39691,0.15963 -0.699112,0.492054 -0.820312,0.902344 l -1.28711,4.353516 -1.65625,5.5996095 -1.5527342,5.25 -0.158203,0.537109 h -1.701172 c -0.56496,1.4e-4 -1.075569,0.339878 -1.292969,0.861328 l -3.498047,8.210938 c -0.38418,0.922011 0.292156,1.939153 1.291016,1.939453 H 28.597749 c 0.99885,-3.1e-4 1.677169,-1.017452 1.292969,-1.939453 l -3.5,-8.210938 c -0.21741,-0.52145 -0.727989,-0.861188 -1.292969,-0.861328 H 23.400484 L 23.187593,18.277504 21.68564,13.207192 20.02939,7.6075825 18.740327,3.2540665 c -0.12843,-0.43428 -0.458468,-0.778501 -0.886718,-0.925781 -0.59324,-0.20424 -1.215663,-0.326874 -1.851563,-0.333984 z"
     id="path2-9" />
  <path
     id="path2"
     d="m6.8995 18.988c-0.56496 0.00014-1.0745 0.33981-1.2919 0.86126l-3.4997 8.2118c-0.38418 0.92201 0.29304 1.9382 1.2919 1.9385h25.198c0.99885-0.00031 1.6761-1.0165 1.2919-1.9385l-3.4997-8.2118c-0.21741-0.52145-0.72692-0.86112-1.2919-0.86126z"
     fill-rule="evenodd"
     fill="#f80"
     style="fill:#ff8800;fill-opacity:1" />
  <path
     id="path6"
     d="m16.001 1.9884c-0.63588-0.007-1.2843 0.10086-1.9248 0.35818-0.39691 0.15963-0.69905 0.49198-0.82025 0.90227l-1.2878 4.3528c2.0367 4.38 6.1312 1.4352 8.0603 0l-1.2878-4.3528c-0.12843-0.43428-0.45898-0.7796-0.88723-0.92688-0.59324-0.20424-1.2165-0.32646-1.8524-0.33357zm-5.689 11.213-1.5536 5.25c0.50292 4.4562 8.3306 3.5251 14.428-0.17873l-1.5004-5.0707c-3.8497 1.5311-5.4111-2.9352-11.374 0z"
     fill-rule="evenodd"
     fill="#f80"
     style="fill:#ff8800;fill-opacity:1" />
  <path
     id="path10"
     d="m11.968 7.6018-3.2099 10.848 1.5539-5.249c4.2871 1.9248 7.5239 1.5311 11.374 0l1.5005 5.0709c-6.093 3.691-12.92 1.062-14.428 0.178l-1.1013 3.7201c-0.17073 0.57777 0.04736 1.2001 0.5414 1.5449 2.1575 1.5044 4.9594 2.1103 7.7485 2.0836s5.5868-0.6897 7.7841-2.0385c0.53921-0.33126 0.78922-0.98317 0.60976-1.59l-4.312-14.568c-1.9303 1.3999-6.1306 1.3999-8.0609 0z"
     fill-rule="evenodd"
     fill="#fff" />
</svg>
