<?xml version="1.0" encoding="UTF-8" standalone="no"?>
<svg
   xmlns:dc="http://purl.org/dc/elements/1.1/"
   xmlns:cc="http://creativecommons.org/ns#"
   xmlns:rdf="http://www.w3.org/1999/02/22-rdf-syntax-ns#"
   xmlns:svg="http://www.w3.org/2000/svg"
   xmlns="http://www.w3.org/2000/svg"
   xmlns:xlink="http://www.w3.org/1999/xlink"
   xmlns:sodipodi="http://sodipodi.sourceforge.net/DTD/sodipodi-0.dtd"
   xmlns:inkscape="http://www.inkscape.org/namespaces/inkscape"
   inkscape:version="1.0.1 (3bc2e813f5, 2020-09-07)"
   sodipodi:docname="weather.svg"
   id="svg34"
   version="1"
   height="32"
   width="32">
  <rect
     style="opacity:0.5;fill:#000000;fill-opacity:1;stroke-width:0.650841;filter:url(#filter40252)"
     id="rect842-2"
     width="28"
     height="28"
     x="2"
     y="2"
     rx="2.4986861"
     ry="2.4986861" />
  <rect
     ry="2.4986861"
     rx="2.4986861"
     y="2"
     x="2"
     height="28"
     width="28"
     id="rect842"
     style="opacity:1;fill:url(#linearGradient867);fill-opacity:1;stroke-width:0.650841" />
  <metadata
     id="metadata40">
    <rdf:RDF>
      <cc:Work
         rdf:about="">
        <dc:format>image/svg+xml</dc:format>
        <dc:type
           rdf:resource="http://purl.org/dc/dcmitype/StillImage" />
        <dc:title />
      </cc:Work>
    </rdf:RDF>
  </metadata>
  <defs
     id="defs38">
    <linearGradient
       inkscape:collect="always"
       id="linearGradient865">
      <stop
         style="stop-color:#27a9ff;stop-opacity:1;"
         offset="0"
         id="stop861" />
      <stop
         style="stop-color:#00e6ff;stop-opacity:1"
         offset="1"
         id="stop863" />
    </linearGradient>
    <filter
       inkscape:collect="always"
       style="color-interpolation-filters:sRGB"
       id="filter40252"
       x="-0.075"
       width="1.15"
       y="-0.075"
       height="1.15">
      <feGaussianBlur
         inkscape:collect="always"
         stdDeviation="0.875"
         id="feGaussianBlur40254" />
    </filter>
    <linearGradient
       inkscape:collect="always"
       xlink:href="#linearGradient865"
       id="linearGradient867"
       x1="2"
       y1="2"
       x2="30"
       y2="30"
       gradientUnits="userSpaceOnUse" />
  </defs>
  <sodipodi:namedview
     inkscape:document-rotation="0"
     inkscape:current-layer="svg34"
     inkscape:window-maximized="1"
     inkscape:window-y="0"
     inkscape:window-x="0"
     inkscape:cy="10.381314"
     inkscape:cx="5.3350561"
     inkscape:zoom="7.375"
     showgrid="false"
     id="namedview36"
     inkscape:window-height="1000"
     inkscape:window-width="1920"
     inkscape:pageshadow="2"
     inkscape:pageopacity="0"
     guidetolerance="10"
     gridtolerance="10"
     objecttolerance="10"
     borderopacity="1"
     bordercolor="#666666"
     pagecolor="#ffffff" />
  <path
     id="rect841"
     style="opacity:1;fill:#ffaa00;fill-opacity:1;stroke-width:0.507916"
     d="M 13.905156,4 11.17872,6.7265933 H 7.223143 v 3.9546517 l -3.317988,3.31818 3.317988,3.318179 v 3.551821 h 3.551618 L 13.905156,24 17.03555,20.869425 h 4.329612 v -4.329862 l 2.539993,-2.540138 -2.539993,-2.540139 V 6.7265933 h -4.733571 z" />
  <ellipse
     style="opacity:1;fill:#ffcc00;fill-opacity:1;stroke:none;stroke-width:0.867317;stroke-miterlimit:10;stroke-dasharray:none;stroke-opacity:1;paint-order:fill markers stroke"
     id="path847-2"
     cx="13.905155"
     cy="14"
     rx="6.6662831"
     ry="6.6666665" />
  <path
     d="m 18.495245,14.973053 a 4.7999992,4.7999992 0 0 0 -4.798828,4.800781 4.7999992,4.7999992 0 0 0 0.0039,0.207031 3.5999992,3.5999992 0 0 0 -1.205079,-0.207031 3.5999992,3.5999992 0 0 0 -3.5996086,3.59961 3.5999992,3.5999992 0 0 0 3.5996086,3.599609 3.5999992,3.5999992 0 0 0 0.07031,0 h 11.929687 a 3.5999992,3.5999992 0 0 0 3.59961,-3.599609 3.5999992,3.5999992 0 0 0 -3.59961,-3.59961 3.5999992,3.5999992 0 0 0 -1.205078,0.207031 4.7999992,4.7999992 0 0 0 0.0059,-0.207031 4.7999992,4.7999992 0 0 0 -4.800782,-4.800781 z"
     style="opacity:0.8;fill:#ffffff;fill-opacity:1;stroke-width:0.4"
     id="circle18" />
</svg>
