<?xml version="1.0" encoding="UTF-8" standalone="no"?>
<svg
   xmlns:dc="http://purl.org/dc/elements/1.1/"
   xmlns:cc="http://creativecommons.org/ns#"
   xmlns:rdf="http://www.w3.org/1999/02/22-rdf-syntax-ns#"
   xmlns:svg="http://www.w3.org/2000/svg"
   xmlns="http://www.w3.org/2000/svg"
   xmlns:sodipodi="http://sodipodi.sourceforge.net/DTD/sodipodi-0.dtd"
   xmlns:inkscape="http://www.inkscape.org/namespaces/inkscape"
   inkscape:version="1.0.1 (3bc2e813f5, 2020-09-07)"
   sodipodi:docname="WhatsApp.svg"
   id="svg6"
   version="1.1"
   viewBox="0 0 24.024024 24.011958"
   height="32"
   width="32">
  <metadata
     id="metadata12">
    <rdf:RDF>
      <cc:Work
         rdf:about="">
        <dc:format>image/svg+xml</dc:format>
        <dc:type
           rdf:resource="http://purl.org/dc/dcmitype/StillImage" />
        <dc:title />
      </cc:Work>
    </rdf:RDF>
  </metadata>
  <defs
     id="defs10">
    <filter
       inkscape:collect="always"
       style="color-interpolation-filters:sRGB"
       id="filter40244"
       x="-0.075194109"
       width="1.1503882"
       y="-0.07480689"
       height="1.1496138">
      <feGaussianBlur
         inkscape:collect="always"
         stdDeviation="0.65521554"
         id="feGaussianBlur40246" />
    </filter>
  </defs>
  <sodipodi:namedview
     inkscape:current-layer="svg6"
     inkscape:window-maximized="1"
     inkscape:window-y="0"
     inkscape:window-x="0"
     inkscape:cy="20.775485"
     inkscape:cx="1.1866659"
     inkscape:zoom="12.96875"
     showgrid="false"
     id="namedview8"
     inkscape:window-height="1000"
     inkscape:window-width="1920"
     inkscape:pageshadow="2"
     inkscape:pageopacity="0"
     guidetolerance="10"
     gridtolerance="10"
     objecttolerance="10"
     borderopacity="1"
     bordercolor="#666666"
     pagecolor="#ffffff"
     inkscape:document-rotation="0" />
  <path
     d="m 8.9931765,7.0871592 c 0.232577,0.00499 0.38598,0.2127842 0.475052,0.3958771 0.296908,0.6433018 0.5344345,1.3063969 0.8164975,1.9546457 0.05938,0.1336096 0.09897,0.2820638 0.04948,0.425569 -0.148453,0.420619 -0.4948465,0.722477 -0.7719615,1.058972 -0.09897,0.113816 -0.08907,0.277114 -0.0099,0.395878 a 6.4330111,6.4330111 0 0 0 3.6371225,3.14228 c 0.148455,0.06433 0.326599,0.04948 0.430516,-0.07918 a 13.954685,13.954685 0 0 0 0.841241,-1.034231 c 0.227629,-0.296908 0.425568,-0.212784 0.722476,-0.08907 l 1.900213,0.915467 c 0.148454,0.06433 0.296907,0.173196 0.282063,0.346392 0.09897,1.286604 -1.054024,2.286193 -2.261451,2.325782 -3.11753,-0.227632 -5.2453715,-1.959596 -6.7793975,-3.958777 -0.504744,-0.702683 -1.039178,-1.410315 -1.316292,-2.246606 -0.262269,-0.7323732 -0.272167,-1.5686652 0.03958,-2.2911412 0.480001,-0.9649517 0.90062,-1.3360874 1.959594,-1.2767055 z M 6.0735785,3.3956007 C 8.3597715,1.7626058 11.318956,1.1390983 14.090099,1.6933268 a 10.342302,10.342302 0 0 1 4.834655,2.3901114 10.391787,10.391787 0 0 1 3.473827,6.6309498 10.441272,10.441272 0 0 1 -0.643301,4.997955 c -0.732375,1.880419 -2.028873,3.533208 -3.671765,4.701047 a 10.342302,10.342302 0 0 1 -5.393834,1.905161 10.391787,10.391787 0 0 1 -5.5917685,-1.237118 l -5.542287,1.435057 1.459798,-5.344349 c 0.02969,-0.06433 -0.01485,-0.118763 -0.04948,-0.168247 a 10.391787,10.391787 0 0 1 -1.237118,-6.433012 10.540241,10.540241 0 0 1 4.329911,-7.1752813 m 2.45939,0.6235066 c -1.657738,0.7422713 -3.068052,2.0189759 -3.968673,3.597538 -0.71258,1.2371179 -1.108458,2.6474317 -1.138148,4.0725917 -0.04948,1.741861 0.445362,3.488672 1.400416,4.94847 0.04948,0.08907 0.138558,0.183094 0.09897,0.296907 l -0.84124,3.087846 c 1.054024,-0.267217 2.108049,-0.554229 3.167022,-0.821446 0.133608,-0.04948 0.247423,0.05938 0.356289,0.118763 A 8.6598228,8.6598228 0 0 0 13.67938,20.41339 8.5608528,8.5608528 0 0 0 17.074031,18.95359 8.709307,8.709307 0 0 0 20.354865,14.316873 8.6598228,8.6598228 0 0 0 20.226205,9.1209808 8.6598228,8.6598228 0 0 0 17.633206,5.3304523 8.6103378,8.6103378 0 0 0 13.224121,3.3609612 C 11.640611,3.148177 9.9878225,3.3758102 8.5230745,4.0389016 Z"
     fill="#fcfcfc"
     id="path4-6"
     style="fill:#000000;fill-opacity:1;stroke-width:0.0494847;opacity:0.5;filter:url(#filter40244)" />
  <path
     style="stroke-width:0.0494847"
     id="path2"
     fill="#40c351"
     d="M 8.5478135,4.0191078 C 10.007613,3.3560136 11.655452,3.1283832 13.24886,3.3411675 c 1.61815,0.2127842 3.16702,0.9055707 4.404138,1.9694911 1.187632,0.9995912 2.093203,2.3257815 2.592998,3.790528 0.574023,1.6676344 0.618559,3.5134134 0.128661,5.1958944 a 8.7093073,8.7093073 0 0 1 -3.280836,4.636716 8.6598225,8.6598225 0 0 1 -3.39465,1.459798 C 11.620813,20.789473 9.4137958,20.403492 7.6125532,19.304933 7.4987384,19.255451 7.3898718,19.131736 7.2562628,19.186169 L 4.0941904,20.002666 4.9354303,16.914821 C 4.9849116,16.805955 4.8859491,16.716882 4.8364608,16.617913 3.8814062,15.163063 3.3865596,13.411305 3.4360443,11.669443 3.4855256,8.1065443 5.7618249,5.2859162 8.5329683,3.9993145" />
  <path
     style="stroke-width:0.0494847"
     id="path4"
     fill="#fcfcfc"
     d="m 8.9931763,7.0871597 c 0.2325776,0.00499 0.38598,0.2127842 0.4750532,0.3958771 0.2969076,0.6433018 0.5344345,1.3063969 0.8164975,1.9546459 0.05938,0.133609 0.09897,0.2820632 0.04948,0.4255685 -0.148454,0.4206198 -0.4948475,0.7224768 -0.7719618,1.0589728 -0.098969,0.113815 -0.089072,0.277114 -0.0099,0.395877 a 6.4330111,6.4330111 0 0 0 3.6371248,3.14228 c 0.148455,0.06433 0.326599,0.04948 0.430517,-0.07918 a 13.954685,13.954685 0 0 0 0.84124,-1.03423 c 0.22763,-0.296909 0.425568,-0.212784 0.722477,-0.08907 l 1.900212,0.915467 c 0.148454,0.06433 0.296908,0.173195 0.282063,0.346392 0.09897,1.286603 -1.054024,2.286193 -2.26145,2.325781 C 11.986997,16.61791 9.8591559,14.885946 8.3251295,12.886764 7.8203858,12.184081 7.2859515,11.47645 7.0088373,10.640158 6.7465683,9.9077852 6.7366712,9.0714934 7.0484223,8.3490173 7.5284237,7.3840656 7.9490432,7.0129299 9.0080163,7.0723118 Z M 6.0735787,3.3956012 C 8.3597717,1.7626063 11.318957,1.1390988 14.0901,1.6933273 a 10.342302,10.342302 0 0 1 4.834655,2.3901114 10.391787,10.391787 0 0 1 3.473826,6.6309493 10.441272,10.441272 0 0 1 -0.643301,4.997955 c -0.732374,1.880419 -2.028873,3.533208 -3.671765,4.701047 A 10.342302,10.342302 0 0 1 12.689682,22.318551 10.391787,10.391787 0 0 1 7.0979123,21.081433 L 1.5556256,22.51649 3.015424,17.172142 C 3.045113,17.107812 3.000575,17.053378 2.965943,17.003894 A 10.391787,10.391787 0 0 1 1.7288257,10.570883 10.540241,10.540241 0 0 1 6.0587369,3.3956012 M 8.5181265,4.0191078 C 6.8603892,4.7613791 5.4500747,6.0380837 4.5494538,7.6166458 3.836874,8.8537637 3.440996,10.264077 3.4113055,11.689237 c -0.049481,1.741861 0.4453618,3.488672 1.4004164,4.94847 0.049481,0.08907 0.138558,0.183094 0.09897,0.296908 l -0.8412398,3.087846 c 1.0540241,-0.267218 2.1080482,-0.554229 3.1670213,-0.821447 0.1336081,-0.04948 0.2474229,0.05938 0.3562895,0.118764 a 8.6598225,8.6598225 0 0 0 6.0866181,1.093612 8.5608531,8.5608531 0 0 0 3.394651,-1.459799 8.7093073,8.7093073 0 0 0 3.280834,-4.636717 8.6598225,8.6598225 0 0 0 -0.12866,-5.1958932 8.6598225,8.6598225 0 0 0 -2.592999,-3.790528 8.6103378,8.6103378 0 0 0 -4.409085,-1.9694911 c -1.583511,-0.2127842 -3.2363,0.014849 -4.7010473,0.6779404 z" />
</svg>
