<?xml version="1.0" encoding="UTF-8" standalone="no"?>
<svg
   xmlns:dc="http://purl.org/dc/elements/1.1/"
   xmlns:cc="http://creativecommons.org/ns#"
   xmlns:rdf="http://www.w3.org/1999/02/22-rdf-syntax-ns#"
   xmlns:svg="http://www.w3.org/2000/svg"
   xmlns="http://www.w3.org/2000/svg"
   xmlns:xlink="http://www.w3.org/1999/xlink"
   xmlns:sodipodi="http://sodipodi.sourceforge.net/DTD/sodipodi-0.dtd"
   xmlns:inkscape="http://www.inkscape.org/namespaces/inkscape"
   inkscape:version="1.0.1 (3bc2e813f5, 2020-09-07)"
   sodipodi:docname="yad.svg"
   id="svg20"
   version="1.1"
   height="32"
   width="32">
  <metadata
     id="metadata26">
    <rdf:RDF>
      <cc:Work
         rdf:about="">
        <dc:format>image/svg+xml</dc:format>
        <dc:type
           rdf:resource="http://purl.org/dc/dcmitype/StillImage" />
        <dc:title />
      </cc:Work>
    </rdf:RDF>
  </metadata>
  <defs
     id="defs24">
    <linearGradient
       id="linearGradient886"
       inkscape:collect="always">
      <stop
         id="stop882"
         offset="0"
         style="stop-color:#48a422;stop-opacity:1;" />
      <stop
         id="stop884"
         offset="1"
         style="stop-color:#29c78f;stop-opacity:1" />
    </linearGradient>
    <linearGradient
       gradientUnits="userSpaceOnUse"
       y2="20.93439"
       x2="23"
       y1="20.93439"
       x1="9"
       id="linearGradient888"
       xlink:href="#linearGradient886"
       inkscape:collect="always" />
    <filter
       inkscape:collect="always"
       style="color-interpolation-filters:sRGB"
       id="filter40188"
       x="-0.09"
       width="1.18"
       y="-0.064285714"
       height="1.1285714">
      <feGaussianBlur
         inkscape:collect="always"
         stdDeviation="0.75"
         id="feGaussianBlur40190" />
    </filter>
  </defs>
  <sodipodi:namedview
     inkscape:current-layer="svg20"
     inkscape:window-maximized="1"
     inkscape:window-y="0"
     inkscape:window-x="0"
     inkscape:cy="19.010272"
     inkscape:cx="22.954246"
     inkscape:zoom="16.83798"
     showgrid="false"
     id="namedview22"
     inkscape:window-height="1000"
     inkscape:window-width="1920"
     inkscape:pageshadow="2"
     inkscape:pageopacity="0"
     guidetolerance="10"
     gridtolerance="10"
     objecttolerance="10"
     borderopacity="1"
     bordercolor="#666666"
     pagecolor="#ffffff"
     inkscape:document-rotation="0" />
  <path
     id="rect4-9-4"
     style="fill:#000000;fill-opacity:1;opacity:0.5;filter:url(#filter40188)"
     d="m 12.666016,2.0000001 c -0.369518,0 -0.666016,0.446 -0.666016,1 0,0.554 0.296498,1 0.666016,1 H 13 V 10.462891 A 10,10 0 0 0 6,20 10,10 0 0 0 16,30 10,10 0 0 0 26,20 10,10 0 0 0 19,10.462891 V 4.0000001 h 0.332031 c 0.369518,0 0.667969,-0.446 0.667969,-0.9999999 0,-0.5540001 -0.298451,-1 -0.667969,-1 z" />
  <path
     d="m 12.666016,1.9999998 c -0.369518,0 -0.666016,0.446 -0.666016,1 0,0.554 0.296498,1 0.666016,1 H 13 V 10.462891 A 10,10 0 0 0 6,20 10,10 0 0 0 16,30 10,10 0 0 0 26,20 10,10 0 0 0 19,10.462891 V 3.9999998 h 0.332031 c 0.369518,0 0.667969,-0.446 0.667969,-1 0,-0.554 -0.298451,-1 -0.667969,-1 z"
     style="fill:#e4e4e4"
     id="rect4-9" />
  <path
     sodipodi:nodetypes="ccsccc"
     id="path12"
     d="M 9.6855469,17 C 9.2373296,17.936768 9.0031559,18.961528 9,20 c 0,3.865993 3.134007,7 7,7 3.865993,0 7,-3.134007 7,-7 -0.0025,-1.038323 -0.236051,-2.063076 -0.683594,-3 -5.849689,-6.963051 -7.835646,5.877096 -12.6308591,0 z"
     style="fill:url(#linearGradient888);fill-opacity:1" />
</svg>
