<?xml version="1.0" encoding="UTF-8" standalone="no"?>
<svg
   xmlns:ns="&amp;#38;ns_sfw;"
   xmlns:dc="http://purl.org/dc/elements/1.1/"
   xmlns:cc="http://creativecommons.org/ns#"
   xmlns:rdf="http://www.w3.org/1999/02/22-rdf-syntax-ns#"
   xmlns:svg="http://www.w3.org/2000/svg"
   xmlns="http://www.w3.org/2000/svg"
   xmlns:sodipodi="http://sodipodi.sourceforge.net/DTD/sodipodi-0.dtd"
   xmlns:inkscape="http://www.inkscape.org/namespaces/inkscape"
   inkscape:version="1.0.1 (3bc2e813f5, 2020-09-07)"
   height="32"
   width="32"
   sodipodi:docname="youtube-music-desktop-app.svg"
   xml:space="preserve"
   enable-background="new 0 0 176 176"
   viewBox="0 0 32 32"
   y="0px"
   x="0px"
   id="Layer_1"
   version="1.1"><defs
   id="defs11"><filter
     inkscape:collect="always"
     style="color-interpolation-filters:sRGB"
     id="filter40176"
     x="-0.075"
     width="1.15"
     y="-0.075"
     height="1.15"><feGaussianBlur
       inkscape:collect="always"
       stdDeviation="5.5"
       id="feGaussianBlur40178" /></filter></defs><sodipodi:namedview
   inkscape:current-layer="XMLID_167_"
   inkscape:window-maximized="1"
   inkscape:window-y="0"
   inkscape:window-x="0"
   inkscape:cy="17.533826"
   inkscape:cx="2.9269303"
   inkscape:zoom="13.868935"
   showgrid="false"
   id="namedview9"
   inkscape:window-height="1000"
   inkscape:window-width="1920"
   inkscape:pageshadow="2"
   inkscape:pageopacity="0"
   guidetolerance="10"
   gridtolerance="10"
   objecttolerance="10"
   borderopacity="1"
   bordercolor="#666666"
   pagecolor="#ffffff"
   inkscape:document-rotation="0" />
<metadata
   id="metadata2">
	<ns:sfw>
		<ns:slices />
		<ns:sliceSourceBounds
   y="-184"
   x="8"
   width="176"
   height="176"
   bottomLeftOrigin="true" />
	</ns:sfw>
<rdf:RDF><cc:Work
     rdf:about=""><dc:format>image/svg+xml</dc:format><dc:type
       rdf:resource="http://purl.org/dc/dcmitype/StillImage" /><dc:title /></cc:Work></rdf:RDF></metadata>
<g
   transform="matrix(0.15909091,0,0,0.15909091,1.9999999,1.9999999)"
   id="XMLID_167_">
	<circle
   style="fill:#000000;fill-opacity:1;stroke-width:1;opacity:0.5;filter:url(#filter40176)"
   id="XMLID_791_-3"
   fill="#ff0000"
   cx="88"
   cy="88"
   r="88" /><circle
   r="88"
   cy="88"
   cx="88"
   fill="#ff0000"
   id="XMLID_791_" />
	<path
   style="stroke-width:6.28571425;stroke-miterlimit:4;stroke-dasharray:none;stroke:#ffffff;stroke-opacity:1"
   d="m 88,46 c 23.1,0 42,18.8 42,42 0,23.2 -18.8,42 -42,42 C 64.8,130 46,111.2 46,88 46,64.8 64.9,46 88,46 m 0,-4 c -25.4,0 -46,20.6 -46,46 0,25.4 20.6,46 46,46 25.4,0 46,-20.6 46,-46 0,-25.4 -20.6,-46 -46,-46 z"
   fill="#ffffff"
   id="XMLID_42_" />
	<polygon
   points="72,65 72,111 111,87 "
   fill="#ffffff"
   id="XMLID_274_" />
</g>
</svg>
