<?xml version="1.0" encoding="UTF-8" standalone="no"?>
<svg
   xmlns:dc="http://purl.org/dc/elements/1.1/"
   xmlns:cc="http://creativecommons.org/ns#"
   xmlns:rdf="http://www.w3.org/1999/02/22-rdf-syntax-ns#"
   xmlns:svg="http://www.w3.org/2000/svg"
   xmlns="http://www.w3.org/2000/svg"
   xmlns:sodipodi="http://sodipodi.sourceforge.net/DTD/sodipodi-0.dtd"
   xmlns:inkscape="http://www.inkscape.org/namespaces/inkscape"
   width="24"
   height="24"
   version="1"
   id="svg24"
   sodipodi:docname="user-trash.svg"
   inkscape:version="1.0 (4035a4fb49, 2020-05-01)">
  <metadata
     id="metadata30">
    <rdf:RDF>
      <cc:Work
         rdf:about="">
        <dc:format>image/svg+xml</dc:format>
        <dc:type
           rdf:resource="http://purl.org/dc/dcmitype/StillImage" />
        <dc:title></dc:title>
      </cc:Work>
    </rdf:RDF>
  </metadata>
  <defs
     id="defs28" />
  <sodipodi:namedview
     pagecolor="#ffffff"
     bordercolor="#666666"
     borderopacity="1"
     objecttolerance="10"
     gridtolerance="10"
     guidetolerance="10"
     inkscape:pageopacity="0"
     inkscape:pageshadow="2"
     inkscape:window-width="1920"
     inkscape:window-height="1002"
     id="namedview26"
     showgrid="false"
     inkscape:zoom="22.627417"
     inkscape:cx="-4.1398201"
     inkscape:cy="-2.2600472"
     inkscape:window-x="0"
     inkscape:window-y="0"
     inkscape:window-maximized="1"
     inkscape:current-layer="svg24"
     inkscape:document-rotation="0" />
  <path
     id="path1094"
     style="opacity:1;fill:#dfdfdf;fill-opacity:1;stroke:none;stroke-width:0.499996px;stroke-linecap:butt;stroke-linejoin:miter;stroke-opacity:1"
     d="m 11.800802,5.0001014 a 6.9999494,0.99999277 0 0 0 -6.8007316,0.9999928 6.9999494,0.99999277 0 0 0 0,0.00196 6.9999494,0.99999277 0 0 0 0.00684,0.040039 L 7.0000559,18.000008 A 4.9999638,0.99999277 0 0 0 12.00002,19 4.9999638,0.99999277 0 0 0 16.999984,18.000008 L 18.993133,6.0420861 a 6.9999494,0.99999277 0 0 0 0.0068,-0.041992 6.9999494,0.99999277 0 0 0 -6.999949,-0.9999928 6.9999494,0.99999277 0 0 0 -0.199218,0 z m 0.865228,4.5038735 c 0.958377,-0.050181 1.152336,0.4287079 1.152336,0.4287079 L 14.070318,10.39264 14.75586,9.9893234 13.922858,11.610405 12.062519,11.568415 12.617203,11.244199 11.858419,9.8535835 C 11.69101,9.5833643 11.354516,9.5147193 11.354516,9.5147193 c 0.12366,0.023345 1.311514,-0.010745 1.311514,-0.010744 z m -1.506825,0.1630848 c 0.256902,0.00818 0.553037,0.208458 0.843744,0.8300723 L 11.06741,12.081105 9.7939812,11.310603 10.412141,10.174869 c 0,0 0.318896,-0.5214462 0.747064,-0.5078093 z m 3.397437,1.7070193 0.649409,1.116203 c 0,0 0.718972,1.393431 -1.053703,1.277334 l -0.870111,-1.624012 z m -4.438445,0.347653 0.933588,1.666981 -0.556637,-0.32031 -0.7519479,1.393544 C 9.607281,14.750902 9.7256201,15.08499 9.7256201,15.08499 9.6824555,14.963472 9.0351952,13.928748 9.0351952,13.928748 8.4956368,13.107791 8.7891055,12.685593 8.7891055,12.685593 L 9.0381272,12.223682 8.3496555,11.826224 Z m 3.10447,1.572255 v 0.660151 h 1.541005 c 0.309737,-0.01815 0.533199,-0.288083 0.533199,-0.288083 -0.08108,0.09794 -0.637691,1.188467 -0.637691,1.188467 -0.428149,0.888664 -0.92675,0.829096 -0.92675,0.829096 h -0.509763 v 0.816401 l -0.950188,-1.549794 z m -3.024392,0.705073 1.792956,0.0059 0.02539,1.528309 -1.255851,0.04199 c 0,0 -1.5243701,-0.02914 -0.562495,-1.576162 z" />
  <g
     style="fill:none;fill-rule:evenodd;stroke:none;stroke-width:0.0924382"
     id="Group"
     transform="matrix(0.12959418,0,0,0.14582989,9.0019155,11.054307)" />
</svg>
